<?xml version="1.0" standalone="no"?>
<!DOCTYPE svg PUBLIC "-//W3C//DTD SVG 1.1//EN" "http://www.w3.org/Graphics/SVG/1.1/DTD/svg11.dtd" >
<svg xmlns="http://www.w3.org/2000/svg" xmlns:xlink="http://www.w3.org/1999/xlink" version="1.1">
<metadata>
Created by FontForge 20170731 at Tue Jun  6 15:48:37 2017
 By Aleksey,,,
Copyright (c) 2017 by . All rights reserved.
</metadata>
<defs>
<font id="ALSLamon-Regular" horiz-adv-x="1429" >
  <font-face 
    font-family="ALS Lamon"
    font-weight="400"
    font-stretch="normal"
    units-per-em="2048"
    panose-1="0 0 0 0 0 0 0 0 0 0"
    ascent="1638"
    descent="-410"
    x-height="1403"
    cap-height="1417"
    bbox="0 -285 2601 1896"
    underline-thickness="102"
    underline-position="-970"
    unicode-range="U+0002-25FC"
  />
<missing-glyph horiz-adv-x="634" 
 />
    <glyph glyph-name=".notdef" horiz-adv-x="634" 
 />
    <glyph glyph-name=".null" horiz-adv-x="0" 
 />
    <glyph glyph-name="nonmarkingreturn" horiz-adv-x="682" 
 />
    <glyph glyph-name="NULL" horiz-adv-x="0" 
 />
    <glyph glyph-name="NULL" horiz-adv-x="0" 
 />
    <glyph glyph-name="uni0002" horiz-adv-x="0" 
 />
    <glyph glyph-name="CR" unicode="&#xd;" horiz-adv-x="552" 
 />
    <glyph glyph-name="space" unicode=" " horiz-adv-x="634" 
 />
    <glyph glyph-name="exclam" unicode="!" horiz-adv-x="798" 
d="M133 1278q0 6 4 18q36 71 104.5 109.5t151.5 38.5q127 0 200 -73t73 -204v-354q0 -75 -24 -135t-62 -98.5t-84 -70.5t-92.5 -60t-84.5 -57.5t-62 -71.5t-24 -95q0 -74 51.5 -123t127.5 -49q28 0 57 9.5t56.5 28.5t45 53.5t17.5 78.5t-22.5 79t-67.5 75q-13 13 -13 29
q0 15 12.5 26.5t26.5 11.5q17 0 25 -8q54 -48 85.5 -97.5t31.5 -115.5q0 -115 -74.5 -181.5t-179.5 -66.5q-106 0 -181 72.5t-75 177.5q0 62 24 112t62 85t84 66l92 62q46 31 84 66t62 85t24 112v354q0 59 -17 100t-47 61.5t-61.5 29t-69.5 8.5q-120 0 -176 -88
q41 -81 41 -203q0 -54 -2 -119t-2 -151q0 -123 76 -199q12 -12 12 -26q0 -15 -12 -26t-27 -11q-19 0 -29 10q-98 98 -98 252q0 87 2 152t2 118q0 115 -41 185q-6 9 -6 18z" />
    <glyph glyph-name="quotedbl" unicode="&#x22;" horiz-adv-x="1019" 
d="M102 1317q0 13 11 24q80 89 180 89q96 0 144 -55t48 -132q0 -41 -8 -127t-8 -164q0 -20 4 -51.5t4 -38.5q0 -15 -12 -31q-29 -29 -71.5 -44t-80.5 -15q-48 0 -82.5 15t-53 36.5t-29 56t-13 63t-2.5 67.5v94q0 134 -27 196q-4 12 -4 17zM186 1307q25 -85 25 -201v-102
q0 -32 1.5 -51.5t7 -41t16 -33.5t30 -20t47.5 -8q40 0 82 27q-6 35 -6 75q0 48 9.5 146t9.5 137q0 117 -115 117q-56 0 -107 -45zM535 1317q0 14 10 24q80 89 180 89q96 0 144.5 -55t48.5 -132q0 -41 -8.5 -127t-8.5 -164q0 -20 4 -51.5t4 -38.5q0 -15 -12 -31
q-29 -29 -71.5 -44t-80.5 -15q-48 0 -82.5 15t-53 36.5t-29 56t-13 63t-2.5 67.5v94q0 137 -26 196q-4 12 -4 17zM618 1307q25 -85 25 -201v-102q0 -32 1.5 -51.5t7 -41t16 -33.5t30 -20t47.5 -8q40 0 82 27q-6 35 -6 75q0 48 9.5 146t9.5 137q0 117 -115 117
q-56 0 -107 -45z" />
    <glyph glyph-name="numbersign" unicode="#" horiz-adv-x="1708" 
d="M102 489q0 50 21.5 90t55.5 67t85.5 47t102.5 31t116.5 17.5t118 8.5t115.5 2q199 0 297 4q52 1 83.5 2.5t85 5t87.5 8.5t79 13.5t73 21t54.5 29.5t39 40.5t12.5 51.5q0 64 -43 98q-61 -31 -172 -31q-16 0 -27.5 10t-11.5 29q0 24 10 77.5t10 94.5q0 111 -123 111
q-42 0 -79 -17.5t-50 -50.5q19 -58 19 -114t-19 -113q-10 -27 -34 -27h-189q-18 0 -28.5 10.5t-10.5 26.5q0 11 11.5 87.5t11.5 101.5q0 50 -25.5 72t-85.5 22q-43 0 -82.5 -18t-60.5 -44q14 -49 14 -102q0 -37 -14 -123q-1 -13 -12 -23t-25 -10h-94q-25 0 -49 -3.5t-54 -13
t-48.5 -32.5t-18.5 -57t14 -57.5t14 -36.5q0 -15 -10.5 -26t-25.5 -11q-20 0 -31 14q-39 53 -39 117q0 93 70 137.5t178 44.5h61q6 35 6 72q0 57 -16 104q-4 12 -4 17q0 9 6 18q29 47 92.5 79t128.5 32q94 0 142.5 -44.5t48.5 -129.5q0 -27 -8.5 -76.5t-10.5 -71.5h113
q6 48 6 62q0 46 -16 98q-4 12 -4 16q0 7 2 13q22 66 78.5 100.5t127.5 34.5q96 0 148.5 -51.5t52.5 -137.5q0 -35 -16 -133q61 2 114 33q12 4 19 4q11 0 20 -6q45 -28 71 -68t26 -108q0 -45 -20 -82t-57.5 -62t-79.5 -44t-98 -30t-100 -18t-98.5 -10t-81 -3.5t-59.5 -0.5
q-22 0 -134.5 -1t-162.5 -1q-47 0 -86.5 -1.5t-109 -6.5t-122.5 -17.5t-106 -32t-82 -53t-29 -76.5q0 -53 27 -94q77 29 168 29q17 0 28 -12.5t11 -28.5q0 -34 -21.5 -112t-21.5 -97q0 -44 29.5 -70t80.5 -26q44 0 86.5 16.5t67.5 42.5q-8 44 -8 92q0 26 2.5 52.5t5.5 45.5
t6 34.5t5.5 24t2.5 9.5q11 29 39 29h176q15 0 27 -12t12 -27q0 -7 -10 -78t-10 -112q0 -117 110 -117q46 0 92 24t58 58q-23 60 -23 137q0 18 1 43t1 33q0 27 13.5 39t27.5 12h133q99 0 134.5 27.5t35.5 76.5q0 48 -24 78q-10 13 -10 25q0 15 10.5 26t25.5 11q23 0 33 -13
q43 -55 43 -123q0 -97 -68.5 -140.5t-179.5 -43.5h-96q0 -7 -1 -22.5t-1 -22.5q0 -71 21 -127q4 -6 4 -22q-14 -66 -86 -110t-144 -44q-90 1 -139 55t-49 144q0 27 14 149h-102q-12 -50 -12 -117q0 -47 5 -71.5t5 -34.5q0 -14 -6 -23q-34 -46 -96.5 -74t-131.5 -28
q-82 0 -135 44.5t-53 123.5q0 33 14 90t19 88q-57 -6 -111 -33q-8 -4 -16 -4q-19 0 -29 10q-24 21 -46 65t-22 105z" />
    <glyph glyph-name="dollar" unicode="$" horiz-adv-x="1544" 
d="M133 354q0 120 79 190t198 70q38 0 86 -10q22 -6 28 -24q23 -65 94 -114.5t158 -49.5q53 0 90.5 14t54 36.5t23 42t6.5 38.5q0 39 -23 66.5t-60 42.5t-81.5 27.5t-89 27t-81.5 35.5t-60 58.5t-23 90.5q0 81 60.5 139t144.5 64v104q0 17 11.5 28t27.5 11q17 0 28 -11
t11 -28v-108q62 -3 119.5 -45.5t83.5 -96.5q16 -2 49 -2q92 0 145.5 41t53.5 129q0 40 -20.5 73t-49.5 53.5t-74.5 38.5t-81 27t-84.5 19q-12 3 -21 13t-9 22q0 10 4 30.5t4 30.5q0 66 -42.5 105t-117.5 39q-92 0 -162 -39q39 -85 39 -158q0 -14 -8.5 -25t-21.5 -14
q-79 -16 -141.5 -41t-102 -51t-68 -60t-41.5 -59.5t-20.5 -58.5t-8.5 -48.5t-1 -37.5q0 -49 7.5 -89t22.5 -67t24 -39t23 -28q11 -15 11 -25q0 -15 -8.5 -28t-22.5 -13q-16 0 -31 15q-45 52 -64 89q-40 79 -40 185q0 172 111.5 277t299.5 149q-9 54 -43 123q-4 12 -4 18
q0 19 13 29q42 36 108.5 55t128.5 19q107 0 172.5 -60t65.5 -164q0 -4 -1 -13t-1 -13q45 -12 80.5 -23.5t76 -28.5t70 -38.5t55 -48.5t38.5 -62.5t13 -77.5q0 -118 -78 -184t-198 -66q-41 0 -82 9q-23 4 -29 22q-19 47 -64 83t-128 36q-72 0 -113 -37.5t-41 -87.5
q0 -40 31 -68t77.5 -42t100.5 -32.5t100.5 -39t77.5 -63.5t31 -103q0 -87 -60.5 -143t-152.5 -64v-119q0 -16 -11 -27.5t-28 -11.5q-15 0 -27 12t-12 27v119q-89 9 -166 62t-112 130q-31 7 -56 7q-82 0 -137 -50.5t-55 -134.5q0 -222 385 -282q15 -3 24 -15.5t9 -27.5
q0 -193 151 -193q106 0 187 55q-3 7 -13 32.5t-14.5 38.5t-9 32t-4.5 33t8.5 25t21.5 14q377 75 377 397q0 104 -49 182q-21 33 -51.5 60t-49 42.5t-18.5 28.5q0 41 41 41q17 0 49.5 -25.5t68 -68.5t61.5 -113.5t26 -146.5q0 -186 -105.5 -307.5t-293.5 -157.5
q16 -59 37 -94q8 -12 8 -21q0 -15 -15 -30q-62 -55 -133.5 -75t-128.5 -20q-104 0 -170 72q-58 64 -61 170q-64 12 -121.5 30.5t-112.5 49t-94.5 68.5t-63.5 91t-24 115z" />
    <glyph glyph-name="percent" unicode="%" horiz-adv-x="1806" 
d="M123 948q0 113 40.5 205t108 150t151 89t173.5 31q136 0 261.5 -69.5t170.5 -184.5q62 64 98 201q7 25 27 31q56 18 109 18q106 0 183 -74.5t77 -181.5q0 -87 -41.5 -160.5t-112 -127t-162 -100t-192.5 -84t-201.5 -73t-192 -74.5t-162 -81.5t-112 -99t-41.5 -123.5
q0 -70 50.5 -124.5t125.5 -54.5q25 0 74 11q35 195 188 286q13 9 27 9q27 0 37 -29q40 -129 151.5 -204t249.5 -75q175 0 286.5 110.5t111.5 283.5q0 89 -44 172t-118 133q-17 11 -17 30q0 17 11 28t26 11q14 0 23 -6q89 -58 142.5 -159t53.5 -209q0 -134 -63 -242
t-171.5 -168.5t-240.5 -60.5q-147 0 -279.5 78.5t-178.5 207.5q-43 -31 -76.5 -92t-46.5 -141q-3 -24 -27 -31q-64 -20 -121 -20q-112 0 -182 77t-70 179q0 79 41.5 146t112 116t162 92t192.5 79t201.5 72.5t192 78t162 88.5t112 111t41.5 140q0 74 -53 127t-129 53
q-31 0 -62 -8q-8 -54 -49.5 -128t-101.5 -138q-14 -14 -35 -14q-13 0 -24.5 10t-14.5 22q-33 118 -141 188.5t-238 70.5q-58 0 -114 -15t-107 -47t-89.5 -78t-61.5 -112.5t-23 -145.5q0 -94 47.5 -168t113.5 -114q19 -13 19 -35q0 -16 -12.5 -27.5t-26.5 -11.5q-11 0 -20 6
q-91 56 -145 150t-54 200zM469 911q0 76 48 130.5t116 54.5q67 0 114.5 -54t47.5 -131q0 -75 -47.5 -128.5t-114.5 -53.5q-68 0 -116 53.5t-48 128.5zM547 911q0 -43 25.5 -73.5t60.5 -30.5t59.5 30.5t24.5 73.5q0 44 -24.5 75.5t-59.5 31.5t-60.5 -31.5t-25.5 -75.5z
M1016 475q0 75 48 128.5t116 53.5q67 0 115 -53.5t48 -128.5q0 -76 -47.5 -130t-115.5 -54t-116 54t-48 130zM1094 475q0 -44 25.5 -75t60.5 -31t60.5 31t25.5 75q0 43 -25.5 74t-60.5 31t-60.5 -31t-25.5 -74z" />
    <glyph glyph-name="ampersand" unicode="&#x26;" horiz-adv-x="1531" 
d="M102 412q0 93 36.5 182.5t101.5 153.5q-37 46 -58.5 116.5t-21.5 141.5q0 179 139.5 306.5t362.5 127.5q116 0 211.5 -36t158.5 -99t97 -146t34 -178q0 -125 -49 -125q-15 0 -26 10t-11 25q0 9 4 37.5t4 52.5q0 164 -113.5 272.5t-309.5 108.5q-91 0 -166 -25t-121.5 -64
t-78.5 -88t-45 -94t-13 -85q0 -139 75 -232q15 -19 15 -33q0 -17 -17 -34q-131 -122 -131 -295q0 -161 135 -266t357 -105q47 0 87 5.5t74 18t54 21.5t50.5 25.5t39.5 21.5q17 10 33 10q18 0 32 -14q43 -44 76 -63t88 -19q72 0 109 47.5t37 114.5q0 71 -25 102
q-123 20 -342 140q-56 -76 -125 -114t-166 -38q-91 0 -160 58.5t-69 146.5q0 121 127 231q-100 118 -100 228q0 90 53 141t129 51q77 0 129.5 -50.5t52.5 -137.5q0 -49 -24.5 -95.5t-51.5 -74.5t-75 -70q19 -20 55.5 -46.5t61 -42t78.5 -47.5t63 -38q61 97 84 199
q8 34 40 34q113 0 193 -58.5t80 -166.5q0 -30 -2.5 -49t-13.5 -35t-31 -16q-14 0 -23.5 11.5t-9.5 25.5q0 10 2 33t2 32q0 61 -47 101t-121 43q-28 -99 -86 -193q214 -117 324 -127q15 0 28 -16q20 -29 34 -74t14 -86q0 -101 -58 -171.5t-166 -70.5q-116 0 -202 90
q-136 -96 -332 -96q-259 0 -414.5 129t-155.5 320zM543 504q0 -62 49 -94.5t102 -32.5q75 0 125 31t92 81q-7 4 -52.5 33t-63.5 41t-52.5 35.5t-57.5 42.5t-40 37q-50 -45 -76 -84.5t-26 -89.5zM569 963q0 -77 82 -179q64 54 95.5 94t31.5 89q0 59 -33.5 84.5t-70.5 25.5
q-41 0 -73 -28t-32 -86z" />
    <glyph glyph-name="quotesingle" unicode="'" horiz-adv-x="649" 
d="M133 1317q0 14 10 24q80 89 181 89q96 0 144 -55t48 -132q0 -41 -8 -127t-8 -164q0 -20 4 -51.5t4 -38.5q0 -15 -12 -31q-29 -29 -71.5 -44t-80.5 -15q-48 0 -82.5 15t-53 36.5t-29 56t-13 63t-2.5 67.5v94q0 134 -27 196q-4 12 -4 17zM217 1307q25 -85 25 -201v-102
q0 -32 1.5 -51.5t7 -41t16 -33.5t30 -20t47.5 -8q40 0 82 27q-6 35 -6 75q0 48 9 146t9 137q0 117 -114 117q-56 0 -107 -45z" />
    <glyph glyph-name="parenleft" unicode="(" horiz-adv-x="890" 
d="M123 692q0 176 41 340.5t106.5 280t148.5 185t165 69.5q108 0 166.5 -65.5t58.5 -158.5q0 -39 -5.5 -59t-23.5 -27q-65 -27 -114.5 -82.5t-77.5 -117t-45.5 -134.5t-23 -127.5t-5.5 -103.5t5.5 -103.5t23 -127.5t45.5 -134.5t77.5 -117t114.5 -82.5q18 -8 23.5 -28
t5.5 -58q0 -93 -58.5 -158t-166.5 -65q-66 0 -133 43.5t-125 125t-104 187.5t-72.5 241.5t-26.5 276.5zM201 692q0 -132 24 -257.5t64 -221t90 -168.5t103 -111t102 -38q82 0 114.5 45t32.5 122q-77 38 -136 110.5t-92.5 161t-50 179t-16.5 178.5t16.5 178.5t50 179
t92.5 161t136 110.5q0 77 -32.5 122.5t-114.5 45.5q-48 0 -101.5 -38.5t-103.5 -111.5t-90 -168.5t-64 -221t-24 -257.5z" />
    <glyph glyph-name="parenright" unicode=")" horiz-adv-x="890" 
d="M82 41q0 27 1 40t7.5 26.5t20.5 19.5q65 27 114.5 82.5t77.5 117t45.5 134.5t23 127.5t5.5 103.5t-5.5 103.5t-23 127.5t-45.5 134.5t-77.5 117t-114.5 82.5q-20 8 -24.5 27t-4.5 59q0 93 58.5 158.5t166.5 65.5q82 0 165 -69.5t148.5 -185t106.5 -280t41 -340.5
q0 -141 -26.5 -276.5t-72.5 -241.5t-104 -187.5t-125 -125t-133 -43.5q-108 0 -166.5 65t-58.5 158zM160 63q0 -77 32.5 -122t114.5 -45q49 0 102 38t103 111t90 168.5t64 221t24 257.5t-24 257.5t-64 221t-90 168.5t-103.5 111.5t-101.5 38.5q-82 0 -114.5 -45.5
t-32.5 -122.5q77 -38 136 -110.5t92.5 -161t50 -179t16.5 -178.5t-16.5 -178.5t-50 -179t-92.5 -161t-136 -110.5z" />
    <glyph glyph-name="asterisk" unicode="*" horiz-adv-x="1214" 
d="M82 1389q0 80 51 140t143 60q79 0 166 -47q-15 65 -51 127q-6 9 -6 21q0 13 8 24q81 105 189 105q93 0 149.5 -59t56.5 -154q0 -34 -4 -88q68 26 134 92q12 12 24 12q22 0 52 -12t62.5 -35.5t54.5 -67t22 -98.5q0 -56 -37.5 -102t-88.5 -71.5t-112 -39.5q75 -63 131 -78
q16 -5 24.5 -19.5t9.5 -26.5t1 -32q0 -92 -56 -156.5t-145 -64.5q-41 0 -72.5 13t-66.5 45q-23 20 -115 127q-43 -67 -65 -156q-4 -15 -15.5 -25t-30.5 -14t-35 -5t-40 -1q-85 0 -145 59.5t-60 145.5q0 38 17 77t36 64t54 63q-69 21 -138 21q-26 0 -37 5.5t-34 31.5
q-31 34 -31 119zM111 1288q52 23 102 23q86 0 144.5 -25.5t58.5 -56.5q0 -12 -13 -29q-6 -8 -35 -43.5t-40 -51.5t-24 -46.5t-13 -57.5q0 -54 41.5 -87t99.5 -33q15 0 39 4q23 106 100 192q14 17 33 17q17 0 29 -15q64 -76 139 -143q46 -41 88 -41q51 0 87 40.5t36 92.5
q0 17 -2 25q-80 40 -131 85t-51 72q0 14 8.5 25t21.5 14q226 54 226 160q0 58 -31.5 89.5t-69.5 41.5q-78 -75 -178 -100q-6 -2 -18 -2q-47 0 -47 61v68q0 87 -31 130.5t-100 43.5q-57 0 -109 -55q45 -90 45 -191q0 -23 -13.5 -34t-33.5 -11q-15 0 -31 8q-3 1 -16 9
t-16.5 10t-16 8.5t-19 8.5t-19 6.5t-23 6t-24 3t-28.5 1.5q-52 0 -84 -37t-32 -85q0 -39 8 -59t27 -34z" />
    <glyph glyph-name="plus" unicode="+" horiz-adv-x="1361" 
d="M113 717q0 109 63.5 180.5t169.5 71.5q63 0 131 -8q-5 93 -49 190q-6 9 -6 20q0 15 12 27q51 48 102.5 74t122.5 26q109 0 186 -63t77 -168q0 -34 -9 -135q103 5 187 51q9 6 20 6q18 0 27 -12q33 -35 51.5 -60t34.5 -67.5t16 -91.5q0 -109 -63.5 -180.5t-169.5 -71.5
q-54 0 -131 6q4 -114 49 -188q6 -9 6 -23q0 -17 -12 -29q-11 -13 -38 -33t-86.5 -43.5t-121.5 -23.5q-104 0 -173 66.5t-69 169.5q0 32 9 133q-106 -6 -187 -47q-14 -7 -24 -7q-14 0 -25 11q-30 31 -47.5 54t-35 68.5t-17.5 96.5zM190 717q0 -77 60 -144q99 45 239 45
q37 0 37 -36q0 -30 -4 -90.5t-4 -83.5q0 -78 49 -118t121 -40q45 0 89.5 16t74.5 43q-45 97 -45 242q0 16 9.5 27.5t27.5 11.5q11 0 65.5 -3t106.5 -3q79 0 117 51.5t38 122.5q0 77 -61 145q-93 -49 -240 -49q-15 0 -25.5 11t-10.5 26q0 23 5 71t5 105q0 75 -54.5 114.5
t-130.5 39.5q-78 0 -151 -60q47 -99 47 -241q0 -39 -41 -39q-28 0 -88 5t-80 5q-79 0 -117.5 -52t-38.5 -122z" />
    <glyph glyph-name="comma" unicode="," horiz-adv-x="606" 
d="M102 207q0 88 62 148.5t151 60.5q94 0 151.5 -67.5t57.5 -164.5q0 -58 -27.5 -129t-88.5 -125q-42 -37 -90.5 -57t-82 -23.5t-85.5 -3.5q-21 0 -32.5 9.5t-11.5 25.5q0 15 7 25q37 81 37 114q0 25 -24 79t-24 108zM180 207q0 -38 23.5 -94t23.5 -93q0 -47 -24 -96
q57 2 105 29t77 66.5t45 83t16 81.5q0 63 -34 108.5t-97 45.5q-58 0 -96.5 -37.5t-38.5 -93.5z" />
    <glyph glyph-name="hyphen" unicode="-" horiz-adv-x="1177" 
d="M102 719q0 114 77.5 185t193.5 71q78 0 168 -13.5t137 -13.5q113 0 233 51q15 5 17 5q13 0 24 -11q123 -108 123 -233q0 -114 -77 -185t-193 -71q-78 0 -168 13t-137 13q-114 0 -234 -51q-12 -4 -16 -4q-15 0 -25 10q-123 108 -123 234zM180 719q0 -82 78 -160
q122 47 240 47q46 0 136 -12t171 -12q94 0 143 52t49 126q0 83 -77 160q-125 -48 -240 -48q-46 0 -136 12.5t-171 12.5q-94 0 -143.5 -52t-49.5 -126z" />
    <glyph glyph-name="period" unicode="." horiz-adv-x="708" 
d="M133 195q0 92 76 149t174 57q81 0 136.5 -52.5t55.5 -133.5q0 -93 -74 -154t-171 -61q-91 0 -144 52t-53 143zM211 195q0 -117 119 -117q61 0 114.5 36t53.5 101q0 50 -31.5 79.5t-83.5 29.5q-69 0 -120.5 -34.5t-51.5 -94.5z" />
    <glyph glyph-name="slash" unicode="/" horiz-adv-x="1230" 
d="M0 264q0 26 25 37q33 12 63.5 34t59.5 54.5t48 56.5t48 64l473 649q96 132 165.5 188t157.5 56q112 0 172 -72.5t60 -191.5q0 -26 -25 -37q-33 -12 -63.5 -34t-59.5 -54.5t-48 -56.5t-48 -64l-473 -649q-96 -132 -166 -188t-158 -56q-112 0 -171.5 72t-59.5 192zM80 240
q9 -162 151 -162q56 0 113.5 43.5t147.5 167.5l473 649q36 51 63.5 85t72.5 75.5t91 64.5q-9 162 -152 162q-56 0 -112.5 -43.5t-147.5 -167.5l-473 -649q-36 -51 -63.5 -85t-72.5 -75.5t-91 -64.5z" />
    <glyph glyph-name="zero" unicode="0" horiz-adv-x="1472" 
d="M102 688q0 153 45 288t126.5 236.5t205.5 160.5t273 59q161 0 290.5 -64.5t202.5 -200.5q6 -12 6 -18q0 -18 -11.5 -29.5t-27.5 -11.5q-25 0 -34 22q-19 34 -49.5 67.5t-81 71.5t-127.5 61.5t-168 23.5q-249 0 -410.5 -184.5t-161.5 -481.5q0 -294 155.5 -465.5
t407.5 -171.5q250 0 399.5 155t149.5 421q0 115 -43.5 212t-133.5 159.5t-210 62.5q-63 0 -115 -17.5t-85 -44.5t-57.5 -64.5t-37 -71.5t-20 -72.5t-9 -60t-1.5 -40.5q0 -60 15 -115.5t54 -98t96 -42.5q73 0 115.5 65.5t42.5 186.5q0 81 -35 138t-84 89q-18 12 -18 33
q0 17 12.5 28t28.5 11q11 0 20 -6q154 -108 154 -293q0 -65 -12.5 -121.5t-39 -104.5t-74 -76t-110.5 -28q-60 0 -108 30t-76.5 79t-43.5 106.5t-15 118.5q0 85 23.5 162.5t70 143t126.5 104.5t183 39q139 0 246.5 -71t163 -187t55.5 -254q0 -191 -75.5 -339t-218.5 -231.5
t-333 -83.5q-139 0 -256.5 48.5t-203 138.5t-133.5 225.5t-48 302.5z" />
    <glyph glyph-name="one" unicode="1" horiz-adv-x="1327" 
d="M113 987q0 86 49 156q11 16 35 16q83 0 174.5 43.5t156.5 97.5t121 117q15 15 35 15q131 0 202.5 -75.5t71.5 -217.5v-658q89 3 146 39q9 6 20 6q17 0 27 -10q104 -92 104 -235q0 -126 -78 -203.5t-204 -77.5q-75 0 -237.5 13.5t-237.5 13.5q-104 0 -193 -29
q-12 -4 -16 -4q-13 0 -23 10q-90 84 -90 244q0 124 74.5 194t175.5 70q27 0 59 -4v266q-1 -1 -10.5 -9.5t-13.5 -12t-13 -10.5t-15.5 -10t-15 -6t-16.5 -3q-15 0 -25.5 11.5t-10.5 29.5q0 23 20 33q16 8 31.5 17.5t26 17t20.5 17t15.5 14.5t11.5 11l6 7q12 12 28 12
q39 0 39 -39v-356l68 -15q37 -8 37 -41q0 -34 -41 -34q-3 0 -42 6.5t-87 13t-72 6.5q-69 0 -120.5 -48.5t-51.5 -137.5q0 -112 51 -172q114 28 195 28q77 0 238.5 -13t234.5 -13q94 0 149.5 54.5t55.5 148.5q0 90 -60 157q-45 -22 -88.5 -28.5t-109.5 -6.5q-15 0 -27 12
t-12 27v697q0 106 -45 158.5t-140 56.5q-93 -109 -227 -190t-254 -81q-27 -53 -27 -94q0 -54 29.5 -103t63.5 -69q24 -15 24 -37q0 -17 -10 -28t-25 -11q-10 0 -14 2q-59 24 -101 97.5t-42 146.5z" />
    <glyph glyph-name="two" unicode="2" 
d="M123 268q0 296 225 449q9 6 23 6q16 0 26.5 -10t10.5 -27q0 -21 -15 -33q-192 -136 -192 -385q0 -117 45 -178q84 37 231 37q87 0 282 -24.5t277 -24.5q58 0 101.5 16.5t66 39.5t36 55t17 55.5t3.5 48.5q0 81 -68 156q-89 -43 -205 -43q-49 0 -148 10t-149 10
q-76 0 -121 -12.5t-57 -12.5q-14 0 -25.5 10.5t-11.5 26.5q0 55 19.5 100t50.5 75t68.5 55.5t75 49t68.5 48t50.5 58.5t19.5 75q0 22 -5.5 42.5t-18 41.5t-38.5 34t-63 13q-139 0 -139 -135q0 -22 -14 -33q-67 -55 -174 -55q-116 0 -181 64t-65 178q0 84 35 153.5t92 115.5
t133 78t156.5 46t163.5 14q231 0 384.5 -141t153.5 -352q0 -140 -45 -230t-155 -176q-16 -8 -25 -8q-15 0 -27 13t-12 28q0 20 14 28q95 74 133.5 147t38.5 198q0 79 -30.5 152.5t-86.5 132.5t-145.5 94.5t-197.5 35.5q-70 0 -138 -10.5t-135 -35t-117 -61t-81 -94
t-31 -128.5q0 -164 168 -164q63 0 110 26q0 94 61.5 145.5t155.5 51.5q92 0 147.5 -58t55.5 -151q0 -66 -30.5 -116.5t-76.5 -82.5t-93.5 -60.5t-88.5 -65.5t-55 -82q60 14 127 14q53 0 154.5 -11.5t148.5 -11.5q114 0 189 47q10 7 20 7q16 0 29 -13q33 -35 51.5 -60
t37.5 -72t19 -99q0 -136 -81 -214.5t-220 -78.5q-69 0 -270 23.5t-299 23.5q-142 0 -211 -39q-9 -6 -20 -6q-15 0 -25 10q-13 11 -25.5 28t-28 47t-25 77t-9.5 104z" />
    <glyph glyph-name="three" unicode="3" horiz-adv-x="1452" 
d="M113 424q0 154 85 250.5t222 134.5q12 4 22 4q14 0 25.5 -10.5t11.5 -26.5q0 -34 -30 -41q-116 -30 -187.5 -109t-71.5 -202q0 -117 74 -202.5t186 -125t244 -39.5q246 0 395.5 115.5t149.5 310.5q0 122 -51.5 205t-159.5 139q-20 13 -20 35q0 20 12 29q81 77 114 130.5
t33 131.5q0 87 -64 141t-163 54q-14 0 -127 -13.5t-235 -13.5q-191 0 -322 39q-23 -33 -33 -63t-10 -83q0 -37 12 -66.5t29.5 -48t46.5 -32t52 -19.5t58 -9.5t52.5 -4t46.5 -0.5q73 0 181.5 9.5t119.5 9.5q22 0 33.5 -12t11.5 -31t-12 -31l-139 -156q98 -20 157.5 -92.5
t59.5 -165.5q0 -107 -65 -175t-171 -68q-138 0 -227 110q-10 13 -10 29q0 17 10 30t30 13q18 0 37 -19q43 -44 77.5 -65t82.5 -21q73 0 114.5 49t41.5 117q0 69 -53 126t-130 57h-30q-19 0 -32 13t-13 30q0 20 16 36q3 3 24 24.5t47.5 50.5t51.5 63q-111 -13 -195 -13
q-66 0 -120 6t-107 23.5t-88.5 46t-57.5 76t-22 110.5q0 54 11 95t23 61t38 55q13 19 31 19q8 0 20 -4q135 -41 322 -41q97 0 223 13t141 13q129 0 216 -75t87 -197q0 -89 -30.5 -145.5t-104.5 -137.5q209 -132 209 -387q0 -101 -35.5 -185t-96 -142t-141 -98.5t-169.5 -59
t-183 -18.5q-110 0 -213 29.5t-185.5 83.5t-132.5 140t-50 191z" />
    <glyph glyph-name="four" unicode="4" horiz-adv-x="1495" 
d="M92 500q0 67 27 147.5t59 146t59 162t27 193.5q0 58 -4.5 93.5t-9 49.5t-4.5 21q0 11 6 20q81 115 233 115q111 0 179.5 -65.5t68.5 -176.5q0 -63 -27 -169t-63.5 -229t-48.5 -183q81 18 174 18q41 0 61 -2v277q0 17 11.5 27.5t27.5 10.5q17 0 28 -10.5t11 -27.5v-287
q43 -9 84 -23q25 -9 25 -35q0 -16 -10.5 -28.5t-26.5 -12.5q-13 0 -36 9t-36 10v-283q0 -56 17 -95.5t47 -59t61 -27.5t68 -8q128 0 190 94q-25 55 -34 111.5t-9 152.5v584q0 72 -46.5 114t-127.5 42q-108 0 -170 -111q-9 -21 -33 -21q-17 0 -29 11t-12 28q0 2 5 17
q38 73 101 113t138 40q110 0 181 -62.5t71 -170.5v-584q0 -93 9 -144t34 -106q4 -12 4 -16q0 -8 -4 -16q-29 -63 -97 -108.5t-171 -45.5q-126 0 -198.5 71t-72.5 197v295q-18 2 -57 2q-61 0 -115 -8.5t-84.5 -16.5t-35.5 -8q-16 0 -25.5 11.5t-9.5 27.5q0 7 38 140
t76.5 284.5t38.5 202.5q0 77 -44 124.5t-126 47.5q-99 0 -157 -67q14 -51 14 -154q0 -96 -27 -198.5t-60 -173.5t-60 -146.5t-27 -124.5q0 -81 42 -143t114 -62q7 0 142.5 22.5t266.5 22.5q16 0 27.5 -11t11.5 -28q0 -15 -12 -27t-27 -12q-123 0 -201 -11t-122.5 -22.5
t-85.5 -11.5q-104 0 -168 83.5t-64 193.5z" />
    <glyph glyph-name="five" unicode="5" horiz-adv-x="1411" 
d="M123 358q0 100 63 172.5t162 85.5q24 0 35 -14q156 -190 281 -190q84 0 132 45.5t48 111.5q0 68 -41 106t-107 38q-24 0 -48 -9.5t-38 -19.5t-31.5 -25t-21.5 -18q-13 -10 -29 -10q-20 0 -30.5 13t-10.5 28l19 321q1 17 11 27t24 10q6 0 49 -10t121.5 -19.5t171.5 -9.5
q128 0 189 58.5t61 140.5q0 42 -13.5 75.5t-28 50.5t-44.5 44l36 -6q-41 -26 -93.5 -39.5t-92 -16t-100.5 -2.5q-64 0 -184.5 15.5t-176.5 15.5q-88 0 -134.5 -39t-53.5 -121q-19 -185 -19 -299q0 -85 43 -143q9 -14 9 -23q0 -15 -11 -26.5t-28 -11.5q-23 0 -31 14
q-59 77 -59 190q0 38 4.5 110.5t9 131t4.5 61.5q4 110 79.5 172t186.5 62q56 0 176.5 -15.5t184.5 -15.5q58 0 90 1.5t78.5 12t81.5 31.5q11 8 24 8q34 0 86.5 -69.5t52.5 -151.5q0 -149 -91 -221t-236 -72q-165 0 -303 29q-6 -140 -17 -203q18 23 56.5 37.5t76.5 14.5
q98 0 162 -61t64 -161q0 -105 -74 -170t-184 -65q-144 0 -326 201q-57 -13 -97 -59t-40 -118q0 -100 76.5 -170.5t190 -101.5t247.5 -31q77 0 147 13.5t136.5 46.5t115 82t78 126t29.5 173q0 103 -35 172t-109 131q-16 13 -16 32q0 17 10 28t27 11q15 0 28 -10
q90 -66 131 -152.5t41 -211.5q0 -160 -78 -279t-209.5 -179.5t-295.5 -60.5q-82 0 -161 11.5t-158.5 40t-139 71t-96.5 109t-37 149.5z" />
    <glyph glyph-name="six" unicode="6" horiz-adv-x="1419" 
d="M102 651q0 160 46 303t130 251.5t211.5 172.5t280.5 64q90 0 168 -31t130 -97t52 -155q0 -88 -48.5 -150.5t-115.5 -84.5q-4 -2 -12 -2q-16 0 -24 8q-62 49 -129 49q-22 0 -45 -4t-58.5 -24t-61.5 -53.5t-45.5 -100t-19.5 -156.5q0 -34 7.5 -70t24.5 -74t51.5 -62.5
t80.5 -24.5q70 0 108.5 44t38.5 115q0 56 -34.5 94.5t-96.5 38.5q-19 0 -41 -6t-32 -6q-15 0 -26 8.5t-11 24.5q0 30 34 43.5t76 13.5q92 0 150.5 -61t58.5 -150q0 -103 -62.5 -170t-162.5 -67q-61 0 -109 28t-76 73.5t-42.5 98.5t-14.5 109q0 59 9 114.5t31.5 111t56 97
t88 67.5t123.5 26q88 0 159 -51q40 19 66 59t26 94q0 70 -42.5 118t-101.5 67.5t-128 19.5q-87 0 -170.5 -26.5t-160 -84t-134 -139.5t-91.5 -201.5t-34 -261.5q0 -117 24 -212t61 -156t90 -107t102 -70t106 -38t92.5 -17.5t71.5 -3.5q234 0 373 133.5t139 358.5
q0 40 -6 75.5t-15.5 62t-23.5 51t-26.5 40.5t-29 31.5t-26 22.5t-23 16t-14.5 10q-14 11 -14 31q0 15 11 24.5t26 9.5q13 0 22 -6q197 -136 197 -368q0 -125 -39 -226q-65 -167 -210 -255.5t-341 -88.5q-127 0 -231 35t-176 97.5t-122 148.5t-73 186.5t-23 214.5z" />
    <glyph glyph-name="seven" unicode="7" horiz-adv-x="1255" 
d="M51 1214q0 127 82 224q11 14 29 14q4 0 16 -4q136 -45 314 -45q78 0 219 14.5t200 14.5q126 0 204.5 -82t78.5 -209q0 -61 -18 -115.5t-46.5 -96.5t-63.5 -83.5t-70 -85t-63.5 -90t-46.5 -109.5t-18 -135q0 -118 84 -240q11 -15 11 -26q0 -12 -7 -23q-108 -160 -303 -160
q-84 0 -147 30.5t-99.5 85t-54.5 123.5t-18 153q0 149 60.5 286t170.5 248q-49 -6 -96 -6q-123 0 -215 35q-23 10 -23 37q0 17 11.5 27t27.5 10q6 0 62 -15.5t133 -15.5q57 0 113 8t57 8q20 0 33.5 -13.5t13.5 -33.5q0 -25 -29 -57q-138 -140 -189.5 -263.5t-51.5 -254.5
q0 -314 241 -314q141 0 224 103q-86 143 -86 268q0 89 24 167t60 130t78.5 105t78.5 96t60 99.5t24 117.5q0 94 -54.5 153.5t-150.5 59.5q-59 0 -198.5 -14.5t-218.5 -14.5q-180 0 -316 43q-49 -67 -49 -154q0 -39 9.5 -72t17.5 -46.5t26 -40.5q8 -12 8 -23q0 -17 -11.5 -28
t-28.5 -11t-31 17q-68 95 -68 204zM276 633q0 41 80 41q50 0 102 -14.5t87 -41.5q16 -13 16 -30q0 -14 -11 -25.5t-24 -11.5q-15 0 -24 6q-59 41 -150 41q-6 0 -19.5 -1t-19.5 -1q-17 0 -27 10.5t-10 26.5z" />
    <glyph glyph-name="eight" unicode="8" horiz-adv-x="1409" 
d="M92 449q0 87 33 174.5t104 154.5q13 13 29 13t26.5 -12t10.5 -27q0 -17 -12 -29q-58 -55 -85.5 -128.5t-27.5 -145.5q0 -28 3.5 -57.5t16.5 -74.5t34 -84.5t61 -81t93 -71.5t134 -49t180 -19q117 0 211.5 25t156 66t102.5 97.5t59 116.5t18 125q0 52 -12 97t-28 74
t-43 57.5t-44 42t-45 32.5q-20 16 -20 33t18 35q15 15 31 36.5t37.5 79.5t21.5 122q0 155 -127 244t-336 89q-105 0 -191 -25.5t-138.5 -67t-80.5 -90.5t-28 -99q0 -48 21 -88t52 -67.5t80 -53.5t90 -42.5t97.5 -38.5t89.5 -38q69 41 105 81.5t36 96.5q0 52 -36 84.5
t-93 32.5q-54 0 -88 -34.5t-41 -98.5q-3 -35 -41 -35q-14 0 -23 12.5t-9 28.5q0 79 59 142t143 63q88 0 147.5 -55t59.5 -140q0 -71 -37 -121.5t-102 -93.5q78 -40 123 -106.5t45 -141.5q0 -102 -70.5 -166.5t-175.5 -64.5q-104 0 -174 66.5t-70 169.5q0 80 43 135t117 100
q-27 12 -90 37t-98.5 40.5t-87 46.5t-80 62t-49.5 80t-21 107q0 107 71.5 190.5t188.5 126.5t256 43q83 0 160.5 -15t147.5 -47.5t121 -79.5t81.5 -116.5t30.5 -152.5q0 -159 -90 -267q174 -132 174 -342q0 -102 -35 -187.5t-94.5 -144t-139.5 -99t-170 -59t-186 -18.5
q-279 0 -439.5 140.5t-160.5 374.5zM520 494q0 -70 46 -114t120 -44q68 0 118 39.5t50 113.5q0 121 -168 205q-83 -49 -124.5 -92t-41.5 -108z" />
    <glyph glyph-name="nine" unicode="9" 
d="M92 918q0 96 39 189t111 169t186.5 123t251.5 47q162 0 288.5 -57t203 -154t116 -218t39.5 -257q0 -793 -643 -793q-89 0 -168 16.5t-149 52.5t-111 101.5t-41 153.5q0 85 62 163t120 78q18 0 29 -8q44 -40 104.5 -66t120.5 -26q46 0 85 17.5t72.5 55.5t53 108.5
t19.5 166.5q0 113 -49 188.5t-136 75.5q-75 0 -123.5 -50.5t-48.5 -119.5q0 -67 36.5 -115t105.5 -48q36 0 88 20q8 4 18 4q17 0 27 -11.5t10 -29.5q0 -24 -25 -35q-60 -26 -118 -26q-99 0 -159.5 61t-60.5 160q0 105 73 186.5t177 81.5q66 0 117.5 -29.5t82 -79.5
t46.5 -109.5t16 -123.5q0 -66 -8 -123.5t-29 -114.5t-54.5 -97.5t-88.5 -65.5t-127 -25q-129 0 -258 97q-41 -20 -70.5 -61t-29.5 -99q0 -57 24 -101t61.5 -71t90.5 -44t105 -23.5t110 -6.5q125 0 221.5 33.5t161 94.5t105.5 151t59 197t18 239q0 123 -32.5 225.5t-87.5 172
t-128.5 118t-154 70.5t-166.5 22q-118 0 -216 -38t-161 -101.5t-98 -143.5t-35 -167q0 -90 30 -152.5t95 -118.5q14 -14 14 -31q0 -15 -11.5 -26.5t-25.5 -11.5q-15 0 -28 10q-78 66 -115 146t-37 184z" />
    <glyph glyph-name="colon" unicode=":" horiz-adv-x="708" 
d="M133 379q0 92 76 149.5t174 57.5q81 0 136.5 -53t55.5 -134q0 -93 -74 -154t-171 -61q-91 0 -144 52t-53 143zM133 1055q0 92 76 149.5t174 57.5q81 0 136.5 -53t55.5 -134q0 -93 -74 -154t-171 -61q-91 0 -144 52t-53 143zM211 379q0 -117 119 -117q61 0 114.5 36
t53.5 101q0 50 -31.5 79.5t-83.5 29.5q-69 0 -120.5 -34.5t-51.5 -94.5zM211 1055q0 -117 119 -117q61 0 114.5 36t53.5 101q0 50 -31.5 79.5t-83.5 29.5q-69 0 -120.5 -34.5t-51.5 -94.5z" />
    <glyph glyph-name="semicolon" unicode=";" horiz-adv-x="698" 
d="M123 1055q0 92 76 149.5t174 57.5q81 0 136.5 -53t55.5 -134q0 -93 -74.5 -154t-171.5 -61q-91 0 -143.5 52t-52.5 143zM133 356q0 88 62 148.5t151 60.5q94 0 151.5 -67t57.5 -164q0 -58 -28 -129t-89 -125q-42 -37 -90.5 -57t-82 -23.5t-85.5 -3.5q-43 0 -43 35
q0 15 6 24q37 81 37 115q0 25 -23.5 78.5t-23.5 107.5zM201 1055q0 -117 118 -117q61 0 114.5 36t53.5 101q0 50 -31 79.5t-83 29.5q-69 0 -120.5 -34.5t-51.5 -94.5zM211 356q0 -38 23.5 -93.5t23.5 -92.5q0 -45 -25 -96q57 2 105 29t77.5 66.5t45.5 83t16 81.5
q0 63 -34 108t-97 45q-58 0 -96.5 -37.5t-38.5 -93.5z" />
    <glyph glyph-name="less" unicode="&#x3c;" horiz-adv-x="960" 
d="M61 758q0 123 115 207q38 28 154 118t212.5 164.5t98.5 75.5q8 8 25 8q12 0 18 -4q174 -106 174 -262q0 -49 -25 -96.5t-67.5 -86t-89 -69t-98.5 -55.5q52 -25 98.5 -55.5t89 -69t67.5 -86t25 -96.5q0 -157 -174 -263q-6 -4 -18 -4q-16 0 -25 9q-2 1 -98.5 75.5
t-212.5 164.5t-154 118q-115 84 -115 207zM139 758q0 -83 82 -144q35 -25 125 -94.5t194.5 -150.5t127.5 -99q112 74 112 181q0 30 -14.5 59.5t-35 52t-53 47t-58.5 40t-62.5 37.5t-54.5 34q-23 17 -23 37q0 26 23 37q18 12 54.5 34t62.5 37.5t58.5 40t53 47t35 52
t14.5 59.5q0 106 -112 180q-23 -18 -127.5 -99t-194.5 -150.5t-125 -94.5q-82 -61 -82 -143z" />
    <glyph glyph-name="equal" unicode="=" horiz-adv-x="1341" 
d="M133 418q0 114 77 186t193 72q78 0 219.5 -13.5t188.5 -13.5q113 0 233 51q15 5 17 5q13 0 24 -11q123 -108 123 -235q0 -114 -77 -186t-193 -72q-78 0 -219.5 13t-188.5 13q-113 0 -233 -51q-12 -4 -16 -4q-15 0 -25 10q-123 108 -123 236zM133 973q0 114 77 186t193 72
q78 0 219.5 -13.5t188.5 -13.5q113 0 233 51q15 5 17 5q13 0 24 -11q123 -108 123 -235q0 -114 -77 -186t-193 -72q-78 0 -219.5 13t-188.5 13q-113 0 -233 -51q-12 -4 -16 -4q-15 0 -25 10q-123 108 -123 236zM211 418q0 -84 78 -162q122 47 239 47q46 0 187.5 -12
t222.5 -12q94 0 143 53t49 127q0 85 -77 162q-125 -48 -240 -48q-46 0 -187.5 12.5t-222.5 12.5q-94 0 -143 -53t-49 -127zM211 973q0 -84 78 -162q122 47 239 47q46 0 187.5 -12t222.5 -12q94 0 143 53t49 127q0 85 -77 162q-125 -48 -240 -48q-46 0 -187.5 12.5
t-222.5 12.5q-94 0 -143 -53t-49 -127z" />
    <glyph glyph-name="greater" unicode="&#x3e;" horiz-adv-x="960" 
d="M102 451q0 93 82.5 172.5t198.5 134.5q-116 55 -198.5 134.5t-82.5 172.5q0 156 174 262q6 4 19 4q16 0 24 -8q2 -1 98.5 -75.5t212.5 -164.5t154 -118q115 -84 115 -207t-115 -207q-38 -28 -154 -118t-212.5 -164.5t-98.5 -75.5q-9 -9 -24 -9q-13 0 -19 4
q-174 106 -174 263zM180 451q0 -106 113 -181q25 19 127.5 99t193.5 150t125 95q82 61 82 144q0 82 -82 143q-34 25 -125 95t-193.5 150t-127.5 99q-113 -75 -113 -180q0 -36 18 -69.5t53 -63t65 -49.5t77.5 -48t65.5 -40q22 -15 22 -37q0 -26 -22 -37q-18 -12 -65.5 -40
t-77.5 -48t-65 -49.5t-53 -63t-18 -69.5z" />
    <glyph glyph-name="question" unicode="?" horiz-adv-x="1210" 
d="M92 1114q0 83 46 148t120 102.5t157 56.5t167 19q121 0 224 -40t170 -105.5t104.5 -146.5t37.5 -165q0 -90 -29 -165t-76 -125.5t-107.5 -96t-123.5 -77.5t-123.5 -68t-107.5 -69t-76 -79t-29 -100q0 -77 53.5 -115.5t116.5 -38.5q65 0 116.5 41.5t51.5 110.5
q0 35 -10 62.5t-22 43t-39 43.5q-13 16 -13 29q0 15 11 26t26 11q41 0 83 -73t42 -142q0 -98 -73.5 -164t-172.5 -66q-102 0 -174.5 65.5t-72.5 166.5q0 60 23 110.5t62 88t89 71t105.5 63.5t111.5 61t106 69t89 81.5t62 104t23 131.5q0 69 -32.5 136.5t-90 121.5
t-145.5 87.5t-190 33.5q-106 0 -198 -27t-153 -85t-61 -136q0 -67 39 -117q10 -14 33 -28q109 145 272 145q90 0 158.5 -40.5t68.5 -119.5q0 -54 -34.5 -94.5t-83.5 -65.5t-97.5 -48t-83 -56t-34.5 -76q0 -48 41 -92q12 -12 12 -28q0 -15 -12.5 -26t-26.5 -11q-17 0 -27 10
q-65 59 -65 147q0 60 34.5 105t83.5 72t98 50t83.5 51t34.5 62q0 37 -42 59.5t-108 22.5q-48 0 -89.5 -17t-69.5 -44t-41 -43.5t-23 -32.5q-12 -18 -33 -18q-62 0 -114 71.5t-52 161.5z" />
    <glyph glyph-name="at" unicode="@" horiz-adv-x="1579" 
d="M102 492q0 167 101 321q11 16 33 16q17 0 27.5 -10.5t10.5 -25.5q0 -14 -6 -23q-88 -134 -88 -278q0 -109 41 -207t126 -164t196 -66q108 0 217 68q12 8 22 8q14 0 27 -10q87 -66 203 -66q105 0 185.5 49.5t127.5 134.5t70.5 187.5t23.5 218.5q0 102 -31.5 203t-94.5 191
t-150 159t-206.5 109.5t-254.5 40.5q-70 0 -138 -13t-132 -40.5t-103 -79.5t-39 -121q0 -32 14.5 -64.5t39.5 -54.5q157 121 350 121q123 0 229.5 -64t169 -172t62.5 -233q0 -55 -10.5 -107.5t-32.5 -101t-63.5 -78t-96.5 -29.5q-41 0 -84 25.5t-68 81.5q-25 -55 -69 -81
t-93 -26q-78 0 -127 61.5t-49 159.5q0 110 60 179t157 69q83 0 150 -55q16 -10 16 -31q0 -15 -12 -27t-27 -12q-9 0 -24 11q-41 36 -103 36q-64 0 -101.5 -46t-37.5 -124q0 -59 25 -101t73 -42q108 0 125 164q1 15 12.5 25t26.5 10q14 0 24.5 -10.5t12.5 -24.5
q20 -164 113 -164q41 0 70 35.5t42 88t13 114.5q0 159 -112 275t-271 116q-180 0 -324 -123q-13 -10 -26 -10q-9 0 -21 8q-50 32 -80 86.5t-30 114.5q0 87 45 153.5t118.5 103.5t156 55.5t169.5 18.5q132 0 255 -37t224 -106.5t176.5 -164t117.5 -216.5t42 -256
q0 -90 -14.5 -179t-51 -179t-90 -157.5t-138.5 -110t-191 -42.5q-132 0 -232 68q-119 -68 -237 -68q-87 0 -161 31.5t-124.5 83.5t-86.5 119.5t-52.5 139t-16.5 141.5z" />
    <glyph glyph-name="A" unicode="A" horiz-adv-x="1579" 
d="M72 295q0 19 16 31q93 62 155 229.5t62 343.5q0 66 -8.5 132t-17.5 108t-9 51q0 13 27 47q83 98 198 143t277 45q109 0 199 -37.5t151 -100t103 -145t61 -170.5t19 -179q0 -113 -60.5 -183.5t-138.5 -70.5q-158 0 -203 186q-10 -54 -32.5 -93.5t-49.5 -58t-50 -26.5
t-44 -8q-78 0 -129 67q-45 60 -45 166q0 73 27.5 143t83.5 119t127 49q58 0 106.5 -27t48.5 -57q0 -36 -35 -36q-12 0 -46 21.5t-74 21.5q-68 0 -114 -74t-46 -160q0 -23 3 -44.5t11.5 -49.5t29.5 -45t52 -17q32 0 58.5 28t43 70.5t25.5 82.5t12 73t33 33q28 0 35 -33
q5 -24 10.5 -47.5t20 -64t32 -69.5t46.5 -51t63 -22q46 0 83.5 49t37.5 128q0 150 -52 274.5t-157 202.5t-246 78q-294 0 -420 -168q11 -34 21 -119.5t10 -161.5q0 -115 -21.5 -228t-75.5 -223.5t-134 -173.5q14 -91 74 -143.5t151 -52.5q54 0 97.5 21.5t67 49t40 64
t21.5 57.5t7 37q2 15 13 26t26 11h281q14 0 26 -11t13 -24q0 -5 4 -25t19.5 -57t39.5 -69t69.5 -56t104.5 -24q93 0 158 54t80 144q-60 48 -104 123.5t-44 110.5q0 17 11 28t28 11q18 0 27 -12.5t25 -48t38 -66.5q49 -69 72 -88q27 -24 27 -35q0 -43 -18.5 -92t-54 -96.5
t-100 -79t-145.5 -31.5q-256 0 -309 266h-215q-21 -119 -96 -192.5t-213 -73.5q-60 0 -111.5 20t-85.5 52t-58 71.5t-35 78t-11 73.5z" />
    <glyph glyph-name="B" unicode="B" horiz-adv-x="1423" 
d="M123 1190q0 19 10 29q200 229 557 229q127 0 231 -34.5t169 -91t100 -126.5t35 -145q0 -78 -27 -145.5t-76 -106.5q81 -29 145 -123.5t64 -218.5q0 -226 -166 -363t-432 -137q-255 0 -413 112.5t-158 305.5q0 263 391 424q0 60 2.5 101.5t11 86t23 71t41 43.5t63.5 17
q51 0 79 -37t28 -104q0 -74 -44 -127.5t-126 -101.5v-187q0 -30 4.5 -57.5t15.5 -58.5t36 -49.5t61 -18.5q34 0 58.5 16t35.5 41.5t15.5 47.5t4.5 44q0 52 -26 89.5t-62 37.5q-12 0 -26.5 -6t-22.5 -6q-14 0 -26.5 11t-12.5 28q0 20 21.5 35.5t66.5 15.5q62 0 114 -56
t52 -149q0 -101 -53 -164t-139 -63q-57 0 -98 26.5t-60.5 69.5t-28 83.5t-8.5 82.5v152q-51 -24 -90 -45t-83 -53t-73 -65.5t-48 -79t-19 -95.5q0 -76 31 -136.5t80.5 -97.5t115.5 -62t131.5 -34.5t134.5 -9.5q235 0 377.5 115.5t142.5 306.5q0 57 -17.5 107t-41 81.5
t-53 56.5t-49 36t-33.5 16q-27 8 -27 34q0 19 17 33q98 80 98 230q0 59 -29 115t-84 102t-144.5 74t-199.5 28q-307 0 -483 -182q47 -131 47 -393v-54q0 -15 -12 -27t-27 -12q-17 0 -28 11.5t-11 27.5q0 185 -9.5 266.5t-37.5 155.5q-6 15 -6 27zM631 834q96 49 96 141
q0 26 -6.5 41.5t-13 19.5t-13.5 4q-8 0 -14 -1.5t-16 -12.5t-16.5 -31t-11.5 -61.5t-5 -99.5z" />
    <glyph glyph-name="C" unicode="C" horiz-adv-x="1388" 
d="M92 692q0 205 84.5 369.5t242 260t361.5 95.5q82 0 165 -24.5t153 -69.5t113.5 -115.5t43.5 -154.5q0 -109 -62 -187t-138 -78q-16 0 -28.5 10t-12.5 25q0 30 35 39q52 15 90.5 64.5t38.5 126.5q0 89 -65.5 156.5t-154 98.5t-178.5 31q-177 0 -316 -82t-216.5 -229.5
t-77.5 -335.5q0 -290 164.5 -463.5t441.5 -173.5q82 0 156 15.5t137.5 47t101 87t37.5 129.5q0 64 -41 107.5t-100 54.5q-39 -60 -113 -97t-149 -37q-145 0 -227 98t-82 249q0 93 33 174t102 133.5t160 52.5q83 0 127.5 -44.5t44.5 -104.5q0 -59 -40.5 -101.5t-99.5 -42.5
q-46 0 -83.5 24t-37.5 50q0 15 11 26t26 11q14 0 25 -8q37 -25 59 -25q25 0 43.5 17.5t18.5 48.5q0 30 -22.5 50.5t-71.5 20.5q-95 0 -156.5 -79.5t-61.5 -202.5q0 -126 61.5 -197.5t170.5 -71.5q134 0 211 117q12 18 37 18q79 0 156 -67.5t77 -173.5q0 -95 -45 -166.5
t-120.5 -111.5t-162 -59.5t-182.5 -19.5q-202 0 -358 91.5t-241 254t-85 369.5z" />
    <glyph glyph-name="D" unicode="D" horiz-adv-x="1478" 
d="M113 1200q0 11 8 23q59 101 188 155t266 54q178 0 277.5 -80.5t99.5 -249.5v-393q0 -77 12 -139.5t23.5 -96.5t11.5 -43q0 -17 -10.5 -28t-27.5 -11q-25 0 -35 23q-14 28 -31 114q-26 -70 -73 -107.5t-103 -37.5q-60 0 -104 26.5t-68 72t-34.5 98t-10.5 114.5
q0 128 56 217.5t157 89.5q90 0 90 -47q0 -17 -11.5 -28t-27.5 -11q-8 0 -25 4.5t-26 4.5q-47 0 -78 -33.5t-44 -83.5t-13 -113q0 -233 139 -233q37 0 65.5 24t45 60t27 85.5t14 94t3.5 92.5v285q0 135 -76.5 193.5t-222.5 58.5q-125 0 -226 -44.5t-150 -109.5
q45 -167 45 -520v-186q0 -84 19.5 -153t50 -114t74.5 -79t86.5 -52.5t92.5 -29.5t85.5 -14t72.5 -3q136 0 240.5 41t166 105t100.5 155t52.5 179t13.5 188q0 112 -25.5 216t-88.5 195.5t-156 131.5q-24 12 -24 36q0 16 11 26.5t25 10.5q50 0 130 -77t116 -150
q90 -182 90 -389q0 -127 -22.5 -237t-73 -204.5t-125 -161.5t-184.5 -105t-246 -38q-116 0 -215.5 31.5t-177 93.5t-122 164t-44.5 234v186q0 380 -43 487q-10 25 -10 33z" />
    <glyph glyph-name="E" unicode="E" horiz-adv-x="1394" 
d="M123 461q0 92 35 172q10 24 37 24q16 0 25 -11.5t9 -27.5q0 -7 -14 -51t-14 -106q0 -94 46 -173.5t122 -130.5t170.5 -79.5t193.5 -28.5q85 0 161.5 12.5t149.5 41t116.5 85.5t43.5 136t-49.5 128t-120.5 64q-106 -145 -284 -145q-68 0 -130 30t-108 93.5t-57 148.5
q-133 24 -224.5 117.5t-91.5 220.5q0 105 49 192.5t128.5 143t178 85.5t201.5 30q71 0 139 -10t136.5 -34t119.5 -60t83 -93.5t32 -128.5q0 -92 -51.5 -166t-112.5 -74q-15 0 -24.5 10t-9.5 27q0 20 24 33q96 50 96 170q0 71 -41 122t-109.5 77t-138 37.5t-143.5 11.5
q-121 0 -228.5 -43t-179 -130t-71.5 -200q0 -93 67.5 -163.5t168.5 -94.5q6 135 78 223t178 88q85 0 144.5 -52.5t59.5 -135.5q0 -71 -47 -123t-113.5 -75t-138.5 -23q-27 0 -77 4q18 -85 78 -132.5t135 -47.5q148 0 231 129q11 18 33 18q106 0 187 -82.5t81 -189.5
q0 -79 -33.5 -141t-87.5 -101t-127 -64.5t-147.5 -36t-153.5 -10.5q-115 0 -224 34.5t-195 95.5t-138.5 155t-52.5 205zM528 709q51 -7 86 -7q95 0 158.5 41t63.5 103q0 53 -38 81.5t-89 28.5q-56 0 -99 -38.5t-62.5 -93.5t-19.5 -115z" />
    <glyph glyph-name="F" unicode="F" horiz-adv-x="1304" 
d="M113 829q0 17 11 28t28 11h67q0 60 2 93.5t10.5 78t28.5 76.5t53 58q8 8 23 8t26 -11t11 -26q0 -18 -17 -35q-37 -36 -48 -86.5t-11 -155.5h63q17 0 28 -11t11 -28q0 -15 -11 -26.5t-28 -11.5h-63q0 -28 -1 -117t-1 -217q0 -176 -55 -273q56 -106 206 -106
q92 0 150.5 58.5t58.5 146.5q0 39 -6 66t-6 40q0 14 9.5 24.5t23.5 10.5q8 0 58 -11.5t102 -11.5q88 0 138 49t50 128q0 96 -72 141q-79 -37 -178 -37q-54 0 -119 12q-18 3 -28 23q-21 50 -21 100q0 83 50 142t135 59q47 0 115.5 -9.5t115.5 -9.5q89 0 131.5 51.5
t42.5 123.5q0 89 -80 159q-89 -35 -246 -35q-63 0 -184.5 13.5t-187.5 13.5q-71 0 -123 -11t-87.5 -34t-56.5 -45.5t-45 -58.5q-11 -17 -32 -17q-17 0 -27 11.5t-10 27.5q0 14 6 23q28 41 53.5 68t68.5 56t106.5 43.5t146.5 14.5q68 0 190 -13.5t184 -13.5q45 0 69.5 1t68 8
t92.5 22q2 0 12 3t16 3q10 0 19 -6q36 -28 61 -58.5t37 -53.5t18.5 -50t7.5 -39.5t1 -31.5q0 -64 -27 -120t-86 -94t-139 -38q-48 0 -117 9t-114 9q-55 0 -81 -34t-26 -85q0 -19 8 -55q43 -6 82 -6q94 0 150 33q12 6 22 6q18 0 43.5 -14t51 -39t43.5 -70t18 -98
q0 -112 -70 -183t-192 -71q-52 0 -111 12q4 -36 4 -55q0 -120 -82 -200.5t-205 -80.5q-109 0 -176.5 39.5t-109.5 134.5q-4 8 -4 19q0 7 10 24q26 42 38.5 109.5t12.5 130.5q0 129 1 216t1 118h-67q-17 0 -28 11.5t-11 26.5z" />
    <glyph glyph-name="G" unicode="G" horiz-adv-x="1433" 
d="M92 750q0 158 53 286.5t145.5 213t217 130t268.5 45.5q66 0 136 -12t139.5 -38.5t124 -64t88.5 -94t34 -122.5q0 -108 -53 -173.5t-143 -68.5q-20 0 -31 14q-49 56 -127 86.5t-153 30.5q-36 0 -74.5 -14t-75 -41.5t-60.5 -77.5t-24 -113q0 -78 38.5 -126t84.5 -48
q125 0 147 279q2 15 12 26t25 11q18 0 29.5 -11.5t11.5 -27.5v-340q0 -156 -79 -240.5t-234 -93.5q-2 -10 -2 -29q0 -89 67 -157t166 -68q81 0 148.5 30t113 81t77.5 119.5t46.5 143.5t14.5 154v318q0 17 11.5 28t27.5 11q38 0 38 -39v-318q0 -120 -29.5 -225.5
t-86.5 -189.5t-150 -135t-211 -56q-139 0 -224 91.5t-85 217.5q0 33 6 68q1 12 12 21.5t23 9.5q147 6 209.5 64t62.5 194v86q-20 -49 -64 -75t-83 -26q-90 0 -145.5 77.5t-55.5 174.5q0 98 49 174.5t119 113t144 36.5q89 0 179 -34t146 -95q42 9 73.5 49.5t31.5 112.5
q0 65 -45.5 116.5t-115.5 80t-143.5 43t-140.5 14.5q-87 0 -171.5 -21.5t-164 -69t-139 -116t-95.5 -169.5t-36 -222q0 -147 72 -258t186 -185q21 -12 21 -33q0 -16 -9.5 -27t-25.5 -11q-14 0 -29 10q-141 91 -217 212.5t-76 291.5z" />
    <glyph glyph-name="H" unicode="H" horiz-adv-x="1650" 
d="M133 1239q0 11 8 23q45 64 116 102.5t159 38.5q134 0 205 -81t71 -222v-647q21 73 74 119t108 46q156 0 156 -182v-164q0 -48 14 -84.5t35 -56.5t50.5 -32.5t54 -16.5t51.5 -4q133 0 201 110q-31 84 -41.5 162t-10.5 228v522q0 225 -204 225q-115 0 -187 -88
q37 -99 37 -201q0 -118 -50 -173.5t-165 -55.5q-39 0 -39 41q0 17 11.5 27t29.5 10q78 0 106.5 33.5t28.5 117.5q0 103 -39 189q-4 8 -4 16q0 9 9 23q101 139 262 139q138 0 210 -79.5t72 -223.5v-522q0 -151 10 -223t41 -152q5 -10 5 -17q0 -6 -7 -20q-34 -70 -107.5 -118
t-172.5 -48q-53 0 -99.5 13.5t-88.5 43.5t-66.5 85t-24.5 130v164q0 63 -20.5 84t-57.5 21q-53 0 -102.5 -79.5t-81.5 -215.5q-6 -31 -41 -31q-13 0 -24 12t-11 27v846q0 225 -198 225q-121 0 -199 -92q39 -110 39 -367v-544q0 -62 13 -108.5t32 -71.5t47 -40t52.5 -19.5
t54.5 -4.5q67 0 108 11t59.5 21.5t30.5 10.5q15 0 25 -10t10 -27q0 -37 -75.5 -60.5t-157.5 -23.5q-140 0 -208.5 85t-68.5 237v544q0 245 -41 359q-4 8 -4 14z" />
    <glyph glyph-name="I" unicode="I" horiz-adv-x="1228" 
d="M133 1161q0 102 72.5 172t183.5 70q80 0 190.5 -13.5t161.5 -13.5q126 0 195 39q9 6 22 6q17 0 27 -10q90 -90 90 -203q0 -62 -25 -121t-67 -94q-11 -8 -25 -8t-25 10t-11 25q0 21 12 33q63 63 63 155q0 77 -47 127q-75 -37 -209 -37q-61 0 -171 13.5t-181 13.5
q-50 0 -87 -17t-55.5 -44t-27 -53t-8.5 -50q0 -75 43 -121q57 17 74 17q64 0 106.5 -41.5t42.5 -126.5v-471q0 -39 -37 -39q-215 0 -215 -162q0 -47 16 -88t42 -61q98 34 196 34q77 0 164 -12t166 -12q98 0 153.5 44t55.5 122q0 79 -51 137q-38 -14 -78 -14q-59 0 -99 42.5
t-40 127.5v317q0 39 38 39q18 0 28.5 -10.5t10.5 -28.5v-317q0 -93 68 -93q25 0 50 12.5t36 12.5q30 0 72.5 -69.5t42.5 -155.5q0 -117 -81 -180.5t-206 -63.5q-85 0 -179 12.5t-151 12.5q-69 0 -134 -19.5t-69 -19.5q-38 0 -83.5 66t-45.5 165q0 63 24.5 111t63 74.5
t80.5 39.5t84 13v434q0 90 -71 90q-20 0 -44 -11.5t-34 -11.5q-44 0 -80.5 66.5t-36.5 138.5zM735 1012q0 23 15.5 39t37.5 16q23 0 39.5 -16t16.5 -39t-16.5 -39.5t-39.5 -16.5q-22 0 -37.5 16.5t-15.5 39.5z" />
    <glyph glyph-name="J" unicode="J" horiz-adv-x="1339" 
d="M41 172q0 76 27 137t67 95t79.5 51.5t70.5 17.5q37 0 37 -37q0 -33 -31 -39q-70 -14 -121 -69t-51 -154q0 -68 23.5 -124.5t62.5 -93.5t92 -62.5t110 -36.5t117 -11q93 0 169 28t125.5 73.5t83.5 106t48.5 123.5t14.5 128q0 133 -72 207t-197 74q-33 0 -57 -8
q0 -57 -0.5 -93.5t-2.5 -81.5t-6 -73t-10.5 -59.5t-17 -50t-24.5 -34.5t-33.5 -23t-44.5 -7q-50 0 -81.5 41.5t-31.5 105.5q0 97 46.5 187.5t127.5 136.5v219q0 17 11.5 28t27.5 11q17 0 28 -11t11 -28v-189q31 7 57 7q158 0 252 -99t94 -260q0 -150 -61 -270.5t-180 -193
t-277 -72.5q-136 0 -244 44.5t-173.5 137.5t-65.5 221zM338 1171q0 106 79.5 169t190.5 63q43 0 149.5 -14.5t178.5 -14.5q103 0 166 37q9 6 20 6q15 0 25 -10q37 -37 63.5 -97.5t26.5 -119.5q0 -102 -51 -165.5t-146 -80.5v-272q0 -17 -11.5 -28t-27.5 -11q-17 0 -27.5 11
t-10.5 28v305q0 15 9.5 26.5t24.5 12.5q84 8 123 49.5t39 124.5q0 33 -13.5 72t-33.5 67q-65 -33 -176 -33q-92 0 -190 14.5t-138 14.5q-88 0 -140 -42t-52 -112q0 -64 45 -120q10 -13 10 -25q0 -14 -12 -27.5t-27 -13.5q-17 0 -31 14q-63 75 -63 172zM465 303
q0 -31 10.5 -50.5t24.5 -19.5q37 0 49 69t12 230q-48 -45 -72 -107t-24 -122zM547 1006q0 23 15.5 39t37.5 16q23 0 39 -16t16 -39t-16 -39.5t-39 -16.5q-22 0 -37.5 16.5t-15.5 39.5z" />
    <glyph glyph-name="K" unicode="K" horiz-adv-x="1644" 
d="M133 1239q0 11 8 23q98 141 267 141q134 0 205 -81t71 -222v-590h66q59 0 88.5 51t29.5 121q0 17 11.5 28t27.5 11q17 0 28 -11t11 -28q0 -75 -26 -137t-76 -78q34 -10 64 -54.5t56 -99.5t57 -109t80.5 -90t112.5 -36q116 0 184 82.5t68 191.5q-104 16 -206.5 121.5
t-149.5 206.5q-4 12 -4 16q0 20 14 31q242 200 242 397q0 92 -50.5 146.5t-135.5 54.5q-56 0 -94 -15.5t-78 -49.5q10 -48 10 -91q0 -55 -18 -108.5t-45 -91.5t-56.5 -67.5t-53.5 -44.5t-36 -15t-23.5 9t-11.5 26q0 23 25 38q58 39 99.5 104.5t41.5 154.5q0 35 -12 75
q-4 12 -4 17q0 7 8 18q45 61 103.5 90t144.5 29q120 0 192 -78.5t72 -200.5q0 -223 -248 -438q43 -86 123.5 -163t191.5 -99q14 -3 24.5 -15.5t10.5 -25.5q0 -168 -83.5 -275.5t-244.5 -107.5q-62 0 -113.5 24t-86.5 62t-64.5 84t-52.5 92t-44.5 84t-47 62t-53.5 24h-68
v-186q0 -17 -11 -28t-28 -11q-18 0 -28.5 10.5t-10.5 28.5v854q0 225 -198 225q-113 0 -191 -92q39 -110 39 -352v-594q0 -61 18 -104t48.5 -64.5t63 -31t69.5 -9.5q94 0 174 39q12 4 16 4q17 0 28 -11t11 -28q0 -26 -22 -35q-96 -47 -207 -47q-129 0 -203 76t-74 211v594
q0 230 -41 344q-4 8 -4 14z" />
    <glyph glyph-name="L" unicode="L" horiz-adv-x="1339" 
d="M133 1237q0 14 6 23q103 141 279 141q118 0 195 -79t77 -210v-547q0 -47 16 -64.5t60 -17.5q71 0 105 1.5t81 8t77 22t54 42.5q12 12 29 12q21 0 49 -14q80 -42 114 -113t34 -147q0 -137 -87.5 -216t-215.5 -79h-433q-17 0 -27.5 11t-10.5 28q0 16 10.5 27.5t27.5 11.5
h433q65 0 112 21.5t70 57t33 69.5t10 69q0 69 -30.5 117.5t-78.5 72.5q-53 -46 -121 -62.5t-229 -16.5q-80 0 -120 37.5t-40 125.5v543q0 56 -17.5 98.5t-46.5 66t-61.5 35t-68.5 11.5q-141 0 -215 -109q-11 -14 -33 -14q-17 0 -27 10.5t-10 26.5zM154 1092q0 15 10.5 26.5
t25.5 11.5q28 0 37 -22q19 -45 35.5 -140.5t16.5 -217.5v-539q0 -47 7 -76.5t20.5 -40.5t22 -13.5t23.5 -2.5q74 0 105 168q5 30 39 30q15 0 24.5 -11.5t9.5 -26.5q0 -45 -20 -98.5t-62.5 -96.5t-95.5 -43q-151 0 -151 211v539q0 107 -11.5 183.5t-23.5 113t-12 45.5z" />
    <glyph glyph-name="M" unicode="M" horiz-adv-x="1845" 
d="M133 1239q0 11 8 23q44 64 116.5 102.5t160.5 38.5q135 0 274.5 -86t212.5 -209q78 134 197.5 214.5t240.5 80.5q137 0 225.5 -84t88.5 -232v-509q0 -151 10 -223t41 -152q4 -8 4 -17q0 -8 -6 -20q-34 -69 -109 -117.5t-174 -48.5q-52 0 -97 13.5t-84.5 43.5t-62 85
t-22.5 130v408q0 59 -14.5 78.5t-40.5 19.5q-34 0 -60.5 -36t-42 -93.5t-24.5 -112.5t-12 -110q-3 -39 -37 -39q-19 0 -29 11.5t-10 27.5q0 37 1 106.5t1 106.5q0 67 -9.5 103t-37.5 36q-102 0 -144 -354q-5 -37 -39 -37q-15 0 -25.5 12t-10.5 27q0 128 -6.5 213t-15 112.5
t-15 45t-6.5 26.5q0 15 9.5 25t24.5 10q19 0 33.5 -18.5t23 -47.5t13 -54t6.5 -48l-8 -6q13 71 61.5 121.5t98.5 50.5q58 0 85 -43.5t31 -105.5l-16 -23q17 73 66 122.5t100 49.5q67 0 97 -48.5t30 -125.5v-410q0 -48 13 -84.5t32 -56.5t46 -32.5t50.5 -16.5t50.5 -4
q75 0 125.5 33t77.5 77q-31 83 -41 161t-10 229v509q0 59 -16.5 104t-41 69.5t-58 40t-61.5 20t-59 4.5q-122 0 -233 -93.5t-168 -219.5q-10 -23 -35 -23q-24 0 -37 23q-48 97 -129 170t-164.5 108t-158.5 35q-123 0 -201 -92q39 -110 39 -367v-540q0 -117 48.5 -181.5
t139.5 -64.5q122 0 187 129q15 29 39 29q26 0 39 -27q13 -26 26.5 -45.5t36.5 -41t56 -33t75 -11.5q46 0 80 7t49 15.5t29.5 15.5t25.5 7q16 0 25.5 -10.5t9.5 -24.5q0 -38 -71 -63t-148 -25q-148 0 -233 131q-35 -63 -94.5 -97t-131.5 -34q-130 0 -198 89t-68 235v540
q0 245 -41 359q-4 8 -4 14z" />
    <glyph glyph-name="N" unicode="N" horiz-adv-x="1595" 
d="M133 1239q0 11 8 23q45 64 116 102.5t159 38.5q68 0 126 -33t95 -92q128 125 321 125q199 0 326 -115t127 -313v-541q0 -159 43 -219q8 -12 8 -22q0 -11 -6 -23q-77 -168 -260 -168q-129 0 -201.5 74t-72.5 209v534q0 99 -86 99q-18 0 -34.5 -6.5t-29.5 -20t-24 -27.5
t-20 -38t-15.5 -41t-12.5 -46.5t-9.5 -45.5t-7.5 -46t-5 -40t-4 -36q-1 -15 -13.5 -24.5t-27.5 -9.5t-26 11.5t-11 26.5q0 10 1 29.5t1 28.5q0 197 -25 295q-4 16 -4 22q0 16 10 27.5t27 11.5q27 0 37 -26q10 -29 21 -115q17 71 64.5 109t107.5 38q80 0 121.5 -47t41.5 -129
v-534q0 -101 50 -153t147 -52q63 0 112.5 27t71.5 79q-47 73 -47 248v541q0 75 -22 135.5t-58 99.5t-85.5 65.5t-101.5 38t-108 11.5q-90 0 -159 -30t-135 -97q-14 -14 -33 -14q-28 0 -41 26q-29 56 -75 85.5t-101 29.5q-119 0 -197 -92q39 -110 39 -367v-559
q0 -108 46 -167.5t130 -59.5q74 0 132 27.5t85 80.5q-57 98 -57 205q0 16 11 27.5t28 11.5q15 0 27 -12t12 -27q0 -98 55 -178q8 -12 8 -20q0 -9 -4 -17q-34 -85 -114 -130.5t-183 -45.5q-123 0 -188.5 85t-65.5 220v559q0 245 -41 359q-4 8 -4 14z" />
    <glyph glyph-name="O" unicode="O" horiz-adv-x="1505" 
d="M92 688q0 212 81 379t233 262.5t350 95.5q105 0 202.5 -35.5t167.5 -93.5t112 -133.5t42 -152.5q0 -71 -29 -128.5t-74 -91t-92.5 -51.5t-89.5 -18h-16l12 65q10 -45 10 -90q0 -166 -68.5 -267t-180.5 -101q-63 0 -114 33.5t-81.5 88t-46.5 119t-16 131.5q0 187 106 340
q14 17 31 17t28 -11t11 -26q0 -16 -6 -25q-93 -136 -93 -295q0 -127 51.5 -210.5t129.5 -83.5q57 0 97 43t57.5 107t17.5 140q0 44 -9 97l39 -70q-110 8 -176.5 71t-66.5 132q0 64 36 92.5t78 28.5q45 0 79 -32.5t51.5 -82t25 -80.5t10.5 -55q91 3 151 63.5t60 149.5
q0 59 -34.5 119.5t-92.5 109t-142.5 79t-176.5 30.5q-263 0 -424.5 -182t-161.5 -478q0 -122 33 -226.5t89.5 -178t131.5 -126t159.5 -77.5t172.5 -25q85 0 168 23.5t157.5 72t131 117t89.5 164.5t33 207q0 54 -9 109.5t-15 70.5q-4 12 -4 19q0 15 11.5 24.5t27.5 9.5
q27 0 36 -24q10 -27 20.5 -86.5t10.5 -122.5q0 -184 -84 -335t-235 -239t-338 -88q-135 0 -256.5 51t-211.5 142t-143 225.5t-53 292.5zM784 928q0 -35 33 -73t98 -54q-1 14 -8 41t-18 57t-29 52t-37 22t-29 -13t-10 -32z" />
    <glyph glyph-name="P" unicode="P" 
d="M123 1026q0 129 88 223.5t223.5 139.5t296.5 45q277 0 452 -164.5t175 -431.5q0 -137 -41 -246t-108.5 -174.5t-149 -100t-168.5 -34.5q-73 0 -129 18q-27 8 -27 37q0 15 10 27t25 12q9 0 41.5 -8.5t79.5 -8.5q75 0 143.5 29.5t124 86t88.5 150t33 212.5
q0 229 -150.5 373.5t-398.5 144.5q-96 0 -187 -19.5t-169.5 -58t-126 -104t-47.5 -148.5q0 -58 25.5 -119.5t71 -116t117 -94t154.5 -49.5v197q0 15 12 27t27 12q17 0 28 -11.5t11 -27.5v-199q33 1 63 4.5t66.5 15t62.5 30.5t44 53t18 79q0 71 -49 116.5t-125 45.5
q-45 0 -78 -11.5t-52 -22.5t-28 -11q-17 0 -28 10t-11 27q0 22 17 33q80 53 180 53q117 0 184.5 -72t67.5 -168q0 -53 -16.5 -95.5t-45 -70t-61.5 -46.5t-73 -29t-72 -14t-64 -5v-84q0 -185 41 -247q8 -11 8 -23q0 -15 -15 -47t-45 -70.5t-88.5 -67t-131.5 -28.5
q-64 0 -113.5 18t-79.5 46.5t-49.5 67.5t-27 76t-7.5 77v362q0 17 11.5 28t27.5 11q17 0 28 -11t11 -28v-362q0 -61 18 -103.5t48.5 -64t62.5 -30.5t70 -9q77 0 128.5 39.5t69.5 89.5q-45 85 -45 276v86q-185 22 -315.5 154.5t-130.5 302.5z" />
    <glyph glyph-name="Q" unicode="Q" horiz-adv-x="1609" 
d="M92 705q0 156 48.5 289.5t135 229t212 149.5t274.5 54q132 0 247 -47t199.5 -132.5t133.5 -213.5t49 -282q0 -127 -41 -232q-9 -22 -35 -22q-17 0 -29 11t-12 26q0 8 4 16q35 86 35 201q0 120 -31 220t-84 169t-124 117t-149.5 70t-162.5 22q-268 0 -430 -177.5
t-162 -467.5q0 -129 33.5 -235.5t89 -177.5t129 -120.5t152 -71.5t159.5 -22q97 0 180 18q-22 81 -28 152t-6 233q-17 -35 -37.5 -56.5t-46 -29.5t-41 -10t-41.5 -2q-93 0 -157 95.5t-64 228.5q0 146 83 249t201 103q91 0 150 -30.5t59 -63.5q0 -16 -9 -26.5t-26 -10.5
q-14 0 -34 13t-55 26.5t-85 13.5q-94 0 -150.5 -85.5t-56.5 -188.5q0 -98 42.5 -172t101.5 -74q43 0 76 33.5t52 89.5t29 113.5t13 119.5q2 16 12 26.5t27 10.5q15 0 24.5 -11.5t9.5 -27.5v-485q0 -107 33 -215q119 37 226.5 111.5t156.5 162.5q14 21 33 21q8 0 16 -4
q54 -23 96 -98.5t42 -162.5q0 -75 -30.5 -134.5t-78.5 -94t-102.5 -52.5t-108.5 -18q-215 0 -297 177q-108 -23 -209 -23q-145 0 -266.5 55t-203 150t-126.5 224t-45 276zM1018 43q34 -62 87 -90.5t134 -28.5q95 0 168.5 60t73.5 161q0 45 -17 90.5t-47 77.5
q-58 -80 -161 -153.5t-238 -116.5z" />
    <glyph glyph-name="R" unicode="R" horiz-adv-x="1568" 
d="M133 1122q0 70 51 127q160 170 549 170q102 0 196.5 -19t179 -60t147 -100.5t99 -146t36.5 -190.5q0 -122 -63.5 -224.5t-172.5 -141.5q48 -42 116 -76.5t130 -46.5q30 -6 37 -33q8 -39 8 -84q0 -128 -79 -212.5t-212 -84.5q-52 0 -99.5 14.5t-89 44t-75 60.5t-69 79.5
t-58.5 84t-55 88.5q3 -104 36 -183q7 -14 7 -24q0 -7 -4 -19q-36 -70 -107 -107.5t-156 -37.5q-135 0 -208.5 79t-73.5 220v348q0 96 18 173t56.5 137.5t104 93t155.5 32.5q43 0 82 -11t54 -19.5t19 -12.5q17 -10 17 -30v-62q31 54 75 82.5t90 28.5q71 0 113.5 -44.5
t42.5 -109.5q0 -53 -33 -100t-63 -47q-15 0 -26 12t-11 27t13.5 28t27.5 31.5t14 48.5q0 8 -2 17.5t-9 24.5t-24 24.5t-43 9.5q-41 0 -72.5 -29t-50 -80.5t-28.5 -109t-14 -127.5q-2 -17 -12 -28t-25 -11t-27 12t-12 27v350q-47 21 -96 21q-73 0 -124.5 -27t-79.5 -77.5
t-40 -112t-12 -142.5v-348q0 -107 53.5 -164t150.5 -57q55 0 107 22t80 64q-23 52 -30 100t-7 123q0 32 17.5 53t45.5 21q22 0 38.5 -9.5t24.5 -20.5t25 -40q183 -313 369 -313q99 0 157 62t58 159q0 13 -4 45q-94 18 -171.5 67.5t-119.5 108.5q-10 13 -10 29q0 15 10 27.5
t25 17.5q95 31 154 116.5t59 192.5q0 90 -32.5 164t-88 124t-130.5 84.5t-157.5 50t-171.5 15.5q-55 0 -116 -5t-135.5 -20t-133 -38t-98 -63.5t-39.5 -92.5q0 -26 10 -47t10 -28q0 -14 -10.5 -24.5t-25.5 -10.5q-30 0 -46 37t-16 73z" />
    <glyph glyph-name="S" unicode="S" horiz-adv-x="1359" 
d="M113 965q0 92 40 175.5t111.5 148t180.5 103t239 38.5q68 0 135.5 -12t131 -39t111.5 -65t77.5 -94t29.5 -122q0 -115 -75 -175.5t-195 -60.5q-61 0 -76 31q-29 56 -65 82t-90 26q-57 0 -90 -33t-33 -79q0 -35 19 -60t49.5 -40.5t67.5 -28.5t74 -29.5t67.5 -38.5
t49.5 -60.5t19 -90.5q0 -77 -55 -135t-164 -58q-85 0 -159.5 50t-106.5 128q-12 4 -37 4q-67 0 -116.5 -55t-49.5 -123q0 -81 46.5 -142t122.5 -94t158 -49t168 -16q223 0 352.5 105t129.5 297q0 181 -115 280q-12 12 -12 27t11 27t26 12q16 0 24 -8q143 -117 143 -338
q0 -218 -149.5 -349t-409.5 -131q-81 0 -160 13t-154.5 42.5t-132.5 72.5t-91.5 107.5t-34.5 143.5q0 105 74.5 180.5t177.5 75.5q77 0 92 -37q25 -59 80 -102t123 -43q43 0 73.5 12.5t44 32.5t18.5 37t5 33q0 41 -25.5 71t-64 45t-83.5 34.5t-83.5 40t-64 61t-25.5 96.5
q0 82 58.5 136t142.5 54q150 0 211 -137q12 -2 34 -2q78 0 128.5 40t50.5 118q0 102 -112 178t-296 76q-138 0 -250 -47.5t-178 -136.5t-66 -203q0 -27 3 -52t8.5 -46t11 -37t14 -33t13 -24.5t13 -21t9.5 -14.5q8 -11 8 -24q0 -15 -11 -26t-26 -11q-14 0 -30 16
q-12 13 -25 33t-29 53.5t-26 82.5t-10 104z" />
    <glyph glyph-name="T" unicode="T" horiz-adv-x="1431" 
d="M31 1120q0 128 83 205.5t214 77.5q174 0 370.5 -15.5t270.5 -15.5q182 0 252 35q12 6 24 6q15 0 23 -8q133 -106 133 -260q0 -136 -88.5 -209.5t-225.5 -73.5q-46 0 -114 10v-333q0 -69 6 -117.5t13.5 -67t13.5 -33t6 -24.5q0 -20 -11 -28.5t-24 -8.5q-82 0 -82 279v376
q0 19 12 30t31 11q14 0 57.5 -8t85.5 -8q110 0 176 50t66 155q0 104 -84 182q-84 -33 -272 -33q-77 0 -260 15.5t-379 15.5q-101 0 -160 -55t-59 -150q0 -122 98 -190q39 29 119 46t155 17v146q0 15 12 27t27 12q17 0 28 -11.5t11 -27.5v-148q88 -6 122 -17t34 -38
q0 -16 -9 -25.5t-26 -9.5q-8 0 -54 6t-67 6v-579q0 -75 19 -128.5t50 -79.5t62 -37t64 -11q54 0 96.5 17.5t63 38.5t40.5 38.5t35 17.5q18 0 27.5 -10t9.5 -24q0 -50 -86.5 -103t-189.5 -53q-52 0 -98 18t-85.5 55.5t-62.5 104.5t-23 156v581q-168 -3 -252 -63
q-11 -8 -22 -8q-12 0 -21 6q-80 48 -117.5 112.5t-37.5 157.5z" />
    <glyph glyph-name="U" unicode="U" horiz-adv-x="1538" 
d="M123 1237q0 11 8 23q99 143 254 143q133 0 202.5 -80.5t69.5 -222.5v-539q0 -68 21.5 -102.5t77.5 -34.5q43 0 75 39t49.5 102.5t26 124t11.5 123.5q0 15 10 25t24 10q18 0 28.5 -10.5t10.5 -26.5q6 -180 24 -248q38 -137 152 -139q23 0 41.5 3.5t44 19.5t42.5 43.5
t29.5 80t12.5 123.5v408q0 223 -198 223q-47 0 -86.5 -16.5t-58 -33t-40.5 -42.5q39 -121 39 -244q0 -18 -11.5 -28.5t-27.5 -10.5q-18 0 -28.5 10.5t-10.5 28.5q0 117 -41 236q-4 8 -4 14q0 9 9 23q98 141 260 141q134 0 205 -81t71 -222v-406q0 -160 -59 -254t-189 -94
q-100 0 -155.5 56t-65.5 145q-15 -85 -68 -143t-122 -58q-87 0 -131.5 59.5t-44.5 155.5v539q0 114 -47.5 169.5t-147.5 55.5q-47 0 -86 -18t-56 -34.5t-36 -41.5q39 -110 39 -350q0 -32 -1 -150.5t-1 -179.5q0 -87 20.5 -160.5t54.5 -124.5t81.5 -90.5t97.5 -63t107 -39
t106 -21t98 -5.5q89 0 171 21t132.5 46t98.5 62t62 52t30 34q14 17 32 17t27.5 -11t9.5 -26q0 -9 -8 -25q-83 -106 -229.5 -177t-325.5 -71q-301 0 -472 152.5t-171 429.5q0 62 1 181t1 149q0 228 -41 342q-4 8 -4 14z" />
    <glyph glyph-name="V" unicode="V" horiz-adv-x="1486" 
d="M92 1067q0 87 34 162.5t103.5 124.5t159.5 49q116 0 182 -67.5t66 -172.5q0 -6 -8 -22q-39 -66 -39 -162q0 -117 53 -250.5t125 -239.5q72 106 147 279q-58 23 -99.5 80t-41.5 113q0 73 39.5 112t91.5 39q61 0 96 -47.5t35 -112.5q0 -60 -22 -131q10 -2 33 -2q44 0 90 18
t87 51t67 86t26 116q0 91 -66.5 162t-175.5 71q-39 0 -79.5 -12.5t-80 -45.5t-55.5 -81q-9 -25 -35 -25q-18 0 -29.5 10.5t-11.5 28.5q0 8 2 12q30 84 113.5 137.5t175.5 53.5q143 0 231.5 -91.5t88.5 -219.5q0 -143 -104.5 -246t-243.5 -103q-40 0 -58 4
q-64 -168 -186 -346q-13 -16 -31 -16q-19 0 -33 14q-83 104 -155 269t-72 313q0 111 47 195q0 68 -47 109.5t-123 41.5q-92 0 -155.5 -73t-63.5 -185q0 -126 30.5 -256t80.5 -239.5t114 -207t130 -165t130.5 -107t114.5 -39.5q74 0 147 44.5t132 115.5t111 161.5t87.5 179
t57.5 171.5q9 29 41 29q16 0 26 -11t10 -26q0 -2 -1 -6t-1 -6q-18 -80 -55 -173t-95 -192.5t-126 -180t-156 -132.5t-178 -52q-74 0 -165.5 57.5t-181 162.5t-164 238t-121 301t-46.5 333zM852 961q0 -29 23 -62t65 -55q18 62 18 108q0 9 -1.5 19.5t-6.5 26t-16.5 26
t-28.5 10.5q-10 0 -20 -3.5t-21.5 -21t-11.5 -48.5z" />
    <glyph glyph-name="W" unicode="W" horiz-adv-x="1783" 
d="M113 1239q0 11 8 23q98 141 262 141q136 0 211.5 -90.5t75.5 -253.5q0 -260 19 -411.5t73 -151.5q17 0 32.5 20.5t26.5 57.5t20 76.5t16 91t11.5 85.5t8 74.5t4.5 46.5q1 15 12 26t25 11q32 0 36 -35q33 -454 115 -454q30 0 51 53t29.5 136t12 146.5t3.5 120.5
q0 15 12 27t27 12q17 0 28 -11.5t11 -27.5q0 -51 -1 -93.5t-5 -99.5t-11 -102t-20.5 -91.5t-31 -77.5t-44.5 -50.5t-61 -19.5q-59 0 -99.5 72t-54.5 165q-46 -237 -153 -237q-64 0 -100 59t-53 197t-17 385q0 139 -53 202.5t-156 63.5q-47 0 -86.5 -16.5t-58.5 -33
t-41 -42.5q49 -139 49 -367q0 -177 27.5 -319t70.5 -230.5t100 -147.5t112 -82.5t110 -23.5q133 0 211 156q15 29 43 29t43 -27q90 -158 231 -158q77 0 149.5 58.5t127.5 157.5t88.5 239.5t33.5 294.5v281q0 103 -44 166t-138 63q-38 0 -72 -15.5t-56.5 -39.5t-34.5 -40
t-19 -30q-13 -22 -39 -22q-25 0 -39 24q-83 125 -209 125q-95 0 -172 -72q-13 -10 -27 -10q-15 0 -26.5 11t-11.5 28t12 29q98 92 225 92q75 0 142 -34t106 -95q36 58 95 92.5t126 34.5q127 0 193.5 -84.5t66.5 -222.5v-281q0 -176 -39.5 -331.5t-105 -263t-152.5 -170
t-180 -62.5q-81 0 -154 45t-118 119q-41 -75 -108.5 -119.5t-147.5 -44.5q-29 0 -61 5t-83 26t-96 55.5t-94 102t-84 156.5t-57.5 227.5t-22.5 307.5q0 218 -51 359q-4 8 -4 14z" />
    <glyph glyph-name="X" unicode="X" horiz-adv-x="1660" 
d="M123 326q0 40 7 56.5t22 23.5q54 21 103.5 62t86 89.5t71 102t66.5 103t64.5 89.5t72.5 64t84 24q93 0 131 -98q5 14 13 28t22.5 31.5t38.5 28t53 10.5q38 0 71.5 -15.5t33.5 -43.5q0 -15 -10 -26t-25 -11q-10 0 -30 9t-40 9q-41 0 -64.5 -47t-23.5 -108q0 -62 26 -111
t77 -49q42 0 77 33.5t59 84t54.5 113.5t61.5 120.5t82 105.5t114 67q4 24 4 39q0 86 -58 150.5t-148 64.5q-33 0 -62.5 -6.5t-50.5 -14t-43.5 -25.5t-35 -29t-30.5 -36.5t-25 -36.5t-24 -40t-22 -37q-17 -29 -47 -29q-27 0 -48 21q-38 41 -79 77.5t-94 74t-113 59.5t-117 22
q-96 0 -154.5 -57t-58.5 -150q0 -88 55.5 -138t147.5 -50q19 0 30 -11t11 -28q0 -15 -12 -27t-27 -12q-129 0 -206 75.5t-77 190.5q0 123 81 204t210 81q107 0 214.5 -54t229.5 -186q24 42 41 69t49 63t65 57t83 36t109 15q84 0 150.5 -43.5t100 -109t33.5 -136.5
q0 -47 -7 -72.5t-14 -31.5t-20 -9q-71 -16 -124 -77.5t-87 -136t-68.5 -147.5t-86.5 -122t-123 -49q-100 0 -139 100q-7 -21 -19.5 -40.5t-45 -39.5t-75.5 -20q-36 0 -78.5 20.5t-42.5 49.5q0 15 10.5 27t26.5 12q12 0 37.5 -15.5t46.5 -15.5q30 0 51.5 16t31.5 42t14 50.5
t4 51.5q0 68 -27.5 111.5t-67.5 43.5q-30 0 -60 -23t-58 -62t-58 -87.5t-66.5 -101.5t-76 -101t-93 -90.5t-112.5 -66.5l29 67q-4 -36 -4 -53q0 -118 65 -192t176 -74q58 0 99.5 13t74.5 44.5t55 66.5t54 97q17 35 53 35q26 0 47 -21q130 -127 226.5 -181t201.5 -54
q100 0 153.5 65.5t53.5 153.5q0 84 -51 139t-137 62q-13 1 -24 13t-11 26q0 38 39 38q38 0 81 -17t84.5 -49t69 -88t27.5 -124q0 -53 -17.5 -104.5t-51 -95t-90 -70.5t-126.5 -27q-44 0 -89 10t-80.5 23.5t-77.5 38t-67 42t-62 48t-50.5 43t-42.5 39.5q-25 -53 -50 -90
t-64.5 -75.5t-97 -58.5t-130.5 -20q-132 0 -225.5 91.5t-93.5 234.5z" />
    <glyph glyph-name="Y" unicode="Y" horiz-adv-x="1456" 
d="M51 1102q0 122 81.5 211.5t201.5 89.5q73 0 138 -27.5t114.5 -77t87.5 -108t67 -129.5q31 83 86.5 159.5t134.5 129.5t158 53q116 0 200.5 -88t84.5 -207q0 -53 -21 -102q-10 -20 -28 -23q-211 -39 -318 -233q-13 -19 -34 -19q-14 0 -26.5 12.5t-12.5 24.5t4 20
q54 105 144 173.5t206 93.5q6 21 6 43q0 88 -55 157.5t-150 69.5q-69 0 -137.5 -54.5t-117 -130.5t-79.5 -161q-5 -12 -17 -22.5t-24 -10.5q-33 0 -45 33q-140 346 -366 346q-93 0 -149 -68.5t-56 -156.5q0 -27 6 -45q163 -37 265 -145t161 -289q63 -191 174 -191
q42 0 73.5 16t53 46t35.5 65t25 82q7 29 34 29q29 0 39 -23q80 -195 80 -340q0 -156 -96.5 -244t-267.5 -88q-125 0 -218.5 75t-93.5 194q0 47 20.5 106.5t57.5 59.5q16 0 25.5 -10t9.5 -23q0 -12 -17.5 -48t-17.5 -85q0 -63 40 -108.5t91 -64t103 -18.5q135 0 210.5 65.5
t75.5 186.5q0 90 -36 209q-30 -74 -89.5 -117t-136.5 -43q-68 0 -137.5 62t-110.5 186q-57 169 -149.5 262.5t-239.5 120.5q-26 4 -36.5 42t-10.5 77z" />
    <glyph glyph-name="Z" unicode="Z" horiz-adv-x="1507" 
d="M113 1139q0 102 76.5 183t197.5 81q105 0 258 -15.5t242 -15.5q193 0 287 41l24 8q10 0 19 -6q65 -43 108 -105.5t43 -127.5q0 -113 -57 -183q-9 -12 -27 -12t-29.5 10t-11.5 27q0 16 10 29q41 55 41 127q0 88 -96 157q-99 -43 -313 -43q-90 0 -242 15.5t-256 15.5
q-63 0 -110 -31.5t-67 -72.5t-20 -82q0 -110 74 -178q75 34 199 34q95 0 180 -18q37 -8 37 -39q0 -15 -14 -29q-218 -202 -322 -364.5t-104 -300.5q0 -89 47 -166q84 35 252 35q92 0 257.5 -17.5t274.5 -17.5q120 0 183 52.5t63 143.5q0 61 -18 101.5t-66 66.5
q-30 -31 -99.5 -46t-144.5 -15q-103 0 -264 22q-33 5 -33 35q0 11 4 19q59 158 326 413q-50 -4 -78 -4q-68 0 -135 13q-33 6 -33 39q0 15 12 25.5t27 10.5q11 0 51.5 -4t83.5 -4q78 0 120 5t48 5q17 0 28 -11.5t11 -26.5q0 -23 -16 -39q-2 -2 -27.5 -26t-52.5 -50t-66.5 -68
t-74.5 -82t-71 -88.5t-61 -91.5q100 -14 201 -14q57 0 101.5 10t65 21.5t38 21.5t27.5 10q56 0 115 -73t59 -175q0 -130 -88 -202t-236 -72q-108 0 -274.5 17.5t-257.5 17.5q-55 0 -84.5 -1.5t-75 -10.5t-84.5 -27q-12 -6 -23 -6q-17 0 -30 16q-80 109 -80 238
q0 74 24.5 151t59 139t92.5 136t103.5 123t113.5 118q-58 7 -94 7q-117 0 -185 -39q-10 -5 -16 -5q-11 0 -24 9q-123 100 -123 256z" />
    <glyph glyph-name="bracketleft" unicode="[" horiz-adv-x="901" 
d="M123 -47v1495q0 85 51 145t152 60q37 0 103 -9.5t103 -9.5q55 0 95 10t63 20.5t37 10.5q25 0 35 -18q57 -108 57 -191q0 -111 -78 -167.5t-209 -61.5v-1073q131 -5 209 -62t78 -168q0 -82 -57 -190q-10 -18 -35 -18q-14 0 -37 10t-63 20.5t-95 10.5q-37 0 -103 -9.5
t-103 -9.5q-101 0 -152 60t-51 145zM201 -47q0 -13 3.5 -29t14 -41t38.5 -41t69 -16q36 0 102.5 9t103.5 9q96 0 179 -32q28 70 28 122q0 85 -61 118.5t-182 33.5q-19 0 -30 11t-11 28v1151q0 17 11 28t30 11q121 0 182 33t61 118q0 53 -28 123q-86 -33 -179 -33
q-37 0 -103.5 9.5t-102.5 9.5q-41 0 -69 -16t-38.5 -41t-14 -41t-3.5 -29v-1495z" />
    <glyph glyph-name="backslash" unicode="\" horiz-adv-x="1394" 
d="M61 1139q0 119 60 191.5t172 72.5q88 0 157.5 -56t165.5 -188l474 -649q29 -40 48 -64t48 -56.5t59.5 -54.5t63.5 -34q24 -10 24 -37q0 -120 -59.5 -192t-171.5 -72q-88 0 -158 56t-166 188l-473 649q-29 40 -48 64t-48 56.5t-59.5 54.5t-63.5 34q-25 11 -25 37z
M141 1163q65 -33 118.5 -89.5t109.5 -135.5l473 -649q91 -124 147.5 -167.5t112.5 -43.5q142 0 151 162q-46 23 -91 64.5t-72.5 75.5t-63.5 85l-473 649q-91 124 -147.5 167.5t-112.5 43.5q-143 0 -152 -162z" />
    <glyph glyph-name="bracketright" unicode="]" horiz-adv-x="901" 
d="M82 -66q0 111 78 168t209 62v1073q-131 5 -209 61.5t-78 167.5q0 83 57 191q10 18 35 18q14 0 37 -10.5t63 -20.5t95 -10q37 0 103 9.5t103 9.5q101 0 152 -60t51 -145v-1495q0 -85 -51 -145t-152 -60q-37 0 -103 9.5t-103 9.5q-55 0 -95 -10.5t-63 -20.5t-37 -10
q-25 0 -35 18q-57 108 -57 190zM162 -66q0 -52 28 -122q83 32 179 32q37 0 103.5 -9t102.5 -9q41 0 69 16t38.5 41t14 41t3.5 29v1495q0 13 -3.5 29t-14 41t-38.5 41t-69 16q-36 0 -102.5 -9.5t-103.5 -9.5q-93 0 -179 33q-28 -70 -28 -123q0 -85 61.5 -118t182.5 -33
q18 0 29 -10.5t11 -28.5v-1151q0 -17 -11 -28t-29 -11q-121 0 -182.5 -33.5t-61.5 -118.5z" />
    <glyph glyph-name="asciicircum" unicode="^" horiz-adv-x="1236" 
d="M45 901q0 17 8 25q1 2 76 98.5t165 212.5t118 154q83 114 206 114q124 0 207 -114q28 -38 118 -154t165 -212.5t76 -98.5q8 -8 8 -25q0 -12 -4 -18q-106 -174 -262 -174q-49 0 -96.5 25t-86.5 67.5t-69.5 89t-55.5 98.5q-25 -52 -55.5 -98.5t-69 -89t-86 -67.5t-96.5 -25
q-156 0 -262 174q-4 6 -4 18zM131 899q75 -113 180 -113q36 0 69.5 18t63 53t50 64.5t48.5 77.5t40 66q16 22 36 22q26 0 37 -22q12 -18 40 -66t48.5 -77.5t50 -64.5t63 -53t69.5 -18q105 0 180 113q-18 23 -99 127.5t-150.5 194.5t-94.5 125q-60 81 -144 81q-83 0 -143 -81
q-25 -35 -94.5 -125t-150.5 -194.5t-99 -127.5z" />
    <glyph glyph-name="underscore" unicode="_" horiz-adv-x="1464" 
d="M102 217q0 114 77.5 186t193.5 72q69 0 242 -13t264 -13q199 0 319 51q12 4 16 4q15 0 25 -10q123 -108 123 -236q0 -114 -77 -186t-193 -72q-69 0 -242 13.5t-264 13.5q-197 0 -320 -52q-12 -4 -16 -4q-14 0 -25 11q-123 108 -123 235zM180 217q0 -84 78 -162
q122 47 326 47q91 0 263.5 -12t244.5 -12q94 0 143 53t49 127q0 84 -78 162q-122 -47 -325 -47q-91 0 -263.5 12t-244.5 12q-94 0 -143.5 -53t-49.5 -127z" />
    <glyph glyph-name="grave" unicode="`" horiz-adv-x="751" 
d="M102 1235q0 96 70 153.5t176 57.5q32 0 39 -31q13 -46 45 -89t68 -75.5t70 -65.5t56.5 -74.5t22.5 -88.5q0 -82 -54.5 -137.5t-135.5 -55.5q-22 0 -35 23q-23 39 -66.5 74.5t-85.5 62.5t-81.5 59t-64 79t-24.5 108zM180 1235q0 -45 21.5 -81t57.5 -63t74 -51t79 -59
t65 -74q46 6 70 38.5t24 76.5q0 32 -20.5 64t-52 61.5t-65 60t-64.5 73t-45 87.5q-63 -3 -103.5 -38.5t-40.5 -94.5z" />
    <glyph glyph-name="a" unicode="a" horiz-adv-x="1579" 
d="M72 295q0 19 16 31q93 62 155 229.5t62 343.5q0 66 -8.5 132t-17.5 108t-9 51q0 13 27 47q83 98 198 143t277 45q109 0 199 -37.5t151 -100t103 -145t61 -170.5t19 -179q0 -113 -60.5 -183.5t-138.5 -70.5q-158 0 -203 186q-10 -54 -32.5 -93.5t-49.5 -58t-50 -26.5
t-44 -8q-78 0 -129 67q-45 60 -45 166q0 73 27.5 143t83.5 119t127 49q58 0 106.5 -27t48.5 -57q0 -36 -35 -36q-12 0 -46 21.5t-74 21.5q-68 0 -114 -74t-46 -160q0 -23 3 -44.5t11.5 -49.5t29.5 -45t52 -17q32 0 58.5 28t43 70.5t25.5 82.5t12 73t33 33q28 0 35 -33
q5 -24 10.5 -47.5t20 -64t32 -69.5t46.5 -51t63 -22q46 0 83.5 49t37.5 128q0 150 -52 274.5t-157 202.5t-246 78q-294 0 -420 -168q11 -34 21 -119.5t10 -161.5q0 -115 -21.5 -228t-75.5 -223.5t-134 -173.5q14 -91 74 -143.5t151 -52.5q54 0 97.5 21.5t67 49t40 64
t21.5 57.5t7 37q2 15 13 26t26 11h281q14 0 26 -11t13 -24q0 -5 4 -25t19.5 -57t39.5 -69t69.5 -56t104.5 -24q93 0 158 54t80 144q-60 48 -104 123.5t-44 110.5q0 17 11 28t28 11q18 0 27 -12.5t25 -48t38 -66.5q49 -69 72 -88q27 -24 27 -35q0 -43 -18.5 -92t-54 -96.5
t-100 -79t-145.5 -31.5q-256 0 -309 266h-215q-21 -119 -96 -192.5t-213 -73.5q-60 0 -111.5 20t-85.5 52t-58 71.5t-35 78t-11 73.5z" />
    <glyph glyph-name="b" unicode="b" horiz-adv-x="1423" 
d="M123 1190q0 19 10 29q200 229 557 229q127 0 231 -34.5t169 -91t100 -126.5t35 -145q0 -78 -27 -145.5t-76 -106.5q81 -29 145 -123.5t64 -218.5q0 -226 -166 -363t-432 -137q-255 0 -413 112.5t-158 305.5q0 263 391 424q0 60 2.5 101.5t11 86t23 71t41 43.5t63.5 17
q51 0 79 -37t28 -104q0 -74 -44 -127.5t-126 -101.5v-187q0 -30 4.5 -57.5t15.5 -58.5t36 -49.5t61 -18.5q34 0 58.5 16t35.5 41.5t15.5 47.5t4.5 44q0 52 -26 89.5t-62 37.5q-12 0 -26.5 -6t-22.5 -6q-14 0 -26.5 11t-12.5 28q0 20 21.5 35.5t66.5 15.5q62 0 114 -56
t52 -149q0 -101 -53 -164t-139 -63q-57 0 -98 26.5t-60.5 69.5t-28 83.5t-8.5 82.5v152q-51 -24 -90 -45t-83 -53t-73 -65.5t-48 -79t-19 -95.5q0 -76 31 -136.5t80.5 -97.5t115.5 -62t131.5 -34.5t134.5 -9.5q235 0 377.5 115.5t142.5 306.5q0 57 -17.5 107t-41 81.5
t-53 56.5t-49 36t-33.5 16q-27 8 -27 34q0 19 17 33q98 80 98 230q0 59 -29 115t-84 102t-144.5 74t-199.5 28q-307 0 -483 -182q47 -131 47 -393v-54q0 -15 -12 -27t-27 -12q-17 0 -28 11.5t-11 27.5q0 185 -9.5 266.5t-37.5 155.5q-6 15 -6 27zM631 834q96 49 96 141
q0 26 -6.5 41.5t-13 19.5t-13.5 4q-8 0 -14 -1.5t-16 -12.5t-16.5 -31t-11.5 -61.5t-5 -99.5z" />
    <glyph glyph-name="c" unicode="c" horiz-adv-x="1388" 
d="M92 692q0 205 84.5 369.5t242 260t361.5 95.5q82 0 165 -24.5t153 -69.5t113.5 -115.5t43.5 -154.5q0 -109 -62 -187t-138 -78q-16 0 -28.5 10t-12.5 25q0 30 35 39q52 15 90.5 64.5t38.5 126.5q0 89 -65.5 156.5t-154 98.5t-178.5 31q-177 0 -316 -82t-216.5 -229.5
t-77.5 -335.5q0 -290 164.5 -463.5t441.5 -173.5q82 0 156 15.5t137.5 47t101 87t37.5 129.5q0 64 -41 107.5t-100 54.5q-39 -60 -113 -97t-149 -37q-145 0 -227 98t-82 249q0 93 33 174t102 133.5t160 52.5q83 0 127.5 -44.5t44.5 -104.5q0 -59 -40.5 -101.5t-99.5 -42.5
q-46 0 -83.5 24t-37.5 50q0 15 11 26t26 11q14 0 25 -8q37 -25 59 -25q25 0 43.5 17.5t18.5 48.5q0 30 -22.5 50.5t-71.5 20.5q-95 0 -156.5 -79.5t-61.5 -202.5q0 -126 61.5 -197.5t170.5 -71.5q134 0 211 117q12 18 37 18q79 0 156 -67.5t77 -173.5q0 -95 -45 -166.5
t-120.5 -111.5t-162 -59.5t-182.5 -19.5q-202 0 -358 91.5t-241 254t-85 369.5z" />
    <glyph glyph-name="d" unicode="d" horiz-adv-x="1478" 
d="M113 1200q0 11 8 23q59 101 188 155t266 54q178 0 277.5 -80.5t99.5 -249.5v-393q0 -77 12 -139.5t23.5 -96.5t11.5 -43q0 -17 -10.5 -28t-27.5 -11q-25 0 -35 23q-14 28 -31 114q-26 -70 -73 -107.5t-103 -37.5q-60 0 -104 26.5t-68 72t-34.5 98t-10.5 114.5
q0 128 56 217.5t157 89.5q90 0 90 -47q0 -17 -11.5 -28t-27.5 -11q-8 0 -25 4.5t-26 4.5q-47 0 -78 -33.5t-44 -83.5t-13 -113q0 -233 139 -233q37 0 65.5 24t45 60t27 85.5t14 94t3.5 92.5v285q0 135 -76.5 193.5t-222.5 58.5q-125 0 -226 -44.5t-150 -109.5
q45 -167 45 -520v-186q0 -84 19.5 -153t50 -114t74.5 -79t86.5 -52.5t92.5 -29.5t85.5 -14t72.5 -3q136 0 240.5 41t166 105t100.5 155t52.5 179t13.5 188q0 112 -25.5 216t-88.5 195.5t-156 131.5q-24 12 -24 36q0 16 11 26.5t25 10.5q50 0 130 -77t116 -150
q90 -182 90 -389q0 -127 -22.5 -237t-73 -204.5t-125 -161.5t-184.5 -105t-246 -38q-116 0 -215.5 31.5t-177 93.5t-122 164t-44.5 234v186q0 380 -43 487q-10 25 -10 33z" />
    <glyph glyph-name="e" unicode="e" horiz-adv-x="1394" 
d="M123 461q0 92 35 172q10 24 37 24q16 0 25 -11.5t9 -27.5q0 -7 -14 -51t-14 -106q0 -94 46 -173.5t122 -130.5t170.5 -79.5t193.5 -28.5q85 0 161.5 12.5t149.5 41t116.5 85.5t43.5 136t-49.5 128t-120.5 64q-106 -145 -284 -145q-68 0 -130 30t-108 93.5t-57 148.5
q-133 24 -224.5 117.5t-91.5 220.5q0 105 49 192.5t128.5 143t178 85.5t201.5 30q71 0 139 -10t136.5 -34t119.5 -60t83 -93.5t32 -128.5q0 -92 -51.5 -166t-112.5 -74q-15 0 -24.5 10t-9.5 27q0 20 24 33q96 50 96 170q0 71 -41 122t-109.5 77t-138 37.5t-143.5 11.5
q-121 0 -228.5 -43t-179 -130t-71.5 -200q0 -93 67.5 -163.5t168.5 -94.5q6 135 78 223t178 88q85 0 144.5 -52.5t59.5 -135.5q0 -71 -47 -123t-113.5 -75t-138.5 -23q-27 0 -77 4q18 -85 78 -132.5t135 -47.5q148 0 231 129q11 18 33 18q106 0 187 -82.5t81 -189.5
q0 -79 -33.5 -141t-87.5 -101t-127 -64.5t-147.5 -36t-153.5 -10.5q-115 0 -224 34.5t-195 95.5t-138.5 155t-52.5 205zM528 709q51 -7 86 -7q95 0 158.5 41t63.5 103q0 53 -38 81.5t-89 28.5q-56 0 -99 -38.5t-62.5 -93.5t-19.5 -115z" />
    <glyph glyph-name="f" unicode="f" horiz-adv-x="1304" 
d="M113 829q0 17 11 28t28 11h67q0 60 2 93.5t10.5 78t28.5 76.5t53 58q8 8 23 8t26 -11t11 -26q0 -18 -17 -35q-37 -36 -48 -86.5t-11 -155.5h63q17 0 28 -11t11 -28q0 -15 -11 -26.5t-28 -11.5h-63q0 -28 -1 -117t-1 -217q0 -176 -55 -273q56 -106 206 -106
q92 0 150.5 58.5t58.5 146.5q0 39 -6 66t-6 40q0 14 9.5 24.5t23.5 10.5q8 0 58 -11.5t102 -11.5q88 0 138 49t50 128q0 96 -72 141q-79 -37 -178 -37q-54 0 -119 12q-18 3 -28 23q-21 50 -21 100q0 83 50 142t135 59q47 0 115.5 -9.5t115.5 -9.5q89 0 131.5 51.5
t42.5 123.5q0 89 -80 159q-89 -35 -246 -35q-63 0 -184.5 13.5t-187.5 13.5q-71 0 -123 -11t-87.5 -34t-56.5 -45.5t-45 -58.5q-11 -17 -32 -17q-17 0 -27 11.5t-10 27.5q0 14 6 23q28 41 53.5 68t68.5 56t106.5 43.5t146.5 14.5q68 0 190 -13.5t184 -13.5q45 0 69.5 1t68 8
t92.5 22q2 0 12 3t16 3q10 0 19 -6q36 -28 61 -58.5t37 -53.5t18.5 -50t7.5 -39.5t1 -31.5q0 -64 -27 -120t-86 -94t-139 -38q-48 0 -117 9t-114 9q-55 0 -81 -34t-26 -85q0 -19 8 -55q43 -6 82 -6q94 0 150 33q12 6 22 6q18 0 43.5 -14t51 -39t43.5 -70t18 -98
q0 -112 -70 -183t-192 -71q-52 0 -111 12q4 -36 4 -55q0 -120 -82 -200.5t-205 -80.5q-109 0 -176.5 39.5t-109.5 134.5q-4 8 -4 19q0 7 10 24q26 42 38.5 109.5t12.5 130.5q0 129 1 216t1 118h-67q-17 0 -28 11.5t-11 26.5z" />
    <glyph glyph-name="g" unicode="g" horiz-adv-x="1433" 
d="M92 750q0 158 53 286.5t145.5 213t217 130t268.5 45.5q66 0 136 -12t139.5 -38.5t124 -64t88.5 -94t34 -122.5q0 -108 -53 -173.5t-143 -68.5q-20 0 -31 14q-49 56 -127 86.5t-153 30.5q-36 0 -74.5 -14t-75 -41.5t-60.5 -77.5t-24 -113q0 -78 38.5 -126t84.5 -48
q125 0 147 279q2 15 12 26t25 11q18 0 29.5 -11.5t11.5 -27.5v-340q0 -156 -79 -240.5t-234 -93.5q-2 -10 -2 -29q0 -89 67 -157t166 -68q81 0 148.5 30t113 81t77.5 119.5t46.5 143.5t14.5 154v318q0 17 11.5 28t27.5 11q38 0 38 -39v-318q0 -120 -29.5 -225.5
t-86.5 -189.5t-150 -135t-211 -56q-139 0 -224 91.5t-85 217.5q0 33 6 68q1 12 12 21.5t23 9.5q147 6 209.5 64t62.5 194v86q-20 -49 -64 -75t-83 -26q-90 0 -145.5 77.5t-55.5 174.5q0 98 49 174.5t119 113t144 36.5q89 0 179 -34t146 -95q42 9 73.5 49.5t31.5 112.5
q0 65 -45.5 116.5t-115.5 80t-143.5 43t-140.5 14.5q-87 0 -171.5 -21.5t-164 -69t-139 -116t-95.5 -169.5t-36 -222q0 -147 72 -258t186 -185q21 -12 21 -33q0 -16 -9.5 -27t-25.5 -11q-14 0 -29 10q-141 91 -217 212.5t-76 291.5z" />
    <glyph glyph-name="h" unicode="h" horiz-adv-x="1650" 
d="M133 1239q0 11 8 23q45 64 116 102.5t159 38.5q134 0 205 -81t71 -222v-647q21 73 74 119t108 46q156 0 156 -182v-164q0 -48 14 -84.5t35 -56.5t50.5 -32.5t54 -16.5t51.5 -4q133 0 201 110q-31 84 -41.5 162t-10.5 228v522q0 225 -204 225q-115 0 -187 -88
q37 -99 37 -201q0 -118 -50 -173.5t-165 -55.5q-39 0 -39 41q0 17 11.5 27t29.5 10q78 0 106.5 33.5t28.5 117.5q0 103 -39 189q-4 8 -4 16q0 9 9 23q101 139 262 139q138 0 210 -79.5t72 -223.5v-522q0 -151 10 -223t41 -152q5 -10 5 -17q0 -6 -7 -20q-34 -70 -107.5 -118
t-172.5 -48q-53 0 -99.5 13.5t-88.5 43.5t-66.5 85t-24.5 130v164q0 63 -20.5 84t-57.5 21q-53 0 -102.5 -79.5t-81.5 -215.5q-6 -31 -41 -31q-13 0 -24 12t-11 27v846q0 225 -198 225q-121 0 -199 -92q39 -110 39 -367v-544q0 -62 13 -108.5t32 -71.5t47 -40t52.5 -19.5
t54.5 -4.5q67 0 108 11t59.5 21.5t30.5 10.5q15 0 25 -10t10 -27q0 -37 -75.5 -60.5t-157.5 -23.5q-140 0 -208.5 85t-68.5 237v544q0 245 -41 359q-4 8 -4 14z" />
    <glyph glyph-name="i" unicode="i" horiz-adv-x="1228" 
d="M133 1161q0 102 72.5 172t183.5 70q80 0 190.5 -13.5t161.5 -13.5q126 0 195 39q9 6 22 6q17 0 27 -10q90 -90 90 -203q0 -62 -25 -121t-67 -94q-11 -8 -25 -8t-25 10t-11 25q0 21 12 33q63 63 63 155q0 77 -47 127q-75 -37 -209 -37q-61 0 -171 13.5t-181 13.5
q-50 0 -87 -17t-55.5 -44t-27 -53t-8.5 -50q0 -75 43 -121q57 17 74 17q64 0 106.5 -41.5t42.5 -126.5v-471q0 -39 -37 -39q-215 0 -215 -162q0 -47 16 -88t42 -61q98 34 196 34q77 0 164 -12t166 -12q98 0 153.5 44t55.5 122q0 79 -51 137q-38 -14 -78 -14q-59 0 -99 42.5
t-40 127.5v317q0 39 38 39q18 0 28.5 -10.5t10.5 -28.5v-317q0 -93 68 -93q25 0 50 12.5t36 12.5q30 0 72.5 -69.5t42.5 -155.5q0 -117 -81 -180.5t-206 -63.5q-85 0 -179 12.5t-151 12.5q-69 0 -134 -19.5t-69 -19.5q-38 0 -83.5 66t-45.5 165q0 63 24.5 111t63 74.5
t80.5 39.5t84 13v434q0 90 -71 90q-20 0 -44 -11.5t-34 -11.5q-44 0 -80.5 66.5t-36.5 138.5zM735 1012q0 23 15.5 39t37.5 16q23 0 39.5 -16t16.5 -39t-16.5 -39.5t-39.5 -16.5q-22 0 -37.5 16.5t-15.5 39.5z" />
    <glyph glyph-name="j" unicode="j" horiz-adv-x="1339" 
d="M41 172q0 76 27 137t67 95t79.5 51.5t70.5 17.5q37 0 37 -37q0 -33 -31 -39q-70 -14 -121 -69t-51 -154q0 -68 23.5 -124.5t62.5 -93.5t92 -62.5t110 -36.5t117 -11q93 0 169 28t125.5 73.5t83.5 106t48.5 123.5t14.5 128q0 133 -72 207t-197 74q-33 0 -57 -8
q0 -57 -0.5 -93.5t-2.5 -81.5t-6 -73t-10.5 -59.5t-17 -50t-24.5 -34.5t-33.5 -23t-44.5 -7q-50 0 -81.5 41.5t-31.5 105.5q0 97 46.5 187.5t127.5 136.5v219q0 17 11.5 28t27.5 11q17 0 28 -11t11 -28v-189q31 7 57 7q158 0 252 -99t94 -260q0 -150 -61 -270.5t-180 -193
t-277 -72.5q-136 0 -244 44.5t-173.5 137.5t-65.5 221zM338 1171q0 106 79.5 169t190.5 63q43 0 149.5 -14.5t178.5 -14.5q103 0 166 37q9 6 20 6q15 0 25 -10q37 -37 63.5 -97.5t26.5 -119.5q0 -102 -51 -165.5t-146 -80.5v-272q0 -17 -11.5 -28t-27.5 -11q-17 0 -27.5 11
t-10.5 28v305q0 15 9.5 26.5t24.5 12.5q84 8 123 49.5t39 124.5q0 33 -13.5 72t-33.5 67q-65 -33 -176 -33q-92 0 -190 14.5t-138 14.5q-88 0 -140 -42t-52 -112q0 -64 45 -120q10 -13 10 -25q0 -14 -12 -27.5t-27 -13.5q-17 0 -31 14q-63 75 -63 172zM465 303
q0 -31 10.5 -50.5t24.5 -19.5q37 0 49 69t12 230q-48 -45 -72 -107t-24 -122zM547 1006q0 23 15.5 39t37.5 16q23 0 39 -16t16 -39t-16 -39.5t-39 -16.5q-22 0 -37.5 16.5t-15.5 39.5z" />
    <glyph glyph-name="k" unicode="k" horiz-adv-x="1644" 
d="M133 1239q0 11 8 23q98 141 267 141q134 0 205 -81t71 -222v-590h66q59 0 88.5 51t29.5 121q0 17 11.5 28t27.5 11q17 0 28 -11t11 -28q0 -75 -26 -137t-76 -78q34 -10 64 -54.5t56 -99.5t57 -109t80.5 -90t112.5 -36q116 0 184 82.5t68 191.5q-104 16 -206.5 121.5
t-149.5 206.5q-4 12 -4 16q0 20 14 31q242 200 242 397q0 92 -50.5 146.5t-135.5 54.5q-56 0 -94 -15.5t-78 -49.5q10 -48 10 -91q0 -55 -18 -108.5t-45 -91.5t-56.5 -67.5t-53.5 -44.5t-36 -15t-23.5 9t-11.5 26q0 23 25 38q58 39 99.5 104.5t41.5 154.5q0 35 -12 75
q-4 12 -4 17q0 7 8 18q45 61 103.5 90t144.5 29q120 0 192 -78.5t72 -200.5q0 -223 -248 -438q43 -86 123.5 -163t191.5 -99q14 -3 24.5 -15.5t10.5 -25.5q0 -168 -83.5 -275.5t-244.5 -107.5q-62 0 -113.5 24t-86.5 62t-64.5 84t-52.5 92t-44.5 84t-47 62t-53.5 24h-68
v-186q0 -17 -11 -28t-28 -11q-18 0 -28.5 10.5t-10.5 28.5v854q0 225 -198 225q-113 0 -191 -92q39 -110 39 -352v-594q0 -61 18 -104t48.5 -64.5t63 -31t69.5 -9.5q94 0 174 39q12 4 16 4q17 0 28 -11t11 -28q0 -26 -22 -35q-96 -47 -207 -47q-129 0 -203 76t-74 211v594
q0 230 -41 344q-4 8 -4 14z" />
    <glyph glyph-name="l" unicode="l" horiz-adv-x="1339" 
d="M133 1237q0 14 6 23q103 141 279 141q118 0 195 -79t77 -210v-547q0 -47 16 -64.5t60 -17.5q71 0 105 1.5t81 8t77 22t54 42.5q12 12 29 12q21 0 49 -14q80 -42 114 -113t34 -147q0 -137 -87.5 -216t-215.5 -79h-433q-17 0 -27.5 11t-10.5 28q0 16 10.5 27.5t27.5 11.5
h433q65 0 112 21.5t70 57t33 69.5t10 69q0 69 -30.5 117.5t-78.5 72.5q-53 -46 -121 -62.5t-229 -16.5q-80 0 -120 37.5t-40 125.5v543q0 56 -17.5 98.5t-46.5 66t-61.5 35t-68.5 11.5q-141 0 -215 -109q-11 -14 -33 -14q-17 0 -27 10.5t-10 26.5zM154 1092q0 15 10.5 26.5
t25.5 11.5q28 0 37 -22q19 -45 35.5 -140.5t16.5 -217.5v-539q0 -47 7 -76.5t20.5 -40.5t22 -13.5t23.5 -2.5q74 0 105 168q5 30 39 30q15 0 24.5 -11.5t9.5 -26.5q0 -45 -20 -98.5t-62.5 -96.5t-95.5 -43q-151 0 -151 211v539q0 107 -11.5 183.5t-23.5 113t-12 45.5z" />
    <glyph glyph-name="m" unicode="m" horiz-adv-x="1845" 
d="M133 1239q0 11 8 23q44 64 116.5 102.5t160.5 38.5q135 0 274.5 -86t212.5 -209q78 134 197.5 214.5t240.5 80.5q137 0 225.5 -84t88.5 -232v-509q0 -151 10 -223t41 -152q4 -8 4 -17q0 -8 -6 -20q-34 -69 -109 -117.5t-174 -48.5q-52 0 -97 13.5t-84.5 43.5t-62 85
t-22.5 130v408q0 59 -14.5 78.5t-40.5 19.5q-34 0 -60.5 -36t-42 -93.5t-24.5 -112.5t-12 -110q-3 -39 -37 -39q-19 0 -29 11.5t-10 27.5q0 37 1 106.5t1 106.5q0 67 -9.5 103t-37.5 36q-102 0 -144 -354q-5 -37 -39 -37q-15 0 -25.5 12t-10.5 27q0 128 -6.5 213t-15 112.5
t-15 45t-6.5 26.5q0 15 9.5 25t24.5 10q19 0 33.5 -18.5t23 -47.5t13 -54t6.5 -48l-8 -6q13 71 61.5 121.5t98.5 50.5q58 0 85 -43.5t31 -105.5l-16 -23q17 73 66 122.5t100 49.5q67 0 97 -48.5t30 -125.5v-410q0 -48 13 -84.5t32 -56.5t46 -32.5t50.5 -16.5t50.5 -4
q75 0 125.5 33t77.5 77q-31 83 -41 161t-10 229v509q0 59 -16.5 104t-41 69.5t-58 40t-61.5 20t-59 4.5q-122 0 -233 -93.5t-168 -219.5q-10 -23 -35 -23q-24 0 -37 23q-48 97 -129 170t-164.5 108t-158.5 35q-123 0 -201 -92q39 -110 39 -367v-540q0 -117 48.5 -181.5
t139.5 -64.5q122 0 187 129q15 29 39 29q26 0 39 -27q13 -26 26.5 -45.5t36.5 -41t56 -33t75 -11.5q46 0 80 7t49 15.5t29.5 15.5t25.5 7q16 0 25.5 -10.5t9.5 -24.5q0 -38 -71 -63t-148 -25q-148 0 -233 131q-35 -63 -94.5 -97t-131.5 -34q-130 0 -198 89t-68 235v540
q0 245 -41 359q-4 8 -4 14z" />
    <glyph glyph-name="n" unicode="n" horiz-adv-x="1595" 
d="M133 1239q0 11 8 23q45 64 116 102.5t159 38.5q68 0 126 -33t95 -92q128 125 321 125q199 0 326 -115t127 -313v-541q0 -159 43 -219q8 -12 8 -22q0 -11 -6 -23q-77 -168 -260 -168q-129 0 -201.5 74t-72.5 209v534q0 99 -86 99q-18 0 -34.5 -6.5t-29.5 -20t-24 -27.5
t-20 -38t-15.5 -41t-12.5 -46.5t-9.5 -45.5t-7.5 -46t-5 -40t-4 -36q-1 -15 -13.5 -24.5t-27.5 -9.5t-26 11.5t-11 26.5q0 10 1 29.5t1 28.5q0 197 -25 295q-4 16 -4 22q0 16 10 27.5t27 11.5q27 0 37 -26q10 -29 21 -115q17 71 64.5 109t107.5 38q80 0 121.5 -47t41.5 -129
v-534q0 -101 50 -153t147 -52q63 0 112.5 27t71.5 79q-47 73 -47 248v541q0 75 -22 135.5t-58 99.5t-85.5 65.5t-101.5 38t-108 11.5q-90 0 -159 -30t-135 -97q-14 -14 -33 -14q-28 0 -41 26q-29 56 -75 85.5t-101 29.5q-119 0 -197 -92q39 -110 39 -367v-559
q0 -108 46 -167.5t130 -59.5q74 0 132 27.5t85 80.5q-57 98 -57 205q0 16 11 27.5t28 11.5q15 0 27 -12t12 -27q0 -98 55 -178q8 -12 8 -20q0 -9 -4 -17q-34 -85 -114 -130.5t-183 -45.5q-123 0 -188.5 85t-65.5 220v559q0 245 -41 359q-4 8 -4 14z" />
    <glyph glyph-name="o" unicode="o" horiz-adv-x="1505" 
d="M92 688q0 212 81 379t233 262.5t350 95.5q105 0 202.5 -35.5t167.5 -93.5t112 -133.5t42 -152.5q0 -71 -29 -128.5t-74 -91t-92.5 -51.5t-89.5 -18h-16l12 65q10 -45 10 -90q0 -166 -68.5 -267t-180.5 -101q-63 0 -114 33.5t-81.5 88t-46.5 119t-16 131.5q0 187 106 340
q14 17 31 17t28 -11t11 -26q0 -16 -6 -25q-93 -136 -93 -295q0 -127 51.5 -210.5t129.5 -83.5q57 0 97 43t57.5 107t17.5 140q0 44 -9 97l39 -70q-110 8 -176.5 71t-66.5 132q0 64 36 92.5t78 28.5q45 0 79 -32.5t51.5 -82t25 -80.5t10.5 -55q91 3 151 63.5t60 149.5
q0 59 -34.5 119.5t-92.5 109t-142.5 79t-176.5 30.5q-263 0 -424.5 -182t-161.5 -478q0 -122 33 -226.5t89.5 -178t131.5 -126t159.5 -77.5t172.5 -25q85 0 168 23.5t157.5 72t131 117t89.5 164.5t33 207q0 54 -9 109.5t-15 70.5q-4 12 -4 19q0 15 11.5 24.5t27.5 9.5
q27 0 36 -24q10 -27 20.5 -86.5t10.5 -122.5q0 -184 -84 -335t-235 -239t-338 -88q-135 0 -256.5 51t-211.5 142t-143 225.5t-53 292.5zM784 928q0 -35 33 -73t98 -54q-1 14 -8 41t-18 57t-29 52t-37 22t-29 -13t-10 -32z" />
    <glyph glyph-name="p" unicode="p" 
d="M123 1026q0 129 88 223.5t223.5 139.5t296.5 45q277 0 452 -164.5t175 -431.5q0 -137 -41 -246t-108.5 -174.5t-149 -100t-168.5 -34.5q-73 0 -129 18q-27 8 -27 37q0 15 10 27t25 12q9 0 41.5 -8.5t79.5 -8.5q75 0 143.5 29.5t124 86t88.5 150t33 212.5
q0 229 -150.5 373.5t-398.5 144.5q-96 0 -187 -19.5t-169.5 -58t-126 -104t-47.5 -148.5q0 -58 25.5 -119.5t71 -116t117 -94t154.5 -49.5v197q0 15 12 27t27 12q17 0 28 -11.5t11 -27.5v-199q33 1 63 4.5t66.5 15t62.5 30.5t44 53t18 79q0 71 -49 116.5t-125 45.5
q-45 0 -78 -11.5t-52 -22.5t-28 -11q-17 0 -28 10t-11 27q0 22 17 33q80 53 180 53q117 0 184.5 -72t67.5 -168q0 -53 -16.5 -95.5t-45 -70t-61.5 -46.5t-73 -29t-72 -14t-64 -5v-84q0 -185 41 -247q8 -11 8 -23q0 -15 -15 -47t-45 -70.5t-88.5 -67t-131.5 -28.5
q-64 0 -113.5 18t-79.5 46.5t-49.5 67.5t-27 76t-7.5 77v362q0 17 11.5 28t27.5 11q17 0 28 -11t11 -28v-362q0 -61 18 -103.5t48.5 -64t62.5 -30.5t70 -9q77 0 128.5 39.5t69.5 89.5q-45 85 -45 276v86q-185 22 -315.5 154.5t-130.5 302.5z" />
    <glyph glyph-name="q" unicode="q" horiz-adv-x="1609" 
d="M92 705q0 156 48.5 289.5t135 229t212 149.5t274.5 54q132 0 247 -47t199.5 -132.5t133.5 -213.5t49 -282q0 -127 -41 -232q-9 -22 -35 -22q-17 0 -29 11t-12 26q0 8 4 16q35 86 35 201q0 120 -31 220t-84 169t-124 117t-149.5 70t-162.5 22q-268 0 -430 -177.5
t-162 -467.5q0 -129 33.5 -235.5t89 -177.5t129 -120.5t152 -71.5t159.5 -22q97 0 180 18q-22 81 -28 152t-6 233q-17 -35 -37.5 -56.5t-46 -29.5t-41 -10t-41.5 -2q-93 0 -157 95.5t-64 228.5q0 146 83 249t201 103q91 0 150 -30.5t59 -63.5q0 -16 -9 -26.5t-26 -10.5
q-14 0 -34 13t-55 26.5t-85 13.5q-94 0 -150.5 -85.5t-56.5 -188.5q0 -98 42.5 -172t101.5 -74q43 0 76 33.5t52 89.5t29 113.5t13 119.5q2 16 12 26.5t27 10.5q15 0 24.5 -11.5t9.5 -27.5v-485q0 -107 33 -215q119 37 226.5 111.5t156.5 162.5q14 21 33 21q8 0 16 -4
q54 -23 96 -98.5t42 -162.5q0 -75 -30.5 -134.5t-78.5 -94t-102.5 -52.5t-108.5 -18q-215 0 -297 177q-108 -23 -209 -23q-145 0 -266.5 55t-203 150t-126.5 224t-45 276zM1018 43q34 -62 87 -90.5t134 -28.5q95 0 168.5 60t73.5 161q0 45 -17 90.5t-47 77.5
q-58 -80 -161 -153.5t-238 -116.5z" />
    <glyph glyph-name="r" unicode="r" horiz-adv-x="1568" 
d="M133 1122q0 70 51 127q160 170 549 170q102 0 196.5 -19t179 -60t147 -100.5t99 -146t36.5 -190.5q0 -122 -63.5 -224.5t-172.5 -141.5q48 -42 116 -76.5t130 -46.5q30 -6 37 -33q8 -39 8 -84q0 -128 -79 -212.5t-212 -84.5q-52 0 -99.5 14.5t-89 44t-75 60.5t-69 79.5
t-58.5 84t-55 88.5q3 -104 36 -183q7 -14 7 -24q0 -7 -4 -19q-36 -70 -107 -107.5t-156 -37.5q-135 0 -208.5 79t-73.5 220v348q0 96 18 173t56.5 137.5t104 93t155.5 32.5q43 0 82 -11t54 -19.5t19 -12.5q17 -10 17 -30v-62q31 54 75 82.5t90 28.5q71 0 113.5 -44.5
t42.5 -109.5q0 -53 -33 -100t-63 -47q-15 0 -26 12t-11 27t13.5 28t27.5 31.5t14 48.5q0 8 -2 17.5t-9 24.5t-24 24.5t-43 9.5q-41 0 -72.5 -29t-50 -80.5t-28.5 -109t-14 -127.5q-2 -17 -12 -28t-25 -11t-27 12t-12 27v350q-47 21 -96 21q-73 0 -124.5 -27t-79.5 -77.5
t-40 -112t-12 -142.5v-348q0 -107 53.5 -164t150.5 -57q55 0 107 22t80 64q-23 52 -30 100t-7 123q0 32 17.5 53t45.5 21q22 0 38.5 -9.5t24.5 -20.5t25 -40q183 -313 369 -313q99 0 157 62t58 159q0 13 -4 45q-94 18 -171.5 67.5t-119.5 108.5q-10 13 -10 29q0 15 10 27.5
t25 17.5q95 31 154 116.5t59 192.5q0 90 -32.5 164t-88 124t-130.5 84.5t-157.5 50t-171.5 15.5q-55 0 -116 -5t-135.5 -20t-133 -38t-98 -63.5t-39.5 -92.5q0 -26 10 -47t10 -28q0 -14 -10.5 -24.5t-25.5 -10.5q-30 0 -46 37t-16 73z" />
    <glyph glyph-name="s" unicode="s" horiz-adv-x="1359" 
d="M113 965q0 92 40 175.5t111.5 148t180.5 103t239 38.5q68 0 135.5 -12t131 -39t111.5 -65t77.5 -94t29.5 -122q0 -115 -75 -175.5t-195 -60.5q-61 0 -76 31q-29 56 -65 82t-90 26q-57 0 -90 -33t-33 -79q0 -35 19 -60t49.5 -40.5t67.5 -28.5t74 -29.5t67.5 -38.5
t49.5 -60.5t19 -90.5q0 -77 -55 -135t-164 -58q-85 0 -159.5 50t-106.5 128q-12 4 -37 4q-67 0 -116.5 -55t-49.5 -123q0 -81 46.5 -142t122.5 -94t158 -49t168 -16q223 0 352.5 105t129.5 297q0 181 -115 280q-12 12 -12 27t11 27t26 12q16 0 24 -8q143 -117 143 -338
q0 -218 -149.5 -349t-409.5 -131q-81 0 -160 13t-154.5 42.5t-132.5 72.5t-91.5 107.5t-34.5 143.5q0 105 74.5 180.5t177.5 75.5q77 0 92 -37q25 -59 80 -102t123 -43q43 0 73.5 12.5t44 32.5t18.5 37t5 33q0 41 -25.5 71t-64 45t-83.5 34.5t-83.5 40t-64 61t-25.5 96.5
q0 82 58.5 136t142.5 54q150 0 211 -137q12 -2 34 -2q78 0 128.5 40t50.5 118q0 102 -112 178t-296 76q-138 0 -250 -47.5t-178 -136.5t-66 -203q0 -27 3 -52t8.5 -46t11 -37t14 -33t13 -24.5t13 -21t9.5 -14.5q8 -11 8 -24q0 -15 -11 -26t-26 -11q-14 0 -30 16
q-12 13 -25 33t-29 53.5t-26 82.5t-10 104z" />
    <glyph glyph-name="t" unicode="t" horiz-adv-x="1431" 
d="M31 1120q0 128 83 205.5t214 77.5q174 0 370.5 -15.5t270.5 -15.5q182 0 252 35q12 6 24 6q15 0 23 -8q133 -106 133 -260q0 -136 -88.5 -209.5t-225.5 -73.5q-46 0 -114 10v-333q0 -69 6 -117.5t13.5 -67t13.5 -33t6 -24.5q0 -20 -11 -28.5t-24 -8.5q-82 0 -82 279v376
q0 19 12 30t31 11q14 0 57.5 -8t85.5 -8q110 0 176 50t66 155q0 104 -84 182q-84 -33 -272 -33q-77 0 -260 15.5t-379 15.5q-101 0 -160 -55t-59 -150q0 -122 98 -190q39 29 119 46t155 17v146q0 15 12 27t27 12q17 0 28 -11.5t11 -27.5v-148q88 -6 122 -17t34 -38
q0 -16 -9 -25.5t-26 -9.5q-8 0 -54 6t-67 6v-579q0 -75 19 -128.5t50 -79.5t62 -37t64 -11q54 0 96.5 17.5t63 38.5t40.5 38.5t35 17.5q18 0 27.5 -10t9.5 -24q0 -50 -86.5 -103t-189.5 -53q-52 0 -98 18t-85.5 55.5t-62.5 104.5t-23 156v581q-168 -3 -252 -63
q-11 -8 -22 -8q-12 0 -21 6q-80 48 -117.5 112.5t-37.5 157.5z" />
    <glyph glyph-name="u" unicode="u" horiz-adv-x="1538" 
d="M123 1237q0 11 8 23q99 143 254 143q133 0 202.5 -80.5t69.5 -222.5v-539q0 -68 21.5 -102.5t77.5 -34.5q43 0 75 39t49.5 102.5t26 124t11.5 123.5q0 15 10 25t24 10q18 0 28.5 -10.5t10.5 -26.5q6 -180 24 -248q38 -137 152 -139q23 0 41.5 3.5t44 19.5t42.5 43.5
t29.5 80t12.5 123.5v408q0 223 -198 223q-47 0 -86.5 -16.5t-58 -33t-40.5 -42.5q39 -121 39 -244q0 -18 -11.5 -28.5t-27.5 -10.5q-18 0 -28.5 10.5t-10.5 28.5q0 117 -41 236q-4 8 -4 14q0 9 9 23q98 141 260 141q134 0 205 -81t71 -222v-406q0 -160 -59 -254t-189 -94
q-100 0 -155.5 56t-65.5 145q-15 -85 -68 -143t-122 -58q-87 0 -131.5 59.5t-44.5 155.5v539q0 114 -47.5 169.5t-147.5 55.5q-47 0 -86 -18t-56 -34.5t-36 -41.5q39 -110 39 -350q0 -32 -1 -150.5t-1 -179.5q0 -87 20.5 -160.5t54.5 -124.5t81.5 -90.5t97.5 -63t107 -39
t106 -21t98 -5.5q89 0 171 21t132.5 46t98.5 62t62 52t30 34q14 17 32 17t27.5 -11t9.5 -26q0 -9 -8 -25q-83 -106 -229.5 -177t-325.5 -71q-301 0 -472 152.5t-171 429.5q0 62 1 181t1 149q0 228 -41 342q-4 8 -4 14z" />
    <glyph glyph-name="v" unicode="v" horiz-adv-x="1486" 
d="M92 1067q0 87 34 162.5t103.5 124.5t159.5 49q116 0 182 -67.5t66 -172.5q0 -6 -8 -22q-39 -66 -39 -162q0 -117 53 -250.5t125 -239.5q72 106 147 279q-58 23 -99.5 80t-41.5 113q0 73 39.5 112t91.5 39q61 0 96 -47.5t35 -112.5q0 -60 -22 -131q10 -2 33 -2q44 0 90 18
t87 51t67 86t26 116q0 91 -66.5 162t-175.5 71q-39 0 -79.5 -12.5t-80 -45.5t-55.5 -81q-9 -25 -35 -25q-18 0 -29.5 10.5t-11.5 28.5q0 8 2 12q30 84 113.5 137.5t175.5 53.5q143 0 231.5 -91.5t88.5 -219.5q0 -143 -104.5 -246t-243.5 -103q-40 0 -58 4
q-64 -168 -186 -346q-13 -16 -31 -16q-19 0 -33 14q-83 104 -155 269t-72 313q0 111 47 195q0 68 -47 109.5t-123 41.5q-92 0 -155.5 -73t-63.5 -185q0 -126 30.5 -256t80.5 -239.5t114 -207t130 -165t130.5 -107t114.5 -39.5q74 0 147 44.5t132 115.5t111 161.5t87.5 179
t57.5 171.5q9 29 41 29q16 0 26 -11t10 -26q0 -2 -1 -6t-1 -6q-18 -80 -55 -173t-95 -192.5t-126 -180t-156 -132.5t-178 -52q-74 0 -165.5 57.5t-181 162.5t-164 238t-121 301t-46.5 333zM852 961q0 -29 23 -62t65 -55q18 62 18 108q0 9 -1.5 19.5t-6.5 26t-16.5 26
t-28.5 10.5q-10 0 -20 -3.5t-21.5 -21t-11.5 -48.5z" />
    <glyph glyph-name="w" unicode="w" horiz-adv-x="1783" 
d="M113 1239q0 11 8 23q98 141 262 141q136 0 211.5 -90.5t75.5 -253.5q0 -260 19 -411.5t73 -151.5q17 0 32.5 20.5t26.5 57.5t20 76.5t16 91t11.5 85.5t8 74.5t4.5 46.5q1 15 12 26t25 11q32 0 36 -35q33 -454 115 -454q30 0 51 53t29.5 136t12 146.5t3.5 120.5
q0 15 12 27t27 12q17 0 28 -11.5t11 -27.5q0 -51 -1 -93.5t-5 -99.5t-11 -102t-20.5 -91.5t-31 -77.5t-44.5 -50.5t-61 -19.5q-59 0 -99.5 72t-54.5 165q-46 -237 -153 -237q-64 0 -100 59t-53 197t-17 385q0 139 -53 202.5t-156 63.5q-47 0 -86.5 -16.5t-58.5 -33
t-41 -42.5q49 -139 49 -367q0 -177 27.5 -319t70.5 -230.5t100 -147.5t112 -82.5t110 -23.5q133 0 211 156q15 29 43 29t43 -27q90 -158 231 -158q77 0 149.5 58.5t127.5 157.5t88.5 239.5t33.5 294.5v281q0 103 -44 166t-138 63q-38 0 -72 -15.5t-56.5 -39.5t-34.5 -40
t-19 -30q-13 -22 -39 -22q-25 0 -39 24q-83 125 -209 125q-95 0 -172 -72q-13 -10 -27 -10q-15 0 -26.5 11t-11.5 28t12 29q98 92 225 92q75 0 142 -34t106 -95q36 58 95 92.5t126 34.5q127 0 193.5 -84.5t66.5 -222.5v-281q0 -176 -39.5 -331.5t-105 -263t-152.5 -170
t-180 -62.5q-81 0 -154 45t-118 119q-41 -75 -108.5 -119.5t-147.5 -44.5q-29 0 -61 5t-83 26t-96 55.5t-94 102t-84 156.5t-57.5 227.5t-22.5 307.5q0 218 -51 359q-4 8 -4 14z" />
    <glyph glyph-name="x" unicode="x" horiz-adv-x="1660" 
d="M123 326q0 40 7 56.5t22 23.5q54 21 103.5 62t86 89.5t71 102t66.5 103t64.5 89.5t72.5 64t84 24q93 0 131 -98q5 14 13 28t22.5 31.5t38.5 28t53 10.5q38 0 71.5 -15.5t33.5 -43.5q0 -15 -10 -26t-25 -11q-10 0 -30 9t-40 9q-41 0 -64.5 -47t-23.5 -108q0 -62 26 -111
t77 -49q42 0 77 33.5t59 84t54.5 113.5t61.5 120.5t82 105.5t114 67q4 24 4 39q0 86 -58 150.5t-148 64.5q-33 0 -62.5 -6.5t-50.5 -14t-43.5 -25.5t-35 -29t-30.5 -36.5t-25 -36.5t-24 -40t-22 -37q-17 -29 -47 -29q-27 0 -48 21q-38 41 -79 77.5t-94 74t-113 59.5t-117 22
q-96 0 -154.5 -57t-58.5 -150q0 -88 55.5 -138t147.5 -50q19 0 30 -11t11 -28q0 -15 -12 -27t-27 -12q-129 0 -206 75.5t-77 190.5q0 123 81 204t210 81q107 0 214.5 -54t229.5 -186q24 42 41 69t49 63t65 57t83 36t109 15q84 0 150.5 -43.5t100 -109t33.5 -136.5
q0 -47 -7 -72.5t-14 -31.5t-20 -9q-71 -16 -124 -77.5t-87 -136t-68.5 -147.5t-86.5 -122t-123 -49q-100 0 -139 100q-7 -21 -19.5 -40.5t-45 -39.5t-75.5 -20q-36 0 -78.5 20.5t-42.5 49.5q0 15 10.5 27t26.5 12q12 0 37.5 -15.5t46.5 -15.5q30 0 51.5 16t31.5 42t14 50.5
t4 51.5q0 68 -27.5 111.5t-67.5 43.5q-30 0 -60 -23t-58 -62t-58 -87.5t-66.5 -101.5t-76 -101t-93 -90.5t-112.5 -66.5l29 67q-4 -36 -4 -53q0 -118 65 -192t176 -74q58 0 99.5 13t74.5 44.5t55 66.5t54 97q17 35 53 35q26 0 47 -21q130 -127 226.5 -181t201.5 -54
q100 0 153.5 65.5t53.5 153.5q0 84 -51 139t-137 62q-13 1 -24 13t-11 26q0 38 39 38q38 0 81 -17t84.5 -49t69 -88t27.5 -124q0 -53 -17.5 -104.5t-51 -95t-90 -70.5t-126.5 -27q-44 0 -89 10t-80.5 23.5t-77.5 38t-67 42t-62 48t-50.5 43t-42.5 39.5q-25 -53 -50 -90
t-64.5 -75.5t-97 -58.5t-130.5 -20q-132 0 -225.5 91.5t-93.5 234.5z" />
    <glyph glyph-name="y" unicode="y" horiz-adv-x="1456" 
d="M51 1102q0 122 81.5 211.5t201.5 89.5q73 0 138 -27.5t114.5 -77t87.5 -108t67 -129.5q31 83 86.5 159.5t134.5 129.5t158 53q116 0 200.5 -88t84.5 -207q0 -53 -21 -102q-10 -20 -28 -23q-211 -39 -318 -233q-13 -19 -34 -19q-14 0 -26.5 12.5t-12.5 24.5t4 20
q54 105 144 173.5t206 93.5q6 21 6 43q0 88 -55 157.5t-150 69.5q-69 0 -137.5 -54.5t-117 -130.5t-79.5 -161q-5 -12 -17 -22.5t-24 -10.5q-33 0 -45 33q-140 346 -366 346q-93 0 -149 -68.5t-56 -156.5q0 -27 6 -45q163 -37 265 -145t161 -289q63 -191 174 -191
q42 0 73.5 16t53 46t35.5 65t25 82q7 29 34 29q29 0 39 -23q80 -195 80 -340q0 -156 -96.5 -244t-267.5 -88q-125 0 -218.5 75t-93.5 194q0 47 20.5 106.5t57.5 59.5q16 0 25.5 -10t9.5 -23q0 -12 -17.5 -48t-17.5 -85q0 -63 40 -108.5t91 -64t103 -18.5q135 0 210.5 65.5
t75.5 186.5q0 90 -36 209q-30 -74 -89.5 -117t-136.5 -43q-68 0 -137.5 62t-110.5 186q-57 169 -149.5 262.5t-239.5 120.5q-26 4 -36.5 42t-10.5 77z" />
    <glyph glyph-name="z" unicode="z" horiz-adv-x="1507" 
d="M113 1139q0 102 76.5 183t197.5 81q105 0 258 -15.5t242 -15.5q193 0 287 41l24 8q10 0 19 -6q65 -43 108 -105.5t43 -127.5q0 -113 -57 -183q-9 -12 -27 -12t-29.5 10t-11.5 27q0 16 10 29q41 55 41 127q0 88 -96 157q-99 -43 -313 -43q-90 0 -242 15.5t-256 15.5
q-63 0 -110 -31.5t-67 -72.5t-20 -82q0 -110 74 -178q75 34 199 34q95 0 180 -18q37 -8 37 -39q0 -15 -14 -29q-218 -202 -322 -364.5t-104 -300.5q0 -89 47 -166q84 35 252 35q92 0 257.5 -17.5t274.5 -17.5q120 0 183 52.5t63 143.5q0 61 -18 101.5t-66 66.5
q-30 -31 -99.5 -46t-144.5 -15q-103 0 -264 22q-33 5 -33 35q0 11 4 19q59 158 326 413q-50 -4 -78 -4q-68 0 -135 13q-33 6 -33 39q0 15 12 25.5t27 10.5q11 0 51.5 -4t83.5 -4q78 0 120 5t48 5q17 0 28 -11.5t11 -26.5q0 -23 -16 -39q-2 -2 -27.5 -26t-52.5 -50t-66.5 -68
t-74.5 -82t-71 -88.5t-61 -91.5q100 -14 201 -14q57 0 101.5 10t65 21.5t38 21.5t27.5 10q56 0 115 -73t59 -175q0 -130 -88 -202t-236 -72q-108 0 -274.5 17.5t-257.5 17.5q-55 0 -84.5 -1.5t-75 -10.5t-84.5 -27q-12 -6 -23 -6q-17 0 -30 16q-80 109 -80 238
q0 74 24.5 151t59 139t92.5 136t103.5 123t113.5 118q-58 7 -94 7q-117 0 -185 -39q-10 -5 -16 -5q-11 0 -24 9q-123 100 -123 256z" />
    <glyph glyph-name="braceleft" unicode="{" horiz-adv-x="978" 
d="M123 702q0 23 24 37q98 52 143.5 173t45.5 255v129q0 97 32 175.5t100 129t163 50.5q98 0 182 -64.5t84 -150.5q0 -26 -20 -35q-55 -25 -94.5 -88.5t-39.5 -159.5v-121q0 -97 -48 -186.5t-136 -143.5q88 -54 136 -143t48 -186v-121q0 -96 39.5 -159.5t94.5 -88.5
q20 -9 20 -35q0 -86 -84 -150.5t-182 -64.5q-95 0 -163 50.5t-100 129t-32 175.5v129q0 134 -45.5 255t-143.5 173q-24 14 -24 36zM225 702q69 -50 113.5 -136.5t60 -166t15.5 -159.5v-131q0 -126 59.5 -201.5t157.5 -75.5q142 0 184 117q-65 39 -107 116.5t-42 186.5v121
q0 96 -45 168t-144 125q-24 14 -24 36q0 23 24 37q99 53 144 125t45 168v121q0 109 42 186.5t107 116.5q-42 117 -184 117q-98 0 -157.5 -75.5t-59.5 -201.5v-131q0 -80 -15.5 -160t-60 -166.5t-113.5 -136.5z" />
    <glyph glyph-name="bar" unicode="|" horiz-adv-x="714" 
d="M102 1257q0 9 7 19q85 127 221 127q108 0 169.5 -67t61.5 -181v-723q0 -165 47 -268q4 -12 4 -19q0 -9 -6 -18q-85 -127 -221 -127q-108 0 -169.5 67t-61.5 181v723q0 163 -48 268q-4 12 -4 18zM186 1249q45 -113 45 -278v-723q0 -83 40 -126.5t114 -43.5q86 0 143 76
q-45 113 -45 278v723q0 83 -39.5 126.5t-113.5 43.5q-87 0 -144 -76z" />
    <glyph glyph-name="braceright" unicode="}" horiz-adv-x="978" 
d="M82 -31q0 26 20 35q55 25 94.5 88.5t39.5 159.5v121q0 97 48 186t136 143q-88 54 -136 143.5t-48 186.5v121q0 96 -39.5 159.5t-94.5 88.5q-20 9 -20 35q0 86 84 150.5t182 64.5q95 0 163 -50.5t100 -129t32 -175.5v-129q0 -62 9.5 -122t30.5 -120t59 -109.5t89 -76.5
q25 -14 25 -37q0 -22 -25 -36q-51 -27 -89 -76.5t-59 -109.5t-30.5 -120t-9.5 -122v-129q0 -97 -32 -175.5t-100 -129t-163 -50.5q-98 0 -182 64.5t-84 150.5zM164 -51q42 -117 184 -117q98 0 157.5 75.5t59.5 201.5v131q0 80 15.5 159.5t60 166t113.5 136.5
q-69 50 -113.5 136.5t-60 166.5t-15.5 160v131q0 126 -59.5 201.5t-157.5 75.5q-142 0 -184 -117q65 -39 107 -116.5t42 -186.5v-121q0 -96 45 -168t144 -125q24 -14 24 -37q0 -22 -24 -36q-99 -53 -144 -125t-45 -168v-121q0 -109 -42 -186.5t-107 -116.5z" />
    <glyph glyph-name="asciitilde" unicode="~" horiz-adv-x="1357" 
d="M102 815q0 119 76.5 194.5t208.5 75.5q72 0 141.5 -20t115.5 -43.5t113.5 -43.5t137.5 -20q56 0 94.5 26t73.5 71q14 14 31 14q6 0 22 -8q139 -91 139 -260q0 -119 -76 -195t-208 -76q-72 0 -141.5 20t-115.5 43.5t-113.5 43.5t-137.5 20q-57 0 -95 -26t-73 -70
q-14 -14 -31 -14q-6 0 -22 8q-140 92 -140 260zM180 815q0 -107 78 -176q86 96 205 96q72 0 141.5 -20t115.5 -43.5t113.5 -43.5t137.5 -20q101 0 154 57t53 136q0 107 -78 176q-86 -96 -205 -96q-72 0 -141.5 20t-115.5 43.5t-113.5 43.5t-137.5 20q-101 0 -154 -57
t-53 -136z" />
    <glyph glyph-name="uni00A0" unicode="&#xa0;" horiz-adv-x="634" 
 />
    <glyph glyph-name="copyright" unicode="&#xa9;" horiz-adv-x="1705" 
 />
    <glyph glyph-name="guillemotleft" unicode="&#xab;" horiz-adv-x="1566" 
d="M61 614q0 108 103 185q35 26 137 104.5t186.5 144t85.5 66.5q10 10 25 10q9 0 18 -6q156 -93 156 -233q0 -149 -242 -271q242 -122 242 -270q0 -140 -156 -233q-10 -7 -18 -7q-14 0 -25 11q-1 1 -85.5 66.5t-186.5 144t-137 104.5q-103 77 -103 184zM139 614
q0 -62 72 -122q53 -44 194 -153t195 -146q45 31 69.5 65.5t24.5 85.5q0 27 -15 54.5t-35.5 48t-52 42.5t-55 35.5t-55.5 30.5t-43 23q-22 13 -22 36q0 24 22 37q11 6 43 23t55.5 30.5t55 35.5t52 42.5t35.5 48t15 54.5q0 51 -24.5 85.5t-69.5 65.5q-54 -37 -195 -146
t-194 -153q-72 -60 -72 -123zM754 614q0 108 102 185q35 26 137 104.5t187 144t86 66.5q10 10 24 10q10 0 19 -6q155 -93 155 -233q0 -149 -241 -271q241 -122 241 -270q0 -140 -155 -233q-11 -7 -19 -7q-13 0 -24 11q-1 1 -86 66.5t-187 144t-137 104.5q-102 76 -102 184z
M831 614q0 -62 72 -122q53 -44 194 -153t195 -146q45 31 69.5 65.5t24.5 85.5q0 27 -15 54.5t-35.5 48t-52 42.5t-55 35.5t-55.5 30.5t-43 23q-22 13 -22 36q0 24 22 37q11 6 43 23t55.5 30.5t55 35.5t52 42.5t35.5 48t15 54.5q0 51 -24.5 85.5t-69.5 65.5
q-54 -37 -195 -146t-194 -153q-72 -60 -72 -123z" />
    <glyph glyph-name="uni00AD" unicode="&#xad;" horiz-adv-x="1218" 
d="M102 719q0 114 77.5 186t193.5 72q78 0 188.5 -13.5t157.5 -13.5q113 0 233 51q15 5 17 5q13 0 24 -11q123 -108 123 -235q0 -114 -77 -186t-193 -72q-78 0 -188.5 13t-157.5 13q-114 0 -234 -51q-12 -4 -16 -4q-15 0 -25 10q-123 108 -123 236zM180 719q0 -84 78 -162
q122 47 240 47q46 0 156.5 -12t191.5 -12q94 0 143 53t49 127q0 85 -77 162q-125 -48 -240 -48q-46 0 -156.5 12.5t-191.5 12.5q-94 0 -143.5 -53t-49.5 -127z" />
    <glyph glyph-name="degree" unicode="&#xb0;" horiz-adv-x="589" 
d="M31 1401q0 109 77.5 186.5t186.5 77.5t186.5 -77.5t77.5 -186.5t-77.5 -186.5t-186.5 -77.5t-186.5 77.5t-77.5 186.5zM109 1401q0 -75 55.5 -131t130.5 -56t130.5 56t55.5 131t-55.5 130.5t-130.5 55.5t-130.5 -55.5t-55.5 -130.5z" />
    <glyph glyph-name="guillemotright" unicode="&#xbb;" horiz-adv-x="1566" 
d="M102 344q0 148 242 270q-242 122 -242 271q0 140 156 233q9 6 18 6q15 0 25 -10q1 -1 86 -66.5t187 -144t137 -104.5q102 -77 102 -185t-102 -184q-35 -26 -137 -104.5t-187 -144t-86 -66.5q-11 -11 -25 -11q-8 0 -18 7q-156 93 -156 233zM180 344q0 -51 24.5 -85.5
t69.5 -65.5q54 37 196 146.5t194 152.5q71 59 71 122q0 64 -71 123q-52 43 -194 152.5t-196 146.5q-45 -31 -69.5 -65.5t-24.5 -85.5q0 -27 15 -54.5t35.5 -48t52 -42.5t55 -35.5t55.5 -30.5t43 -23q23 -13 23 -37q0 -23 -23 -36q-11 -6 -43 -23t-55.5 -30.5t-55 -35.5
t-52 -42.5t-35.5 -48t-15 -54.5zM795 344q0 148 241 270q-241 122 -241 271q0 140 155 233q9 6 19 6q14 0 24 -10q1 -1 86 -66.5t187 -144t137 -104.5q102 -77 102 -185t-102 -184q-35 -26 -137 -104.5t-187 -144t-86 -66.5q-11 -11 -24 -11q-9 0 -19 7q-155 93 -155 233z
M872 344q0 -51 25 -85.5t70 -65.5q54 37 195 146t194 153q71 59 71 122q0 64 -71 123q-53 44 -194 153t-195 146q-45 -31 -70 -65.5t-25 -85.5q0 -27 15 -54.5t35.5 -48t52 -42.5t55 -35.5t55.5 -30.5t43 -23q23 -13 23 -37q0 -23 -23 -36q-11 -6 -43 -23t-55.5 -30.5
t-55 -35.5t-52 -42.5t-35.5 -48t-15 -54.5z" />
    <glyph glyph-name="uni00D7" unicode="&#xd7;" horiz-adv-x="1267" 
d="M133 895q0 127 66.5 210t191.5 83q35 0 68 -12t54 -24.5t51 -44t41.5 -46t43.5 -55.5q43 46 66 81.5t41 86.5q10 26 39 26q144 0 230.5 -74.5t86.5 -185.5q0 -75 -48 -138.5t-128 -125.5q26 -23 55 -40.5t48.5 -26.5t60.5 -25q23 -8 29 -22.5t6 -41.5q0 -60 -15.5 -110
t-41 -83t-59 -56t-69 -33.5t-71.5 -10.5q-25 0 -47 4t-43 14.5t-36 19.5t-35.5 28.5t-31.5 31t-34.5 38t-35.5 38.5q-88 -88 -108 -161q-6 -29 -37 -29q-78 0 -150.5 29t-123 90t-50.5 141q0 78 49 138.5t134 121.5q-94 86 -168 105q-14 4 -20.5 14.5t-7.5 19t-1 25.5z
M211 901q55 -19 101 -55t100 -90q12 -12 12 -29q0 -19 -14 -29q-18 -16 -58.5 -47.5t-62.5 -51.5t-42 -55t-20 -73q0 -74 69.5 -127t145.5 -53q15 37 43 75t47.5 58t57.5 57q13 13 28 13q14 0 31 -17q20 -20 54 -59.5t53 -59t53 -36.5t74 -17q68 0 121 54t53 130q0 17 -2 27
q-104 35 -201 135q-12 12 -12 29q0 18 14 29q7 5 33.5 26.5t36.5 30t32 28t31.5 33t22 33t17.5 39.5t5 41q0 83 -66.5 133.5t-148.5 50.5q-20 -53 -51.5 -94.5t-91.5 -103.5q-13 -13 -31 -13q-14 0 -29 15q-12 14 -37 46.5t-41.5 51t-41 41t-51 33t-56.5 10.5
q-79 0 -128.5 -56.5t-49.5 -152.5z" />
    <glyph glyph-name="uni00F7" unicode="&#xf7;" horiz-adv-x="1415" 
d="M102 682q0 96 67 159.5t179 63.5q69 0 242 -15.5t264 -15.5q188 0 320 56q12 4 16 4q14 0 24 -10q99 -86 99 -201q0 -96 -67 -159.5t-179 -63.5q-69 0 -242 15t-264 15q-189 0 -319 -55q-12 -4 -17 -4q-14 0 -24 10q-99 86 -99 201zM180 682q0 -79 53 -127q132 51 326 51
q91 0 263.5 -14t244.5 -14q47 0 82 13.5t52.5 36.5t25.5 46.5t8 48.5q0 79 -53 127q-132 -51 -326 -51q-91 0 -263.5 14t-244.5 14q-47 0 -82 -13.5t-52.5 -36.5t-25.5 -46.5t-8 -48.5zM485 217q0 92 76 149.5t174 57.5q81 0 137 -52.5t56 -133.5q0 -93 -74.5 -154
t-171.5 -61q-91 0 -144 52t-53 142zM485 1180q0 92 76 149t174 57q81 0 137 -52.5t56 -133.5q0 -93 -74.5 -154t-171.5 -61q-91 0 -144 52t-53 143zM563 217q0 -117 119 -117q61 0 114.5 36.5t53.5 101.5q0 49 -31 78.5t-84 29.5q-69 0 -120.5 -34.5t-51.5 -94.5zM563 1180
q0 -117 119 -117q61 0 114.5 36t53.5 101q0 50 -31.5 79.5t-83.5 29.5q-69 0 -120.5 -34.5t-51.5 -94.5z" />
    <glyph glyph-name="uni0401" unicode="&#x401;" horiz-adv-x="1388" 
d="M123 428q0 60 8.5 97t28.5 87q9 23 37 23q34 0 34 -35q0 -5 -15 -61.5t-15 -110.5q0 -78 30.5 -142.5t82 -108.5t120 -74t143 -44t152.5 -14q69 0 131 7t125.5 25.5t109 48t74.5 77.5t29 110q0 46 -19.5 83.5t-48.5 59t-54.5 33t-43.5 13.5q-13 -21 -36 -43.5t-59 -47.5
t-88 -41t-110 -16q-109 0 -183.5 62.5t-88.5 185.5q-31 7 -65.5 19.5t-84.5 43t-88.5 69.5t-66 103.5t-27.5 141.5q0 132 78.5 237.5t206 161.5t276.5 56q245 0 381.5 -93t136.5 -233q0 -99 -61.5 -164t-138.5 -65q-37 0 -37 36q0 29 45 41q56 13 85.5 53.5t29.5 98.5
t-32.5 104t-80.5 72t-110.5 43t-115.5 23t-102 6q-206 0 -344.5 -109.5t-138.5 -267.5q0 -59 22 -109t50.5 -80.5t68.5 -55.5t64.5 -34.5t50.5 -17.5q6 105 78 172.5t168 67.5q78 0 131 -49.5t53 -118.5q0 -20 -5.5 -41t-23.5 -45.5t-46 -43.5t-77.5 -31.5t-113.5 -12.5
q-43 0 -84 6q4 -27 15 -51t31.5 -49t57.5 -39.5t86 -14.5q76 0 140.5 32.5t95.5 94.5q14 21 35 21q30 0 64.5 -9.5t70.5 -31t65 -51.5t47.5 -76t18.5 -99q0 -165 -146.5 -255.5t-400.5 -90.5q-151 0 -269.5 38t-190.5 103.5t-109 146.5t-37 173zM279 1634q0 71 61.5 116.5
t157.5 45.5q66 0 106.5 -35t40.5 -92q0 -64 -62.5 -107.5t-154.5 -43.5q-69 0 -109 31t-40 85zM348 1636q0 -53 82 -53q61 0 104.5 24t43.5 62q0 30 -25 45t-59 15q-59 0 -102.5 -25.5t-43.5 -67.5zM543 1042q0 20 14.5 35t34.5 15t34.5 -15t14.5 -35t-14.5 -34.5
t-34.5 -14.5t-34.5 14.5t-14.5 34.5zM545 666q52 -9 88 -9q31 0 60.5 4t60 13.5t49 30t18.5 49.5q0 44 -31.5 67t-74.5 23q-68 0 -117 -48.5t-53 -129.5zM760 1634q0 79 66 120.5t153 41.5q63 0 105 -33.5t42 -93.5q0 -48 -34.5 -82.5t-82.5 -49.5t-100 -15q-63 0 -106 28.5
t-43 83.5zM764 1042q0 20 14.5 35t34.5 15t34.5 -15t14.5 -35t-14.5 -34.5t-34.5 -14.5t-34.5 14.5t-14.5 34.5zM829 1636q0 -53 82 -53q55 0 101.5 24t46.5 62q0 30 -25 45t-59 15q-59 0 -102.5 -25.5t-43.5 -67.5z" />
    <glyph glyph-name="uni0404" unicode="&#x404;" horiz-adv-x="1314" 
d="M92 844q0 163 82.5 296t228.5 209t326 76q79 0 163.5 -27t156 -74.5t117.5 -120.5t46 -156q0 -107 -66.5 -179.5t-158.5 -72.5q-39 0 -39 34q0 33 31 39q74 14 115 59t41 120q0 69 -41.5 128t-104 95.5t-131.5 57t-129 20.5q-105 0 -196.5 -29t-157 -78t-112.5 -114
t-70 -137t-23 -146q0 -187 166 -187q53 0 113 31q-3 18 -3 35q0 139 76.5 236.5t188.5 97.5q123 0 200 -92q9 -12 9 -27t-10.5 -26t-24.5 -11q-21 0 -31 14q-58 64 -143 64q-71 0 -127 -67.5t-60 -178.5q77 43 138 43q66 0 133 -41q18 -12 18 -35q0 -17 -10 -27.5t-27 -10.5
q-11 0 -20 6q-52 30 -97 30q-59 0 -129 -51q11 -105 71.5 -162t141.5 -57q105 0 218 113q18 18 51 18q17 0 40.5 -7.5t51.5 -26.5t51 -46.5t39 -72.5t16 -99q0 -83 -41 -151q-42 -69 -114.5 -114t-154 -64t-175.5 -19q-162 0 -298.5 67.5t-221.5 186.5q-46 64 -75.5 141
t-29.5 146q0 13 10.5 25t26.5 12q15 0 25 -10.5t12 -24.5q10 -86 50.5 -167t107 -148.5t169 -108.5t224.5 -41q71 0 138 13t130 42t101.5 84.5t38.5 130.5q0 64 -33.5 113.5t-91.5 58.5q-119 -129 -265 -129q-112 0 -188.5 71.5t-97.5 184.5q-57 -26 -121 -26
q-116 0 -180 71.5t-64 192.5z" />
    <glyph glyph-name="uni0406" unicode="&#x406;" horiz-adv-x="1228" 
d="M133 1161q0 102 72.5 172t183.5 70q80 0 190.5 -13.5t161.5 -13.5q126 0 195 39q9 6 22 6q17 0 27 -10q90 -90 90 -203q0 -62 -25 -121t-67 -94q-11 -8 -25 -8t-25 10t-11 25q0 21 12 33q63 63 63 155q0 77 -47 127q-75 -37 -209 -37q-61 0 -171 13.5t-181 13.5
q-50 0 -87 -17t-55.5 -44t-27 -53t-8.5 -50q0 -75 43 -121q57 17 74 17q64 0 106.5 -41.5t42.5 -126.5v-471q0 -39 -37 -39q-215 0 -215 -162q0 -47 16 -88t42 -61q98 34 196 34q77 0 164 -12t166 -12q98 0 153.5 44t55.5 122q0 79 -51 137q-38 -14 -78 -14q-59 0 -99 42.5
t-40 127.5v317q0 39 38 39q18 0 28.5 -10.5t10.5 -28.5v-317q0 -93 68 -93q25 0 50 12.5t36 12.5q30 0 72.5 -69.5t42.5 -155.5q0 -117 -81 -180.5t-206 -63.5q-85 0 -179 12.5t-151 12.5q-69 0 -134 -19.5t-69 -19.5q-38 0 -83.5 66t-45.5 165q0 63 24.5 111t63 74.5
t80.5 39.5t84 13v434q0 90 -71 90q-20 0 -44 -11.5t-34 -11.5q-44 0 -80.5 66.5t-36.5 138.5zM735 1012q0 23 15.5 39t37.5 16q23 0 39.5 -16t16.5 -39t-16.5 -39.5t-39.5 -16.5q-22 0 -37.5 16.5t-15.5 39.5z" />
    <glyph glyph-name="uni0407" unicode="&#x407;" horiz-adv-x="1228" 
d="M133 1161q0 -72 36.5 -138.5t80.5 -66.5q10 0 34 11.5t44 11.5q71 0 71 -90v-434q-42 0 -84 -13t-80.5 -39.5t-63 -74.5t-24.5 -111q0 -99 45.5 -165t83.5 -66q4 0 69 19.5t134 19.5q57 0 151 -12.5t179 -12.5q125 0 206 63.5t81 180.5q0 86 -42.5 155.5t-72.5 69.5
q-11 0 -36 -12.5t-50 -12.5q-68 0 -68 93v317q0 18 -10.5 28.5t-28.5 10.5q-38 0 -38 -39v-317q0 -85 40 -127.5t99 -42.5q40 0 78 14q51 -58 51 -137q0 -78 -55.5 -122t-153.5 -44q-79 0 -166 12t-164 12q-98 0 -196 -34q-26 20 -42 61t-16 88q0 162 215 162q37 0 37 39
v471q0 85 -42.5 126.5t-106.5 41.5q-17 0 -74 -17q-43 46 -43 121q0 24 8.5 50t27 53t55.5 44t87 17q71 0 181 -13.5t171 -13.5q134 0 209 37q25 -26 41.5 -64t16.5 -75q0 -94 -41 -143q-15 -15 -15 -33q0 -15 11.5 -25t25.5 -10q20 0 43 27q51 60 51 184q0 117 -98 215
q-10 10 -27 10q-13 0 -22 -6q-69 -39 -195 -39q-51 0 -161.5 13.5t-190.5 13.5q-111 0 -183.5 -70t-72.5 -172zM199 1634q0 79 66 120.5t153 41.5q63 0 105 -33.5t42 -93.5q0 -71 -67.5 -113.5t-149.5 -42.5q-63 0 -106 32t-43 89zM268 1636q0 -59 82 -59q57 0 102.5 26.5
t45.5 65.5q0 30 -25 45t-59 15q-59 0 -102.5 -25.5t-43.5 -67.5zM674 1001q0 -20 14 -34.5t33 -14.5q20 0 34.5 14.5t14.5 34.5t-14.5 35t-34.5 15q-19 0 -33 -15t-14 -35zM680 1634q0 79 66 120.5t153 41.5q63 0 105.5 -33.5t42.5 -93.5q0 -71 -68 -113.5t-150 -42.5
q-63 0 -106 32t-43 89zM750 1636q0 -59 81 -59q60 0 104 26.5t44 65.5q0 30 -25 45t-59 15q-59 0 -102 -25.5t-43 -67.5zM809 1001q0 -20 14 -34.5t33 -14.5q20 0 34.5 14.5t14.5 34.5t-14.5 35t-34.5 15q-19 0 -33 -15t-14 -35z" />
    <glyph glyph-name="uni040E" unicode="&#x40e;" horiz-adv-x="1460" 
d="M82 1233q0 -9 8 -25q27 -68 27 -229v-61q0 -81 10 -142.5t30.5 -102.5t38.5 -64.5t46 -49.5q13 -10 24 -10q16 0 28.5 12t12.5 29q0 16 -12 28q-50 45 -75 108t-25 192v59q0 168 -29 252q72 96 170 96q89 0 138.5 -44.5t49.5 -133.5v-244q0 -161 42 -237t130 -76
q55 0 89.5 25.5t48.5 52.5v-99q0 -39 -10 -70t-27.5 -49t-36.5 -30.5t-41 -17.5t-36 -7t-28 -2q-127 0 -235 105q-10 10 -29 10q-10 0 -18 -4q-62 -25 -106 -86.5t-44 -153.5q0 -160 142 -265t362 -105q98 0 187 25t166.5 79t134.5 132t89.5 190.5t32.5 248.5v547
q0 145 -70.5 216t-193.5 71q-43 0 -86.5 -14t-84.5 -42t-67 -78t-26 -114q0 -45 11 -87t40 -42q16 0 26.5 11.5t10.5 25.5q0 6 -5 33t-5 59q0 82 55 126t131 44q187 0 187 -209v-547q0 -277 -143.5 -437.5t-389.5 -160.5q-79 0 -154 19.5t-136.5 55.5t-98.5 92.5t-37 125.5
q0 61 25 101.5t59 58.5q121 -109 270 -109q43 0 85 13t82 40.5t64.5 79.5t24.5 121v328q0 15 -11 26t-28 11q-14 0 -24 -10.5t-12 -24.5q-7 -114 -45 -172.5t-95 -58.5q-28 0 -47.5 17.5t-29 51.5t-13.5 73.5t-4 92.5v244q0 123 -73.5 189.5t-192.5 66.5q-74 0 -140 -41.5
t-108 -110.5q-6 -9 -6 -18zM336 1716q0 83 53.5 131.5t106.5 48.5q12 0 21.5 -1.5t16 -4.5t11.5 -6t7.5 -6.5t4.5 -6t3 -5.5l1 -2q11 -41 60 -62.5t98 -21.5q47 0 95.5 21.5t59.5 62.5l1 2q1 3 3 5.5t5 6t8 6.5t11.5 6t16 4.5t21.5 1.5q53 0 106.5 -48.5t53.5 -131.5
q0 -38 -10.5 -74t-38 -73t-69.5 -64t-109.5 -44t-153.5 -17t-154 17t-110 44t-70 64t-38.5 73t-10.5 74zM414 1716q0 -86 77.5 -140t227.5 -54q149 0 226 54t77 140q0 36 -18.5 61.5t-35.5 33.5t-26 8q-20 -45 -79.5 -81t-143.5 -36q-85 0 -145 36t-80 81q-9 0 -26 -8
t-35.5 -33.5t-18.5 -61.5z" />
    <glyph glyph-name="uni0410" unicode="&#x410;" horiz-adv-x="1574" 
d="M72 295q0 19 16 31q93 62 155 229.5t62 343.5q0 66 -8.5 132t-17.5 108t-9 51q0 13 27 47q83 98 198 143t277 45q109 0 199 -37.5t151 -100t103 -145t61 -170.5t19 -179q0 -113 -60.5 -183.5t-138.5 -70.5q-158 0 -203 186q-10 -54 -32.5 -93.5t-49.5 -58t-50 -26.5
t-44 -8q-78 0 -129 67q-45 60 -45 166q0 73 27.5 143t83.5 119t127 49q58 0 106.5 -27t48.5 -57q0 -36 -35 -36q-12 0 -46 21.5t-74 21.5q-68 0 -114 -74t-46 -160q0 -23 3 -44.5t11.5 -49.5t29.5 -45t52 -17q32 0 58.5 28t43 70.5t25.5 82.5t12 73t33 33q28 0 35 -33
q5 -24 10.5 -47.5t20 -64t32 -69.5t46.5 -51t63 -22q46 0 83.5 49t37.5 128q0 150 -52 274.5t-157 202.5t-246 78q-294 0 -420 -168q11 -34 21 -119.5t10 -161.5q0 -115 -21.5 -228t-75.5 -223.5t-134 -173.5q14 -91 74 -143.5t151 -52.5q54 0 97.5 21.5t67 49t40 64
t21.5 57.5t7 37q2 15 13 26t26 11h281q14 0 26 -11t13 -24q0 -5 4 -25t19.5 -57t39.5 -69t69.5 -56t104.5 -24q93 0 158 54t80 144q-60 48 -104 123.5t-44 110.5q0 17 11 28t28 11q18 0 27 -12.5t25 -48t38 -66.5q49 -69 72 -88q27 -24 27 -35q0 -43 -18.5 -92t-54 -96.5
t-100 -79t-145.5 -31.5q-256 0 -309 266h-215q-21 -119 -96 -192.5t-213 -73.5q-60 0 -111.5 20t-85.5 52t-58 71.5t-35 78t-11 73.5z" />
    <glyph glyph-name="uni0411" unicode="&#x411;" horiz-adv-x="1392" 
d="M123 451v583q0 44 7 87t30 95.5t60 91.5t103.5 66t153.5 27q75 0 180 -11.5t156 -11.5q64 0 135.5 10t95.5 21q12 6 21 6t25 -8q29 -20 45.5 -33t41 -40.5t36.5 -63.5t12 -82q0 -112 -68.5 -186t-183.5 -74q-99 0 -212.5 15t-139.5 15q-70 0 -70 -55q0 -26 25 -49
t62 -39.5t81 -43t81 -57t62 -85t25 -123.5q0 -104 -54 -175t-145 -71q-92 0 -146.5 62.5t-54.5 156.5q0 59 28.5 130t57.5 71q19 0 29 -11.5t10 -21.5q0 -11 -23.5 -66.5t-23.5 -101.5q0 -66 33 -103.5t90 -37.5q54 0 87.5 46.5t33.5 121.5q0 51 -18.5 90t-48 63t-65.5 44
t-72 38t-65.5 38t-48 51.5t-18.5 72.5q0 15 3 30.5t13 34.5t25.5 33.5t43 24.5t63.5 10q29 0 141 -15t211 -15q89 0 131.5 54.5t42.5 127.5q0 31 -8 56t-23.5 42t-26.5 26t-28 19q-75 -31 -248 -31q-62 0 -166 11.5t-170 11.5q-73 0 -127 -23t-81.5 -54.5t-44 -75t-20 -74
t-3.5 -62.5v-583q0 -410 487 -410q92 0 167.5 15t127 39t90 59t61 70.5t36 78t18 77t4.5 71.5q0 119 -61.5 209t-120.5 112q-27 10 -27 39q0 17 10.5 26t26.5 9t45.5 -16.5t64.5 -51.5t66.5 -80.5t52.5 -111t21 -135.5q0 -236 -155 -362t-427 -126q-270 0 -417.5 123.5
t-147.5 364.5z" />
    <glyph glyph-name="uni0412" unicode="&#x412;" horiz-adv-x="1443" 
d="M123 1194q0 15 10 25q94 108 239 164.5t330 56.5q127 0 232.5 -33t172.5 -88.5t103.5 -124.5t36.5 -143q0 -173 -104 -252q81 -29 145 -123.5t64 -218.5q0 -223 -172 -355.5t-441 -132.5q-257 0 -413 107.5t-156 298.5q0 263 389 424v67q0 116 44 186t120 70
q55 0 97 -38.5t42 -102.5q0 -91 -94 -160q-44 -32 -131 -73v-187q0 -30 4.5 -58.5t15.5 -60.5t36 -51.5t61 -19.5q45 0 74 30.5t37.5 62.5t8.5 62q0 51 -29 89t-65 38q-12 0 -26.5 -6t-22.5 -6q-14 0 -26.5 11t-12.5 28q0 20 21.5 35.5t66.5 15.5q62 0 117 -56t55 -149
q0 -101 -56 -167t-142 -66q-57 0 -98 27.5t-60.5 71.5t-28 85.5t-8.5 83.5v152q-65 -30 -112.5 -58.5t-96.5 -69.5t-75.5 -94.5t-26.5 -115.5q0 -76 31 -135t79.5 -94.5t115.5 -58.5t131 -31.5t134 -8.5q238 0 386.5 111t148.5 299q0 57 -17.5 107t-41.5 81.5t-53.5 56.5
t-49 36t-33.5 16q-26 7 -26 34q0 22 16 33q100 72 100 230q0 125 -125.5 218t-341.5 93q-323 0 -491 -174q51 -91 51 -234v-213q0 -15 -12 -27t-27 -12q-17 0 -28 11.5t-11 27.5v213q0 64 -14.5 123.5t-38.5 93.5q-8 8 -8 23zM637 834q75 40 111 72t36 75q0 26 -14 41.5
t-26 18.5t-21 3q-86 0 -86 -210z" />
    <glyph glyph-name="uni0413" unicode="&#x413;" horiz-adv-x="1277" 
d="M133 1247q0 17 14 31q134 123 338 123q66 0 176.5 -14.5t172.5 -14.5q102 0 239 39q6 2 14 2q7 0 15 -4q52 -21 98.5 -80.5t46.5 -157.5q0 -125 -81 -200.5t-208 -75.5q-64 0 -112 -16.5t-76 -43t-49 -58t-38.5 -63.5t-38 -58.5t-53 -43t-77.5 -16.5q-70 0 -115 44.5
t-45 113.5q0 46 18 85t44 65t52 49t44 48.5t18 51.5q0 63 -77 63q-100 0 -150.5 -84t-50.5 -209v-512q0 -60 17 -105t41 -68.5t57 -38t57 -18t49 -3.5q81 0 140.5 40.5t74.5 88.5q-55 89 -55 246v61q0 16 11 27.5t28 11.5q15 0 27 -12t12 -27v-61q0 -76 16 -132.5t35 -84.5
q8 -12 8 -25q0 -6 -4 -18q-25 -89 -109.5 -141t-183.5 -52q-136 0 -217.5 85t-81.5 226v512q0 157 73 264t206 107q68 0 111.5 -37.5t43.5 -103.5q0 -41 -18 -74.5t-44 -57.5t-52 -47t-44 -53.5t-18 -66.5q0 -38 22 -59t60 -21q29 0 51.5 16.5t38.5 43t33 58t42 63.5
t59 58.5t90.5 43t129.5 16.5q97 0 154 53t57 145q0 65 -28.5 106t-57.5 54q-134 -39 -245 -39q-64 0 -175.5 15.5t-177.5 15.5q-170 0 -286 -104q-15 -11 -27 -11q-17 0 -28 11.5t-11 27.5z" />
    <glyph glyph-name="uni0414" unicode="&#x414;" horiz-adv-x="1648" 
d="M51 96q0 95 29 221q3 17 20 27q42 19 67.5 33.5t55 43t45.5 64t26.5 92.5t10.5 134q0 17 11 28t28 11q16 0 27.5 -11t11.5 -28q0 -169 -51 -270t-180 -160q-23 -103 -23 -181q0 -58 11 -109.5t34.5 -97.5t66.5 -73t101 -27q104 0 166 47q-29 88 -29 201q0 15 12 27t27 12
h584q36 0 39 -37q18 -250 207 -250q105 0 186 51q-3 3 -10.5 47t-16 118t-14.5 147q-7 91 -44.5 126t-102.5 46q-33 7 -33 34q0 6 1 14l1 9q18 126 18 238q0 119 -20 223t-64.5 195t-111 155.5t-166 101.5t-223.5 37q-47 0 -95.5 -5.5t-108 -21.5t-104.5 -42t-75.5 -71.5
t-30.5 -104.5q0 -44 18.5 -93t42.5 -73q129 135 310 135q85 0 149 -41t99 -108t52 -140.5t17 -151.5q0 -100 -21 -179t-72 -131t-126 -52q-95 0 -147 75t-52 179q0 102 60.5 178t154.5 76q45 0 45 -39t-45 -39q-57 0 -97 -49t-40 -127q0 -73 30 -124.5t91 -51.5q38 0 66 24
t42.5 65.5t21.5 89t7 103.5q0 94 -26.5 176t-81.5 135.5t-127 53.5q-78 0 -150 -35.5t-127 -99.5q-15 -15 -31 -15q-9 0 -20 7q-53 37 -87 110t-34 142q0 55 18 101t47.5 78.5t70.5 58t85 41.5t93.5 26t92.5 14t85 4q135 0 246 -43t187 -117t128 -175.5t76 -216t24 -240.5
q0 -118 -14 -224q80 -19 126 -76t52 -147q7 -123 10 -162t10.5 -83t20.5 -85q4 -12 4 -18q0 -15 -14 -29q-55 -41 -124.5 -61.5t-131.5 -20.5q-128 1 -209 80.5t-92 206.5h-490q4 -89 29 -149q6 -12 6 -25q0 -17 -12 -29q-87 -84 -238 -84q-75 0 -132.5 31.5t-91 86
t-50.5 121t-17 142.5z" />
    <glyph glyph-name="uni0415" unicode="&#x415;" horiz-adv-x="1394" 
d="M123 461q0 92 35 172q10 24 37 24q16 0 25 -11.5t9 -27.5q0 -7 -14 -51t-14 -106q0 -94 46 -173.5t122 -130.5t170.5 -79.5t193.5 -28.5q85 0 161.5 12.5t149.5 41t116.5 85.5t43.5 136t-49.5 128t-120.5 64q-106 -145 -284 -145q-68 0 -130 30t-108 93.5t-57 148.5
q-133 24 -224.5 117.5t-91.5 220.5q0 105 49 192.5t128.5 143t178 85.5t201.5 30q71 0 139 -10t136.5 -34t119.5 -60t83 -93.5t32 -128.5q0 -92 -51.5 -166t-112.5 -74q-15 0 -24.5 10t-9.5 27q0 21 24 33q96 50 96 170q0 71 -41 122t-109.5 77t-138 37.5t-143.5 11.5
q-121 0 -228.5 -43t-179 -130t-71.5 -200q0 -93 67.5 -163.5t168.5 -94.5q6 135 78 223t178 88q85 0 144.5 -52.5t59.5 -135.5q0 -71 -47 -123t-113.5 -75t-138.5 -23q-27 0 -77 4q18 -85 78 -132.5t135 -47.5q148 0 231 129q11 18 33 18q106 0 187 -82.5t81 -189.5
q0 -79 -33.5 -141t-87.5 -101t-127 -64.5t-147.5 -36t-153.5 -10.5q-115 0 -224 34.5t-195 95.5t-138.5 155t-52.5 205zM528 709q51 -7 86 -7q95 0 158.5 41t63.5 103q0 53 -38 81.5t-89 28.5q-56 0 -99 -38.5t-62.5 -93.5t-19.5 -115z" />
    <glyph glyph-name="uni0416" unicode="&#x416;" horiz-adv-x="2101" 
d="M102 324q0 46 15 90q6 23 33 26q81 9 150 57t159 158q-138 322 -301 367q-22 6 -29 31q-4 18 -4 55q0 122 80 208.5t203 86.5q69 0 123.5 -24t88.5 -64t64 -93t50 -109t45.5 -114.5t51.5 -108t68.5 -90t95.5 -59.5v177q0 15 12 26.5t27 11.5q17 0 28 -11.5t11 -26.5v-177
q53 0 97 53.5t47 125.5q0 17 11 26.5t29 9.5q16 0 26.5 -12.5t10.5 -28.5q-2 -70 -37.5 -135t-101.5 -92l4 21q50 -19 93 -64t73.5 -101.5t59.5 -121t58.5 -125t63 -110t81 -79.5t104.5 -30q98 0 163.5 68t65.5 165q0 27 -6 54q-81 17 -157.5 73.5t-131.5 127.5t-98 155
q-10 20 -10 29q0 12 8 24q13 23 19.5 34t26 41t35.5 49.5t44 48t56 49t66.5 41t79.5 34.5q5 35 5 45q0 92 -59.5 150.5t-158.5 58.5q-47 0 -90 -15.5t-73 -36t-64 -58.5t-52.5 -63t-49.5 -71q-13 -18 -37 -18q-20 0 -32.5 12t-14.5 31q-3 38 -14.5 72t-34 69.5t-65.5 56.5
t-101 21q-97 0 -197 -72q-11 -8 -24 -8q-15 0 -26 12t-11 27q0 18 16 31q116 88 242 88q107 0 180.5 -63.5t91.5 -165.5q70 102 155.5 165.5t200.5 63.5q132 0 213.5 -82t81.5 -207q0 -34 -10 -82q-6 -21 -29 -28q-180 -50 -297 -256q60 -114 157.5 -208.5t195.5 -101.5
q29 -4 35 -28q12 -46 12 -91q0 -132 -85.5 -225.5t-221.5 -93.5q-75 0 -135 34.5t-100.5 90.5t-75 124t-65.5 137.5t-63.5 128t-78 99.5t-101.5 48v-175q0 -15 -11 -26.5t-28 -11.5q-15 0 -27 11.5t-12 26.5v175q-35 -6 -62.5 -27t-44 -50.5t-26 -54.5t-14.5 -51
q-7 -30 -37 -30q-18 0 -28.5 11t-10.5 29q0 65 45.5 132t97.5 88l39 -27q-60 19 -108 65.5t-79 104t-58 123.5t-54 127.5t-59 111.5t-79.5 80.5t-108.5 30.5q-86 0 -146.5 -63t-60.5 -148q0 -19 2 -27q54 -13 108 -60.5t98.5 -115t74.5 -124t55 -115.5q4 -8 4 -19
q0 -18 -8 -26q-95 -120 -166.5 -176.5t-184.5 -83.5q-6 -24 -6 -48q0 -92 70 -166.5t158 -74.5q52 0 93.5 13t83 45.5t76.5 72t89 108.5q14 21 36 21q33 0 39 -37q13 -56 38 -99t51.5 -66t58 -36.5t53 -17.5t41.5 -4q65 0 114 17.5t101 56.5q10 10 27 10q36 0 36 -37
q0 -22 -16 -35q-60 -47 -121 -68.5t-141 -21.5q-103 0 -186 62.5t-109 166.5q-152 -229 -364 -229q-124 0 -214 99.5t-90 224.5z" />
    <glyph glyph-name="uni0417" unicode="&#x417;" horiz-adv-x="1411" 
d="M102 291q0 123 73 203.5t169 80.5q92 0 92 -51q0 -17 -10.5 -26t-26.5 -9q-7 0 -21.5 4.5t-29.5 4.5q-64 0 -116 -54.5t-52 -152.5q0 -51 17.5 -105t58 -107.5t97.5 -95.5t143.5 -68t189.5 -26q97 0 183 24.5t147 66t105.5 95t66.5 111.5t22 115q0 236 -297 240
q7 -40 7 -68q0 -140 -64 -233t-174 -93q-78 0 -137.5 52t-59.5 141q0 113 91.5 184.5t234.5 89.5q-41 95 -137 103q-16 2 -26.5 11.5t-10.5 23.5q0 27 29 36q110 32 110 132q0 37 -23 63.5t-71 26.5q-49 0 -81 -30t-42 -73q-3 -16 -12 -22q-61 -45 -154 -45q-89 0 -153 55.5
t-64 167.5q0 151 139.5 255.5t366.5 104.5q133 0 240.5 -37.5t175 -100.5t103.5 -143t36 -169q0 -150 -78 -264q-11 -17 -33 -17q-16 0 -26 11.5t-10 27.5q0 12 6 21q63 94 63 221q0 168 -131 270.5t-346 102.5q-186 0 -307 -80t-121 -203q0 -77 41 -112.5t98 -35.5
q64 0 94 23q5 18 17 40t34 48.5t60 43.5t84 17q60 0 101 -28t56 -64t15 -75q0 -61 -36.5 -105.5t-61.5 -52.5q43 -14 84 -60.5t53 -83.5q195 0 295 -80.5t100 -236.5q0 -61 -21.5 -126t-70 -130.5t-116.5 -117t-172 -83.5t-226 -32q-134 0 -246.5 42t-183.5 110.5
t-110.5 153t-39.5 173.5zM563 340q0 -54 35.5 -84.5t83.5 -30.5q55 0 92.5 39.5t52.5 93.5t15 115q0 31 -6 66q-116 -11 -194.5 -63t-78.5 -136z" />
    <glyph glyph-name="uni0418" unicode="&#x418;" horiz-adv-x="1613" 
d="M133 1190q0 70 84.5 140.5t183.5 70.5q113 0 187 -72.5t74 -212.5q0 -115 -13 -268l-10 47q51 99 125.5 198t117.5 145t54 54q13 13 29 13q18 0 27 -10t9 -25v-475q0 -16 -10.5 -27.5t-27.5 -11.5q-15 0 -27 12t-12 27v450l10 -65q-179 -200 -277 -402q-9 -20 -34 -20
q-16 0 -27.5 10t-11.5 27v321q0 207 -183 207q-76 0 -123.5 -40t-64.5 -89q45 -77 45 -254v-606q0 -63 16 -111t39.5 -75t56.5 -43.5t61 -21.5t58 -5q76 0 134 37q1 104 40 207t105 180q55 63 112 100t83 37q19 0 28.5 -12.5t9.5 -26.5v-317q0 -61 18 -103.5t49 -63.5
t63 -29.5t71 -8.5q77 0 129 39t70 88q-45 80 -45 254v682q0 57 -19.5 96.5t-51 56.5t-56.5 23t-51 6q-19 0 -40 -5t-32 -5q-35 0 -35 37q0 27 32 39t75 12q125 0 190.5 -74t65.5 -186v-682q0 -167 41 -226q6 -9 6 -18q0 -25 -18.5 -60t-51.5 -70.5t-88.5 -60t-120.5 -24.5
q-121 0 -199.5 71t-78.5 212v256q-100 -68 -162 -186.5t-62 -260.5q0 -21 -16 -31q-86 -61 -195 -61q-141 0 -225 85.5t-84 248.5v606q0 170 -41 225q-6 12 -6 25z" />
    <glyph glyph-name="uni0419" unicode="&#x419;" horiz-adv-x="1613" 
d="M133 1190q0 70 84.5 140.5t183.5 70.5q113 0 187 -72.5t74 -212.5q0 -115 -13 -268l-10 47q51 99 125.5 198t117.5 145t54 54q13 13 29 13q18 0 27 -10t9 -25v-475q0 -16 -10.5 -27.5t-27.5 -11.5q-15 0 -27 12t-12 27v450l10 -65q-179 -200 -277 -402q-9 -20 -34 -20
q-16 0 -27.5 10t-11.5 27v321q0 207 -183 207q-76 0 -123.5 -40t-64.5 -89q45 -77 45 -254v-606q0 -63 16 -111t39.5 -75t56.5 -43.5t61 -21.5t58 -5q76 0 134 37q1 104 40 207t105 180q55 63 112 100t83 37q19 0 28.5 -12.5t9.5 -26.5v-317q0 -61 18 -103.5t49 -63.5
t63 -29.5t71 -8.5q77 0 129 39t70 88q-45 80 -45 254v682q0 57 -19.5 96.5t-51 56.5t-56.5 23t-51 6q-19 0 -40 -5t-32 -5q-35 0 -35 37q0 27 32 39t75 12q125 0 190.5 -74t65.5 -186v-682q0 -167 41 -226q6 -9 6 -18q0 -25 -18.5 -60t-51.5 -70.5t-88.5 -60t-120.5 -24.5
q-121 0 -199.5 71t-78.5 212v256q-100 -68 -162 -186.5t-62 -260.5q0 -21 -16 -31q-86 -61 -195 -61q-141 0 -225 85.5t-84 248.5v606q0 170 -41 225q-6 12 -6 25zM420 1716q0 83 53.5 131.5t106.5 48.5q12 0 21.5 -1.5t16 -4.5t11.5 -6t7.5 -6.5t4.5 -6t3 -5.5l1 -2
q11 -41 60 -62.5t98 -21.5q47 0 95.5 21.5t59.5 62.5l1 2q1 3 3 5.5t5 6t8 6.5t11.5 6t16 4.5t21.5 1.5q53 0 106.5 -48.5t53.5 -131.5q0 -38 -10.5 -74t-38 -73t-69.5 -64t-109.5 -44t-153.5 -17t-154 17t-110 44t-70 64t-38.5 73t-10.5 74zM498 1716q0 -86 77.5 -140
t227.5 -54q149 0 226 54t77 140q0 36 -18.5 61.5t-35.5 33.5t-26 8q-20 -45 -79.5 -81t-143.5 -36q-85 0 -145 36t-80 81q-9 0 -26 -8t-35.5 -33.5t-18.5 -61.5z" />
    <glyph glyph-name="uni041A" unicode="&#x41a;" horiz-adv-x="1607" 
d="M133 1239q0 11 8 23q98 141 267 141q134 0 205 -81t71 -222v-182q92 12 153.5 77.5t61.5 153.5q0 60 -12 100q-4 12 -4 17q0 7 8 18q45 61 103.5 90t144.5 29q120 0 192 -78.5t72 -200.5q0 -128 -69 -241t-165 -197q112 -224 301 -262q14 -3 24.5 -15.5t10.5 -25.5
q0 -168 -83 -275.5t-244 -107.5q-62 0 -112.5 22.5t-84 58.5t-61 79.5t-49 87t-41.5 79.5t-44.5 58.5t-52.5 22.5h-49v-162q0 -17 -11 -28t-28 -11q-18 0 -28.5 10.5t-10.5 28.5v416q0 18 13 28t26 10q16 0 27.5 -10.5t11.5 -27.5v-177h47q58 0 88.5 53t30.5 124
q0 17 11.5 27.5t27.5 10.5q17 0 28 -10.5t11 -27.5q0 -75 -26.5 -139.5t-76.5 -80.5q25 -8 46.5 -32.5t38.5 -57t34.5 -70t39 -73.5t47 -65.5t63.5 -47.5t84 -18q116 0 184 82.5t68 191.5q-54 8 -110.5 45t-100.5 87.5t-77.5 100.5t-54.5 95q-4 12 -4 16q0 19 15 31
q94 78 160.5 180.5t66.5 216.5q0 92 -50.5 146.5t-135.5 54.5q-56 0 -94 -15.5t-78 -49.5q12 -41 12 -115q0 -127 -102 -218t-232 -91q-18 0 -27 12q-12 9 -12 26v226q0 225 -198 225q-113 0 -191 -92q39 -110 39 -352v-594q0 -61 18 -104t48.5 -64.5t63 -31t69.5 -9.5
q94 0 174 39q12 4 16 4q17 0 28 -11t11 -28q0 -26 -22 -35q-96 -47 -207 -47q-129 0 -203 76t-74 211v594q0 230 -41 344q-4 8 -4 14z" />
    <glyph glyph-name="uni041B" unicode="&#x41b;" horiz-adv-x="1497" 
d="M72 281q0 14 14 28q59 51 104.5 129t70.5 153.5t54 154t57 137t78.5 96t118.5 37.5q45 0 81.5 -16t63.5 -50t47.5 -71.5t37.5 -97t28 -108.5t25 -122q10 -52 19.5 -94t27 -101.5t40 -104t52.5 -86.5t70.5 -64.5t87.5 -22.5q90 0 149 50t78 140q-43 38 -80.5 98.5
t-69.5 141.5t-54.5 148t-52.5 165.5t-46 145.5q-134 391 -426 391q-134 0 -217.5 -66.5t-83.5 -161.5q0 -47 9.5 -77.5t9.5 -40.5q0 -14 -9.5 -24.5t-25.5 -10.5q-19 0 -32.5 16t-19.5 42.5t-8 48.5t-2 44q0 125 104.5 216.5t274.5 91.5q82 0 154.5 -27.5t124.5 -70.5
t96.5 -103.5t73 -119t51.5 -124.5q16 -48 53.5 -172t63 -199t73 -164.5t101.5 -136.5q18 -15 18 -32q0 -28 -9.5 -63t-33 -75t-57 -73t-88 -54.5t-119.5 -21.5q-56 0 -105 23t-84 58.5t-65.5 89t-49.5 103.5t-36 114.5t-25.5 109.5t-17.5 100q-65 -269 -127 -365
q-10 -16 -35 -16q-15 0 -26 12t-11 27q0 11 6 20q52 79 95.5 223t54.5 253q-28 91 -63 138.5t-91 47.5t-91 -38t-59.5 -108t-50.5 -150.5t-81 -184.5t-133 -191q7 -33 20 -63t35.5 -60t61 -47.5t87.5 -17.5q81 0 152 65q13 13 29 13q15 0 25.5 -12t10.5 -27q0 -17 -12 -29
q-91 -88 -209 -88q-60 0 -110 23t-81 57t-52.5 74t-30 72.5t-8.5 54.5z" />
    <glyph glyph-name="uni041C" unicode="&#x41c;" horiz-adv-x="1771" 
d="M133 1227q0 14 4 22q32 72 96.5 112t141.5 40q51 0 100 -16.5t87.5 -41t77.5 -62.5t66.5 -72t57 -79.5t45.5 -74.5t36.5 -68t26.5 -49q13 19 39 60t46.5 72.5t52.5 75.5t59.5 77t64.5 68t71.5 58t75.5 37.5t81 14.5q55 0 97.5 -18t66 -45.5t38.5 -65t20 -70.5t5 -69v-674
q0 -167 41 -226q8 -12 8 -20q0 -14 -9 -38t-31.5 -54.5t-53 -57t-80 -45t-106.5 -18.5q-31 0 -62.5 5t-72 23.5t-70.5 47.5t-51 82.5t-21 124.5v280q-124 -124 -176 -309q-12 -29 -39 -29q-30 0 -37 31q-55 216 -139 309v-33q0 -187 -53 -299q-9 -22 -35 -22q-19 0 -29 10
t-10 25q0 14 8 30q43 118 43 273q0 26 -4 76q-44 18 -96 18q-88 0 -154 -43.5t-97.5 -108.5t-31.5 -139q0 -129 61 -201.5t169 -72.5q73 0 125 41q12 8 24 8q13 0 26 -10t13 -27q0 -20 -16 -33q-72 -57 -172 -57q-140 0 -223.5 95.5t-83.5 256.5q0 67 23.5 131.5t67 118
t113.5 86.5t156 33q75 0 137.5 -31t105.5 -84.5t71 -116t42 -133.5q14 59 44 114t56 88t63.5 66t45.5 38.5t23 15.5q8 4 18 4q14 0 26.5 -10t12.5 -29v-360q0 -61 18 -103.5t48.5 -63.5t62.5 -29.5t70 -8.5q77 0 128.5 39.5t69.5 89.5q-45 77 -45 252v674q0 190 -149 190
q-30 0 -60.5 -11.5t-58 -29.5t-61.5 -54t-61 -68.5t-68 -91.5t-71.5 -105t-82.5 -125q-9 -19 -35 -19q-22 0 -33 23q-7 13 -27 53.5t-36 71t-43.5 77.5t-53 82t-61 74.5t-70 64.5t-78 41.5t-87.5 16.5q-45 0 -91.5 -24.5t-70.5 -65.5q24 -61 34.5 -135.5t12.5 -137.5t2 -204
q0 -17 -11 -28t-28 -11q-16 0 -27.5 11t-11.5 28q0 128 -1.5 186.5t-12 130t-31.5 125.5q-6 24 -6 29z" />
    <glyph glyph-name="uni041D" unicode="&#x41d;" horiz-adv-x="1640" 
d="M133 1190q0 12 8.5 35.5t30.5 54t52.5 57.5t80.5 45.5t109 18.5q67 0 119 -20.5t80.5 -50t47 -70t24 -74t5.5 -68.5v-221q45 -20 98 -20q41 0 72 11t47.5 26t27 36t13 36.5t2.5 31.5q0 32 -7 61t-14 46t-22 46q-6 9 -6 17q0 15 9.5 39.5t32 55t53.5 56.5t80 44t106 18
q138 0 207 -80t69 -203v-657q0 -167 43 -225q6 -9 6 -23q0 -15 -9.5 -39t-31.5 -54.5t-53 -57t-80 -44.5t-106 -18q-122 0 -199.5 70.5t-77.5 214.5v188q-8 -11 -21.5 -22t-48.5 -24t-79 -13q-55 0 -111 16v-164q0 -17 -11.5 -28t-27.5 -11q-17 0 -28 11t-11 28v398
q0 17 11 27.5t28 10.5q16 0 27.5 -10.5t11.5 -27.5v-150q52 -22 111 -22q149 0 149 172q0 17 11.5 27.5t27.5 10.5q17 0 28 -10.5t11 -27.5v-379q0 -61 18 -103.5t48.5 -64t62.5 -30.5t70 -9q77 0 128.5 39.5t69.5 89.5q-45 77 -45 254v657q0 61 -17.5 103.5t-48.5 63.5
t-62.5 29.5t-69.5 8.5q-79 0 -130 -39t-69 -90q45 -81 45 -176q0 -28 -6.5 -56t-24 -58t-43.5 -53t-69 -37.5t-97 -14.5q-75 0 -155 41q-21 10 -21 34v244q0 61 -17.5 103.5t-48.5 63.5t-62.5 29.5t-69.5 8.5q-77 0 -129 -39t-70 -88q45 -80 45 -254v-657q0 -61 18 -103.5
t48.5 -64t62.5 -30.5t70 -9q41 0 83 14.5t60 25t29 19.5q11 8 24 8q14 0 25.5 -10.5t11.5 -25.5q0 -21 -14 -35q-7 -7 -30 -21.5t-78 -33.5t-111 -19q-123 0 -200 72.5t-77 212.5v657q0 166 -41 225q-8 8 -8 23z" />
    <glyph glyph-name="uni041E" unicode="&#x41e;" horiz-adv-x="1505" 
d="M92 688q0 212 81 379t233 262.5t350 95.5q105 0 202.5 -35.5t167.5 -93.5t112 -133.5t42 -152.5q0 -71 -29 -128.5t-74 -91t-92.5 -51.5t-89.5 -18h-16l12 65q10 -45 10 -90q0 -166 -68.5 -267t-180.5 -101q-63 0 -114 33.5t-81.5 88t-46.5 119t-16 131.5q0 187 106 340
q14 17 31 17t28 -11t11 -26q0 -16 -6 -25q-93 -136 -93 -295q0 -127 51.5 -210.5t129.5 -83.5q57 0 97 43t57.5 107t17.5 140q0 44 -9 97l39 -70q-110 8 -176.5 71t-66.5 132q0 64 36 92.5t78 28.5q45 0 79 -32.5t51.5 -82t25 -80.5t10.5 -55q91 3 151 63.5t60 149.5
q0 59 -34.5 119.5t-92.5 109t-142.5 79t-176.5 30.5q-263 0 -424.5 -182t-161.5 -478q0 -122 33 -226.5t89.5 -178t131.5 -126t159.5 -77.5t172.5 -25q85 0 168 23.5t157.5 72t131 117t89.5 164.5t33 207q0 54 -9 109.5t-15 70.5q-4 12 -4 19q0 15 11.5 24.5t27.5 9.5
q27 0 36 -24q10 -27 20.5 -86.5t10.5 -122.5q0 -184 -84 -335t-235 -239t-338 -88q-135 0 -256.5 51t-211.5 142t-143 225.5t-53 292.5zM784 928q0 -35 33 -73t98 -54q-1 14 -8 41t-18 57t-29 52t-37 22t-29 -13t-10 -32z" />
    <glyph glyph-name="uni041F" unicode="&#x41f;" horiz-adv-x="1646" 
d="M123 307q0 22 18 33q197 124 197 416q0 141 -64 141q-15 0 -36 -8t-29 -8q-28 0 -37 22q-37 78 -37 160q0 142 102.5 241t274.5 99q117 0 277 -19.5t225 -19.5q102 0 169 8.5t154 40.5q8 4 19 4q6 0 18 -4q69 -35 109.5 -111t40.5 -167q0 -79 -31.5 -144.5t-85.5 -97.5
q0 -177 5.5 -289t19 -174t24.5 -86t35 -57q16 -22 16 -37q0 -13 -6 -38t-25.5 -63t-49.5 -70t-85 -55.5t-124 -23.5q-116 0 -190.5 75.5t-74.5 233.5v539q0 30 -7.5 50.5t-19 29t-20 11.5t-16.5 3q-48 0 -85.5 -57t-56 -142.5t-18.5 -179.5q0 -33 -37 -33q-16 0 -27.5 11
t-11.5 28v160q0 100 -4 142t-22 96q-4 8 -4 20q0 15 11 26t28 11q27 0 36 -25q20 -57 25 -104q29 60 72.5 92.5t93.5 32.5q68 0 104.5 -47.5t36.5 -124.5v-539q0 -47 7.5 -84.5t26.5 -72.5t57.5 -54.5t95.5 -19.5q55 0 97 18t64.5 46.5t33 51.5t15.5 46q-27 38 -41.5 70
t-29.5 102.5t-21 192t-6 310.5q0 30 25 39q41 17 66.5 67t25.5 114q0 58 -22.5 114t-69.5 86q-60 -23 -120 -34.5t-100 -13t-120 -1.5q-72 0 -233.5 19.5t-268.5 19.5q-78 0 -144.5 -28t-110.5 -89t-44 -145q0 -44 16 -94q24 6 43 6q53 0 87 -35t45.5 -81t11.5 -103
q0 -89 -17 -165t-39.5 -122.5t-56.5 -88t-53.5 -58t-46.5 -35.5q7 -85 60 -147t140 -62q81 0 139.5 46.5t84.5 117.5t26 157q0 17 11 28t28 11q16 0 27.5 -11t11.5 -28q0 -57 -11 -111.5t-36 -107.5t-62 -92.5t-93.5 -63.5t-125.5 -24q-118 0 -199 87.5t-81 219.5z" />
    <glyph glyph-name="uni0420" unicode="&#x420;" 
d="M123 1026q0 129 88 223.5t223.5 139.5t296.5 45q277 0 452 -164.5t175 -431.5q0 -137 -41 -246t-108.5 -174.5t-149 -100t-168.5 -34.5q-73 0 -129 18q-27 9 -27 37q0 15 10 27t25 12q9 0 41.5 -8.5t79.5 -8.5q75 0 143.5 29.5t124 86t88.5 150t33 212.5
q0 229 -150.5 373.5t-398.5 144.5q-96 0 -187 -19.5t-169.5 -58t-126 -104t-47.5 -148.5q0 -58 25.5 -119.5t71 -116t117 -94t154.5 -49.5v197q0 15 12 27t27 12q17 0 28 -11.5t11 -27.5v-199q33 1 63 4.5t66.5 15t62.5 30.5t44 53t18 79q0 71 -49 116.5t-125 45.5
q-45 0 -78 -11.5t-52 -22.5t-28 -11q-17 0 -28 10t-11 27q0 22 17 33q80 53 180 53q117 0 184.5 -72t67.5 -168q0 -53 -16.5 -95.5t-45 -70t-61.5 -46.5t-73 -29t-72 -14t-64 -5v-84q0 -185 41 -247q8 -11 8 -23q0 -15 -15 -47t-45 -70.5t-88.5 -67t-131.5 -28.5
q-64 0 -113.5 18t-79.5 46.5t-49.5 67.5t-27 76t-7.5 77v362q0 17 11.5 28t27.5 11q17 0 28 -11t11 -28v-362q0 -61 18 -103.5t48.5 -64t62.5 -30.5t70 -9q77 0 128.5 39.5t69.5 89.5q-45 85 -45 276v86q-185 22 -315.5 154.5t-130.5 302.5z" />
    <glyph glyph-name="uni0421" unicode="&#x421;" horiz-adv-x="1388" 
d="M92 692q0 205 84.5 369.5t242 260t361.5 95.5q82 0 165 -24.5t153 -69.5t113.5 -115.5t43.5 -154.5q0 -109 -62 -187t-138 -78q-16 0 -28.5 10t-12.5 25q0 30 35 39q52 15 90.5 64.5t38.5 126.5q0 89 -65.5 156.5t-154 98.5t-178.5 31q-177 0 -316 -82t-216.5 -229.5
t-77.5 -335.5q0 -290 164.5 -463.5t441.5 -173.5q82 0 156 15.5t137.5 47t101 87t37.5 129.5q0 64 -41 107.5t-100 54.5q-39 -60 -113 -97t-149 -37q-145 0 -227 98t-82 249q0 93 33 174t102 133.5t160 52.5q83 0 127.5 -44.5t44.5 -104.5q0 -59 -40.5 -101.5t-99.5 -42.5
q-46 0 -83.5 24t-37.5 50q0 15 11 26t26 11q14 0 25 -8q37 -25 59 -25q25 0 43.5 17.5t18.5 48.5q0 30 -22.5 50.5t-71.5 20.5q-95 0 -156.5 -79.5t-61.5 -202.5q0 -126 61.5 -197.5t170.5 -71.5q134 0 211 117q12 18 37 18q79 0 156 -67.5t77 -173.5q0 -95 -45 -166.5
t-120.5 -111.5t-162 -59.5t-182.5 -19.5q-202 0 -358 91.5t-241 254t-85 369.5z" />
    <glyph glyph-name="uni0422" unicode="&#x422;" horiz-adv-x="1923" 
d="M123 1083q0 46 11.5 89.5t40 86t71.5 74t110 51t150 19.5q115 0 338.5 -26.5t333.5 -26.5q265 0 426 67q8 4 16 4q9 0 28.5 -12.5t45 -38.5t48.5 -61t38.5 -86t15.5 -107q0 -57 -15.5 -105t-40.5 -78t-45 -46.5t-40 -26.5q2 -234 27 -375t108 -235q10 -10 10 -27
q0 -12 -9.5 -36t-31.5 -56.5t-52.5 -61.5t-78.5 -49t-104 -20q-85 0 -146.5 30t-97 86t-52 126t-16.5 159v424q0 62 -43 62q-52 0 -91.5 -89.5t-59.5 -265.5q-2 -15 -12 -24.5t-25 -9.5q-17 0 -28 11t-11 28v276q0 16 -1 26.5t-5 23t-13 18.5t-24 6q-44 0 -77 -55t-50 -132
t-22 -168q-1 -15 -12.5 -24.5t-26.5 -9.5t-26 11t-11 28v223q0 51 -8 85t-15.5 52.5t-7.5 30.5q0 16 11 27.5t28 11.5q22 0 36.5 -26.5t24.5 -106.5q4 15 14 34t28 42.5t48 39t66 15.5q35 0 59.5 -13.5t36 -35t16.5 -41.5t5 -41q19 63 62.5 97t90.5 34q52 0 86.5 -34
t34.5 -106v-424q0 -92 17 -156.5t49.5 -100t73.5 -51t94 -15.5q64 0 115.5 37.5t78.5 101.5q-89 109 -119 285q-22 133 -22 385q0 27 27 37q52 17 83 69t31 123q0 66 -28 128t-74 95q-163 -67 -438 -67q-122 0 -339.5 26.5t-332.5 26.5q-144 0 -224.5 -64.5t-80.5 -177.5
q0 -73 26 -143q27 6 52 6q151 0 151 -239q0 -80 -23.5 -150t-59.5 -115.5t-67.5 -73.5t-58.5 -42q0 -106 57 -177t166 -71q79 0 133 47t95 131q14 31 41 31q26 0 39 -33q5 -11 14 -34t15 -35.5t17 -32t24 -30.5t32 -22.5t44.5 -16.5t57.5 -5q80 0 170 53q9 6 21 6
q15 0 26 -11t11 -26q0 -24 -19 -34q-52 -31 -99.5 -48.5t-109.5 -17.5q-54 0 -99 16t-70.5 35.5t-45.5 48t-25.5 41.5t-10.5 27q-10 -19 -23.5 -38t-45.5 -53t-82 -55.5t-110 -21.5q-136 0 -218.5 85.5t-82.5 262.5q0 10 7 21t16 16q77 35 131.5 121.5t54.5 200.5
q0 161 -71 161q-20 0 -42 -6t-32 -6q-25 0 -41 33q-43 88 -43 194z" />
    <glyph glyph-name="uni0423" unicode="&#x423;" horiz-adv-x="1460" 
d="M82 1233q0 9 6 18q42 69 108 110.5t140 41.5q119 0 192.5 -66.5t73.5 -189.5v-244q0 -53 4 -92.5t13.5 -73.5t29 -51.5t47.5 -17.5q56 0 94.5 58t45.5 169q3 39 36 39q17 0 28 -11t11 -26v-328q0 -69 -24.5 -121t-64.5 -79.5t-82 -40.5t-85 -13q-149 0 -270 109
q-34 -18 -59 -58.5t-25 -101.5q0 -69 37 -125.5t98.5 -92.5t136.5 -55.5t154 -19.5q246 0 389.5 160.5t143.5 437.5v547q0 209 -187 209q-76 0 -131 -44t-55 -126q0 -32 5 -59t5 -33q0 -14 -10.5 -25.5t-26.5 -11.5q-29 0 -40 42t-11 87q0 64 26 114t67 78t84.5 42t86.5 14
q123 0 193.5 -71t70.5 -216v-547q0 -136 -32.5 -248.5t-89.5 -190.5t-134.5 -132t-166.5 -79t-187 -25q-220 0 -362 105t-142 265q0 92 44 153.5t106 86.5q8 4 18 4q19 0 29 -10q108 -105 235 -105q14 0 28 2t36 7t41 17.5t36.5 30.5t27.5 49t10 70v99q-14 -27 -48.5 -52.5
t-89.5 -25.5q-88 0 -130 76t-42 237v244q0 89 -49.5 133.5t-138.5 44.5q-98 0 -170 -96q29 -84 29 -252v-59q0 -129 25 -192t75 -108q12 -12 12 -28q0 -17 -12.5 -29t-28.5 -12q-11 0 -24 10q-28 26 -46 49.5t-38.5 64.5t-30.5 102.5t-10 142.5v61q0 161 -27 229
q-8 16 -8 25z" />
    <glyph glyph-name="uni0424" unicode="&#x424;" horiz-adv-x="1796" 
d="M82 690q0 264 141 413.5t379 149.5q25 0 39 -2q0 98 -37 154q-6 9 -6 20q0 12 6 21q16 24 39 48t59 51t87.5 44t109.5 17q133 0 213 -89t80 -210q0 -20 -4 -52q20 2 61 2q58 0 118 -16.5t123.5 -58.5t112 -104t80 -163t31.5 -225q0 -116 -33 -220.5t-93 -184t-150 -126
t-197 -46.5q-196 0 -288.5 93.5t-92.5 264.5v47q-18 -34 -62.5 -55t-92.5 -21q-88 0 -147.5 66.5t-59.5 181.5q0 114 58.5 177t148.5 63q92 0 92 -45q0 -18 -11 -29.5t-24 -11.5q-9 0 -24.5 4t-32.5 4q-67 0 -98.5 -46.5t-31.5 -115.5q0 -76 35.5 -123t94.5 -47q79 0 117 60
t38 161v295q0 17 11 28t28 11q16 0 27.5 -11t11.5 -28v-184q54 78 156 78q88 0 146 -63t58 -177q0 -120 -61.5 -184t-146.5 -64q-91 0 -91 50q0 15 11 25.5t28 10.5q2 0 18 -4t34 -4q58 0 94.5 44.5t36.5 125.5q0 77 -33.5 119.5t-93.5 42.5q-72 0 -114 -56t-42 -165v-160
q0 -146 72.5 -213.5t230.5 -67.5q76 0 141 28t111 76.5t78.5 112.5t48.5 136t16 147q0 102 -22.5 185t-61 139t-89.5 94t-106 55t-114 17q-37 0 -66 -5.5t-40 -5.5q-13 0 -25 9.5t-12 29.5q0 12 7 40t7 59q0 95 -61.5 158t-153.5 63q-29 0 -60 -5.5t-77 -31t-78 -68.5
q17 -33 26 -74.5t10 -68t1 -72.5q0 -39 -41 -39q-7 0 -34 3.5t-44 3.5q-211 0 -326.5 -129t-115.5 -357q0 -203 105.5 -334t279.5 -131q47 0 82 7.5t47 7.5q17 0 27 -12t10 -23q0 -10 -4.5 -37.5t-4.5 -46.5q0 -117 64.5 -180.5t167.5 -63.5q74 0 128 31t79 88q9 22 37 22
q36 0 36 -38q0 -9 -4 -17q-9 -19 -20 -37t-34.5 -42.5t-52 -42t-73 -30t-96.5 -12.5q-77 0 -138.5 28.5t-97.5 75t-54.5 101t-18.5 111.5q0 27 2 39q-51 -7 -82 -7q-139 0 -245.5 73.5t-162 196.5t-55.5 273z" />
    <glyph glyph-name="uni0425" unicode="&#x425;" horiz-adv-x="1619" 
d="M102 326q0 40 7 56.5t22 23.5q74 28 138.5 94.5t110 139t90 141.5t97.5 114t113 45q93 0 131 -98q5 14 13 28t22.5 31.5t38.5 28t53 10.5q38 0 71 -15.5t33 -43.5q0 -15 -9.5 -26t-24.5 -11q-10 0 -30 9t-40 9q-41 0 -64.5 -47t-23.5 -108q0 -63 25.5 -111.5t76.5 -48.5
q36 0 66.5 24.5t54 65t46.5 90.5t49.5 103.5t57 100.5t76 85t99.5 55q4 24 4 39q0 85 -58.5 150t-148.5 65q-33 0 -62.5 -6.5t-50.5 -14t-43.5 -25.5t-35 -29t-30.5 -36.5t-25 -36.5t-24 -40t-22 -37q-17 -29 -47 -29q-26 0 -47 21q-38 41 -79 77.5t-94 74t-113 59.5
t-117 22q-96 0 -154.5 -57t-58.5 -150q0 -88 55 -138t147 -50q19 0 30 -11t11 -28q0 -15 -12 -27t-27 -12q-129 0 -205.5 75.5t-76.5 190.5q0 123 81 204t210 81q107 0 214.5 -54t229.5 -186q24 43 41 69.5t48.5 62.5t64.5 57t83 36t109 15q126 0 205.5 -89t79.5 -200
q0 -47 -7 -72.5t-14 -31.5t-20 -9q-46 -11 -84.5 -40t-65 -68t-51.5 -86t-44.5 -94t-45 -91t-51.5 -78t-64 -54.5t-84 -20.5q-100 0 -139 100q-7 -21 -19.5 -40.5t-44.5 -39.5t-75 -20q-36 0 -78.5 20.5t-42.5 49.5q0 15 10.5 27t26.5 12q12 0 37.5 -15.5t46.5 -15.5
q30 0 51.5 15.5t31 42t13.5 51t4 51.5q0 68 -27 111.5t-67 43.5q-30 0 -60 -23t-58 -62t-58 -87.5t-66.5 -101.5t-76 -101t-93 -90.5t-112.5 -66.5l37 69q-13 -47 -13 -80q0 -104 72 -172.5t170 -68.5q58 0 99.5 13t74.5 44.5t55 66.5t54 97q16 35 53 35q26 0 47 -21
q130 -127 226.5 -181t201.5 -54q100 0 153.5 65.5t53.5 153.5q0 83 -51.5 138.5t-137.5 62.5q-13 1 -23.5 13t-10.5 26q0 38 38 38t81.5 -17t85 -49t69 -88t27.5 -124q0 -53 -17.5 -104.5t-51 -95t-90 -70.5t-126.5 -27q-44 0 -89 10t-80.5 23.5t-77.5 38t-67 42t-62 48
t-50.5 43t-42.5 39.5q-25 -53 -50 -90t-64.5 -75.5t-97 -58.5t-130.5 -20q-132 0 -226 91.5t-94 234.5z" />
    <glyph glyph-name="uni0426" unicode="&#x426;" horiz-adv-x="1705" 
d="M133 1214q0 9 6 21q81 166 283 166q133 0 201.5 -75.5t68.5 -215.5v-530q0 -121 74 -121q77 0 126.5 106t49.5 301q0 17 11.5 28t27.5 11q17 0 28 -11t11 -28q0 -92 6.5 -157.5t22.5 -108t24.5 -59t28.5 -45.5q42 20 69.5 35.5t62.5 40t57.5 50.5t43.5 61t31 79.5
t10 97.5v254q0 52 -13.5 91.5t-33 61.5t-47 36t-50.5 18t-48 4q-60 0 -116 -24t-85 -64q22 -47 29.5 -83.5t7.5 -117.5q0 -16 -11 -27.5t-28 -11.5q-15 0 -27 12t-12 27q0 39 -1 60t-9 53.5t-23 60.5q-8 12 -8 21q0 8 4 20q27 67 109 109.5t170 42.5q126 0 198 -77.5
t72 -211.5v-254q0 -64 -12.5 -119t-37.5 -96.5t-52 -74t-66 -59t-69 -43.5t-70 -36q41 -55 41 -117q0 -61 -37.5 -103t-93.5 -42q-52 0 -87.5 37.5t-35.5 97.5q0 49 26.5 89.5t71.5 64.5q-49 76 -57 114q-23 -85 -81.5 -138.5t-127.5 -53.5q-76 0 -114 56t-38 143v530
q0 110 -46 161.5t-146 51.5q-142 0 -205 -104q25 -41 32 -104.5t7 -188.5q0 -102 -1 -230t-1 -168q0 -87 9.5 -151.5t35.5 -123t69.5 -95.5t114 -58.5t166.5 -21.5h551q17 0 28 -11t11 -28q0 -95 -51 -178q68 -43 162 -43q54 0 95.5 29t64.5 76.5t34.5 100t11.5 107.5
q0 104 -42 178t-117 103q-25 9 -25 34q0 17 11 27t28 10q41 0 88.5 -40t75.5 -85q59 -92 59 -227q0 -70 -17 -137.5t-50 -125t-89.5 -93t-127.5 -35.5q-69 0 -124 17t-116 65q-14 8 -14 28q0 11 27 56.5t36 93.5h-510q-90 0 -162.5 17.5t-121 46t-84.5 72t-55.5 86.5
t-31.5 100t-15 103t-3 103q0 30 1 183.5t1 214.5q0 126 -8 177.5t-29 88.5q-8 12 -8 22zM1001 305q0 -25 15.5 -46t40.5 -21q29 0 45 22.5t16 54.5q0 41 -39 86q-37 -17 -57.5 -39t-20.5 -57z" />
    <glyph glyph-name="uni0427" unicode="&#x427;" horiz-adv-x="1540" 
d="M82 1233q0 8 6 20t16.5 27t33.5 37.5t51.5 40t73.5 30.5t95 13q101 0 168.5 -65.5t67.5 -184.5v-225q0 -119 76 -119q25 0 46.5 12.5t36.5 29t29 47t21.5 52t15.5 59t11 53t8 48.5q6 37 34 37q18 0 28.5 -12.5t10.5 -28.5v-313q0 -53 15 -90t41 -56t54 -27t60 -8
q30 0 57.5 9.5t57 33.5t47 76.5t17.5 128.5v275q0 190 -170 190q-111 0 -183 -82q-14 -14 -30 -14q-15 0 -26 11t-11 26q0 13 10 26q94 111 240 111q86 0 143.5 -40t80.5 -98t23 -130v-275q0 -64 -14 -120t-43 -103.5t-80 -75t-119 -27.5q-119 0 -182 72t-63 187v61
q-26 -59 -70 -91t-96 -32q-78 0 -116 54t-38 143v225q0 45 -13.5 79t-31.5 51t-42 27t-40 12.5t-31 2.5q-125 0 -192 -92q26 -71 31.5 -124t5.5 -226q0 -211 96.5 -327t271.5 -116q71 0 127 7.5t83 17t50.5 17t36.5 7.5q14 0 28.5 -11t14.5 -32v-127q0 -121 52.5 -180
t160.5 -59q66 0 120 33.5t79 89.5q-36 51 -49.5 117t-13.5 163q0 15 11.5 27t26.5 12q17 0 28 -11.5t11 -27.5q0 -91 12.5 -146t47.5 -99q10 -13 10 -27q0 -11 -4 -19q-31 -85 -107 -137.5t-172 -52.5q-130 0 -210 77.5t-80 239.5v84q-125 -41 -263 -41q-203 0 -324.5 136
t-121.5 385q0 157 -5 214t-30 115q-1 2 -3 7t-3.5 9t-1.5 7z" />
    <glyph glyph-name="uni0428" unicode="&#x428;" horiz-adv-x="2004" 
d="M133 1192q0 17 14 48.5t42 69.5t84.5 65.5t129.5 27.5q67 0 119 -20.5t81 -50t47 -70t24 -74.5t6 -68v-493q0 -58 6.5 -95t19.5 -51t21.5 -17t22.5 -3q32 0 59 37.5t46 102t31.5 135.5t20.5 153q3 39 41 39q37 0 37 -41q0 -16 -3 -72.5t-3 -87.5q0 -266 74 -266
q20 0 38 11.5t32 34.5t25.5 48t21.5 63.5t17 68t13.5 74t10 69t8.5 65.5q1 15 12 24t26 9t26 -11t11 -28v-64q0 -91 2 -140t15.5 -116.5t40.5 -126.5q4 -8 4 -20q0 -15 -10.5 -27t-26.5 -12q-28 0 -37 20q-36 82 -49 172q-14 -41 -28.5 -71.5t-36 -60t-50.5 -45t-65 -15.5
q-35 0 -62.5 17t-42.5 45.5t-23 54t-12 51.5q-8 -27 -19.5 -51.5t-31 -53t-49 -46t-63.5 -17.5q-148 0 -148 244v493q0 61 -18 103.5t-48.5 63.5t-62.5 29.5t-70 8.5q-77 0 -123.5 -38t-64.5 -89q22 -39 35.5 -145.5t13.5 -204.5v-432q0 -338 307 -338h838q166 0 269 64
t132 184q-63 49 -87.5 119.5t-24.5 197.5v457q0 101 -52 163t-137 62q-144 0 -213 -182q-12 -31 -41 -31q-23 0 -38 31q-79 182 -236 182q-51 0 -98.5 -21t-79.5 -59q-14 -14 -31 -14q-15 0 -27 13.5t-12 27.5q0 11 10 24q44 51 106 79t130 28q62 0 114 -20t84.5 -51
t50 -55.5t27.5 -47.5q10 22 25.5 45t45.5 55.5t78 53t105 20.5q120 0 193.5 -85.5t73.5 -217.5v-457q0 -121 22.5 -176.5t77.5 -93.5q16 -10 16 -31q0 -16 -8 -43q-4 -15 -7 -23.5t-13 -33.5t-21.5 -42.5t-32.5 -44.5t-45 -46.5t-60.5 -41.5t-78 -35.5t-97.5 -22.5t-120 -9
h-838q-82 0 -147 20t-105.5 56t-68 77t-41 91.5t-18.5 90t-5 81.5v432q0 91 -13 192t-32 129q-8 8 -8 23z" />
    <glyph glyph-name="uni0429" unicode="&#x429;" horiz-adv-x="2066" 
d="M133 1190q0 17 14 48.5t42 69.5t84.5 65.5t129.5 27.5q67 0 119 -20.5t81 -50t47 -70t24 -74.5t6 -68v-483q0 -77 9 -116.5t21 -48.5t35 -9q38 0 70 47.5t51 122t30 138.5t17 124q2 14 13 24.5t24 10.5q16 0 27.5 -11.5t11.5 -29.5q0 -32 -1 -95t-1 -87q0 -244 70 -244
q20 0 37.5 9.5t31 31t24.5 42t19.5 56.5t14.5 60.5t12 68t8.5 64t7.5 63.5l5 37q1 15 13 25t27 10q13 0 24 -11t13 -26q3 -58 14.5 -114.5t33.5 -113.5t35 -86.5t38 -82.5q128 47 179 81q129 94 132 265v262q0 98 -55.5 159.5t-144.5 61.5q-76 0 -135 -53.5t-95 -136.5
q-14 -29 -41 -29q-24 0 -36 31q-74 190 -240 190q-62 0 -108 -26t-68 -54q-14 -14 -31 -14q-15 0 -27 13.5t-12 27.5q0 11 10 24q43 50 107.5 78.5t128.5 28.5q189 0 281 -180q9 17 19.5 34t35 45t52 48t70 35.5t89.5 15.5q121 0 199.5 -84t78.5 -215v-262q0 -78 -20 -140.5
t-51.5 -104.5t-81 -76.5t-95 -55t-108.5 -41.5q39 -70 39 -123q0 -22 -6.5 -44.5t-21 -45.5t-42.5 -38t-65 -15q-18 0 -38 6t-41.5 20.5t-35.5 45t-14 73.5q0 35 16 66.5t39.5 51.5t39 30t25.5 14q-52 101 -83 194q-1 -4 -6 -27.5t-9 -40t-13 -44t-18.5 -47.5t-25.5 -43
t-34 -37.5t-43 -24.5t-54 -10q-111 0 -137 170q-70 -170 -175 -170q-34 0 -60 11t-41 34t-24 44t-12.5 56t-4.5 54t-1 53v483q0 61 -18 103.5t-48.5 63.5t-62.5 29.5t-70 8.5q-77 0 -123.5 -38t-64.5 -89q22 -39 35.5 -145.5t13.5 -204.5v-438q0 -155 84 -242.5t232 -87.5
h981q17 0 27.5 -11t10.5 -28q0 -95 -51 -178q68 -43 162 -43q54 0 96 29t65 76.5t34.5 100t11.5 107.5q0 104 -42.5 178t-117.5 103q-24 9 -24 34q0 17 11 27t28 10q41 0 88 -40t75 -85q60 -94 60 -227q0 -70 -17 -137.5t-50.5 -125t-90 -93t-127.5 -35.5q-67 0 -122 17.5
t-118 64.5q-14 11 -14 28q0 11 27.5 56t36.5 94h-940q-180 0 -287 111t-107 297v438q0 91 -13 192t-32 129q-8 8 -8 23zM1294 301q0 -32 15 -55t43 -23q27 0 44 19.5t17 58.5q0 42 -37 100q-35 -15 -58.5 -41.5t-23.5 -58.5z" />
    <glyph glyph-name="uni042A" unicode="&#x42a;" horiz-adv-x="1531" 
d="M31 1116q0 138 84 212.5t207 74.5q13 0 141.5 -11.5t181.5 -11.5q113 0 186 37q12 6 23 6q14 0 23 -6q57 -40 88.5 -103.5t31.5 -135.5q0 -81 -28 -148q46 4 67 4q130 0 229.5 -64t152 -176t52.5 -253q0 -107 -36.5 -205t-107 -177.5t-186.5 -127t-263 -47.5
q-173 0 -309.5 65t-218 194.5t-81.5 303.5q0 95 23 172t59.5 126t86 82t99 46.5t101.5 13.5q47 0 80 -8q13 -3 22 -13.5t9 -23.5v-385q0 -195 131 -195q36 0 62 19.5t37.5 51t16 57.5t4.5 51q0 75 -27 111t-69 36q-8 0 -25.5 -3t-25.5 -3q-15 0 -24 11t-9 26q0 47 84 47
q73 0 123.5 -58t50.5 -167q0 -103 -50.5 -179.5t-147.5 -76.5q-101 0 -155 73.5t-54 198.5v352q-10 2 -33 2q-35 0 -70.5 -8.5t-76.5 -34t-72 -64t-51.5 -105.5t-20.5 -152q0 -222 144 -354t387 -132q232 0 374 132.5t142 347.5q0 57 -10.5 112.5t-38 112.5t-69 100
t-109.5 70t-154 27q-13 0 -41.5 -3.5t-44.5 -3.5q-18 0 -30.5 11.5t-12.5 29.5q0 13 8 29q18 37 23.5 66.5t5.5 85.5q0 98 -70 161q-79 -36 -205 -36q-57 0 -185 11t-138 11q-100 0 -156.5 -55.5t-56.5 -153.5q0 -44 14.5 -79.5t38.5 -57.5t43 -33.5t39 -19.5q24 -9 24 -37
q0 -15 -11 -25t-26 -10q-19 0 -50.5 16t-66 45.5t-59 83t-24.5 117.5z" />
    <glyph glyph-name="uni042B" unicode="&#x42b;" horiz-adv-x="1822" 
d="M123 1202q0 13 4 21q30 81 105.5 130.5t156.5 49.5q131 0 199.5 -76.5t68.5 -204.5v-370q51 57 131 57q95 0 154 -67t59 -191q0 -127 -60.5 -197.5t-152.5 -70.5q-91 0 -149.5 69t-58.5 195v575q0 101 -49 152t-140 51q-58 0 -108.5 -32.5t-75.5 -82.5q28 -38 38.5 -95
t10.5 -163v-489q0 -96 37.5 -174t100.5 -126.5t140.5 -74t161.5 -25.5q194 0 326 101q11 8 25 8q15 0 25.5 -10t10.5 -27q0 -22 -14 -33q-80 -62 -169 -89t-204 -27q-137 0 -253.5 55t-190.5 165.5t-74 256.5v489q0 114 -10 157t-35 71q-10 10 -10 22zM657 547
q0 -102 39.5 -144.5t91.5 -42.5q20 0 40.5 7.5t43.5 26t37.5 59t14.5 98.5q0 88 -35 134t-101 46q-59 0 -95 -50.5t-36 -133.5zM739 1042q0 28 25 37q62 23 139 23q138 0 242 -60q-7 101 -45 164q-6 9 -6 23q0 11 8 24q95 150 260 150q118 0 197 -74.5t79 -212.5v-690
q0 -150 52 -221q10 -13 10 -25q0 -13 -10 -28q-52 -78 -113 -111t-150 -33q-135 0 -208.5 92.5t-73.5 245.5v445q0 17 11.5 27.5t27.5 10.5q17 0 28 -10.5t11 -27.5v-445q0 -116 50 -188t154 -72q66 0 109 21t78 73q-53 85 -53 246v690q0 55 -16.5 95.5t-39.5 61.5
t-53.5 33.5t-50.5 15.5t-39 3q-118 0 -184 -100q45 -90 45 -221q0 -25 -17 -38.5t-39 -13.5q-13 0 -22 6q-114 66 -242 66q-50 0 -86 -9t-43 -9q-15 0 -25 9.5t-10 26.5z" />
    <glyph glyph-name="uni042C" unicode="&#x42c;" horiz-adv-x="1423" 
d="M113 1241q0 11 8 23q47 66 118.5 101.5t155.5 35.5q121 0 186.5 -76.5t65.5 -212.5v-344q51 45 117 45q93 0 149 -76.5t56 -175.5q0 -118 -56 -196q-54 -76 -147 -76q-21 0 -43.5 4.5t-51 20.5t-50.5 42t-37 73.5t-15 109.5v573q0 209 -172 209q-125 0 -198 -86
q34 -72 34 -256v-416q0 -75 12.5 -140.5t48 -133.5t92 -116.5t152.5 -79t222 -30.5q238 0 380 142.5t142 378.5q0 102 -32.5 186t-85.5 138t-119.5 83t-137.5 29q-50 0 -88 -12.5t-47 -12.5q-37 0 -37 37q0 28 25 37q79 31 149 31q77 0 155 -33t145.5 -94.5t110 -163
t42.5 -225.5q0 -179 -78 -316.5t-214.5 -210.5t-309.5 -73q-289 0 -447.5 152t-158.5 427v416q0 185 -35 242q-6 9 -6 20zM647 553q0 -81 28 -133.5t91 -52.5q57 0 90 51.5t33 142.5q0 67 -31.5 119.5t-93.5 52.5q-44 0 -80.5 -41.5t-36.5 -138.5z" />
    <glyph glyph-name="uni042D" unicode="&#x42d;" horiz-adv-x="1310" 
d="M102 342q0 97 61.5 167.5t153.5 70.5q20 0 29 -15q41 -44 102.5 -76t129.5 -32q55 0 95 20.5t60 54.5t28.5 59.5t12.5 53.5l-25 17q-25 16 -38 23t-37 15.5t-45 8.5q-31 0 -61 -14.5t-44 -14.5q-39 0 -39 37q0 26 43.5 46.5t100.5 20.5q74 0 151 -51q-4 117 -62.5 182.5
t-137.5 65.5q-41 0 -69.5 -11.5t-39.5 -24.5t-26 -24.5t-33 -11.5q-15 0 -25 11.5t-10 25.5q0 36 63 74.5t140 38.5q125 0 201.5 -98t76.5 -234q0 -27 -2 -41q45 -20 88 -20q85 0 131.5 53.5t46.5 148.5q0 89 -36 172t-102.5 150.5t-173.5 108t-237 40.5q-162 0 -272.5 -86
t-110.5 -196q0 -48 15.5 -81.5t38 -49.5t45 -27.5t38 -23.5t15.5 -29q0 -33 -41 -33q-12 0 -32.5 6.5t-48 24t-51 43t-40 70.5t-16.5 100q0 147 132 253.5t328 106.5q144 0 264.5 -45.5t198.5 -121.5t121 -175t43 -207q0 -69 -20 -122t-48 -82t-65.5 -47t-66.5 -23.5
t-56 -5.5q-54 0 -98 18q-5 -23 -12.5 -46t-28 -58t-48 -60.5t-74.5 -44t-105 -18.5q-75 0 -147.5 32t-129.5 89q-50 -7 -85.5 -48.5t-35.5 -109.5q0 -87 65.5 -151.5t164 -94.5t211.5 -30q128 0 228 39t160.5 104.5t93 143t38.5 163.5q2 16 13 26.5t28 10.5q15 0 26 -12
t11 -27q0 -28 -6.5 -65t-24.5 -88.5t-45.5 -101t-75 -99.5t-107.5 -87.5t-147.5 -61t-191.5 -23.5q-222 0 -370.5 98.5t-148.5 255.5z" />
    <glyph glyph-name="uni042E" unicode="&#x42e;" horiz-adv-x="1792" 
d="M133 1161q0 7 4 19q75 223 291 223q108 0 188 -77t80 -212v-348q49 91 125.5 158t126.5 67q14 0 24.5 -9.5t10.5 -29.5q0 -13 -8.5 -34.5t-18 -45.5t-18 -71t-8.5 -105q0 -94 40.5 -163.5t116.5 -69.5q69 0 112.5 78t43.5 184q0 71 -17 121t-41 73t-48 38t-41 28.5
t-17 30.5q0 15 11 26t28 11q15 0 38.5 -10.5t52.5 -36t53.5 -61t41.5 -93.5t17 -127q0 -48 -11.5 -101t-36 -109.5t-73 -93t-113.5 -36.5t-113.5 32t-73.5 82.5t-36.5 100t-11.5 96.5q0 98 35 191q-62 -46 -126.5 -167t-64.5 -259q0 -17 -11.5 -27t-27.5 -10t-27.5 11
t-11.5 28v651q0 56 -18.5 98.5t-42.5 63t-55 32.5t-47 14.5t-27 2.5q-153 0 -211 -154q62 -77 62 -239v-410q0 -116 -20 -189.5t-42 -105.5q56 -149 211 -149q8 0 16 0.5t28 4.5t36.5 11t37.5 22t36 35.5t26 53.5t13 74q2 17 11.5 27.5t24.5 10.5q23 0 33 -18
q56 -99 163.5 -160t229.5 -61q253 0 396 173t143 478q0 267 -144.5 431.5t-377.5 164.5q-49 0 -91.5 -9t-78 -27.5t-55 -32t-48.5 -35.5q-15 -11 -30 -11q-12 0 -22.5 12t-10.5 25q0 19 10 29q138 127 326 127q140 0 254.5 -53.5t189.5 -145.5t115.5 -214t40.5 -261
q0 -158 -39 -290t-114.5 -230.5t-194 -153.5t-269.5 -55q-66 0 -128 15.5t-103.5 36t-80.5 49t-56 45t-33 34.5q-10 -29 -28.5 -57.5t-48 -57.5t-76 -47t-101.5 -18q-204 0 -287 209q-6 15 -6 24q0 14 10 27q16 22 25.5 41.5t20 77.5t10.5 143v410q0 71 -14 126.5t-37 74.5
q-17 14 -17 28z" />
    <glyph glyph-name="uni042F" unicode="&#x42f;" horiz-adv-x="1507" 
d="M113 299q0 14 10.5 27t23.5 14q48 6 85 22.5t56 32.5t54 51q15 15 31 15q15 0 26 -11.5t11 -25.5q0 -15 -9 -27q-33 -37 -55.5 -57.5t-64.5 -42.5t-93 -31q0 -67 60.5 -128.5t150.5 -61.5q204 0 267 286q3 12 13.5 20.5t22.5 8.5h201q17 0 28 -11.5t11 -27.5v-102
q0 -45 14 -79t33.5 -51t45 -27t42.5 -12.5t33 -2.5q60 0 114 34.5t68 75.5q-16 36 -24.5 87.5t-9.5 86t-1 95.5v604q0 137 -115 200.5t-364 63.5q-243 0 -387.5 -117.5t-144.5 -314.5q0 -133 70.5 -217t183.5 -84q170 0 217 139q-74 6 -119 55t-45 119q0 89 63.5 141
t157.5 52q107 0 158 -51q10 -10 10 -27v-455q0 -16 -11 -27.5t-28 -11.5q-15 0 -27 12t-12 27v436q-32 19 -90 19q-12 0 -25 -1t-36 -7.5t-39.5 -18t-29.5 -34.5t-13 -54q0 -94 131 -94q13 0 28 -9.5t15 -27.5q0 -22 -7.5 -51.5t-28.5 -67t-53 -68t-88.5 -52t-127.5 -21.5
q-140 0 -236 104.5t-96 274.5q0 124 49.5 222.5t134.5 160.5t194 94.5t232 32.5q129 0 227 -17.5t174 -56.5t116 -106.5t40 -161.5v-604q0 -93 6 -150.5t13.5 -72t13.5 -24.5t6 -20q0 -20 -16.5 -50.5t-47 -62.5t-84 -54.5t-116.5 -22.5q-113 0 -179.5 70t-66.5 180v63h-131
q-47 -160 -122.5 -237.5t-211.5 -77.5q-133 0 -209.5 82.5t-76.5 218.5z" />
    <glyph glyph-name="uni0430" unicode="&#x430;" horiz-adv-x="1579" 
d="M72 295q0 19 16 31q93 62 155 229.5t62 343.5q0 66 -8.5 132t-17.5 108t-9 51q0 13 27 47q83 98 198 143t277 45q109 0 199 -37.5t151 -100t103 -145t61 -170.5t19 -179q0 -113 -60.5 -183.5t-138.5 -70.5q-158 0 -203 186q-10 -54 -32.5 -93.5t-49.5 -58t-50 -26.5
t-44 -8q-78 0 -129 67q-45 60 -45 166q0 73 27.5 143t83.5 119t127 49q58 0 106.5 -27t48.5 -57q0 -36 -35 -36q-12 0 -46 21.5t-74 21.5q-68 0 -114 -74t-46 -160q0 -23 3 -44.5t11.5 -49.5t29.5 -45t52 -17q32 0 58.5 28t43 70.5t25.5 82.5t12 73t33 33q28 0 35 -33
q5 -24 10.5 -47.5t20 -64t32 -69.5t46.5 -51t63 -22q46 0 83.5 49t37.5 128q0 150 -52 274.5t-157 202.5t-246 78q-294 0 -420 -168q11 -34 21 -119.5t10 -161.5q0 -115 -21.5 -228t-75.5 -223.5t-134 -173.5q14 -91 74 -143.5t151 -52.5q54 0 97.5 21.5t67 49t40 64
t21.5 57.5t7 37q2 15 13 26t26 11h281q14 0 26 -11t13 -24q0 -5 4 -25t19.5 -57t39.5 -69t69.5 -56t104.5 -24q93 0 158 54t80 144q-60 48 -104 123.5t-44 110.5q0 17 11 28t28 11q18 0 27 -12.5t25 -48t38 -66.5q49 -69 72 -88q27 -24 27 -35q0 -43 -18.5 -92t-54 -96.5
t-100 -79t-145.5 -31.5q-256 0 -309 266h-215q-21 -119 -96 -192.5t-213 -73.5q-60 0 -111.5 20t-85.5 52t-58 71.5t-35 78t-11 73.5z" />
    <glyph glyph-name="uni0431" unicode="&#x431;" horiz-adv-x="1392" 
d="M123 451v583q0 44 7 87t30 95.5t60 91.5t103.5 66t153.5 27q75 0 180 -11.5t156 -11.5q64 0 135.5 10t95.5 21q12 6 21 6t25 -8q29 -20 45.5 -33t41 -40.5t36.5 -63.5t12 -82q0 -112 -68.5 -186t-183.5 -74q-99 0 -212.5 15t-139.5 15q-70 0 -70 -55q0 -26 25 -49
t62 -39.5t81 -43t81 -57t62 -85t25 -123.5q0 -104 -54 -175t-145 -71q-92 0 -146.5 62.5t-54.5 156.5q0 59 28.5 130t57.5 71q19 0 29 -11.5t10 -21.5q0 -11 -23.5 -66.5t-23.5 -101.5q0 -66 33 -103.5t90 -37.5q54 0 87.5 46.5t33.5 121.5q0 51 -18.5 90t-48 63t-65.5 44
t-72 38t-65.5 38t-48 51.5t-18.5 72.5q0 15 3 30.5t13 34.5t25.5 33.5t43 24.5t63.5 10q29 0 141 -15t211 -15q89 0 131.5 54.5t42.5 127.5q0 31 -8 56t-23.5 42t-26.5 26t-28 19q-75 -31 -248 -31q-62 0 -166 11.5t-170 11.5q-73 0 -127 -23t-81.5 -54.5t-44 -75t-20 -74
t-3.5 -62.5v-583q0 -410 487 -410q92 0 167.5 15t127 39t90 59t61 70.5t36 78t18 77t4.5 71.5q0 119 -61.5 209t-120.5 112q-27 10 -27 39q0 17 10.5 26t26.5 9t45.5 -16.5t64.5 -51.5t66.5 -80.5t52.5 -111t21 -135.5q0 -236 -155 -362t-427 -126q-270 0 -417.5 123.5
t-147.5 364.5z" />
    <glyph glyph-name="uni0432" unicode="&#x432;" horiz-adv-x="1443" 
d="M123 1194q0 15 10 25q94 108 239 164.5t330 56.5q127 0 232.5 -33t172.5 -88.5t103.5 -124.5t36.5 -143q0 -173 -104 -252q81 -29 145 -123.5t64 -218.5q0 -223 -172 -355.5t-441 -132.5q-257 0 -413 107.5t-156 298.5q0 263 389 424v67q0 116 44 186t120 70
q55 0 97 -38.5t42 -102.5q0 -91 -94 -160q-44 -32 -131 -73v-187q0 -30 4.5 -58.5t15.5 -60.5t36 -51.5t61 -19.5q45 0 74 30.5t37.5 62.5t8.5 62q0 51 -29 89t-65 38q-12 0 -26.5 -6t-22.5 -6q-14 0 -26.5 11t-12.5 28q0 20 21.5 35.5t66.5 15.5q62 0 117 -56t55 -149
q0 -101 -56 -167t-142 -66q-57 0 -98 27.5t-60.5 71.5t-28 85.5t-8.5 83.5v152q-65 -30 -112.5 -58.5t-96.5 -69.5t-75.5 -94.5t-26.5 -115.5q0 -76 31 -135t79.5 -94.5t115.5 -58.5t131 -31.5t134 -8.5q238 0 386.5 111t148.5 299q0 57 -17.5 107t-41.5 81.5t-53.5 56.5
t-49 36t-33.5 16q-26 7 -26 34q0 22 16 33q100 72 100 230q0 125 -125.5 218t-341.5 93q-323 0 -491 -174q51 -91 51 -234v-213q0 -15 -12 -27t-27 -12q-17 0 -28 11.5t-11 27.5v213q0 64 -14.5 123.5t-38.5 93.5q-8 8 -8 23zM637 834q75 40 111 72t36 75q0 26 -14 41.5
t-26 18.5t-21 3q-86 0 -86 -210z" />
    <glyph glyph-name="uni0433" unicode="&#x433;" horiz-adv-x="1277" 
d="M133 1247q0 17 14 31q134 123 338 123q66 0 176.5 -14.5t172.5 -14.5q102 0 239 39q6 2 14 2q7 0 15 -4q52 -21 98.5 -80.5t46.5 -157.5q0 -125 -81 -200.5t-208 -75.5q-64 0 -112 -16.5t-76 -43t-49 -58t-38.5 -63.5t-38 -58.5t-53 -43t-77.5 -16.5q-70 0 -115 44.5
t-45 113.5q0 46 18 85t44 65t52 49t44 48.5t18 51.5q0 63 -77 63q-100 0 -150.5 -84t-50.5 -209v-512q0 -60 17 -105t41 -68.5t57 -38t57 -18t49 -3.5q81 0 140.5 40.5t74.5 88.5q-55 89 -55 246v61q0 16 11 27.5t28 11.5q15 0 27 -12t12 -27v-61q0 -76 16 -132.5t35 -84.5
q8 -12 8 -25q0 -6 -4 -18q-25 -89 -109.5 -141t-183.5 -52q-136 0 -217.5 85t-81.5 226v512q0 157 73 264t206 107q68 0 111.5 -37.5t43.5 -103.5q0 -41 -18 -74.5t-44 -57.5t-52 -47t-44 -53.5t-18 -66.5q0 -38 22 -59t60 -21q29 0 51.5 16.5t38.5 43t33 58t42 63.5
t59 58.5t90.5 43t129.5 16.5q97 0 154 53t57 145q0 65 -28.5 106t-57.5 54q-134 -39 -245 -39q-64 0 -175.5 15.5t-177.5 15.5q-170 0 -286 -104q-15 -11 -27 -11q-17 0 -28 11.5t-11 27.5z" />
    <glyph glyph-name="uni0434" unicode="&#x434;" horiz-adv-x="1648" 
d="M51 96q0 95 29 221q3 17 20 27q42 19 67.5 33.5t55 43t45.5 64t26.5 92.5t10.5 134q0 17 11 28t28 11q16 0 27.5 -11t11.5 -28q0 -169 -51 -270t-180 -160q-23 -103 -23 -181q0 -58 11 -109.5t34.5 -97.5t66.5 -73t101 -27q104 0 166 47q-29 88 -29 201q0 15 12 27t27 12
h584q36 0 39 -37q18 -250 207 -250q105 0 186 51q-3 3 -10.5 47t-16 118t-14.5 147q-7 91 -44.5 126t-102.5 46q-33 6 -33 34q0 6 1 14l1 9q18 126 18 238q0 119 -20 223t-64.5 195t-111 155.5t-166 101.5t-223.5 37q-47 0 -95.5 -5.5t-108 -21.5t-104.5 -42t-75.5 -71.5
t-30.5 -104.5q0 -44 18.5 -93t42.5 -73q129 135 310 135q85 0 149 -41t99 -108t52 -140.5t17 -151.5q0 -100 -21 -179t-72 -131t-126 -52q-95 0 -147 75t-52 179q0 102 60.5 178t154.5 76q45 0 45 -39t-45 -39q-57 0 -97 -49t-40 -127q0 -73 30 -124.5t91 -51.5q38 0 66 24
t42.5 65.5t21.5 89t7 103.5q0 94 -26.5 176t-81.5 135.5t-127 53.5q-78 0 -150 -35.5t-127 -99.5q-15 -15 -31 -15q-9 0 -20 7q-53 37 -87 110t-34 142q0 55 18 101t47.5 78.5t70.5 58t85 41.5t93.5 26t92.5 14t85 4q135 0 246 -43t187 -117t128 -175.5t76 -216t24 -240.5
q0 -118 -14 -224q80 -19 126 -76t52 -147q7 -123 10 -162t10.5 -83t20.5 -85q4 -12 4 -18q0 -15 -14 -29q-55 -41 -124.5 -61.5t-131.5 -20.5q-128 1 -209 80.5t-92 206.5h-490q4 -89 29 -149q6 -12 6 -25q0 -17 -12 -29q-87 -84 -238 -84q-75 0 -132.5 31.5t-91 86
t-50.5 121t-17 142.5z" />
    <glyph glyph-name="uni0435" unicode="&#x435;" horiz-adv-x="1394" 
d="M123 461q0 92 35 172q10 24 37 24q16 0 25 -11.5t9 -27.5q0 -7 -14 -51t-14 -106q0 -94 46 -173.5t122 -130.5t170.5 -79.5t193.5 -28.5q85 0 161.5 12.5t149.5 41t116.5 85.5t43.5 136t-49.5 128t-120.5 64q-106 -145 -284 -145q-68 0 -130 30t-108 93.5t-57 148.5
q-133 24 -224.5 117.5t-91.5 220.5q0 105 49 192.5t128.5 143t178 85.5t201.5 30q71 0 139 -10t136.5 -34t119.5 -60t83 -93.5t32 -128.5q0 -92 -51.5 -166t-112.5 -74q-15 0 -24.5 10t-9.5 27q0 21 24 33q96 50 96 170q0 71 -41 122t-109.5 77t-138 37.5t-143.5 11.5
q-121 0 -228.5 -43t-179 -130t-71.5 -200q0 -93 67.5 -163.5t168.5 -94.5q6 135 78 223t178 88q85 0 144.5 -52.5t59.5 -135.5q0 -71 -47 -123t-113.5 -75t-138.5 -23q-27 0 -77 4q18 -85 78 -132.5t135 -47.5q148 0 231 129q11 18 33 18q106 0 187 -82.5t81 -189.5
q0 -79 -33.5 -141t-87.5 -101t-127 -64.5t-147.5 -36t-153.5 -10.5q-115 0 -224 34.5t-195 95.5t-138.5 155t-52.5 205zM528 709q51 -7 86 -7q95 0 158.5 41t63.5 103q0 53 -38 81.5t-89 28.5q-56 0 -99 -38.5t-62.5 -93.5t-19.5 -115z" />
    <glyph glyph-name="uni0436" unicode="&#x436;" horiz-adv-x="2101" 
d="M102 324q0 46 15 90q6 23 33 26q81 9 150 57t159 158q-138 322 -301 367q-22 6 -29 31q-4 18 -4 55q0 122 80 208.5t203 86.5q69 0 123.5 -24t88.5 -64t64 -93t50 -109t45.5 -114.5t51.5 -108t68.5 -90t95.5 -59.5v177q0 15 12 26.5t27 11.5q17 0 28 -11.5t11 -26.5v-177
q53 0 97 53.5t47 125.5q0 17 11 26.5t29 9.5q16 0 26.5 -12.5t10.5 -28.5q-2 -70 -37.5 -135t-101.5 -92l4 21q50 -19 93 -64t73.5 -101.5t59.5 -121t58.5 -125t63 -110t81 -79.5t104.5 -30q98 0 163.5 68t65.5 165q0 27 -6 54q-81 17 -157.5 73.5t-131.5 127.5t-98 155
q-10 20 -10 29q0 12 8 24q13 23 19.5 34t26 41t35.5 49.5t44 48t56 49t66.5 41t79.5 34.5q5 35 5 45q0 92 -59.5 150.5t-158.5 58.5q-47 0 -90 -15.5t-73 -36t-64 -58.5t-52.5 -63t-49.5 -71q-13 -18 -37 -18q-20 0 -32.5 12t-14.5 31q-3 38 -14.5 72t-34 69.5t-65.5 56.5
t-101 21q-97 0 -197 -72q-11 -8 -24 -8q-15 0 -26 12t-11 27q0 18 16 31q116 88 242 88q107 0 180.5 -63.5t91.5 -165.5q70 102 155.5 165.5t200.5 63.5q132 0 213.5 -82t81.5 -207q0 -34 -10 -82q-6 -21 -29 -28q-180 -50 -297 -256q60 -114 157.5 -208.5t195.5 -101.5
q29 -4 35 -28q12 -46 12 -91q0 -132 -85.5 -225.5t-221.5 -93.5q-75 0 -135 34.5t-100.5 90.5t-75 124t-65.5 137.5t-63.5 128t-78 99.5t-101.5 48v-175q0 -15 -11 -26.5t-28 -11.5q-15 0 -27 11.5t-12 26.5v175q-35 -6 -62.5 -27t-44 -50.5t-26 -54.5t-14.5 -51
q-7 -30 -37 -30q-18 0 -28.5 11t-10.5 29q0 65 45.5 132t97.5 88l39 -27q-60 19 -108 65.5t-79 104t-58 123.5t-54 127.5t-59 111.5t-79.5 80.5t-108.5 30.5q-86 0 -146.5 -63t-60.5 -148q0 -19 2 -27q54 -13 108 -60.5t98.5 -115t74.5 -124t55 -115.5q4 -8 4 -19
q0 -18 -8 -26q-95 -120 -166.5 -176.5t-184.5 -83.5q-6 -24 -6 -48q0 -92 70 -166.5t158 -74.5q52 0 93.5 13t83 45.5t76.5 72t89 108.5q14 21 36 21q33 0 39 -37q13 -56 38 -99t51.5 -66t58 -36.5t53 -17.5t41.5 -4q65 0 114 17.5t101 56.5q10 10 27 10q36 0 36 -37
q0 -22 -16 -35q-60 -47 -121 -68.5t-141 -21.5q-103 0 -186 62.5t-109 166.5q-152 -229 -364 -229q-124 0 -214 99.5t-90 224.5z" />
    <glyph glyph-name="uni0437" unicode="&#x437;" horiz-adv-x="1411" 
d="M102 291q0 123 73 203.5t169 80.5q92 0 92 -51q0 -17 -10.5 -26t-26.5 -9q-7 0 -21.5 4.5t-29.5 4.5q-64 0 -116 -54.5t-52 -152.5q0 -51 17.5 -105t58 -107.5t97.5 -95.5t143.5 -68t189.5 -26q97 0 183 24.5t147 66t105.5 95t66.5 111.5t22 115q0 236 -297 240
q7 -40 7 -68q0 -140 -64 -233t-174 -93q-78 0 -137.5 52t-59.5 141q0 113 91.5 184.5t234.5 89.5q-41 95 -137 103q-16 2 -26.5 11.5t-10.5 23.5q0 27 29 36q110 32 110 132q0 37 -23 63.5t-71 26.5q-49 0 -81 -30t-42 -73q-3 -16 -12 -22q-61 -45 -154 -45q-89 0 -153 55.5
t-64 167.5q0 151 139.5 255.5t366.5 104.5q133 0 240.5 -37.5t175 -100.5t103.5 -143t36 -169q0 -150 -78 -264q-11 -17 -33 -17q-16 0 -26 11.5t-10 27.5q0 12 6 21q63 94 63 221q0 168 -131 270.5t-346 102.5q-186 0 -307 -80t-121 -203q0 -77 41 -112.5t98 -35.5
q64 0 94 23q5 18 17 40t34 48.5t60 43.5t84 17q60 0 101 -28t56 -64t15 -75q0 -61 -36.5 -105.5t-61.5 -52.5q43 -14 84 -60.5t53 -83.5q195 0 295 -80.5t100 -236.5q0 -61 -21.5 -126t-70 -130.5t-116.5 -117t-172 -83.5t-226 -32q-134 0 -246.5 42t-183.5 110.5
t-110.5 153t-39.5 173.5zM563 340q0 -54 35.5 -84.5t83.5 -30.5q55 0 92.5 39.5t52.5 93.5t15 115q0 31 -6 66q-116 -11 -194.5 -63t-78.5 -136z" />
    <glyph glyph-name="uni0438" unicode="&#x438;" horiz-adv-x="1613" 
d="M133 1190q0 70 84.5 140.5t183.5 70.5q113 0 187 -72.5t74 -212.5q0 -115 -13 -268l-10 47q51 99 125.5 198t117.5 145t54 54q13 13 29 13q18 0 27 -10t9 -25v-475q0 -16 -10.5 -27.5t-27.5 -11.5q-15 0 -27 12t-12 27v450l10 -65q-179 -200 -277 -402q-9 -20 -34 -20
q-16 0 -27.5 10t-11.5 27v321q0 207 -183 207q-76 0 -123.5 -40t-64.5 -89q45 -77 45 -254v-606q0 -63 16 -111t39.5 -75t56.5 -43.5t61 -21.5t58 -5q76 0 134 37q1 104 40 207t105 180q55 63 112 100t83 37q19 0 28.5 -12.5t9.5 -26.5v-317q0 -61 18 -103.5t49 -63.5
t63 -29.5t71 -8.5q77 0 129 39t70 88q-45 80 -45 254v682q0 57 -19.5 96.5t-51 56.5t-56.5 23t-51 6q-19 0 -40 -5t-32 -5q-35 0 -35 37q0 27 32 39t75 12q125 0 190.5 -74t65.5 -186v-682q0 -167 41 -226q6 -9 6 -18q0 -25 -18.5 -60t-51.5 -70.5t-88.5 -60t-120.5 -24.5
q-121 0 -199.5 71t-78.5 212v256q-100 -68 -162 -186.5t-62 -260.5q0 -21 -16 -31q-86 -61 -195 -61q-141 0 -225 85.5t-84 248.5v606q0 170 -41 225q-6 12 -6 25z" />
    <glyph glyph-name="uni0439" unicode="&#x439;" horiz-adv-x="1613" 
d="M133 1190q0 70 84.5 140.5t183.5 70.5q113 0 187 -72.5t74 -212.5q0 -115 -13 -268l-10 47q51 99 125.5 198t117.5 145t54 54q13 13 29 13q18 0 27 -10t9 -25v-475q0 -16 -10.5 -27.5t-27.5 -11.5q-15 0 -27 12t-12 27v450l10 -65q-179 -200 -277 -402q-9 -20 -34 -20
q-16 0 -27.5 10t-11.5 27v321q0 207 -183 207q-76 0 -123.5 -40t-64.5 -89q45 -77 45 -254v-606q0 -63 16 -111t39.5 -75t56.5 -43.5t61 -21.5t58 -5q76 0 134 37q1 104 40 207t105 180q55 63 112 100t83 37q19 0 28.5 -12.5t9.5 -26.5v-317q0 -61 18 -103.5t49 -63.5
t63 -29.5t71 -8.5q77 0 129 39t70 88q-45 80 -45 254v682q0 57 -19.5 96.5t-51 56.5t-56.5 23t-51 6q-19 0 -40 -5t-32 -5q-35 0 -35 37q0 27 32 39t75 12q125 0 190.5 -74t65.5 -186v-682q0 -167 41 -226q6 -9 6 -18q0 -25 -18.5 -60t-51.5 -70.5t-88.5 -60t-120.5 -24.5
q-121 0 -199.5 71t-78.5 212v256q-100 -68 -162 -186.5t-62 -260.5q0 -21 -16 -31q-86 -61 -195 -61q-141 0 -225 85.5t-84 248.5v606q0 170 -41 225q-6 12 -6 25zM420 1716q0 83 53.5 131.5t106.5 48.5q12 0 21.5 -1.5t16 -4.5t11.5 -6t7.5 -6.5t4.5 -6t3 -5.5l1 -2
q11 -41 60 -62.5t98 -21.5q47 0 95.5 21.5t59.5 62.5l1 2q1 3 3 5.5t5 6t8 6.5t11.5 6t16 4.5t21.5 1.5q53 0 106.5 -48.5t53.5 -131.5q0 -38 -10.5 -74t-38 -73t-69.5 -64t-109.5 -44t-153.5 -17t-154 17t-110 44t-70 64t-38.5 73t-10.5 74zM498 1716q0 -86 77.5 -140
t227.5 -54q149 0 226 54t77 140q0 36 -18.5 61.5t-35.5 33.5t-26 8q-20 -45 -79.5 -81t-143.5 -36q-85 0 -145 36t-80 81q-9 0 -26 -8t-35.5 -33.5t-18.5 -61.5z" />
    <glyph glyph-name="uni043A" unicode="&#x43a;" horiz-adv-x="1607" 
d="M133 1239q0 11 8 23q98 141 267 141q134 0 205 -81t71 -222v-182q92 12 153.5 77.5t61.5 153.5q0 60 -12 100q-4 12 -4 17q0 7 8 18q45 61 103.5 90t144.5 29q120 0 192 -78.5t72 -200.5q0 -128 -69 -241t-165 -197q112 -224 301 -262q14 -3 24.5 -15.5t10.5 -25.5
q0 -168 -83 -275.5t-244 -107.5q-62 0 -112.5 22.5t-84 58.5t-61 79.5t-49 87t-41.5 79.5t-44.5 58.5t-52.5 22.5h-49v-162q0 -17 -11 -28t-28 -11q-18 0 -28.5 10.5t-10.5 28.5v416q0 18 13 28t26 10q16 0 27.5 -10.5t11.5 -27.5v-177h47q58 0 88.5 53t30.5 124
q0 17 11.5 27.5t27.5 10.5q17 0 28 -10.5t11 -27.5q0 -75 -26.5 -139.5t-76.5 -80.5q25 -8 46.5 -32.5t38.5 -57t34.5 -70t39 -73.5t47 -65.5t63.5 -47.5t84 -18q116 0 184 82.5t68 191.5q-54 8 -110.5 45t-100.5 87.5t-77.5 100.5t-54.5 95q-4 12 -4 16q0 19 15 31
q94 78 160.5 180.5t66.5 216.5q0 92 -50.5 146.5t-135.5 54.5q-56 0 -94 -15.5t-78 -49.5q12 -41 12 -115q0 -127 -102 -218t-232 -91q-18 0 -27 12q-12 9 -12 26v226q0 225 -198 225q-113 0 -191 -92q39 -110 39 -352v-594q0 -61 18 -104t48.5 -64.5t63 -31t69.5 -9.5
q94 0 174 39q12 4 16 4q17 0 28 -11t11 -28q0 -26 -22 -35q-96 -47 -207 -47q-129 0 -203 76t-74 211v594q0 230 -41 344q-4 8 -4 14z" />
    <glyph glyph-name="uni043B" unicode="&#x43b;" horiz-adv-x="1497" 
d="M72 281q0 14 14 28q59 51 104.5 129t70.5 153.5t54 154t57 137t78.5 96t118.5 37.5q45 0 81.5 -16t63.5 -50t47.5 -71.5t37.5 -97t28 -108.5t25 -122q10 -52 19.5 -94t27 -101.5t40 -104t52.5 -86.5t70.5 -64.5t87.5 -22.5q90 0 149 50t78 140q-43 38 -80.5 98.5
t-69.5 141.5t-54.5 148t-52.5 165.5t-46 145.5q-134 391 -426 391q-134 0 -217.5 -66.5t-83.5 -161.5q0 -47 9.5 -77.5t9.5 -40.5q0 -14 -9.5 -24.5t-25.5 -10.5q-19 0 -32.5 16t-19.5 42.5t-8 48.5t-2 44q0 125 104.5 216.5t274.5 91.5q82 0 154.5 -27.5t124.5 -70.5
t96.5 -103.5t73 -119t51.5 -124.5q16 -48 53.5 -172t63 -199t73 -164.5t101.5 -136.5q18 -15 18 -32q0 -28 -9.5 -63t-33 -75t-57 -73t-88 -54.5t-119.5 -21.5q-56 0 -105 23t-84 58.5t-65.5 89t-49.5 103.5t-36 114.5t-25.5 109.5t-17.5 100q-65 -269 -127 -365
q-10 -16 -35 -16q-15 0 -26 12t-11 27q0 11 6 20q52 79 95.5 223t54.5 253q-28 91 -63 138.5t-91 47.5t-91 -38t-59.5 -108t-50.5 -150.5t-81 -184.5t-133 -191q7 -33 20 -63t35.5 -60t61 -47.5t87.5 -17.5q81 0 152 65q13 13 29 13q15 0 25.5 -12t10.5 -27q0 -17 -12 -29
q-91 -88 -209 -88q-60 0 -110 23t-81 57t-52.5 74t-30 72.5t-8.5 54.5z" />
    <glyph glyph-name="uni043C" unicode="&#x43c;" horiz-adv-x="1771" 
d="M133 1227q0 14 4 22q32 72 96.5 112t141.5 40q51 0 100 -16.5t87.5 -41t77.5 -62.5t66.5 -72t57 -79.5t45.5 -74.5t36.5 -68t26.5 -49q13 19 39 60t46.5 72.5t52.5 75.5t59.5 77t64.5 68t71.5 58t75.5 37.5t81 14.5q55 0 97.5 -18t66 -45.5t38.5 -65t20 -70.5t5 -69v-674
q0 -167 41 -226q8 -12 8 -20q0 -14 -9 -38t-31.5 -54.5t-53 -57t-80 -45t-106.5 -18.5q-31 0 -62.5 5t-72 23.5t-70.5 47.5t-51 82.5t-21 124.5v280q-124 -124 -176 -309q-12 -29 -39 -29q-30 0 -37 31q-55 216 -139 309v-33q0 -187 -53 -299q-9 -22 -35 -22q-19 0 -29 10
t-10 25q0 14 8 30q43 118 43 273q0 26 -4 76q-44 18 -96 18q-88 0 -154 -43.5t-97.5 -108.5t-31.5 -139q0 -129 61 -201.5t169 -72.5q73 0 125 41q12 8 24 8q13 0 26 -10t13 -27q0 -20 -16 -33q-72 -57 -172 -57q-140 0 -223.5 95.5t-83.5 256.5q0 67 23.5 131.5t67 118
t113.5 86.5t156 33q75 0 137.5 -31t105.5 -84.5t71 -116t42 -133.5q14 59 44 114t56 88t63.5 66t45.5 38.5t23 15.5q8 4 18 4q14 0 26.5 -10t12.5 -29v-360q0 -61 18 -103.5t48.5 -63.5t62.5 -29.5t70 -8.5q77 0 128.5 39.5t69.5 89.5q-45 77 -45 252v674q0 190 -149 190
q-30 0 -60.5 -11.5t-58 -29.5t-61.5 -54t-61 -68.5t-68 -91.5t-71.5 -105t-82.5 -125q-9 -19 -35 -19q-22 0 -33 23q-7 13 -27 53.5t-36 71t-43.5 77.5t-53 82t-61 74.5t-70 64.5t-78 41.5t-87.5 16.5q-45 0 -91.5 -24.5t-70.5 -65.5q24 -61 34.5 -135.5t12.5 -137.5t2 -204
q0 -17 -11 -28t-28 -11q-16 0 -27.5 11t-11.5 28q0 128 -1.5 186.5t-12 130t-31.5 125.5q-6 24 -6 29z" />
    <glyph glyph-name="uni043D" unicode="&#x43d;" horiz-adv-x="1640" 
d="M133 1190q0 12 8.5 35.5t30.5 54t52.5 57.5t80.5 45.5t109 18.5q67 0 119 -20.5t80.5 -50t47 -70t24 -74t5.5 -68.5v-221q45 -20 98 -20q41 0 72 11t47.5 26t27 36t13 36.5t2.5 31.5q0 32 -7 61t-14 46t-22 46q-6 9 -6 17q0 15 9.5 39.5t32 55t53.5 56.5t80 44t106 18
q138 0 207 -80t69 -203v-657q0 -167 43 -225q6 -9 6 -23q0 -15 -9.5 -39t-31.5 -54.5t-53 -57t-80 -44.5t-106 -18q-122 0 -199.5 70.5t-77.5 214.5v188q-8 -11 -21.5 -22t-48.5 -24t-79 -13q-55 0 -111 16v-164q0 -17 -11.5 -28t-27.5 -11q-17 0 -28 11t-11 28v398
q0 17 11 27.5t28 10.5q16 0 27.5 -10.5t11.5 -27.5v-150q52 -22 111 -22q149 0 149 172q0 17 11.5 27.5t27.5 10.5q17 0 28 -10.5t11 -27.5v-379q0 -61 18 -103.5t48.5 -64t62.5 -30.5t70 -9q77 0 128.5 39.5t69.5 89.5q-45 77 -45 254v657q0 61 -17.5 103.5t-48.5 63.5
t-62.5 29.5t-69.5 8.5q-79 0 -130 -39t-69 -90q45 -81 45 -176q0 -28 -6.5 -56t-24 -58t-43.5 -53t-69 -37.5t-97 -14.5q-75 0 -155 41q-21 10 -21 34v244q0 61 -17.5 103.5t-48.5 63.5t-62.5 29.5t-69.5 8.5q-77 0 -129 -39t-70 -88q45 -80 45 -254v-657q0 -61 18 -103.5
t48.5 -64t62.5 -30.5t70 -9q39 0 80 13t57.5 23t26.5 17q20 14 34 14q13 0 24 -11t11 -25q0 -21 -14 -35q-7 -7 -30 -21.5t-78 -33.5t-111 -19q-123 0 -200 72.5t-77 212.5v657q0 166 -41 225q-8 8 -8 23z" />
    <glyph glyph-name="uni043E" unicode="&#x43e;" horiz-adv-x="1505" 
d="M92 688q0 212 81 379t233 262.5t350 95.5q105 0 202.5 -35.5t167.5 -93.5t112 -133.5t42 -152.5q0 -71 -29 -128.5t-74 -91t-92.5 -51.5t-89.5 -18h-16l12 65q10 -45 10 -90q0 -166 -68.5 -267t-180.5 -101q-63 0 -114 33.5t-81.5 88t-46.5 119t-16 131.5q0 187 106 340
q14 17 31 17t28 -11t11 -26q0 -16 -6 -25q-93 -136 -93 -295q0 -127 51.5 -210.5t129.5 -83.5q57 0 97 43t57.5 107t17.5 140q0 44 -9 97l39 -70q-110 8 -176.5 71t-66.5 132q0 64 36 92.5t78 28.5q45 0 79 -32.5t51.5 -82t25 -80.5t10.5 -55q91 3 151 63.5t60 149.5
q0 59 -34.5 119.5t-92.5 109t-142.5 79t-176.5 30.5q-263 0 -424.5 -182t-161.5 -478q0 -122 33 -226.5t89.5 -178t131.5 -126t159.5 -77.5t172.5 -25q85 0 168 23.5t157.5 72t131 117t89.5 164.5t33 207q0 54 -9 109.5t-15 70.5q-4 12 -4 19q0 15 11.5 24.5t27.5 9.5
q27 0 36 -24q10 -27 20.5 -86.5t10.5 -122.5q0 -184 -84 -335t-235 -239t-338 -88q-135 0 -256.5 51t-211.5 142t-143 225.5t-53 292.5zM784 928q0 -35 33 -73t98 -54q-1 14 -8 41t-18 57t-29 52t-37 22t-29 -13t-10 -32z" />
    <glyph glyph-name="uni043F" unicode="&#x43f;" horiz-adv-x="1646" 
d="M123 307q0 22 18 33q197 124 197 416q0 141 -64 141q-15 0 -36 -8t-29 -8q-28 0 -37 22q-37 78 -37 160q0 142 102.5 241t274.5 99q117 0 277 -19.5t225 -19.5q102 0 169 8.5t154 40.5q8 4 19 4q6 0 18 -4q69 -35 109.5 -111t40.5 -167q0 -79 -31.5 -144.5t-85.5 -97.5
q0 -177 5.5 -289t19 -174t24.5 -86t35 -57q16 -22 16 -37q0 -13 -6 -38t-25.5 -63t-49.5 -70t-85 -55.5t-124 -23.5q-116 0 -190.5 75.5t-74.5 233.5v539q0 30 -7.5 50.5t-19 29t-20 11.5t-16.5 3q-48 0 -85.5 -57t-56 -142.5t-18.5 -179.5q0 -33 -37 -33q-16 0 -27.5 11
t-11.5 28v160q0 100 -4 142t-22 96q-4 8 -4 20q0 15 11 26t28 11q27 0 36 -25q20 -57 25 -104q29 60 72.5 92.5t93.5 32.5q68 0 104.5 -47.5t36.5 -124.5v-539q0 -47 7.5 -84.5t26.5 -72.5t57.5 -54.5t95.5 -19.5q55 0 97 18t64.5 46.5t33 51.5t15.5 46q-27 38 -41.5 70
t-29.5 102.5t-21 192t-6 310.5q0 30 25 39q41 17 66.5 67t25.5 114q0 58 -22.5 114t-69.5 86q-60 -23 -120 -34.5t-100 -13t-120 -1.5q-72 0 -233.5 19.5t-268.5 19.5q-78 0 -144.5 -28t-110.5 -89t-44 -145q0 -44 16 -94q24 6 43 6q53 0 87 -35t45.5 -81t11.5 -103
q0 -89 -17 -165t-39.5 -122.5t-56.5 -88t-53.5 -58t-46.5 -35.5q7 -85 60 -147t140 -62q81 0 139.5 46.5t84.5 117.5t26 157q0 17 11 28t28 11q16 0 27.5 -11t11.5 -28q0 -57 -11 -111.5t-36 -107.5t-62 -92.5t-93.5 -63.5t-125.5 -24q-118 0 -199 87.5t-81 219.5z" />
    <glyph glyph-name="uni0440" unicode="&#x440;" 
d="M123 1026q0 129 88 223.5t223.5 139.5t296.5 45q277 0 452 -164.5t175 -431.5q0 -137 -41 -246t-108.5 -174.5t-149 -100t-168.5 -34.5q-73 0 -129 18q-27 8 -27 37q0 15 10 27t25 12q9 0 41.5 -8.5t79.5 -8.5q75 0 143.5 29.5t124 86t88.5 150t33 212.5
q0 229 -150.5 373.5t-398.5 144.5q-96 0 -187 -19.5t-169.5 -58t-126 -104t-47.5 -148.5q0 -58 25.5 -119.5t71 -116t117 -94t154.5 -49.5v197q0 15 12 27t27 12q17 0 28 -11.5t11 -27.5v-199q33 1 63 4.5t66.5 15t62.5 30.5t44 53t18 79q0 71 -49 116.5t-125 45.5
q-45 0 -78 -11.5t-52 -22.5t-28 -11q-17 0 -28 10t-11 27q0 22 17 33q80 53 180 53q117 0 184.5 -72t67.5 -168q0 -53 -16.5 -95.5t-45 -70t-61.5 -46.5t-73 -29t-72 -14t-64 -5v-84q0 -185 41 -247q8 -11 8 -23q0 -15 -15 -47t-45 -70.5t-88.5 -67t-131.5 -28.5
q-64 0 -113.5 18t-79.5 46.5t-49.5 67.5t-27 76t-7.5 77v362q0 17 11.5 28t27.5 11q17 0 28 -11t11 -28v-362q0 -61 18 -103.5t48.5 -64t62.5 -30.5t70 -9q77 0 128.5 39.5t69.5 89.5q-45 85 -45 276v86q-185 22 -315.5 154.5t-130.5 302.5z" />
    <glyph glyph-name="uni0441" unicode="&#x441;" horiz-adv-x="1388" 
d="M92 692q0 205 84.5 369.5t242 260t361.5 95.5q82 0 165 -24.5t153 -69.5t113.5 -115.5t43.5 -154.5q0 -109 -62 -187t-138 -78q-16 0 -28.5 10t-12.5 25q0 30 35 39q52 15 90.5 64.5t38.5 126.5q0 89 -65.5 156.5t-154 98.5t-178.5 31q-177 0 -316 -82t-216.5 -229.5
t-77.5 -335.5q0 -290 164.5 -463.5t441.5 -173.5q82 0 156 15.5t137.5 47t101 87t37.5 129.5q0 64 -41 107.5t-100 54.5q-39 -60 -113 -97t-149 -37q-145 0 -227 98t-82 249q0 93 33 174t102 133.5t160 52.5q83 0 127.5 -44.5t44.5 -104.5q0 -59 -40.5 -101.5t-99.5 -42.5
q-46 0 -83.5 24t-37.5 50q0 15 11 26t26 11q14 0 25 -8q37 -25 59 -25q25 0 43.5 17.5t18.5 48.5q0 30 -22.5 50.5t-71.5 20.5q-95 0 -156.5 -79.5t-61.5 -202.5q0 -126 61.5 -197.5t170.5 -71.5q134 0 211 117q12 18 37 18q79 0 156 -67.5t77 -173.5q0 -95 -45 -166.5
t-120.5 -111.5t-162 -59.5t-182.5 -19.5q-202 0 -358 91.5t-241 254t-85 369.5z" />
    <glyph glyph-name="uni0442" unicode="&#x442;" horiz-adv-x="1923" 
d="M123 1083q0 46 11.5 89.5t40 86t71.5 74t110 51t150 19.5q115 0 338.5 -26.5t333.5 -26.5q265 0 426 67q8 4 16 4q9 0 28.5 -12.5t45 -38.5t48.5 -61t38.5 -86t15.5 -107q0 -57 -15.5 -105t-40.5 -78t-45 -46.5t-40 -26.5q2 -234 27 -375t108 -235q10 -10 10 -27
q0 -12 -9.5 -36t-31.5 -56.5t-52.5 -61.5t-78.5 -49t-104 -20q-85 0 -146.5 30t-97 86t-52 126t-16.5 159v424q0 62 -43 62q-52 0 -91.5 -89.5t-59.5 -265.5q-2 -15 -12 -24.5t-25 -9.5q-17 0 -28 11t-11 28v276q0 16 -1 26.5t-5 23t-13 18.5t-24 6q-44 0 -77 -55t-50 -132
t-22 -168q-1 -15 -12.5 -24.5t-26.5 -9.5t-26 11t-11 28v223q0 51 -8 85t-15.5 52.5t-7.5 30.5q0 16 11 27.5t28 11.5q22 0 36.5 -26.5t24.5 -106.5q4 15 14 34t28 42.5t48 39t66 15.5q35 0 59.5 -13.5t36 -35t16.5 -41.5t5 -41q19 63 62.5 97t90.5 34q52 0 86.5 -34
t34.5 -106v-424q0 -92 17 -156.5t49.5 -100t73.5 -51t94 -15.5q64 0 115.5 37.5t78.5 101.5q-89 109 -119 285q-22 133 -22 385q0 27 27 37q52 17 83 69t31 123q0 66 -28 128t-74 95q-163 -67 -438 -67q-122 0 -339.5 26.5t-332.5 26.5q-144 0 -224.5 -64.5t-80.5 -177.5
q0 -73 26 -143q27 6 52 6q151 0 151 -239q0 -80 -23.5 -150t-59.5 -115.5t-67.5 -73.5t-58.5 -42q0 -106 57 -177t166 -71q79 0 133 47t95 131q14 31 41 31q26 0 39 -33q5 -11 14 -34t15 -35.5t17 -32t24 -30.5t32 -22.5t44.5 -16.5t57.5 -5q80 0 170 53q9 6 21 6
q15 0 26 -11t11 -26q0 -24 -19 -34q-52 -31 -99.5 -48.5t-109.5 -17.5q-54 0 -99 16t-70.5 35.5t-45.5 48t-25.5 41.5t-10.5 27q-10 -19 -23.5 -38t-45.5 -53t-82 -55.5t-110 -21.5q-136 0 -218.5 85.5t-82.5 262.5q0 10 7 21t16 16q77 35 131.5 121.5t54.5 200.5
q0 161 -71 161q-20 0 -42 -6t-32 -6q-25 0 -41 33q-43 88 -43 194z" />
    <glyph glyph-name="uni0443" unicode="&#x443;" horiz-adv-x="1460" 
d="M82 1233q0 9 6 18q42 69 108 110.5t140 41.5q119 0 192.5 -66.5t73.5 -189.5v-244q0 -53 4 -92.5t13.5 -73.5t29 -51.5t47.5 -17.5q56 0 94.5 58t45.5 169q3 39 36 39q17 0 28 -11t11 -26v-328q0 -69 -24.5 -121t-64.5 -79.5t-82 -40.5t-85 -13q-149 0 -270 109
q-34 -18 -59 -58.5t-25 -101.5q0 -69 37 -125.5t98.5 -92.5t136.5 -55.5t154 -19.5q246 0 389.5 160.5t143.5 437.5v547q0 209 -187 209q-76 0 -131 -44t-55 -126q0 -32 5 -59t5 -33q0 -14 -10.5 -25.5t-26.5 -11.5q-29 0 -40 42t-11 87q0 64 26 114t67 78t84.5 42t86.5 14
q123 0 193.5 -71t70.5 -216v-547q0 -136 -32.5 -248.5t-89.5 -190.5t-134.5 -132t-166.5 -79t-187 -25q-220 0 -362 105t-142 265q0 92 44 153.5t106 86.5q8 4 18 4q19 0 29 -10q108 -105 235 -105q14 0 28 2t36 7t41 17.5t36.5 30.5t27.5 49t10 70v99q-14 -27 -48.5 -52.5
t-89.5 -25.5q-88 0 -130 76t-42 237v244q0 89 -49.5 133.5t-138.5 44.5q-98 0 -170 -96q29 -84 29 -252v-59q0 -129 25 -192t75 -108q12 -12 12 -28q0 -17 -12.5 -29t-28.5 -12q-11 0 -24 10q-28 26 -46 49.5t-38.5 64.5t-30.5 102.5t-10 142.5v61q0 161 -27 229
q-8 16 -8 25z" />
    <glyph glyph-name="uni0444" unicode="&#x444;" horiz-adv-x="1796" 
d="M82 690q0 264 141 413.5t379 149.5q25 0 39 -2q0 98 -37 154q-6 9 -6 20q0 12 6 21q16 24 39 48t59 51t87.5 44t109.5 17q133 0 213 -89t80 -210q0 -20 -4 -52q20 2 61 2q58 0 118 -16.5t123.5 -58.5t112 -104t80 -163t31.5 -225q0 -116 -33 -220.5t-93 -184t-150 -126
t-197 -46.5q-196 0 -288.5 93.5t-92.5 264.5v47q-18 -34 -62.5 -55t-92.5 -21q-88 0 -147.5 66.5t-59.5 181.5q0 114 58.5 177t148.5 63q92 0 92 -45q0 -18 -11 -29.5t-24 -11.5q-9 0 -24.5 4t-32.5 4q-67 0 -98.5 -46.5t-31.5 -115.5q0 -76 35.5 -123t94.5 -47q79 0 117 60
t38 161v295q0 17 11 28t28 11q16 0 27.5 -11t11.5 -28v-184q54 78 156 78q88 0 146 -63t58 -177q0 -120 -61.5 -184t-146.5 -64q-91 0 -91 50q0 15 11 25.5t28 10.5q2 0 18 -4t34 -4q58 0 94.5 44.5t36.5 125.5q0 77 -33.5 119.5t-93.5 42.5q-72 0 -114 -56t-42 -165v-160
q0 -146 72.5 -213.5t230.5 -67.5q76 0 141 28t111 76.5t78.5 112.5t48.5 136t16 147q0 102 -22.5 185t-61 139t-89.5 94t-106 55t-114 17q-37 0 -66 -5.5t-40 -5.5q-13 0 -25 9.5t-12 29.5q0 12 7 40t7 59q0 95 -61.5 158t-153.5 63q-29 0 -60 -5.5t-77 -31t-78 -68.5
q17 -33 26 -74.5t10 -68t1 -72.5q0 -39 -41 -39q-7 0 -34 3.5t-44 3.5q-211 0 -326.5 -129t-115.5 -357q0 -203 105.5 -334t279.5 -131q47 0 82 7.5t47 7.5q17 0 27 -12t10 -23q0 -10 -4.5 -37.5t-4.5 -46.5q0 -117 64.5 -180.5t167.5 -63.5q74 0 128 31t79 88q9 22 37 22
q36 0 36 -38q0 -9 -4 -17q-9 -19 -20 -37t-34.5 -42.5t-52 -42t-73 -30t-96.5 -12.5q-77 0 -138.5 28.5t-97.5 75t-54.5 101t-18.5 111.5q0 27 2 39q-51 -7 -82 -7q-139 0 -245.5 73.5t-162 196.5t-55.5 273z" />
    <glyph glyph-name="uni0445" unicode="&#x445;" horiz-adv-x="1619" 
d="M102 326q0 40 7 56.5t22 23.5q74 28 138.5 94.5t110 139t90 141.5t97.5 114t113 45q93 0 131 -98q5 14 13 28t22.5 31.5t38.5 28t53 10.5q38 0 71 -15.5t33 -43.5q0 -15 -9.5 -26t-24.5 -11q-10 0 -30 9t-40 9q-41 0 -64.5 -47t-23.5 -108q0 -63 25.5 -111.5t76.5 -48.5
q36 0 66.5 24.5t54 65t46.5 90.5t49.5 103.5t57 100.5t76 85t99.5 55q4 24 4 39q0 85 -58.5 150t-148.5 65q-33 0 -62.5 -6.5t-50.5 -14t-43.5 -25.5t-35 -29t-30.5 -36.5t-25 -36.5t-24 -40t-22 -37q-17 -29 -47 -29q-26 0 -47 21q-38 41 -79 77.5t-94 74t-113 59.5
t-117 22q-96 0 -154.5 -57t-58.5 -150q0 -88 55 -138t147 -50q19 0 30 -11t11 -28q0 -15 -12 -27t-27 -12q-129 0 -205.5 75.5t-76.5 190.5q0 123 81 204t210 81q107 0 214.5 -54t229.5 -186q24 43 41 69.5t48.5 62.5t64.5 57t83 36t109 15q126 0 205.5 -89t79.5 -200
q0 -47 -7 -72.5t-14 -31.5t-20 -9q-46 -11 -84.5 -40t-65 -68t-51.5 -86t-44.5 -94t-45 -91t-51.5 -78t-64 -54.5t-84 -20.5q-100 0 -139 100q-7 -21 -19.5 -40.5t-44.5 -39.5t-75 -20q-36 0 -78.5 20.5t-42.5 49.5q0 15 10.5 27t26.5 12q12 0 37.5 -15.5t46.5 -15.5
q30 0 51.5 15.5t31 42t13.5 51t4 51.5q0 68 -27 111.5t-67 43.5q-30 0 -60 -23t-58 -62t-58 -87.5t-66.5 -101.5t-76 -101t-93 -90.5t-112.5 -66.5l37 69q-13 -47 -13 -80q0 -104 72 -172.5t170 -68.5q58 0 99.5 13t74.5 44.5t55 66.5t54 97q16 35 53 35q26 0 47 -21
q130 -127 226.5 -181t201.5 -54q100 0 153.5 65.5t53.5 153.5q0 83 -51.5 138.5t-137.5 62.5q-13 1 -23.5 13t-10.5 26q0 38 38 38t81.5 -17t85 -49t69 -88t27.5 -124q0 -53 -17.5 -104.5t-51 -95t-90 -70.5t-126.5 -27q-44 0 -89 10t-80.5 23.5t-77.5 38t-67 42t-62 48
t-50.5 43t-42.5 39.5q-25 -53 -50 -90t-64.5 -75.5t-97 -58.5t-130.5 -20q-132 0 -226 91.5t-94 234.5z" />
    <glyph glyph-name="uni0446" unicode="&#x446;" horiz-adv-x="1705" 
d="M133 1214q0 9 6 21q81 166 283 166q133 0 201.5 -75.5t68.5 -215.5v-530q0 -121 74 -121q77 0 126.5 106t49.5 301q0 17 11.5 28t27.5 11q17 0 28 -11t11 -28q0 -92 6.5 -157.5t22.5 -108t24.5 -59t28.5 -45.5q42 20 69.5 35.5t62.5 40t57.5 50.5t43.5 61t31 79.5
t10 97.5v254q0 52 -13.5 91.5t-33 61.5t-47 36t-50.5 18t-48 4q-60 0 -116 -24t-85 -64q22 -47 29.5 -83.5t7.5 -117.5q0 -16 -11 -27.5t-28 -11.5q-15 0 -27 12t-12 27q0 39 -1 60t-9 53.5t-23 60.5q-8 12 -8 21q0 8 4 20q27 67 109 109.5t170 42.5q126 0 198 -77.5
t72 -211.5v-254q0 -64 -12.5 -119t-37.5 -96.5t-52 -74t-66 -59t-69 -43.5t-70 -36q41 -55 41 -117q0 -61 -37.5 -103t-93.5 -42q-52 0 -87.5 37.5t-35.5 97.5q0 49 26.5 89.5t71.5 64.5q-49 76 -57 114q-23 -85 -81.5 -138.5t-127.5 -53.5q-76 0 -114 56t-38 143v530
q0 110 -46 161.5t-146 51.5q-142 0 -205 -104q25 -41 32 -104.5t7 -188.5q0 -102 -1 -230t-1 -168q0 -87 9.5 -151.5t35.5 -123t69.5 -95.5t114 -58.5t166.5 -21.5h551q17 0 28 -11t11 -28q0 -95 -51 -178q68 -43 162 -43q54 0 95.5 29t64.5 76.5t34.5 100t11.5 107.5
q0 104 -42 178t-117 103q-25 9 -25 34q0 17 11 27t28 10q41 0 88.5 -40t75.5 -85q59 -92 59 -227q0 -70 -17 -137.5t-50 -125t-89.5 -93t-127.5 -35.5q-69 0 -124 17t-116 65q-14 8 -14 28q0 11 27 56.5t36 93.5h-510q-90 0 -162.5 17.5t-121 46t-84.5 72t-55.5 86.5
t-31.5 100t-15 103t-3 103q0 30 1 183.5t1 214.5q0 126 -8 177.5t-29 88.5q-8 12 -8 22zM1001 305q0 -25 15.5 -46t40.5 -21q29 0 45 22.5t16 54.5q0 41 -39 86q-37 -17 -57.5 -39t-20.5 -57z" />
    <glyph glyph-name="uni0447" unicode="&#x447;" horiz-adv-x="1540" 
d="M82 1233q0 8 6 20t16.5 27t33.5 37.5t51.5 40t73.5 30.5t95 13q101 0 168.5 -65.5t67.5 -184.5v-225q0 -119 76 -119q25 0 46.5 12.5t36.5 29t29 47t21.5 52t15.5 59t11 53t8 48.5q6 37 34 37q18 0 28.5 -12.5t10.5 -28.5v-313q0 -53 15 -90t41 -56t54 -27t60 -8
q30 0 57.5 9.5t57 33.5t47 76.5t17.5 128.5v275q0 190 -170 190q-111 0 -183 -82q-14 -14 -30 -14q-15 0 -26 11t-11 26q0 13 10 26q94 111 240 111q86 0 143.5 -40t80.5 -98t23 -130v-275q0 -64 -14 -120t-43 -103.5t-80 -75t-119 -27.5q-119 0 -182 72t-63 187v61
q-26 -59 -70 -91t-96 -32q-78 0 -116 54t-38 143v225q0 45 -13.5 79t-31.5 51t-42 27t-40 12.5t-31 2.5q-125 0 -192 -92q26 -71 31.5 -124t5.5 -226q0 -211 96.5 -327t271.5 -116q71 0 127 7.5t83 17t50.5 17t36.5 7.5q14 0 28.5 -11t14.5 -32v-127q0 -121 52.5 -180
t160.5 -59q66 0 120 33.5t79 89.5q-36 51 -49.5 117t-13.5 163q0 15 11.5 27t26.5 12q17 0 28 -11.5t11 -27.5q0 -91 12.5 -146t47.5 -99q10 -13 10 -27q0 -11 -4 -19q-31 -85 -107 -137.5t-172 -52.5q-130 0 -210 77.5t-80 239.5v84q-125 -41 -263 -41q-203 0 -324.5 136
t-121.5 385q0 157 -5 214t-30 115q-1 2 -3 7t-3.5 9t-1.5 7z" />
    <glyph glyph-name="uni0448" unicode="&#x448;" horiz-adv-x="2004" 
d="M133 1192q0 17 14 48.5t42 69.5t84.5 65.5t129.5 27.5q67 0 119 -20.5t81 -50t47 -70t24 -74.5t6 -68v-493q0 -58 6.5 -95t19.5 -51t21.5 -17t22.5 -3q32 0 59 37.5t46 102t31.5 135.5t20.5 153q3 39 41 39q37 0 37 -41q0 -16 -3 -72.5t-3 -87.5q0 -266 74 -266
q20 0 38 11.5t32 34.5t25.5 48t21.5 63.5t17 68t13.5 74t10 69t8.5 65.5q1 15 12 24t26 9t26 -11t11 -28v-64q0 -91 2 -140t15.5 -116.5t40.5 -126.5q4 -8 4 -20q0 -15 -10.5 -27t-26.5 -12q-28 0 -37 20q-36 82 -49 172q-14 -41 -28.5 -71.5t-36 -60t-50.5 -45t-65 -15.5
q-35 0 -62.5 17t-42.5 45.5t-23 54t-12 51.5q-8 -27 -19.5 -51.5t-31 -53t-49 -46t-63.5 -17.5q-148 0 -148 244v493q0 61 -18 103.5t-48.5 63.5t-62.5 29.5t-70 8.5q-77 0 -123.5 -38t-64.5 -89q22 -39 35.5 -145.5t13.5 -204.5v-432q0 -338 307 -338h838q166 0 269 64
t132 184q-63 49 -87.5 119.5t-24.5 197.5v457q0 101 -52 163t-137 62q-144 0 -213 -182q-12 -31 -41 -31q-23 0 -38 31q-79 182 -236 182q-51 0 -98.5 -21t-79.5 -59q-14 -14 -31 -14q-15 0 -27 13.5t-12 27.5q0 11 10 24q44 51 106 79t130 28q62 0 114 -20t84.5 -51
t50 -55.5t27.5 -47.5q10 22 25.5 45t45.5 55.5t78 53t105 20.5q120 0 193.5 -85.5t73.5 -217.5v-457q0 -121 22.5 -176.5t77.5 -93.5q16 -10 16 -31q0 -16 -8 -43q-4 -15 -7 -23.5t-13 -33.5t-21.5 -42.5t-32.5 -44.5t-45 -46.5t-60.5 -41.5t-78 -35.5t-97.5 -22.5t-120 -9
h-838q-82 0 -147 20t-105.5 56t-68 77t-41 91.5t-18.5 90t-5 81.5v432q0 91 -13 192t-32 129q-8 8 -8 23z" />
    <glyph glyph-name="uni0449" unicode="&#x449;" horiz-adv-x="2066" 
d="M133 1190q0 17 14 48.5t42 69.5t84.5 65.5t129.5 27.5q67 0 119 -20.5t81 -50t47 -70t24 -74.5t6 -68v-483q0 -77 9 -116.5t21 -48.5t35 -9q38 0 70 47.5t51 122t30 138.5t17 124q2 14 13 24.5t24 10.5q16 0 27.5 -11.5t11.5 -29.5q0 -32 -1 -95t-1 -87q0 -244 70 -244
q20 0 37.5 9.5t31 31t24.5 42t19.5 56.5t14.5 60.5t12 68t8.5 64t7.5 63.5l5 37q1 15 13 25t27 10q13 0 24 -11t13 -26q3 -58 14.5 -114.5t33.5 -113.5t35 -86.5t38 -82.5q128 47 179 81q129 94 132 265v262q0 98 -55.5 159.5t-144.5 61.5q-76 0 -135 -53.5t-95 -136.5
q-14 -29 -41 -29q-24 0 -36 31q-74 190 -240 190q-62 0 -108 -26t-68 -54q-14 -14 -31 -14q-15 0 -27 13.5t-12 27.5q0 11 10 24q43 50 107.5 78.5t128.5 28.5q189 0 281 -180q9 17 19.5 34t35 45t52 48t70 35.5t89.5 15.5q121 0 199.5 -84t78.5 -215v-262q0 -78 -20 -140.5
t-51.5 -104.5t-81 -76.5t-95 -55t-108.5 -41.5q39 -70 39 -123q0 -22 -6.5 -44.5t-21 -45.5t-42.5 -38t-65 -15q-18 0 -38 6t-41.5 20.5t-35.5 45t-14 73.5q0 35 16 66.5t39.5 51.5t39 30t25.5 14q-52 101 -83 194q-1 -4 -6 -27.5t-9 -40t-13 -44t-18.5 -47.5t-25.5 -43
t-34 -37.5t-43 -24.5t-54 -10q-111 0 -137 170q-70 -170 -175 -170q-34 0 -60 11t-41 34t-24 44t-12.5 56t-4.5 54t-1 53v483q0 61 -18 103.5t-48.5 63.5t-62.5 29.5t-70 8.5q-77 0 -123.5 -38t-64.5 -89q22 -39 35.5 -145.5t13.5 -204.5v-438q0 -155 84 -242.5t232 -87.5
h981q17 0 27.5 -11t10.5 -28q0 -95 -51 -178q68 -43 162 -43q54 0 96 29t65 76.5t34.5 100t11.5 107.5q0 104 -42.5 178t-117.5 103q-24 9 -24 34q0 17 11 27t28 10q41 0 88 -40t75 -85q60 -94 60 -227q0 -70 -17 -137.5t-50.5 -125t-90 -93t-127.5 -35.5q-67 0 -122 17.5
t-118 64.5q-14 11 -14 28q0 11 27.5 56t36.5 94h-940q-180 0 -287 111t-107 297v438q0 91 -13 192t-32 129q-8 8 -8 23zM1294 301q0 -32 15 -55t43 -23q27 0 44 19.5t17 58.5q0 42 -37 100q-35 -15 -58.5 -41.5t-23.5 -58.5z" />
    <glyph glyph-name="uni044A" unicode="&#x44a;" horiz-adv-x="1531" 
d="M31 1116q0 138 84 212.5t207 74.5q13 0 141.5 -11.5t181.5 -11.5q113 0 186 37q12 6 23 6q14 0 23 -6q57 -40 88.5 -103.5t31.5 -135.5q0 -81 -28 -148q46 4 67 4q130 0 229.5 -64t152 -176t52.5 -253q0 -107 -36.5 -205t-107 -177.5t-186.5 -127t-263 -47.5
q-173 0 -309.5 65t-218 194.5t-81.5 303.5q0 95 23 172t59.5 126t86 82t99 46.5t101.5 13.5q47 0 80 -8q13 -3 22 -13.5t9 -23.5v-385q0 -195 131 -195q36 0 62 19.5t37.5 51t16 57.5t4.5 51q0 75 -27 111t-69 36q-8 0 -25.5 -3t-25.5 -3q-15 0 -24 11t-9 26q0 47 84 47
q73 0 123.5 -58t50.5 -167q0 -103 -50.5 -179.5t-147.5 -76.5q-101 0 -155 73.5t-54 198.5v352q-10 2 -33 2q-35 0 -70.5 -8.5t-76.5 -34t-72 -64t-51.5 -105.5t-20.5 -152q0 -222 144 -354t387 -132q232 0 374 132.5t142 347.5q0 57 -10.5 112.5t-38 112.5t-69 100
t-109.5 70t-154 27q-13 0 -41.5 -3.5t-44.5 -3.5q-18 0 -30.5 11.5t-12.5 29.5q0 13 8 29q18 37 23.5 66.5t5.5 85.5q0 98 -70 161q-79 -36 -205 -36q-57 0 -185 11t-138 11q-100 0 -156.5 -55.5t-56.5 -153.5q0 -44 14.5 -79.5t38.5 -57.5t43 -33.5t39 -19.5q24 -9 24 -37
q0 -15 -11 -25t-26 -10q-19 0 -50.5 16t-66 45.5t-59 83t-24.5 117.5z" />
    <glyph glyph-name="uni044B" unicode="&#x44b;" horiz-adv-x="1822" 
d="M123 1202q0 13 4 21q30 81 105.5 130.5t156.5 49.5q131 0 199.5 -76.5t68.5 -204.5v-370q51 57 131 57q95 0 154 -67t59 -191q0 -127 -60.5 -197.5t-152.5 -70.5q-91 0 -149.5 69t-58.5 195v575q0 101 -49 152t-140 51q-58 0 -108.5 -32.5t-75.5 -82.5q28 -38 38.5 -95
t10.5 -163v-489q0 -96 37.5 -174t100.5 -126.5t140.5 -74t161.5 -25.5q194 0 326 101q11 8 25 8q15 0 25.5 -10t10.5 -27q0 -22 -14 -33q-80 -62 -169 -89t-204 -27q-137 0 -253.5 55t-190.5 165.5t-74 256.5v489q0 114 -10 157t-35 71q-10 10 -10 22zM657 547
q0 -102 39.5 -144.5t91.5 -42.5q20 0 40.5 7.5t43.5 26t37.5 59t14.5 98.5q0 88 -35 134t-101 46q-59 0 -95 -50.5t-36 -133.5zM739 1042q0 28 25 37q62 23 139 23q138 0 242 -60q-7 101 -45 164q-6 9 -6 23q0 11 8 24q95 150 260 150q118 0 197 -74.5t79 -212.5v-690
q0 -150 52 -221q10 -13 10 -25q0 -13 -10 -28q-52 -78 -113 -111t-150 -33q-135 0 -208.5 92.5t-73.5 245.5v445q0 17 11.5 27.5t27.5 10.5q17 0 28 -10.5t11 -27.5v-445q0 -116 50 -188t154 -72q66 0 109 21t78 73q-53 85 -53 246v690q0 55 -16.5 95.5t-39.5 61.5
t-53.5 33.5t-50.5 15.5t-39 3q-118 0 -184 -100q45 -90 45 -221q0 -25 -17 -38.5t-39 -13.5q-13 0 -22 6q-114 66 -242 66q-50 0 -86 -9t-43 -9q-15 0 -25 9.5t-10 26.5z" />
    <glyph glyph-name="uni044C" unicode="&#x44c;" horiz-adv-x="1423" 
d="M113 1241q0 11 8 23q47 66 118.5 101.5t155.5 35.5q121 0 186.5 -76.5t65.5 -212.5v-344q51 45 117 45q93 0 149 -76.5t56 -175.5q0 -118 -56 -196q-54 -76 -147 -76q-21 0 -43.5 4.5t-51 20.5t-50.5 42t-37 73.5t-15 109.5v573q0 209 -172 209q-125 0 -198 -86
q34 -72 34 -256v-416q0 -75 12.5 -140.5t48 -133.5t92 -116.5t152.5 -79t222 -30.5q238 0 380 142.5t142 378.5q0 102 -32.5 186t-85.5 138t-119.5 83t-137.5 29q-50 0 -88 -12.5t-47 -12.5q-37 0 -37 37q0 28 25 37q79 31 149 31q77 0 155 -33t145.5 -94.5t110 -163
t42.5 -225.5q0 -179 -78 -316.5t-214.5 -210.5t-309.5 -73q-289 0 -447.5 152t-158.5 427v416q0 185 -35 242q-6 9 -6 20zM647 553q0 -81 28 -133.5t91 -52.5q57 0 90 51.5t33 142.5q0 67 -31.5 119.5t-93.5 52.5q-44 0 -80.5 -41.5t-36.5 -138.5z" />
    <glyph glyph-name="uni044D" unicode="&#x44d;" horiz-adv-x="1310" 
d="M102 342q0 97 61.5 167.5t153.5 70.5q20 0 29 -15q41 -44 102.5 -76t129.5 -32q55 0 95 20.5t60 54.5t28.5 59.5t12.5 53.5l-25 17q-25 16 -38 23t-37 15.5t-45 8.5q-31 0 -61 -14.5t-44 -14.5q-39 0 -39 37q0 26 43.5 46.5t100.5 20.5q74 0 151 -51q-4 117 -62.5 182.5
t-137.5 65.5q-41 0 -69.5 -11.5t-39.5 -24.5t-26 -24.5t-33 -11.5q-15 0 -25 11.5t-10 25.5q0 36 63 74.5t140 38.5q125 0 201.5 -98t76.5 -234q0 -27 -2 -41q45 -20 88 -20q85 0 131.5 53.5t46.5 148.5q0 89 -36 172t-102.5 150.5t-173.5 108t-237 40.5q-162 0 -272.5 -86
t-110.5 -196q0 -48 15.5 -81.5t38 -49.5t45 -27.5t38 -23.5t15.5 -29q0 -33 -41 -33q-12 0 -32.5 6.5t-48 24t-51 43t-40 70.5t-16.5 100q0 147 132 253.5t328 106.5q144 0 264.5 -45.5t198.5 -121.5t121 -175t43 -207q0 -69 -20 -122t-48 -82t-65.5 -47t-66.5 -23.5
t-56 -5.5q-54 0 -98 18q-5 -23 -12.5 -46t-28 -58t-48 -60.5t-74.5 -44t-105 -18.5q-75 0 -147.5 32t-129.5 89q-50 -7 -85.5 -48.5t-35.5 -109.5q0 -87 65.5 -151.5t164 -94.5t211.5 -30q128 0 228 39t160.5 104.5t93 143t38.5 163.5q2 16 13 26.5t28 10.5q15 0 26 -12
t11 -27q0 -28 -6.5 -65t-24.5 -88.5t-45.5 -101t-75 -99.5t-107.5 -87.5t-147.5 -61t-191.5 -23.5q-222 0 -370.5 98.5t-148.5 255.5z" />
    <glyph glyph-name="uni044E" unicode="&#x44e;" horiz-adv-x="1792" 
d="M133 1161q0 7 4 19q75 223 291 223q108 0 188 -77t80 -212v-348q49 91 125.5 158t126.5 67q14 0 24.5 -9.5t10.5 -29.5q0 -13 -8.5 -34.5t-18 -45.5t-18 -71t-8.5 -105q0 -94 40.5 -163.5t116.5 -69.5q69 0 112.5 78t43.5 184q0 71 -17 121t-41 73t-48 38t-41 28.5
t-17 30.5q0 15 11 26t28 11q15 0 38.5 -10.5t52.5 -36t53.5 -61t41.5 -93.5t17 -127q0 -48 -11.5 -101t-36 -109.5t-73 -93t-113.5 -36.5t-113.5 32t-73.5 82.5t-36.5 100t-11.5 96.5q0 98 35 191q-62 -46 -126.5 -167t-64.5 -259q0 -17 -11.5 -27t-27.5 -10t-27.5 11
t-11.5 28v651q0 56 -18.5 98.5t-42.5 63t-55 32.5t-47 14.5t-27 2.5q-153 0 -211 -154q62 -77 62 -239v-410q0 -116 -20 -189.5t-42 -105.5q56 -149 211 -149q8 0 16 0.5t28 4.5t36.5 11t37.5 22t36 35.5t26 53.5t13 74q2 17 11.5 27.5t24.5 10.5q23 0 33 -18
q56 -99 163.5 -160t229.5 -61q253 0 396 173t143 478q0 267 -144.5 431.5t-377.5 164.5q-49 0 -91.5 -9t-78 -27.5t-55 -32t-48.5 -35.5q-15 -11 -30 -11q-12 0 -22.5 12t-10.5 25q0 19 10 29q138 127 326 127q140 0 254.5 -53.5t189.5 -145.5t115.5 -214t40.5 -261
q0 -158 -39 -290t-114.5 -230.5t-194 -153.5t-269.5 -55q-66 0 -128 15.5t-103.5 36t-80.5 49t-56 45t-33 34.5q-10 -29 -28.5 -57.5t-48 -57.5t-76 -47t-101.5 -18q-204 0 -287 209q-6 15 -6 24q0 14 10 27q16 22 25.5 41.5t20 77.5t10.5 143v410q0 71 -14 126.5t-37 74.5
q-17 14 -17 28z" />
    <glyph glyph-name="uni044F" unicode="&#x44f;" horiz-adv-x="1507" 
d="M113 299q0 14 10 27t24 14q48 6 85 22.5t56 32.5t54 51q15 15 31 15q15 0 26 -11.5t11 -25.5q0 -15 -9 -27q-33 -37 -55.5 -57.5t-64.5 -42.5t-93 -31q0 -67 60.5 -128.5t150.5 -61.5q204 0 267 286q3 12 13.5 20.5t22.5 8.5h201q17 0 28 -11.5t11 -27.5v-102
q0 -45 14 -79t33.5 -51t45 -27t42.5 -12.5t33 -2.5q60 0 114 34.5t68 75.5q-16 36 -24.5 87.5t-9.5 86t-1 95.5v604q0 137 -115 200.5t-364 63.5q-243 0 -387.5 -117.5t-144.5 -314.5q0 -133 70.5 -217t183.5 -84q170 0 217 139q-74 6 -119 55t-45 119q0 89 63.5 141
t157.5 52q107 0 158 -51q10 -10 10 -27v-455q0 -16 -11 -27.5t-28 -11.5q-15 0 -27 12t-12 27v436q-32 19 -90 19q-12 0 -25 -1t-36 -7.5t-39.5 -18t-29.5 -34.5t-13 -54q0 -94 131 -94q13 0 28 -9.5t15 -27.5q0 -22 -7.5 -51.5t-28.5 -67t-53 -68t-88.5 -52t-127.5 -21.5
q-140 0 -236 104.5t-96 274.5q0 124 49.5 222.5t134.5 160.5t194 94.5t232 32.5q129 0 227 -17.5t174 -56.5t116 -106.5t40 -161.5v-604q0 -93 6 -150.5t13.5 -72t13.5 -24.5t6 -20q0 -20 -16.5 -50.5t-47 -62.5t-84 -54.5t-116.5 -22.5q-113 0 -179.5 70t-66.5 180v63h-131
q-47 -160 -122.5 -237.5t-211.5 -77.5q-133 0 -209.5 82.5t-76.5 218.5z" />
    <glyph glyph-name="uni0451" unicode="&#x451;" horiz-adv-x="1388" 
d="M123 428q0 60 8.5 97t28.5 87q9 23 37 23q34 0 34 -35q0 -5 -15 -61.5t-15 -110.5q0 -78 30.5 -142.5t82 -108.5t120 -74t143 -44t152.5 -14q69 0 131 7t125.5 25.5t109 48t74.5 77.5t29 110q0 46 -19.5 83.5t-48.5 59t-54.5 33t-43.5 13.5q-13 -21 -36 -43.5t-59 -47.5
t-88 -41t-110 -16q-109 0 -183.5 62.5t-88.5 185.5q-31 7 -65.5 19.5t-84.5 43t-88.5 69.5t-66 103.5t-27.5 141.5q0 132 78.5 237.5t206 161.5t276.5 56q245 0 381.5 -93t136.5 -233q0 -99 -61.5 -164t-138.5 -65q-37 0 -37 36q0 29 45 41q56 13 85.5 53.5t29.5 98.5
t-32.5 104t-80.5 72t-110.5 43t-115.5 23t-102 6q-206 0 -344.5 -109.5t-138.5 -267.5q0 -59 22 -109t50.5 -80.5t68.5 -55.5t64.5 -34.5t50.5 -17.5q6 105 78 172.5t168 67.5q78 0 131 -49.5t53 -118.5q0 -20 -5.5 -41t-23.5 -45.5t-46 -43.5t-77.5 -31.5t-113.5 -12.5
q-43 0 -84 6q4 -27 15 -51t31.5 -49t57.5 -39.5t86 -14.5q76 0 140.5 32.5t95.5 94.5q14 21 35 21q30 0 64.5 -9.5t70.5 -31t65 -51.5t47.5 -76t18.5 -99q0 -165 -146.5 -255.5t-400.5 -90.5q-151 0 -269.5 38t-190.5 103.5t-109 146.5t-37 173zM279 1634q0 71 61.5 116.5
t157.5 45.5q66 0 106.5 -35t40.5 -92q0 -64 -62.5 -107.5t-154.5 -43.5q-69 0 -109 31t-40 85zM348 1636q0 -53 82 -53q61 0 104.5 24t43.5 62q0 30 -25 45t-59 15q-59 0 -102.5 -25.5t-43.5 -67.5zM543 1042q0 20 14.5 35t34.5 15t34.5 -15t14.5 -35t-14.5 -34.5
t-34.5 -14.5t-34.5 14.5t-14.5 34.5zM545 666q52 -9 88 -9q31 0 60.5 4t60 13.5t49 30t18.5 49.5q0 44 -31.5 67t-74.5 23q-68 0 -117 -48.5t-53 -129.5zM760 1634q0 79 66 120.5t153 41.5q63 0 105 -33.5t42 -93.5q0 -48 -34.5 -82.5t-82.5 -49.5t-100 -15q-63 0 -106 28.5
t-43 83.5zM764 1042q0 20 14.5 35t34.5 15t34.5 -15t14.5 -35t-14.5 -34.5t-34.5 -14.5t-34.5 14.5t-14.5 34.5zM829 1636q0 -53 82 -53q55 0 101.5 24t46.5 62q0 30 -25 45t-59 15q-59 0 -102.5 -25.5t-43.5 -67.5z" />
    <glyph glyph-name="uni0454" unicode="&#x454;" horiz-adv-x="1314" 
d="M92 844q0 163 82.5 296t228.5 209t326 76q79 0 163.5 -27t156 -74.5t117.5 -120.5t46 -156q0 -107 -66.5 -179.5t-158.5 -72.5q-39 0 -39 34q0 33 31 39q74 14 115 59t41 120q0 69 -41.5 128t-104 95.5t-131.5 57t-129 20.5q-105 0 -196.5 -29t-157 -78t-112.5 -114
t-70 -137t-23 -146q0 -187 166 -187q53 0 113 31q-3 18 -3 35q0 139 76.5 236.5t188.5 97.5q123 0 200 -92q9 -12 9 -27t-10.5 -26t-24.5 -11q-21 0 -31 14q-58 64 -143 64q-71 0 -127 -67.5t-60 -178.5q77 43 138 43q66 0 133 -41q18 -12 18 -35q0 -17 -10 -27.5t-27 -10.5
q-11 0 -20 6q-52 30 -97 30q-59 0 -129 -51q11 -105 71.5 -162t141.5 -57q105 0 218 113q18 18 51 18q17 0 40.5 -7.5t51.5 -26.5t51 -46.5t39 -72.5t16 -99q0 -83 -41 -151q-42 -69 -114.5 -114t-154 -64t-175.5 -19q-162 0 -298.5 67.5t-221.5 186.5q-46 64 -75.5 141
t-29.5 146q0 13 10.5 25t26.5 12q15 0 25 -10.5t12 -24.5q10 -86 50.5 -167t107 -148.5t169 -108.5t224.5 -41q71 0 138 13t130 42t101.5 84.5t38.5 130.5q0 64 -33.5 113.5t-91.5 58.5q-119 -129 -265 -129q-112 0 -188.5 71.5t-97.5 184.5q-57 -26 -121 -26
q-116 0 -180 71.5t-64 192.5z" />
    <glyph glyph-name="uni0456" unicode="&#x456;" horiz-adv-x="1228" 
d="M133 1161q0 102 72.5 172t183.5 70q80 0 190.5 -13.5t161.5 -13.5q126 0 195 39q9 6 22 6q17 0 27 -10q90 -90 90 -203q0 -62 -25 -121t-67 -94q-11 -8 -25 -8t-25 10t-11 25q0 21 12 33q63 63 63 155q0 77 -47 127q-75 -37 -209 -37q-61 0 -171 13.5t-181 13.5
q-50 0 -87 -17t-55.5 -44t-27 -53t-8.5 -50q0 -75 43 -121q57 17 74 17q64 0 106.5 -41.5t42.5 -126.5v-471q0 -39 -37 -39q-215 0 -215 -162q0 -47 16 -88t42 -61q98 34 196 34q77 0 164 -12t166 -12q98 0 153.5 44t55.5 122q0 79 -51 137q-38 -14 -78 -14q-59 0 -99 42.5
t-40 127.5v317q0 39 38 39q18 0 28.5 -10.5t10.5 -28.5v-317q0 -93 68 -93q25 0 50 12.5t36 12.5q30 0 72.5 -69.5t42.5 -155.5q0 -117 -81 -180.5t-206 -63.5q-85 0 -179 12.5t-151 12.5q-69 0 -134 -19.5t-69 -19.5q-38 0 -83.5 66t-45.5 165q0 63 24.5 111t63 74.5
t80.5 39.5t84 13v434q0 90 -71 90q-20 0 -44 -11.5t-34 -11.5q-44 0 -80.5 66.5t-36.5 138.5zM735 1012q0 23 15.5 39t37.5 16q23 0 39.5 -16t16.5 -39t-16.5 -39.5t-39.5 -16.5q-22 0 -37.5 16.5t-15.5 39.5z" />
    <glyph glyph-name="uni0457" unicode="&#x457;" horiz-adv-x="1228" 
d="M133 1161q0 -72 36.5 -138.5t80.5 -66.5q10 0 34 11.5t44 11.5q71 0 71 -90v-434q-42 0 -84 -13t-80.5 -39.5t-63 -74.5t-24.5 -111q0 -99 45.5 -165t83.5 -66q4 0 69 19.5t134 19.5q57 0 151 -12.5t179 -12.5q125 0 206 63.5t81 180.5q0 86 -42.5 155.5t-72.5 69.5
q-11 0 -36 -12.5t-50 -12.5q-68 0 -68 93v317q0 18 -10.5 28.5t-28.5 10.5q-38 0 -38 -39v-317q0 -85 40 -127.5t99 -42.5q40 0 78 14q51 -58 51 -137q0 -78 -55.5 -122t-153.5 -44q-79 0 -166 12t-164 12q-98 0 -196 -34q-26 20 -42 61t-16 88q0 162 215 162q37 0 37 39
v471q0 85 -42.5 126.5t-106.5 41.5q-17 0 -74 -17q-43 46 -43 121q0 24 8.5 50t27 53t55.5 44t87 17q71 0 181 -13.5t171 -13.5q134 0 209 37q25 -26 41.5 -64t16.5 -75q0 -94 -41 -143q-15 -15 -15 -33q0 -15 11.5 -25t25.5 -10q20 0 43 27q51 60 51 184q0 117 -98 215
q-10 10 -27 10q-13 0 -22 -6q-69 -39 -195 -39q-51 0 -161.5 13.5t-190.5 13.5q-111 0 -183.5 -70t-72.5 -172zM199 1634q0 79 66 120.5t153 41.5q63 0 105 -33.5t42 -93.5q0 -71 -67.5 -113.5t-149.5 -42.5q-63 0 -106 32t-43 89zM268 1636q0 -31 23 -46t59 -15
q59 0 103.5 27.5t44.5 66.5q0 30 -25 45t-59 15q-59 0 -102.5 -25.5t-43.5 -67.5zM674 1001q0 -20 14 -34.5t33 -14.5q20 0 34.5 14.5t14.5 34.5t-14.5 35t-34.5 15q-19 0 -33 -15t-14 -35zM680 1634q0 79 66 120.5t153 41.5q63 0 105.5 -33.5t42.5 -93.5q0 -71 -68 -113.5
t-150 -42.5q-63 0 -106 32t-43 89zM750 1636q0 -61 81 -61q62 0 105 27t43 67q0 30 -25 45t-59 15q-59 0 -102 -25.5t-43 -67.5zM809 1001q0 -20 14 -34.5t33 -14.5q20 0 34.5 14.5t14.5 34.5t-14.5 35t-34.5 15q-19 0 -33 -15t-14 -35z" />
    <glyph glyph-name="uni045E" unicode="&#x45e;" horiz-adv-x="1460" 
d="M82 1233q0 -9 8 -25q27 -68 27 -229v-61q0 -81 10 -142.5t30.5 -102.5t38.5 -64.5t46 -49.5q13 -10 24 -10q16 0 28.5 12t12.5 29q0 16 -12 28q-50 45 -75 108t-25 192v59q0 168 -29 252q72 96 170 96q89 0 138.5 -44.5t49.5 -133.5v-244q0 -161 42 -237t130 -76
q55 0 89.5 25.5t48.5 52.5v-99q0 -39 -10 -70t-27.5 -49t-36.5 -30.5t-41 -17.5t-36 -7t-28 -2q-127 0 -235 105q-10 10 -29 10q-10 0 -18 -4q-62 -25 -106 -86.5t-44 -153.5q0 -160 142 -265t362 -105q98 0 187 25t166.5 79t134.5 132t89.5 190.5t32.5 248.5v547
q0 145 -70.5 216t-193.5 71q-43 0 -86.5 -14t-84.5 -42t-67 -78t-26 -114q0 -45 11 -87t40 -42q16 0 26.5 11.5t10.5 25.5q0 6 -5 33t-5 59q0 82 55 126t131 44q187 0 187 -209v-547q0 -277 -143.5 -437.5t-389.5 -160.5q-79 0 -154 19.5t-136.5 55.5t-98.5 92.5t-37 125.5
q0 61 25 101.5t59 58.5q121 -109 270 -109q43 0 85 13t82 40.5t64.5 79.5t24.5 121v328q0 15 -11 26t-28 11q-15 0 -25 -10t-11 -27q-7 -113 -45 -171t-95 -58q-28 0 -47.5 17.5t-29 51.5t-13.5 73.5t-4 92.5v244q0 123 -73.5 189.5t-192.5 66.5q-74 0 -140 -41.5
t-108 -110.5q-6 -9 -6 -18zM336 1716q0 83 53.5 131.5t106.5 48.5q12 0 21.5 -1.5t16 -4.5t11.5 -6t7.5 -6.5t4.5 -6t3 -5.5l1 -2q11 -41 60 -62.5t98 -21.5q47 0 95.5 21.5t59.5 62.5l1 2q1 3 3 5.5t5 6t8 6.5t11.5 6t16 4.5t21.5 1.5q53 0 106.5 -48.5t53.5 -131.5
q0 -38 -10.5 -74t-38 -73t-69.5 -64t-109.5 -44t-153.5 -17t-154 17t-110 44t-70 64t-38.5 73t-10.5 74zM414 1716q0 -86 77.5 -140t227.5 -54q149 0 226 54t77 140q0 36 -18.5 61.5t-35.5 33.5t-26 8q-20 -45 -79.5 -81t-143.5 -36q-85 0 -145 36t-80 81q-9 0 -26 -8
t-35.5 -33.5t-18.5 -61.5z" />
    <glyph glyph-name="uni0490" unicode="&#x490;" horiz-adv-x="1316" 
d="M133 299v741q0 168 87.5 264.5t246.5 96.5h281q65 0 89 36t29 117q3 33 44.5 45.5t80.5 12.5q116 0 205.5 -104t89.5 -228q0 -146 -82 -243t-223 -97q-18 0 -28.5 11.5t-10.5 27.5q0 17 11 28t28 11q41 0 79.5 14.5t72.5 43.5t54.5 82t20.5 122q0 100 -65.5 175
t-155.5 75q-24 0 -45 -6q-3 -88 -51.5 -144.5t-142.5 -56.5h-281q-126 0 -191 -72.5t-65 -210.5v-741q0 -68 20 -115t54 -68.5t64.5 -29.5t64.5 -8q71 0 128.5 24t90.5 66q-60 99 -60 233q0 17 11 28t28 11q16 0 27.5 -11t11.5 -28q0 -70 16.5 -120t33 -76.5t16.5 -38.5
q0 -10 -6 -19q-37 -73 -119 -110t-178 -37q-131 0 -206 81t-75 218zM444 565q0 15 10 24t25 9q8 0 25 -6t24 -6q9 0 14.5 1.5t13.5 7.5t12.5 21.5t4.5 40.5v324q0 17 12.5 28t30.5 11q9 0 31 -1t31 -1q124 0 151 59q13 25 37 25q15 0 26 -10t11 -25q0 -12 -4 -20
q-42 -107 -215 -107q-52 0 -84 4l51 31v-318q0 -72 -28.5 -108.5t-98.5 -36.5q-31 0 -55.5 12.5t-24.5 40.5z" />
    <glyph glyph-name="uni0491" unicode="&#x491;" horiz-adv-x="1351" 
d="M133 299v739q0 172 86.5 267.5t247.5 95.5h281q116 0 116 80q0 19 -10 49q-4 12 -4 18q0 15 12 27q57 51 150 51q132 0 220.5 -93.5t88.5 -225.5q0 -171 -97 -269t-266 -98q-17 0 -27.5 11.5t-10.5 27.5q0 17 10.5 28t27.5 11q37 0 71 5.5t74.5 24t70 48.5t49.5 84.5
t20 126.5q0 103 -64.5 172t-164.5 69q-46 0 -78 -16q6 -24 6 -49q0 -71 -49 -115.5t-145 -44.5h-281q-126 0 -191 -72.5t-65 -212.5v-739q0 -68 20 -115t54 -68.5t64.5 -29.5t64.5 -8q72 0 129.5 23.5t89.5 64.5q-60 97 -60 229q0 16 11 27.5t28 11.5q15 0 27 -12t12 -27
q0 -122 60 -205q8 -12 8 -22q0 -12 -6 -21q-39 -72 -121.5 -109.5t-177.5 -37.5q-133 0 -207 77.5t-74 221.5zM573 543v438q0 15 12 27t27 12h78q48 0 76.5 14.5t44.5 55.5q10 26 37 26q17 0 27 -10.5t10 -26.5q0 -31 -31 -71q-55 -66 -164 -66h-39v-399q0 -16 -11 -27.5
t-28 -11.5q-15 0 -27 12t-12 27z" />
    <glyph glyph-name="uni2000" unicode="&#x2000;" horiz-adv-x="948" 
 />
    <glyph glyph-name="uni2001" unicode="&#x2001;" horiz-adv-x="1896" 
 />
    <glyph glyph-name="uni2002" unicode="&#x2002;" horiz-adv-x="948" 
 />
    <glyph glyph-name="uni2003" unicode="&#x2003;" horiz-adv-x="1896" 
 />
    <glyph glyph-name="uni2004" unicode="&#x2004;" horiz-adv-x="632" 
 />
    <glyph glyph-name="uni2005" unicode="&#x2005;" horiz-adv-x="474" 
 />
    <glyph glyph-name="uni2006" unicode="&#x2006;" horiz-adv-x="316" 
 />
    <glyph glyph-name="uni2007" unicode="&#x2007;" horiz-adv-x="316" 
 />
    <glyph glyph-name="uni2008" unicode="&#x2008;" horiz-adv-x="237" 
 />
    <glyph glyph-name="uni2009" unicode="&#x2009;" horiz-adv-x="379" 
 />
    <glyph glyph-name="uni200A" unicode="&#x200a;" horiz-adv-x="105" 
 />
    <glyph glyph-name="uni2010" unicode="&#x2010;" horiz-adv-x="1177" 
d="M102 719q0 114 77.5 185t193.5 71q78 0 168 -13.5t137 -13.5q113 0 233 51q15 5 17 5q13 0 24 -11q123 -108 123 -233q0 -114 -77 -185t-193 -71q-78 0 -168 13t-137 13q-114 0 -234 -51q-12 -4 -16 -4q-15 0 -25 10q-123 108 -123 234zM180 719q0 -82 78 -160
q122 47 240 47q46 0 136 -12t171 -12q94 0 143 52t49 126q0 83 -77 160q-125 -48 -240 -48q-46 0 -136 12.5t-171 12.5q-94 0 -143.5 -52t-49.5 -126z" />
    <glyph glyph-name="uni2011" unicode="&#x2011;" horiz-adv-x="1177" 
d="M102 719q0 114 77.5 185t193.5 71q78 0 168 -13.5t137 -13.5q113 0 233 51q15 5 17 5q13 0 24 -11q123 -108 123 -233q0 -114 -77 -185t-193 -71q-78 0 -168 13t-137 13q-114 0 -234 -51q-12 -4 -16 -4q-15 0 -25 10q-123 108 -123 234zM180 719q0 -82 78 -160
q122 47 240 47q46 0 136 -12t171 -12q94 0 143 52t49 126q0 83 -77 160q-125 -48 -240 -48q-46 0 -136 12.5t-171 12.5q-94 0 -143.5 -52t-49.5 -126z" />
    <glyph glyph-name="figuredash" unicode="&#x2012;" horiz-adv-x="1177" 
d="M102 719q0 114 77.5 185t193.5 71q78 0 168 -13.5t137 -13.5q113 0 233 51q15 5 17 5q13 0 24 -11q123 -108 123 -233q0 -114 -77 -185t-193 -71q-78 0 -168 13t-137 13q-114 0 -234 -51q-12 -4 -16 -4q-15 0 -25 10q-123 108 -123 234zM180 719q0 -82 78 -160
q122 47 240 47q46 0 136 -12t171 -12q94 0 143 52t49 126q0 83 -77 160q-125 -48 -240 -48q-46 0 -136 12.5t-171 12.5q-94 0 -143.5 -52t-49.5 -126z" />
    <glyph glyph-name="endash" unicode="&#x2013;" horiz-adv-x="1464" 
d="M102 719q0 114 77.5 186t193.5 72q69 0 242 -13.5t264 -13.5q199 0 319 51q15 5 16 5q14 0 25 -11q123 -108 123 -235q0 -114 -77 -186t-193 -72q-69 0 -242 13t-264 13q-200 0 -320 -51q-12 -4 -16 -4q-15 0 -25 10q-123 108 -123 236zM180 719q0 -84 78 -162
q122 47 326 47q91 0 263.5 -12t244.5 -12q94 0 143 53t49 127q0 84 -78 162q-125 -48 -325 -48q-91 0 -263.5 12.5t-244.5 12.5q-94 0 -143.5 -53t-49.5 -127z" />
    <glyph glyph-name="emdash" unicode="&#x2014;" horiz-adv-x="1832" 
d="M102 719q0 114 78 188t193 74q63 0 389 -15.5t446 -15.5q227 0 359 56q12 4 16 4q14 0 25 -11q123 -108 123 -239q0 -114 -78 -188t-193 -74q-63 0 -389 15t-446 15q-229 0 -359 -55q-12 -4 -16 -4q-15 0 -25 10q-123 108 -123 240zM180 719q0 -88 78 -166q132 51 363 51
q121 0 447 -14.5t392 -14.5q93 0 143 55t50 130q0 88 -78 166q-135 -52 -363 -52q-121 0 -447 14.5t-392 14.5q-93 0 -143 -54.5t-50 -129.5z" />
    <glyph glyph-name="quoteleft" unicode="&#x2018;" horiz-adv-x="606" 
d="M82 1128q0 58 28 129t89 125q42 37 90.5 57t82 23.5t85.5 3.5q43 0 43 -34q0 -16 -6 -25q-37 -81 -37 -115q0 -25 23.5 -78.5t23.5 -107.5q0 -88 -62 -148.5t-151 -60.5q-94 0 -151.5 67t-57.5 164zM160 1128q0 -63 34 -108t97 -45q58 0 96.5 37.5t38.5 93.5
q0 38 -23.5 93.5t-23.5 92.5q0 48 24 97q-57 -2 -105 -29t-77 -67t-45 -83.5t-16 -81.5z" />
    <glyph glyph-name="quoteright" unicode="&#x2019;" horiz-adv-x="606" 
d="M102 1257q0 88 62 148.5t151 60.5q94 0 151.5 -67t57.5 -164q0 -58 -27.5 -129t-88.5 -125q-42 -37 -90.5 -57t-82 -23.5t-85.5 -3.5q-21 0 -32.5 9.5t-11.5 25.5q0 13 7 24q37 81 37 115q0 25 -24 78.5t-24 107.5zM180 1257q0 -38 23.5 -93.5t23.5 -92.5q0 -47 -24 -96
q57 2 105 29t77 66.5t45 83t16 81.5q0 63 -34 108.5t-97 45.5q-58 0 -96.5 -38t-38.5 -94z" />
    <glyph glyph-name="quotesinglbase" unicode="&#x201a;" horiz-adv-x="606" 
d="M102 207q0 88 62 148.5t151 60.5q94 0 151.5 -67.5t57.5 -164.5q0 -58 -27.5 -129t-88.5 -125q-42 -37 -90.5 -57t-82 -23.5t-85.5 -3.5q-21 0 -32.5 9.5t-11.5 25.5q0 15 7 25q37 81 37 114q0 25 -24 79t-24 108zM180 207q0 -38 23.5 -94t23.5 -93q0 -47 -24 -96
q57 2 105 29t77 66.5t45 83t16 81.5q0 63 -34 108.5t-97 45.5q-58 0 -96.5 -37.5t-38.5 -93.5z" />
    </font>
</defs>
</svg>
