<?xml version="1.0" standalone="no"?>
<!DOCTYPE svg PUBLIC "-//W3C//DTD SVG 1.1//EN" "http://www.w3.org/Graphics/SVG/1.1/DTD/svg11.dtd" >
<svg>
<metadata>
Created by FontForge 20090914 at Mon Mar 15 17:32:25 2021
 By www-data
Copyright (c) 2012 by Mariya Pigoulevskaya. All rights reserved.
</metadata>
<defs>
<font id="Neusa-Medium" horiz-adv-x="394" >
  <font-face 
    font-family="Neusa Medium"
    font-weight="500"
    font-stretch="normal"
    units-per-em="1000"
    panose-1="0 0 6 0 0 0 0 0 0 0"
    ascent="750"
    descent="-250"
    x-height="500"
    cap-height="700"
    bbox="-46 -212.001 867.001 959"
    underline-thickness="50"
    underline-position="-150"
    unicode-range="U+0020-U+FB02"
  />
<missing-glyph horiz-adv-x="250" 
 />
    <glyph glyph-name="fi" unicode="fi" horiz-adv-x="478" 
d="M251 709l25.001 -0.000976562v-51h-12c-24.667 0 -43.167 -3 -55.5 -9s-21.833 -19 -28.5 -39s-10 -49.333 -10 -88v-22h106v-52h-106v-448h-56v448h-77v51h76v34c0 36 3.16699 65.833 9.5 89.5s15.833 41.5 28.5 53.5s26.667 20.333 42 25
s34.666 7.33398 57.999 8.00098zM364.001 645.999h65v-61h-65v61zM368.001 499.999h57v-500h-57v500z" />
    <glyph glyph-name="fl" unicode="fl" horiz-adv-x="465" 
d="M251 709h25v-51h-14c-18 0 -32.167 -1.66699 -42.5 -5s-19.666 -9.83301 -27.999 -19.5s-14 -23.334 -17 -41.001s-4.5 -41.5 -4.5 -71.5v-21h106v-52h-106v-448h-56v448h-77v51h76v34c0 36 3.16699 65.833 9.5 89.5s15.833 41.5 28.5 53.5s26.667 20.333 42 25
s34.666 7.33398 57.999 8.00098zM364 700h56v-700h-56v700z" />
    <glyph glyph-name=".notdef" horiz-adv-x="250" 
 />
    <glyph glyph-name="space" unicode=" " horiz-adv-x="300" 
 />
    <glyph glyph-name="exclam" unicode="!" horiz-adv-x="165" 
d="M53 701h58v-241l-7 -297h-44l-7 297v241zM50 0v65h65v-65h-65z" />
    <glyph glyph-name="quotedbl" unicode="&#x22;" horiz-adv-x="251" 
d="M42 700h59l-9 -191h-41zM150 700h60l-9 -191h-42z" />
    <glyph glyph-name="numbersign" unicode="#" horiz-adv-x="667" 
d="M611 406h-132l-28 -133h131l-17 -63h-132l-49 -210h-68l49 210h-131l-49 -210h-67l48 210h-127l18 63h127l29 133h-127l18 63h127l53 231h68l-53 -231h130l54 231h68l-54 -231h132zM383 273l28 133h-130l-29 -133h131z" />
    <glyph glyph-name="dollar" unicode="$" horiz-adv-x="500" 
d="M446 490l-63 -0.00195312c0 51.333 -12.5 90.166 -37.5 116.499s-55.167 39.5 -90.5 39.5s-65 -10.167 -89 -30.5s-36 -50.166 -36 -89.499c0 -11.333 1.16699 -21.666 3.5 -30.999s5.83301 -17.666 10.5 -24.999s9.16699 -13.833 13.5 -19.5s10.5 -11 18.5 -16l19 -12
c4.66699 -3 11.834 -6.16699 21.501 -9.5l20 -7c3.66699 -1.33301 10.167 -3.16602 19.5 -5.49902s14.666 -3.83301 15.999 -4.5c42 -11.333 76.5 -26.333 103.5 -45s46.833 -40.5 59.5 -65.5s19 -54.5 19 -88.5c0 -62 -15.167 -109.167 -45.5 -141.5
s-70.5 -51.833 -120.5 -58.5v-47h-67v47c-22 2 -42.833 7.5 -62.5 16.5s-38.167 21.667 -55.5 38s-31.166 38.166 -41.499 65.499s-15.5 58.333 -15.5 93h63c0 -22 2.83301 -42 8.5 -60s13.167 -32.833 22.5 -44.5s20.166 -21.334 32.499 -29.001s24.833 -13.167 37.5 -16.5
s25.667 -5 39 -5c43.333 0 77.5 11.5 102.5 34.5s37.5 57.167 37.5 102.5c0 40 -12.167 70.5 -36.5 91.5s-60.166 38.167 -107.499 51.5l-28 8c-6.66699 2 -16.167 5.33301 -28.5 10s-22.5 9.33398 -30.5 14.001s-17.333 10.667 -28 18s-19.334 15.333 -26.001 24
s-13.334 18.5 -20.001 29.5s-11.5 23.667 -14.5 38s-4.5 29.5 -4.5 45.5c0 56 14.833 98.667 44.5 128s66.834 47 111.501 53v47h67v-47c44.667 -6 82.167 -26.5 112.5 -61.5s45.5 -85.5 45.5 -151.5z" />
    <glyph glyph-name="percent" unicode="%" horiz-adv-x="667" 
d="M50 472l-0.000976562 131.007c0 19.333 3.66699 36.166 11 50.499s16.833 25.166 28.5 32.499s23.167 12.666 34.5 15.999s22.333 5 33 5c8.66699 0 17.5 -1 26.5 -3s18.333 -5.66699 28 -11s18.334 -11.833 26.001 -19.5s13.834 -17.5 18.501 -29.5s7 -25.667 7 -41
v-131c0 -18.667 -3.5 -35 -10.5 -49s-16.167 -24.833 -27.5 -32.5s-22.833 -13.334 -34.5 -17.001s-22.834 -5.5 -33.501 -5.5s-21.667 1.66699 -33 5s-22.833 8.66602 -34.5 15.999s-21.167 18.166 -28.5 32.499s-11 31.166 -11 50.499zM500.999 700.007h52l-388 -700h-51z
M217.999 471.007l0.00195312 133c0 20 -6.33301 35 -19 45s-26.667 15 -42 15c-6.66699 0 -13.334 -1 -20.001 -3s-13.334 -5.16699 -20.001 -9.5s-12 -10.5 -16 -18.5s-6 -17.667 -6 -29v-133c0 -20.667 6.66699 -35.834 20 -45.501s27.333 -14.5 42 -14.5
c15.333 0.666992 29.333 5.83398 42 15.501s19 24.5 19 44.5zM404.001 97.0068v131.002c0 15.333 2.5 29.333 7.5 42s11.333 22.834 19 30.501s16.5 14 26.5 19s19.333 8.33301 28 10s17 2.5 25 2.5c11.333 0 22.833 -1.83301 34.5 -5.5s23 -9.16699 34 -16.5
s20.167 -18.166 27.5 -32.499s11 -30.833 11 -49.5v-131c0 -12.667 -1.66699 -24.334 -5 -35.001s-8 -19.667 -14 -27s-12.5 -13.833 -19.5 -19.5s-14.5 -10 -22.5 -13s-15.833 -5.33301 -23.5 -7s-15.167 -2.5 -22.5 -2.5c-10 0 -20.667 1.66699 -32 5
s-22.833 8.66602 -34.5 15.999s-21.167 18.166 -28.5 32.499s-11 31.166 -11 50.499zM572.001 96.0088v133.001c0 20 -6.5 35 -19.5 45s-27.167 15 -42.5 15c-14.667 0 -28.667 -4.83301 -42 -14.5s-20 -24.834 -20 -45.501v-133c0 -20.667 6.66699 -35.667 20 -45
s27.333 -14.333 42 -15c15.333 0 29.5 5 42.5 15s19.5 25 19.5 45z" />
    <glyph glyph-name="ampersand" unicode="&#x26;" horiz-adv-x="550" 
d="M513 390l-0.00292969 -62h-40v-135c0 -31.333 -3.66699 -59 -11 -83s-17.166 -43.333 -29.499 -58s-27.5 -26.5 -45.5 -35.5s-36.333 -15.167 -55 -18.5s-39.667 -5.33301 -63 -6h-17c-39.333 0 -74.666 6.66699 -105.999 20s-57.166 35 -77.499 65
s-30.833 66.333 -31.5 109v14c0 41.333 9.83301 75.833 29.5 103.5s46.167 46.167 79.5 55.5c-19.333 6.66699 -36.5 16.5 -51.5 29.5s-27 29.833 -36 50.5s-13.5 44.334 -13.5 71.001v14c0 33.333 5.66699 62.333 17 87s26.666 44 45.999 58s40.166 24.167 62.499 30.5
s46.166 9.5 71.499 9.5h89v-63h-89c-11.333 0 -22.166 -1 -32.499 -3s-20.5 -4.83301 -30.5 -8.5s-19 -8.83398 -27 -15.501s-15.167 -14.5 -21.5 -23.5s-11.166 -19.833 -14.499 -32.5s-5 -26.667 -5 -42v-7c0 -42 13.333 -73.167 40 -93.5s59.334 -30.5 98.001 -30.5h159
v158h65v-158h40zM407.997 195v132.999h-159c-44.667 0 -80 -11.167 -106 -33.5s-39 -55.166 -39 -98.499v-7c0 -42 14.333 -74.833 43 -98.5s64 -35.5 106 -35.5h11c22 0 41 2 57 6s30.833 10.833 44.5 20.5s24.167 24 31.5 43s11 42.5 11 70.5z" />
    <glyph glyph-name="quotesingle" unicode="'" horiz-adv-x="160" 
d="M50 700h60l-9 -191h-42z" />
    <glyph glyph-name="parenleft" unicode="(" horiz-adv-x="265" 
d="M157 750l58 0.00195312v-63h-47c-14 0 -26 -5.33301 -36 -16s-15 -24.334 -15 -41.001v-651c0 -16 5 -29.333 15 -40s22 -16 36 -16h47v-63h-58c-30.667 0 -56.167 10.167 -76.5 30.5s-30.5 47.166 -30.5 80.499v668c0 34 10.167 61 30.5 81s45.833 30 76.5 30z" />
    <glyph glyph-name="parenright" unicode=")" horiz-adv-x="265" 
d="M50 750l57 -0.00195312c31.333 0 57.166 -10 77.499 -30s30.5 -47 30.5 -81v-668c0 -33.333 -10.167 -60.166 -30.5 -80.499s-46.166 -30.5 -77.499 -30.5h-57v63h47c14 0 26 5.33301 36 16s15 24 15 40v651c0 16.667 -5 30.334 -15 41.001s-22 16 -36 16h-47v63z" />
    <glyph glyph-name="asterisk" unicode="*" horiz-adv-x="430" 
d="M186 716h60l-3 -131l124 43l19 -57l-126 -38l79 -105l-48 -35l-75 108l-75 -108l-48 35l79 105l-126 38l18 57l125 -43z" />
    <glyph glyph-name="plus" unicode="+" horiz-adv-x="535" 
d="M234 512h67v-184h184v-64h-184v-184h-67v184h-184v64h184v184z" />
    <glyph glyph-name="comma" unicode="," horiz-adv-x="165" 
d="M50 65h65v-65l-26 -63h-23l11 63h-27v65z" />
    <glyph glyph-name="hyphen" unicode="-" horiz-adv-x="348" 
d="M50 301h248v-64h-248v64z" />
    <glyph glyph-name="period" unicode="." horiz-adv-x="165" 
d="M50 0v65h65v-65h-65z" />
    <glyph glyph-name="slash" unicode="/" horiz-adv-x="431" 
d="M39 0l286 700h68l-286 -700h-68z" />
    <glyph glyph-name="zero" unicode="0" horiz-adv-x="504" 
d="M48 234v193.001c0 44.667 5.83301 83.334 17.5 116.001s27.5 57.834 47.5 75.501s41.5 30.5 64.5 38.5s47.833 12 74.5 12c26 0 50.5 -4 73.5 -12s44.5 -20.833 64.5 -38.5s36 -42.834 48 -75.501s18 -71.334 18 -116.001v-193c0 -44.667 -6 -83.334 -18 -116.001
s-28 -57.834 -48 -75.501s-41.5 -30.5 -64.5 -38.5s-47.5 -12 -73.5 -12c-26.667 0 -51.5 4.16699 -74.5 12.5s-44.5 21.333 -64.5 39s-35.833 42.834 -47.5 75.501s-17.5 71 -17.5 115zM389 243.001v176c0 34.667 -3.66699 64.667 -11 90s-17.666 44.833 -30.999 58.5
s-27.833 23.5 -43.5 29.5s-32.834 9 -51.501 9c-41.333 0 -74.5 -14.333 -99.5 -43s-37.5 -76.667 -37.5 -144v-176c0 -34.667 3.66699 -64.667 11 -90s17.5 -44.833 30.5 -58.5s27.333 -23.667 43 -30s33.167 -9.5 52.5 -9.5c40 0 72.833 14.5 98.5 43.5
s38.5 77.167 38.5 144.5z" />
    <glyph glyph-name="one" unicode="1" horiz-adv-x="209" 
d="M161 660v-63v-597h-67v597h-59v63h126z" />
    <glyph glyph-name="two" unicode="2" horiz-adv-x="474" 
d="M234 669l14.998 -0.00292969c22.667 0 44.667 -3.83301 66 -11.5s41.5 -19 60.5 -34s34.333 -35.833 46 -62.5s17.5 -57.334 17.5 -92.001v-2c0 -28 -5.83301 -53.667 -17.5 -77s-26.667 -43.666 -45 -60.999s-38.666 -33.833 -60.999 -49.5l-67.5 -46
c-22.667 -15 -43.667 -30.5 -63 -46.5s-35.666 -34.5 -48.999 -55.5s-21.333 -43.5 -24 -67.5h321v-64h-397v38c0 28.667 4.66699 55.334 14 80.001s22 45.834 38 63.501s34 34.667 54 51s40.5 30.833 61.5 43.5s41.667 26.334 62 41.001s38.333 28.834 54 42.501
s28.334 29.834 38.001 48.501s14.5 38.667 14.5 60c0 46 -12.667 80.5 -38 103.5s-54 34.5 -86 34.5h-8c-31.333 -0.666992 -60 -11.834 -86 -33.501s-43 -54.5 -51 -98.5h-67l1 8c4 26 10.833 49.667 20.5 71s21 39 34 53s27.667 25.667 44 35s32.666 16.166 48.999 20.499
s32.833 6.83301 49.5 7.5z" />
    <glyph glyph-name="three" unicode="3" horiz-adv-x="482" 
d="M235 669l17.001 0.000976562c20 0 40.333 -3.16699 61 -9.5s40.667 -16 60 -29s35.166 -31.167 47.499 -54.5s18.5 -50 18.5 -80v-14c0 -24 -4.5 -45.833 -13.5 -65.5s-21 -35.834 -36 -48.501s-32.167 -22.334 -51.5 -29.001c33.333 -9.33301 59.666 -27.5 78.999 -54.5
s29.333 -59.5 30 -97.5v-13c-0.666992 -57.333 -20.167 -102 -58.5 -134s-83.5 -48 -135.5 -48h-18c-22 0 -43.5 3.66699 -64.5 11s-41.167 18.333 -60.5 33s-35.666 34.834 -48.999 60.501s-21.666 55.167 -24.999 88.5l-1 5h65
c6.66699 -46.667 23.667 -80.834 51 -102.501s57.666 -32.5 90.999 -32.5h10c34.667 0 64.667 10.833 90 32.5s38 51.167 38 88.5v6c0 40.667 -13 71.834 -39 93.501s-60.333 32.5 -103 32.5h-58v62h58c37.333 0 69.166 9.83301 95.499 29.5s39.5 48.834 39.5 87.501v7
c0 25.333 -7.33301 46.833 -22 64.5s-30.667 30 -48 37s-34.333 10.5 -51 10.5h-11c-31.333 0 -60.333 -10.333 -87 -31s-44 -52.334 -52 -95.001h-65v6c4 25.333 10.833 48.333 20.5 69s21 37.834 34 51.501s27.667 25.167 44 34.5s32.833 16.166 49.5 20.499
s33.334 6.83301 50.001 7.5z" />
    <glyph glyph-name="four" unicode="4" horiz-adv-x="491" 
d="M456 212v-64h-63v-148h-67v148h-288v75l207 440h67l-206 -451h220v288h67v-288h63z" />
    <glyph glyph-name="five" unicode="5" horiz-adv-x="485" 
d="M68 663h336.998v-63h-271v-198h79c51.333 0 86.333 -2.33301 105 -7c42.667 -10 75.334 -30.833 98.001 -62.5s34 -69.167 34 -112.5v-48c-0.666992 -56.667 -20 -100.834 -58 -132.501s-83 -47.5 -135 -47.5h-18c-22 0 -43.5 3.5 -64.5 10.5s-41.167 17.833 -60.5 32.5
s-35.666 34.834 -48.999 60.501s-22 55.167 -26 88.5v5h65c6 -46 22.667 -79.833 50 -101.5s57.666 -32.5 90.999 -32.5h11c34.667 0 64.667 11 90 33s38 53.333 38 94v40c0 41.333 -13.167 72 -39.5 92s-62.166 30 -107.499 30h-169v319z" />
    <glyph glyph-name="six" unicode="6" horiz-adv-x="487" 
d="M39 197l-0.00390625 230.993c0 44 6 82.333 18 115s28.333 57.834 49 75.501s42.834 30.667 66.501 39s48.834 12.5 75.501 12.5c15.333 0 30.333 -1.33301 45 -4s29.334 -7 44.001 -13s28.167 -14 40.5 -24s23.5 -21.833 33.5 -35.5s17.667 -30.167 23 -49.5
s8.33301 -40.666 9 -63.999h-67c0 18.667 -2.5 35.334 -7.5 50.001s-11.667 26.667 -20 36s-18.166 17.166 -29.499 23.499s-22.833 10.833 -34.5 13.5s-23.834 4 -36.501 4c-20 0 -38 -3 -54 -9s-31.167 -15.5 -45.5 -28.5s-25.5 -32 -33.5 -57s-12 -54.833 -12 -89.5v-103
c26.667 50.667 70.334 76.334 131.001 77.001h39c26 0 49.5 -4.16699 70.5 -12.5s37.833 -19.166 50.5 -32.499s23.167 -29.166 31.5 -47.499s14.166 -36.666 17.499 -54.999s5 -36.833 5 -55.5c0 -24.667 -3 -48.167 -9 -70.5s-15.667 -43.666 -29 -63.999
s-32.5 -36.666 -57.5 -48.999s-54.5 -18.5 -88.5 -18.5h-41c-59.333 0.666992 -104.666 19.667 -135.999 57s-47.333 86.666 -48 147.999zM223.996 54.9932l38 -0.00195312c41.333 0.666992 71.5 14.334 90.5 41.001s28.5 59.334 28.5 98.001s-9.5 71.667 -28.5 99
s-49.167 41 -90.5 41h-38c-40.667 0 -70.667 -13.667 -90 -41s-29 -60.333 -29 -99c0 -24 3.66699 -46 11 -66s20.333 -37.167 39 -51.5s41.667 -21.5 69 -21.5z" />
    <glyph glyph-name="seven" unicode="7" horiz-adv-x="462" 
d="M37 663h384v-52l-266 -611h-68l261 599h-311v64z" />
    <glyph glyph-name="eight" unicode="8" horiz-adv-x="489" 
d="M229 669l31 -0.000976562c30 0 59 -6.66699 87 -20s51.5 -33.5 70.5 -60.5s28.833 -57.5 29.5 -91.5v-14c0 -34 -9.33301 -63.333 -28 -88s-43.334 -43.334 -74.001 -56.001c34.667 -11.333 61.5 -30.166 80.5 -56.499s28.5 -57.833 28.5 -94.5v-13
c0 -53.333 -18.5 -97 -55.5 -131s-83.167 -51 -138.5 -51h-31c-55.333 0 -101.5 17 -138.5 51s-55.5 77.667 -55.5 131v13c0.666992 36.667 10.5 68 29.5 94s45.5 45 79.5 57c-31.333 12.667 -56.166 31.334 -74.499 56.001s-27.5 54 -27.5 88v14
c0 51.333 19.333 92.833 58 124.5s81.667 47.5 129 47.5zM380 486.999l0.000976562 6c0 20.667 -4.33301 38.834 -13 54.501s-19.5 27.5 -32.5 35.5s-26 13.833 -39 17.5s-25.5 5.5 -37.5 5.5h-28c-11.333 0 -23.5 -1.83301 -36.5 -5.5s-26 -9.5 -39 -17.5
s-23.833 -19.833 -32.5 -35.5s-13 -33.834 -13 -54.501v-6c0 -20.667 3.83301 -38.667 11.5 -54s18 -27.166 31 -35.499s26.667 -14.333 41 -18s29.5 -5.5 45.5 -5.5h13c12.667 0 24.667 1 36 3s22.833 5.83301 34.5 11.5s21.667 12.667 30 21s15.166 19.166 20.499 32.499
s8 28.333 8 45zM387.001 178.999v7c0 42 -12.5 73.333 -37.5 94s-57.833 31 -98.5 31h-13c-40.667 0 -73.5 -10.333 -98.5 -31s-37.5 -52 -37.5 -94v-7c0 -40.667 12.833 -71.334 38.5 -92.001s55.834 -31 90.501 -31h27c35.333 0 65.666 10.333 90.999 31
s38 51.334 38 92.001z" />
    <glyph glyph-name="nine" unicode="9" horiz-adv-x="479" 
d="M445 465l0.00195312 -230.997c0 -44 -6.16699 -82.333 -18.5 -115s-28.833 -57.834 -49.5 -75.501s-42.667 -30.667 -66 -39s-48.333 -12.5 -75 -12.5c-24 0 -46.833 3.16699 -68.5 9.5s-42.167 16.5 -61.5 30.5s-35 33.833 -47 59.5s-18.333 55.834 -19 90.501h67
c0 -44 12.667 -76.167 38 -96.5s55.333 -30.5 90 -30.5c20 0 38.167 3 54.5 9s31.5 15.5 45.5 28.5s25 32 33 57s12 54.833 12 89.5v103c-26 -51.333 -69.333 -77 -130 -77h-39c-26.667 0 -50.334 4.16699 -71.001 12.5s-37.5 19.166 -50.5 32.499
s-23.667 29.166 -32 47.499s-14.166 36.5 -17.499 54.5s-5 36.667 -5 56c0 24.667 3 48.167 9 70.5s15.667 43.666 29 63.999s32.5 36.666 57.5 48.999s54.5 18.5 88.5 18.5h41c59.333 -0.666992 104.666 -19.667 135.999 -57s47.666 -86.666 48.999 -147.999z
M259.002 607.003h-38c-41.333 -0.666992 -71.5 -14.334 -90.5 -41.001s-28.5 -59.334 -28.5 -98.001s9.5 -71.667 28.5 -99s49.167 -41 90.5 -41h38c40.667 0 70.667 13.667 90 41s29 60.333 29 99s-9.66699 71.334 -29 98.001s-49.333 40.334 -90 41.001z" />
    <glyph glyph-name="colon" unicode=":" horiz-adv-x="165" 
d="M50 336v64h65v-64h-65zM50 0v65h65v-65h-65z" />
    <glyph glyph-name="semicolon" unicode=";" horiz-adv-x="165" 
d="M50 400h65v-64h-65v64zM50 0v65h65v-65l-26 -63h-23l11 63h-27z" />
    <glyph glyph-name="less" unicode="&#x3c;" horiz-adv-x="446" 
d="M50 336l346 197v-67l-241 -145l241 -145v-67l-346 197v30z" />
    <glyph glyph-name="equal" unicode="=" horiz-adv-x="535" 
d="M50 434h435v-63h-435v63zM50 269h435v-64h-435v64z" />
    <glyph glyph-name="greater" unicode="&#x3e;" horiz-adv-x="446" 
d="M50 466v67l346 -197v-30l-346 -197v67l241 145z" />
    <glyph glyph-name="question" unicode="?" horiz-adv-x="503" 
d="M247 707l14.998 0.000976562c22.667 0 44.834 -3.66699 66.501 -11s42 -18.5 61 -33.5s34.333 -36 46 -63s17.5 -57.833 17.5 -92.5v-2c0 -26 -3.66699 -48.833 -11 -68.5s-16.666 -35.5 -27.999 -47.5s-23.833 -22.833 -37.5 -32.5s-27.5 -18.834 -41.5 -27.501
s-26.667 -18 -38 -28s-20.5 -22.667 -27.5 -38s-10.5 -33.333 -10.5 -54h-58c0 25.333 3.33301 47.5 10 66.5s15.5 34.5 26.5 46.5s23 22.833 36 32.5s26.167 18.834 39.5 27.501s25.5 18.167 36.5 28.5s19.833 23.5 26.5 39.5s10 34.667 10 56c0 46 -12.667 80.5 -38 103.5
s-54 34.5 -86 34.5h-8c-31.333 -0.666992 -60 -11.834 -86 -33.501s-43 -54.5 -51 -98.5h-67l1 6c3.33301 26 9.83301 49.833 19.5 71.5s21 39.5 34 53.5s27.667 25.833 44 35.5s32.5 16.667 48.5 21s32.667 6.83301 50 7.5zM197.998 65.001h65v-65h-65v65z" />
    <glyph glyph-name="at" unicode="@" horiz-adv-x="778" 
d="M526 -124l-147 -0.00292969c-60.667 0 -112.167 8.33301 -154.5 25s-76.333 42.167 -102 76.5s-44.167 75.5 -55.5 123.5s-17 105.667 -17 173c0 64.667 5.83301 120 17.5 166s30.834 85.167 57.501 117.5s62 56.166 106 71.499s98 23 162 23
c42 0 79.667 -3.16699 113 -9.5s61.666 -14.666 84.999 -24.999s43.333 -24.166 60 -41.499s30 -35.166 40 -53.499s17.833 -40.5 23.5 -66.5s9.33398 -51 11.001 -75s2.5 -52 2.5 -84v-156c0 -35.333 -11.333 -64.666 -34 -87.999s-53 -35 -91 -35
c-52.667 -0.666992 -87.667 20.666 -105 63.999c-22.667 -52.667 -63 -79 -121 -79c-18 0 -34.833 3 -50.5 9s-30.334 15.333 -44.001 28s-24.667 30.834 -33 54.501s-12.5 51.834 -12.5 84.501v165c0 32 4.16699 59.833 12.5 83.5s19.333 42 33 55s28.334 22.5 44.001 28.5
s32.5 9 50.5 9c55.333 0 94.333 -23.667 117 -71l6 62h43v-370c0 -24 4 -41.833 12 -53.5s23.667 -17.5 47 -17.5c22 0 39 6.33301 51 19s18 30.667 18 54v158c0 28.667 -0.666992 52.667 -2 72s-4.16602 40.333 -8.49902 63s-10.333 41.334 -18 56.001
s-18.334 29.5 -32.001 44.5s-30.167 26.667 -49.5 35s-43 15.166 -71 20.499s-60 8 -96 8c-56.667 0 -103.5 -6.16699 -140.5 -18.5s-66.5 -32.333 -88.5 -60s-37.333 -61 -46 -100s-13 -88.167 -13 -147.5s4.16699 -109.333 12.5 -150s22.666 -76.334 42.999 -107.001
s48.5 -53.167 84.5 -67.5s80.667 -21.5 134 -21.5h146v-52zM294 316.997v-111c0 -101.333 32.333 -152 97 -152c30 0 53.5 11.333 70.5 34s25.167 62 24.5 118v111c0 101.333 -32 152 -96 152s-96 -50.667 -96 -152z" />
    <glyph glyph-name="A" unicode="A" horiz-adv-x="535" 
d="M423 0l-57 213h-196l-57 -213h-66l180 700h81l180 -700h-65zM179 279h177l-88 341z" />
    <glyph glyph-name="B" unicode="B" horiz-adv-x="476" 
d="M63 700l163.996 0.00292969c20 0 39.333 -1.83301 58 -5.5s36.667 -9.66699 54 -18s32.5 -18.833 45.5 -31.5s23.333 -28.334 31 -47.001s11.5 -39.667 11.5 -63v-26c0 -36.667 -9.16699 -67.167 -27.5 -91.5s-43.166 -42.5 -74.499 -54.5
c24.667 -7.33301 45.834 -18.333 63.501 -33s31.334 -32.834 41.001 -54.501s14.5 -46.167 14.5 -73.5v-25c0 -56.667 -18.667 -100.334 -56 -131.001s-88.666 -46 -153.999 -46h-171v700zM362.996 507.003v13.001c0 39.333 -13.167 68.666 -39.5 87.999
s-58.833 29 -97.5 29h-98v-246h98c39.333 0 72 9.66699 98 29s39 48.333 39 87zM377.996 189.004v15c0 40.667 -12.833 71.834 -38.5 93.501s-61.5 32.5 -107.5 32.5h-104v-267h105c45.333 0 80.833 10.667 106.5 32s38.5 52.666 38.5 93.999z" />
    <glyph glyph-name="C" unicode="C" horiz-adv-x="497" 
d="M62 234v232.998c0 44 5.83301 82.333 17.5 115s27.5 57.834 47.5 75.501s41.5 30.667 64.5 39s47.833 12.5 74.5 12.5c25.333 0 48.833 -3.83301 70.5 -11.5s42.167 -19.667 61.5 -36s35 -39.666 47 -69.999s18.667 -66.5 20 -108.5v-16h-65l-1 15
c-3.33301 58 -17 99.833 -41 125.5s-54.667 38.5 -92 38.5c-19.333 0 -36.833 -3.16699 -52.5 -9.5s-30 -16.333 -43 -30s-23.167 -33 -30.5 -58s-11 -55.167 -11 -90.5v-215c0 -35.333 3.66699 -65.5 11 -90.5s17.5 -44.333 30.5 -58s27.333 -23.667 43 -30
s33.167 -9.5 52.5 -9.5c36.667 0 67 12.5 91 37.5s38 66.167 42 123.5l1 18h65v-15c-1.33301 -42 -7.83301 -78.167 -19.5 -108.5s-27.167 -53.833 -46.5 -70.5s-40 -28.834 -62 -36.501s-45.667 -11.5 -71 -11.5c-26.667 0 -51.5 4.16699 -74.5 12.5s-44.5 21.333 -64.5 39
s-35.833 42.834 -47.5 75.501s-17.5 71 -17.5 115z" />
    <glyph glyph-name="D" unicode="D" horiz-adv-x="505" 
d="M63 700h180c26 0 50.333 -4 73 -12s44.167 -20.667 64.5 -38s36.333 -42.333 48 -75s17.5 -71.667 17.5 -117v-216c0 -45.333 -5.83301 -84.333 -17.5 -117s-27.667 -57.667 -48 -75s-41.833 -30 -64.5 -38s-47 -12 -73 -12h-180v700zM381 251v198
c0 67.333 -13 115.5 -39 144.5s-59 43.5 -99 43.5h-115v-574h115c40 0 73 14.5 99 43.5s39 77.167 39 144.5z" />
    <glyph glyph-name="E" unicode="E" horiz-adv-x="398" 
d="M366 637h-238v-246h228v-63h-228v-265h238v-63h-303v700h303v-63z" />
    <glyph glyph-name="F" unicode="F" horiz-adv-x="390" 
d="M359 637h-231v-255h221v-64h-221v-318h-65v700h296v-63z" />
    <glyph glyph-name="G" unicode="G" horiz-adv-x="527" 
d="M62 234l-0.00195312 233.001c0 44.667 5.83301 83.167 17.5 115.5s27.334 57.333 47.001 75s41 30.667 64 39s47.5 12.5 73.5 12.5c20.667 0 40.167 -2.33301 58.5 -7s36.333 -12.667 54 -24s32.834 -25.666 45.501 -42.999s23 -39.833 31 -67.5
s12.333 -58.834 13 -93.501v-10h-64v7c-2 62 -15.667 106.667 -41 134s-57.666 41 -96.999 41c-18.667 0 -35.834 -3.16699 -51.501 -9.5s-30 -16.333 -43 -30s-23.167 -33 -30.5 -58s-11 -55.167 -11 -90.5v-215c0 -35.333 3.66699 -65.5 11 -90.5s17.5 -44.333 30.5 -58
s27.333 -23.667 43 -30s32.834 -9.5 51.501 -9.5c40.667 0 73.834 14.333 99.501 43s38.5 76.334 38.5 143.001v70h-130v63h194v-140c0 -44.667 -5.66699 -83.334 -17 -116.001s-27 -57.834 -47 -75.501s-41.333 -30.5 -64 -38.5s-47.334 -12 -74.001 -12
c-26 0 -50.5 4.16699 -73.5 12.5s-44.333 21.333 -64 39s-35.334 42.667 -47.001 75s-17.5 70.833 -17.5 115.5z" />
    <glyph glyph-name="H" unicode="H" horiz-adv-x="499" 
d="M371 700h65v-700h-65v328h-243v-328h-65v700h65v-309h243v309z" />
    <glyph glyph-name="I" unicode="I" horiz-adv-x="193" 
d="M63 0v700h67v-700h-67z" />
    <glyph glyph-name="J" unicode="J" horiz-adv-x="328" 
d="M200 700l64.999 0.00195312v-466c0 -34 -3.66699 -64.833 -11 -92.5s-16.833 -50.334 -28.5 -68.001s-25.667 -32.667 -42 -45s-33.166 -21.333 -50.499 -27s-35.333 -8.83398 -54 -9.50098h-32v63h20c38 2 69.667 17.833 95 47.5s38 76.5 38 140.5v457z" />
    <glyph glyph-name="K" unicode="K" horiz-adv-x="507" 
d="M460 0h-79l-251 326v-326h-67v700h67v-306l231 306h77l-250 -342z" />
    <glyph glyph-name="L" unicode="L" horiz-adv-x="406" 
d="M128 63h231v-63h-296v700h65v-637z" />
    <glyph glyph-name="M" unicode="M" horiz-adv-x="636" 
d="M495 700h77v-700h-63v541l-170 -541h-45l-170 541v-541h-64v700h78l178 -570z" />
    <glyph glyph-name="N" unicode="N" horiz-adv-x="509" 
d="M385 700h64v-700h-65l-260 553v-553h-64v700h65l260 -553v553z" />
    <glyph glyph-name="O" unicode="O" horiz-adv-x="518" 
d="M55 234v233.002c0 44 5.83301 82.333 17.5 115s27.5 57.834 47.5 75.501s41.5 30.667 64.5 39s47.833 12.5 74.5 12.5c26 0 50.5 -4 73.5 -12s44.667 -20.833 65 -38.5s36.333 -42.834 48 -75.501s17.5 -71.334 17.5 -116.001v-233
c0 -44.667 -5.83301 -83.334 -17.5 -116.001s-27.667 -57.834 -48 -75.501s-42 -30.5 -65 -38.5s-47.5 -12 -73.5 -12c-26.667 0 -51.5 4.16699 -74.5 12.5s-44.5 21.333 -64.5 39s-35.833 42.834 -47.5 75.501s-17.5 71 -17.5 115zM396 243.002v215
c0 35.333 -3.66699 65.5 -11 90.5s-17.666 44.333 -30.999 58s-27.833 23.667 -43.5 30s-32.834 9.5 -51.501 9.5c-19.333 0 -36.833 -3.16699 -52.5 -9.5s-30 -16.333 -43 -30s-23.167 -33 -30.5 -58s-11 -55.167 -11 -90.5v-215c0 -35.333 3.66699 -65.5 11 -90.5
s17.5 -44.333 30.5 -58s27.333 -23.667 43 -30s33.167 -9.5 52.5 -9.5c40 0 72.833 14.5 98.5 43.5s38.5 77.167 38.5 144.5z" />
    <glyph glyph-name="P" unicode="P" horiz-adv-x="487" 
d="M63 700h154.998c26.667 0 51.834 -3.16699 75.501 -9.5s45.834 -16.166 66.501 -29.499s37.167 -32.166 49.5 -56.499s18.5 -52.833 18.5 -85.5v-37c0 -30.667 -5.83301 -58 -17.5 -82s-27.5 -42.833 -47.5 -56.5s-41.5 -23.834 -64.5 -30.501
s-47.5 -10.334 -73.5 -11.001h-97v-302h-65v700zM363.998 492v17.002c0 24.667 -3.83301 45.667 -11.5 63s-18.5 30.5 -32.5 39.5s-28.667 15.5 -44 19.5s-32 6 -50 6h-98v-272h98c18 0 34.667 2 50 6s30 10.667 44 20s24.833 22.666 32.5 39.999s11.5 37.666 11.5 60.999z
" />
    <glyph glyph-name="Q" unicode="Q" horiz-adv-x="558" 
d="M496 55l-0.000976562 -62.999h-220h-12c-26 0 -50.5 4.16699 -73.5 12.5s-44.333 21.333 -64 39s-35.334 42.667 -47.001 75s-17.5 70.833 -17.5 115.5v233c0 44.667 5.83301 83.167 17.5 115.5s27.334 57.333 47.001 75s41 30.667 64 39s47.5 12.5 73.5 12.5
c20.667 0 40.334 -2.33301 59.001 -7s37 -12.834 55 -24.501s33.5 -26.5 46.5 -44.5s23.333 -41.167 31 -69.5s11.5 -60.5 11.5 -96.5v-233c0 -77.333 -17.667 -137 -53 -179h82zM127.999 458.001l-0.00195312 -215c0 -35.333 3.66699 -65.5 11 -90.5s17.5 -44.333 30.5 -58
s27.333 -23.667 43 -30s32.834 -9.5 51.501 -9.5h2h5c38.667 2 70.167 17.5 94.5 46.5s36.5 76.167 36.5 141.5v215c0 35.333 -3.66699 65.5 -11 90.5s-17.666 44.333 -30.999 58s-27.833 23.667 -43.5 30s-33.167 9.5 -52.5 9.5c-40.667 0 -73.5 -14.5 -98.5 -43.5
s-37.5 -77.167 -37.5 -144.5z" />
    <glyph glyph-name="R" unicode="R" horiz-adv-x="490" 
d="M63 700h161.998c26.667 0 51.834 -3.16699 75.501 -9.5s45.834 -16 66.501 -29s37.167 -31.667 49.5 -56s18.5 -53.166 18.5 -86.499v-29c0 -44.667 -11.833 -80.334 -35.5 -107.001s-54.167 -45 -91.5 -55l135 -328h-69l-126 309h-120v-309h-65v700zM370.998 500
l-0.000976562 9.00098c0 24.667 -3.83301 45.667 -11.5 63s-18.334 30.5 -32.001 39.5s-28.167 15.5 -43.5 19.5s-32.333 6 -51 6h-105v-265h105c18 0 34.833 2 50.5 6s30.334 10.667 44.001 20s24.334 22.666 32.001 39.999s11.5 38 11.5 62z" />
    <glyph glyph-name="S" unicode="S" horiz-adv-x="500" 
d="M46 210h62.998c0 -22 2.83301 -42 8.5 -60s13.167 -32.833 22.5 -44.5s20.166 -21.334 32.499 -29.001s24.833 -13.167 37.5 -16.5s25.667 -5 39 -5c28 0 52.333 4.66699 73 14s37 24 49 44s18 45 18 75c0 22.667 -3.33301 42.167 -10 58.5s-17 30 -31 41
s-28.833 20 -44.5 27s-35.167 13.833 -58.5 20.5c-14.667 4 -25.334 7.16699 -32.001 9.5s-17.5 6.33301 -32.5 12s-26.667 11.334 -35 17.001s-18.5 13.5 -30.5 23.5s-21 20.5 -27 31.5s-11.333 24.667 -16 41s-7 33.833 -7 52.5c0 34 5.33301 63.5 16 88.5
s25.334 44.333 44.001 58s38.834 23.834 60.501 30.501s44.834 10 69.501 10c24 0 46.833 -3.83301 68.5 -11.5s42 -19.667 61 -36s34 -39.333 45 -69s16.5 -63.834 16.5 -102.501h-63c0 51.333 -12.5 90.166 -37.5 116.499s-55.167 39.5 -90.5 39.5s-65 -10.167 -89 -30.5
s-36 -50.166 -36 -89.499c0 -11.333 1.16699 -21.833 3.5 -31.5s5.83301 -18.167 10.5 -25.5s9.33398 -13.833 14.001 -19.5s10.667 -11 18 -16s13.666 -9 18.999 -12s12.333 -6 21 -9s15.334 -5.16699 20.001 -6.5l19.5 -5.5c8.33301 -2.33301 13.833 -3.83301 16.5 -4.5
c63.333 -17.333 109.5 -42.166 138.5 -74.499s43.5 -74.833 43.5 -127.5c0 -36.667 -5.33301 -68.5 -16 -95.5s-25.834 -48 -45.501 -63s-41.167 -26 -64.5 -33s-49.666 -10.5 -78.999 -10.5c-24.667 0 -48.5 3.83301 -71.5 11.5s-44.5 19.667 -64.5 36
s-36.167 39.166 -48.5 68.499s-18.5 63.333 -18.5 102z" />
    <glyph glyph-name="T" unicode="T" horiz-adv-x="452" 
d="M405 700v-63h-146v-637h-65v637h-147v63h358z" />
    <glyph glyph-name="U" unicode="U" horiz-adv-x="524" 
d="M128 240l-0.00195312 460.001h-65v-469c0 -44 5.66699 -82 17 -114s26.666 -56.833 45.999 -74.5s40.333 -30.5 63 -38.5s47.334 -12 74.001 -12c26 0 50.333 4 73 12s43.834 20.667 63.501 38s35.334 42.166 47.001 74.499s17.5 70.5 17.5 114.5v469h-65v-460
c0 -65.333 -12.833 -112.5 -38.5 -141.5s-58.167 -43.5 -97.5 -43.5c-40 0 -72.5 14.5 -97.5 43.5s-37.5 76.167 -37.5 141.5z" />
    <glyph glyph-name="V" unicode="V" horiz-adv-x="536" 
d="M423 700h66l-180 -700h-82l-180 700h66l155 -596z" />
    <glyph glyph-name="W" unicode="W" horiz-adv-x="804" 
d="M691 700h66l-154 -700h-75l-126 546l-127 -546h-74l-154 700h66l129 -587l129 587h62l129 -587z" />
    <glyph glyph-name="X" unicode="X" horiz-adv-x="508" 
d="M458 700l-162 -346l165 -354h-69l-137 288l-139 -288h-69l165 353l-162 347h69l135 -285l136 285h68z" />
    <glyph glyph-name="Y" unicode="Y" horiz-adv-x="512" 
d="M396 700h69l-177 -412v-288h-67v288l-174 412h69l139 -338z" />
    <glyph glyph-name="Z" unicode="Z" horiz-adv-x="509" 
d="M118 64h345v-64h-417v55l339 582h-331v63h403v-56z" />
    <glyph glyph-name="bracketleft" unicode="[" horiz-adv-x="232" 
d="M182 686h-65v-762h65v-64h-132v890h132v-64z" />
    <glyph glyph-name="backslash" unicode="\" horiz-adv-x="431" 
d="M39 700h68l286 -700h-68z" />
    <glyph glyph-name="bracketright" unicode="]" horiz-adv-x="232" 
d="M50 750h132v-890h-132v64h65v762h-65v64z" />
    <glyph glyph-name="asciicircum" unicode="^" horiz-adv-x="483" 
d="M50 410l191 278l192 -278h-53l-139 205l-138 -205h-53z" />
    <glyph glyph-name="underscore" unicode="_" horiz-adv-x="514" 
d="M50 -54h414v-64h-414v64z" />
    <glyph glyph-name="grave" unicode="`" horiz-adv-x="240" 
d="M53 707h75l59 -131h-48z" />
    <glyph glyph-name="a" unicode="a" horiz-adv-x="393" 
d="M304 500h42v-500h-42l-6 65c-22.667 -48.667 -61.667 -73 -117 -73c-14 0 -27.5 1.66699 -40.5 5s-25.667 9.33301 -38 18s-23 19.5 -32 32.5s-16.167 29.833 -21.5 50.5s-8 44 -8 70v165c0 32 4 60 12 84s19 42.333 33 55s28.833 22 44.5 28s32.5 9 50.5 9
c55.333 0 94.333 -23.667 117 -71zM97 306v-111c0 -101.333 32.333 -152 97 -152c30 0 53.5 11.333 70.5 34s25.5 62 25.5 118v111c0 101.333 -32 152 -96 152c-64.667 0 -97 -50.667 -97 -152z" />
    <glyph glyph-name="b" unicode="b" horiz-adv-x="395" 
d="M105 700v-257c22 44 58.667 66 110 66c18 0 34.833 -3 50.5 -9s30.334 -15.333 44.001 -28s24.5 -31 32.5 -55s12 -52 12 -84v-165c0 -32 -4 -60 -12 -84s-18.833 -42.333 -32.5 -55s-28.334 -22 -44.001 -28s-32.5 -9 -50.5 -9c-56 0 -95.333 24.667 -118 74l-6 -66h-42
v700h56zM298 195v111c0 101.333 -32.333 152 -97 152c-64 0 -96 -50.667 -96 -152v-111c0 -56 8.5 -95.333 25.5 -118s40.5 -34 70.5 -34c64.667 0 97 50.667 97 152z" />
    <glyph glyph-name="c" unicode="c" horiz-adv-x="384" 
d="M41 168v165.002c0 32 4.33301 59.833 13 83.5s20.5 42 35.5 55s31.167 22.5 48.5 28.5s35.666 9 54.999 9s37.333 -2.83301 54 -8.5s32.5 -14.5 47.5 -26.5s27 -29.333 36 -52s13.833 -49.334 14.5 -80.001v-18h-55c-2 89.333 -34.333 134 -97 134
c-29.333 0 -52.666 -11.333 -69.999 -34s-26 -62 -26 -118v-111c0 -56 8.5 -95.333 25.5 -118s40.5 -34 70.5 -34c63.333 0 95.666 44.667 96.999 134h55v-17c-0.666992 -30.667 -5.5 -57.334 -14.5 -80.001s-21 -40.167 -36 -52.5s-30.833 -21.333 -47.5 -27
s-34.667 -8.5 -54 -8.5s-37.666 3 -54.999 9s-33.5 15.5 -48.5 28.5s-26.833 31.333 -35.5 55s-13 51.5 -13 83.5z" />
    <glyph glyph-name="d" unicode="d" horiz-adv-x="393" 
d="M290 700l55.9961 0.00195312v-700h-42l-6 66c-23.333 -49.333 -62.666 -74 -117.999 -74c-18 0 -34.833 3 -50.5 9s-30.334 15.333 -44.001 28s-24.5 31 -32.5 55s-12 52 -12 84v165c0 22 1.83301 42 5.5 60s8.83398 33.167 15.501 45.5s14.334 23.166 23.001 32.499
s18.334 16.666 29.001 21.999s21.334 9.33301 32.001 12s22 4 34 4c51.333 0 88 -22 110 -66v257zM96.9961 306.002v-111c0 -101.333 32.333 -152 97 -152c30 0 53.5 11.333 70.5 34s25.5 62 25.5 118v111c0 101.333 -32 152 -96 152c-64.667 0 -97 -50.667 -97 -152z" />
    <glyph glyph-name="e" unicode="e" horiz-adv-x="385" 
d="M41 168l0.000976562 165.001c0 32 4.33301 59.833 13 83.5s20.5 42 35.5 55s31.167 22.5 48.5 28.5s35.666 9 54.999 9s37.5 -3 54.5 -9s33.167 -15.333 48.5 -28s27.333 -31 36 -55s13 -52 13 -84v-108h-248v-44c0 -50.667 8.66699 -86.334 26 -107.001
s40.666 -31 69.999 -31c61.333 0 93.333 39.667 96 119h56c0 -31.333 -4.5 -58.5 -13.5 -81.5s-21 -40.667 -36 -53s-31 -21.333 -48 -27s-35.167 -8.5 -54.5 -8.5s-37.666 3 -54.999 9s-33.5 15.5 -48.5 28.5s-26.833 31.333 -35.5 55s-13 51.5 -13 83.5zM289.001 269.001
v55c0 89.333 -32 134 -96 134s-96 -45 -96 -135v-54h192z" />
    <glyph glyph-name="f" unicode="f" horiz-adv-x="313" 
d="M249 709l27.001 -0.000976562v-51h-14c-24 0 -42 -3.16699 -54 -9.5s-21.333 -19.5 -28 -39.5s-10 -49.667 -10 -89v-20h106v-52h-106v-448h-56v448h-77v51h76v34c0 28.667 2.16699 53.5 6.5 74.5s10.166 37.833 17.499 50.5s16.833 22.834 28.5 30.501s24 13 37 16
s28.5 4.5 46.5 4.5z" />
    <glyph glyph-name="g" unicode="g" 
d="M41 176l-0.00195312 157.001c0 22 1.83301 42 5.5 60s8.83398 33.167 15.501 45.5s14.334 23.166 23.001 32.499s18.334 16.666 29.001 21.999s21.334 9.33301 32.001 12s22 4 34 4c55.333 0 94.666 -24 117.999 -72l6 63h42v-499
c0 -31.333 -4.33301 -58.666 -13 -81.999s-20.5 -41.333 -35.5 -54s-31 -22 -48 -28s-35.5 -9 -55.5 -9c-34 0 -64.333 9 -91 27s-44.667 46.667 -54 86h58c14 -41.333 43 -62 87 -62c64 0 96 44 96 132v57c-21.333 -45.333 -58 -68 -110 -68
c-14.667 0 -28.334 1.66699 -41.001 5s-25.167 9.33301 -37.5 18s-22.833 19.5 -31.5 32.5s-15.667 29.833 -21 50.5s-8 44 -8 70zM289.998 201.001l0.000976562 105c0 56 -8.5 95.333 -25.5 118s-40.5 34 -70.5 34c-64 0 -96.333 -50.667 -97 -152v-105
c0 -101.333 32.333 -152 97 -152c9.33301 0 17.833 1 25.5 3s15.334 5.16699 23.001 9.5s14.167 10.333 19.5 18s10.166 17 14.499 28s7.66602 24.333 9.99902 40s3.5 33.5 3.5 53.5z" />
    <glyph glyph-name="h" unicode="h" horiz-adv-x="401" 
d="M107 700l-0.00195312 -259c21.333 45.333 58.333 68 111 68c18 0 34.833 -3 50.5 -9s30.334 -15.333 44.001 -28s24.334 -31 32.001 -55s11.5 -52 11.5 -84v-333h-56v306c0 101.333 -32.333 152 -97 152c-64 0 -96 -46.667 -96 -140v-318h-56v700h56z" />
    <glyph glyph-name="i" unicode="i" horiz-adv-x="165" 
d="M51 585v61h65v-61h-65zM55 0v500h57v-500h-57z" />
    <glyph glyph-name="j" unicode="j" horiz-adv-x="263" 
d="M151 645h64v-59h-64v59zM155 500l55.999 0.000976562v-497c0 -36 -3 -65.833 -9 -89.5s-15.5 -41.667 -28.5 -54s-27.167 -20.833 -42.5 -25.5s-34.666 -7 -57.999 -7h-24v51h12c24.667 0.666992 43.167 4.16699 55.5 10.5s21.833 19.666 28.5 39.999s10 50.833 10 91.5
v480z" />
    <glyph glyph-name="k" unicode="k" horiz-adv-x="370" 
d="M334 0h-61l-169 226v-226h-56v700h56v-414l160 214h60l-171 -244z" />
    <glyph glyph-name="l" unicode="l" horiz-adv-x="152" 
d="M51 0v700h56v-700h-56z" />
    <glyph glyph-name="m" unicode="m" horiz-adv-x="646" 
d="M91 500l6.99512 -65.001c22.667 49.333 61.667 74 117 74c28 0 53.167 -7.16699 75.5 -21.5s38.5 -37.166 48.5 -68.499c10.667 30 26.834 52.5 48.501 67.5s46.834 22.5 75.501 22.5c18 0 34.833 -3 50.5 -9s30.334 -15.333 44.001 -28s24.334 -31 32.001 -55
s11.5 -52 11.5 -84v-333h-56v306c0 101.333 -32.333 152 -97 152c-57.333 0 -88.666 -36.667 -93.999 -110v-348h-56v306c0 101.333 -32.333 152 -97 152c-64 0 -96 -45.333 -96 -136v-322h-56v500h42z" />
    <glyph glyph-name="n" unicode="n" horiz-adv-x="398" 
d="M91 500l6.99902 -65c22.667 49.333 61.667 74 117 74c18 0 34.833 -3 50.5 -9s30.334 -15.333 44.001 -28s24.5 -31 32.5 -55s12 -52 12 -84v-333h-56v306c0 101.333 -32.333 152 -97 152c-64 0 -96 -46.667 -96 -140v-318h-56v500h42z" />
    <glyph glyph-name="o" unicode="o" horiz-adv-x="387" 
d="M41 168v165c0 32 4.33301 59.833 13 83.5s20.5 42 35.5 55s31.167 22.5 48.5 28.5s35.666 9 54.999 9s37.666 -3 54.999 -9s33.666 -15.333 48.999 -28s27.333 -31 36 -55s13 -52 13 -84v-165c0 -32 -4.33301 -60 -13 -84s-20.667 -42.333 -36 -55
s-31.666 -22 -48.999 -28s-35.666 -9 -54.999 -9s-37.666 3 -54.999 9s-33.5 15.5 -48.5 28.5s-26.833 31.333 -35.5 55s-13 51.5 -13 83.5zM290 195l-0.000976562 111c0 101.333 -32.333 152 -97 152c-29.333 0 -52.666 -11.333 -69.999 -34s-26 -62 -26 -118v-111
c0 -56 8.5 -95.333 25.5 -118s40.5 -34 70.5 -34c64.667 0 97 50.667 97 152z" />
    <glyph glyph-name="p" unicode="p" 
d="M90 500l6 -65.998c22.667 49.333 62 74 118 74c18 0 34.833 -3 50.5 -9s30.334 -15.333 44.001 -28s24.5 -30.834 32.5 -54.501s12 -51.834 12 -84.501v-165c0 -32 -4 -59.833 -12 -83.5s-18.833 -42 -32.5 -55s-28.334 -22.5 -44.001 -28.5s-32.5 -9 -50.5 -9
c-52 0 -88.667 22 -110 66v-220h-56v663h42zM297 194.002v111c-0.666992 101.333 -33 152 -97 152c-30 0 -53.5 -11.333 -70.5 -34s-25.5 -62 -25.5 -118v-111c0 -101.333 32 -152 96 -152c64.667 0 97 50.667 97 152z" />
    <glyph glyph-name="q" unicode="q" horiz-adv-x="393" 
d="M304 500l42.0039 0.000976562v-663h-56v220c-22 -44 -58.667 -66 -110 -66c-14.667 0 -28.334 1.83301 -41.001 5.5s-25.167 9.66699 -37.5 18s-22.833 19.166 -31.5 32.499s-15.667 30.166 -21 50.499s-8 43.5 -8 69.5v165c0 16.667 1 32.167 3 46.5s5 27 9 38
s8.66699 21.167 14 30.5s11.333 17.333 18 24s13.667 12.334 21 17.001s15.166 8.5 23.499 11.5s16.666 5.16699 24.999 6.5s16.833 2 25.5 2c55.333 0 94.666 -24.667 117.999 -74zM97.0039 305.001v-111c0 -101.333 32.333 -152 97 -152c64 0 96 50.667 96 152v111
c0 56 -8.5 95.333 -25.5 118s-40.5 34 -70.5 34c-64.667 0 -97 -50.667 -97 -152z" />
    <glyph glyph-name="r" unicode="r" horiz-adv-x="264" 
d="M91 500l8 -78c8.66699 18.667 19.834 34.667 33.501 48s28.5 23.166 44.5 29.499s33 9.5 51 9.5v-51c-36.667 0 -66.334 -13.167 -89.001 -39.5s-34 -66.166 -34 -119.499v-299h-56v500h42z" />
    <glyph glyph-name="s" unicode="s" horiz-adv-x="376" 
d="M91 149l-0.000976562 -8.99707c1.33301 -34 11.333 -58.667 30 -74s41 -23 67 -23c64.667 0 97 30.667 97 92c0 29.333 -8.33301 52.166 -25 68.499s-41.667 29.5 -75 39.5c-14 3.33301 -26.333 6.83301 -37 10.5s-22.667 9.16699 -36 16.5s-24.333 15.5 -33 24.5
s-15.834 20.833 -21.501 35.5s-8.5 30.667 -8.5 48c0 44.667 13.5 77.667 40.5 99s61.167 32 102.5 32c38 0 71.167 -12.333 99.5 -37s43.166 -60.667 44.499 -108v-10h-56v11c-2 32 -11.167 55.5 -27.5 70.5s-36.5 22.5 -60.5 22.5c-58 0 -87 -25.667 -87 -77
c0 -14 2.83301 -26.333 8.5 -37s14 -19.334 25 -26.001s20.167 -11.334 27.5 -14.001s17 -6 29 -10c2.66699 -0.666992 4.66699 -1.33398 6 -2.00098c50.667 -13.333 86.834 -32.833 108.501 -58.5s32.5 -57.834 32.5 -96.501c0 -33.333 -7.16699 -61.166 -21.5 -83.499
s-32.666 -38.166 -54.999 -47.499s-48.166 -14 -77.499 -14c-39.333 0 -74.333 12.333 -105 37s-46.667 61 -48 109v11h56z" />
    <glyph glyph-name="t" unicode="t" horiz-adv-x="313" 
d="M170 450l0.000976562 -260.001c0 -33.333 1.5 -59.666 4.5 -78.999s8.66699 -34.166 17 -44.499s17.666 -17 27.999 -20s25.166 -4.5 44.499 -4.5h12v-51h-25c-23.333 0 -42.666 2.16699 -57.999 6.5s-29.5 12.666 -42.5 24.999s-22.5 31 -28.5 56s-9 56.833 -9 95.5v276
h-76v50h76v153h57v-153h106v-50h-106z" />
    <glyph glyph-name="u" unicode="u" 
d="M294 500h56.002v-500h-43l-6 65c-22.667 -49.333 -62 -74 -118 -74c-18 0 -34.833 3 -50.5 9s-30.334 15.333 -44.001 28s-24.334 31 -32.001 55s-11.5 52 -11.5 84v333h56v-306c0 -101.333 32.333 -152 97 -152c64 0 96 46.667 96 140v318z" />
    <glyph glyph-name="v" unicode="v" horiz-adv-x="445" 
d="M351 500h57l-153 -500h-65l-153 500h56l129 -414z" />
    <glyph glyph-name="w" unicode="w" horiz-adv-x="667" 
d="M573 500h57l-123 -500h-67l-107 392l-106 -392h-67l-123 500h56l104 -421l112 421h49l112 -421z" />
    <glyph glyph-name="x" unicode="x" horiz-adv-x="399" 
d="M361 500l-120 -247l122 -253h-59l-104 204l-105 -204h-58l122 252l-120 248h58l103 -212l102 212h59z" />
    <glyph glyph-name="y" unicode="y" horiz-adv-x="378" 
d="M286 500h56.0029v-508c-1.33301 -30 -6.5 -56 -15.5 -78s-21 -39 -36 -51s-30.833 -20.833 -47.5 -26.5s-34.334 -8.5 -53.001 -8.5c-34 0 -64.5 9 -91.5 27s-45.167 46.667 -54.5 86h59c13.333 -41.333 42 -62 86 -62c64.667 0 97 44 97 132v57
c-22 -45.333 -59 -68 -111 -68c-18 0 -34.833 3 -50.5 9s-30.334 15.333 -44.001 28s-24.334 31 -32.001 55s-11.5 52 -11.5 84v324h56v-297c0 -101.333 32 -152 96 -152s96.333 50.667 97 152v297z" />
    <glyph glyph-name="z" unicode="z" horiz-adv-x="372" 
d="M99 51h237v-51h-299v44l235 404h-224v52h285v-44z" />
    <glyph glyph-name="braceleft" unicode="{" horiz-adv-x="368" 
d="M261 750l57.002 0.00195312v-63h-47c-13.333 0 -25.166 -5.33301 -35.499 -16s-15.5 -24.334 -15.5 -41.001v-196c0 -20 -3 -38.5 -9 -55.5s-15.5 -31.833 -28.5 -44.5s-28.5 -21.334 -46.5 -26.001c27.333 -8 48.166 -22.667 62.499 -44s21.5 -46.666 21.5 -75.999v-209
c0 -16 5.16699 -29.333 15.5 -40s22.166 -16 35.499 -16h47v-63h-57c-31.333 0 -57 10.167 -77 30.5s-30.333 47.166 -31 80.499v201c-0.666992 66 -33.334 100.667 -98.001 104h-5v63h5c30.667 1.33301 54.667 10.5 72 27.5s26.333 42.167 27 75.5v197c0 34 10 61 30 81
s45.667 30 77 30z" />
    <glyph glyph-name="bar" unicode="|" horiz-adv-x="167" 
d="M50 700h67v-760h-67v760z" />
    <glyph glyph-name="braceright" unicode="}" horiz-adv-x="368" 
d="M50 750l57.001 -0.000976562c31.333 0 57 -10 77 -30s30.333 -47 31 -81v-197c0.666992 -33.333 9.5 -58.5 26.5 -75.5s40.833 -26.167 71.5 -27.5h5v-63h-5c-64 -2.66699 -96.667 -37.667 -98 -105v-200c-0.666992 -22 -5.66699 -41.5 -15 -58.5s-22 -30 -38 -39
s-34.333 -13.5 -55 -13.5h-57v64h47c14 0 26 5.33301 36 16s15 24 15 40v208c0 19.333 3.16699 36.833 9.5 52.5s15.833 29.5 28.5 41.5s28 20.667 46 26c-26.667 8 -47.334 23.333 -62.001 46s-22 49.334 -22 80.001v196c0 16 -5 29.333 -15 40s-22 16 -36 16h-47v64z" />
    <glyph glyph-name="asciitilde" unicode="~" horiz-adv-x="563" 
d="M101 202h-51.001c0 29.333 4.33301 55.5 13 78.5s22.167 41.667 40.5 56s40.166 21.5 65.499 21.5c19.333 0 36.5 -3.33301 51.5 -10s33.167 -16.667 54.5 -30c2.66699 -2.66699 7.66699 -6.66699 15 -12l16.5 -12c3.66699 -2.66699 8.83398 -6.16699 15.501 -10.5
s12.5 -7.5 17.5 -9.5l17 -6.5c6.33301 -2.33301 12.833 -4 19.5 -5s13.667 -1.5 21 -1.5c20.667 0.666992 36.667 8.83398 48 24.501s17 35.5 17 59.5h51c0 -27.333 -4 -51.833 -12 -73.5s-20.5 -39.167 -37.5 -52.5s-37.167 -20 -60.5 -20c-12 0 -23 1 -33 3
s-20.333 5.66699 -31 11s-19 9.83301 -25 13.5s-15.167 9.83398 -27.5 18.501s-20.5 14.667 -24.5 18c-32 22.667 -60.667 33.667 -86 33c-23.333 -0.666992 -41.666 -9.83398 -54.999 -27.501s-20 -39.834 -20 -66.501z" />
    <glyph glyph-name="exclamdown" unicode="&#xa1;" horiz-adv-x="165" 
d="M50 538h65v-65h-65v65zM60 374h44l7 -296v-241h-58v241z" />
    <glyph glyph-name="cent" unicode="&#xa2;" horiz-adv-x="386" 
d="M165 601l57.001 0.00195312v-96c34.667 -5.33301 63.5 -21 86.5 -47s35.167 -64.667 36.5 -116v-18h-55c-2 89.333 -34.333 134 -97 134c-14 0 -26.5 -2.33301 -37.5 -7s-21 -12.5 -30 -23.5s-16 -26.667 -21 -47s-7.5 -45.166 -7.5 -74.499v-111
c0 -56 8.5 -95.333 25.5 -118s40.5 -34 70.5 -34c63.333 0 95.666 44.667 96.999 134h55v-17c-0.666992 -26.667 -4.5 -50.334 -11.5 -71.001s-16.333 -37.167 -28 -49.5s-24.5 -22 -38.5 -29s-29 -11.833 -45 -14.5v-94h-57v94c-36 5.33301 -65.667 21.666 -89 48.999
s-35 68.333 -35 123v165c0 54.667 11.667 95.667 35 123s53 43.666 89 48.999v96z" />
    <glyph glyph-name="sterling" unicode="&#xa3;" horiz-adv-x="535" 
d="M497 472l-66 0.00195312v6c-3.33301 60 -17.166 103 -41.499 129s-55.5 39 -93.5 39c-18.667 0 -35.834 -3.16699 -51.501 -9.5s-30.167 -16.333 -43.5 -30s-23.5 -33 -30.5 -58s-10.5 -55.167 -10.5 -90.5v-78h152v-64h-152v-252h310v-64h-432v64h55v252h-55v64h55v91
c0.666992 44 6.83398 82 18.501 114s27.334 56.667 47.001 74s41 30 64 38s47.5 12 73.5 12c25.333 0 49.166 -3.83301 71.499 -11.5s43.166 -19.834 62.499 -36.501s35 -40.334 47 -71.001s18.667 -67 20 -109v-9z" />
    <glyph glyph-name="currency" unicode="&#xa4;" horiz-adv-x="600" 
 />
    <glyph glyph-name="yen" unicode="&#xa5;" horiz-adv-x="555" 
d="M452 700h69l-147 -266h121v-64h-147l-30 -51l-1 -18h178v-63h-184v-238h-67v238h-183v63h178l-2 18l-29 51h-147v64h121l-148 266h70l173 -324z" />
    <glyph glyph-name="brokenbar" unicode="&#xa6;" horiz-adv-x="167" 
d="M50 700h67v-320h-67v320zM50 260h67v-320h-67v320z" />
    <glyph glyph-name="section" unicode="&#xa7;" horiz-adv-x="418" 
d="M101 87l0.00195312 -8.00293c0.666992 -38.667 11.834 -67 33.501 -85s46.5 -27 74.5 -27c32.667 0 58.834 8 78.501 24s29.5 41.333 29.5 76s-9.83301 60.667 -29.5 78s-48.167 31.333 -85.5 42c-14.667 3.33301 -27.834 7 -39.501 11s-24.5 10 -38.5 18
s-25.667 17 -35 27s-17.333 23 -24 39s-10 33.667 -10 53c0 50.667 19 88 57 112c-38 26 -57 62.333 -57 109c0 48.667 15 84.834 45 108.501s67 35.5 111 35.5c43.333 0 80.5 -13.667 111.5 -41s46.833 -67.666 47.5 -120.999v-8h-62v7
c-0.666992 36 -10.334 62.833 -29.001 80.5s-41.334 26.5 -68.001 26.5s-49 -7 -67 -21s-27 -35.333 -27 -64c0 -9.33301 1.33301 -18 4 -26s5.5 -14.833 8.5 -20.5s8 -11.167 15 -16.5s12.667 -9.33301 17 -12s11.166 -5.83398 20.499 -9.50098s16 -6.16699 20 -7.5l21 -7
c104 -26 156 -82.333 156 -169c0 -47.333 -14 -84.666 -42 -111.999c28 -28.667 42 -65 42 -109c0 -53.333 -16 -93.333 -48 -120s-72.667 -40 -122 -40c-20 0 -39.5 3.33301 -58.5 10s-37 16.334 -54 29.001s-30.833 30.167 -41.5 52.5s-16 47.833 -16 76.5v9h62z
M171.002 418.997c-38 -12.667 -57 -39.668 -57 -81.001c0 -7.33301 0.666992 -14.333 2 -21s3.66602 -12.667 6.99902 -18s6.5 -10.166 9.5 -14.499s7.16699 -8.33301 12.5 -12l13.5 -9c3.66699 -2.33301 9 -4.83301 16 -7.5l16 -6
c3.66699 -1.33301 9.16699 -3.16602 16.5 -5.49902s12.333 -4.16602 15 -5.49902c27.333 -8.66699 49 -18.667 65 -30c22.667 17.333 34 44.333 34 81c0 31.333 -9 55.166 -27 71.499s-43.667 30.166 -77 41.499c-29.333 10 -44.666 15.333 -45.999 16z" />
    <glyph glyph-name="dieresis" unicode="&#xa8;" horiz-adv-x="281" 
d="M52 639v61h61v-61h-61zM169 639v61h61v-61h-61z" />
    <glyph glyph-name="copyright" unicode="&#xa9;" horiz-adv-x="603" 
d="M301.5 700c74.333 0 137.334 -26.501 189.001 -79.501s77.5 -116.5 77.5 -190.5c0 -48 -11.667 -92.667 -35 -134s-55.5 -74.166 -96.5 -98.499s-85.833 -36.5 -134.5 -36.5c-74.667 0 -137.667 26.5 -189 79.5s-77 116.333 -77 190s25.667 137 77 190
s114.166 79.5 188.499 79.5zM302.001 659.999c-64.667 0 -118.167 -22.3311 -160.5 -66.998s-63.5 -98.834 -63.5 -162.501s21.167 -117.834 63.5 -162.501s95.833 -67 160.5 -67s118.334 22.333 161.001 67s64 98.667 64 162c0 42 -9.5 80.5 -28.5 115.5
s-45.833 62.833 -80.5 83.5s-73.334 31 -116.001 31zM188.001 410.001l0.000976562 41.0029c0 28 3.16699 52.167 9.5 72.5s15 36.166 26 47.499s23 19.666 36 24.999s26.833 8 41.5 8c20 0 37.5 -3.5 52.5 -10.5s28.5 -19.5 40.5 -37.5s19.333 -41 22 -69v-6h-36
c-4.66699 32.667 -13.667 55.667 -27 69s-30.666 20 -51.999 20c-24 0 -42.667 -10 -56 -30s-20 -55.333 -20 -106v-7c0 -50.667 6.66699 -86 20 -106s32.333 -30 57 -30c21.333 0 38.666 6.66699 51.999 20s22 36.333 26 69h36v-6
c-4.66699 -41.333 -17.334 -71 -38.001 -89s-46 -27 -76 -27c-12.667 0 -24.167 1.5 -34.5 4.5s-20.5 8.16699 -30.5 15.5s-18.5 16.666 -25.5 27.999s-12.667 26 -17 44s-6.5 38 -6.5 60z" />
    <glyph glyph-name="ordfeminine" unicode="&#xaa;" horiz-adv-x="393" 
d="M304 500h42v-500h-42l-6 65c-22.667 -48.667 -61.667 -73 -117 -73c-14 0 -27.5 1.66699 -40.5 5s-25.667 9.33301 -38 18s-23 19.5 -32 32.5s-16.167 29.833 -21.5 50.5s-8 44 -8 70v165c0 32 4 60 12 84s19 42.333 33 55s28.833 22 44.5 28s32.5 9 50.5 9
c55.333 0 94.333 -23.667 117 -71zM97 306v-111c0 -101.333 32.333 -152 97 -152c30 0 53.5 11.333 70.5 34s25.5 62 25.5 118v111c0 101.333 -32 152 -96 152c-64.667 0 -97 -50.667 -97 -152z" />
    <glyph glyph-name="guillemotleft" unicode="&#xab;" horiz-adv-x="373" 
d="M50 306l131 110v-68l-93 -76l93 -75v-69l-131 110v68zM192 306l131 110v-68l-93 -76l93 -75v-69l-131 110v68z" />
    <glyph glyph-name="logicalnot" unicode="&#xac;" horiz-adv-x="535" 
d="M485 172h-67v116h-368v64h435v-180z" />
    <glyph glyph-name="registered" unicode="&#xae;" horiz-adv-x="603" 
d="M302 697c74 0 136.833 -26.5 188.5 -79.5s77.5 -116.333 77.5 -190s-25.833 -137.167 -77.5 -190.5s-114.5 -80 -188.5 -80s-136.833 26.667 -188.5 80s-77.5 116.833 -77.5 190.5s25.833 137 77.5 190s114.5 79.5 188.5 79.5zM302 657
c-64.667 0 -118.335 -22.333 -161.002 -67s-64 -99 -64 -163s21.333 -118.167 64 -162.5s96.334 -66.5 161.001 -66.5s118.334 22.167 161.001 66.5s64 98.5 64 162.5c0 24.667 -3.5 48.667 -10.5 72s-17.333 44.5 -31 63.5s-29.5 35.667 -47.5 50s-38.667 25.333 -62 33
s-48 11.5 -74 11.5zM209.999 596l93.998 0.000976562c30.667 0 55.834 -8.5 75.501 -25.5s29.5 -39.167 29.5 -66.5v-7c-1.33301 -21.333 -8.66602 -39.333 -21.999 -54s-30.333 -24.334 -51 -29.001l86 -155h-41l-81 146h-53v-146h-37v337zM246.997 443.001h56
c20.667 0 37.167 5.16699 49.5 15.5s18.5 24.833 18.5 43.5c0 12 -3 22.5 -9 31.5s-14 15.833 -24 20.5s-21.667 7 -35 7h-56v-118z" />
    <glyph glyph-name="macron" unicode="&#xaf;" horiz-adv-x="384" 
d="M50 700h285v-52h-285v52z" />
    <glyph glyph-name="degree" unicode="&#xb0;" horiz-adv-x="352" 
d="M176 731c34.667 0 64.332 -12.165 88.999 -36.498s37 -53.833 37 -88.5c0 -35.333 -12.333 -65.333 -37 -90s-54.334 -37 -89.001 -37c-22.667 0 -43.667 5.66699 -63 17s-34.666 26.666 -45.999 45.999s-17 40.666 -17 63.999c0 34.667 12.333 64.167 37 88.5
s54.334 36.5 89.001 36.5zM175.998 683.002c-21.333 0 -39.5 -7.50098 -54.5 -22.501s-22.5 -33.167 -22.5 -54.5s7.5 -39.666 22.5 -54.999s33.167 -23 54.5 -23c14 0 27 3.5 39 10.5s21.333 16.5 28 28.5s10 25 10 39s-3.33301 26.833 -10 38.5s-16 21 -28 28
s-25 10.5 -39 10.5z" />
    <glyph glyph-name="plusminus" unicode="&#xb1;" horiz-adv-x="535" 
d="M234 522h67v-123h184v-64h-184v-121h-67v121h-184v64h184v123zM485 13h-435v64h435v-64z" />
    <glyph glyph-name="acute" unicode="&#xb4;" horiz-adv-x="240" 
d="M111 706h76l-86 -130h-48z" />
    <glyph glyph-name="paragraph" unicode="&#xb6;" horiz-adv-x="586" 
d="M185 700l363 0.000976562v-64h-38v-799h-67v799h-97v-799h-67v471h-94c-41.333 0 -76.333 14.167 -105 42.5s-43 63.5 -43 105.5v96c0 19.333 4 38 12 56s18.5 33.667 31.5 47s28.667 24.166 47 32.499s37.5 12.5 57.5 12.5z" />
    <glyph glyph-name="periodcentered" unicode="&#xb7;" horiz-adv-x="165" 
d="M50 297v65h65v-65h-65z" />
    <glyph glyph-name="cedilla" unicode="&#xb8;" horiz-adv-x="227" 
d="M129 0h48v-54c0 -40.667 -7.5 -70 -22.5 -88s-41.5 -27 -79.5 -27h-25v44h24c20.667 0.666992 35 6.66699 43 18s12 29.333 12 54v53z" />
    <glyph glyph-name="ordmasculine" unicode="&#xba;" horiz-adv-x="387" 
d="M41 168v165c0 32 4.33301 59.833 13 83.5s20.5 42 35.5 55s31.167 22.5 48.5 28.5s35.666 9 54.999 9s37.666 -3 54.999 -9s33.666 -15.333 48.999 -28s27.333 -31 36 -55s13 -52 13 -84v-165c0 -32 -4.33301 -60 -13 -84s-20.667 -42.333 -36 -55
s-31.666 -22 -48.999 -28s-35.666 -9 -54.999 -9s-37.666 3 -54.999 9s-33.5 15.5 -48.5 28.5s-26.833 31.333 -35.5 55s-13 51.5 -13 83.5zM290 195l-0.000976562 111c0 101.333 -32.333 152 -97 152c-29.333 0 -52.666 -11.333 -69.999 -34s-26 -62 -26 -118v-111
c0 -56 8.5 -95.333 25.5 -118s40.5 -34 70.5 -34c64.667 0 97 50.667 97 152z" />
    <glyph glyph-name="guillemotright" unicode="&#xbb;" horiz-adv-x="373" 
d="M192 348v68l131 -110v-67l-131 -111v69l92 75zM50 348v68l131 -110v-67l-131 -111v69l93 75z" />
    <glyph glyph-name="onequarter" unicode="&#xbc;" horiz-adv-x="603" 
d="M44 700h79v-338h-46v296h-33v42zM396 700h52l-316 -700h-53zM438 338h47l-108 -227h104v145h46v-145h31v-42h-31v-69h-46v69h-153v45z" />
    <glyph glyph-name="onehalf" unicode="&#xbd;" horiz-adv-x="623" 
d="M44 700h79v-338h-46v296h-33v42zM396 700h52l-316 -700h-53zM469 340l11 -0.00195312c26 0 48.833 -8.33301 68.5 -25s29.834 -41.667 30.501 -75v-3c0 -16.667 -3.66699 -31.667 -11 -45s-16.5 -24.333 -27.5 -33s-23 -17.5 -36 -26.5l-37 -25
c-11.667 -7.66699 -21.667 -17.167 -30 -28.5s-13.166 -23.333 -14.499 -36h152v-43h-209v26c0 19.333 4.16699 36.833 12.5 52.5s18.666 28.167 30.999 37.5s25.666 18.833 39.999 28.5l40 26c12.333 7.66699 22.666 17.334 30.999 29.001s12.5 24.5 12.5 38.5
c0 20.667 -5.66699 36 -17 46s-23.666 15 -36.999 15h-4c-14.667 0 -28 -4.83301 -40 -14.5s-20 -24.167 -24 -43.5h-46l1 4c4 31.333 16 54.833 36 70.5s42.333 23.834 67 24.501z" />
    <glyph glyph-name="threequarters" unicode="&#xbe;" horiz-adv-x="673" 
d="M140 703l12.999 0.00195312c14.667 -0.666992 28.834 -3.5 42.501 -8.5s25.834 -14.333 36.501 -28s16 -30.5 16 -50.5v-7c0 -16 -4.83301 -30.5 -14.5 -43.5s-21.5 -21.167 -35.5 -24.5c16 -6 28.833 -16.167 38.5 -30.5s14.5 -30.833 14.5 -49.5v-8
c0 -28.667 -9.66699 -50.834 -29 -66.501s-42.666 -23.5 -69.999 -23.5h-12c-23.333 0 -45.333 8 -66 24s-33 39.667 -37 71v2h43c2.66699 -12.667 7.5 -23.334 14.5 -32.001s14.667 -14.667 23 -18s17.166 -5 26.499 -5h7c14.667 0 27.5 4.33301 38.5 13s16.5 21 16.5 37v4
c0 18.667 -5.83301 33.5 -17.5 44.5s-26.5 16.5 -44.5 16.5h-32v42h32c15.333 0 29 4 41 12s18 20 18 36v3c0 10.667 -2.83301 19.667 -8.5 27s-12.334 12.5 -20.001 15.5s-15.5 4.5 -23.5 4.5h-7c-14 0 -26.833 -4.16699 -38.5 -12.5s-19.167 -21.166 -22.5 -38.499h-44v3
c4 29.333 16 51.666 36 66.999s41.667 23.333 65 24zM472.999 700.002h53l-316 -700h-53zM508.999 338.002h47l-109 -227h104v145h47v-145h31v-42h-31v-69h-46v69h-153v45z" />
    <glyph glyph-name="questiondown" unicode="&#xbf;" horiz-adv-x="503" 
d="M305 479h-65v65h65v-65zM256 -163l-15.001 0.000976562c-22.667 0 -44.834 3.66699 -66.501 11s-42 18.5 -61 33.5s-34.333 35.833 -46 62.5s-17.5 57.667 -17.5 93v2c0 20 2.16699 38.333 6.5 55s10.333 30.667 18 42s16.334 21.5 26.001 30.5
s19.834 17.167 30.501 24.5l32 21c10.667 6.66699 21 13.834 31 21.501s18.667 16 26 25s13.166 20 17.499 33s6.5 27.5 6.5 43.5h58c0 -22.667 -2.66699 -42.834 -8 -60.501s-12.333 -32 -21 -43s-18.5 -21.333 -29.5 -31s-22.333 -18 -34 -25s-23 -14.833 -34 -23.5
s-20.833 -17.667 -29.5 -27s-15.667 -21.5 -21 -36.5s-8 -31.833 -8 -50.5c0 -46.667 12.5 -81.334 37.5 -104.001s53.833 -34 86.5 -34h8c31.333 0.666992 60 11.667 86 33s42.667 54.333 50 99h68l-1 -6c-4.66699 -32.667 -13.667 -61.5 -27 -86.5
s-29.333 -44.5 -48 -58.5s-38.167 -24.667 -58.5 -32s-41.166 -11.333 -62.499 -12z" />
    <glyph glyph-name="Agrave" unicode="&#xc0;" horiz-adv-x="535" 
d="M201 907h76l58 -131h-48zM227 700h81l180 -700h-65l-57 213h-196l-58 -213h-65zM356 279l-88 341l-89 -341h177z" />
    <glyph glyph-name="Aacute" unicode="&#xc1;" horiz-adv-x="535" 
d="M264 906h75l-85 -130h-48zM227 700h81l180 -700h-65l-57 213h-196l-58 -213h-65zM356 279l-88 341l-89 -341h177z" />
    <glyph glyph-name="Acircumflex" unicode="&#xc2;" horiz-adv-x="535" 
d="M236 902h65l100 -136h-50l-83 90l-83 -90h-50zM227 700h81l180 -700h-65l-57 213h-196l-57 -213h-66zM356 279l-88 341l-89 -341h177z" />
    <glyph glyph-name="Atilde" unicode="&#xc3;" horiz-adv-x="535" 
d="M360 902h45c0 -83.333 -23 -125 -69 -125c-12 0 -23.5 3 -34.5 9s-25.167 17.667 -42.5 35c-8.66699 8 -16 14 -22 18s-11 6.5 -15 7.5s-8.66699 1.5 -14 1.5c-12 0 -20.167 -5.66699 -24.5 -17s-6.5 -29.333 -6.5 -54h-45c0 83.333 23.333 125 70 125
c12.667 0 24.167 -3.33301 34.5 -10s24.5 -18 42.5 -34c18 -19.333 35.333 -28.333 52 -27c11.333 0.666992 19 6.5 23 17.5s6 28.833 6 53.5zM227 700h81l180 -700h-65l-57 213h-196l-58 -213h-65zM356 279l-88 341l-89 -341h177z" />
    <glyph glyph-name="Adieresis" unicode="&#xc4;" horiz-adv-x="535" 
d="M180 900h60v-61h-60v61zM297 900h61v-61h-61v61zM227 700h81l180 -700h-65l-57 213h-196l-58 -213h-65zM356 279l-88 341l-89 -341h177z" />
    <glyph glyph-name="Aring" unicode="&#xc5;" horiz-adv-x="535" 
d="M268 920c26.667 0 49.667 -9.50098 69 -28.501s29 -41.833 29 -68.5c0 -17.333 -4.33301 -33.666 -13 -48.999s-20.5 -27.333 -35.5 -36s-31.5 -13 -49.5 -13c-27.333 0 -50.333 9.5 -69 28.5s-28 42.167 -28 69.5c0 26.667 9.5 49.5 28.5 68.5s41.833 28.5 68.5 28.5z
M268 876.999c-14.667 0 -27.167 -5.33203 -37.5 -15.999s-15.5 -23.334 -15.5 -38.001c0 -15.333 5 -28.333 15 -39s22.667 -16 38 -16s28.333 5.33301 39 16s16 23.667 16 39c0 10 -2.5 19 -7.5 27s-11.667 14.5 -20 19.5s-17.5 7.5 -27.5 7.5zM227 700h81l180 -700h-65
l-57 213h-196l-58 -213h-65zM356 279l-88 341l-89 -341h177z" />
    <glyph glyph-name="AE" unicode="&#xc6;" horiz-adv-x="606" 
d="M231 700h336v-63h-238v-246h228v-63h-228v-265h238v-63h-303v213h-90l-57 -213h-65zM264 279v313l-81 -313h81z" />
    <glyph glyph-name="Ccedilla" unicode="&#xc7;" horiz-adv-x="497" 
d="M62 234v232.997c0 44 5.83301 82.333 17.5 115s27.5 57.834 47.5 75.501s41.5 30.667 64.5 39s47.833 12.5 74.5 12.5c25.333 0 48.833 -3.83301 70.5 -11.5s42.167 -19.667 61.5 -36s35 -39.666 47 -69.999s18.667 -66.5 20 -108.5v-16h-65l-1 15
c-3.33301 58 -17 99.833 -41 125.5s-54.667 38.5 -92 38.5c-40.667 0 -73.667 -14.5 -99 -43.5s-38 -77.167 -38 -144.5v-215c0 -35.333 3.66699 -65.5 11 -90.5s17.5 -44.333 30.5 -58s27.333 -23.667 43 -30s33.167 -9.5 52.5 -9.5c36.667 0 67 12.5 91 37.5
s38 66.167 42 123.5l1 18h65v-15c-2 -68 -17 -119.667 -45 -155s-64 -57.333 -108 -66v-49c0 -41.333 -7.33301 -71.166 -22 -89.499s-40.667 -27.833 -78 -28.5h-27v45h27c19.333 0.666992 32.833 6.5 40.5 17.5s11.5 28.5 11.5 52.5v47l-15 1
c-24.667 1.33301 -47.667 6.5 -69 15.5s-41 22.5 -59 40.5s-32.333 42.667 -43 74s-16 68 -16 110z" />
    <glyph glyph-name="Egrave" unicode="&#xc8;" horiz-adv-x="398" 
d="M132 907h76l58 -131h-48zM63 700h303v-63h-238v-246h228v-63h-228v-265h238v-63h-303v700z" />
    <glyph glyph-name="Eacute" unicode="&#xc9;" horiz-adv-x="398" 
d="M191 906h75l-85 -130h-49zM63 700h303v-63h-238v-246h228v-63h-228v-265h238v-63h-303v700z" />
    <glyph glyph-name="Ecircumflex" unicode="&#xca;" horiz-adv-x="398" 
d="M167 902h65l100 -136h-49l-84 90l-83 -90h-49zM63 700h303v-63h-238v-246h228v-63h-228v-265h238v-63h-303v700z" />
    <glyph glyph-name="Edieresis" unicode="&#xcb;" horiz-adv-x="398" 
d="M111 900h60v-61h-60v61zM228 900h61v-61h-61v61zM63 700h303v-63h-238v-246h228v-63h-228v-265h238v-63h-303v700z" />
    <glyph glyph-name="Igrave" unicode="&#xcc;" horiz-adv-x="193" 
d="M30 907h75l58 -131h-48zM63 0v700h67v-700h-67z" />
    <glyph glyph-name="Iacute" unicode="&#xcd;" horiz-adv-x="193" 
d="M88 906h75l-85 -130h-48zM63 0v700h67v-700h-67z" />
    <glyph glyph-name="Icircumflex" unicode="&#xce;" horiz-adv-x="193" 
d="M64 902h65l100 -136h-49l-83 90l-84 -90h-49zM63 0v700h67v-700h-67z" />
    <glyph glyph-name="Idieresis" unicode="&#xcf;" horiz-adv-x="193" 
d="M8 839v61h61v-61h-61zM125 839v61h61v-61h-61zM63 0v700h67v-700h-67z" />
    <glyph glyph-name="Eth" unicode="&#xd0;" horiz-adv-x="505" 
d="M63 700h180c26 0 50.333 -4 73 -12s44.167 -20.667 64.5 -38s36.333 -42.333 48 -75s17.5 -71.667 17.5 -117v-216c0 -45.333 -5.83301 -84.333 -17.5 -117s-27.667 -57.667 -48 -75s-41.833 -30 -64.5 -38s-47 -12 -73 -12h-180v306h-46v64h46v330zM381 251v198
c0 67.333 -13 115.5 -39 144.5s-59 43.5 -99 43.5h-115v-267h137v-64h-137v-243h115c40 0 73 14.5 99 43.5s39 77.167 39 144.5z" />
    <glyph glyph-name="Ntilde" unicode="&#xd1;" horiz-adv-x="509" 
d="M347 902h45c0 -83.333 -23 -125 -69 -125c-12 0 -23.5 3 -34.5 9s-25.167 17.667 -42.5 35c-12 12 -21.5 19.5 -28.5 22.5s-14.5 4.5 -22.5 4.5c-12 0 -20.167 -5.66699 -24.5 -17s-6.5 -29.333 -6.5 -54h-45c0 83.333 23.333 125 70 125c13.333 0 25 -3.33301 35 -10
s24 -18 42 -34c18 -19.333 35.333 -28.333 52 -27c11.333 0.666992 19 6.5 23 17.5s6 28.833 6 53.5zM385 700h63v-700h-64l-260 553v-553h-64v700h65l260 -553v553z" />
    <glyph glyph-name="Ograve" unicode="&#xd2;" horiz-adv-x="518" 
d="M193 907h75l59 -131h-49zM55 234v233.002c0 44 5.83301 82.333 17.5 115s27.5 57.834 47.5 75.501s41.5 30.667 64.5 39s47.833 12.5 74.5 12.5c26 0 50.5 -4 73.5 -12s44.667 -20.833 65 -38.5s36.333 -42.834 48 -75.501s17.5 -71.334 17.5 -116.001v-233
c0 -44.667 -5.83301 -83.334 -17.5 -116.001s-27.667 -57.834 -48 -75.501s-42 -30.5 -65 -38.5s-47.5 -12 -73.5 -12c-26.667 0 -51.5 4.16699 -74.5 12.5s-44.5 21.333 -64.5 39s-35.833 42.834 -47.5 75.501s-17.5 71 -17.5 115zM396 243.002v215
c0 35.333 -3.66699 65.5 -11 90.5s-17.666 44.333 -30.999 58s-27.833 23.667 -43.5 30s-32.834 9.5 -51.501 9.5c-19.333 0 -36.833 -3.16699 -52.5 -9.5s-30 -16.333 -43 -30s-23.167 -33 -30.5 -58s-11 -55.167 -11 -90.5v-215c0 -35.333 3.66699 -65.5 11 -90.5
s17.5 -44.333 30.5 -58s27.333 -23.667 43 -30s33.167 -9.5 52.5 -9.5c40 0 72.833 14.5 98.5 43.5s38.5 77.167 38.5 144.5z" />
    <glyph glyph-name="Oacute" unicode="&#xd3;" horiz-adv-x="518" 
d="M251 906h76l-86 -130h-48zM55 234v233.002c0 44 5.83301 82.333 17.5 115s27.5 57.834 47.5 75.501s41.5 30.667 64.5 39s47.833 12.5 74.5 12.5c26 0 50.5 -4 73.5 -12s44.667 -20.833 65 -38.5s36.333 -42.834 48 -75.501s17.5 -71.334 17.5 -116.001v-233
c0 -44.667 -5.83301 -83.334 -17.5 -116.001s-27.667 -57.834 -48 -75.501s-42 -30.5 -65 -38.5s-47.5 -12 -73.5 -12c-26.667 0 -51.5 4.16699 -74.5 12.5s-44.5 21.333 -64.5 39s-35.833 42.834 -47.5 75.501s-17.5 71 -17.5 115zM396 243.002v215
c0 35.333 -3.66699 65.5 -11 90.5s-17.666 44.333 -30.999 58s-27.833 23.667 -43.5 30s-32.834 9.5 -51.501 9.5c-19.333 0 -36.833 -3.16699 -52.5 -9.5s-30 -16.333 -43 -30s-23.167 -33 -30.5 -58s-11 -55.167 -11 -90.5v-215c0 -35.333 3.66699 -65.5 11 -90.5
s17.5 -44.333 30.5 -58s27.333 -23.667 43 -30s33.167 -9.5 52.5 -9.5c40 0 72.833 14.5 98.5 43.5s38.5 77.167 38.5 144.5z" />
    <glyph glyph-name="Ocircumflex" unicode="&#xd4;" horiz-adv-x="518" 
d="M227 902h65l100 -136h-49l-83 90l-84 -90h-49zM55 234v233.002c0 44 5.83301 82.333 17.5 115s27.5 57.834 47.5 75.501s41.5 30.667 64.5 39s47.833 12.5 74.5 12.5c26 0 50.5 -4 73.5 -12s44.667 -20.833 65 -38.5s36.333 -42.834 48 -75.501
s17.5 -71.334 17.5 -116.001v-233c0 -44.667 -5.83301 -83.334 -17.5 -116.001s-27.667 -57.834 -48 -75.501s-42 -30.5 -65 -38.5s-47.5 -12 -73.5 -12c-26.667 0 -51.5 4.16699 -74.5 12.5s-44.5 21.333 -64.5 39s-35.833 42.834 -47.5 75.501s-17.5 71 -17.5 115z
M397 243.002l0.000976562 215c0 35.333 -3.83301 65.5 -11.5 90.5s-18.167 44.333 -31.5 58s-27.833 23.667 -43.5 30s-32.834 9.5 -51.501 9.5c-19.333 0 -36.833 -3.16699 -52.5 -9.5s-30 -16.333 -43 -30s-23.167 -33 -30.5 -58s-11 -55.167 -11 -90.5v-215
c0 -35.333 3.66699 -65.5 11 -90.5s17.5 -44.333 30.5 -58s27.333 -23.667 43 -30s33.167 -9.5 52.5 -9.5c40 0 73 14.5 99 43.5s39 77.167 39 144.5z" />
    <glyph glyph-name="Otilde" unicode="&#xd5;" horiz-adv-x="518" 
d="M353 902h44.002c0 -83.333 -23 -125 -69 -125c-12 0 -23.333 3 -34 9s-25 17.667 -43 35c-11.333 12 -20.5 19.5 -27.5 22.5s-14.833 4.5 -23.5 4.5c-6 0 -11 -1.5 -15 -4.5s-7.16699 -7.5 -9.5 -13.5s-3.83301 -13.167 -4.5 -21.5s-1 -18.833 -1 -31.5h-45
c0 83.333 23 125 69 125c13.333 0 25.166 -3.33301 35.499 -10s24.166 -18 41.499 -34c18.667 -19.333 36.334 -28 53.001 -26c7.33301 0 13.166 2.83301 17.499 8.5s7.33301 13.167 9 22.5s2.5 22.333 2.5 39zM55.002 234v233.003c0 44.667 5.83301 83.167 17.5 115.5
s27.5 57.333 47.5 75s41.5 30.667 64.5 39s47.833 12.5 74.5 12.5c26 0 50.5 -4 73.5 -12s44.667 -20.833 65 -38.5s36.333 -42.834 48 -75.501s17.5 -71.334 17.5 -116.001v-233c0 -44.667 -5.83301 -83.334 -17.5 -116.001s-27.667 -57.834 -48 -75.501
s-42 -30.5 -65 -38.5s-47.5 -12 -73.5 -12c-26.667 0 -51.5 4.16699 -74.5 12.5s-44.5 21.333 -64.5 39s-35.833 42.834 -47.5 75.501s-17.5 71 -17.5 115zM397.002 243.003l0.000976562 215c0 35.333 -3.83301 65.5 -11.5 90.5s-18.167 44.333 -31.5 58
s-27.833 23.667 -43.5 30s-32.834 9.5 -51.501 9.5c-40.667 0 -73.667 -14.5 -99 -43.5s-38 -77.167 -38 -144.5v-215c0 -34.667 3.66699 -64.667 11 -90s17.5 -44.833 30.5 -58.5s27.333 -23.667 43 -30s33.167 -9.5 52.5 -9.5c40 0 73 14.5 99 43.5s39 77.167 39 144.5z
" />
    <glyph glyph-name="Odieresis" unicode="&#xd6;" horiz-adv-x="518" 
d="M171 839v61h61v-61h-61zM288 839v61h61v-61h-61zM55 234v233.002c0 44 5.83301 82.333 17.5 115s27.5 57.834 47.5 75.501s41.5 30.667 64.5 39s47.833 12.5 74.5 12.5c26 0 50.5 -4 73.5 -12s44.667 -20.833 65 -38.5s36.333 -42.834 48 -75.501
s17.5 -71.334 17.5 -116.001v-233c0 -44.667 -5.83301 -83.334 -17.5 -116.001s-27.667 -57.834 -48 -75.501s-42 -30.5 -65 -38.5s-47.5 -12 -73.5 -12c-26.667 0 -51.5 4.16699 -74.5 12.5s-44.5 21.333 -64.5 39s-35.833 42.834 -47.5 75.501s-17.5 71 -17.5 115z
M397 243.002v215c0 67.333 -13 115.5 -39 144.5s-59 43.5 -99 43.5c-19.333 0 -36.833 -3.16699 -52.5 -9.5s-30 -16.333 -43 -30s-23.167 -33 -30.5 -58s-11 -55.167 -11 -90.5v-215c0 -35.333 3.66699 -65.5 11 -90.5s17.5 -44.333 30.5 -58s27.333 -23.667 43 -30
s33.167 -9.5 52.5 -9.5c40 0 73 14.5 99 43.5s39 77.167 39 144.5z" />
    <glyph glyph-name="multiply" unicode="&#xd7;" horiz-adv-x="452" 
d="M227 342l130 130l45 -45l-130 -130l130 -130l-47 -47l-130 130l-130 -130l-45 45l130 130l-130 130l47 47z" />
    <glyph glyph-name="Oslash" unicode="&#xd8;" horiz-adv-x="518" 
d="M446 750l-41 -99.999c38.667 -42 58 -103 58 -183v-233c0 -44.667 -6 -83.334 -18 -116.001s-28 -57.834 -48 -75.501s-41.5 -30.5 -64.5 -38.5s-47.833 -12 -74.5 -12c-42.667 0 -80 10 -112 30l-29 -72h-45l41 100c-38.667 42 -58 103.333 -58 184v233
c0 44 5.83301 82.333 17.5 115s27.5 57.834 47.5 75.501s41.5 30.667 64.5 39s47.5 12.5 73.5 12.5c44 0 82 -10.333 114 -31l29 72h45zM122 458.001v-214.999c0 -48.667 7.33301 -88.334 22 -119.001l202 491c-22.667 20.667 -51.667 31 -87 31
c-40.667 0 -73.667 -14.5 -99 -43.5s-38 -77.167 -38 -144.5zM397 243.002v215c0 48.667 -7.66699 88 -23 118l-202 -491c22.667 -20 51.667 -30 87 -30c40 0 73 14.5 99 43.5s39 77.167 39 144.5z" />
    <glyph glyph-name="Ugrave" unicode="&#xd9;" horiz-adv-x="524" 
d="M195 907h76l58 -131h-48zM128 240l-0.00195312 460.001h-65v-469c0 -44 5.66699 -82 17 -114s26.666 -56.833 45.999 -74.5s40.333 -30.5 63 -38.5s47.334 -12 74.001 -12c26 0 50.333 4 73 12s43.834 20.667 63.501 38s35.334 42.166 47.001 74.499
s17.5 70.5 17.5 114.5v469h-65v-460c0 -65.333 -12.833 -112.5 -38.5 -141.5s-58.167 -43.5 -97.5 -43.5c-40 0 -72.5 14.5 -97.5 43.5s-37.5 76.167 -37.5 141.5z" />
    <glyph glyph-name="Uacute" unicode="&#xda;" horiz-adv-x="524" 
d="M254 906h75l-86 -130h-48zM128 240l-0.00195312 460.001h-65v-469c0 -44 5.66699 -82 17 -114s26.666 -56.833 45.999 -74.5s40.333 -30.5 63 -38.5s47.334 -12 74.001 -12c26 0 50.333 4 73 12s43.834 20.667 63.501 38s35.334 42.166 47.001 74.499
s17.5 70.5 17.5 114.5v469h-65v-460c0 -65.333 -12.833 -112.5 -38.5 -141.5s-58.167 -43.5 -97.5 -43.5c-40 0 -72.5 14.5 -97.5 43.5s-37.5 76.167 -37.5 141.5z" />
    <glyph glyph-name="Ucircumflex" unicode="&#xdb;" horiz-adv-x="524" 
d="M230 902h65l100 -136h-50l-83 90l-83 -90h-50zM128 240l-0.00195312 460.001h-65v-469c0 -44 5.66699 -82 17 -114s26.666 -56.833 45.999 -74.5s40.333 -30.5 63 -38.5s47.334 -12 74.001 -12c26 0 50.333 4 73 12s43.834 20.667 63.501 38s35.334 42.166 47.001 74.499
s17.5 70.5 17.5 114.5v469h-65v-460c0 -65.333 -12.667 -112.5 -38 -141.5s-58 -43.5 -98 -43.5s-72.5 14.5 -97.5 43.5s-37.5 76.167 -37.5 141.5z" />
    <glyph glyph-name="Udieresis" unicode="&#xdc;" horiz-adv-x="524" 
d="M173 839v61h61v-61h-61zM291 839v61h61v-61h-61zM128 240l-0.00195312 460.001h-65v-469c0 -44 5.66699 -82 17 -114s26.666 -56.833 45.999 -74.5s40.333 -30.5 63 -38.5s47.334 -12 74.001 -12c26 0 50.333 4 73 12s43.834 20.667 63.501 38
s35.334 42.166 47.001 74.499s17.5 70.5 17.5 114.5v469h-65v-460c0 -65.333 -12.833 -112.5 -38.5 -141.5s-58.167 -43.5 -97.5 -43.5c-40 0 -72.5 14.5 -97.5 43.5s-37.5 76.167 -37.5 141.5z" />
    <glyph glyph-name="Yacute" unicode="&#xdd;" horiz-adv-x="512" 
d="M248 906h75l-85 -130h-48zM396 700h69l-177 -412v-288h-67v288l-174 412h69l139 -338z" />
    <glyph glyph-name="Thorn" unicode="&#xde;" horiz-adv-x="465" 
d="M63 706l65.001 -0.000976562v-113h75c26 0 50.5 -3.33301 73.5 -10s44.5 -16.667 64.5 -30s36 -32 48 -56s18 -52 18 -84v-30c0 -25.333 -4 -48.166 -12 -68.499s-18.5 -37.333 -31.5 -51s-28.5 -25 -46.5 -34s-36.333 -15.667 -55 -20s-38.334 -6.5 -59.001 -6.5h-75
v-203h-65v706zM343.001 392.999v10c0 24.667 -4 45.667 -12 63s-18.833 30.5 -32.5 39.5s-28.167 15.5 -43.5 19.5s-32 6 -50 6h-77v-266h77c18 0 34.667 2.16699 50 6.5s29.833 11 43.5 20s24.5 22.167 32.5 39.5s12 38 12 62z" />
    <glyph glyph-name="germandbls" unicode="&#xdf;" horiz-adv-x="525" 
d="M249 703l26.002 -0.00292969c14 0 27.833 -1.16699 41.5 -3.5s27.334 -5.66602 41.001 -9.99902s26.5 -9.83301 38.5 -16.5s23 -15 33 -25s18.667 -21 26 -33s13.166 -25.833 17.499 -41.5s6.5 -32.5 6.5 -50.5v-16c0 -36.667 -9.16699 -67.5 -27.5 -92.5
s-41.833 -42.5 -70.5 -52.5c34.667 -9.33301 62 -27.666 82 -54.999s30 -61.333 30 -102v-15c0 -63.333 -19.833 -110.833 -59.5 -142.5s-91.834 -47.5 -156.501 -47.5h-101v63h101c47.333 0 84 10.833 110 32.5s39.333 52.5 40 92.5v15c0 40 -13.167 71 -39.5 93
s-63.5 33 -111.5 33h-42v64h35c42.667 0 77.167 9.66699 103.5 29s39.5 48 39.5 86v14c0 38 -13.167 67 -39.5 87s-58.833 30 -97.5 30h-26c-37.333 0 -69.333 -10 -96 -30s-40.334 -49.667 -41.001 -89v-520h-67v516c0 32.667 5.83301 61.5 17.5 86.5s27.5 44.5 47.5 58.5
s41.667 24.333 65 31s48 10.334 74 11.001z" />
    <glyph glyph-name="agrave" unicode="&#xe0;" horiz-adv-x="393" 
d="M130 707h76l58 -131h-48zM41 168v165c0 32 4 60 12 84s19 42.333 33 55s28.833 22 44.5 28s32.5 9 50.5 9c55.333 0 94.333 -23.667 117 -71l6 62h42v-500h-42l-6 65c-22.667 -48.667 -61.667 -73 -117 -73c-14 0 -27.5 1.66699 -40.5 5s-25.667 9.33301 -38 18
s-23 19.5 -32 32.5s-16.167 29.833 -21.5 50.5s-8 44 -8 70zM290 195v111c0 101.333 -32 152 -96 152c-64.667 0 -97 -50.667 -97 -152v-111c0 -101.333 32.333 -152 97 -152c30 0 53.5 11.333 70.5 34s25.5 62 25.5 118z" />
    <glyph glyph-name="aacute" unicode="&#xe1;" horiz-adv-x="393" 
d="M189 706h75l-86 -130h-48zM304 500h42v-500h-42l-6 65c-22.667 -48.667 -61.667 -73 -117 -73c-14 0 -27.5 1.66699 -40.5 5s-25.667 9.33301 -38 18s-23 19.5 -32 32.5s-16.167 29.833 -21.5 50.5s-8 44 -8 70v165c0 32 4 60 12 84s19 42.333 33 55s28.833 22 44.5 28
s32.5 9 50.5 9c55.333 0 94.333 -23.667 117 -71zM97 306v-111c0 -101.333 32.333 -152 97 -152c30 0 53.5 11.333 70.5 34s25.5 62 25.5 118v111c0 101.333 -32 152 -96 152c-64.667 0 -97 -50.667 -97 -152z" />
    <glyph glyph-name="acircumflex" unicode="&#xe2;" horiz-adv-x="393" 
d="M165 702h65l100 -136h-50l-83 90l-83 -90h-50zM304 500h42v-500h-42l-6 65c-22.667 -48.667 -61.667 -73 -117 -73c-14 0 -27.5 1.66699 -40.5 5s-25.667 9.33301 -38 18s-23 19.5 -32 32.5s-16.167 29.833 -21.5 50.5s-8 44 -8 70v165c0 32 4 60 12 84s19 42.333 33 55
s28.833 22 44.5 28s32.5 9 50.5 9c55.333 0 94.333 -23.667 117 -71zM97 306v-111c0 -101.333 32.333 -152 97 -152c30 0 53.5 11.333 70.5 34s25.5 62 25.5 118v111c0 101.333 -32 152 -96 152c-64.667 0 -97 -50.667 -97 -152z" />
    <glyph glyph-name="atilde" unicode="&#xe3;" horiz-adv-x="393" 
d="M289 702l45.0029 -0.000976562c0 -82.667 -23 -124 -69 -124c-12 0 -23.5 2.83301 -34.5 8.5s-25.167 17.167 -42.5 34.5c-12 12 -21.5 19.667 -28.5 23s-14.5 4.66602 -22.5 3.99902c-8 0 -14.333 -2.66699 -19 -8s-7.83398 -13 -9.50098 -23s-2.5 -23 -2.5 -39h-44
c0 82.667 23 124 69 124c13.333 0 25.166 -3.33301 35.499 -10s24.166 -18 41.499 -34c18 -19.333 35.667 -28 53 -26c11.333 0.666992 18.833 6.33398 22.5 17.001s5.5 28.334 5.5 53.001zM304.003 499.999h42v-500h-42l-6 65c-22.667 -48.667 -61.667 -73 -117 -73
c-14 0 -27.5 1.66699 -40.5 5s-25.667 9.33301 -38 18s-23 19.5 -32 32.5s-16.167 29.833 -21.5 50.5s-8 44 -8 70v165c0 32 4 60 12 84s19 42.333 33 55s28.833 22 44.5 28s32.5 9 50.5 9c55.333 0 94.333 -23.667 117 -71zM97.0029 305.999v-111
c0.666992 -101.333 33 -152 97 -152c30 0 53.5 11.333 70.5 34s25.5 62 25.5 118v111c0 101.333 -32 152 -96 152c-64.667 0 -97 -50.667 -97 -152z" />
    <glyph glyph-name="adieresis" unicode="&#xe4;" horiz-adv-x="393" 
d="M108 639v61h61v-61h-61zM226 639v61h61v-61h-61zM304 500h42v-500h-42l-6 65c-22.667 -48.667 -61.667 -73 -117 -73c-14 0 -27.5 1.66699 -40.5 5s-25.667 9.33301 -38 18s-23 19.5 -32 32.5s-16.167 29.833 -21.5 50.5s-8 44 -8 70v165c0 32 4 60 12 84
s19 42.333 33 55s28.833 22 44.5 28s32.5 9 50.5 9c55.333 0 94.333 -23.667 117 -71zM97 306v-111c0 -101.333 32.333 -152 97 -152c30 0 53.5 11.333 70.5 34s25.5 62 25.5 118v111c0 101.333 -32 152 -96 152c-64.667 0 -97 -50.667 -97 -152z" />
    <glyph glyph-name="aring" unicode="&#xe5;" horiz-adv-x="393" 
d="M197 720c26.667 0 49.667 -9.50098 69 -28.501s29 -41.833 29 -68.5c0 -17.333 -4.33301 -33.666 -13 -48.999s-20.5 -27.333 -35.5 -36s-31.5 -13 -49.5 -13c-27.333 0 -50.333 9.5 -69 28.5s-28 42.167 -28 69.5c0 26.667 9.5 49.5 28.5 68.5s41.833 28.5 68.5 28.5z
M197 676.999c-14.667 0 -27.333 -5.33203 -38 -15.999s-16 -23.334 -16 -38.001c0 -10 2.33301 -19.167 7 -27.5s11.167 -15 19.5 -20s17.5 -7.5 27.5 -7.5c15.333 0 28.333 5.33301 39 16s16 23.667 16 39c0 10 -2.5 19 -7.5 27s-11.667 14.5 -20 19.5s-17.5 7.5 -27.5 7.5
zM304.001 500h42v-500h-42l-6 65c-22.667 -48.667 -61.667 -73 -117 -73c-14 0 -27.5 1.66699 -40.5 5s-25.667 9.33301 -38 18s-23 19.5 -32 32.5s-16.167 29.833 -21.5 50.5s-8 44 -8 70v165c0 32 4 60 12 84s19 42.333 33 55s28.833 22 44.5 28s32.5 9 50.5 9
c55.333 0 94.333 -23.667 117 -71zM97.001 306v-111c0 -101.333 32.333 -152 97 -152c30 0 53.5 11.333 70.5 34s25.5 62 25.5 118v111c0 101.333 -32 152 -96 152c-64.667 0 -97 -50.667 -97 -152z" />
    <glyph glyph-name="ae" unicode="&#xe6;" horiz-adv-x="653" 
d="M41 168v165c0 32 4 60 12 84s19 42.333 33 55s28.833 22 44.5 28s32.5 9 50.5 9c55.333 0 94.333 -23.667 117 -71l6 62h42v-51c24 40 62 60 114 60c19.333 0 37.5 -3 54.5 -9s33.167 -15.333 48.5 -28s27.333 -31 36 -55s13 -52 13 -84v-108h-248v-44
c0 -92 32 -138 96 -138c60.667 0 92.667 39.667 96 119h56c-0.666992 -31.333 -5.5 -58.5 -14.5 -81.5s-21 -40.667 -36 -53s-30.833 -21.333 -47.5 -27s-34.667 -8.5 -54 -8.5c-52 0 -90 20 -114 60v-52h-42l-6 65c-22.667 -48.667 -61.667 -73 -117 -73
c-18 0 -34.833 3 -50.5 9s-30.5 15.333 -44.5 28s-25 31 -33 55s-12 52 -12 84zM290 195v111c0 101.333 -32 152 -96 152c-64.667 0 -97 -50.667 -97 -152v-111c0 -101.333 32.333 -152 97 -152c30 0 53.5 11.333 70.5 34s25.5 62 25.5 118zM556 269v54
c-0.666992 89.333 -32.667 134.333 -96 135c-64 0 -96 -45 -96 -135v-54h192z" />
    <glyph glyph-name="ccedilla" unicode="&#xe7;" horiz-adv-x="384" 
d="M41 168l0.00390625 164.996c0 32 4.33301 59.833 13 83.5s20.5 42 35.5 55s31.167 22.5 48.5 28.5s35.666 9 54.999 9c10.667 0 21 -0.833008 31 -2.5s20 -4.33398 30 -8.00098s19.333 -8.5 28 -14.5s16.834 -13.5 24.501 -22.5s14.167 -19 19.5 -30
s9.66602 -24 12.999 -39s5.33301 -31.5 6 -49.5v-19h-55c-2 89.333 -34.333 134 -97 134c-14 0 -26.333 -2.33301 -37 -7s-20.667 -12.5 -30 -23.5s-16.5 -26.667 -21.5 -47s-7.5 -45.166 -7.5 -74.499v-111c0 -56 8.5 -95.333 25.5 -118s40.5 -34 70.5 -34
c63.333 0 95.666 44.667 96.999 134h55v-17c-2 -81.333 -31.333 -133.333 -88 -156v-56c-0.666992 -41.333 -8.5 -71.166 -23.5 -89.499s-41.5 -27.5 -79.5 -27.5h-25v44h25c10 0 18.5 1.5 25.5 4.5s12.667 7.5 17 13.5s7.33301 13.333 9 22s2.5 19.334 2.5 32.001v49
c-8.66699 -1.33301 -19.334 -1.66602 -32.001 -0.999023c-38.667 2.66699 -70.834 17.834 -96.501 45.501s-38.5 70.167 -38.5 127.5z" />
    <glyph glyph-name="egrave" unicode="&#xe8;" horiz-adv-x="385" 
d="M125 707h76l58 -131h-48zM41 168l0.000976562 165.001c0 32 4.33301 59.833 13 83.5s20.5 42 35.5 55s31.167 22.5 48.5 28.5s35.666 9 54.999 9s37.5 -3 54.5 -9s33.167 -15.333 48.5 -28s27.333 -31 36 -55s13 -52 13 -84v-108h-248v-44
c0 -50.667 8.66699 -86.334 26 -107.001s40.666 -31 69.999 -31c61.333 0 93.333 39.667 96 119h56c0 -31.333 -4.5 -58.5 -13.5 -81.5s-21 -40.667 -36 -53s-31 -21.333 -48 -27s-35.167 -8.5 -54.5 -8.5s-37.666 3 -54.999 9s-33.5 15.5 -48.5 28.5
s-26.833 31.333 -35.5 55s-13 51.5 -13 83.5zM289.001 269.001v55c0 89.333 -32 134 -96 134s-96 -45 -96 -135v-54h192z" />
    <glyph glyph-name="eacute" unicode="&#xe9;" horiz-adv-x="385" 
d="M184 706h75l-85 -130h-49zM41 168l0.000976562 165.001c0 32 4.33301 59.833 13 83.5s20.5 42 35.5 55s31.167 22.5 48.5 28.5s35.666 9 54.999 9s37.5 -3 54.5 -9s33.167 -15.333 48.5 -28s27.333 -31 36 -55s13 -52 13 -84v-108h-248v-44
c0 -50.667 8.66699 -86.334 26 -107.001s40.666 -31 69.999 -31c61.333 0 93.333 39.667 96 119h56c0 -31.333 -4.5 -58.5 -13.5 -81.5s-21 -40.667 -36 -53s-31 -21.333 -48 -27s-35.167 -8.5 -54.5 -8.5s-37.666 3 -54.999 9s-33.5 15.5 -48.5 28.5
s-26.833 31.333 -35.5 55s-13 51.5 -13 83.5zM289.001 269.001v55c0 89.333 -32 134 -96 134s-96 -45 -96 -135v-54h192z" />
    <glyph glyph-name="ecircumflex" unicode="&#xea;" horiz-adv-x="385" 
d="M160 702h65l100 -136h-49l-84 90l-83 -90h-49zM41 168l0.000976562 165.001c0 32 4.33301 59.833 13 83.5s20.5 42 35.5 55s31.167 22.5 48.5 28.5s35.666 9 54.999 9s37.5 -3 54.5 -9s33.167 -15.333 48.5 -28s27.333 -31 36 -55s13 -52 13 -84v-108h-248v-44
c0 -50.667 8.66699 -86.334 26 -107.001s40.666 -31 69.999 -31c61.333 0 93.333 39.667 96 119h56c0 -31.333 -4.5 -58.5 -13.5 -81.5s-21 -40.667 -36 -53s-31 -21.333 -48 -27s-35.167 -8.5 -54.5 -8.5s-37.666 3 -54.999 9s-33.5 15.5 -48.5 28.5
s-26.833 31.333 -35.5 55s-13 51.5 -13 83.5zM289.001 269.001v55c0 89.333 -32 134 -96 134s-96 -45 -96 -135v-54h192z" />
    <glyph glyph-name="edieresis" unicode="&#xeb;" horiz-adv-x="385" 
d="M104 639v61h60v-61h-60zM221 639v61h61v-61h-61zM41 168l0.000976562 165.001c0 32 4.33301 59.833 13 83.5s20.5 42 35.5 55s31.167 22.5 48.5 28.5s35.666 9 54.999 9s37.5 -3 54.5 -9s33.167 -15.333 48.5 -28s27.333 -31 36 -55s13 -52 13 -84v-108h-248v-44
c0 -50.667 8.66699 -86.334 26 -107.001s40.666 -31 69.999 -31c61.333 0 93.333 39.667 96 119h56c0 -31.333 -4.5 -58.5 -13.5 -81.5s-21 -40.667 -36 -53s-31 -21.333 -48 -27s-35.167 -8.5 -54.5 -8.5s-37.666 3 -54.999 9s-33.5 15.5 -48.5 28.5
s-26.833 31.333 -35.5 55s-13 51.5 -13 83.5zM289.001 269.001v55c0 89.333 -32 134 -96 134s-96 -45 -96 -135v-54h192z" />
    <glyph glyph-name="igrave" unicode="&#xec;" horiz-adv-x="236" 
d="M54 707h75l58 -131h-48zM102 0v500h57v-500h-57z" />
    <glyph glyph-name="iacute" unicode="&#xed;" horiz-adv-x="233" 
d="M106 706h75l-85 -130h-48zM77 0v500h57v-500h-57z" />
    <glyph glyph-name="icircumflex" unicode="&#xee;" horiz-adv-x="250" 
d="M93 702h65l100 -136h-49l-83 90l-84 -90h-49zM98 0v500h56v-500h-56z" />
    <glyph glyph-name="idieresis" unicode="&#xef;" horiz-adv-x="261" 
d="M42 639v61h61v-61h-61zM160 639v61h60v-61h-60zM104 0v500h57v-500h-57z" />
    <glyph glyph-name="eth" unicode="&#xf0;" horiz-adv-x="458" 
d="M405 656l-75 -44.0029c10.667 -20.667 16 -46 16 -76v-368c-1.33301 -60.667 -16.5 -105.167 -45.5 -133.5s-64.5 -42.5 -106.5 -42.5c-19.333 0 -37.666 3 -54.999 9s-33.666 15.333 -48.999 28s-27.333 31 -36 55s-13 52 -13 84v165c0 32 4.33301 60 13 84
s20.667 42.333 36 55s31.666 22 48.999 28s35.666 9 54.999 9c13.333 0 25.833 -2.16699 37.5 -6.5s22.667 -11.166 33 -20.499s18.833 -20.666 25.5 -33.999v76c0 89.333 -32 134 -96 134c-46 0 -75.667 -25 -89 -75h-56l2 9c8 40.667 25.333 70.334 52 89.001s57 28 91 28
c49.333 0 87.333 -17 114 -51l71 42zM290 194.997l0.000976562 111c0 53.333 -8.83301 92 -26.5 116s-40.834 36 -69.501 36c-64.667 0 -97 -50.667 -97 -152v-111c0 -101.333 32.333 -152 97 -152c30 0 53.5 11.333 70.5 34s25.5 62 25.5 118z" />
    <glyph glyph-name="ntilde" unicode="&#xf1;" horiz-adv-x="398" 
d="M291 702l45.0029 -0.000976562c0 -82.667 -23 -124 -69 -124c-12 0 -23.5 2.83301 -34.5 8.5s-25.167 17.167 -42.5 34.5c-12 12 -21.5 19.667 -28.5 23s-14.5 4.66602 -22.5 3.99902c-8 0 -14.333 -2.66699 -19 -8s-7.83398 -13 -9.50098 -23s-2.5 -23 -2.5 -39h-44
c0 82.667 23 124 69 124c13.333 0 25.166 -3.33301 35.499 -10s24.166 -18 41.499 -34c18 -19.333 35.333 -28 52 -26c11.333 0.666992 19 6.33398 23 17.001s6 28.334 6 53.001zM91.0029 499.999l6.99902 -65c22.667 49.333 61.667 74 117 74c18 0 34.833 -3 50.5 -9
s30.334 -15.333 44.001 -28s24.5 -31 32.5 -55s12 -52 12 -84v-333h-56v306c0 101.333 -32.333 152 -97 152c-64 0 -96 -46.667 -96 -140v-318h-56v500h42z" />
    <glyph glyph-name="ograve" unicode="&#xf2;" horiz-adv-x="387" 
d="M127 707h75l59 -131h-48zM41 168v165c0 32 4.33301 59.833 13 83.5s20.5 42 35.5 55s31.167 22.5 48.5 28.5s35.666 9 54.999 9s37.666 -3 54.999 -9s33.666 -15.333 48.999 -28s27.333 -31 36 -55s13 -52 13 -84v-165c0 -32 -4.33301 -60 -13 -84
s-20.667 -42.333 -36 -55s-31.666 -22 -48.999 -28s-35.666 -9 -54.999 -9s-37.666 3 -54.999 9s-33.5 15.5 -48.5 28.5s-26.833 31.333 -35.5 55s-13 51.5 -13 83.5zM290 195v110.999c0 101.333 -32.333 152 -97 152c-14 0 -26.333 -2.33301 -37 -7
s-20.667 -12.5 -30 -23.5s-16.5 -26.667 -21.5 -47s-7.5 -45.166 -7.5 -74.499v-111c0 -56 8.5 -95.333 25.5 -118s40.5 -34 70.5 -34c64.667 0 97 50.667 97 152z" />
    <glyph glyph-name="oacute" unicode="&#xf3;" horiz-adv-x="387" 
d="M186 706h75l-86 -130h-48zM41 168v165c0 32 4.33301 59.833 13 83.5s20.5 42 35.5 55s31.167 22.5 48.5 28.5s35.666 9 54.999 9s37.666 -3 54.999 -9s33.666 -15.333 48.999 -28s27.333 -31 36 -55s13 -52 13 -84v-165c0 -32 -4.33301 -60 -13 -84
s-20.667 -42.333 -36 -55s-31.666 -22 -48.999 -28s-35.666 -9 -54.999 -9s-37.666 3 -54.999 9s-33.5 15.5 -48.5 28.5s-26.833 31.333 -35.5 55s-13 51.5 -13 83.5zM290 195v110.999c0 101.333 -32.333 152 -97 152c-14 0 -26.333 -2.33301 -37 -7
s-20.667 -12.5 -30 -23.5s-16.5 -26.667 -21.5 -47s-7.5 -45.166 -7.5 -74.499v-111c0 -56 8.5 -95.333 25.5 -118s40.5 -34 70.5 -34c64.667 0 97 50.667 97 152z" />
    <glyph glyph-name="ocircumflex" unicode="&#xf4;" horiz-adv-x="387" 
d="M162 702h64l101 -136h-50l-83 90l-83 -90h-50zM41 168v165c0 32 4.33301 59.833 13 83.5s20.5 42 35.5 55s31.167 22.5 48.5 28.5s35.666 9 54.999 9s37.666 -3 54.999 -9s33.666 -15.333 48.999 -28s27.333 -31 36 -55s13 -52 13 -84v-165c0 -32 -4.33301 -60 -13 -84
s-20.667 -42.333 -36 -55s-31.666 -22 -48.999 -28s-35.666 -9 -54.999 -9s-37.666 3 -54.999 9s-33.5 15.5 -48.5 28.5s-26.833 31.333 -35.5 55s-13 51.5 -13 83.5zM290 195l-0.000976562 111c0 101.333 -32.333 152 -97 152c-29.333 0 -52.666 -11.333 -69.999 -34
s-26 -62 -26 -118v-111c0 -56 8.5 -95.333 25.5 -118s40.5 -34 70.5 -34c64.667 0 97 50.667 97 152z" />
    <glyph glyph-name="otilde" unicode="&#xf5;" horiz-adv-x="387" 
d="M286 702l44.0029 0.000976562c0 -82.667 -23 -124 -69 -124c-8 0 -15.333 1.16699 -22 3.5s-14.334 6.66602 -23.001 12.999s-19.334 15.166 -32.001 26.499c-11.333 12 -20.5 19.667 -27.5 23s-14.833 4.66602 -23.5 3.99902c-8 0 -14.167 -2.66699 -18.5 -8
s-7.33301 -13 -9 -23s-2.5 -23 -2.5 -39h-45c0 82.667 23 124 69 124c13.333 0 25.166 -3.33301 35.499 -10s24.166 -18 41.499 -34c18.667 -19.333 36.334 -28 53.001 -26c11.333 0.666992 19 6.33398 23 17.001s6 28.334 6 53.001zM41.0029 168.001v165
c0 32 4.33301 59.833 13 83.5s20.5 42 35.5 55s31.167 22.5 48.5 28.5s35.666 9 54.999 9s37.666 -3 54.999 -9s33.666 -15.333 48.999 -28s27.333 -31 36 -55s13 -52 13 -84v-165c0 -32 -4.33301 -60 -13 -84s-20.667 -42.333 -36 -55s-31.666 -22 -48.999 -28
s-35.666 -9 -54.999 -9s-37.666 3 -54.999 9s-33.5 15.5 -48.5 28.5s-26.833 31.333 -35.5 55s-13 51.5 -13 83.5zM290.003 195.001l-0.000976562 111c0 101.333 -32.333 152 -97 152c-29.333 0 -52.666 -11.333 -69.999 -34s-26 -62 -26 -118v-111
c0 -56 8.5 -95.333 25.5 -118s40.5 -34 70.5 -34c64.667 0 97 50.667 97 152z" />
    <glyph glyph-name="odieresis" unicode="&#xf6;" horiz-adv-x="387" 
d="M105 639v61h61v-61h-61zM223 639v61h60v-61h-60zM41 168v165c0 32 4.33301 59.833 13 83.5s20.5 42 35.5 55s31.167 22.5 48.5 28.5s35.666 9 54.999 9s37.666 -3 54.999 -9s33.666 -15.333 48.999 -28s27.333 -31 36 -55s13 -52 13 -84v-165c0 -32 -4.33301 -60 -13 -84
s-20.667 -42.333 -36 -55s-31.666 -22 -48.999 -28s-35.666 -9 -54.999 -9s-37.666 3 -54.999 9s-33.5 15.5 -48.5 28.5s-26.833 31.333 -35.5 55s-13 51.5 -13 83.5zM290 195l-0.000976562 111c0 101.333 -32.333 152 -97 152c-29.333 0 -52.666 -11.333 -69.999 -34
s-26 -62 -26 -118v-111c0 -56 8.5 -95.333 25.5 -118s40.5 -34 70.5 -34c64.667 0 97 50.667 97 152z" />
    <glyph glyph-name="divide" unicode="&#xf7;" horiz-adv-x="535" 
d="M234 401v65h65v-65h-65zM50 292h435v-64h-435v64zM235 52v65h65v-65h-65z" />
    <glyph glyph-name="oslash" unicode="&#xf8;" horiz-adv-x="403" 
d="M347 550l-35 -84c29.333 -30.667 44 -75 44 -133v-165c0 -32 -4.5 -60 -13.5 -84s-21 -42.333 -36 -55s-31.167 -22 -48.5 -28s-35.666 -9 -54.999 -9c-29.333 0 -55 6 -77 18l-25 -60h-37l33 82c-30.667 30.667 -46 76 -46 136v165c0 32 4.33301 59.833 13 83.5
s20.5 42 35.5 55s31.167 22.5 48.5 28.5s35.666 9 54.999 9c30.667 0 57.667 -6.66699 81 -20l25 61h38zM107 306l-0.000976562 -110.999c0 -42.667 5.33301 -76.334 16 -101.001l140 342c-15.333 14.667 -35.333 22 -60 22c-29.333 0 -52.666 -11.333 -69.999 -34
s-26 -62 -26 -118zM285.999 400.001l-139 -339c14 -12 32.667 -18 56 -18c64.667 0 97 50.667 97 152v111c0 38.667 -4.66699 70 -14 94z" />
    <glyph glyph-name="ugrave" unicode="&#xf9;" 
d="M131 707h75l58 -131h-48zM294 500h56.002v-500h-43l-6 65c-22.667 -49.333 -62 -74 -118 -74c-18 0 -34.833 3 -50.5 9s-30.334 15.333 -44.001 28s-24.334 31 -32.001 55s-11.5 52 -11.5 84v333h56v-306c0 -101.333 32.333 -152 97 -152c64 0 96 46.667 96 140v318z" />
    <glyph glyph-name="uacute" unicode="&#xfa;" 
d="M189 706h75l-85 -130h-48zM294 500h56.002v-500h-43l-6 65c-22.667 -49.333 -62 -74 -118 -74c-18 0 -34.833 3 -50.5 9s-30.334 15.333 -44.001 28s-24.334 31 -32.001 55s-11.5 52 -11.5 84v333h56v-306c0 -101.333 32.333 -152 97 -152c64 0 96 46.667 96 140v318z
" />
    <glyph glyph-name="ucircumflex" unicode="&#xfb;" 
d="M165 702h65l100 -136h-49l-83 90l-84 -90h-49zM294 500h56.002v-500h-43l-6 65c-22.667 -49.333 -62 -74 -118 -74c-18 0 -34.833 3 -50.5 9s-30.334 15.333 -44.001 28s-24.334 31 -32.001 55s-11.5 52 -11.5 84v333h56v-306c0 -101.333 32.333 -152 97 -152
c64 0 96 46.667 96 140v318z" />
    <glyph glyph-name="udieresis" unicode="&#xfc;" 
d="M109 639v61h61v-61h-61zM226 639v61h61v-61h-61zM294 500h56.002v-500h-43l-6 65c-22.667 -49.333 -62 -74 -118 -74c-18 0 -34.833 3 -50.5 9s-30.334 15.333 -44.001 28s-24.334 31 -32.001 55s-11.5 52 -11.5 84v333h56v-306c0 -101.333 32.333 -152 97 -152
c64 0 96 46.667 96 140v318z" />
    <glyph glyph-name="yacute" unicode="&#xfd;" horiz-adv-x="378" 
d="M181 706h75l-85 -130h-48zM286 500h56.0029v-508c-1.33301 -30 -6.5 -56 -15.5 -78s-21 -39 -36 -51s-30.833 -20.833 -47.5 -26.5s-34.334 -8.5 -53.001 -8.5c-34 0 -64.5 9 -91.5 27s-45.167 46.667 -54.5 86h59c13.333 -41.333 42 -62 86 -62c64.667 0 97 44 97 132
v57c-22 -45.333 -59 -68 -111 -68c-18 0 -34.833 3 -50.5 9s-30.334 15.333 -44.001 28s-24.334 31 -32.001 55s-11.5 52 -11.5 84v324h56v-297c0 -101.333 32 -152 96 -152s96.333 50.667 97 152v297z" />
    <glyph glyph-name="thorn" unicode="&#xfe;" 
d="M104 700v-258.998c21.333 44.667 58 67 110 67c18 0 34.833 -3 50.5 -9s30.334 -15.333 44.001 -28s24.5 -30.834 32.5 -54.501s12 -51.834 12 -84.501v-165c0 -32 -4 -59.833 -12 -83.5s-18.833 -42 -32.5 -55s-28.334 -22.5 -44.001 -28.5s-32.5 -9 -50.5 -9
c-52 0 -88.667 22 -110 66v-220h-56v863h56zM297 194.002v111c-0.666992 101.333 -33 152 -97 152c-30 0 -53.5 -11.333 -70.5 -34s-25.5 -62 -25.5 -118v-111c0 -101.333 32 -152 96 -152c64.667 0 97 50.667 97 152z" />
    <glyph glyph-name="ydieresis" unicode="&#xff;" horiz-adv-x="378" 
d="M101 639v61h61v-61h-61zM218 639v61h61v-61h-61zM286 500h56.0029v-508c-1.33301 -30 -6.5 -56 -15.5 -78s-21 -39 -36 -51s-30.833 -20.833 -47.5 -26.5s-34.334 -8.5 -53.001 -8.5c-34 0 -64.5 9 -91.5 27s-44.833 46.667 -53.5 86h58
c13.333 -41.333 42.333 -62 87 -62c64 0 96 44 96 132v57c-22 -45.333 -59 -68 -111 -68c-18 0 -34.833 3 -50.5 9s-30.334 15.333 -44.001 28s-24.334 31 -32.001 55s-11.5 52 -11.5 84v324h56v-297c0 -101.333 32 -152 96 -152s96.333 50.667 97 152v297z" />
    <glyph glyph-name="Amacron" unicode="&#x100;" horiz-adv-x="535" 
d="M126 900h285v-52h-285v52zM227 700h81l180 -700h-65l-57 213h-196l-58 -213h-65zM356 279l-88 341l-89 -341h177z" />
    <glyph glyph-name="amacron" unicode="&#x101;" horiz-adv-x="393" 
d="M55 700h285v-52h-285v52zM304 500h42v-500h-42l-6 65c-22.667 -48.667 -61.667 -73 -117 -73c-14 0 -27.5 1.66699 -40.5 5s-25.667 9.33301 -38 18s-23 19.5 -32 32.5s-16.167 29.833 -21.5 50.5s-8 44 -8 70v165c0 32 4 60 12 84s19 42.333 33 55s28.833 22 44.5 28
s32.5 9 50.5 9c55.333 0 94.333 -23.667 117 -71zM97 306v-111c0 -101.333 32.333 -152 97 -152c30 0 53.5 11.333 70.5 34s25.5 62 25.5 118v111c0 101.333 -32 152 -96 152c-64.667 0 -97 -50.667 -97 -152z" />
    <glyph glyph-name="Abreve" unicode="&#x102;" horiz-adv-x="535" 
d="M341 900h51.001c-4.66699 -30 -18.667 -54.833 -42 -74.5s-50.5 -29.5 -81.5 -29.5s-58.167 9.83301 -81.5 29.5s-37.333 44.5 -42 74.5h51c2 -8 5.33301 -15.333 10 -22s10.167 -12.334 16.5 -17.001s13.5 -8.33398 21.5 -11.001s16 -4 24 -4c8.66699 0 17 1.33301 25 4
s15.167 6.33398 21.5 11.001s11.666 10.334 15.999 17.001s7.83301 14 10.5 22zM227.001 700h81l180 -700h-65l-57 213h-196l-58 -213h-65zM356.001 279l-88 341l-89 -341h177z" />
    <glyph glyph-name="abreve" unicode="&#x103;" horiz-adv-x="393" 
d="M270 700l50.998 0.00195312c-4.66699 -30 -18.667 -54.833 -42 -74.5s-50.5 -29.5 -81.5 -29.5s-58.167 9.83301 -81.5 29.5s-37.666 44.5 -42.999 74.5h51c2.66699 -8 6.33398 -15.333 11.001 -22s10.167 -12.334 16.5 -17.001s13.5 -8.33398 21.5 -11.001s16 -4 24 -4
c11.333 0 22 2.33301 32 7s18.5 11 25.5 19s12.167 17.333 15.5 28zM40.998 168.002v165c0 32 4 60 12 84s19 42.333 33 55s28.833 22 44.5 28s32.5 9 50.5 9c55.333 0 94.333 -23.667 117 -71l6 62h42v-500h-42l-6 65c-22.667 -48.667 -61.667 -73 -117 -73
c-14 0 -27.5 1.66699 -40.5 5s-25.667 9.33301 -38 18s-23 19.5 -32 32.5s-16.167 29.833 -21.5 50.5s-8 44 -8 70zM289.998 195.002v111c0 101.333 -32 152 -96 152c-64.667 0 -97 -50.667 -97 -152v-111c0 -101.333 32.333 -152 97 -152c30 0 53.5 11.333 70.5 34
s25.5 62 25.5 118z" />
    <glyph glyph-name="Aogonek" unicode="&#x104;" horiz-adv-x="535" 
d="M227 700l81.001 -0.00195312l180 -700c-12 -9.33301 -21.667 -17.166 -29 -23.499s-14.5 -15.166 -21.5 -26.499s-10.5 -23 -10.5 -35c0.666992 -26 17 -39.333 49 -40h17v-44h-24c-60.667 2 -91 27 -91 75c0 6 0.666992 12 2 18s3 11.333 5 16s4.66699 9.5 8 14.5
s6.5 9 9.5 12l11 10.5c4.33301 4 7.83301 7 10.5 9l10.5 7.5c4.33301 3 7.16602 5.16699 8.49902 6.5h-20l-57 213h-196l-58 -213h-65zM356.001 278.998l-88 341l-89 -341h177z" />
    <glyph glyph-name="aogonek" unicode="&#x105;" horiz-adv-x="393" 
d="M41 168l0.000976562 164.998c0 32 4 60 12 84s19 42.333 33 55s28.833 22 44.5 28s32.5 9 50.5 9c55.333 0 94.333 -23.667 117 -71l6 62h42v-500c-12 -8.66699 -21.667 -16.5 -29 -23.5s-14.333 -16.167 -21 -27.5s-9.66699 -22.666 -9 -33.999
c0.666992 -26 17.667 -39.333 51 -40h14v-44h-14c-65.333 0 -98.666 23.667 -99.999 71c0 5.33301 0.333008 10.5 1 15.5s1.66699 9.5 3 13.5s3.16602 8.16699 5.49902 12.5l6 11c1.66699 3 4.5 6.5 8.5 10.5l8.5 8.5c1.66699 1.66699 4.66699 4.33398 9 8.00098
s7.16602 6 8.49902 7l8.5 6.5c4.33301 3.33301 6.83301 5 7.5 5l-6 65c-22.667 -48.667 -61.667 -73 -117 -73c-14 0 -27.5 1.66699 -40.5 5s-25.667 9.33301 -38 18s-23 19.5 -32 32.5s-16.167 29.833 -21.5 50.5s-8 44 -8 70zM290.001 194.998v111
c0 101.333 -32 152 -96 152c-64.667 0 -97 -50.667 -97 -152v-111c0 -101.333 32.333 -152 97 -152c30 0 53.5 11.333 70.5 34s25.5 62 25.5 118z" />
    <glyph glyph-name="Cacute" unicode="&#x106;" horiz-adv-x="497" 
d="M240 906h75l-85 -130h-48zM62 234v232.998c0 44 5.83301 82.333 17.5 115s27.5 57.834 47.5 75.501s41.5 30.667 64.5 39s47.833 12.5 74.5 12.5c25.333 0 48.833 -3.83301 70.5 -11.5s42.167 -19.667 61.5 -36s35 -39.666 47 -69.999s18.667 -66.5 20 -108.5v-16h-65
l-1 15c-3.33301 58 -17 99.833 -41 125.5s-54.667 38.5 -92 38.5c-19.333 0 -36.833 -3.16699 -52.5 -9.5s-30 -16.333 -43 -30s-23.167 -33 -30.5 -58s-11 -55.167 -11 -90.5v-215c0 -35.333 3.66699 -65.5 11 -90.5s17.5 -44.333 30.5 -58s27.333 -23.667 43 -30
s33.167 -9.5 52.5 -9.5c36.667 0 67 12.5 91 37.5s38 66.167 42 123.5l1 18h65v-15c-1.33301 -42 -7.83301 -78.167 -19.5 -108.5s-27.167 -53.833 -46.5 -70.5s-40 -28.834 -62 -36.501s-45.667 -11.5 -71 -11.5c-26.667 0 -51.5 4.16699 -74.5 12.5s-44.5 21.333 -64.5 39
s-35.833 42.834 -47.5 75.501s-17.5 71 -17.5 115z" />
    <glyph glyph-name="cacute" unicode="&#x107;" horiz-adv-x="384" 
d="M184 706h75l-85 -130h-48zM41 168v165.002c0 32 4.33301 59.833 13 83.5s20.5 42 35.5 55s31.167 22.5 48.5 28.5s35.666 9 54.999 9s37.333 -2.83301 54 -8.5s32.5 -14.5 47.5 -26.5s27 -29.333 36 -52s13.833 -49.334 14.5 -80.001v-18h-55
c-2 89.333 -34.333 134 -97 134c-29.333 0 -52.666 -11.333 -69.999 -34s-26 -62 -26 -118v-111c0 -56 8.5 -95.333 25.5 -118s40.5 -34 70.5 -34c63.333 0 95.666 44.667 96.999 134h55v-17c-0.666992 -30.667 -5.5 -57.334 -14.5 -80.001s-21 -40.167 -36 -52.5
s-30.833 -21.333 -47.5 -27s-34.667 -8.5 -54 -8.5s-37.666 3 -54.999 9s-33.5 15.5 -48.5 28.5s-26.833 31.333 -35.5 55s-13 51.5 -13 83.5z" />
    <glyph glyph-name="Cdotaccent" unicode="&#x10a;" horiz-adv-x="497" 
d="M218 900h61v-61h-61v61zM62 234v232.998c0 44 5.83301 82.333 17.5 115s27.5 57.834 47.5 75.501s41.5 30.667 64.5 39s47.833 12.5 74.5 12.5c25.333 0 48.833 -3.83301 70.5 -11.5s42.167 -19.667 61.5 -36s35 -39.666 47 -69.999s18.667 -66.5 20 -108.5v-16h-65
l-1 15c-3.33301 58 -17 99.833 -41 125.5s-54.667 38.5 -92 38.5c-19.333 0 -36.833 -3.16699 -52.5 -9.5s-30 -16.333 -43 -30s-23.167 -33 -30.5 -58s-11 -55.167 -11 -90.5v-215c0 -35.333 3.66699 -65.5 11 -90.5s17.5 -44.333 30.5 -58s27.333 -23.667 43 -30
s33.167 -9.5 52.5 -9.5c36.667 0 67 12.5 91 37.5s38 66.167 42 123.5l1 18h65v-15c-1.33301 -42 -7.83301 -78.167 -19.5 -108.5s-27.167 -53.833 -46.5 -70.5s-40 -28.834 -62 -36.501s-45.667 -11.5 -71 -11.5c-26.667 0 -51.5 4.16699 -74.5 12.5s-44.5 21.333 -64.5 39
s-35.833 42.834 -47.5 75.501s-17.5 71 -17.5 115z" />
    <glyph glyph-name="cdotaccent" unicode="&#x10b;" horiz-adv-x="384" 
d="M162 700h61v-61h-61v61zM41 168l0.000976562 165.001c0 32 4.33301 59.833 13 83.5s20.5 42 35.5 55s31.167 22.5 48.5 28.5s35.666 9 54.999 9s37.333 -2.83301 54 -8.5s32.5 -14.5 47.5 -26.5s27 -29.333 36 -52s13.833 -49.334 14.5 -80.001v-18h-55
c-2 89.333 -34.333 134 -97 134c-14 0 -26.5 -2.33301 -37.5 -7s-21 -12.5 -30 -23.5s-16 -26.667 -21 -47s-7.5 -45.166 -7.5 -74.499v-111c0 -56 8.5 -95.333 25.5 -118s40.5 -34 70.5 -34c63.333 0 95.666 44.667 96.999 134h55v-17
c-0.666992 -30.667 -5.5 -57.334 -14.5 -80.001s-21 -40.167 -36 -52.5s-30.833 -21.333 -47.5 -27s-34.667 -8.5 -54 -8.5s-37.666 3 -54.999 9s-33.5 15.5 -48.5 28.5s-26.833 31.333 -35.5 55s-13 51.5 -13 83.5z" />
    <glyph glyph-name="Ccaron" unicode="&#x10c;" horiz-adv-x="497" 
d="M332 902h49l-100 -136h-65l-100 136h49l83 -91zM62 234v233c0 44 5.83301 82.333 17.5 115s27.5 57.834 47.5 75.501s41.5 30.667 64.5 39s47.833 12.5 74.5 12.5c25.333 0 48.833 -3.83301 70.5 -11.5s42.167 -19.667 61.5 -36s35 -39.666 47 -69.999
s18.667 -66.5 20 -108.5v-16h-65l-1 15c-3.33301 58 -17 99.833 -41 125.5s-54.667 38.5 -92 38.5c-15.333 0 -29.5 -1.83301 -42.5 -5.5s-25.333 -10 -37 -19s-21.667 -20.5 -30 -34.5s-15 -31.833 -20 -53.5s-7.5 -46.834 -7.5 -75.501v-215
c0 -35.333 3.66699 -65.5 11 -90.5s17.5 -44.333 30.5 -58s27.333 -23.667 43 -30s33.167 -9.5 52.5 -9.5c36.667 0 67 12.5 91 37.5s38 66.167 42 123.5l1 18h65v-15c-1.33301 -42 -7.83301 -78.167 -19.5 -108.5s-27.167 -53.833 -46.5 -70.5s-40 -28.834 -62 -36.501
s-45.667 -11.5 -71 -11.5c-26.667 0 -51.5 4.16699 -74.5 12.5s-44.5 21.333 -64.5 39s-35.833 42.667 -47.5 75s-17.5 70.833 -17.5 115.5z" />
    <glyph glyph-name="ccaron" unicode="&#x10d;" horiz-adv-x="384" 
d="M276 702h49l-100 -136h-65l-100 136h49l83 -91zM41 168l0.000976562 165.001c0 32 4.33301 59.833 13 83.5s20.5 42 35.5 55s31.167 22.5 48.5 28.5s35.666 9 54.999 9s37.333 -2.83301 54 -8.5s32.5 -14.5 47.5 -26.5s27 -29.333 36 -52s13.833 -49.334 14.5 -80.001
v-18h-55c-2 89.333 -34.333 134 -97 134c-14 0 -26.5 -2.33301 -37.5 -7s-21 -12.5 -30 -23.5s-16 -26.667 -21 -47s-7.5 -45.166 -7.5 -74.499v-111c0 -56 8.5 -95.333 25.5 -118s40.5 -34 70.5 -34c63.333 0 95.666 44.667 96.999 134h55v-17
c-0.666992 -30.667 -5.5 -57.334 -14.5 -80.001s-21 -40.167 -36 -52.5s-30.833 -21.333 -47.5 -27s-34.667 -8.5 -54 -8.5s-37.666 3 -54.999 9s-33.5 15.5 -48.5 28.5s-26.833 31.333 -35.5 55s-13 51.5 -13 83.5z" />
    <glyph glyph-name="Dcaron" unicode="&#x10e;" horiz-adv-x="505" 
d="M285 766h-64l-101 136h50l83 -91l83 91h50zM63 700h180c26 0 50.333 -4 73 -12s44.167 -20.667 64.5 -38s36.333 -42.333 48 -75s17.5 -71.667 17.5 -117v-216c0 -45.333 -5.83301 -84.333 -17.5 -117s-27.667 -57.667 -48 -75s-41.833 -30 -64.5 -38s-47 -12 -73 -12
h-180v700zM381 251v198c0 67.333 -13 115.5 -39 144.5s-59 43.5 -99 43.5h-115v-574h115c40 0 73 14.5 99 43.5s39 77.167 39 144.5z" />
    <glyph glyph-name="dcaron" unicode="&#x10f;" horiz-adv-x="507" 
d="M290 443l-0.00390625 257.002h56v-700h-42l-6 66c-23.333 -49.333 -62.666 -74 -117.999 -74c-18 0 -34.833 3 -50.5 9s-30.334 15.333 -44.001 28s-24.5 31 -32.5 55s-12 52 -12 84v165c0 22 1.83301 42 5.5 60s8.83398 33.167 15.501 45.5s14.334 23.166 23.001 32.499
s18.334 16.666 29.001 21.999s21.334 9.33301 32.001 12s22 4 34 4c51.333 0 88 -22 110 -66zM395.996 700.002h65v-65l-26 -62h-23l11 62h-27v65zM96.9961 306.002v-111c0 -101.333 32.333 -152 97 -152c30 0 53.5 11.333 70.5 34s25.5 62 25.5 118v111
c0 101.333 -32 152 -96 152c-64.667 0 -97 -50.667 -97 -152z" />
    <glyph glyph-name="Dcroat" unicode="&#x110;" horiz-adv-x="505" 
d="M73 700h180c26 0 50.333 -4 73 -12s44.167 -20.667 64.5 -38s36.333 -42.333 48 -75s17.5 -71.667 17.5 -117v-216c0 -45.333 -5.83301 -84.333 -17.5 -117s-27.667 -57.667 -48 -75s-41.833 -30 -64.5 -38s-47 -12 -73 -12h-180v321h-66v52h66v327zM391 251
l0.000976562 198c0 35.333 -3.83301 65.5 -11.5 90.5s-18.167 44.333 -31.5 58s-27.833 23.667 -43.5 30s-32.834 9.5 -51.501 9.5h-115v-264h107v-52h-107v-258h115c40 0 73 14.5 99 43.5s39 77.167 39 144.5z" />
    <glyph glyph-name="dcroat" unicode="&#x111;" horiz-adv-x="406" 
d="M424 631l-0.00390625 -49.998h-78v-581h-42l-6 66c-23.333 -49.333 -62.666 -74 -117.999 -74c-18 0 -34.833 3 -50.5 9s-30.334 15.333 -44.001 28s-24.5 31 -32.5 55s-12 52 -12 84v165c0 22 1.83301 42 5.5 60s8.83398 33.167 15.501 45.5
s14.334 23.166 23.001 32.499s18.334 16.666 29.001 21.999s21.334 9.33301 32.001 12s22 4 34 4c51.333 0 88 -22 110 -66v138h-92v50h92v69h56v-69h78zM96.9961 306.002v-111c0 -101.333 32.333 -152 97 -152c30 0 53.5 11.333 70.5 34s25.5 62 25.5 118v111
c0 101.333 -32 152 -96 152c-64.667 0 -97 -50.667 -97 -152z" />
    <glyph glyph-name="Emacron" unicode="&#x112;" horiz-adv-x="398" 
d="M57 900h285v-52h-285v52zM63 700h303v-63h-238v-246h228v-63h-228v-265h238v-63h-303v700z" />
    <glyph glyph-name="emacron" unicode="&#x113;" horiz-adv-x="385" 
d="M50 700h285v-52h-285v52zM41 168l0.000976562 165.001c0 32 4.33301 59.833 13 83.5s20.5 42 35.5 55s31.167 22.5 48.5 28.5s35.666 9 54.999 9s37.5 -3 54.5 -9s33.167 -15.333 48.5 -28s27.333 -31 36 -55s13 -52 13 -84v-108h-248v-44
c0 -50.667 8.66699 -86.334 26 -107.001s40.666 -31 69.999 -31c61.333 0 93.333 39.667 96 119h56c0 -31.333 -4.5 -58.5 -13.5 -81.5s-21 -40.667 -36 -53s-31 -21.333 -48 -27s-35.167 -8.5 -54.5 -8.5s-37.666 3 -54.999 9s-33.5 15.5 -48.5 28.5
s-26.833 31.333 -35.5 55s-13 51.5 -13 83.5zM289.001 269.001v55c0 89.333 -32 134 -96 134s-96 -45 -96 -135v-54h192z" />
    <glyph glyph-name="Edotaccent" unicode="&#x116;" horiz-adv-x="398" 
d="M169 900h61v-61h-61v61zM63 700h303v-63h-238v-246h228v-63h-228v-265h238v-63h-303v700z" />
    <glyph glyph-name="edotaccent" unicode="&#x117;" horiz-adv-x="385" 
d="M162 639v61h61v-61h-61zM41 168l0.000976562 165.001c0 32 4.33301 59.833 13 83.5s20.5 42 35.5 55s31.167 22.5 48.5 28.5s35.666 9 54.999 9s37.5 -3 54.5 -9s33.167 -15.333 48.5 -28s27.333 -31 36 -55s13 -52 13 -84v-108h-248v-44
c0 -50.667 8.66699 -86.334 26 -107.001s40.666 -31 69.999 -31c61.333 0 93.333 39.667 96 119h56c0 -31.333 -4.5 -58.5 -13.5 -81.5s-21 -40.667 -36 -53s-31 -21.333 -48 -27s-35.167 -8.5 -54.5 -8.5s-37.666 3 -54.999 9s-33.5 15.5 -48.5 28.5
s-26.833 31.333 -35.5 55s-13 51.5 -13 83.5zM289.001 269.001v55c0 89.333 -32 134 -96 134s-96 -45 -96 -135v-54h192z" />
    <glyph glyph-name="Eogonek" unicode="&#x118;" horiz-adv-x="398" 
d="M63 700l302.998 0.00195312v-63h-238v-246h228v-63h-228v-265h238v-63h-36c-12 -8.66699 -21.5 -16.334 -28.5 -23.001s-13.833 -15.5 -20.5 -26.5s-9.66699 -21.833 -9 -32.5c0.666992 -26.667 17.334 -40.334 50.001 -41.001h15v-44h-16
c-63.333 0.666992 -96 24 -98 70c-0.666992 12 0.833008 23.167 4.5 33.5s9.5 19.833 17.5 28.5s14.333 15 19 19s11.334 9.33301 20.001 16h-221v700z" />
    <glyph glyph-name="eogonek" unicode="&#x119;" horiz-adv-x="385" 
d="M41 168v165.001c0 32 4.33301 59.833 13 83.5s20.5 42 35.5 55s31.167 22.5 48.5 28.5s35.666 9 54.999 9s37.5 -3 54.5 -9s33.167 -15.333 48.5 -28s27.333 -31 36 -55s13 -52 13 -84v-108h-248v-44c0 -92 32 -138 96 -138c60.667 0 92.667 39.667 96 119h56
c-1.33301 -76.667 -27.333 -127.334 -78 -152.001l-7 -3c-12 -8.66699 -21.5 -16 -28.5 -22s-14 -14.5 -21 -25.5s-10.167 -22.167 -9.5 -33.5c0.666992 -26 17.334 -39.333 50.001 -40h15v-44h-16c-63.333 0 -96 23.333 -98 70c0 12.667 2.83301 24.667 8.5 36
s11.5 19.833 17.5 25.5s14 12.167 24 19.5c-5.33301 -0.666992 -12 -0.666992 -20 0c-40 2 -73.5 17 -100.5 45s-40.5 71.333 -40.5 130zM289 269.001v55c0 89.333 -32 134 -96 134s-96 -45 -96 -135v-54h192z" />
    <glyph glyph-name="Ecaron" unicode="&#x11a;" horiz-adv-x="398" 
d="M283 902h49l-100 -136h-65l-100 136h49l83 -91zM63 700h303v-63h-238v-246h228v-63h-228v-265h238v-63h-303v700z" />
    <glyph glyph-name="ecaron" unicode="&#x11b;" horiz-adv-x="385" 
d="M276 702h49l-100 -136h-65l-100 136h49l83 -91zM41 168l0.000976562 165.001c0 32 4.33301 59.833 13 83.5s20.5 42 35.5 55s31.167 22.5 48.5 28.5s35.666 9 54.999 9s37.5 -3 54.5 -9s33.167 -15.333 48.5 -28s27.333 -31 36 -55s13 -52 13 -84v-108h-248v-44
c0 -50.667 8.66699 -86.334 26 -107.001s40.666 -31 69.999 -31c61.333 0 93.333 39.667 96 119h56c0 -31.333 -4.5 -58.5 -13.5 -81.5s-21 -40.667 -36 -53s-31 -21.333 -48 -27s-35.167 -8.5 -54.5 -8.5s-37.666 3 -54.999 9s-33.5 15.5 -48.5 28.5
s-26.833 31.333 -35.5 55s-13 51.5 -13 83.5zM289.001 269.001v55c0 89.333 -32 134 -96 134s-96 -45 -96 -135v-54h192z" />
    <glyph glyph-name="Gbreve" unicode="&#x11e;" horiz-adv-x="527" 
d="M336 900l51 0.00195312c-4.66699 -30 -18.667 -54.833 -42 -74.5s-50.5 -29.5 -81.5 -29.5s-58.167 9.83301 -81.5 29.5s-37.333 44.5 -42 74.5h51c2 -8 5.33301 -15.333 10 -22s10.167 -12.334 16.5 -17.001s13.5 -8.33398 21.5 -11.001s16 -4 24 -4
c12 0 23 2.33301 33 7s18.5 11 25.5 19s11.833 17.333 14.5 28zM62 234.002l-0.00195312 233.001c0 44.667 5.83301 83.167 17.5 115.5s27.334 57.333 47.001 75s41 30.667 64 39s47.5 12.5 73.5 12.5c20.667 0 40.167 -2.33301 58.5 -7s36.333 -12.667 54 -24
s32.834 -25.666 45.501 -42.999s23 -39.833 31 -67.5s12.333 -58.834 13 -93.501v-10h-64v7c-2 62 -15.667 106.667 -41 134s-57.666 41 -96.999 41c-18.667 0 -35.834 -3.16699 -51.501 -9.5s-30 -16.333 -43 -30s-23.167 -33 -30.5 -58s-11 -55.167 -11 -90.5v-215
c0 -35.333 3.66699 -65.5 11 -90.5s17.5 -44.333 30.5 -58s27.333 -23.667 43 -30s32.834 -9.5 51.501 -9.5c40.667 0 73.834 14.333 99.501 43s38.5 76.334 38.5 143.001v70h-130v63h194v-140c0 -44.667 -5.66699 -83.334 -17 -116.001s-27 -57.834 -47 -75.501
s-41.333 -30.5 -64 -38.5s-47.334 -12 -74.001 -12c-26 0 -50.5 4.16699 -73.5 12.5s-44.333 21.333 -64 39s-35.334 42.667 -47.001 75s-17.5 70.833 -17.5 115.5z" />
    <glyph glyph-name="gbreve" unicode="&#x11f;" 
d="M270 700l50.998 0.00195312c-4.66699 -30 -18.667 -54.833 -42 -74.5s-50.5 -29.5 -81.5 -29.5s-58.167 9.83301 -81.5 29.5s-37.666 44.5 -42.999 74.5h51c2.66699 -8 6.33398 -15.333 11.001 -22s10.167 -12.334 16.5 -17.001s13.5 -8.33398 21.5 -11.001s16 -4 24 -4
c11.333 0 22 2.33301 32 7s18.5 11 25.5 19s12.167 17.333 15.5 28zM40.998 176.002l-0.00292969 157.001c0 22 1.83301 42 5.5 60s8.83398 33.167 15.501 45.5s14.334 23.166 23.001 32.499s18.334 16.666 29.001 21.999s21.334 9.33301 32.001 12s22 4 34 4
c55.333 0 94.666 -24 117.999 -72l6 63h42v-499c0 -31.333 -4.33301 -58.666 -13 -81.999s-20.5 -41.333 -35.5 -54s-31.167 -22 -48.5 -28s-35.666 -9 -54.999 -9c-34 0 -64.5 9 -91.5 27s-44.833 46.667 -53.5 86h58c14 -41.333 43 -62 87 -62c64 0 96 44 96 132v57
c-21.333 -45.333 -58 -68 -110 -68c-14.667 0 -28.334 1.66699 -41.001 5s-25.167 9.33301 -37.5 18s-22.833 19.5 -31.5 32.5s-15.667 29.833 -21 50.5s-8 44 -8 70zM289.995 201.003l0.000976562 105.001c0 29.333 -2.5 54.166 -7.5 74.499s-12 36 -21 47
s-19 18.833 -30 23.5s-23.5 7 -37.5 7c-64.667 0 -97 -50.667 -97 -152v-105c0 -101.333 32.333 -152 97 -152c9.33301 0 17.833 1 25.5 3s15.334 5.16699 23.001 9.5s14.167 10.333 19.5 18s10.166 17 14.499 28s7.66602 24.333 9.99902 40s3.5 33.5 3.5 53.5z" />
    <glyph glyph-name="Gdotaccent" unicode="&#x120;" horiz-adv-x="527" 
d="M233 839v61h61v-61h-61zM62 234l-0.00292969 233.002c0 44.667 5.83301 83.167 17.5 115.5s27.334 57.333 47.001 75s41 30.667 64 39s47.5 12.5 73.5 12.5c20.667 0 40.167 -2.33301 58.5 -7s36.333 -12.667 54 -24s32.834 -25.666 45.501 -42.999s23 -39.833 31 -67.5
s12.333 -58.834 13 -93.501v-10h-64v7c-2 62 -15.667 106.667 -41 134s-57.666 41 -96.999 41c-14.667 0 -28.5 -1.83301 -41.5 -5.5s-25.5 -10 -37.5 -19s-22.167 -20.5 -30.5 -34.5s-14.833 -31.833 -19.5 -53.5s-7 -46.834 -7 -75.501v-215
c0 -35.333 3.66699 -65.5 11 -90.5s17.5 -44.333 30.5 -58s27.333 -23.667 43 -30s32.834 -9.5 51.501 -9.5c40.667 0 73.834 14.333 99.501 43s38.5 76.334 38.5 143.001v70h-130v63h194v-140c0 -44.667 -5.66699 -83.334 -17 -116.001s-27 -57.834 -47 -75.501
s-41.333 -30.5 -64 -38.5s-47.334 -12 -74.001 -12c-26 0 -50.5 4.16699 -73.5 12.5s-44.333 21.333 -64 39s-35.334 42.667 -47.001 75s-17.5 70.833 -17.5 115.5z" />
    <glyph glyph-name="gdotaccent" unicode="&#x121;" 
d="M167 700h61v-61h-61v61zM41 176l-0.00292969 157.001c0 22 1.83301 42 5.5 60s8.83398 33.167 15.501 45.5s14.334 23.166 23.001 32.499s18.334 16.666 29.001 21.999s21.334 9.33301 32.001 12s22 4 34 4c55.333 0 94.666 -24 117.999 -72l6 63h42v-499
c0 -31.333 -4.33301 -58.666 -13 -81.999s-20.5 -41.333 -35.5 -54s-31.167 -22 -48.5 -28s-35.666 -9 -54.999 -9c-34 0 -64.5 9 -91.5 27s-44.833 46.667 -53.5 86h58c14 -41.333 43 -62 87 -62c64 0 96 43.667 96 131v58c-21.333 -45.333 -58 -68 -110 -68
c-14.667 0 -28.334 1.66699 -41.001 5s-25.167 9.33301 -37.5 18s-22.833 19.5 -31.5 32.5s-15.667 29.833 -21 50.5s-8 44 -8 70zM289.997 201.001l-0.000976562 105c0 56 -8.66699 95.333 -26 118s-40.666 34 -69.999 34c-64.667 0 -97 -50.667 -97 -152v-105
c0 -101.333 32.333 -152 97 -152c30 0 53.5 11.333 70.5 34s25.5 62 25.5 118z" />
    <glyph glyph-name="Gcommaaccent" unicode="&#x122;" horiz-adv-x="527" 
d="M62 234l-0.00195312 233.001c0 44.667 5.83301 83.167 17.5 115.5s27.334 57.333 47.001 75s41 30.667 64 39s47.5 12.5 73.5 12.5c20.667 0 40.167 -2.33301 58.5 -7s36.333 -12.667 54 -24s32.834 -25.666 45.501 -42.999s23 -39.833 31 -67.5
s12.333 -58.834 13 -93.501v-10h-64v7c-2 62 -15.667 106.667 -41 134s-57.666 41 -96.999 41c-18.667 0 -35.834 -3.16699 -51.501 -9.5s-30 -16.333 -43 -30s-23.167 -33 -30.5 -58s-11 -55.167 -11 -90.5v-215c0 -35.333 3.66699 -65.5 11 -90.5s17.5 -44.333 30.5 -58
s27.333 -23.667 43 -30s32.834 -9.5 51.501 -9.5c40.667 0 73.834 14.333 99.501 43s38.5 76.334 38.5 143.001v70h-130v63h194v-140c0 -44.667 -5.66699 -83.334 -17 -116.001s-27 -57.834 -47 -75.501s-41.333 -30.5 -64 -38.5s-47.334 -12 -74.001 -12
c-26 0 -50.5 4.16699 -73.5 12.5s-44.333 21.333 -64 39s-35.334 42.667 -47.001 75s-17.5 70.833 -17.5 115.5zM230.998 -84.999h65v-65l-26 -62h-23l11 62h-27v65z" />
    <glyph glyph-name="gcommaaccent" unicode="&#x123;" horiz-adv-x="393" 
d="M188 754h21l-10 -59h25v-60h-61v60zM41 176l-0.00292969 157.001c0 22 1.83301 42 5.5 60s8.83398 33.167 15.501 45.5s14.334 23.166 23.001 32.499s18.334 16.666 29.001 21.999s21.334 9.33301 32.001 12s22 4 34 4c55.333 0 94.666 -24 117.999 -72l6 63h42v-499
c0 -31.333 -4.33301 -58.666 -13 -81.999s-20.5 -41.333 -35.5 -54s-31.167 -22 -48.5 -28s-35.666 -9 -54.999 -9c-34 0 -64.5 9 -91.5 27s-44.833 46.667 -53.5 86h58c14 -41.333 43 -62 87 -62c64 0 96 44 96 132v57c-21.333 -45.333 -58 -68 -110 -68
c-14.667 0 -28.334 1.66699 -41.001 5s-25.167 9.33301 -37.5 18s-22.833 19.5 -31.5 32.5s-15.667 29.833 -21 50.5s-8 44 -8 70zM289.997 201.001v105c0 56 -8.66699 95.333 -26 118s-40.666 34 -69.999 34c-64.667 0 -97 -50.667 -97 -152v-105
c0 -101.333 32.333 -152 97 -152c9.33301 0 17.833 1 25.5 3s15.334 5.16699 23.001 9.5s14.167 10.333 19.5 18s10.166 17 14.499 28s7.66602 24.333 9.99902 40s3.5 33.5 3.5 53.5z" />
    <glyph glyph-name="Hbar" unicode="&#x126;" horiz-adv-x="624" 
d="M591 564v-58h-93v-506h-65v328h-243v-328h-65v506h-93v58h93v136h65v-136h243v136h65v-136h93zM433 391v115h-243v-115h243z" />
    <glyph glyph-name="hbar" unicode="&#x127;" horiz-adv-x="428" 
d="M134 579l-0.00195312 -139c22 46 59 69 111 69c18 0 34.833 -3 50.5 -9s30.334 -15.333 44.001 -28s24.334 -31 32.001 -55s11.5 -52 11.5 -84v-333h-56v306c0 101.333 -32 152 -96 152c-64.667 0 -97 -46.667 -97 -140v-318h-56v578h-101v51h101v71h56v-70h102v-51h-102
z" />
    <glyph glyph-name="Imacron" unicode="&#x12a;" horiz-adv-x="193" 
d="M-46 900h285v-52h-285v52zM63 0v700h67v-700h-67z" />
    <glyph glyph-name="imacron" unicode="&#x12b;" horiz-adv-x="244" 
d="M-20 700h285v-52h-285v52zM95 0v500h56v-500h-56z" />
    <glyph glyph-name="Iogonek" unicode="&#x12e;" horiz-adv-x="193" 
d="M63 700l67.001 -0.00195312v-700c-12.667 -9.33301 -22.667 -17.166 -30 -23.499s-14.5 -15.166 -21.5 -26.499s-10.5 -23 -10.5 -35c0.666992 -26 17.667 -39.333 51 -40h15v-44h-16c-32 0 -56.333 6 -73 18s-25 29.667 -25 53
c-0.666992 6.66699 -0.333984 13.167 0.999023 19.5s2.83301 11.833 4.5 16.5s4.5 9.5 8.5 14.5l9.5 12c2.33301 3 6 6.83301 11 11.5s8.5 7.66699 10.5 9l11.5 8c5.66699 4 8.5 6.33301 8.5 7h-22v700z" />
    <glyph glyph-name="iogonek" unicode="&#x12f;" horiz-adv-x="214" 
d="M75 639v61h61v-61h-61zM133 500l0.00195312 -500.002c-12.667 -9.33301 -22.5 -17 -29.5 -23s-14.167 -14.667 -21.5 -26s-11 -22.666 -11 -33.999c0.666992 -27.333 17.667 -41.333 51 -42h15v-44h-16c-64.667 0.666992 -97.334 25 -98.001 73
c-0.666992 7.33301 -0.166992 14.333 1.5 21s4.16699 12.834 7.5 18.501s6.5 10.667 9.5 15s7.16699 8.83301 12.5 13.5s9.5 8.16699 12.5 10.5l12.5 10c5.33301 4.33301 8.66602 6.83301 9.99902 7.5h-12v500h56z" />
    <glyph glyph-name="Idotaccent" unicode="&#x130;" horiz-adv-x="193" 
d="M66 839v61h61v-61h-61zM63 0v700h67v-700h-67z" />
    <glyph glyph-name="dotlessi" unicode="&#x131;" horiz-adv-x="211" 
d="M77 0v500h57v-500h-57z" />
    <glyph glyph-name="IJ" unicode="&#x132;" horiz-adv-x="521" 
d="M63 700h67v-700h-67v700zM393 700l65 0.000976562v-466c0 -34 -3.66699 -64.833 -11 -92.5s-17 -50.5 -29 -68.5s-26.167 -33 -42.5 -45s-33 -20.833 -50 -26.5s-35.167 -8.83398 -54.5 -9.50098h-31v63h19c38 2 69.833 17.667 95.5 47s38.5 76.333 38.5 141v457z" />
    <glyph glyph-name="ij" unicode="&#x133;" horiz-adv-x="428" 
d="M51 646h65v-61h-65v61zM316 645h63v-59h-63v59zM56 500h56v-500h-56v500zM319 500l56.999 -0.000976562v-497c0 -35.333 -3 -64.666 -9 -87.999s-15.167 -41.166 -27.5 -53.499s-26 -21 -41 -26s-33.5 -7.83301 -55.5 -8.5h-30v51h12
c24.667 0.666992 43.334 4.16699 56.001 10.5s22.167 19.666 28.5 39.999s9.5 50.833 9.5 91.5v480z" />
    <glyph glyph-name="Kcommaaccent" unicode="&#x136;" horiz-adv-x="507" 
d="M188 358l272 -358h-79l-251 326v-326h-67v700h67v-306l231 306h77zM222 -150v65h65v-65l-26 -62h-23l11 62h-27z" />
    <glyph glyph-name="kcommaaccent" unicode="&#x137;" horiz-adv-x="370" 
d="M153 256l181 -256h-61l-169 226v-226h-56v700h56v-414l160 214h60zM153 -150v65h65v-65l-26 -62h-23l11 62h-27z" />
    <glyph glyph-name="Lacute" unicode="&#x139;" horiz-adv-x="406" 
d="M195 906h75l-85 -130h-48zM63 700h65v-637h231v-63h-296v700z" />
    <glyph glyph-name="lacute" unicode="&#x13a;" horiz-adv-x="174" 
d="M81 881h75l-85 -131h-49zM51 0v700h56v-700h-56z" />
    <glyph glyph-name="Lcommaaccent" unicode="&#x13b;" horiz-adv-x="406" 
d="M128 63h231v-63h-296v700h65v-637zM171 -150v65h65v-65l-26 -62h-23l11 62h-27z" />
    <glyph glyph-name="lcommaaccent" unicode="&#x13c;" horiz-adv-x="152" 
d="M107 700v-700h-56v700h56zM44 -85h65v-65l-26 -62h-23l11 62h-27v65z" />
    <glyph glyph-name="Lcaron" unicode="&#x13d;" horiz-adv-x="444" 
d="M296 573l12 62h-28v65h65v-65l-26 -62h-23zM128 63h231v-63h-296v700h65v-637z" />
    <glyph glyph-name="lcaron" unicode="&#x13e;" horiz-adv-x="232" 
d="M161 700h65v-65l-26 -62h-23l11 62h-27v65zM51 0v700h56v-700h-56z" />
    <glyph glyph-name="Ldot" unicode="&#x13f;" horiz-adv-x="437" 
d="M128 63h231v-63h-296v700h65v-637zM304 317v25h26v-25h-26z" />
    <glyph glyph-name="ldot" unicode="&#x140;" horiz-adv-x="274" 
d="M51 0v700h56v-700h-56zM185 297v65h65v-65h-65z" />
    <glyph glyph-name="Lslash" unicode="&#x141;" horiz-adv-x="475" 
d="M178 63h250v-63h-315v350l-99 -61v67l99 61v283h65v-262l100 62v-67l-100 -62v-308z" />
    <glyph glyph-name="lslash" unicode="&#x142;" horiz-adv-x="298" 
d="M281 500v-67l-104 -62v-371h-57v351l-103 -62v67l103 62v282h57v-263z" />
    <glyph glyph-name="Nacute" unicode="&#x143;" horiz-adv-x="509" 
d="M246 906h76l-86 -130h-48zM385 700h64v-700h-65l-260 553v-553h-64v700h65l260 -553v553z" />
    <glyph glyph-name="nacute" unicode="&#x144;" horiz-adv-x="398" 
d="M191 706h75l-85 -130h-49zM91 500l6.99902 -65c22.667 49.333 61.667 74 117 74c18 0 34.833 -3 50.5 -9s30.334 -15.333 44.001 -28s24.5 -31 32.5 -55s12 -52 12 -84v-333h-56v306c0 101.333 -32.333 152 -97 152c-64 0 -96 -46.667 -96 -140v-318h-56v500h42z" />
    <glyph glyph-name="Ncommaaccent" unicode="&#x145;" horiz-adv-x="509" 
d="M385 700h64v-700h-65l-260 553v-553h-64v700h65l260 -553v553zM223 -150v65h65v-65l-26 -62h-23l11 62h-27z" />
    <glyph glyph-name="ncommaaccent" unicode="&#x146;" horiz-adv-x="398" 
d="M91 500l6.99902 -65c22.667 49.333 61.667 74 117 74c18 0 34.833 -3 50.5 -9s30.334 -15.333 44.001 -28s24.5 -31 32.5 -55s12 -52 12 -84v-333h-56v306c0 101.333 -32.333 152 -97 152c-64 0 -96 -46.667 -96 -140v-318h-56v500h42zM166.999 -150v65h65v-65l-26 -62
h-23l11 62h-27z" />
    <glyph glyph-name="Ncaron" unicode="&#x147;" horiz-adv-x="509" 
d="M338 902h50l-101 -136h-64l-101 136h50l83 -91zM385 700h64v-700h-65l-260 553v-553h-64v700h65l260 -553v553z" />
    <glyph glyph-name="ncaron" unicode="&#x148;" horiz-adv-x="398" 
d="M283 702h49l-100 -136h-65l-100 136h49l83 -91zM91 500l6.99902 -65c22.667 49.333 61.667 74 117 74c18 0 34.833 -3 50.5 -9s30.334 -15.333 44.001 -28s24.5 -31 32.5 -55s12 -52 12 -84v-333h-56v306c0 101.333 -32.333 152 -97 152c-64 0 -96 -46.667 -96 -140v-318
h-56v500h42z" />
    <glyph glyph-name="Eng" unicode="&#x14a;" horiz-adv-x="600" 
d="M444 700h65.002v-687c0 -37.333 -3.33301 -68.333 -10 -93s-16.834 -43.667 -30.501 -57s-28.667 -22.5 -45 -27.5s-36.833 -7.83301 -61.5 -8.5h-27v62h17c22.667 0 39.667 2.5 51 7.5s20.666 15.833 27.999 32.5s11.333 42 12 76l-257 559v-564h-65v700h64l259 -563
v563z" />
    <glyph glyph-name="eng" unicode="&#x14b;" horiz-adv-x="402" 
d="M93 500l5.99609 -64.999c22.667 49.333 62 74 118 74c18 0 34.833 -3 50.5 -9s30.334 -15.333 44.001 -28s24.334 -31 32.001 -55s11.5 -52 11.5 -84v-330c0 -36 -3 -65.833 -9 -89.5s-15.333 -41.5 -28 -53.5s-26.667 -20.333 -42 -25
s-34.666 -7.33398 -57.999 -8.00098h-25v51h9c19.333 0 34.333 1.5 45 4.5s20.334 9.16699 29.001 18.5s14.667 22.833 18 40.5s5 41.5 5 71.5v301c0 96 -32.333 144 -97 144c-64 0 -96 -46.667 -96 -140v-318h-56v500h43z" />
    <glyph glyph-name="Omacron" unicode="&#x14c;" horiz-adv-x="518" 
d="M118 900h284v-52h-284v52zM55 234v233.002c0 44 5.83301 82.333 17.5 115s27.5 57.834 47.5 75.501s41.5 30.667 64.5 39s47.833 12.5 74.5 12.5c26 0 50.5 -4 73.5 -12s44.667 -20.833 65 -38.5s36.333 -42.834 48 -75.501s17.5 -71.334 17.5 -116.001v-233
c0 -44.667 -5.83301 -83.334 -17.5 -116.001s-27.667 -57.834 -48 -75.501s-42 -30.5 -65 -38.5s-47.5 -12 -73.5 -12c-26.667 0 -51.5 4.16699 -74.5 12.5s-44.5 21.333 -64.5 39s-35.833 42.834 -47.5 75.501s-17.5 71 -17.5 115zM396 243.002v215
c0 35.333 -3.66699 65.5 -11 90.5s-17.666 44.333 -30.999 58s-27.833 23.667 -43.5 30s-32.834 9.5 -51.501 9.5c-19.333 0 -36.833 -3.16699 -52.5 -9.5s-30 -16.333 -43 -30s-23.167 -33 -30.5 -58s-11 -55.167 -11 -90.5v-215c0 -35.333 3.66699 -65.5 11 -90.5
s17.5 -44.333 30.5 -58s27.333 -23.667 43 -30s33.167 -9.5 52.5 -9.5c40 0 72.833 14.5 98.5 43.5s38.5 77.167 38.5 144.5z" />
    <glyph glyph-name="omacron" unicode="&#x14d;" horiz-adv-x="387" 
d="M52 700h285v-52h-285v52zM41 168v165c0 32 4.33301 59.833 13 83.5s20.5 42 35.5 55s31.167 22.5 48.5 28.5s35.666 9 54.999 9s37.666 -3 54.999 -9s33.666 -15.333 48.999 -28s27.333 -31 36 -55s13 -52 13 -84v-165c0 -32 -4.33301 -60 -13 -84
s-20.667 -42.333 -36 -55s-31.666 -22 -48.999 -28s-35.666 -9 -54.999 -9s-37.666 3 -54.999 9s-33.5 15.5 -48.5 28.5s-26.833 31.333 -35.5 55s-13 51.5 -13 83.5zM290 195v110.999c0 101.333 -32.333 152 -97 152c-14 0 -26.333 -2.33301 -37 -7
s-20.667 -12.5 -30 -23.5s-16.5 -26.667 -21.5 -47s-7.5 -45.166 -7.5 -74.499v-111c0 -56 8.5 -95.333 25.5 -118s40.5 -34 70.5 -34c64.667 0 97 50.667 97 152z" />
    <glyph glyph-name="Ohungarumlaut" unicode="&#x150;" horiz-adv-x="518" 
d="M195 906h72l-86 -130h-44zM312 906h71l-85 -130h-45zM55 234v233.002c0 44 5.83301 82.333 17.5 115s27.5 57.834 47.5 75.501s41.5 30.667 64.5 39s47.833 12.5 74.5 12.5c26 0 50.5 -4 73.5 -12s44.667 -20.833 65 -38.5s36.333 -42.834 48 -75.501
s17.5 -71.334 17.5 -116.001v-233c0 -44.667 -5.83301 -83.334 -17.5 -116.001s-27.667 -57.834 -48 -75.501s-42 -30.5 -65 -38.5s-47.5 -12 -73.5 -12c-26.667 0 -51.5 4.16699 -74.5 12.5s-44.5 21.333 -64.5 39s-35.833 42.834 -47.5 75.501s-17.5 71 -17.5 115z
M396 243.002v215c0 35.333 -3.66699 65.5 -11 90.5s-17.666 44.333 -30.999 58s-27.833 23.667 -43.5 30s-32.834 9.5 -51.501 9.5c-19.333 0 -36.833 -3.16699 -52.5 -9.5s-30 -16.333 -43 -30s-23.167 -33 -30.5 -58s-11 -55.167 -11 -90.5v-215
c0 -35.333 3.66699 -65.5 11 -90.5s17.5 -44.333 30.5 -58s27.333 -23.667 43 -30s33.167 -9.5 52.5 -9.5c40 0 72.833 14.5 98.5 43.5s38.5 77.167 38.5 144.5z" />
    <glyph glyph-name="ohungarumlaut" unicode="&#x151;" horiz-adv-x="402" 
d="M140 706h72l-86 -130h-44zM257 706h71l-86 -130h-44zM41 168v165c0 32 4.33301 59.833 13 83.5s20.5 42 35.5 55s31.167 22.5 48.5 28.5s35.666 9 54.999 9s37.666 -3 54.999 -9s33.666 -15.333 48.999 -28s27.333 -31 36 -55s13 -52 13 -84v-165
c0 -32 -4.33301 -60 -13 -84s-20.667 -42.333 -36 -55s-31.666 -22 -48.999 -28s-35.666 -9 -54.999 -9s-37.666 3 -54.999 9s-33.5 15.5 -48.5 28.5s-26.833 31.333 -35.5 55s-13 51.5 -13 83.5zM290 195l-0.000976562 111c0 101.333 -32.333 152 -97 152
c-29.333 0 -52.666 -11.333 -69.999 -34s-26 -62 -26 -118v-111c0 -56 8.5 -95.333 25.5 -118s40.5 -34 70.5 -34c64.667 0 97 50.667 97 152z" />
    <glyph glyph-name="OE" unicode="&#x152;" horiz-adv-x="776" 
d="M41 234v232.998c0 44.667 5.83301 83.167 17.5 115.5s27.5 57.333 47.5 75s41.333 30.667 64 39s47.334 12.5 74.001 12.5c33.333 0 63.666 -7.16699 90.999 -21.5s48.666 -37.166 63.999 -68.499v81h303v-63h-238v-246h228v-63h-228v-265h238v-63h-303v82
c-15.333 -31.333 -36.666 -54.166 -63.999 -68.499s-57.666 -21.5 -90.999 -21.5c-20.667 0 -40.334 2.33301 -59.001 7s-37 13 -55 25s-33.5 27 -46.5 45s-23.333 41 -31 69s-11.5 60 -11.5 96zM382 242.998l-0.00292969 215c0 35.333 -3.66699 65.5 -11 90.5
s-17.666 44.333 -30.999 58s-27.833 23.667 -43.5 30s-33.167 9.5 -52.5 9.5c-40.667 0 -73.5 -14.5 -98.5 -43.5s-37.5 -77.167 -37.5 -144.5v-215c0 -34.667 3.5 -64.667 10.5 -90s17.167 -44.833 30.5 -58.5s27.833 -23.667 43.5 -30s32.834 -9.5 51.501 -9.5
c40.667 0 73.834 14.5 99.501 43.5s38.5 77.167 38.5 144.5z" />
    <glyph glyph-name="oe" unicode="&#x153;" horiz-adv-x="716" 
d="M79 168l-0.000976562 165c0 32 4 59.833 12 83.5s18.833 42 32.5 55s28.334 22.5 44.001 28.5s32.5 9 50.5 9c64.667 0 107.334 -29.333 128.001 -88c12 30.667 30 53 54 67s50.667 21 80 21c19.333 0 37.5 -3 54.5 -9s33.167 -15.333 48.5 -28s27.333 -31 36 -55
s13 -52 13 -84v-108h-248v-45c0 -91.333 32 -137 96 -137c61.333 0 93.333 39.667 96 119h56c0 -31.333 -4.5 -58.5 -13.5 -81.5s-21 -40.667 -36 -53s-31 -21.333 -48 -27s-35.167 -8.5 -54.5 -8.5c-29.333 0 -56 7 -80 21s-42 36.333 -54 67
c-20 -58.667 -62.667 -88 -128 -88c-18 0 -34.833 3 -50.5 9s-30.334 15.5 -44.001 28.5s-24.5 31.333 -32.5 55s-12 51.5 -12 83.5zM327.999 195l-0.000976562 111c0 101.333 -32.333 152 -97 152c-29.333 0 -52.666 -11.333 -69.999 -34s-26 -62 -26 -118v-111
c0 -56 8.5 -95.333 25.5 -118s40.5 -34 70.5 -34c64.667 0 97 50.667 97 152zM575.998 276v55c-0.666992 84.667 -32.667 127 -96 127s-95.333 -42.333 -96 -127v-55h192z" />
    <glyph glyph-name="Racute" unicode="&#x154;" horiz-adv-x="490" 
d="M237 906h76l-86 -130h-48zM63 700l161.999 -0.000976562c26.667 0 51.834 -3.16699 75.501 -9.5s46 -16 67 -29s37.5 -31.667 49.5 -56s18 -53.166 18 -86.499v-29c0 -44 -11.667 -79.167 -35 -105.5s-53.333 -44.5 -90 -54.5l133 -330h-69l-127 301l-119 3v-304h-65v700
zM370.999 499.999l-0.000976562 9.00098c0 24.667 -3.83301 45.667 -11.5 63s-18.334 30.5 -32.001 39.5s-28.167 15.5 -43.5 19.5s-32.333 6 -51 6h-105v-265h105c18 0 34.833 2 50.5 6s30.334 10.667 44.001 20s24.334 22.666 32.001 39.999s11.5 38 11.5 62z" />
    <glyph glyph-name="racute" unicode="&#x155;" horiz-adv-x="264" 
d="M124 706h75l-85 -130h-48zM91 500l8 -78c8.66699 18.667 19.834 34.667 33.501 48s28.5 23.166 44.5 29.499s33 9.5 51 9.5v-51c-36.667 0 -66.334 -13.167 -89.001 -39.5s-34 -66.166 -34 -119.499v-299h-56v500h42z" />
    <glyph glyph-name="Rcommaaccent" unicode="&#x156;" horiz-adv-x="490" 
d="M63 700l161.999 -0.000976562c26.667 0 51.834 -3.16699 75.501 -9.5s46 -16 67 -29s37.5 -31.667 49.5 -56s18 -53.166 18 -86.499v-29c0 -44 -11.667 -79.167 -35 -105.5s-53.333 -44.5 -90 -54.5l133 -330h-69l-127 301l-119 3v-304h-65v700zM370.999 499.999
l-0.000976562 9.00098c0 24.667 -3.83301 45.667 -11.5 63s-18.334 30.5 -32.001 39.5s-28.167 15.5 -43.5 19.5s-32.333 6 -51 6h-105v-265h105c18 0 34.833 2 50.5 6s30.334 10.667 44.001 20s24.334 22.666 32.001 39.999s11.5 38 11.5 62zM213.998 -85h64v-65l-26 -62
h-23l12 62h-27v65z" />
    <glyph glyph-name="rcommaaccent" unicode="&#x157;" horiz-adv-x="264" 
d="M91 500l8 -78c8.66699 18.667 19.834 34.667 33.501 48s28.5 23.166 44.5 29.499s33 9.5 51 9.5v-51c-36.667 0 -66.334 -13.167 -89.001 -39.5s-34 -66.166 -34 -119.499v-299h-56v500h42zM101 -150v65h65v-65l-26 -62h-23l12 62h-28z" />
    <glyph glyph-name="Rcaron" unicode="&#x158;" horiz-adv-x="490" 
d="M329 902h49l-100 -136h-65l-100 136h49l84 -91zM63 700l161.999 -0.000976562c26.667 0 51.834 -3.16699 75.501 -9.5s46 -16 67 -29s37.5 -31.667 49.5 -56s18 -53.166 18 -86.499v-29c0 -44 -11.667 -79.167 -35 -105.5s-53.333 -44.5 -90 -54.5l133 -330h-69l-127 301
l-119 3v-304h-65v700zM370.999 499.999l-0.000976562 9.00098c0 24.667 -3.83301 45.667 -11.5 63s-18.334 30.5 -32.001 39.5s-28.167 15.5 -43.5 19.5s-32.333 6 -51 6h-105v-265h105c18 0 34.833 2 50.5 6s30.334 10.667 44.001 20s24.334 22.666 32.001 39.999
s11.5 38 11.5 62z" />
    <glyph glyph-name="rcaron" unicode="&#x159;" horiz-adv-x="264" 
d="M216 702h49l-100 -136h-65l-100 136h49l84 -91zM91 500l8.00098 -78.001c13.333 28 31.333 49.5 54 64.5s47.667 22.5 75 22.5v-51c-36.667 0 -66.334 -13.167 -89.001 -39.5s-34 -66.166 -34 -119.499v-299h-56v500h42z" />
    <glyph glyph-name="Sacute" unicode="&#x15a;" horiz-adv-x="500" 
d="M241 906h76l-86 -130h-48zM46 210h62.998c0 -22 2.83301 -42 8.5 -60s13.167 -32.833 22.5 -44.5s20.166 -21.334 32.499 -29.001s24.833 -13.167 37.5 -16.5s25.667 -5 39 -5c28 0 52.333 4.66699 73 14s37 24 49 44s18 45 18 75c0 22.667 -3.33301 42.167 -10 58.5
s-17 30 -31 41s-28.833 20 -44.5 27s-35.167 13.833 -58.5 20.5c-14.667 4 -25.334 7.16699 -32.001 9.5s-17.5 6.33301 -32.5 12s-26.667 11.334 -35 17.001s-18.5 13.5 -30.5 23.5s-21 20.5 -27 31.5s-11.333 24.667 -16 41s-7 33.833 -7 52.5c0 34 5.33301 63.5 16 88.5
s25.334 44.333 44.001 58s38.834 23.834 60.501 30.501s44.834 10 69.501 10c24 0 46.833 -3.83301 68.5 -11.5s42 -19.667 61 -36s34 -39.333 45 -69s16.5 -63.834 16.5 -102.501h-63c0 51.333 -12.5 90.166 -37.5 116.499s-55.167 39.5 -90.5 39.5s-65 -10.167 -89 -30.5
s-36 -50.166 -36 -89.499c0 -11.333 1.16699 -21.833 3.5 -31.5s5.83301 -18.167 10.5 -25.5s9.33398 -13.833 14.001 -19.5s10.667 -11 18 -16s13.666 -9 18.999 -12s12.333 -6 21 -9s15.334 -5.16699 20.001 -6.5l19.5 -5.5c8.33301 -2.33301 13.833 -3.83301 16.5 -4.5
c63.333 -17.333 109.5 -42.166 138.5 -74.499s43.5 -74.833 43.5 -127.5c0 -36.667 -5.33301 -68.5 -16 -95.5s-25.834 -48 -45.501 -63s-41.167 -26 -64.5 -33s-49.666 -10.5 -78.999 -10.5c-24.667 0 -48.5 3.83301 -71.5 11.5s-44.5 19.667 -64.5 36
s-36.167 39.166 -48.5 68.499s-18.5 63.333 -18.5 102z" />
    <glyph glyph-name="sacute" unicode="&#x15b;" horiz-adv-x="376" 
d="M180 706h75l-85 -130h-49zM91 149l-0.00195312 -8.99707c1.33301 -34 11.333 -58.667 30 -74s41 -23 67 -23c64.667 0 97 30.667 97 92c0 29.333 -8.33301 52.166 -25 68.499s-41.667 29.5 -75 39.5c-18 4 -33.667 8.83301 -47 14.5s-27.5 13.5 -42.5 23.5
s-26.5 23.167 -34.5 39.5s-12 35.5 -12 57.5c0 44.667 13.5 77.667 40.5 99s61.167 32 102.5 32c38 0 71.167 -12.333 99.5 -37s43.166 -60.667 44.499 -108v-10h-56v11c-2 32 -11.167 55.5 -27.5 70.5s-36.5 22.5 -60.5 22.5c-58 0 -87 -25.667 -87 -77
c0 -14 2.83301 -26.333 8.5 -37s14 -19.334 25 -26.001s20.167 -11.334 27.5 -14.001s17 -6 29 -10c2.66699 -0.666992 4.66699 -1.33398 6 -2.00098c50.667 -13.333 86.834 -32.833 108.501 -58.5s32.5 -57.834 32.5 -96.501c0 -33.333 -7.16699 -61.166 -21.5 -83.499
s-32.666 -38.166 -54.999 -47.499s-48.166 -14 -77.499 -14c-39.333 0 -74.333 12.333 -105 37s-46.667 61 -48 109v11h56z" />
    <glyph glyph-name="Scedilla" unicode="&#x15e;" horiz-adv-x="500" 
d="M46 210h62.999c0 -27.333 4.16699 -51.5 12.5 -72.5s19.5 -37.167 33.5 -48.5s28.833 -19.833 44.5 -25.5s32.167 -8.5 49.5 -8.5c28 0 52.333 4.66699 73 14s37 24 49 44s18 45 18 75c0 22.667 -3.33301 42.167 -10 58.5s-17 30 -31 41s-28.833 20 -44.5 27
s-35.167 13.833 -58.5 20.5c-14.667 4 -25.334 7.16699 -32.001 9.5s-17.5 6.33301 -32.5 12s-26.667 11.334 -35 17.001s-18.5 13.5 -30.5 23.5s-21 20.5 -27 31.5s-11.333 24.667 -16 41s-7 33.833 -7 52.5c0 34 5.33301 63.5 16 88.5s25.334 44.333 44.001 58
s38.834 23.834 60.501 30.501s44.834 10 69.501 10c24 0 46.833 -3.83301 68.5 -11.5s42 -19.667 61 -36s34 -39.333 45 -69s16.5 -63.834 16.5 -102.501h-63c0 51.333 -12.5 90.166 -37.5 116.499s-55.167 39.5 -90.5 39.5s-65 -10.167 -89 -30.5s-36 -50.166 -36 -89.499
c0 -11.333 1.16699 -21.833 3.5 -31.5s5.83301 -18.167 10.5 -25.5s9.33398 -13.833 14.001 -19.5s10.667 -11 18 -16s13.666 -9 18.999 -12s12.333 -6 21 -9s15.334 -5.16699 20.001 -6.5l19.5 -5.5c8.33301 -2.33301 13.833 -3.83301 16.5 -4.5
c63.333 -17.333 109.5 -42.166 138.5 -74.499s43.5 -74.833 43.5 -127.5c0 -29.333 -3.5 -55.5 -10.5 -78.5s-16.833 -42.167 -29.5 -57.5s-27.334 -27.833 -44.001 -37.5s-35.334 -16.834 -56.001 -21.501v-53c-0.666992 -40.667 -8.5 -70 -23.5 -88s-41.167 -27 -78.5 -27
h-25v44h25c19.333 0.666992 33 6.5 41 17.5s12.333 28.833 13 53.5v48c-14 -0.666992 -24.667 -1 -32 -1c-23.333 1.33301 -45.5 6.33301 -66.5 15s-40.833 21.167 -59.5 37.5s-33.667 38.666 -45 66.999s-17 60.833 -17 97.5z" />
    <glyph glyph-name="scedilla" unicode="&#x15f;" horiz-adv-x="376" 
d="M91 149l-0.00292969 -9.99805c1.33301 -34 11.333 -58.5 30 -73.5s41 -22.5 67 -22.5c64.667 0 97 30.667 97 92c0 29.333 -8.33301 52.166 -25 68.499s-41.667 29.5 -75 39.5c-11.333 2.66699 -21.5 5.5 -30.5 8.5s-19.167 7 -30.5 12s-21.166 11 -29.499 18
s-16.166 14.833 -23.499 23.5s-12.833 19.334 -16.5 32.001s-5.5 26.334 -5.5 41.001c0 44.667 13.5 77.667 40.5 99s61.167 32 102.5 32c38 0 71 -12.167 99 -36.5s43 -59.833 45 -106.5v-12h-56v12c-1.33301 32 -10.5 55.333 -27.5 70s-37.167 22 -60.5 22
c-58 0 -87 -25.667 -87 -77c0 -14 2.83301 -26.333 8.5 -37s14 -19.334 25 -26.001s20.167 -11.5 27.5 -14.5s17 -6.16699 29 -9.5c2.66699 -0.666992 4.66699 -1.33398 6 -2.00098c50.667 -13.333 86.834 -32.833 108.501 -58.5s32.5 -57.834 32.5 -96.501
c0 -70 -30 -115 -90 -135v-55c0 -40.667 -7.5 -70.167 -22.5 -88.5s-41.5 -27.5 -79.5 -27.5h-25v44h24c20.667 0.666992 35 6.5 43 17.5s12 28.833 12 53.5v49c-10 -0.666992 -20.667 -0.666992 -32 0c-36 2.66699 -67.5 16 -94.5 40s-41.167 58.333 -42.5 103v11h56z" />
    <glyph glyph-name="Scaron" unicode="&#x160;" horiz-adv-x="500" 
d="M333 902h50l-101 -136h-64l-101 136h50l83 -91zM46 210l63.001 0.000976562c0 -27.333 4.16699 -51.5 12.5 -72.5s19.5 -37.167 33.5 -48.5s28.833 -19.833 44.5 -25.5s32.167 -8.5 49.5 -8.5c28 0 52.333 4.66699 73 14s37 24 49 44s18 45 18 75
c0 22.667 -3.5 42.167 -10.5 58.5s-17.333 30 -31 41s-28.334 20 -44.001 27s-35.167 13.833 -58.5 20.5c-14.667 4 -25.334 7.16699 -32.001 9.5s-17.5 6.33301 -32.5 12s-26.833 11.334 -35.5 17.001s-18.834 13.5 -30.501 23.5s-20.5 20.5 -26.5 31.5
s-11.333 24.667 -16 41s-7 33.833 -7 52.5c0 34 5.33301 63.5 16 88.5s25.334 44.333 44.001 58s38.834 23.834 60.501 30.501s44.834 10 69.501 10c24 0 46.833 -3.83301 68.5 -11.5s42 -19.667 61 -36s34 -39.333 45 -69s16.5 -63.834 16.5 -102.501h-63
c0 51.333 -12.5 90.166 -37.5 116.499s-55.167 39.5 -90.5 39.5s-65 -10.167 -89 -30.5s-36 -50.166 -36 -89.499c0 -12.667 1.66699 -24.334 5 -35.001s7.16602 -19.667 11.499 -27s10.5 -14.333 18.5 -21s14.667 -11.834 20 -15.501s13.166 -7.66699 23.499 -12
s17.833 -7.16602 22.5 -8.49902s12.334 -3.33301 23.001 -6s16.667 -4.33398 18 -5.00098c63.333 -17.333 109.5 -42.166 138.5 -74.499s43.5 -74.833 43.5 -127.5c0 -36.667 -5.33301 -68.5 -16 -95.5s-25.834 -48 -45.501 -63s-41.167 -26 -64.5 -33
s-49.666 -10.5 -78.999 -10.5c-24.667 0 -48.5 3.83301 -71.5 11.5s-44.5 19.667 -64.5 36s-36.167 39.166 -48.5 68.499s-18.5 63.333 -18.5 102z" />
    <glyph glyph-name="scaron" unicode="&#x161;" horiz-adv-x="376" 
d="M272 702h49l-100 -136h-65l-100 136h49l83 -91zM91 149l0.000976562 -8.99609c1.33301 -34 11.333 -58.667 30 -74s41 -23 67 -23c64.667 0 97 30.667 97 92c0 29.333 -8.33301 52.166 -25 68.499s-41.667 29.5 -75 39.5c-14 3.33301 -26.333 6.83301 -37 10.5
s-22.667 9.16699 -36 16.5s-24.333 15.5 -33 24.5s-15.834 20.833 -21.501 35.5s-8.5 30.667 -8.5 48c0 44.667 13.5 77.667 40.5 99s61.167 32 102.5 32c38 0 71.167 -12.333 99.5 -37s43.166 -60.667 44.499 -108v-10h-56v11c-2 32 -11.167 55.5 -27.5 70.5
s-36.5 22.5 -60.5 22.5c-58 0 -87 -25.667 -87 -77c0 -14 2.83301 -26.333 8.5 -37s14 -19.334 25 -26.001s20.167 -11.5 27.5 -14.5s17 -6.16699 29 -9.5c2.66699 -0.666992 4.66699 -1.33398 6 -2.00098c50.667 -13.333 86.834 -32.833 108.501 -58.5
s32.5 -57.834 32.5 -96.501c0 -48.667 -14.333 -85 -43 -109s-65.667 -36 -111 -36c-39.333 0 -74.333 12.333 -105 37s-46.667 61 -48 109v11h56z" />
    <glyph glyph-name="Tcedilla" unicode="&#x162;" horiz-adv-x="452" 
d="M47 700h358v-63h-146v-687c0 -28 -3.16699 -50.5 -9.5 -67.5s-17 -29.833 -32 -38.5s-35.5 -13 -61.5 -13h-25v44h24c20.667 0 35 5.66699 43 17s12.333 30 13 56v52h-17v637h-147v63z" />
    <glyph glyph-name="tcedilla" unicode="&#x163;" horiz-adv-x="313" 
d="M113 653l57.002 -0.000976562v-153h106v-50h-106v-260c0 -33.333 1.5 -59.666 4.5 -78.999s8.66699 -34.166 17 -44.499s17.666 -17 27.999 -20s25.166 -4.5 44.499 -4.5h12v-51h-10c-16 0 -30.667 1 -44 3v-45c-0.666992 -37.333 -8.66699 -64.333 -24 -81
s-41.333 -25.334 -78 -26.001h-25v44h25c20 0.666992 34 6.66699 42 18s12 29.666 12 54.999v47c-20.667 10 -36 27.833 -46 53.5s-15 63.834 -15 114.501v276h-76v50h76v153z" />
    <glyph glyph-name="Tcaron" unicode="&#x164;" horiz-adv-x="452" 
d="M309 902h50l-101 -136h-64l-101 136h50l83 -91zM405 700v-63h-146v-637h-66v637h-146v63h358z" />
    <glyph glyph-name="tcaron" unicode="&#x165;" horiz-adv-x="359" 
d="M223 705h61v-61l-25 -58h-21l10 58h-25v61zM113 653l57 -0.00195312v-153h106v-50h-106v-260c0 -43.333 3.16699 -75.666 9.5 -96.999s15.5 -35 27.5 -41s30 -9.33301 54 -10h15v-51h-27c-22.667 0 -41.5 2.33301 -56.5 7s-29 13.167 -42 25.5s-22.5 30.833 -28.5 55.5
s-9 56.334 -9 95.001v276h-76v50h76v153z" />
    <glyph glyph-name="Tbar" unicode="&#x166;" horiz-adv-x="452" 
d="M47 700h358v-63h-146v-227h94v-51h-94v-359h-65v359h-89v51h89v227h-147v63z" />
    <glyph glyph-name="tbar" unicode="&#x167;" horiz-adv-x="313" 
d="M276 450l-106 -0.000976562v-108h106v-51h-106v-108c0 -32 1.5 -57.333 4.5 -76s8.66699 -32.667 17 -42s17.5 -15.5 27.5 -18.5s24 -4.5 42 -4.5h15v-51h-27c-22.667 0 -41.5 2.33301 -56.5 7s-29 13.167 -42 25.5s-22.5 30.833 -28.5 55.5s-9 56.334 -9 95.001v117h-76
v51h76v108h-76v50h76v153h57v-153h106v-50z" />
    <glyph glyph-name="Umacron" unicode="&#x16a;" horiz-adv-x="524" 
d="M120 900h285v-52h-285v52zM128 240l-0.00195312 460.001h-65v-469c0 -44 5.66699 -82 17 -114s26.666 -56.833 45.999 -74.5s40.333 -30.5 63 -38.5s47.334 -12 74.001 -12c26 0 50.333 4 73 12s43.834 20.667 63.501 38s35.334 42.166 47.001 74.499
s17.5 70.5 17.5 114.5v469h-65v-460c0 -65.333 -12.833 -112.5 -38.5 -141.5s-58.167 -43.5 -97.5 -43.5c-40 0 -72.5 14.5 -97.5 43.5s-37.5 76.167 -37.5 141.5z" />
    <glyph glyph-name="umacron" unicode="&#x16b;" 
d="M56 700h284v-52h-284v52zM294 500h56.002v-500h-43l-6 65c-22.667 -49.333 -62 -74 -118 -74c-18 0 -34.833 3 -50.5 9s-30.334 15.333 -44.001 28s-24.334 31 -32.001 55s-11.5 52 -11.5 84v333h56v-306c0 -101.333 32.333 -152 97 -152c64 0 96 46.667 96 140v318z" />
    <glyph glyph-name="Uring" unicode="&#x16e;" horiz-adv-x="524" 
d="M262 920c26.667 0 49.667 -9.50098 69 -28.501s29 -41.833 29 -68.5c0 -17.333 -4.33301 -33.666 -13 -48.999s-20.5 -27.333 -35.5 -36s-31.5 -13 -49.5 -13c-27.333 0 -50.333 9.5 -69 28.5s-28 42.167 -28 69.5c0 26.667 9.5 49.5 28.5 68.5s41.833 28.5 68.5 28.5z
M262 876.999c-14.667 0 -27.332 -5.33203 -37.999 -15.999s-16 -23.334 -16 -38.001c0 -15.333 5.16699 -28.333 15.5 -39s23.166 -16 38.499 -16s28.333 5.33301 39 16s16 23.667 16 39c0 10 -2.5 19 -7.5 27s-11.667 14.5 -20 19.5s-17.5 7.5 -27.5 7.5zM128.002 240
l-0.00195312 460.001h-65v-469c0 -44 5.66699 -82 17 -114s26.666 -56.833 45.999 -74.5s40.333 -30.5 63 -38.5s47.334 -12 74.001 -12c26 0 50.333 4 73 12s43.834 20.667 63.501 38s35.334 42.166 47.001 74.499s17.5 70.5 17.5 114.5v469h-65v-460
c0 -65.333 -12.833 -112.5 -38.5 -141.5s-58.167 -43.5 -97.5 -43.5c-40 0 -72.5 14.5 -97.5 43.5s-37.5 76.167 -37.5 141.5z" />
    <glyph glyph-name="uring" unicode="&#x16f;" 
d="M198 720c26.667 0 49.5 -9.50098 68.5 -28.501s28.5 -41.833 28.5 -68.5c0 -17.333 -4.33301 -33.666 -13 -48.999s-20.5 -27.333 -35.5 -36s-31.167 -13 -48.5 -13c-27.333 0 -50.333 9.5 -69 28.5s-28 42.167 -28 69.5c0 26.667 9.33301 49.5 28 68.5
s41.667 28.5 69 28.5zM198 676.999c-15.333 0 -28.1689 -5.33203 -38.502 -15.999s-15.5 -23.334 -15.5 -38.001c0 -10 2.33301 -19.167 7 -27.5s11.167 -15 19.5 -20s17.5 -7.5 27.5 -7.5c14.667 0 27.334 5.33301 38.001 16s16 23.667 16 39c0 10 -2.5 19 -7.5 27
s-11.667 14.5 -20 19.5s-17.166 7.5 -26.499 7.5zM293.997 500h56.002v-500h-43l-6 65c-22.667 -49.333 -62 -74 -118 -74c-18 0 -34.833 3 -50.5 9s-30.334 15.333 -44.001 28s-24.334 31 -32.001 55s-11.5 52 -11.5 84v333h56v-306c0 -101.333 32.333 -152 97 -152
c64 0 96 46.667 96 140v318z" />
    <glyph glyph-name="Uhungarumlaut" unicode="&#x170;" horiz-adv-x="524" 
d="M198 906h71l-85 -130h-45zM314 906h72l-86 -130h-44zM128 240l-0.00195312 460.001h-65v-469c0 -44 5.66699 -82 17 -114s26.666 -56.833 45.999 -74.5s40.333 -30.5 63 -38.5s47.334 -12 74.001 -12c26 0 50.333 4 73 12s43.834 20.667 63.501 38
s35.334 42.166 47.001 74.499s17.5 70.5 17.5 114.5v469h-66v-460c0 -65.333 -12.667 -112.5 -38 -141.5s-57.666 -43.5 -96.999 -43.5c-40.667 0 -73.334 14.5 -98.001 43.5s-37 76.167 -37 141.5z" />
    <glyph glyph-name="uhungarumlaut" unicode="&#x171;" 
d="M137 706h72l-86 -130h-44zM254 706h71l-85 -130h-45zM294 500h56.002v-500h-43l-6 65c-22.667 -49.333 -62 -74 -118 -74c-18 0 -34.833 3 -50.5 9s-30.334 15.333 -44.001 28s-24.334 31 -32.001 55s-11.5 52 -11.5 84v333h56v-306c0 -101.333 32.333 -152 97 -152
c64 0 96 46.667 96 140v318z" />
    <glyph glyph-name="Uogonek" unicode="&#x172;" horiz-adv-x="524" 
d="M399 700l65 0.00195312v-469c0 -56.667 -9.66699 -102.167 -29 -136.5s-45 -59.166 -77 -74.499l-17 -20c-11.333 -8 -20.833 -15.333 -28.5 -22s-15 -15.834 -22 -27.501s-10.5 -23.5 -10.5 -35.5c0.666992 -26 17.334 -39.333 50.001 -40h15v-44h-15
c-65.333 0.666992 -98.333 25 -99 73c0 14 3.33301 27.333 10 40s13.5 22.167 20.5 28.5s15.5 13.166 25.5 20.499l-24 -1c-26.667 0 -51.334 4 -74.001 12s-43.667 20.833 -63 38.5s-34.666 42.5 -45.999 74.5s-17 70 -17 114v469h65v-460c0 -34 3.5 -63.333 10.5 -88
s17 -43.834 30 -57.501s27.167 -23.667 42.5 -30s32.666 -9.5 51.999 -9.5c39.333 0 71.833 14.5 97.5 43.5s38.5 76.167 38.5 141.5v460z" />
    <glyph glyph-name="uogonek" unicode="&#x173;" 
d="M294 500l56 -0.000976562v-500c-12.667 -9.33301 -22.5 -17 -29.5 -23s-14.167 -14.667 -21.5 -26s-11 -22.666 -11 -33.999c0 -27.333 16.667 -41.333 50 -42h15v-44h-16c-63.333 0.666992 -96 24.334 -98 71.001c0 5.33301 0.5 10.666 1.5 15.999s2.5 10.5 4.5 15.5
s4 9.5 6 13.5s4.83301 8 8.5 12l9 10c2.33301 2.66699 5.83301 6 10.5 10s8 6.66699 10 8l10 7c4.66699 3.33301 7.33398 5.33301 8.00098 6l-6 65c-23.333 -49.333 -62.666 -74 -117.999 -74c-18 0 -34.833 3 -50.5 9s-30.334 15.333 -44.001 28s-24.334 31 -32.001 55
s-11.5 52 -11.5 84v333h56v-306c0 -101.333 32.333 -152 97 -152c64 0 96 46.667 96 140v318z" />
    <glyph glyph-name="Wcircumflex" unicode="&#x174;" horiz-adv-x="804" 
d="M370 902h65l100 -136h-49l-84 90l-83 -90h-49zM691 700h66l-154 -700h-75l-126 546l-127 -546h-74l-154 700h66l129 -587l129 587h62l129 -587z" />
    <glyph glyph-name="wcircumflex" unicode="&#x175;" horiz-adv-x="667" 
d="M301 702h65l100 -136h-49l-84 90l-83 -90h-49zM573 500h57l-123 -500h-67l-107 392l-106 -392h-67l-123 500h56l104 -421l112 421h49l112 -421z" />
    <glyph glyph-name="Ycircumflex" unicode="&#x176;" horiz-adv-x="512" 
d="M224 902h65l100 -136h-49l-83 90l-84 -90h-49zM396 700h69l-177 -412v-288h-67v288l-174 412h69l139 -338z" />
    <glyph glyph-name="ycircumflex" unicode="&#x177;" horiz-adv-x="378" 
d="M157 702h65l100 -136h-49l-83 90l-84 -90h-49zM286 500h56.0029v-508c-1.33301 -30 -6.5 -56 -15.5 -78s-21 -39 -36 -51s-30.833 -20.833 -47.5 -26.5s-34.334 -8.5 -53.001 -8.5c-34 0 -64.5 9 -91.5 27s-44.833 46.667 -53.5 86h58c13.333 -41.333 42.333 -62 87 -62
c64 0 96 44 96 132v57c-22 -45.333 -59 -68 -111 -68c-18 0 -34.833 3 -50.5 9s-30.334 15.333 -44.001 28s-24.334 31 -32.001 55s-11.5 52 -11.5 84v324h56v-297c0 -101.333 32 -152 96 -152s96.333 50.667 97 152v297z" />
    <glyph glyph-name="Ydieresis" unicode="&#x178;" horiz-adv-x="512" 
d="M168 839v61h61v-61h-61zM285 839v61h61v-61h-61zM396 700h69l-177 -412v-288h-67v288l-174 412h69l139 -338z" />
    <glyph glyph-name="Zacute" unicode="&#x179;" horiz-adv-x="509" 
d="M246 906h76l-86 -130h-48zM54 700h403v-56l-339 -580h345v-64h-417v55l339 582h-331v63z" />
    <glyph glyph-name="zacute" unicode="&#x17a;" horiz-adv-x="372" 
d="M177 706h76l-86 -130h-48zM48 500h285v-44l-234 -405h237v-51h-299v44l235 404h-224v52z" />
    <glyph glyph-name="Zdotaccent" unicode="&#x17b;" horiz-adv-x="509" 
d="M225 900h61v-61h-61v61zM54 700h403v-56l-339 -580h345v-64h-417v55l339 582h-331v63z" />
    <glyph glyph-name="zdotaccent" unicode="&#x17c;" horiz-adv-x="372" 
d="M156 700h61v-61h-61v61zM48 500h285v-44l-234 -405h237v-51h-299v44l235 404h-224v52z" />
    <glyph glyph-name="Zcaron" unicode="&#x17d;" horiz-adv-x="509" 
d="M338 902h50l-101 -136h-64l-101 136h50l83 -91zM54 700h403v-56l-339 -580h345v-64h-417v55l339 582h-331v63z" />
    <glyph glyph-name="zcaron" unicode="&#x17e;" horiz-adv-x="372" 
d="M269 702h50l-101 -136h-64l-101 136h50l83 -91zM48 500h285v-44l-234 -405h237v-51h-299v44l235 404h-224v52z" />
    <glyph glyph-name="florin" unicode="&#x192;" horiz-adv-x="360" 
d="M307 706h17.9971v-51h-13c-24 0 -42.167 -3.16699 -54.5 -9.5s-22.666 -18.666 -30.999 -36.999s-15.833 -47.5 -22.5 -87.5l-4 -21h109v-51h-118l-76 -449h-56l76 449h-100v51h109l7 41c6 36.667 13.333 66 22 88s19.834 38.667 33.501 50s27.834 18.666 42.501 21.999
s34 5 58 5z" />
    <glyph glyph-name="Acaron" unicode="&#x1cd;" horiz-adv-x="535" 
d="M351 902h50l-100 -136h-65l-101 136h50l83 -91zM227 700h81l180 -700h-65l-57 213h-196l-58 -213h-65zM356 279l-88 341l-89 -341h177z" />
    <glyph glyph-name="acaron" unicode="&#x1ce;" horiz-adv-x="393" 
d="M280 702h50l-100 -136h-65l-101 136h50l83 -91zM304 500h42v-500h-42l-6 65c-22.667 -48.667 -61.667 -73 -117 -73c-14 0 -27.5 1.66699 -40.5 5s-25.667 9.33301 -38 18s-23 19.5 -32 32.5s-16.167 29.833 -21.5 50.5s-8 44 -8 70v165c0 32 4 60 12 84s19 42.333 33 55
s28.833 22 44.5 28s32.5 9 50.5 9c55.333 0 94.333 -23.667 117 -71zM97 306v-111c0 -101.333 32.333 -152 97 -152c30 0 53.5 11.333 70.5 34s25.5 62 25.5 118v111c0 101.333 -32 152 -96 152c-64.667 0 -97 -50.667 -97 -152z" />
    <glyph glyph-name="Icaron" unicode="&#x1cf;" horiz-adv-x="193" 
d="M180 902h49l-100 -136h-65l-100 136h49l84 -91zM63 0v700h67v-700h-67z" />
    <glyph glyph-name="icaron" unicode="&#x1d0;" horiz-adv-x="250" 
d="M209 702h49l-100 -136h-65l-100 136h49l84 -91zM98 0v500h56v-500h-56z" />
    <glyph glyph-name="Ocaron" unicode="&#x1d1;" horiz-adv-x="518" 
d="M343 902h49l-100 -136h-65l-100 136h49l84 -91zM55 234v233.003c0 44 5.83301 82.333 17.5 115s27.5 57.834 47.5 75.501s41.5 30.667 64.5 39s47.833 12.5 74.5 12.5c26 0 50.5 -4 73.5 -12s44.667 -20.833 65 -38.5s36.333 -42.834 48 -75.501
s17.5 -71.334 17.5 -116.001v-233c0 -44.667 -5.83301 -83.334 -17.5 -116.001s-27.667 -57.834 -48 -75.501s-42 -30.5 -65 -38.5s-47.5 -12 -73.5 -12c-26.667 0 -51.5 4.16699 -74.5 12.5s-44.5 21.333 -64.5 39s-35.833 42.667 -47.5 75s-17.5 70.833 -17.5 115.5z
M396 243.003v215c0 35.333 -3.66699 65.5 -11 90.5s-17.666 44.333 -30.999 58s-27.833 23.667 -43.5 30s-32.834 9.5 -51.501 9.5c-19.333 0 -36.833 -3.16699 -52.5 -9.5s-30 -16.333 -43 -30s-23.167 -33 -30.5 -58s-11 -55.167 -11 -90.5v-215
c0 -35.333 3.66699 -65.5 11 -90.5s17.5 -44.333 30.5 -58s27.333 -23.667 43 -30s33.167 -9.5 52.5 -9.5c40 0 72.833 14.5 98.5 43.5s38.5 77.167 38.5 144.5z" />
    <glyph glyph-name="ocaron" unicode="&#x1d2;" horiz-adv-x="387" 
d="M277 702h50l-101 -136h-64l-101 136h50l83 -91zM41 168v165c0 32 4.33301 59.833 13 83.5s20.5 42 35.5 55s31.167 22.5 48.5 28.5s35.666 9 54.999 9s37.666 -3 54.999 -9s33.666 -15.333 48.999 -28s27.333 -31 36 -55s13 -52 13 -84v-165c0 -32 -4.33301 -60 -13 -84
s-20.667 -42.333 -36 -55s-31.666 -22 -48.999 -28s-35.666 -9 -54.999 -9s-37.666 3 -54.999 9s-33.5 15.5 -48.5 28.5s-26.833 31.333 -35.5 55s-13 51.5 -13 83.5zM290 195l-0.000976562 111c0 101.333 -32.333 152 -97 152c-29.333 0 -52.666 -11.333 -69.999 -34
s-26 -62 -26 -118v-111c0 -56 8.5 -95.333 25.5 -118s40.5 -34 70.5 -34c64.667 0 97 50.667 97 152z" />
    <glyph glyph-name="Ucaron" unicode="&#x1d3;" horiz-adv-x="524" 
d="M345 902h50l-100 -136h-65l-101 136h50l83 -91zM128 240l-0.00195312 460.001h-65v-469c0 -44 5.66699 -82 17 -114s26.666 -56.833 45.999 -74.5s40.333 -30.5 63 -38.5s47.334 -12 74.001 -12c26 0 50.333 4 73 12s43.834 20.667 63.501 38
s35.334 42.166 47.001 74.499s17.5 70.5 17.5 114.5v469h-65v-460c0 -65.333 -12.833 -112.5 -38.5 -141.5s-58.167 -43.5 -97.5 -43.5c-40 0 -72.5 14.5 -97.5 43.5s-37.5 76.167 -37.5 141.5z" />
    <glyph glyph-name="ucaron" unicode="&#x1d4;" 
d="M281 702h49l-100 -136h-65l-100 136h49l84 -91zM294 500h56.002v-500h-43l-6 65c-22.667 -49.333 -62 -74 -118 -74c-18 0 -34.833 3 -50.5 9s-30.334 15.333 -44.001 28s-24.334 31 -32.001 55s-11.5 52 -11.5 84v333h56v-306c0 -101.333 32.333 -152 97 -152
c64 0 96 46.667 96 140v318z" />
    <glyph glyph-name="Udieresismacron" unicode="&#x1d5;" horiz-adv-x="524" 
d="M120 945h285v-52h-285v52zM173 732v60h61v-60h-61zM291 732v60h61v-60h-61zM128 240l-0.00195312 460.001h-65v-469c0 -44 5.66699 -82 17 -114s26.666 -56.833 45.999 -74.5s40.333 -30.5 63 -38.5s47.334 -12 74.001 -12c26 0 50.333 4 73 12s43.834 20.667 63.501 38
s35.334 42.166 47.001 74.499s17.5 70.5 17.5 114.5v469h-65v-460c0 -65.333 -12.833 -112.5 -38.5 -141.5s-58.167 -43.5 -97.5 -43.5c-40 0 -72.5 14.5 -97.5 43.5s-37.5 76.167 -37.5 141.5z" />
    <glyph glyph-name="udieresismacron" unicode="&#x1d6;" 
d="M56 745h284v-52h-284v52zM109 543v61h61v-61h-61zM226 543v61h61v-61h-61zM294 500h56.002v-500h-43l-6 65c-22.667 -49.333 -62 -74 -118 -74c-18 0 -34.833 3 -50.5 9s-30.334 15.333 -44.001 28s-24.334 31 -32.001 55s-11.5 52 -11.5 84v333h56v-306
c0 -101.333 32.333 -152 97 -152c64 0 96 46.667 96 140v318z" />
    <glyph glyph-name="Udieresisacute" unicode="&#x1d7;" horiz-adv-x="524" 
d="M255 959h76l-86 -130h-48zM173 792h61v-60h-61v60zM291 792h61v-60h-61v60zM399 700h65.0029v-469c0 -44 -5.83301 -82.167 -17.5 -114.5s-27.334 -57.166 -47.001 -74.499s-40.834 -30 -63.501 -38s-47 -12 -73 -12c-26.667 0 -51.334 4 -74.001 12
s-43.667 20.833 -63 38.5s-34.666 42.5 -45.999 74.5s-17 70 -17 114v469h65v-460c0 -34 3.5 -63.333 10.5 -88s17 -43.834 30 -57.501s27.167 -23.667 42.5 -30s32.666 -9.5 51.999 -9.5c39.333 0 71.833 14.5 97.5 43.5s38.5 76.167 38.5 141.5v460z" />
    <glyph glyph-name="udieresisacute" unicode="&#x1d8;" 
d="M189 758h75l-85 -130h-48zM109 543v61h61v-61h-61zM226 543v61h61v-61h-61zM294 500h56.002v-500h-43l-6 65c-22.667 -49.333 -62 -74 -118 -74c-18 0 -34.833 3 -50.5 9s-30.334 15.333 -44.001 28s-24.334 31 -32.001 55s-11.5 52 -11.5 84v333h56v-306
c0 -101.333 32.333 -152 97 -152c64 0 96 46.667 96 140v318z" />
    <glyph glyph-name="Udieresiscaron" unicode="&#x1d9;" horiz-adv-x="524" 
d="M345 954h50l-100 -136h-65l-101 136h50l83 -91zM173 732v60h61v-60h-61zM291 732v60h61v-60h-61zM128 240l-0.00195312 460.001h-65v-469c0 -44 5.66699 -82 17 -114s26.666 -56.833 45.999 -74.5s40.333 -30.5 63 -38.5s47.334 -12 74.001 -12c26 0 50.333 4 73 12
s43.834 20.667 63.501 38s35.334 42.166 47.001 74.499s17.5 70.5 17.5 114.5v469h-65v-460c0 -65.333 -12.833 -112.5 -38.5 -141.5s-58.167 -43.5 -97.5 -43.5c-40 0 -72.5 14.5 -97.5 43.5s-37.5 76.167 -37.5 141.5z" />
    <glyph glyph-name="udieresiscaron" unicode="&#x1da;" 
d="M281 753h49l-100 -136h-65l-100 136h49l84 -90zM109 543v61h61v-61h-61zM226 543v61h61v-61h-61zM294 500h56.002v-500h-43l-6 65c-22.667 -49.333 -62 -74 -118 -74c-18 0 -34.833 3 -50.5 9s-30.334 15.333 -44.001 28s-24.334 31 -32.001 55s-11.5 52 -11.5 84v333h56
v-306c0 -101.333 32.333 -152 97 -152c64 0 96 46.667 96 140v318z" />
    <glyph glyph-name="Udieresisgrave" unicode="&#x1db;" horiz-adv-x="524" 
d="M195 959h76l58 -131h-48zM173 732v60h61v-60h-61zM291 732v60h61v-60h-61zM128 240l-0.00195312 460.001h-65v-469c0 -44 5.66699 -82 17 -114s26.666 -56.833 45.999 -74.5s40.333 -30.5 63 -38.5s47.334 -12 74.001 -12c26 0 50.333 4 73 12s43.834 20.667 63.501 38
s35.334 42.166 47.001 74.499s17.5 70.5 17.5 114.5v469h-65v-460c0 -65.333 -12.833 -112.5 -38.5 -141.5s-58.167 -43.5 -97.5 -43.5c-40 0 -72.5 14.5 -97.5 43.5s-37.5 76.167 -37.5 141.5z" />
    <glyph glyph-name="udieresisgrave" unicode="&#x1dc;" 
d="M131 758h75l58 -130h-48zM109 543v61h61v-61h-61zM226 543v61h61v-61h-61zM294 500h56.002v-500h-43l-6 65c-22.667 -49.333 -62 -74 -118 -74c-18 0 -34.833 3 -50.5 9s-30.334 15.333 -44.001 28s-24.334 31 -32.001 55s-11.5 52 -11.5 84v333h56v-306
c0 -101.333 32.333 -152 97 -152c64 0 96 46.667 96 140v318z" />
    <glyph glyph-name="Scommaaccent" unicode="&#x218;" horiz-adv-x="500" 
d="M446 490l-63 0.00292969c0 51.333 -12.5 90.166 -37.5 116.499s-55.167 39.5 -90.5 39.5s-65 -10.167 -89 -30.5s-36 -50.166 -36 -89.499c0 -12.667 1.66699 -24.334 5 -35.001s7.16602 -19.667 11.499 -27s10.5 -14.333 18.5 -21s14.667 -11.834 20 -15.501
s13.166 -7.66699 23.499 -12s17.833 -7.16602 22.5 -8.49902s12.334 -3.33301 23.001 -6s16.667 -4.33398 18 -5.00098c63.333 -17.333 109.5 -42.166 138.5 -74.499s43.5 -74.833 43.5 -127.5c0 -36.667 -5.33301 -68.5 -16 -95.5s-25.834 -48 -45.501 -63
s-41.167 -26 -64.5 -33s-49.666 -10.5 -78.999 -10.5c-24.667 0 -48.5 3.83301 -71.5 11.5s-44.5 19.667 -64.5 36s-36.167 39.166 -48.5 68.499s-18.5 63.333 -18.5 102h63c0 -22 2.83301 -42 8.5 -60s13.167 -32.833 22.5 -44.5s20.166 -21.334 32.499 -29.001
s24.833 -13.167 37.5 -16.5s25.667 -5 39 -5c28.667 0 53.167 4.66699 73.5 14s36.5 24 48.5 44s18 45 18 75c0 22.667 -3.33301 42.167 -10 58.5s-17 30 -31 41s-28.833 20 -44.5 27s-35.167 13.833 -58.5 20.5c-14.667 4 -25.334 7.16699 -32.001 9.5
s-17.5 6.33301 -32.5 12s-26.667 11.334 -35 17.001s-18.333 13.5 -30 23.5s-20.667 20.5 -27 31.5s-11.833 24.667 -16.5 41s-7 33.833 -7 52.5c0 33.333 5.33301 62.666 16 87.999s25.334 44.833 44.001 58.5s38.834 23.834 60.501 30.501s44.834 10 69.501 10
c24 0 46.833 -3.83301 68.5 -11.5s42 -19.667 61 -36s34 -39.333 45 -69s16.5 -63.834 16.5 -102.501zM218 -149.997v65h65v-65l-26 -62h-23l11 62h-27z" />
    <glyph glyph-name="scommaaccent" unicode="&#x219;" horiz-adv-x="376" 
d="M91 149l-0.000976562 -8.99707c1.33301 -34 11.333 -58.667 30 -74s41 -23 67 -23c64.667 0 97 30.667 97 92c0 29.333 -8.33301 52.166 -25 68.499s-41.667 29.5 -75 39.5c-14 3.33301 -26.333 6.83301 -37 10.5s-22.667 9.16699 -36 16.5s-24.333 15.5 -33 24.5
s-15.834 20.833 -21.501 35.5s-8.5 30.667 -8.5 48c0 44.667 13.5 77.667 40.5 99s61.167 32 102.5 32c38 0 71.167 -12.333 99.5 -37s43.166 -60.667 44.499 -108v-10h-56v11c-2 32 -11.167 55.5 -27.5 70.5s-36.5 22.5 -60.5 22.5c-58 0 -87 -25.667 -87 -77
c0 -14 2.83301 -26.333 8.5 -37s14 -19.334 25 -26.001s20.167 -11.334 27.5 -14.001s17 -6 29 -10c2.66699 -0.666992 4.66699 -1.33398 6 -2.00098c50.667 -13.333 86.834 -32.833 108.501 -58.5s32.5 -57.834 32.5 -96.501c0 -33.333 -7.16699 -61.166 -21.5 -83.499
s-32.666 -38.166 -54.999 -47.499s-48.166 -14 -77.499 -14c-39.333 0 -74.333 12.333 -105 37s-46.667 61 -48 109v11h56zM155.999 -84.9971h65v-65l-26 -62h-23l11 62h-27v65z" />
    <glyph glyph-name="uni021A" unicode="&#x21a;" horiz-adv-x="452" 
d="M47 700h358v-63h-146v-637h-65v637h-147v63zM194 -85h65v-65l-26 -62h-23l11 62h-27v65z" />
    <glyph glyph-name="uni021B" unicode="&#x21b;" horiz-adv-x="313" 
d="M170 450l0.000976562 -260.001c0 -32.667 1.5 -58.834 4.5 -78.501s8.66699 -34.667 17 -45s17.666 -17 27.999 -20s24.833 -4.5 43.5 -4.5h13v-51h-26c-23.333 0 -42.5 2.16699 -57.5 6.5s-29 12.833 -42 25.5s-22.5 31.334 -28.5 56.001s-9 56.334 -9 95.001v276h-76
v50h76v153h57v-153h106v-50h-106zM136.001 -85.001h65v-65l-26 -62h-23l11 62h-27v65z" />
    <glyph glyph-name="circumflex" unicode="&#x2c6;" horiz-adv-x="383" 
d="M159 702h65l100 -136h-49l-84 90l-83 -90h-49z" />
    <glyph glyph-name="caron" unicode="&#x2c7;" horiz-adv-x="383" 
d="M275 702h49l-100 -136h-65l-100 136h49l83 -91z" />
    <glyph glyph-name="breve" unicode="&#x2d8;" horiz-adv-x="355" 
d="M105 700l-50.998 0.00195312c4.66699 -30 18.667 -54.833 42 -74.5s50.666 -29.5 81.999 -29.5c20 0 39 4.5 57 13.5s32.667 21.5 44 37.5s18.666 33.667 21.999 53h-51c-2 -8 -5.33301 -15.333 -10 -22s-10.167 -12.334 -16.5 -17.001s-13.5 -8.33398 -21.5 -11.001
s-16 -4 -24 -4c-11.333 0 -22 2.33301 -32 7s-18.5 11 -25.5 19s-12.167 17.333 -15.5 28z" />
    <glyph glyph-name="dotaccent" unicode="&#x2d9;" horiz-adv-x="165" 
d="M52 639v61h61v-61h-61z" />
    <glyph glyph-name="ring" unicode="&#x2da;" horiz-adv-x="309" 
d="M154 720c26.667 0 49.667 -9.50098 69 -28.501s29 -41.833 29 -68.5c0 -17.333 -4.33301 -33.666 -13 -48.999s-20.5 -27.333 -35.5 -36s-31.5 -13 -49.5 -13c-27.333 0 -50.333 9.5 -69 28.5s-28 42.167 -28 69.5c0 26.667 9.5 49.5 28.5 68.5s41.833 28.5 68.5 28.5z
M154 676.999c-7.33301 0 -14.332 -1.49902 -20.999 -4.49902s-12.334 -6.83301 -17.001 -11.5s-8.5 -10.334 -11.5 -17.001s-4.5 -13.667 -4.5 -21c0 -10 2.33301 -19.167 7 -27.5s11.167 -15 19.5 -20s17.5 -7.5 27.5 -7.5c15.333 0 28.333 5.33301 39 16s16 23.667 16 39
c0 10 -2.5 19 -7.5 27s-11.667 14.5 -20 19.5s-17.5 7.5 -27.5 7.5z" />
    <glyph glyph-name="ogonek" unicode="&#x2db;" horiz-adv-x="214" 
d="M115 0l45.9961 -0.00195312c-12.667 -9.33301 -22.667 -17.166 -30 -23.499s-14.5 -15.166 -21.5 -26.499s-10.5 -23 -10.5 -35c0.666992 -26 17.334 -39.333 50.001 -40h15v-44h-15c-63.333 0.666992 -96.333 24 -99 70c0 6.66699 0.666992 13 2 19
s2.83301 11.5 4.5 16.5s4.33398 10 8.00098 15s6.83398 9.16699 9.50098 12.5s6.33398 7.16602 11.001 11.499s8.16699 7.5 10.5 9.5s5.83301 4.83301 10.5 8.5s7.66699 5.83398 9 6.50098z" />
    <glyph glyph-name="tilde" unicode="&#x2dc;" horiz-adv-x="361" 
d="M272 702l45.002 0.00195312c0 -83.333 -23.333 -125 -70 -125c-7.33301 0 -14.5 1.16699 -21.5 3.5s-14.833 6.66602 -23.5 12.999s-19 15.5 -31 27.5s-21.5 19.667 -28.5 23s-14.833 4.66602 -23.5 3.99902c-6 0 -11 -1.5 -15 -4.5s-7.16699 -7.66699 -9.5 -14
s-3.83301 -13.5 -4.5 -21.5s-1 -18.333 -1 -31h-45c0 83.333 23 125 69 125c13.333 0 25.166 -3.33301 35.499 -10s24.5 -18 42.5 -34c17.333 -19.333 34.666 -28.333 51.999 -27c11.333 0.666992 19 6.5 23 17.5s6 28.833 6 53.5z" />
    <glyph glyph-name="hungarumlaut" unicode="&#x2dd;" horiz-adv-x="364" 
d="M114 706h71l-85 -130h-45zM230 706h72l-86 -130h-44z" />
    <glyph glyph-name="commaaccentcomb" unicode="&#x326;" horiz-adv-x="0" 
d="M52 -88h61v-60l-24 -59h-22l11 59h-26v60z" />
    <glyph glyph-name="Delta" unicode="&#x394;" horiz-adv-x="494" 
d="M454 69v-69h-414v69l167 631h80zM101 65h292l-145 556z" />
    <glyph glyph-name="Omega" unicode="&#x3a9;" horiz-adv-x="511" 
d="M52 255v211.999c0 44 5.83301 82.333 17.5 115s27.5 57.834 47.5 75.501s41.5 30.667 64.5 39s47.833 12.5 74.5 12.5c26 0 50.5 -4 73.5 -12s44.667 -20.833 65 -38.5s36.333 -42.834 48 -75.501s17.5 -71.334 17.5 -116.001v-212c0 -47.333 -7 -86.666 -21 -117.999
s-33 -55.666 -57 -72.999h87v-64h-165v64c60 28.667 90 95 90 199v195c0 67.333 -13 115.5 -39 144.5s-59 43.5 -99 43.5c-40.667 0 -73.667 -14.5 -99 -43.5s-38 -77.167 -38 -144.5v-195c0 -104.667 29.333 -170.667 88 -198v-65h-165v64h89
c-52.667 37.333 -79 101 -79 191z" />
    <glyph glyph-name="mu" unicode="&#x3bc;" horiz-adv-x="490" 
d="M298 501h56.002v-323c1.33301 -49.333 11.333 -84.333 30 -105s42.667 -31 72 -31v-51h-11c-15.333 0.666992 -29.833 3.66699 -43.5 9s-26.834 14 -39.501 26s-22.334 27 -29.001 45c-20 -52.667 -59.333 -79 -118 -79c-52 0 -88.667 22.667 -110 68v-223h-56v664h56
v-318c0 -93.333 32 -140 96 -140c64.667 0 97 50.667 97 152v306z" />
    <glyph glyph-name="pi" unicode="&#x3c0;" horiz-adv-x="562" 
d="M35 500l491.999 -0.000976562v-53h-102v-269c1.33301 -49.333 11.333 -84.166 30 -104.499s42.667 -30.833 72 -31.5v-51h-20c-17.333 0.666992 -33.666 4.16699 -48.999 10.5s-29.833 15.833 -43.5 28.5s-24.667 30.5 -33 53.5s-12.5 50.167 -12.5 81.5v282h-176v-447
h-57v447h-101v53z" />
    <glyph glyph-name="afii10017" unicode="&#x410;" horiz-adv-x="535" 
d="M423 0l-57 213h-196l-57 -213h-66l180 700h81l180 -700h-65zM179 279h177l-88 341z" />
    <glyph glyph-name="afii10018" unicode="&#x411;" horiz-adv-x="476" 
d="M63 706h329.001v-63h-264v-251h104c45.333 -0.666992 84 -8.66699 116 -24s56.167 -37.333 72.5 -66s24.5 -63 24.5 -103v-15c-0.666992 -60 -19.334 -106.5 -56.001 -139.5s-90 -49.833 -160 -50.5h-166v712zM235.001 325l-107.001 -0.000976562v-265h107
c45.333 0 80.833 10.667 106.5 32s38.834 53.333 39.501 96v8c0 42.667 -13.167 74.834 -39.5 96.501s-61.833 32.5 -106.5 32.5z" />
    <glyph glyph-name="afii10019" unicode="&#x412;" horiz-adv-x="476" 
d="M63 706l171.001 -0.00195312c25.333 0 49.5 -3 72.5 -9s44.167 -15.333 63.5 -28s34.833 -30.167 46.5 -52.5s17.5 -48.166 17.5 -77.499v-27c0 -38 -9.5 -69.5 -28.5 -94.5s-44.5 -43.5 -76.5 -55.5c36.667 -12 65.167 -31.833 85.5 -59.5s30.5 -62.167 30.5 -103.5v-25
c0 -57.333 -18.833 -101.666 -56.5 -132.999s-88.834 -47 -153.501 -47h-172v712zM370.001 512.998l0.000976562 6.99902c0 23.333 -3.83301 43.333 -11.5 60s-18.334 29.334 -32.001 38.001s-28.167 15 -43.5 19s-32 6 -50 6h-105v-252h105c38 0 70.333 9.66699 97 29
s40 50.333 40 93zM378.002 189.997v7c0 44.667 -13 78 -39 100s-61.333 33 -106 33h-105v-273h105c45.333 0 80.833 11 106.5 33s38.5 55.333 38.5 100z" />
    <glyph glyph-name="afii10020" unicode="&#x413;" horiz-adv-x="440" 
d="M392 700v-63h-264v-637h-65v700h329z" />
    <glyph glyph-name="afii10021" unicode="&#x414;" horiz-adv-x="622" 
d="M534 63h57v-183h-65v120h-429v-120h-65v183h39c30.667 8.66699 55.167 27.667 73.5 57s27.5 71 27.5 125v455h362v-637zM168 63l301 0.000976562v574h-232v-401c0 -80.667 -23 -138.334 -69 -173.001z" />
    <glyph glyph-name="afii10022" unicode="&#x415;" horiz-adv-x="398" 
d="M366 637h-238v-246h228v-63h-228v-265h238v-63h-303v700h303v-63z" />
    <glyph glyph-name="afii10024" unicode="&#x416;" horiz-adv-x="811" 
d="M764 0h-73l-252 308v-308h-67v307l-251 -307h-74l274 358l-255 342h74l232 -290v290h67v-290l233 290h73l-254 -342z" />
    <glyph glyph-name="afii10025" unicode="&#x417;" horiz-adv-x="482" 
d="M235 709l21.002 0.00292969c20.667 -0.666992 41.167 -4.33398 61.5 -11.001s40.166 -16.667 59.499 -30s35 -32.333 47 -57s18.333 -52.667 19 -84v-18c0 -38.667 -9.5 -70.834 -28.5 -96.501s-43.5 -43.5 -73.5 -53.5c22 -6 41.167 -16.167 57.5 -30.5
s29 -32.5 38 -54.5s13.5 -46.667 13.5 -74v-15c0 -26 -3.66699 -49.667 -11 -71s-17.166 -39.333 -29.499 -54s-26.833 -27.167 -43.5 -37.5s-34.334 -18 -53.001 -23s-38 -7.5 -58 -7.5h-20c-22.667 0.666992 -44.667 4.66699 -66 12s-41.833 18.333 -61.5 33
s-36.167 35 -49.5 61s-22 56.333 -26 91v6h65c6 -47.333 22.833 -82.5 50.5 -105.5s59.167 -34.5 94.5 -34.5h11c36 0.666992 66.833 12.667 92.5 36s38.5 55.666 38.5 96.999v6c0 44 -13 77.333 -39 100s-61.667 34 -107 34h-62v62h62c39.333 0 72.166 10.167 98.499 30.5
s39.5 51.833 39.5 94.5v7c0 21.333 -4 40.5 -12 57.5s-18.5 30 -31.5 39s-26.333 15.833 -40 20.5s-26.834 7 -39.501 7h-11c-34 0 -64.5 -10.833 -91.5 -32.5s-44.167 -54.834 -51.5 -99.501h-66l1 8c4.66699 32.667 13.834 61.334 27.501 86.001s30 44 49 58
s39 24.5 60 31.5s42.5 10.833 64.5 11.5z" />
    <glyph glyph-name="afii10026" unicode="&#x418;" horiz-adv-x="513" 
d="M386 700h65v-700h-66v564l-258 -564h-65v700h66v-563z" />
    <glyph glyph-name="afii10027" unicode="&#x419;" horiz-adv-x="513" 
d="M333 856h49.999c-4.66699 -30 -18.667 -55 -42 -75s-50.5 -30 -81.5 -30s-58.167 10 -81.5 30s-37.333 45 -42 75h51c4.66699 -16 13.667 -29.167 27 -39.5s28.666 -15.5 45.999 -15.5c16.667 0 31.834 5.16699 45.501 15.5s22.834 23.5 27.501 39.5zM385.999 700h65
v-700h-66v564l-258 -564h-65v700h66v-563z" />
    <glyph glyph-name="afii10028" unicode="&#x41a;" horiz-adv-x="502" 
d="M455 0h-73l-252 308v-308h-67v700h67v-290l232 290h74l-255 -342z" />
    <glyph glyph-name="afii10029" unicode="&#x41b;" horiz-adv-x="597" 
d="M172 700l362 0.000976562v-700h-65v637h-232v-403c0 -43.333 -5.5 -81 -16.5 -113s-25.833 -57 -44.5 -75s-38.667 -31.333 -60 -40s-44.333 -13.334 -69 -14.001h-15v63c40 0 73.333 14.667 100 44s40 77.333 40 144v457z" />
    <glyph glyph-name="afii10030" unicode="&#x41c;" horiz-adv-x="623" 
d="M483 700h77v-700h-65v539l-161 -539h-45l-161 539v-539h-66v700h78l171 -592z" />
    <glyph glyph-name="afii10031" unicode="&#x41d;" horiz-adv-x="499" 
d="M371 700h65v-700h-65v328h-243v-328h-65v700h65v-309h243v309z" />
    <glyph glyph-name="afii10032" unicode="&#x41e;" horiz-adv-x="526" 
d="M59 234v233.002c0 44 5.83301 82.333 17.5 115s27.334 57.834 47.001 75.501s41 30.667 64 39s47.833 12.5 74.5 12.5s51.334 -4 74.001 -12s44.167 -20.833 64.5 -38.5s36.5 -42.834 48.5 -75.501s18 -71.334 18 -116.001v-233c0 -44.667 -6 -83.334 -18 -116.001
s-28.167 -57.834 -48.5 -75.501s-41.833 -30.5 -64.5 -38.5s-47.334 -12 -74.001 -12s-51.5 4.16699 -74.5 12.5s-44.333 21.333 -64 39s-35.334 42.834 -47.001 75.501s-17.5 71 -17.5 115zM400 243.002l-0.000976562 215.001c0 35.333 -3.83301 65.5 -11.5 90.5
s-18.167 44.333 -31.5 58s-27.666 23.667 -42.999 30s-32.666 9.5 -51.999 9.5c-14.667 0 -28.5 -1.83301 -41.5 -5.5s-25.5 -10 -37.5 -19s-22.167 -20.5 -30.5 -34.5s-14.833 -31.833 -19.5 -53.5s-7 -46.834 -7 -75.501v-215c0 -35.333 3.5 -65.5 10.5 -90.5
s17.167 -44.333 30.5 -58s27.666 -23.667 42.999 -30s32.666 -9.5 51.999 -9.5c40.667 0 73.834 14.5 99.501 43.5s38.5 77.167 38.5 144.5z" />
    <glyph glyph-name="afii10033" unicode="&#x41f;" horiz-adv-x="499" 
d="M63 700h373v-700h-66v637h-242v-637h-65v700z" />
    <glyph glyph-name="afii10034" unicode="&#x420;" horiz-adv-x="487" 
d="M63 700l154.998 0.000976562c26.667 0 51.834 -3.16699 75.501 -9.5s45.834 -16.166 66.501 -29.499s37.167 -32.166 49.5 -56.499s18.5 -52.833 18.5 -85.5v-37c0 -31.333 -5.83301 -58.833 -17.5 -82.5s-27.5 -42.334 -47.5 -56.001s-41.667 -23.834 -65 -30.501
s-48 -10.334 -74 -11.001h-96v-302h-65v700zM363.998 492.001v17.002c0 24.667 -3.83301 45.667 -11.5 63s-18.5 30.5 -32.5 39.5s-28.667 15.5 -44 19.5s-32 6 -50 6h-98v-272h98c18 0 34.667 2 50 6s30 10.667 44 20s24.833 22.666 32.5 39.999s11.5 37.666 11.5 60.999z
" />
    <glyph glyph-name="afii10035" unicode="&#x421;" horiz-adv-x="497" 
d="M62 234l0.00390625 233.002c0 44.667 5.83301 83.167 17.5 115.5s27.5 57.333 47.5 75s41.5 30.667 64.5 39s47.833 12.5 74.5 12.5c25.333 0 49 -3.83301 71 -11.5s42.667 -19.834 62 -36.501s34.833 -40.334 46.5 -71.001s18.167 -67 19.5 -109v-14h-65l-1 14
c-1.33301 30 -5.83301 56 -13.5 78s-17.834 39.167 -30.501 51.5s-26.334 21.333 -41.001 27s-30.667 8.5 -48 8.5c-40.667 0 -73.667 -14.5 -99 -43.5s-38 -77.167 -38 -144.5v-215c0 -34.667 3.66699 -64.667 11 -90s17.5 -44.833 30.5 -58.5s27.333 -23.667 43 -30
s33.167 -9.5 52.5 -9.5c37.333 0 68.166 13 92.499 39s38.166 69 41.499 129v11h65v-13c-1.33301 -42 -7.83301 -78.5 -19.5 -109.5s-27.167 -54.833 -46.5 -71.5s-40 -28.834 -62 -36.501s-45.667 -11.5 -71 -11.5c-26.667 0 -51.5 4.16699 -74.5 12.5
s-44.5 21.333 -64.5 39s-35.833 42.834 -47.5 75.501s-17.5 71 -17.5 115z" />
    <glyph glyph-name="afii10036" unicode="&#x422;" horiz-adv-x="452" 
d="M405 700v-63h-146v-637h-65v637h-147v63h358z" />
    <glyph glyph-name="afii10037" unicode="&#x423;" horiz-adv-x="519" 
d="M402 700h70l-178 -417v-283h-67v283l-180 417h70l142 -341z" />
    <glyph glyph-name="afii10038" unicode="&#x424;" horiz-adv-x="739" 
d="M402 706v-78h74c60.667 -1.33301 110 -17.5 148 -48.5s57 -77.167 57 -138.5v-16c0 -60.667 -19 -106.667 -57 -138s-87.333 -47.333 -148 -48h-74v-239h-65v239h-74c-60.667 1.33301 -109.834 17.5 -147.501 48.5s-56.5 76.833 -56.5 137.5v16
c0 61.333 18.833 107.5 56.5 138.5s86.834 47.167 147.501 48.5h74v78h65zM617 429l-0.000976562 7.99902c0 24 -3.83301 44.333 -11.5 61s-18.5 29.5 -32.5 38.5s-28.667 15.5 -44 19.5s-32.333 6 -51 6h-76v-257h76c14.667 0 28.334 1.16699 41.001 3.5
s25.167 6.5 37.5 12.5s22.833 13.5 31.5 22.5s15.667 20.833 21 35.5s8 31.334 8 50.001zM336.999 304.999l0.00292969 257h-75c-18.667 0 -35.834 -2 -51.501 -6s-30.334 -10.5 -44.001 -19.5s-24.334 -21.833 -32.001 -38.5s-11.5 -37 -11.5 -61v-8
c0 -44.667 13.167 -76.5 39.5 -95.5s59.5 -28.5 99.5 -28.5h75z" />
    <glyph glyph-name="afii10039" unicode="&#x425;" horiz-adv-x="508" 
d="M458 700l-163 -346l166 -354h-69l-138 289l-138 -289h-69l165 353l-162 347h69l135 -285l136 285h68z" />
    <glyph glyph-name="afii10040" unicode="&#x426;" horiz-adv-x="532" 
d="M436 65h64v-171h-66v106h-371v700h65v-637h243v637h65v-635z" />
    <glyph glyph-name="afii10041" unicode="&#x427;" horiz-adv-x="455" 
d="M341 700h65.9971v-700h-65v328c-22.667 -46.667 -67.667 -70 -135 -70c-52.667 0 -94.667 13.5 -126 40.5s-47 72.167 -47 135.5v266h65v-224c0 -56.667 10.667 -96 32 -118s51 -33 89 -33c18.667 0 34.834 2 48.501 6s26.334 11.167 38.001 21.5s20.334 25 26.001 44
s8.5 42.5 8.5 70.5v233z" />
    <glyph glyph-name="afii10042" unicode="&#x428;" horiz-adv-x="806" 
d="M678 700h65v-700h-680v700h65v-637h243v637h65v-637h242v637z" />
    <glyph glyph-name="afii10043" unicode="&#x429;" horiz-adv-x="839" 
d="M743 65h65v-171h-66v106h-679v700h65v-637h243v637h65v-637h242v637h65v-635z" />
    <glyph glyph-name="afii10044" unicode="&#x42a;" horiz-adv-x="571" 
d="M198 392l103.001 -0.000976562c68.667 -1.33301 121 -18.666 157 -51.999s54.333 -80 55 -140v-13c0 -61.333 -18.833 -108.833 -56.5 -142.5s-91.834 -50.5 -162.501 -50.5h-161v648h-87v64h152v-314zM449.001 189.999l-0.000976562 5.99902
c0 28.667 -6.33301 52.834 -19 72.501s-29.667 34.167 -51 43.5s-46.666 14 -75.999 14h-105v-266h105c46 0 81.833 10.833 107.5 32.5s38.5 54.167 38.5 97.5z" />
    <glyph glyph-name="afii10045" unicode="&#x42b;" horiz-adv-x="663" 
d="M128 706v-314h103c45.333 -1.33301 83.833 -9.5 115.5 -24.5s55.5 -36.667 71.5 -65s24.333 -62.5 25 -102.5v-13c0 -61.333 -18.833 -108.833 -56.5 -142.5s-92.167 -50.5 -163.5 -50.5h-160v712h65zM532 700h68v-700h-68v700zM128 61l103.998 -1
c46.667 0 82.834 10.833 108.501 32.5s38.5 54.167 38.5 97.5v6c0 42.667 -13.167 75 -39.5 97s-62.166 33 -107.499 33h-104v-265z" />
    <glyph glyph-name="afii10046" unicode="&#x42c;" horiz-adv-x="501" 
d="M128 706v-314h103c45.333 -1.33301 83.833 -9.5 115.5 -24.5s55.5 -36.667 71.5 -65s24.333 -62.5 25 -102.5v-13c0 -61.333 -18.833 -108.833 -56.5 -142.5s-92.167 -50.5 -163.5 -50.5h-160v712h65zM128 61l103.998 -1c46.667 0 82.834 10.833 108.501 32.5
s38.5 54.167 38.5 97.5v6c0 42.667 -13.167 75 -39.5 97s-62.166 33 -107.499 33h-104v-265z" />
    <glyph glyph-name="afii10047" unicode="&#x42d;" horiz-adv-x="497" 
d="M32 473v5.00195c0.666992 42.667 6.83398 79.5 18.501 110.5s27.167 55 46.5 72s40.166 29.333 62.499 37s46.166 11.5 71.499 11.5c26.667 0 51.5 -4.16699 74.5 -12.5s44.5 -21.333 64.5 -39s35.667 -42.834 47 -75.501s17 -71 17 -115v-233
c0 -44 -5.66699 -82.333 -17 -115s-27 -57.834 -47 -75.501s-41.5 -30.667 -64.5 -39s-47.833 -12.5 -74.5 -12.5c-25.333 0 -49.166 3.83301 -71.499 11.5s-43.166 20 -62.499 37s-34.833 41 -46.5 72s-17.834 67.833 -18.501 110.5v6h65c2 -62 15.333 -106.5 40 -133.5
s56 -40.5 94 -40.5c40.667 0 73.667 14.5 99 43.5s38 77.167 38 144.5v77h-204v64h204v74c0 67.333 -12.667 115.5 -38 144.5s-58.333 43.5 -99 43.5c-38 0 -69.333 -13.5 -94 -40.5s-38 -71.167 -40 -132.5h-65z" />
    <glyph glyph-name="afii10048" unicode="&#x42e;" horiz-adv-x="702" 
d="M235 384l-0.00195312 83.002c0 26 2 49.833 6 71.5s9.5 40.667 16.5 57s15.667 31 26 44s21.333 23.833 33 32.5s24.334 15.834 38.001 21.501s27.334 9.66699 41.001 12s27.834 3.5 42.501 3.5c26.667 0 51.334 -4 74.001 -12s44.167 -20.833 64.5 -38.5
s36.5 -42.834 48.5 -75.501s18 -71.334 18 -116.001v-233c0 -44.667 -6 -83.334 -18 -116.001s-28.167 -57.834 -48.5 -75.501s-41.833 -30.5 -64.5 -38.5s-47.334 -12 -74.001 -12s-51.334 4.16699 -74.001 12.5s-44 21.333 -64 39s-35.833 42.834 -47.5 75.501
s-17.5 71 -17.5 115v86h-107v-320h-65v700h65v-316h107zM575.998 243.002v215c0 67.333 -12.833 115.5 -38.5 144.5s-58.834 43.5 -99.501 43.5c-18.667 0 -35.834 -3.16699 -51.501 -9.5s-30.167 -16.333 -43.5 -30s-23.5 -33 -30.5 -58s-10.5 -55.167 -10.5 -90.5v-215
c0 -35.333 3.5 -65.5 10.5 -90.5s17.167 -44.333 30.5 -58s27.833 -23.667 43.5 -30s32.834 -9.5 51.501 -9.5c40.667 0 73.834 14.5 99.501 43.5s38.5 77.167 38.5 144.5z" />
    <glyph glyph-name="afii10049" unicode="&#x42f;" horiz-adv-x="490" 
d="M265 706l162.001 0.000976562v-706h-65v316h-116l-128 -316h-71l138 334c-24.667 6 -46.334 15.333 -65.001 28s-34.334 30.5 -47.001 53.5s-19 49.833 -19 80.5v30c0 32.667 6.16699 61.167 18.5 85.5s29 43.166 50 56.499s43.333 23 67 29s48.834 9 75.501 9z
M362.001 378.001v266h-106c-18 0 -34.667 -2 -50 -6s-29.833 -10.5 -43.5 -19.5s-24.5 -22.333 -32.5 -40s-12 -38.5 -12 -62.5v-10c0 -24 4 -44.667 12 -62s18.833 -30.5 32.5 -39.5s28.167 -15.667 43.5 -20s32 -6.5 50 -6.5h106z" />
    <glyph glyph-name="afii10065" unicode="&#x430;" horiz-adv-x="393" 
d="M304 500h42v-500h-42l-6 65c-22.667 -48.667 -61.667 -73 -117 -73c-14 0 -27.5 1.66699 -40.5 5s-25.667 9.33301 -38 18s-23 19.5 -32 32.5s-16.167 29.833 -21.5 50.5s-8 44 -8 70v165c0 32 4 60 12 84s19 42.333 33 55s28.833 22 44.5 28s32.5 9 50.5 9
c55.333 0 94.333 -23.667 117 -71zM97 306v-111c0 -101.333 32.333 -152 97 -152c30 0 53.5 11.333 70.5 34s25.5 62 25.5 118v111c0 101.333 -32 152 -96 152c-64.667 0 -97 -50.667 -97 -152z" />
    <glyph glyph-name="afii10066" unicode="&#x431;" horiz-adv-x="393" 
d="M47 168v369.001c0.666992 31.333 5.33398 58.5 14.001 81.5s20.5 40.833 35.5 53.5s31 22 48 28s35.167 9 54.5 9c22 0 42.167 -3.5 60.5 -10.5s35.333 -19.5 51 -37.5s26.5 -41 32.5 -69l2 -9h-57c-13.333 50 -43 75 -89 75c-63.333 0 -95.333 -44.667 -96 -134v-79
c11.333 20 26.166 35.5 44.499 46.5s38.5 16.5 60.5 16.5c18 0 35.167 -3 51.5 -9s31.666 -15.333 45.999 -28s25.666 -30.834 33.999 -54.501s12.5 -51.5 12.5 -83.5v-165c0 -32 -4.33301 -60 -13 -84s-20.667 -42.333 -36 -55s-31.5 -22 -48.5 -28s-35.5 -9 -55.5 -9
c-41.333 0 -76.666 14.167 -105.999 42.5s-44.666 72.833 -45.999 133.5zM296 195.001l-0.00195312 111c0 101.333 -32.333 152 -97 152c-18 0 -34 -4.5 -48 -13.5s-25.5 -25.167 -34.5 -48.5s-13.5 -53.333 -13.5 -90v-111c0.666992 -56 9.33398 -95.333 26.001 -118
s40.334 -34 71.001 -34c64.667 0 96.667 50.667 96 152z" />
    <glyph glyph-name="afii10067" unicode="&#x432;" horiz-adv-x="383" 
d="M49 506l115 -0.00195312c62.667 0 107 -12.167 133 -36.5s39 -59.166 39 -104.499c0 -54 -21.667 -89.667 -65 -107c51.333 -18.667 77 -58.667 77 -120c0 -47.333 -14 -83.166 -42 -107.499s-74.667 -36.5 -140 -36.5h-117v512zM105 280.998l53 -0.000976562
c32 0 57 3 75 9s30.333 14.833 37 26.5s10 27.5 10 47.5c0 32 -8.5 54.833 -25.5 68.5s-49.167 20.834 -96.5 21.501h-53v-173zM105 45.9971l53.001 0.000976562c50.667 0 85.667 6.66699 105 20s29 37 29 71c0 17.333 -2.16699 31.666 -6.5 42.999
s-11.833 20.833 -22.5 28.5s-24.334 13 -41.001 16s-38 4.83301 -64 5.5h-53v-184z" />
    <glyph glyph-name="afii10068" unicode="&#x433;" horiz-adv-x="354" 
d="M318 500v-51h-213v-449h-56v500h269z" />
    <glyph glyph-name="afii10069" unicode="&#x434;" horiz-adv-x="502" 
d="M129 500l289 0.000976562v-449h49v-155h-56v104h-320v-104h-56v155h28c43.333 13.333 65.333 56.666 66 129.999v319zM362 51.001v398h-176v-282c-0.666992 -52 -15 -90.667 -43 -116h219z" />
    <glyph glyph-name="afii10070" unicode="&#x435;" horiz-adv-x="385" 
d="M41 168l0.000976562 165.001c0 32 4.33301 59.833 13 83.5s20.5 42 35.5 55s31.167 22.5 48.5 28.5s35.666 9 54.999 9s37.5 -3 54.5 -9s33.167 -15.333 48.5 -28s27.333 -31 36 -55s13 -52 13 -84v-108h-248v-44c0 -50.667 8.66699 -86.334 26 -107.001
s40.666 -31 69.999 -31c61.333 0 93.333 39.667 96 119h56c0 -31.333 -4.5 -58.5 -13.5 -81.5s-21 -40.667 -36 -53s-31 -21.333 -48 -27s-35.167 -8.5 -54.5 -8.5s-37.666 3 -54.999 9s-33.5 15.5 -48.5 28.5s-26.833 31.333 -35.5 55s-13 51.5 -13 83.5zM289.001 269.001
v55c0 89.333 -32 134 -96 134s-96 -44.667 -96 -134v-55h192z" />
    <glyph glyph-name="afii10072" unicode="&#x436;" horiz-adv-x="595" 
d="M555 0h-61l-169 226v-226h-56v226l-170 -226h-60l181 256l-172 244h61l160 -214v214h56v-214l160 214h60l-171 -244z" />
    <glyph glyph-name="afii10073" unicode="&#x437;" horiz-adv-x="401" 
d="M189 509l21.002 -0.000976562c46 0 81.667 -12.667 107 -38s38 -59 38 -101c0 -61.333 -28.333 -99.333 -85 -114c64 -14 96 -56.333 96 -127c0 -42.667 -14.833 -76.167 -44.5 -100.5s-66.834 -36.5 -111.501 -36.5h-21c-16.667 0.666992 -32.834 3.66699 -48.501 9
s-31.167 13 -46.5 23s-27.5 24.333 -36.5 43s-13.5 40 -13.5 64h55c0 -16.667 3.33301 -31 10 -43s15.334 -21.167 26.001 -27.5s21.167 -10.833 31.5 -13.5s20.833 -4 31.5 -4h4c34.667 0 61.5 8.16699 80.5 24.5s28.5 39.5 28.5 69.5c0 61.333 -39 92 -117 92h-48v51h46
c38.667 0 66.667 7.16699 84 21.5s26 35.5 26 63.5c0 28.667 -8.5 51.334 -25.5 68.001s-41.833 25 -74.5 25h-3c-10.667 0 -21.334 -1.33301 -32.001 -4s-21.167 -7.16699 -31.5 -13.5s-18.833 -15.5 -25.5 -27.5s-10 -26.333 -10 -43h-56c0 19.333 3 37 9 53
s14 29.167 24 39.5s21.5 19 34.5 26s25.833 12 38.5 15s25.667 4.83301 39 5.5z" />
    <glyph glyph-name="afii10074" unicode="&#x438;" horiz-adv-x="403" 
d="M299 500h56v-500h-56v385l-194 -385h-56v500h56v-384z" />
    <glyph glyph-name="afii10075" unicode="&#x439;" horiz-adv-x="403" 
d="M273 700h51c-4.66699 -30 -18.667 -54.833 -42 -74.5s-50.5 -29.5 -81.5 -29.5s-58.167 9.83301 -81.5 29.5s-37.333 44.5 -42 74.5h51c2 -8 5.33301 -15.333 10 -22s10.167 -12.334 16.5 -17.001s13.5 -8.33398 21.5 -11.001s16 -4 24 -4c8.66699 0 17 1.33301 25 4
s15.167 6.33398 21.5 11.001s11.833 10.334 16.5 17.001s8 14 10 22zM299 500h56v-500h-56v385l-194 -385h-56v500h56v-385z" />
    <glyph glyph-name="afii10076" unicode="&#x43a;" horiz-adv-x="371" 
d="M335 0h-61l-169 226v-226h-56v500h56v-214l160 214h61l-172 -244z" />
    <glyph glyph-name="afii10077" unicode="&#x43b;" horiz-adv-x="474" 
d="M136 500l289 0.00292969v-500h-56v449h-176v-284c0 -25.333 -2.83301 -48 -8.5 -68s-13 -36.333 -22 -49s-19.5 -23.334 -31.5 -32.001s-24.333 -14.834 -37 -18.501s-25.667 -5.83398 -39 -6.50098h-20v51c66 0.666992 99.667 46 101 136v322z" />
    <glyph glyph-name="afii10078" unicode="&#x43c;" horiz-adv-x="456" 
d="M348 500h59v-500h-52v366l-112 -366h-31l-111 366v-366h-52v500h59l120 -407z" />
    <glyph glyph-name="afii10079" unicode="&#x43d;" horiz-adv-x="400" 
d="M296 500h56v-500h-56v232h-191v-232h-56v500h56v-216h191v216z" />
    <glyph glyph-name="afii10080" unicode="&#x43e;" horiz-adv-x="387" 
d="M41 168v165c0 32 4.33301 59.833 13 83.5s20.5 42 35.5 55s31.167 22.5 48.5 28.5s35.666 9 54.999 9s37.666 -3 54.999 -9s33.666 -15.333 48.999 -28s27.333 -31 36 -55s13 -52 13 -84v-165c0 -32 -4.33301 -60 -13 -84s-20.667 -42.333 -36 -55
s-31.666 -22 -48.999 -28s-35.666 -9 -54.999 -9s-37.666 3 -54.999 9s-33.5 15.5 -48.5 28.5s-26.833 31.333 -35.5 55s-13 51.5 -13 83.5zM290 195l-0.000976562 111c0 101.333 -32.333 152 -97 152c-29.333 0 -52.666 -11.333 -69.999 -34s-26 -62 -26 -118v-111
c0 -56 8.5 -95.333 25.5 -118s40.5 -34 70.5 -34c64.667 0 97 50.667 97 152z" />
    <glyph glyph-name="afii10081" unicode="&#x43f;" horiz-adv-x="400" 
d="M49 500h303v-500h-56v449h-191v-449h-56v500z" />
    <glyph glyph-name="afii10082" unicode="&#x440;" 
d="M90 500l6 -65.998c22.667 49.333 62 74 118 74c18 0 34.833 -3 50.5 -9s30.334 -15.333 44.001 -28s24.5 -30.834 32.5 -54.501s12 -51.834 12 -84.501v-165c0 -32 -4 -59.833 -12 -83.5s-18.833 -42 -32.5 -55s-28.334 -22.5 -44.001 -28.5s-32.5 -9 -50.5 -9
c-52 0 -88.667 22 -110 66v-220h-56v663h42zM297 194.002v111c-0.666992 101.333 -33 152 -97 152c-30 0 -53.5 -11.333 -70.5 -34s-25.5 -62 -25.5 -118v-111c0 -101.333 32 -152 96 -152c64.667 0 97 50.667 97 152z" />
    <glyph glyph-name="afii10083" unicode="&#x441;" horiz-adv-x="384" 
d="M41 168v165c0 32 4.33301 59.833 13 83.5s20.5 42 35.5 55s31.167 22.5 48.5 28.5s35.666 9 54.999 9s37.333 -2.83301 54 -8.5s32.5 -14.667 47.5 -27s27 -29.833 36 -52.5s13.833 -49.667 14.5 -81v-16h-55c-2 89.333 -34.333 134 -97 134
c-29.333 0 -52.666 -11.333 -69.999 -34s-26 -62 -26 -118v-111c0 -56 8.5 -95.333 25.5 -118s40.5 -34 70.5 -34c63.333 0 95.666 44.667 96.999 134h55v-16c-0.666992 -31.333 -5.5 -58.333 -14.5 -81s-21 -40.167 -36 -52.5s-30.833 -21.333 -47.5 -27
s-34.667 -8.5 -54 -8.5s-37.666 3 -54.999 9s-33.5 15.5 -48.5 28.5s-26.833 31.333 -35.5 55s-13 51.5 -13 83.5z" />
    <glyph glyph-name="afii10084" unicode="&#x442;" horiz-adv-x="393" 
d="M37 500h319v-51h-132v-449h-56v449h-131v51z" />
    <glyph glyph-name="afii10085" unicode="&#x443;" horiz-adv-x="378" 
d="M286 500h56.0029v-508c-1.33301 -30 -6.5 -56 -15.5 -78s-21 -39 -36 -51s-30.833 -20.833 -47.5 -26.5s-34.334 -8.5 -53.001 -8.5c-34 0 -64.5 9 -91.5 27s-45.167 46.667 -54.5 86h59c13.333 -41.333 42 -62 86 -62c64.667 0 97 44 97 132v57
c-22 -45.333 -59 -68 -111 -68c-18 0 -34.833 3 -50.5 9s-30.334 15.333 -44.001 28s-24.334 31 -32.001 55s-11.5 52 -11.5 84v324h56v-297c0 -101.333 32 -152 96 -152s96.333 50.667 97 152v297z" />
    <glyph glyph-name="afii10086" unicode="&#x444;" horiz-adv-x="636" 
d="M290 700l56.0029 0.00292969v-260c21.333 45.333 58.333 68 111 68c18 0 34.833 -3 50.5 -9s30.334 -15.333 44.001 -28s24.334 -30.834 32.001 -54.501s11.5 -51.834 11.5 -84.501v-165c0 -32 -3.83301 -59.833 -11.5 -83.5s-18.334 -42 -32.001 -55
s-28.334 -22.5 -44.001 -28.5s-32.5 -9 -50.5 -9c-52 0 -89 22 -111 66v-220h-56v220c-22 -44 -58.667 -66 -110 -66c-14.667 0 -28.334 1.83301 -41.001 5.5s-25.167 9.66699 -37.5 18s-22.833 19.166 -31.5 32.499s-15.667 30.166 -21 50.499s-8 43.5 -8 69.5v165
c0 16.667 1 32.167 3 46.5s5 27 9 38s8.66699 21.167 14 30.5s11.333 17.333 18 24s13.667 12.334 21 17.001s15.166 8.5 23.499 11.5s16.666 5.16699 24.999 6.5s16.833 2 25.5 2c52 0 88.667 -22.333 110 -67v259zM290.003 194.003v111c0 56 -8.5 95.333 -25.5 118
s-40.5 34 -70.5 34c-64.667 0 -97 -50.667 -97 -152v-111c0 -101.333 32.333 -152 97 -152c64 0 96 50.667 96 152zM539.003 194.003v111c0 101.333 -32.333 152 -97 152c-30 0 -53.5 -11.333 -70.5 -34s-25.5 -62 -25.5 -118v-111c0 -101.333 32 -152 96 -152
c64.667 0 97 50.667 97 152z" />
    <glyph glyph-name="afii10087" unicode="&#x445;" horiz-adv-x="399" 
d="M361 500l-120 -247l122 -253h-59l-104 204l-105 -204h-58l122 252l-120 248h58l103 -212l102 212h59z" />
    <glyph glyph-name="afii10088" unicode="&#x446;" horiz-adv-x="439" 
d="M352 51h52v-140h-57v89h-298v500h56v-449h191v449h56v-449z" />
    <glyph glyph-name="afii10089" unicode="&#x447;" horiz-adv-x="398" 
d="M294 500l56.002 -0.000976562v-500h-56v220c-21.333 -45.333 -58.333 -68 -111 -68c-18 0 -34.833 2.83301 -50.5 8.5s-30.334 15 -44.001 28s-24.334 31.333 -32.001 55s-11.5 51.834 -11.5 84.501v172h56v-145c0 -101.333 32.333 -152 97 -152c64 0 96 46.667 96 140
v157z" />
    <glyph glyph-name="afii10090" unicode="&#x448;" horiz-adv-x="647" 
d="M543 500h56v-500h-550v500h56v-449h191v449h56v-449h191v449z" />
    <glyph glyph-name="afii10091" unicode="&#x449;" horiz-adv-x="686" 
d="M599 51h52v-140h-57v89h-545v500h56v-449h191v449h56v-449h191v449h56v-449z" />
    <glyph glyph-name="afii10092" unicode="&#x44a;" horiz-adv-x="422" 
d="M152 283h54.999c64 0 110 -11.667 138 -35s42 -58 42 -104v-14c-0.666992 -45.333 -15.167 -79.333 -43.5 -102s-74.166 -34 -137.499 -34h-111v455h-60v51h117v-217zM331.999 134v4c0 34 -9.83301 57.833 -29.5 71.5s-54.5 20.5 -104.5 20.5h-47v-184h47
c50 0 84.667 6.5 104 19.5s29.333 35.833 30 68.5z" />
    <glyph glyph-name="afii10093" unicode="&#x44b;" horiz-adv-x="519" 
d="M49 500l56 0.000976562v-217h55c64 0 110 -11.667 138 -35s42 -58 42 -104v-14c0 -30 -6 -54.833 -18 -74.5s-31.333 -34.834 -58 -45.501s-61.667 -16 -105 -16h-110v506zM414 0.000976562v500h56v-500h-56zM285 134.001l0.000976562 4c0 34 -9.66699 57.833 -29 71.5
s-54 20.5 -104 20.5h-47v-184h47c49.333 0 83.666 6.5 102.999 19.5s29.333 35.833 30 68.5z" />
    <glyph glyph-name="afii10094" unicode="&#x44c;" horiz-adv-x="375" 
d="M49 500l56 0.000976562v-217h55c64 0 110 -11.667 138 -35s42 -58 42 -104v-14c0 -30 -6 -54.833 -18 -74.5s-31.333 -34.834 -58 -45.501s-61.667 -16 -105 -16h-110v506zM285 134.001l0.000976562 4c0 34 -9.66699 57.833 -29 71.5s-54 20.5 -104 20.5h-47v-184h47
c49.333 0 83.666 6.5 102.999 19.5s29.333 35.833 30 68.5z" />
    <glyph glyph-name="afii10095" unicode="&#x44d;" horiz-adv-x="384" 
d="M94 333l-55 -0.00195312c0 32 4.33301 60 13 84s20.667 42.333 36 55s31.5 22 48.5 28s35.333 9 55 9s38 -3 55 -9s33 -15.5 48 -28.5s26.833 -31.333 35.5 -55s13 -51.5 13 -83.5v-165c0 -32 -4.33301 -59.833 -13 -83.5s-20.5 -42 -35.5 -55s-31 -22.5 -48 -28.5
s-35.333 -9 -55 -9s-38 3 -55 9s-33.167 15.333 -48.5 28s-27.333 30.834 -36 54.501s-13 51.834 -13 84.501h55c2 -83.333 34.333 -125 97 -125c64 0 96 44 96 132v52h-130v50h130v50c0 87.333 -32 131 -96 131c-62 0 -94.333 -41.667 -97 -125z" />
    <glyph glyph-name="afii10096" unicode="&#x44e;" horiz-adv-x="545" 
d="M199 276v56.999c0 18.667 1.66699 36 5 52s7.66602 29.833 12.999 41.5s11.833 22.334 19.5 32.001s15.834 17.5 24.501 23.5s18.167 11.167 28.5 15.5s20.5 7.33301 30.5 9s20.667 2.5 32 2.5c19.333 0 37.5 -3 54.5 -9s33.167 -15.333 48.5 -28s27.5 -31 36.5 -55
s13.5 -52 13.5 -84v-165c0 -32 -4.5 -60 -13.5 -84s-21.167 -42.333 -36.5 -55s-31.5 -22 -48.5 -28s-35.333 -9 -55 -9s-38 3 -55 9s-33 15.5 -48 28.5s-27 31.333 -36 55s-13.5 51.5 -13.5 83.5v59h-94v-227h-56v500h56v-224h94zM448 194.999v110.999
c0 101.333 -32 152 -96 152c-30 0 -53.5 -11.333 -70.5 -34s-25.5 -62 -25.5 -118v-111c0 -29.333 2.33301 -54.166 7 -74.499s11.5 -36 20.5 -47s19 -18.833 30 -23.5s23.833 -7 38.5 -7c64.667 0 96.667 50.667 96 152z" />
    <glyph glyph-name="afii10097" unicode="&#x44f;" horiz-adv-x="378" 
d="M210 506l119 -0.000976562v-506h-57v226l-88 -4l-92 -222h-57l96 239c-33.333 8.66699 -57 22.334 -71 41.001s-21 43.667 -21 75v14c0 45.333 13 79.5 39 102.5s70 34.5 132 34.5zM218 277.999h55v177h-55c-32.667 0 -58.167 -3.5 -76.5 -10.5
s-30.833 -16.667 -37.5 -29s-10 -29.5 -10 -51.5c0 -31.333 8.5 -53.5 25.5 -66.5s49.833 -19.5 98.5 -19.5z" />
    <glyph glyph-name="Wgrave" unicode="&#x1e80;" horiz-adv-x="804" 
d="M336 907h75l58 -131h-48zM691 700h66l-154 -700h-75l-126 546l-127 -546h-74l-154 700h66l129 -587l129 587h62l129 -587z" />
    <glyph glyph-name="wgrave" unicode="&#x1e81;" horiz-adv-x="667" 
d="M266 707h76l58 -131h-48zM573 500h57l-123 -500h-67l-107 392l-106 -392h-67l-123 500h56l104 -421l112 421h49l112 -421z" />
    <glyph glyph-name="Wacute" unicode="&#x1e82;" horiz-adv-x="804" 
d="M394 906h75l-85 -130h-48zM691 700h66l-154 -700h-75l-126 546l-127 -546h-74l-154 700h66l129 -587l129 587h62l129 -587z" />
    <glyph glyph-name="wacute" unicode="&#x1e83;" horiz-adv-x="667" 
d="M325 706h75l-85 -130h-49zM573 500h57l-123 -500h-67l-107 392l-106 -392h-67l-123 500h56l104 -421l112 421h49l112 -421z" />
    <glyph glyph-name="Wdieresis" unicode="&#x1e84;" horiz-adv-x="804" 
d="M314 900h60v-61h-60v61zM431 900h61v-61h-61v61zM691 700h66l-154 -700h-75l-126 546l-127 -546h-74l-154 700h66l129 -587l129 587h62l129 -587z" />
    <glyph glyph-name="wdieresis" unicode="&#x1e85;" horiz-adv-x="667" 
d="M245 700h60v-61h-60v61zM362 700h61v-61h-61v61zM573 500h57l-123 -500h-67l-107 392l-106 -392h-67l-124 500h57l104 -421l112 421h49l112 -421z" />
    <glyph glyph-name="Ygrave" unicode="&#x1ef2;" horiz-adv-x="512" 
d="M190 907h75l58 -131h-48zM396 700h69l-177 -412v-288h-67v288l-174 412h69l139 -338z" />
    <glyph glyph-name="ygrave" unicode="&#x1ef3;" horiz-adv-x="378" 
d="M123 707h75l58 -131h-48zM286 500h56.0029v-508c-0.666992 -24 -4.16699 -45.667 -10.5 -65s-14.5 -35 -24.5 -47s-21.5 -22 -34.5 -30s-26.333 -13.667 -40 -17s-27.834 -5 -42.501 -5c-34 0 -64.5 9 -91.5 27s-45.167 46.667 -54.5 86h59c13.333 -41.333 42 -62 86 -62
c64.667 0 97 44 97 132v57c-22 -45.333 -59 -68 -111 -68c-18 0 -34.833 3 -50.5 9s-30.334 15.333 -44.001 28s-24.334 31 -32.001 55s-11.5 52 -11.5 84v324h56v-297c0 -101.333 32 -152 96 -152s96.333 50.667 97 152v297z" />
    <glyph glyph-name="endash" unicode="&#x2013;" horiz-adv-x="472" 
d="M50 301h372v-64h-372v64z" />
    <glyph glyph-name="emdash" unicode="&#x2014;" horiz-adv-x="640" 
d="M50 301h540v-64h-540v64z" />
    <glyph glyph-name="quoteleft" unicode="&#x2018;" horiz-adv-x="165" 
d="M88 637h27v-64h-65v64l26 63h23z" />
    <glyph glyph-name="quoteright" unicode="&#x2019;" horiz-adv-x="165" 
d="M50 700h65v-65l-26 -62h-23l11 62h-27v65z" />
    <glyph glyph-name="quotesinglbase" unicode="&#x201a;" horiz-adv-x="165" 
d="M50 65h65v-65l-26 -63h-23l11 63h-27v65z" />
    <glyph glyph-name="quotedblleft" unicode="&#x201c;" horiz-adv-x="298" 
d="M99 700l-11 -63h27v-64h-65v64l26 63h23zM220 637h28v-64h-65v64l26 63h23z" />
    <glyph glyph-name="quotedblright" unicode="&#x201d;" horiz-adv-x="298" 
d="M50 635v65h65v-65l-26 -62h-23l11 62h-27zM183 700h65v-65l-26 -62h-23l11 62h-27v65z" />
    <glyph glyph-name="quotedblbase" unicode="&#x201e;" horiz-adv-x="165" 
d="M50 65h65v-65l-26 -63h-23l11 63h-27v65z" />
    <glyph glyph-name="dagger" unicode="&#x2020;" horiz-adv-x="378" 
d="M155 700h67v-201h106v-64h-106v-495h-67v495h-105v64h105v201z" />
    <glyph glyph-name="daggerdbl" unicode="&#x2021;" horiz-adv-x="378" 
d="M155 700h67v-201h106v-64h-106v-251h106v-64h-106v-180h-67v180h-105v64h105v251h-105v64h105v201z" />
    <glyph glyph-name="bullet" unicode="&#x2022;" horiz-adv-x="346" 
d="M173 436c36.667 0 67.834 -12.833 93.501 -38.5s38.5 -56.5 38.5 -92.5c0 -36.667 -12.833 -67.834 -38.5 -93.501s-56.834 -38.5 -93.501 -38.5s-67.834 12.833 -93.501 38.5s-38.5 56.834 -38.5 93.501c0 36 12.833 66.833 38.5 92.5s56.834 38.5 93.501 38.5z" />
    <glyph glyph-name="ellipsis" unicode="&#x2026;" horiz-adv-x="442" 
d="M50 0v65h65v-65h-65zM189 0v65h65v-65h-65zM327 0v65h65v-65h-65z" />
    <glyph glyph-name="perthousand" unicode="&#x2030;" horiz-adv-x="916" 
d="M50 472l-0.000976562 131.007c0 19.333 3.66699 36.166 11 50.499s16.833 25.166 28.5 32.499s23.167 12.666 34.5 15.999s22.333 5 33 5c8.66699 0 17.5 -1 26.5 -3s18.333 -5.66699 28 -11s18.334 -11.833 26.001 -19.5s13.834 -17.5 18.501 -29.5s7 -25.667 7 -41
v-131c0 -18.667 -3.5 -35 -10.5 -49s-16.167 -24.833 -27.5 -32.5s-22.833 -13.334 -34.5 -17.001s-22.834 -5.5 -33.501 -5.5s-21.667 1.66699 -33 5s-22.833 8.66602 -34.5 15.999s-21.167 18.166 -28.5 32.499s-11 31.166 -11 50.499zM500.999 700.007h52l-388 -700h-51z
M217.999 471.007l0.00195312 133c0 20 -6.33301 35 -19 45s-26.667 15 -42 15c-6.66699 0 -13.334 -1 -20.001 -3s-13.334 -5.16699 -20.001 -9.5s-12 -10.5 -16 -18.5s-6 -17.667 -6 -29v-133c0 -20.667 6.66699 -35.834 20 -45.501s27.333 -14.5 42 -14.5
c15.333 0.666992 29.333 5.83398 42 15.501s19 24.5 19 44.5zM654.001 97.0068v131.002c0 15.333 2.5 29.333 7.5 42s11.333 22.834 19 30.501s16.5 14 26.5 19s19.333 8.33301 28 10s17 2.5 25 2.5c11.333 0 22.833 -1.83301 34.5 -5.5s23 -9.16699 34 -16.5
s20.167 -18.166 27.5 -32.499s11 -30.833 11 -49.5v-131c0 -12.667 -1.66699 -24.334 -5 -35.001s-8 -19.667 -14 -27s-12.5 -13.833 -19.5 -19.5s-14.5 -10 -22.5 -13s-15.833 -5.33301 -23.5 -7s-15.167 -2.5 -22.5 -2.5c-10 0 -20.667 1.66699 -32 5
s-22.833 8.66602 -34.5 15.999s-21.167 18.166 -28.5 32.499s-11 31.166 -11 50.499zM404.001 97.0088v131.006c0 19.333 3.66699 36.166 11 50.499s16.833 25.166 28.5 32.499s23.167 12.666 34.5 15.999s22 5 32 5c11.333 0 22.833 -1.83301 34.5 -5.5
s23 -9.16699 34 -16.5s20.167 -18.166 27.5 -32.499s11 -30.833 11 -49.5v-131c0 -12.667 -1.66699 -24.334 -5 -35.001s-8 -19.667 -14 -27s-12.5 -13.833 -19.5 -19.5s-14.5 -10 -22.5 -13s-15.833 -5.33301 -23.5 -7s-15.167 -2.5 -22.5 -2.5
c-10 0 -20.667 1.66699 -32 5s-22.833 8.66602 -34.5 15.999s-21.167 18.166 -28.5 32.499s-11 31.166 -11 50.499zM822.001 96.0146l0.00195312 133.001c0 20 -6.5 35 -19.5 45s-27.167 15 -42.5 15c-8.66699 0 -17.334 -1.5 -26.001 -4.5s-16.834 -9.33301 -24.501 -19
s-11.5 -21.834 -11.5 -36.501v-133c0 -20.667 6.66699 -35.667 20 -45s27.333 -14.333 42 -15c15.333 0 29.5 5 42.5 15s19.5 25 19.5 45zM572.003 96.0156l-0.00195312 133c0 20 -6.5 35.167 -19.5 45.5s-27.167 15.5 -42.5 15.5c-14.667 0 -28.667 -4.83301 -42 -14.5
s-20 -25.167 -20 -46.5v-133c0 -14 3.83301 -25.833 11.5 -35.5s15.834 -16 24.501 -19s17.334 -4.83301 26.001 -5.5c15.333 0 29.5 5 42.5 15s19.5 25 19.5 45z" />
    <glyph glyph-name="guilsinglleft" unicode="&#x2039;" horiz-adv-x="231" 
d="M50 306l131 110v-68l-93 -76l93 -75v-69l-131 110v68z" />
    <glyph glyph-name="guilsinglright" unicode="&#x203a;" horiz-adv-x="231" 
d="M50 348v68l131 -110v-67l-131 -111v69l93 75z" />
    <glyph glyph-name="fraction" unicode="&#x2044;" horiz-adv-x="446" 
d="M39 0l316 700h53l-317 -700h-52z" />
    <glyph glyph-name="Euro" unicode="&#x20ac;" horiz-adv-x="528" 
d="M87 411l0.00195312 56.002c0 44 5.83301 82.333 17.5 115s27.5 57.834 47.5 75.501s41.333 30.667 64 39s47.334 12.5 74.001 12.5c25.333 0 49 -3.83301 71 -11.5s42.667 -19.834 62 -36.501s35 -40.167 47 -70.5s18.667 -66.5 20 -108.5v-15h-65l-1 13
c-2 30.667 -6.83301 57 -14.5 79s-17.667 39.167 -30 51.5s-25.833 21.333 -40.5 27s-31 8.5 -49 8.5c-18.667 0 -35.834 -3.16699 -51.501 -9.5s-30.167 -16.333 -43.5 -30s-23.5 -33 -30.5 -58s-10.5 -55.167 -10.5 -90.5v-47h262l-33 -34h-229v-54h175l-34 -34h-141v-46
c0 -28 2.33301 -53 7 -75s11.167 -40 19.5 -54s18.5 -25.5 30.5 -34.5s24.5 -15.333 37.5 -19s26.833 -5.5 41.5 -5.5c83.333 0 128.333 55.667 135 167v12h65v-14c-1.33301 -42 -7.83301 -78.333 -19.5 -109s-27.334 -54.334 -47.001 -71.001s-40.5 -28.834 -62.5 -36.501
s-45.667 -11.5 -71 -11.5c-26.667 0 -51.334 4.16699 -74.001 12.5s-44 21.333 -64 39s-35.833 42.667 -47.5 75s-17.5 70.833 -17.5 115.5v55h-50v34h50v54h-50v34h50z" />
    <glyph glyph-name="trademark" unicode="&#x2122;" horiz-adv-x="592" 
d="M15 654v46h222v-46h-86v-360h-50v360h-86zM515 700h61v-406h-50v311l-95 -192h-32l-95 192v-311h-50v406h61l100 -206z" />
    <glyph glyph-name="partialdiff" unicode="&#x2202;" horiz-adv-x="600" 
 />
    <glyph glyph-name="emptyset" unicode="&#x2205;" horiz-adv-x="610" 
d="M563 462l-55.9971 -56c37.333 -45.333 56 -97.333 56 -156c0 -71.333 -25.333 -132.166 -76 -182.499s-111.334 -75.5 -182.001 -75.5c-58.667 0 -110.334 18.667 -155.001 56l-57 -57l-45 45l56 56c-38.667 46 -58 98.667 -58 158c0 71.333 25.167 132.166 75.5 182.499
s111.5 75.5 183.5 75.5c59.333 0 111.666 -18.667 156.999 -56l56 55zM305.003 47c56 0 103.5 19.833 142.5 59.5s58.5 87.5 58.5 143.5s-19.5 103.833 -58.5 143.5s-86.5 59.5 -142.5 59.5c-56.667 0 -104.5 -19.833 -143.5 -59.5s-58.5 -87.5 -58.5 -143.5
s19.333 -103.833 58 -143.5s86.667 -59.5 144 -59.5z" />
    <glyph glyph-name="product" unicode="&#x220f;" horiz-adv-x="600" 
 />
    <glyph glyph-name="summation" unicode="&#x2211;" horiz-adv-x="600" 
 />
    <glyph glyph-name="minus" unicode="&#x2212;" horiz-adv-x="535" 
d="M50 352h435v-64h-435v64z" />
    <glyph glyph-name="radical" unicode="&#x221a;" horiz-adv-x="600" 
 />
    <glyph glyph-name="infinity" unicode="&#x221e;" horiz-adv-x="600" 
 />
    <glyph glyph-name="integral" unicode="&#x222b;" horiz-adv-x="356" 
d="M237 736l68.998 0.00195312v-63h-47c-14.667 0 -26.334 -5.66699 -35.001 -17s-13 -27 -13 -47v-644c0 -33.333 -8.83301 -59 -26.5 -77s-39.5 -27 -65.5 -27h-69v63h47c14.667 0 26.334 5.66699 35.001 17s13 26.666 13 45.999v645c0 22 4.33301 41.167 13 57.5
s19.834 28.166 33.501 35.499s28.834 11 45.501 11z" />
    <glyph glyph-name="approxequal" unicode="&#x2248;" horiz-adv-x="563" 
d="M462 397l51.001 0.000976562c0 -42.667 -9.5 -77.667 -28.5 -105s-46.167 -41 -81.5 -41c-12 0 -23 1 -33 3s-20.333 5.66699 -31 11s-19 9.66602 -25 12.999s-15.167 9.5 -27.5 18.5s-20.5 14.833 -24.5 17.5c-32.667 22.667 -61.334 33.667 -86.001 33
c-23.333 -0.666992 -41.666 -9.66699 -54.999 -27s-20 -39.666 -20 -66.999h-51c0 45.333 10.333 82.666 31 111.999s50 44 88 44c18.667 0 35.5 -3.16699 50.5 -9.5s32.833 -15.833 53.5 -28.5c3.33301 -2.66699 9.66602 -7.33398 18.999 -14.001l19.5 -14
c3.66699 -2.66699 9.66699 -6.5 18 -11.5s15.5 -8.66699 21.5 -11s13 -4.33301 21 -6s16.333 -2.16699 25 -1.5c20.667 0 36.667 7.83301 48 23.5s17 35.834 17 60.501zM462.001 214.001l50.999 1.00098c0 -42.667 -9.5 -77.834 -28.5 -105.501s-46.167 -41.5 -81.5 -41.5
c-10 0 -19.667 1 -29 3s-17.5 4.33301 -24.5 7s-15 6.5 -24 11.5s-16 9.16699 -21 12.5l-22 15l-21.5 15c-32 22.667 -60.333 33.334 -85 32.001c-24 0 -42.5 -8.83301 -55.5 -26.5s-19.5 -39.834 -19.5 -66.501h-51c0 45.333 10.333 82.666 31 111.999s50 44 88 44
c18.667 0 35.334 -3.16699 50.001 -9.5s32.667 -16.166 54 -29.499l18.5 -13.5l20 -14.5c3.66699 -2.66699 9.66699 -6.5 18 -11.5s15.5 -8.5 21.5 -10.5s13.167 -3.83301 21.5 -5.5s16.5 -2.5 24.5 -2.5c14 0.666992 26 4.83398 36 12.501s17.333 17.667 22 30
s7 26.166 7 41.499z" />
    <glyph glyph-name="notequal" unicode="&#x2260;" horiz-adv-x="518" 
d="M476 371h-162l-39 -97h201v-64h-227l-99 -242h-68l99 242h-139v64h165l39 97h-204v63h230l96 234h68l-96 -234h136v-63z" />
    <glyph glyph-name="lessequal" unicode="&#x2264;" horiz-adv-x="446" 
d="M50 343l346 194v-67l-241 -142l241 -142v-67l-346 194v30zM50 47h346v-64h-346v64z" />
    <glyph glyph-name="greaterequal" unicode="&#x2265;" horiz-adv-x="446" 
d="M50 470v67l346 -194v-30l-346 -194v67l241 142zM50 47h346v-64h-346v64z" />
    <glyph glyph-name="lozenge" unicode="&#x25ca;" horiz-adv-x="600" 
 />
    <glyph glyph-name=".null" horiz-adv-x="0" 
 />
    <glyph glyph-name="nonmarkingreturn" horiz-adv-x="333" 
 />
    <glyph glyph-name="K.ss01" horiz-adv-x="453" 
d="M324 700l70 0.00195312l-196 -311c54.667 -3.33301 92 -7.83301 112 -13.5s37.667 -17.834 53 -36.501c28.667 -36.667 43 -95.334 43 -176.001v-163h-66v163c0 71.333 -12.333 120.333 -37 147c-19.333 21.333 -52 32 -98 32h-80v-342h-65v700h65v-303z" />
    <glyph glyph-name="R.ss01" horiz-adv-x="479" 
d="M63 0l-0.000976562 705.997h153c30.667 0 58.5 -3.5 83.5 -10.5s47.333 -17.833 67 -32.5s34.834 -34.167 45.501 -58.5s16 -52.166 16 -83.499v-17c0 -75.333 -33 -127.666 -99 -156.999c25.333 -9.33301 46 -24.333 62 -45c27.333 -37.333 41 -91.666 41 -162.999v-139
h-65v140c0 62 -11.333 107.667 -34 137c-21.333 28.667 -55 43 -101 43h-104v-320h-65zM224.999 639.997l-96.9971 -0.00292969v-254h97c11.333 0 22.166 0.833008 32.499 2.5s20.833 4.33398 31.5 8.00098s20.334 8.66699 29.001 15s16.5 13.833 23.5 22.5
s12.5 19.334 16.5 32.001s6 26.667 6 42v9c0 23.333 -3.83301 43.333 -11.5 60s-18.334 29.334 -32.001 38.001s-28.334 15 -44.001 19s-32.834 6 -51.501 6z" />
    <glyph glyph-name="f.ss01" horiz-adv-x="248" 
d="M191 709l20 -0.000976562v-51h-8c-19.333 0 -34.5 -1.5 -45.5 -4.5s-20.833 -9.16699 -29.5 -18.5s-14.667 -23.166 -18 -41.499s-5 -42.833 -5 -73.5v-20h106v-52h-106v-448h-56v533c0 36.667 3 66.834 9 90.501s15.667 41.667 29 54s28 20.666 44 24.999s36 6.5 60 6.5
z" />
    <glyph glyph-name="k.ss01" horiz-adv-x="374" 
d="M260 500l60.999 -0.00195312l-152 -224c31.333 -2 55.333 -5.16699 72 -9.5s31.334 -12.166 44.001 -23.499c35.333 -31.333 53 -90.666 53 -177.999v-65h-57v65c0.666992 79.333 -14.333 131 -45 155c-18 14.667 -47.667 22 -89 22h-43v-242h-56v700h56v-429z" />
    <glyph glyph-name="t.ss01" horiz-adv-x="248" 
d="M105 449l-0.000976562 -258.998c0 -25.333 1.16699 -46.333 3.5 -63s5.66602 -30.334 9.99902 -41.001s10.833 -18.667 19.5 -24s17.834 -8.83301 27.501 -10.5s22.5 -2.5 38.5 -2.5h7v-52h-19c-24 0 -44 2.16699 -60 6.5s-30.667 12.666 -44 24.999
s-23.166 30.333 -29.499 54s-9.5 54.167 -9.5 91.5v479h56v-153h106v-51h-106z" />
    <glyph glyph-name="afii10049.ss01" horiz-adv-x="479" 
d="M263 706l153 1.00195v-707h-65v320h-103c-44.667 0 -77.667 -13 -99 -39c-24 -29.333 -36 -76 -36 -140v-141h-66v139c0 70.667 13.667 124 41 160c16 22 37 38 63 48c-30 13.333 -54.167 33.166 -72.5 59.499s-27.5 58.833 -27.5 97.5v17c0 42 9.66699 77.167 29 105.5
s44.333 48.666 75 60.999s66.667 18.5 108 18.5zM351 386.002v254h-97c-18.667 0 -35.667 -1.83301 -51 -5.5s-29.833 -10 -43.5 -19s-24.5 -21.833 -32.5 -38.5s-12 -36.667 -12 -60v-9c0 -22.667 4.33301 -42.167 13 -58.5s20 -29 34 -38s28.667 -15.5 44 -19.5
s31.333 -6 48 -6h97z" />
    <glyph glyph-name="afii10024.ss01" horiz-adv-x="720" 
d="M661 700l-196.002 -310.999c50.667 -2.66699 85.334 -6.16699 104.001 -10.5s35.334 -13.5 50.001 -27.5c36 -34.667 54 -97.334 54 -188.001v-163h-66v163c0 78 -15 129.667 -45 155c-18.667 16 -48.667 24 -90 24h-79v-342h-65v342h-80c-44.667 0 -76.667 -10 -96 -30
c-26 -26.667 -39 -76.334 -39 -149.001v-163h-66v163c0 84.667 15.333 145.334 46 182.001c15.333 16 33 26.667 53 32s56.333 9.33301 109 12l-196 311h70l199 -303v303h65v-303l198 303h70z" />
    <glyph glyph-name="afii10097.ss01" horiz-adv-x="373" 
d="M326 506l-0.00195312 -506.001h-56v226h-43c-16.667 0 -30.667 -0.666992 -42 -2s-22.666 -4.66602 -33.999 -9.99902s-20.666 -12.666 -27.999 -21.999c-20.667 -26 -31 -71.667 -31 -137v-55h-56v54c0 70 11 121.333 33 154c10.667 16.667 24.667 29.667 42 39
c-18 6 -32.667 14.167 -44 24.5s-19.333 22.166 -24 35.499s-7 29.333 -7 48v14c0 45.333 13 79.5 39 102.5s70.333 34.5 133 34.5h118zM269.998 454.999h-55c-32.667 0 -58.167 -3.5 -76.5 -10.5s-30.833 -16.667 -37.5 -29s-10 -29.5 -10 -51.5
c0 -30 7.66699 -51.5 23 -64.5s44 -20.167 86 -21.5h70v177z" />
    <glyph glyph-name="afii10076.ss01" horiz-adv-x="374" 
d="M260 500l61 -0.000976562l-152 -224c34 -2 59.833 -5.66699 77.5 -11s32.834 -14.666 45.501 -27.999c30.667 -32.667 46 -90 46 -172v-65h-57v65c0.666992 74 -12.333 124 -39 150c-18.667 18 -50.334 27 -95.001 27h-43v-242h-56v500h56v-229z" />
    <glyph glyph-name="afii10072.ss01" horiz-adv-x="597" 
d="M544 500l-152.002 -224.001c34.667 -2 60.834 -5.66699 78.501 -11s33.167 -15 46.5 -29c28.667 -33.333 43 -90.333 43 -171v-65h-56v65c0 71.333 -12 120.333 -36 147c-18.667 20 -51.667 30 -99 30h-42v-242h-57v242h-43c-44 0 -75.333 -8.66699 -94 -26
c-26.667 -25.333 -40 -75.666 -40 -150.999v-65h-56v65c0 85.333 16.333 144 49 176c13.333 12 28.333 20.167 45 24.5s41.334 7.83301 74.001 10.5l-152 224h61l156 -230v230h57v-230l156 230h61z" />
    <glyph glyph-name="two.dnom" horiz-adv-x="234" 
d="M114 340l12.001 -0.00390625c26 0 48.833 -8.33301 68.5 -25s29.5 -41.667 29.5 -75v-3c0 -19.333 -5 -36.5 -15 -51.5s-22.333 -27.667 -37 -38s-29.5 -20.166 -44.5 -29.499s-28.167 -20.333 -39.5 -33s-18 -26.667 -20 -42h153v-43h-209v26c0 19.333 4 36.833 12 52.5
s18.333 28.167 31 37.5l40.5 28.5l40 26c12.333 7.66699 22.666 17.334 30.999 29.001s12.5 24.5 12.5 38.5s-3.16699 25.833 -9.5 35.5s-13.333 16.334 -21 20.001s-15.5 5.5 -23.5 5.5h-4c-9.33301 0 -18.333 -2 -27 -6s-16.5 -10.333 -23.5 -19
s-11.833 -19.667 -14.5 -33h-45v4c4.66699 31.333 17 54.833 37 70.5s42 23.834 66 24.501z" />
    <glyph glyph-name="four.dnom" horiz-adv-x="250" 
d="M120 338h47l-108 -227h104v145h46v-145h31v-42h-31v-69h-46v69h-153v45z" />
    <glyph glyph-name="one.numr" horiz-adv-x="110" 
d="M16 700h78v-338h-45v296h-33v42z" />
    <glyph glyph-name="three.numr" horiz-adv-x="246" 
d="M119 703l12.001 0.00195312c24 -0.666992 46 -8.16699 66 -22.5s30 -35.833 30 -64.5v-7c0 -16 -5 -30.5 -15 -43.5s-22 -21.167 -36 -24.5c16.667 -6.66699 29.834 -17 39.501 -31s14.5 -30.333 14.5 -49v-8c0 -28.667 -9.83301 -50.834 -29.5 -66.501
s-42.834 -23.5 -69.501 -23.5h-12c-24 0 -46.333 8 -67 24s-32.667 39.667 -36 71v2h43c3.33301 -18.667 11 -32.5 23 -41.5s25.333 -13.5 40 -13.5h8c14 0 26.5 4.33301 37.5 13s16.5 21 16.5 37l1 4c0 18.667 -6 33.5 -18 44.5s-26.667 16.5 -44 16.5h-32v42h32
c9.33301 0 18.166 1.5 26.499 4.5s15.666 8.16699 21.999 15.5s9.83301 16.666 10.5 27.999v3c0 10.667 -3 19.667 -9 27s-12.667 12.5 -20 15.5s-15 4.5 -23 4.5h-7c-14.667 0 -27.667 -4.16699 -39 -12.5s-19 -21.166 -23 -38.499h-44v3
c4.66699 29.333 16.834 51.666 36.501 66.999s41.5 23.333 65.5 24z" />
    </font>
</defs>
</svg>
