<?xml version="1.0" standalone="no"?>
<!DOCTYPE svg PUBLIC "-//W3C//DTD SVG 1.1//EN" "http://www.w3.org/Graphics/SVG/1.1/DTD/svg11.dtd" >
<svg>
<metadata>
Created by FontForge 20090914 at Thu Mar 18 20:49:30 2021
 By www-data
&#194;&#169; 2016-2017 Stepan Lyaptsev, Alexandra Khlopok
</metadata>
<defs>
<font id="Alcotton" horiz-adv-x="858" >
  <font-face 
    font-family="Alcotton"
    font-weight="400"
    font-stretch="normal"
    units-per-em="2048"
    panose-1="1 0 0 0 0 0 0 0 0 0"
    ascent="1638"
    descent="-410"
    x-height="829"
    cap-height="968"
    bbox="10 -447.233 2998.45 1602.24"
    underline-thickness="175"
    underline-position="-185"
    unicode-range="U+0020-U+2265"
  />
<missing-glyph horiz-adv-x="2000" 
 />
    <glyph glyph-name=".notdef" horiz-adv-x="2000" 
 />
    <glyph glyph-name="space" unicode=" " horiz-adv-x="2000" 
 />
    <glyph glyph-name="exclam" unicode="!" horiz-adv-x="492" 
d="M182 1063c25.333 -96 48.834 -192.001 70.501 -288.001l64.5 -290c2.66699 -13.333 0.666992 -24.333 -6 -33s-15 -14.5 -25 -17.5s-20 -2.33301 -30 2s-16.333 13.166 -19 26.499l-64.5 289.5c-21.667 95.667 -45.167 191.834 -70.5 288.501
c-3.33301 12.667 -1.83301 23.5 4.5 32.5s14.5 14.833 24.5 17.5s20.167 1.83398 30.5 -2.49902s17.166 -12.833 20.499 -25.5zM351.001 -1.00098c-13.333 0 -23.5 4.33301 -30.5 13s-10.5 18.334 -10.5 29.001s3.5 20.334 10.5 29.001s17.167 13 30.5 13
s23.333 -4.33301 30 -13s10 -18.334 10 -29.001s-3.33301 -20.334 -10 -29.001s-16.667 -13 -30 -13z" />
    <glyph glyph-name="quotedbl" unicode="&#x22;" 
d="M441 1311c-46.667 -47.333 -91.335 -96.002 -134.002 -146.002s-88 -98 -136 -144c-9.33301 -9.33301 -19.5 -13.166 -30.5 -11.499s-20.167 6.16699 -27.5 13.5s-11.666 16.333 -12.999 27s3 20.667 13 30c48 46 93.167 94 135.5 144s86.833 98.667 133.5 146
c9.33301 9.33301 19.333 13.333 30 12s19.667 -5.66602 27 -12.999s11.833 -16.5 13.5 -27.5s-2.16602 -21.167 -11.499 -30.5zM475.999 1021c-9.33301 -9.33301 -19.499 -13.168 -30.499 -11.501s-20.167 6.16699 -27.5 13.5s-11.666 16.333 -12.999 27s3 20.667 13 30
c48 46 93.167 94 135.5 144s86.833 98.667 133.5 146c9.33301 9.33301 19.5 13.333 30.5 12s20.167 -5.66602 27.5 -12.999s11.666 -16.5 12.999 -27.5s-2.66699 -21.167 -12 -30.5c-46.667 -47.333 -91.334 -96 -134.001 -146s-88 -98 -136 -144z" />
    <glyph glyph-name="numbersign" unicode="#" horiz-adv-x="3040" 
d="M2100 811c13.333 0.666992 23.332 -3.16406 29.999 -11.4971s10 -17.833 10 -28.5s-3.33301 -20.334 -10 -29.001s-16.667 -13.334 -30 -14.001c-40.667 -1.33301 -80.667 -4 -120 -8s-79 -9 -119 -15l-2 -141l-2 -142c19.333 1.33301 38.333 2.16602 57 2.49902
s37.667 0.166016 57 -0.500977c13.333 0 23.333 -4.5 30 -13.5s10 -18.667 10 -29s-3.33301 -19.666 -10 -27.999s-16.667 -12.5 -30 -12.5c-19.333 0.666992 -38.5 0.833984 -57.5 0.500977s-37.833 -1.16602 -56.5 -2.49902c-0.666992 -20.667 -1 -41 -1 -61v-61
c0 -13.333 -4.33301 -23.333 -13 -30s-18.167 -10 -28.5 -10s-19.833 3.33301 -28.5 10s-13 16.667 -13 30v57.5c0 19 0.333008 38.167 1 57.5c-91.333 -10.667 -181.166 -28.334 -269.499 -53.001s-176.166 -53 -263.499 -85c-7.33301 -66 -15 -131.5 -23 -196.5
s-16.667 -130.5 -26 -196.5c-2 -13.333 -7.66699 -22.166 -17 -26.499s-19 -5 -29 -2s-18.667 8.83301 -26 17.5s-10 19.667 -8 33c8.66699 56.667 16.5 113.167 23.5 169.5l20.5 169.5l-154.5 -61.5l-151.5 -61.5c-12.667 -5.33301 -23.167 -5 -31.5 1s-13.833 14 -16.5 24
s-2 20.333 2 31s12 18.667 24 24l167 67.5l171 67.5c5.33301 54 10.333 107.833 15 161.5s9.66699 107.834 15 162.501c-56.667 -9.33301 -113 -17 -169 -23s-112.667 -9.66699 -170 -11c-13.333 0 -23.333 4.16699 -30 12.5s-10 17.666 -10 27.999s3.33301 19.833 10 28.5
s16.667 13 30 13c58.667 1.33301 116.667 5.16602 174 11.499s114.666 14.5 171.999 24.5l40.5 455.5c13.667 151 31.167 302.5 52.5 454.5c2 12.667 7.5 21.167 16.5 25.5s18.5 5.16602 28.5 2.49902s18.833 -8.5 26.5 -17.5s10.5 -19.833 8.5 -32.5
c-20.667 -146 -37.667 -291.5 -51 -436.5l-39 -437.5c83.333 16 165.5 33 246.5 51s163.167 34 246.5 48c2 102 3 204.333 3 307c0 13.333 4.33301 23.333 13 30s18.167 10 28.5 10s19.833 -3.33301 28.5 -10s13 -16.667 13 -30c0 -98 -1 -196 -3 -294
c40 6 79.667 11 119 15s79 6.66699 119 8zM1774 415.002l1.99902 138.5l2 138.5c-84 -14.667 -167.167 -31.167 -249.5 -49.5s-165.5 -35.166 -249.5 -50.499l-13.5 -153.5c-4.33301 -51 -9.16602 -102.167 -14.499 -153.5c86 30.667 172.333 57.667 259 81
s174.667 39.666 264 48.999z" />
    <glyph glyph-name="percent" unicode="%" horiz-adv-x="3093" 
d="M1031 585c-26 1.33301 -51.167 7.16406 -75.5 17.4971s-46 24.333 -65 42s-33.833 38.334 -44.5 62.001s-15.334 49.5 -14.001 77.5c1.33301 26 7.16602 51.167 17.499 75.5s24.333 46 42 65s38.334 33.833 62.001 44.5s49.5 15.334 77.5 14.001
c27.333 -1.33301 52.5 -6.83301 75.5 -16.5s43.167 -22.834 60.5 -39.501s31.333 -36 42 -58s17.334 -46.333 20.001 -73c0.666992 -1.33301 1 -3.16602 1 -5.49902v-6.5c0 -6 -0.333008 -10 -1 -12c-2.66699 -24.667 -9.5 -48.667 -20.5 -72s-25.167 -43.666 -42.5 -60.999
s-37.5 -31 -60.5 -41s-47.833 -14.333 -74.5 -13zM1147 783.998c-1.33301 24.667 -8.16699 45.334 -20.5 62.001s-27.333 29.167 -45 37.5s-36.5 12.5 -56.5 12.5s-38.333 -4.16699 -55 -12.5s-30.334 -20.833 -41.001 -37.5s-15.334 -37.334 -14.001 -62.001
s7.83301 -45.5 19.5 -62.5s25.834 -29.5 42.501 -37.5s34.667 -12.167 54 -12.5s37.333 3.83398 54 12.501s30.834 21.167 42.501 37.5s18.167 37.166 19.5 62.499zM2158 205.998c1.33301 -5.33301 1.66895 -9.33203 1.00293 -11.999
c0.666992 -3.33301 0.333984 -7.66602 -0.999023 -12.999c-2.66699 -24.667 -9.5 -48.5 -20.5 -71.5s-25 -43.333 -42 -61s-37 -31.334 -60 -41.001s-47.833 -13.834 -74.5 -12.501c-26 1.33301 -51.333 7.16602 -76 17.499s-46.334 24.166 -65.001 41.499
s-33.334 38 -44.001 62s-15.334 50 -14.001 78c1.33301 26 7.16602 51.167 17.499 75.5s24.166 45.833 41.499 64.5s38 33.334 62 44.001s50 15.334 78 14.001c26.667 -1.33301 51.5 -6.83301 74.5 -16.5s43.167 -22.667 60.5 -39s31.333 -35.5 42 -57.5
s17.334 -46.333 20.001 -73zM1845 193.999c1.33301 -24.667 7.83105 -45.4971 19.498 -62.4971s25.834 -29.667 42.501 -38s34.667 -12.5 54 -12.5s37.333 4.33301 54 13s30.834 21.167 42.501 37.5s18.167 37.166 19.5 62.499c-1.33301 24.667 -8.16602 45.167 -20.5 61.5
c-12.333 16.333 -27.333 28.666 -45 36.999s-36.667 12.5 -57 12.5s-38.833 -4 -55.5 -12s-30.167 -20.333 -40.5 -37s-14.833 -37.334 -13.5 -62.001zM2222 1209c8.66699 10 18.332 14.501 28.998 13.501c10.667 -1 19.834 -5.16699 27.5 -12.5
c7.66699 -7.33301 12.167 -16.5 13.5 -27.5s-2.33398 -21.5 -11 -31.5c-25.333 -28 -52.166 -54.667 -80.499 -80l-86 -74.5l-88 -72.5l-86.5 -73l-173 -154.5l-170 -157.5l-358 -335c-119.333 -111.333 -241.666 -219.333 -366.999 -324c-10 -8.66699 -20.5 -12 -31.5 -10
s-20.167 6.66699 -27.5 14s-11.5 16.166 -12.5 26.499s3.5 19.833 13.5 28.5c126 105.333 248.333 213.333 367 324l358 334l188.5 175.5l192.5 171.5l155 127.5c52.667 41.667 101.667 87.5 147 137.5z" />
    <glyph glyph-name="ampersand" unicode="&#x26;" horiz-adv-x="3378" 
d="M2427 286c12.667 4 23.3398 2.99316 32.0059 -3.00684c8.66699 -6 14.334 -14 17 -24c2.66699 -10 2 -20.333 -2 -31s-12.333 -18 -25 -22l-110 -34c-37.333 -11.333 -72.333 -27 -105 -47c8.66699 -12 16.5 -24.667 23.5 -38l21.5 -41c6 -12 7 -23 3 -33
s-10.5 -17.667 -19.5 -23s-18.833 -7.33301 -29.5 -6s-19.334 8 -26 20c-8.66699 16 -16.667 31.833 -24 47.5s-17.666 29.834 -31 42.501c-62 -38 -129 -70.167 -201 -96.5s-145.833 -47.5 -221.5 -63.5s-151.667 -27.333 -228 -34s-149.833 -9.33398 -220.5 -8.00098
c-27.333 0.666992 -57.333 2.5 -90 5.5s-65 8.16699 -97 15.5s-62 17.5 -90 30.5s-50.833 29.667 -68.5 50s-28.834 44.833 -33.501 73.5s0.666016 62.667 15.999 102c14 35.333 33.667 68 59 98s54.166 57.833 86.499 83.5s67.333 49.5 105 71.5s75.5 42.667 113.5 62
l111.5 54.5c36.333 17 69.833 33.5 100.5 49.5l59.5 29.5l66.5 32.5l-70 35c-23.333 11.333 -46.166 23.333 -68.499 36s-43.833 26.834 -64.5 42.501s-40 33.5 -58 53.5c-18 21.333 -30.5 44.333 -37.5 69s-8.83301 49.167 -5.5 73.5s11.166 47.5 23.499 69.5
s29.166 41.333 50.499 58c32 24.667 68.667 44.834 110 60.501s85.166 27.834 131.499 36.501s94.166 13.834 143.499 15.501s98 1.16699 146 -1.5s94.333 -7.16699 139 -13.5s85.667 -13.833 123 -22.5c8 -1.33301 15.333 -6 22 -14s9.33398 -16.333 8 -25
c-6 -52 -21.5 -99.833 -46.5 -143.5s-55.167 -83.5 -90.5 -119.5s-74.333 -69 -117 -99s-85 -57.667 -127 -83c-8.66699 -5.33301 -17.167 -10.166 -25.5 -14.499s-16.833 -9.16602 -25.5 -14.499c42.667 -28 84.5 -58.333 125.5 -91s79.667 -67.834 116 -105.501
s69.5 -77.667 99.5 -120s55.333 -87.166 76 -134.499c36 20.667 73.333 37.334 112 50.001zM1511.01 797.993c32 -19.333 64.999 -36.498 98.999 -51.498s67.333 -31.833 100 -50.5c45.333 23.333 90.5 48.833 135.5 76.5s86.5 57.667 124.5 90s70.667 67.333 98 105
s46 78.5 56 122.5c-47.333 9.33301 -97.5 16.166 -150.5 20.499s-106.167 5.5 -159.5 3.5s-105.666 -7.5 -156.999 -16.5s-99 -21.833 -143 -38.5c-38 -14.667 -65.667 -32.834 -83 -54.501s-25.5 -44.667 -24.5 -69s10.333 -48.5 28 -72.5s43.167 -45.667 76.5 -65z
M1281 -25.0049c68.667 0 139.834 3.17285 213.501 9.50586s146.834 17.166 219.501 32.499s143.5 35.666 212.5 60.999s133.5 56.666 193.5 93.999c-20 44.667 -44.833 87 -74.5 127s-62.334 77.667 -98.001 113s-73.334 68 -113.001 98s-79.167 57.667 -118.5 83
c-2.66699 2 -5.33398 3.83301 -8.00098 5.5s-5.33398 3.5 -8.00098 5.5l-141 -72l-141.5 -72c-47 -24.667 -93.167 -50.167 -138.5 -76.5s-89.333 -54.833 -132 -85.5c-16 -11.333 -34.667 -25.333 -56 -42s-40.833 -35 -58.5 -55s-31.334 -41.333 -41.001 -64
s-11.167 -46 -4.5 -70c4.66699 -16 13.334 -29.333 26.001 -40s27.834 -19.334 45.501 -26.001s36.834 -11.834 57.501 -15.501s41.167 -6.33398 61.5 -8.00098s39.5 -2.5 57.5 -2.5h46z" />
    <glyph glyph-name="quotesingle" unicode="'" horiz-adv-x="553" 
d="M112 1311c-9.33301 9.33301 -13.333 19.502 -12 30.502s5.66602 20.167 12.999 27.5s16.5 11.666 27.5 12.999s21.167 -2.66699 30.5 -12c46 -47.333 90.333 -96 133 -146s88 -98 136 -144c10 -9.33301 14.333 -19.333 13 -30s-5.66602 -19.667 -12.999 -27
s-16.5 -11.833 -27.5 -13.5s-21.5 2.16602 -31.5 11.499c-48 46 -93.167 94 -135.5 144s-86.833 98.667 -133.5 146z" />
    <glyph glyph-name="parenleft" unicode="(" horiz-adv-x="602" 
d="M340 1369c-32.667 -80.667 -61.334 -167.834 -86.001 -261.501s-43.167 -189.667 -55.5 -288s-17.166 -197.5 -14.499 -297.5s15 -196.667 37 -290s54.667 -181.666 98 -264.999s100 -157.666 170 -222.999c10 -9.33301 14.333 -19.333 13 -30
s-5.66602 -19.667 -12.999 -27s-16.5 -11.833 -27.5 -13.5s-21.167 2.16602 -30.5 11.499c-55.333 52 -102.833 109.167 -142.5 171.5s-72.834 128.333 -99.501 198s-46.834 142 -60.501 217s-22.167 151.333 -25.5 229s-1.83301 155.667 4.5 234s16.5 155.5 30.5 231.5
s31.5 149.833 52.5 221.5s44.5 139.5 70.5 203.5c4.66699 12 12.334 20 23.001 24s21 4.66699 31 2s17.833 -8.16699 23.5 -16.5s6.16699 -18.833 1.5 -31.5z" />
    <glyph glyph-name="parenright" unicode=")" horiz-adv-x="631" 
d="M315 -273c30 82 55.835 170.161 77.502 264.494s37 190.833 46 289.5s10.667 197.834 5 297.501s-21 195.834 -46 288.501s-60.667 179.834 -107 261.501s-105.166 154.167 -176.499 217.5c-10 8.66699 -14.5 18.334 -13.5 29.001s5.16699 19.667 12.5 27
s16.5 11.833 27.5 13.5s21.5 -1.83301 31.5 -10.5c75.333 -66.667 137.666 -143 186.999 -229s87.5 -177.5 114.5 -274.5s44.167 -197.667 51.5 -302s6.66602 -208.333 -2.00098 -312s-24.167 -205 -46.5 -304s-49.5 -191.833 -81.5 -278.5
c-4.66699 -12.667 -12.334 -21 -23.001 -25s-21 -4.66699 -31 -2s-18 8.33398 -24 17.001s-6.66699 19.334 -2 32.001z" />
    <glyph glyph-name="asterisk" unicode="*" horiz-adv-x="1305" 
d="M1155 1326c12.667 4.66699 23.1709 4.00391 31.5039 -1.99609s13.833 -14 16.5 -24s2 -20.333 -2 -31s-12 -18.334 -24 -23.001c-77.333 -28.667 -152.833 -59.667 -226.5 -93l-222.5 -103l41.5 -24l40.5 -23c28 -15.333 56.833 -29.5 86.5 -42.5l88 -40
c29 -13.667 57.167 -28.5 84.5 -44.5s53.333 -34.667 78 -56c10 -8.66699 14.5 -18.334 13.5 -29.001s-5.33301 -19.667 -13 -27s-17 -11.833 -28 -13.5s-21.5 1.83301 -31.5 10.5c-27.333 24 -57.333 45.167 -90 63.5s-66.334 35.666 -101.001 51.999l-104 48
c-34.667 15.667 -68 32.5 -100 50.5c0.666992 -54 0.666992 -107.833 0 -161.5s-1 -107.5 -1 -161.5c0 -13.333 -4.33301 -23.5 -13 -30.5s-18.167 -10.5 -28.5 -10.5s-19.666 3.5 -27.999 10.5s-12.5 17.167 -12.5 30.5c0 57.333 0.166992 114.5 0.5 171.5
s0.166016 114.167 -0.500977 171.5l-226.5 -101.5c-75.667 -32.333 -153.167 -61.166 -232.5 -86.499c-12.667 -4 -23.334 -3 -32.001 3s-14.334 14 -17.001 24s-2 20.333 2 31s12.333 18 25 22c73.333 23.333 145 49.833 215 79.5l210 92.5l-258 165
c-11.333 7.33301 -17.666 16.5 -18.999 27.5s0.666992 21 6 30s13 15.5 23 19.5s20.667 2.33301 32 -5l135 -88.5l136 -85.5c-1.33301 60.667 -3.33301 120.667 -6 180s-6.66699 119.333 -12 180c-1.33301 13.333 2 23.166 10 29.499s17.167 9.5 27.5 9.5
s20.166 -3.33301 29.499 -10s14.666 -16.334 15.999 -29.001c5.33301 -60.667 9.33301 -120.5 12 -179.5s4.66699 -118.5 6 -178.5l229 106c76 34.667 154 66.667 234 96z" />
    <glyph glyph-name="plus" unicode="+" horiz-adv-x="2792" 
d="M1852 638c13.333 0 23.333 -4.16699 30 -12.5s10 -17.666 10 -27.999s-3.33301 -20 -10 -29s-16.667 -13.5 -30 -13.5c-74.667 -0.666992 -149 -3.33398 -223 -8.00098s-148.333 -9.66699 -223 -15v-345c0 -13.333 -4.33301 -23.333 -13 -30s-18.167 -10 -28.5 -10
s-19.833 3.33301 -28.5 10s-13 16.667 -13 30v341c-64 -3.33301 -127.5 -5.5 -190.5 -6.5s-126.833 1.16699 -191.5 6.5c-13.333 0.666992 -23.333 5.66699 -30 15s-10 19.166 -10 29.499s3.33301 19.5 10 27.5s16.667 11.667 30 11c64.667 -5.33301 128.5 -7.5 191.5 -6.5
s126.5 3.16699 190.5 6.5v294c0 13.333 4.33301 23.333 13 30s18.167 10 28.5 10s19.833 -3.33301 28.5 -10s13 -16.667 13 -30v-290c74.667 5.33301 149 10.333 223 15s148.333 7.33398 223 8.00098z" />
    <glyph glyph-name="comma" unicode="," horiz-adv-x="616" 
d="M106 -334c44 78.667 93.835 152.167 149.502 220.5s118.167 131.166 187.5 188.499c10 8 20.667 11.167 32 9.5s20.666 -6.16699 27.999 -13.5s11.5 -16.166 12.5 -26.499s-3.5 -19.833 -13.5 -28.5c-67.333 -54.667 -127.833 -114.667 -181.5 -180
s-101.5 -136 -143.5 -212c-6.66699 -12 -15.334 -18.667 -26.001 -20s-20.334 0.666992 -29.001 6s-15.167 13 -19.5 23s-3.16602 21 3.50098 33z" />
    <glyph glyph-name="hyphen" unicode="-" horiz-adv-x="2315" 
d="M1375 588c13.333 0 23.333 -4.33301 30 -13s10 -18.167 10 -28.5s-3.33301 -19.833 -10 -28.5s-16.667 -13 -30 -13h-435c-13.333 0 -23.333 4.33301 -30 13s-10 18.167 -10 28.5s3.33301 19.833 10 28.5s16.667 13 30 13h435v0z" />
    <glyph glyph-name="period" unicode="." horiz-adv-x="100" 
d="M50 83c13.333 0 23.333 -4.33301 30 -13s10 -18.167 10 -28.5s-3.33301 -19.833 -10 -28.5s-16.667 -13 -30 -13s-23.333 4.33301 -30 13s-10 18.167 -10 28.5s3.33301 19.833 10 28.5s16.667 13 30 13z" />
    <glyph glyph-name="slash" unicode="/" horiz-adv-x="2718" 
d="M1741 1323c6.66699 12 15.334 18.668 26.001 20.001s20.334 -0.666992 29.001 -6s15.167 -13 19.5 -23s3.16602 -21 -3.50098 -33l-417 -756l-418 -756c-6.66699 -11.333 -15.334 -17.833 -26.001 -19.5s-20.334 0.166016 -29.001 5.49902s-15.167 13 -19.5 23
s-3.16602 21 3.50098 33l417 756z" />
    <glyph glyph-name="zero" unicode="0" horiz-adv-x="2425" 
d="M1524 571c2 -41.333 -2.5 -84.332 -13.5 -128.999s-28.333 -85.667 -52 -123s-53.5 -68.333 -89.5 -93s-78.333 -37.667 -127 -39c-46 -1.33301 -89.333 6.83398 -130 24.501s-76.167 41.834 -106.5 72.501s-54.833 66.5 -73.5 107.5s-29 84.167 -31 129.5
c-2 42 2.5 85.333 13.5 130s28.333 85.667 52 123s53.5 68.166 89.5 92.499s78.333 37.166 127 38.499c47.333 1.33301 90.333 -6.5 129 -23.5s72.5 -40.167 101.5 -69.5s52.833 -63.833 71.5 -103.5s31 -81.834 37 -126.501v-1c1.33301 -4 2 -7.33301 2 -10zM1262 274.001
c33.333 10 61.6689 24.834 85.002 44.501s42.166 42.5 56.499 68.5s24.5 54.5 30.5 85.5s8.33301 62.833 7 95.5c-5.33301 32 -15.5 65.167 -30.5 99.5s-34.333 64.666 -58 90.999s-51.5 46 -83.5 59s-67.333 13.5 -106 1.5c-33.333 -10 -62.666 -26.333 -87.999 -49
s-45.833 -48.667 -61.5 -78s-25.834 -61 -30.501 -95s-3 -68 5 -102c7.33301 -29.333 19 -59.333 35 -90s35.833 -57.5 59.5 -80.5s50.667 -40 81 -51s63.166 -10.833 98.499 0.5z" />
    <glyph glyph-name="one" unicode="1" horiz-adv-x="2175" 
d="M1193 38c-24 82 -45.999 164.334 -65.999 247.001l-58 249l-56 249.5c-18.667 83 -39 165.833 -61 248.5c-3.33301 12.667 -1.83301 23.5 4.5 32.5s14.5 14.833 24.5 17.5s20.167 1.83398 30.5 -2.49902s17.166 -12.833 20.499 -25.5c22 -82.667 42.333 -165.5 61 -248.5
l56 -249.5l58 -249c20 -82.667 42 -165 66 -247c4 -12.667 2.66699 -23.334 -4 -32.001s-15 -14.334 -25 -17.001s-20 -2 -30 2s-17 12.333 -21 25z" />
    <glyph glyph-name="two" unicode="2" horiz-adv-x="2934" 
d="M2105 286c-92 -29.333 -186.166 -55.5 -282.499 -78.5s-193.5 -41.5 -291.5 -55.5s-196.167 -22.333 -294.5 -25s-195.833 1.66602 -292.5 12.999c-8 0.666992 -15.5 3.66699 -22.5 9s-12.333 11.5 -16 18.5s-5.16699 14.333 -4.5 22s5 14.834 13 21.501
c28.667 24 58.334 46.5 89.001 67.5l93 61.5l95 59l95 59c26.667 17.333 58.834 37.166 96.501 59.499s74.5 46.833 110.5 73.5s68 55.5 96 86.5s46 63.833 54 98.5c5.33301 25.333 2.5 45.166 -8.5 59.499s-28 24.5 -51 30.5s-50.5 8.66699 -82.5 8s-65.667 -3.5 -101 -8.5
s-71.166 -11.333 -107.499 -19s-70.5 -15.334 -102.5 -23.001l-85.5 -20.5c-25 -6 -43.833 -10 -56.5 -12c-13.333 -2 -24.5 0.666992 -33.5 8s-14.833 16 -17.5 26s-1.83398 19.667 2.49902 29s13.166 15 26.499 17c18.667 2.66699 42.334 7.66699 71.001 15l94.5 24.5
c34.333 9 70.666 17.833 108.999 26.5s76.333 15.667 114 21s74 8 109 8s66.667 -4.16699 95 -12.5s52.166 -21.666 71.499 -39.999s32.333 -43.5 39 -75.5c7.33301 -34.667 4.16602 -68.167 -9.50098 -100.5s-32.5 -62.666 -56.5 -90.999s-50.5 -54.333 -79.5 -78
s-55.5 -44.167 -79.5 -61.5c-36 -26.667 -73 -52 -111 -76l-114.5 -71.5l-114.5 -71.5c-38 -24 -75 -49 -111 -75c86.667 -5.33301 173.667 -5.16602 261 0.500977s174.333 15.5 261 29.5s172.5 31.5 257.5 52.5s168.5 44.5 250.5 70.5c12.667 4 23.334 2.83301 32 -3.5
c8.66699 -6.33301 14.334 -14.5 17 -24.5c2.66699 -10 2 -20.167 -2 -30.5s-12.333 -17.5 -25 -21.5z" />
    <glyph glyph-name="three" unicode="3" horiz-adv-x="2792" 
d="M840 132c-13.333 0.666992 -23.333 5.33398 -30 14.001s-10 18.167 -10 28.5s3.33301 19.666 10 27.999s16.667 12.5 30 12.5c67.333 -2 136.833 1.33301 208.5 10s143.167 21.834 214.5 39.501s141 39 209 64s132 52.833 192 83.5l23 12
c11.333 6 23.833 13.167 37.5 21.5s27 17.666 40 27.999s23.167 20.666 30.5 30.999s10.333 20.333 9 30s-9.33301 18.5 -24 26.5c-17.333 8.66699 -34.833 14.834 -52.5 18.501s-35.167 5.5 -52.5 5.5s-35 -1.33301 -53 -4l-55 -8c-40.667 -6 -80.667 -11 -120 -15
s-79.666 -3 -120.999 3c-10 1.33301 -17.167 5.16602 -21.5 11.499s-6.83301 13.5 -7.5 21.5s0.833008 16 4.5 24s8.5 14.333 14.5 19c22 16 47.333 32.333 76 49s56.834 34.5 84.501 53.5s53 39.833 76 62.5s39.833 47.667 50.5 75c-39.333 -1.33301 -78.333 -5 -117 -11
s-77.167 -13 -115.5 -21s-76.5 -16.5 -114.5 -25.5s-76.333 -16.833 -115 -23.5c-13.333 -2 -24.333 0.5 -33 7.5s-14.5 15.5 -17.5 25.5s-2.33301 19.833 2 29.5s13.166 15.5 26.499 17.5c44.667 8 89 17.167 133 27.5s88.167 20 132.5 29s88.833 16.333 133.5 22
s90 7.5 136 5.5c10.667 -0.666992 20.667 -4.83398 30 -12.501s13.333 -17.167 12 -28.5c-3.33301 -32 -11.666 -60.833 -24.999 -86.5s-29.666 -49.5 -48.999 -71.5s-41.166 -42.333 -65.499 -61s-49.5 -36.334 -75.5 -53.001c30 4.66699 60.167 9.66699 90.5 15
s60.166 8.66602 89.499 9.99902s57.666 -0.666992 84.999 -6s52.666 -16.666 75.999 -33.999c18 -13.333 33 -28 45 -44s19.667 -32.833 23 -50.5s1.66602 -35.5 -5.00098 -53.5s-19.667 -35.333 -39 -52c-29.333 -25.333 -60.833 -47.5 -94.5 -66.5
s-68.5 -36.167 -104.5 -51.5s-72.5 -29.166 -109.5 -41.499l-109.5 -36.5c-48 -15.333 -96.167 -29.666 -144.5 -42.999s-97 -24.666 -146 -33.999s-98.167 -16.5 -147.5 -21.5s-99.333 -6.83301 -150 -5.5z" />
    <glyph glyph-name="four" unicode="4" horiz-adv-x="2702" 
d="M952 433c-8 -3.33301 -15.5 -3.83008 -22.5 -1.49707s-12.833 6.33301 -17.5 12s-8 12 -10 19s-2.33301 14.167 -1 21.5c9.33301 49.333 19.833 98.5 31.5 147.5l34.5 147c11.333 49 22 98.333 32 148s18 99.5 24 149.5c2 12.667 7.66699 22.334 17 29.001
s19.166 10 29.499 10s19.5 -3.33301 27.5 -10s11 -16.334 9 -29.001c-11.333 -92 -27.666 -182.167 -48.999 -270.5s-41.666 -177.5 -60.999 -267.5l126.5 47c42.333 15.333 85 29.166 128 41.499s86.667 22.333 131 30s89.5 12.167 135.5 13.5
c-1.33301 78 -3.33301 155.5 -6 232.5s-6.66699 154.5 -12 232.5c-0.666992 13.333 3.16602 23.333 11.499 30s17.666 10 27.999 10s20 -3.33301 29 -10s13.833 -16.667 14.5 -30c12.667 -196 19 -392.167 19 -588.5s-0.333008 -392.833 -1 -589.5
c0 -13.333 -4.33301 -23.333 -13 -30s-18.167 -10 -28.5 -10s-19.833 3.33301 -28.5 10s-13 16.667 -13 30l2 315c0.666992 104.667 0.333984 209.667 -0.999023 315c-50 -1.33301 -99 -6.83301 -147 -16.5s-95.333 -21.834 -142 -36.501s-93 -30.834 -139 -48.501z" />
    <glyph glyph-name="five" unicode="5" horiz-adv-x="2689" 
d="M1632 318c1.33301 -31.333 -8.16504 -58.165 -28.498 -80.498s-46.833 -41.166 -79.5 -56.499s-69.5 -27.5 -110.5 -36.5s-81.667 -16 -122 -21s-78.166 -8.33301 -113.499 -10s-63.333 -2.5 -84 -2.5c-13.333 0 -23.333 4.16699 -30 12.5s-10 17.666 -10 27.999
s3.33301 20 10 29s16.667 13.5 30 13.5c9.33301 0 27.833 1.33301 55.5 4s59.167 6.5 94.5 11.5s72.166 11 110.499 18s72.666 15.167 102.999 24.5s54.333 19.833 72 31.5s23.834 24.167 18.501 37.5c-8.66699 20.667 -23.834 38 -45.501 52s-45.667 25.5 -72 34.5
s-53 16.167 -80 21.5l-68.5 14c-40 7.33301 -79.833 13.833 -119.5 19.5s-79.834 10.834 -120.501 15.501c-1.33301 0.666992 -3 1 -5 1s-3.66699 0.666992 -5 2c-6.66699 1.33301 -12.667 4.16602 -18 8.49902s-9.33301 10.833 -12 19.5c-10.667 34.667 -20 69.5 -28 104.5
l-23.5 105l-23 105c-7.66699 35 -16.167 70.167 -25.5 105.5c-3.33301 13.333 -0.833008 25.5 7.5 36.5s19.166 16.5 32.499 16.5h907c13.333 0 23.333 -4.33301 30 -13s10 -18.167 10 -28.5s-3.33301 -19.833 -10 -28.5s-16.667 -13 -30 -13h-853
c13.333 -57.333 25.833 -114.333 37.5 -171s25.5 -113.667 41.5 -171c58.667 -6.66699 116.834 -14.334 174.501 -23.001s114.5 -22.334 170.5 -41.001c20 -6.66699 42 -14.667 66 -24s46.667 -21 68 -35s39.333 -30.5 54 -49.5s22.667 -41.167 24 -66.5z" />
    <glyph glyph-name="six" unicode="6" horiz-adv-x="2651" 
d="M1000 199c-7.33301 -1.33301 -14.334 -0.836914 -21.001 1.49609s-12.5 5.83301 -17.5 10.5s-8.66699 10.334 -11 17.001s-2.83301 13.334 -1.5 20.001c-21.333 26.667 -35.833 58.167 -43.5 94.5s-6.5 78.5 3.5 126.5c8 36.667 19.333 74.167 34 112.5
s32.5 75.5 53.5 111.5s44.667 69.667 71 101s55.166 58 86.499 80c30.667 21.333 62.834 38.333 96.501 51s68 22.334 103 29.001s70.667 11.167 107 13.5s72.833 3.5 109.5 3.5c13.333 0 23.333 -4.33301 30 -13s10 -18.167 10 -28.5s-3.33301 -19.833 -10 -28.5
s-16.667 -13 -30 -13c-64 -0.666992 -122.833 -6 -176.5 -16s-102.5 -26.833 -146.5 -50.5s-83.667 -55.5 -119 -95.5s-67 -90 -95 -150c-25.333 -54 -38 -102 -38 -144s8.66699 -78.333 26 -109c39.333 32.667 83.5 65.834 132.5 99.501s99.667 63.334 152 89.001
s104.833 45.167 157.5 58.5s102.334 16.333 149.001 9c24 -4 45.333 -12.167 64 -24.5s34 -27.5 46 -45.5s20.333 -38.167 25 -60.5s4.66699 -45.5 0 -69.5c-5.33301 -30 -15.833 -57 -31.5 -81s-34.5 -45.333 -56.5 -64s-46.333 -34.834 -73 -48.501
s-53.667 -24.834 -81 -33.501c-36 -11.333 -76.5 -19.666 -121.5 -24.999s-90.5 -6.66602 -136.5 -3.99902s-90.5 10.167 -133.5 22.5s-80.833 30.166 -113.5 53.499zM1646 475.996c-15.333 14 -33.999 22.0039 -55.999 24.0039s-44.667 0.5 -68 -4.5s-46 -12 -68 -21
s-41 -17.167 -57 -24.5c-54.667 -25.333 -109.5 -53.5 -164.5 -84.5s-106.5 -65.833 -154.5 -104.5c24.667 -18 53 -32 85 -42s65.833 -16.333 101.5 -19s72.167 -1.33398 109.5 3.99902s73.666 14.666 108.999 27.999c11.333 4 25.833 10.667 43.5 20
s35.667 20.166 54 32.499s35.333 26.166 51 41.499s27.667 31.333 36 48s11.333 33.667 9 51s-12.5 34.333 -30.5 51z" />
    <glyph glyph-name="seven" unicode="7" horiz-adv-x="2745" 
d="M1905 1051c10 0 17.998 -2.33301 23.998 -7s10.333 -10.5 13 -17.5s3.33398 -14.667 2.00098 -23s-4.66602 -15.833 -9.99902 -22.5l-358.5 -463l-359.5 -462c-8 -10.667 -17 -15.5 -27 -14.5s-18.667 5 -26 12s-12 16.167 -14 27.5s1 22.333 9 33l331.5 427.5
l331.5 426.5h-1131c-13.333 0 -23.333 4.33301 -30 13s-10 18.167 -10 28.5s3.33301 19.833 10 28.5s16.667 13 30 13h1215v0z" />
    <glyph glyph-name="eight" unicode="8" horiz-adv-x="2794" 
d="M1237 941c20.667 20 45.6631 36.3359 74.9961 49.0029s61 22.167 95 28.5s69.333 10.333 106 12s72.834 1.5 108.501 -0.5s69.667 -5.5 102 -10.5s61.5 -10.167 87.5 -15.5c8.66699 -2 16.334 -7 23.001 -15s9.33398 -16.333 8.00098 -25
c-5.33301 -38.667 -16.833 -74 -34.5 -106s-39.5 -61.667 -65.5 -89s-55.167 -52.333 -87.5 -75s-65.5 -44 -99.5 -64c24.667 -16 52 -35 82 -57s58.667 -45.833 86 -71.5s51.666 -52.667 72.999 -81s35.666 -56.833 42.999 -85.5s5.83301 -57.334 -4.5 -86.001
s-33.166 -55.667 -68.499 -81c-42 -30.667 -90.333 -54.167 -145 -70.5s-111 -27 -169 -32s-116 -5.66699 -174 -2s-111.667 10.167 -161 19.5c-16 2.66699 -34 6.33398 -54 11.001s-39.833 10.667 -59.5 18s-37.5 16.666 -53.5 27.999s-28 25.666 -36 42.999
c-10 22 -14.167 44 -12.5 66s7.16699 43 16.5 63s21.833 38.833 37.5 56.5s32.167 33.167 49.5 46.5c58.667 44.667 120.667 84 186 118l196 102l-65 38c-22 13.333 -42.5 27.666 -61.5 42.999s-35.167 31.333 -48.5 48s-22.166 34.5 -26.499 53.5
s-2.66602 38.667 5.00098 59s23.167 41.833 46.5 64.5zM1626 190.003c48 16.667 81.002 35.8291 99.002 57.4961s25.333 44.667 22 69s-14.833 49.166 -34.5 74.499s-43.167 49.833 -70.5 73.5s-56 45.667 -86 66l-80 52.5c-0.666992 0.666992 -1.33398 1 -2.00098 1
s-1.33398 0.333008 -2.00098 1l-56.5 -28.5l-53.5 -27.5l-44.5 -22.5c-20.333 -10.333 -43.333 -22.666 -69 -36.999l-80.5 -47c-28 -17 -54.167 -34.667 -78.5 -53s-45.5 -36.666 -63.5 -54.999s-29.667 -35.833 -35 -52.5s-2.83301 -32 7.5 -46s31.5 -25.667 63.5 -35
c43.333 -12.667 89.166 -22.167 137.499 -28.5s97 -9.16602 146 -8.49902s97.333 4.83398 145 12.501s92.834 18.834 135.501 33.501zM1751 930.998c-29.333 4.66699 -59.667 8.16797 -91 10.501s-62.666 3.16602 -93.999 2.49902s-62.166 -3 -92.499 -7
s-59.5 -9.66699 -87.5 -17l-28.5 -7.5c-11 -3 -21.667 -6.66699 -32 -11s-20 -9.66602 -29 -15.999s-15.5 -13.833 -19.5 -22.5c-6 -15.333 -7 -29.333 -3 -42s10.5 -24.167 19.5 -34.5s19.5 -19.333 31.5 -27s22.667 -14.167 32 -19.5
c19.333 -10.667 38.666 -20.5 57.999 -29.5s38.666 -18.833 57.999 -29.5l83.5 47.5c29 17 56.5 35.667 82.5 56s48.833 42.666 68.5 66.999s34.167 50.833 43.5 79.5z" />
    <glyph glyph-name="nine" unicode="9" horiz-adv-x="2837" 
d="M1906 810c18 -34.667 28.1689 -72.9961 30.502 -114.996s-5.83398 -89 -24.501 -141c-16 -44 -37.5 -89 -64.5 -135s-58 -89.833 -93 -131.5s-73.167 -79.334 -114.5 -113.001s-84 -60.167 -128 -79.5c-43.333 -18.667 -87 -31.667 -131 -39
s-88.167 -10.666 -132.5 -9.99902s-89 4 -134 10s-89.833 13.333 -134.5 22c-13.333 2.66699 -22.166 8.66699 -26.499 18s-5 19 -2 29s8.83301 18.5 17.5 25.5s19.667 9.16699 33 6.5l115 -20c40 -6.66699 80.333 -10.667 121 -12s80.667 0.833984 120 6.50098
s76.666 17.5 111.999 35.5c34.667 17.333 68.667 38.666 102 63.999s64.833 53.333 94.5 84s56.667 63.167 81 97.5s44.5 69.166 60.5 104.499c21.333 46.667 33.166 89.334 35.499 128.001s-2.83398 74 -15.501 106c-50 -26.667 -101.5 -50.334 -154.5 -71.001
s-105.5 -39.667 -157.5 -57l-109 -34.5c-38 -11.667 -76.833 -21.334 -116.5 -29.001s-79.167 -12.334 -118.5 -14.001s-77.333 2.16602 -114 11.499c-28 6.66699 -52.833 17.334 -74.5 32.001s-39.167 32.167 -52.5 52.5s-22.333 43.333 -27 69s-4 53.167 2 82.5
c8 36 22 67.833 42 95.5s43.833 51.5 71.5 71.5s58.167 36.167 91.5 48.5s67 21.5 101 27.5c31.333 5.33301 66.166 8.66602 104.499 9.99902s77.833 0.166016 118.5 -3.50098s81.667 -10 123 -19s81 -20.833 119 -35.5s73.333 -32.167 106 -52.5s60.667 -43.833 84 -70.5
c6.66699 0 12.834 -1.66699 18.501 -5s10.334 -7.66602 14.001 -12.999s6.16699 -11.333 7.5 -18s1 -13 -1 -19zM1311 652.004c80 18 160.665 40.6689 241.998 68.002s158.333 61.333 231 102c-31.333 36 -72 65.167 -122 87.5s-103.167 38.333 -159.5 48
s-113 13.167 -170 10.5s-108.167 -11 -153.5 -25c-14 -4.66699 -30.833 -11.834 -50.5 -21.501s-39.167 -21.5 -58.5 -35.5s-37.166 -29.667 -53.499 -47s-28.333 -35.333 -36 -54s-9.83398 -37.667 -6.50098 -57s15 -38.333 35 -57
c18.667 -17.333 40.834 -28.833 66.501 -34.5s52.334 -8.33398 80.001 -8.00098s55 3 82 8s51.5 10.167 73.5 15.5z" />
    <glyph glyph-name="colon" unicode=":" horiz-adv-x="151" 
d="M50 788c13.333 0 23.333 -4.33301 30 -13s10 -18 10 -28s-3.33301 -19.333 -10 -28s-16.667 -13 -30 -13s-23.333 4.33301 -30 13s-10 18 -10 28s3.33301 19.333 10 28s16.667 13 30 13zM101 83c13.333 0 23.333 -4.33301 30 -13s10 -18.167 10 -28.5
s-3.33301 -19.833 -10 -28.5s-16.667 -13 -30 -13s-23.5 4.33301 -30.5 13s-10.5 18.167 -10.5 28.5s3.5 19.833 10.5 28.5s17.167 13 30.5 13z" />
    <glyph glyph-name="semicolon" unicode=";" horiz-adv-x="616" 
d="M443 75c10 8 20.6689 11.167 32.002 9.5s20.666 -6.16699 27.999 -13.5s11.5 -16.166 12.5 -26.499s-3.5 -19.833 -13.5 -28.5c-67.333 -54.667 -127.833 -114.667 -181.5 -180s-101.5 -136 -143.5 -212c-6.66699 -12 -15.334 -18.667 -26.001 -20
s-20.334 0.666992 -29.001 6s-15.167 13 -19.5 23s-3.16602 21 3.50098 33c44 78.667 93.833 152.167 149.5 220.5s118.167 131.166 187.5 188.499zM455.002 793c13.333 0 23.333 -4.33301 30 -13s10 -18.167 10 -28.5s-3.33301 -19.833 -10 -28.5s-16.667 -13 -30 -13
s-23.333 4.33301 -30 13s-10 18.167 -10 28.5s3.33301 19.833 10 28.5s16.667 13 30 13z" />
    <glyph glyph-name="less" unicode="&#x3c;" horiz-adv-x="2584" 
d="M1570 163c10 -8.66699 14.4971 -18.167 13.4971 -28.5s-5.16699 -19.166 -12.5 -26.499s-16.666 -11.833 -27.999 -13.5s-22 1.5 -32 9.5c-47.333 38.667 -95.666 75.834 -144.999 111.501l-148.5 106l-149.5 105c-50 35 -99 71.167 -147 108.5
c-10 8 -16.5 18.333 -19.5 31s0.833008 24 11.5 34c42.667 40 88.167 75 136.5 105s97.833 59 148.5 87c28 15.333 55.333 31.666 82 48.999l79 52.5l79 52c26.667 17 54 32.833 82 47.5c12 6 23 6.83301 33 2.5s17.667 -11 23 -20s7.16602 -18.833 5.49902 -29.5
s-8.5 -19 -20.5 -25c-25.333 -12.667 -49.666 -26.667 -72.999 -42l-69.5 -47l-69.5 -47.5c-23.333 -15.667 -47.333 -30.167 -72 -43.5l-139 -77.5c-45.333 -26.333 -88.666 -56.5 -129.999 -90.5l283 -202.5c96 -65.667 189 -134.834 279 -207.501z" />
    <glyph glyph-name="equal" unicode="=" horiz-adv-x="2623" 
d="M1745 662c12 -5.33301 20.002 -13.334 24.002 -24.001s4.66699 -21 2 -31s-8.33398 -18 -17.001 -24s-19 -6.33301 -31 -1c-62 24.667 -125.167 44.834 -189.5 60.501s-129.5 27.834 -195.5 36.501s-132.333 14.334 -199 17.001s-133 3.33398 -199 2.00098
c-13.333 0 -23.333 4.16699 -30 12.5s-10 17.666 -10 27.999s3.33301 19.833 10 28.5s16.667 13 30 13c68 1.33301 136.167 0.666016 204.5 -2.00098s136.5 -8.33398 204.5 -17.001s135.167 -21 201.5 -37s131.166 -36.667 194.499 -62zM1710 391.999
c12.667 -3.33301 21.1699 -10.002 25.5029 -20.002s5.16602 -20 2.49902 -30s-8.5 -18.167 -17.5 -24.5s-19.833 -7.83301 -32.5 -4.5c-56 14 -112.5 25 -169.5 33s-114.167 14.5 -171.5 19.5s-114.833 9.5 -172.5 13.5s-115.167 9 -172.5 15
c-13.333 1.33301 -23.166 6.66602 -29.499 15.999s-9.5 19.333 -9.5 30s3.16699 19.834 9.5 27.501s16.166 10.834 29.499 9.50098c59.333 -6.66699 118.666 -12 177.999 -16s118.666 -8.66699 177.999 -14s118.333 -12.166 177 -20.499s117 -19.833 175 -34.5z" />
    <glyph glyph-name="greater" unicode="&#x3e;" horiz-adv-x="2584" 
d="M1386 792c50.667 -28 100.165 -57 148.498 -87s93.833 -65 136.5 -105c10.667 -10 14.5 -21.333 11.5 -34s-9.5 -23 -19.5 -31c-48 -37.333 -97 -73.5 -147 -108.5l-149.5 -105l-148.5 -106c-49.333 -35.667 -97.666 -72.834 -144.999 -111.501
c-10 -8 -20.667 -11.167 -32 -9.5s-20.666 6.16699 -27.999 13.5s-11.5 16.166 -12.5 26.499s3.5 19.833 13.5 28.5c90 72.667 183 141.834 279 207.501l283 202.5c-41.333 34 -84.666 64 -129.999 90l-138 78c-25.333 13.333 -49.666 27.833 -72.999 43.5l-69.5 47.5
l-70 47c-23.667 15.333 -47.834 29.333 -72.501 42c-12 6 -18.833 14.333 -20.5 25s0.166016 20.5 5.49902 29.5s13 15.667 23 20s21 3.5 33 -2.5c28 -14.667 55.333 -30.5 82 -47.5l79 -52l79 -52.5c26.667 -17.333 54 -33.666 82 -48.999z" />
    <glyph glyph-name="question" unicode="?" horiz-adv-x="1526" 
d="M1242 1042c7.33301 -2.66699 13.834 -6.83789 19.501 -12.5049s9.66699 -12.167 12 -19.5s2.66602 -14.833 0.999023 -22.5s-5.83398 -14.5 -12.501 -20.5c-47.333 -41.333 -96.166 -80.5 -146.499 -117.5l-153 -108.5l-155.5 -105.5c-52 -35 -103 -71.5 -153 -109.5
c-11.333 -8.66699 -22.333 -11.167 -33 -7.5s-18.667 10.334 -24 20.001s-7.5 20.834 -6.5 33.501s7.16699 23.334 18.5 32.001c43.333 32.667 87.333 64.167 132 94.5l134.5 91l133.5 92.5c44 31.333 87 64 129 98c-68 16.667 -137.333 25.667 -208 27s-141.667 -1 -213 -7
s-142.5 -13.167 -213.5 -21.5s-140.833 -13.833 -209.5 -16.5c-14.667 -0.666992 -25.5 3.5 -32.5 12.5s-10.5 19.167 -10.5 30.5s3.66699 21.833 11 31.5s18 14.834 32 15.501c52 2 104.5 5.66699 157.5 11l159.5 16.5c53.333 5.66699 106.833 10.334 160.5 14.001
s107 4.66699 160 3s105.5 -6.5 157.5 -14.5s103 -21.333 153 -40zM699.001 92.9961c14.667 0 25.5 -4.66699 32.5 -14s10.5 -19.666 10.5 -30.999s-3.5 -21.666 -10.5 -30.999s-17.833 -14 -32.5 -14s-25.667 4.66699 -33 14s-11 19.666 -11 30.999
s3.66699 21.666 11 30.999s18.333 14 33 14z" />
    <glyph glyph-name="at" unicode="@" horiz-adv-x="3223" 
d="M2362 254c11.333 7.33301 22.0049 9.1709 32.0049 5.50391s17.5 -10 22.5 -19s6.83301 -19.167 5.5 -30.5s-7.33301 -20.666 -18 -27.999c-36 -24.667 -70.5 -49.5 -103.5 -74.5s-66.333 -49 -100 -72s-68.5 -44.833 -104.5 -65.5s-75 -39 -117 -55l-254.5 -96.5
c-85.667 -32.333 -172.834 -58.166 -261.501 -77.499c-63.333 -14 -128.833 -21.833 -196.5 -23.5s-132.834 5.66602 -195.501 21.999s-120.834 43.166 -174.501 80.499s-98.167 87.666 -133.5 150.999c-29.333 52.667 -48 106.334 -56 161.001s-7.5 109 1.5 163
s25.667 107.333 50 160s53.833 103.334 88.5 152.001s73.667 94.834 117 138.501s88.5 84 135.5 121s94.833 69.833 143.5 98.5s96 52 142 70c38.667 15.333 79.834 30.333 123.501 45s88.334 27.167 134.001 37.5s91.5 17.666 137.5 21.999s91.333 3.66602 136 -2.00098
s87.5 -16.834 128.5 -33.501s79.5 -40.667 115.5 -72c49.333 -43.333 82.5 -89.666 99.5 -138.999s21.167 -98.5 12.5 -147.5s-28.334 -96.667 -59.001 -143s-68.667 -88.5 -114 -126.5c-22 -18 -45.833 -35 -71.5 -51s-52 -29.333 -79 -40s-53.833 -18.334 -80.5 -23.001
s-51.834 -4.83398 -75.501 -0.500977s-45.167 13.833 -64.5 28.5s-34.666 35.667 -45.999 63c-14.667 -16 -30.667 -32.167 -48 -48.5s-35.166 -31.333 -53.499 -45s-37.166 -25.167 -56.499 -34.5s-38.166 -14.5 -56.499 -15.5s-36 3 -53 12s-32.5 24.833 -46.5 47.5
c-12 19.333 -19.5 41.666 -22.5 66.999s-2.33301 51.666 2 78.999s11.5 55 21.5 83s21.833 54.333 35.5 79s29 46.667 46 66s34.167 34.666 51.5 45.999c35.333 22 65.166 33.5 89.499 34.5s44.666 -5 60.999 -18s29.666 -31.333 39.999 -55s18.666 -49.5 24.999 -77.5
s11.666 -56.167 15.999 -84.5s9.16602 -53.833 14.499 -76.5c6.66699 -30 19.167 -50.167 37.5 -60.5s39.666 -14 63.999 -11s50.166 11.333 77.499 25s53.666 29 78.999 46s48 34.5 68 52.5s35 33.333 45 46c32 40 53.167 82 63.5 126s9.83301 85.667 -1.5 125
s-33.333 74.5 -66 105.5s-75.334 53.833 -128.001 68.5c-65.333 18 -133.166 25.167 -203.499 21.5s-140.166 -15.5 -209.499 -35.5s-136.166 -46.333 -200.499 -79s-122.833 -68.667 -175.5 -108c-46 -34.667 -93.333 -74.5 -142 -119.5s-92.834 -93.667 -132.501 -146
s-72.5 -107.833 -98.5 -166.5s-39.667 -119 -41 -181c-1.33301 -38.667 3 -76.5 13 -113.5s24.667 -71.5 44 -103.5s43 -61.167 71 -87.5s59.667 -48.166 95 -65.499c42 -20.667 84.5 -35.167 127.5 -43.5s86.5 -12 130.5 -11s87.833 5.83301 131.5 14.5
s87.167 19.667 130.5 33c72.667 22.667 144.834 46.5 216.501 71.5s142.834 51.5 213.501 79.5c40 16 77 34 111 54s67 41.333 99 64l95.5 70c31.667 24 64.834 47.667 99.5 71zM1577 463.005c14.667 14.667 28.835 29.6689 42.502 45.002l40.5 46
c-1.33301 14.667 -2.33301 29.667 -3 45s-2.16699 30.5 -4.5 45.5s-5.83301 29.167 -10.5 42.5s-11 25.666 -19 36.999c-12 16.667 -24.667 24.334 -38 23.001s-26.333 -7.83301 -39 -19.5s-24.667 -26.834 -36 -45.501s-21.5 -37.334 -30.5 -56.001
s-16.5 -35.5 -22.5 -50.5s-9.33301 -24.5 -10 -28.5c-4.66699 -18.667 -9.16699 -39 -13.5 -61s-3.5 -42.667 2.5 -62c4 -12 9.83301 -19.833 17.5 -23.5s16.167 -4.5 25.5 -2.5s19.166 6 29.499 12s20.166 12.5 29.499 19.5s17.5 13.667 24.5 20s11.833 10.833 14.5 13.5z
" />
    <glyph glyph-name="A" unicode="A" horiz-adv-x="2613" 
d="M1711 99c4 -13.333 2.6709 -24.3369 -3.99609 -33.0039s-15 -14.334 -25 -17.001s-20 -2 -30 2s-17 12.667 -21 26l-68.5 224.5l-73.5 223.5c-52 -3.33301 -103.167 -9.16602 -153.5 -17.499s-101.166 -18.166 -152.499 -29.499c-31.333 -74.667 -64 -148.167 -98 -220.5
s-70 -143.833 -108 -214.5c-6.66699 -12 -15.334 -18.667 -26.001 -20s-20.334 0.666992 -29.001 6s-15.167 13 -19.5 23s-3.16602 21 3.50098 33c32.667 60.667 63.834 122.167 93.501 184.5l86.5 190.5c-9.33301 2 -16.833 6.83301 -22.5 14.5s-9 15.834 -10 24.501
s0.833008 17 5.5 25s12.667 13.333 24 16c7.33301 1.33301 14.166 2.83301 20.499 4.5s13.166 3.16699 20.499 4.5l98.5 246l93.5 245c4 10 9.66699 17.5 17 22.5s15.166 7.5 23.499 7.5s16.166 -2.5 23.499 -7.5s12.666 -12.5 15.999 -22.5l76.5 -213.5l74.5 -214.5
c38 0.666992 75.333 0.666992 112 0c13.333 -0.666992 23.333 -5.5 30 -14.5s10 -18.667 10 -29s-3.33301 -19.666 -10 -27.999s-16.667 -12.166 -30 -11.499c-14 0.666992 -28 1 -42 1h-42l70 -215zM1222 570.996c40 8 79.832 15 119.499 21s79.834 10.667 120.501 14
l-53 152.5l-54 151.5l-65 -169.5z" />
    <glyph glyph-name="B" unicode="B" horiz-adv-x="3013" 
d="M1378 596c32 2 69.5 4.83203 112.5 8.49902s88.667 7 137 10s97.833 5.5 148.5 7.5s99.334 2.16699 146.001 0.5s89.834 -5.5 129.501 -11.5s72.667 -15 99 -27s44.666 -27.667 55 -47c10.333 -19.333 9.5 -43 -2.5 -71c-8 -19.333 -20.667 -37.166 -38 -53.499
s-37.166 -31.5 -59.499 -45.5s-46.5 -26.833 -72.5 -38.5s-51.667 -22.334 -77 -32.001l-73 -27l-61 -22.5l-153.5 -59c-51.667 -19.333 -104 -37.333 -157 -54s-106.333 -31.667 -160 -45s-107.5 -23.666 -161.5 -30.999c-13.333 -2 -24.333 0.833008 -33 8.5
s-14.5 16.5 -17.5 26.5s-2.33301 19.5 2 28.5s13.166 14.5 26.499 16.5c42.667 6 85.667 14 129 24c-18 62.667 -34.5 125.5 -49.5 188.5l-44 190l-43 190.5c-14.333 63.333 -29.5 126.666 -45.5 189.999c-29.333 -2 -58.333 -3.33301 -87 -4s-57.667 0.666016 -87 3.99902
c-13.333 1.33301 -23.333 6.66602 -30 15.999s-10 19.166 -10 29.499s3.33301 19.5 10 27.5s16.667 11.333 30 10c45.333 -4.66699 90.5 -5.66699 135.5 -3s89.833 6.33398 134.5 11.001l134 14.5c44.667 5 89.167 7.83301 133.5 8.5s88.666 -2.16602 132.999 -8.49902
s88.5 -18.166 132.5 -35.499c15.333 -6 24.833 -15.833 28.5 -29.5s0.166992 -27.167 -10.5 -40.5c-27.333 -32 -57 -61.667 -89 -89s-64.667 -53.666 -98 -78.999l-100.5 -76c-33.667 -25.333 -65.834 -52.333 -96.501 -81zM1658 930.999
c-38 10 -75.999 16.334 -113.999 19.001s-76.167 3.16699 -114.5 1.5s-76.833 -4.83398 -115.5 -9.50098s-77.334 -9 -116.001 -13l38.5 -159.5l36.5 -160.5c28.667 30.667 59.167 59.167 91.5 85.5l99 77.5l100 76.5c33 25.667 64.5 53.167 94.5 82.5zM2112 484
c12.667 10.667 14.835 19.999 6.50098 27.999c-8.33301 8 -20.666 14.5 -37 19.5c-16.333 5 -33.5 8.66699 -51.5 11s-31 3.5 -39 3.5c-44.667 1.33301 -89 0.5 -133 -2.5s-88 -6.5 -132 -10.5c-35.333 -3.33301 -71 -7.33301 -107 -12s-72 -8.5 -108 -11.5
s-72 -4.66699 -108 -5s-72 1.83398 -108 6.50098l40 -165c13.333 -54.667 27.666 -109.334 42.999 -164.001c50.667 13.333 101 28.5 151 45.5l148 52.5l110.5 39c39 13.333 78 27.833 117 43.5s76.333 33.334 112 53.001s67.5 42.5 95.5 68.5z" />
    <glyph glyph-name="C" unicode="C" horiz-adv-x="2623" 
d="M1691 119l-116.998 -0.000976562c-42.667 0 -87 1.5 -133 4.5s-92.167 7.83301 -138.5 14.5s-90.666 16.334 -132.999 29.001s-81.333 29.167 -117 49.5s-65.667 45.5 -90 75.5s-42 65.333 -53 106s-12.5 88 -4.5 142c9.33301 64.667 31 122.834 65 174.501
s76 96 126 133s105.667 66.333 167 88s123.666 34.167 186.999 37.5s125.666 -2.66699 186.999 -18s117 -41 167 -77c10.667 -8 16.5 -17.667 17.5 -29s-1 -21.5 -6 -30.5s-12.5 -15.333 -22.5 -19s-20.333 -1.5 -31 6.5c-40.667 29.333 -88.334 50.666 -143.001 63.999
s-111 18.5 -169 15.5s-115.167 -13.5 -171.5 -31.5s-106.5 -43.5 -150.5 -76.5s-79.333 -73 -106 -120s-39.334 -100.5 -38.001 -160.5c1.33301 -56 14.333 -102.167 39 -138.5s56.667 -65.333 96 -87s84 -37.667 134 -48s101 -17 153 -20s102.833 -4 152.5 -3
s93.834 1.5 132.501 1.5c13.333 0 23.333 -4.33301 30 -13s10 -18.167 10 -28.5s-3.33301 -19.833 -10 -28.5s-16.667 -13 -30 -13z" />
    <glyph glyph-name="D" unicode="D" horiz-adv-x="2999" 
d="M2148 521c2.66699 -22 -2.16602 -42.834 -14.5 -62.501c-12.333 -19.667 -29.166 -38.5 -50.5 -56.5c-21.333 -18 -45.666 -34.833 -72.999 -50.5s-54.666 -29.834 -81.999 -42.501l-76.5 -34l-56.5 -24l-156.5 -70c-53 -23.333 -106.5 -45.166 -160.5 -65.499
s-108.667 -38.666 -164 -54.999s-111 -29.5 -167 -39.5c-13.333 -2.66699 -24.333 -0.333984 -33 6.99902s-14.5 16 -17.5 26s-2.33301 19.833 2 29.5s13.166 15.5 26.499 17.5c26.667 4.66699 53.167 10.167 79.5 16.5s52.5 13.5 78.5 21.5
c-32 108.667 -60 217.5 -84 326.5l-74 329.5c-41.333 -6 -82.666 -15 -123.999 -27c-12.667 -4 -23.334 -2.83301 -32.001 3.5s-14.334 14.5 -17.001 24.5s-2 20.167 2 30.5s12.333 17.5 25 21.5c20.667 6 41.5 11.333 62.5 16s42.167 8.66699 63.5 12
c-5.33301 24 -11 48.167 -17 72.5s-12.333 48.5 -19 72.5c-3.33301 12.667 -1.66602 23.5 5.00098 32.5s15 14.833 25 17.5s20 1.83398 30 -2.49902s16.667 -12.833 20 -25.5c7.33301 -26.667 14.166 -53 20.499 -79l19.5 -79c88.667 6 177.667 2.83301 267 -9.5
s175 -30.166 257 -53.499l81.5 -24.5c29.667 -9 60 -19.5 91 -31.5s61.333 -25.833 91 -41.5s56.5 -33.5 80.5 -53.5s44.167 -42.333 60.5 -67s26.5 -52.334 30.5 -83.001zM2064 506.999c10.667 18.667 8.66406 37.498 -6.00293 56.498s-36.667 37.5 -66 55.5
s-63 35 -101 51s-75 30.167 -111 42.5s-68.167 22.5 -96.5 30.5s-47.166 13 -56.499 15c-67.333 14.667 -136.333 26.5 -207 35.5s-141.334 11.833 -212.001 8.5l72.5 -320.5c23.667 -106.333 50.834 -212.166 81.501 -317.499c44 14.667 87.167 30.5 129.5 47.5l126.5 51.5
l147 64.5c48.667 22.333 96.667 46.5 144 72.5l39.5 20.5c15 7.66699 29.833 15.834 44.5 24.501s28.334 18.167 41.001 28.5s22.667 21.5 30.001 33.5z" />
    <glyph glyph-name="E" unicode="E" horiz-adv-x="2818" 
d="M1978 291c-29.333 -2 -67.668 -5.50195 -115.001 -10.502s-99.5 -9.83301 -156.5 -14.5s-116.667 -8.16699 -179 -10.5s-123.833 -1.66602 -184.5 2.00098s-118.334 11.167 -173.001 22.5s-102.334 28.5 -143.001 51.5s-72.5 52.5 -95.5 88.5s-33.167 80.333 -30.5 133
c1.33301 32.667 9.5 61.834 24.5 87.501s34.333 48.167 58 67.5s50.5 36 80.5 50s60.833 25.833 92.5 35.5s62.834 17.167 93.501 22.5s58.667 9.33301 84 12c26 2.66699 54.833 5 86.5 7s64.334 2.66699 98.001 2s67.5 -3.16699 101.5 -7.5s66.333 -11.5 97 -21.5
s58.667 -23.333 84 -40s46.666 -37.667 63.999 -63c8 -12 8.66699 -23.833 2 -35.5s-15.667 -20.167 -27 -25.5c-55.333 -22.667 -113.833 -38 -175.5 -46s-124 -10.5 -187 -7.5s-125.333 10.833 -187 23.5s-120.167 28 -175.5 46c-6 2.66699 -11 5.66699 -15 9
c-25.333 -13.333 -47.333 -27.5 -66 -42.5s-32.667 -31 -42 -48s-13.333 -34.833 -12 -53.5s9 -37.667 23 -57c25.333 -34 59.5 -59.667 102.5 -77s89.167 -29.333 138.5 -36s98.5 -10 147.5 -10s92.167 0.333008 129.5 1c76.667 1.33301 152.834 5.16602 228.501 11.499
s151.834 11.833 228.501 16.5c13.333 0.666992 23.333 -3 30 -11s10 -17.167 10 -27.5s-3.33301 -20.166 -10 -29.499s-16.667 -14.333 -30 -15zM1753 701.998c-27.333 19.333 -62 33.499 -104 42.499s-87.333 13.667 -136 14s-98.5 -3.16699 -149.5 -10.5
s-99.5 -18 -145.5 -32c42.667 -11.333 86.667 -20.666 132 -27.999s90.833 -12 136.5 -14s91 -0.833008 136 3.5s88.5 12.5 130.5 24.5z" />
    <glyph glyph-name="F" unicode="F" horiz-adv-x="2654" 
d="M1763 1027c13.333 0 23.3311 -4.33008 29.998 -12.9971s10 -18 10 -28s-3.33301 -19.333 -10 -28s-16.667 -13 -30 -13h-621c12.667 -48 24.334 -94.667 35.001 -140l31 -136h317c13.333 0 23.333 -4.33301 30 -13s10 -18.167 10 -28.5s-3.33301 -19.833 -10 -28.5
s-16.667 -13 -30 -13h-298l62 -266c21.333 -88 46 -179 74 -273c4 -12.667 2.66699 -23.334 -4 -32.001s-15 -14.334 -25 -17.001s-20 -2 -30 2s-17 12.333 -21 25c-29.333 97.333 -54.833 192 -76.5 284l-63.5 277h-10c-12.667 0 -22.334 3.83301 -29.001 11.5
s-10.334 16.334 -11.001 26.001s1.5 19 6.5 28s13.167 14.5 24.5 16.5l-32 134.5l-34 137.5h-16c-11.333 0 -21.166 4 -29.499 12s-12.5 17.667 -12.5 29s4.16699 21.166 12.5 29.499s18.166 12.5 29.499 12.5c-1.33301 3.33301 -2.16602 6.83301 -2.49902 10.5
s-1.16602 7.16699 -2.49902 10.5c-3.33301 11.333 -2.16602 21.833 3.50098 31.5s14.167 16.167 25.5 19.5c10.667 3.33301 21 2.16602 31 -3.50098s16.667 -14.167 20 -25.5l9 -39h637v0z" />
    <glyph glyph-name="G" unicode="G" horiz-adv-x="2880" 
d="M1988 399c10 0 18.499 -3.00195 25.499 -9.00195s11.667 -13.333 14 -22s2.16602 -17.334 -0.500977 -26.001s-8.66699 -15.334 -18 -20.001c-56 -30 -118 -59.5 -186 -88.5s-137.833 -53 -209.5 -72s-143.334 -30.5 -215.001 -34.5s-139.834 4.33301 -204.501 25
c-28 8.66699 -57.667 19.834 -89 33.501s-61.5 29.5 -90.5 47.5s-55.833 38.333 -80.5 61s-44.334 47.667 -59.001 75s-23 56.833 -25 88.5s5.33301 65.5 22 101.5c24 53.333 57.833 102.333 101.5 147s92.5 84 146.5 118s110.833 62.167 170.5 84.5s117.5 37.5 173.5 45.5
c28 4 60.167 7.33301 96.5 10s74 3.16699 113 1.5s77.5 -6.33398 115.5 -14.001s72.333 -19.667 103 -36s56.167 -37.666 76.5 -63.999s32.166 -58.833 35.499 -97.5c1.33301 -13.333 -2 -23.333 -10 -30s-17.167 -10 -27.5 -10s-20.166 3.33301 -29.499 10
s-14.666 16.667 -15.999 30c-2.66699 30.667 -15.334 55.167 -38.001 73.5s-51 32 -85 41s-71.333 14.333 -112 16s-80.667 1 -120 -2s-75.666 -7.66699 -108.999 -14s-59.333 -12.833 -78 -19.5c-24 -8.66699 -51.667 -19.5 -83 -32.5s-63.666 -28.167 -96.999 -45.5
s-66.166 -36.833 -98.499 -58.5s-60.833 -45 -85.5 -70s-44.5 -52 -59.5 -81s-21.833 -59.167 -20.5 -90.5s9.83301 -59.666 25.5 -84.999s36 -47.666 61 -66.999s53.333 -35.833 85 -49.5s63.834 -24.667 96.501 -33s64.834 -14.166 96.501 -17.499s60.167 -4 85.5 -2
c72 5.33301 142.667 16.5 212 33.5s137.333 38.833 204 65.5h-406c-13.333 0 -23.5 4.33301 -30.5 13s-10.5 18.167 -10.5 28.5s3.5 19.833 10.5 28.5s17.167 13 30.5 13h593v0z" />
    <glyph glyph-name="H" unicode="H" horiz-adv-x="3102" 
d="M1857 1055c22 -82.667 42.501 -165.668 61.501 -249.001l56.5 -250l58 -249.5c20 -83 42 -165.5 66 -247.5c4 -12.667 2.83301 -23.334 -3.5 -32.001s-14.5 -14.334 -24.5 -17.001s-20.167 -2 -30.5 2s-17.5 12.333 -21.5 25c-25.333 86.667 -48.333 173.334 -69 260.001
l-61 261h-691l59 -250c20 -82.667 42 -165.667 66 -249c4 -12.667 2.83301 -23.334 -3.5 -32.001s-14.5 -14.334 -24.5 -17.001s-20 -2 -30 2s-17 12.333 -21 25c-24.667 82 -47 164.5 -67 247.5l-58 249.5l-56 250c-18.667 83.333 -39 166.333 -61 249
c-3.33301 12.667 -1.83301 23.334 4.5 32.001s14.5 14.334 24.5 17.001s20.167 2 30.5 -2s17.166 -12.333 20.499 -25c18 -68.667 35 -137.5 51 -206.5l47 -207.5h691l-44.5 196.5c-15 65 -31.167 130.167 -48.5 195.5c-3.33301 12.667 -1.83301 23.334 4.5 32.001
s14.5 14.334 24.5 17.001s20 2 30 -2s16.667 -12.333 20 -25z" />
    <glyph glyph-name="I" unicode="I" horiz-adv-x="2326" 
d="M1002 1033c-3.33301 12.667 -1.83203 23.334 4.50098 32.001s14.5 14.334 24.5 17.001s20.167 2 30.5 -2s17.166 -12.333 20.499 -25c22 -82.667 42.333 -165.667 61 -249l56 -250l58 -249.5c20 -83 42 -165.5 66 -247.5c4 -12.667 2.83301 -23.334 -3.5 -32.001
s-14.5 -14.334 -24.5 -17.001s-20 -2 -30 2s-17 12.333 -21 25c-24.667 82 -47 164.5 -67 247.5l-58 249.5l-56 250c-18.667 83.333 -39 166.333 -61 249z" />
    <glyph glyph-name="J" unicode="J" horiz-adv-x="2548" 
d="M1482 1114c23.333 -60.667 44.5049 -127.826 63.5049 -201.493s33 -148.834 42 -225.501s11.833 -152.334 8.5 -227.001s-15.333 -143.334 -36 -206.001c-24 -72.667 -57.667 -131 -101 -175s-92.833 -76.667 -148.5 -98s-115.834 -32.333 -180.501 -33s-131 6 -199 20
c-13.333 2.66699 -22.166 9 -26.499 19s-5 20 -2 30s8.83301 18.5 17.5 25.5s19.667 9.16699 33 6.5c34 -7.33301 68 -13.5 102 -18.5s67.667 -6.83301 101 -5.5s66 6.66602 98 15.999s63 24.666 93 45.999c35.333 24.667 64.166 54.5 86.499 89.5s39.5 72.333 51.5 112
s19.5 80.667 22.5 123s3.5 83.833 1.5 124.5c-2 42 -5.5 85 -10.5 129s-11.333 88.167 -19 132.5s-16.834 88.166 -27.501 131.499s-23 85.333 -37 126l-141 -32l-141 -32c-13.333 -3.33301 -24.333 -1.5 -33 5.5s-14.334 15.5 -17.001 25.5s-1.83398 19.833 2.49902 29.5
s13.166 16.167 26.499 19.5l159 36l160 36c11.333 3.33301 21.5 2.16602 30.5 -3.50098s15.833 -14.167 20.5 -25.5z" />
    <glyph glyph-name="K" unicode="K" horiz-adv-x="2840" 
d="M1120 -44c0 98.667 0.166016 197.169 0.499023 295.502s0.166016 196.666 -0.500977 294.999s-2.33398 196.666 -5.00098 294.999s-7.33398 196.5 -14.001 294.5c-0.666992 13.333 3 23.333 11 30s17.167 10 27.5 10s20 -3.33301 29 -10s14.167 -16.667 15.5 -30
c7.33301 -108 12.166 -215.5 14.499 -322.5s3.83301 -214.833 4.5 -323.5c26.667 11.333 52.334 24.333 77.001 39l74 44c24.667 14.667 49.667 28.5 75 41.5s52.333 23.5 81 31.5c50.667 14.667 101.5 27.5 152.5 38.5s101.833 23.167 152.5 36.5
c12.667 3.33301 23.5 1.66602 32.5 -5.00098s14.833 -15 17.5 -25s1.83398 -20 -2.49902 -30s-12.833 -16.667 -25.5 -20c-28.667 -7.33301 -57.667 -14.166 -87 -20.499l-88 -19c-29.333 -6.33301 -58.333 -13.5 -87 -21.5s-57 -17.333 -85 -28
c-32 -12.667 -62.5 -28 -91.5 -46l-87.5 -53c50.667 -21.333 99 -46.333 145 -75s91.333 -58.834 136 -90.501l134.5 -94c45 -31 92.167 -59.167 141.5 -84.5c12 -6 18.833 -14.333 20.5 -25s-0.166016 -20.5 -5.49902 -29.5s-13.166 -15.667 -23.499 -20
s-21.5 -3.5 -33.5 2.5c-54 28 -105.667 59.5 -155 94.5l-148 104.5c-49.333 34.667 -100 66.834 -152 96.501s-107.667 53.167 -167 70.5c0 -74.667 -0.166992 -149.167 -0.5 -223.5s-0.5 -148.833 -0.5 -223.5c0 -13.333 -4.5 -23.333 -13.5 -30s-18.667 -10 -29 -10
s-19.666 3.33301 -27.999 10s-12.5 16.667 -12.5 30z" />
    <glyph glyph-name="L" unicode="L" horiz-adv-x="2660" 
d="M1757 140c12.667 2 23.5 -0.500977 32.5 -7.50098s15 -15.5 18 -25.5s2.33301 -19.667 -2 -29s-13.166 -15 -26.499 -17l-361 -57c-119.333 -19.333 -239 -41.666 -359 -66.999c-5.33301 -2 -10.333 -3 -15 -3c-9.33301 -0.666992 -17.333 1.5 -24 6.5
s-11.667 11.167 -15 18.5c-2.66699 5.33301 -4 9.66602 -4 12.999c-0.666992 0.666992 -1 2 -1 4v2c0 5.33301 0.333008 9.33301 1 12c34.667 186.667 63.667 373.834 87 561.501s35.666 376.5 36.999 566.5c0 13.333 4.33301 23.333 13 30s18 10 28 10
s19.333 -3.33301 28 -10s13 -16.667 13 -30v-40c0 -4 -0.333008 -7.33301 -1 -10c-3.33301 -175.333 -15.5 -349.5 -36.5 -522.5s-46.833 -345.5 -77.5 -517.5c110.667 22 221.167 41.833 331.5 59.5z" />
    <glyph glyph-name="M" unicode="M" horiz-adv-x="3146" 
d="M2031 1034c16 -162.667 30.5029 -325 43.5029 -487s20.167 -325 21.5 -489c0 -13.333 -4.33301 -23.333 -13 -30s-18.167 -10 -28.5 -10s-19.833 3.33301 -28.5 10s-13 16.667 -13 30c-0.666992 142.667 -6.16699 284.334 -16.5 425.001s-22.5 282.334 -36.5 425.001
l-180 -290c-59.333 -96 -122.666 -190.333 -189.999 -283c-7.33301 -11.333 -17.5 -18.166 -30.5 -20.499s-24.5 1.5 -34.5 11.5c-21.333 21.333 -40.833 44.833 -58.5 70.5s-34.5 52.334 -50.5 80.001s-31.167 55.5 -45.5 83.5l-42.5 81l-61 112
c-20 37.333 -39.333 75.333 -58 114c-7.33301 -135.333 -13.333 -270 -18 -404s-7.33398 -269 -8.00098 -405c0 -13.333 -4.33301 -23.333 -13 -30s-18.167 -10 -28.5 -10s-19.833 3.33301 -28.5 10s-13 16.667 -13 30c0.666992 164 4.5 326.833 11.5 488.5
s14.833 324.167 23.5 487.5c0.666992 8.66699 3.16699 16 7.5 22s9.66602 10.5 15.999 13.5s13.166 4.5 20.499 4.5s14 -1.33301 20 -4c12.667 -4.66699 21.334 -13.334 26.001 -26.001c24 -68.667 52.833 -135.334 86.5 -200.001s68.5 -128.334 104.5 -191.001l62.5 -116.5
c21 -41 45.167 -78.833 72.5 -113.5c70.667 100.667 138 203.334 202 308.001l195 313c1.33301 10.667 6.16602 18.5 14.499 23.5s17.333 7.16699 27 6.5s18.667 -4.33398 27 -11.001s13.166 -16.334 14.499 -29.001z" />
    <glyph glyph-name="N" unicode="N" horiz-adv-x="3108" 
d="M1900 181c-2 -7.33301 -5.66406 -13.333 -10.9971 -18s-11.333 -8 -18 -10s-13.5 -2.16699 -20.5 -0.5s-13.5 5.16699 -19.5 10.5l-284.5 285.5l-284.5 285.5c-30 -118 -58.667 -236.333 -86 -355s-58.333 -236.334 -93 -353.001c-4 -12.667 -11.167 -21 -21.5 -25
s-20.5 -4.66699 -30.5 -2s-18.167 8.33398 -24.5 17.001s-7.5 19.334 -3.5 32.001c19.333 64 37.166 128.333 53.499 193l48 194.5l46.5 195c15.333 65 31.666 129.833 48.999 194.5c2 8 5.66699 14.5 11 19.5s11.5 8.33301 18.5 10s14.167 1.66699 21.5 0
s13.666 -5.16699 18.999 -10.5l285 -286l285 -286c18 65.333 34.5 131.166 49.5 197.499l44 199l44 199c15 66.333 31.167 132.5 48.5 198.5c3.33301 12.667 10 21.167 20 25.5s20 5.16602 30 2.49902s18.333 -8.5 25 -17.5s8.33398 -19.833 5 -32.5
c-19.333 -71.333 -36.833 -143.166 -52.5 -215.499l-47 -217l-49 -216.5c-17 -72 -36.167 -143.333 -57.5 -214z" />
    <glyph glyph-name="O" unicode="O" horiz-adv-x="2516" 
d="M1614 540c-4 -45.333 -15.5 -89.167 -34.5 -131.5s-44 -79.833 -75 -112.5s-67.333 -58.334 -109 -77.001s-87.167 -26.667 -136.5 -24c-46.667 2.66699 -92 13.334 -136 32.001s-82.833 43.834 -116.5 75.501s-60.334 68.667 -80.001 111s-28.167 88.833 -25.5 139.5
c3.33301 56.667 15.5 106.5 36.5 149.5s47.833 78.833 80.5 107.5s69.334 50.167 110.001 64.5s82.334 21.833 125.001 22.5s84.667 -5.83301 126 -19.5s78.666 -34.334 111.999 -62.001s61 -62.334 83 -104.001s35.333 -90.5 40 -146.5c1.33301 -5.33301 2 -9.33301 2 -12
c0 -3.33301 -0.666992 -7.66602 -2 -12.999zM984 552.999c3.33301 -58.667 18.667 -107.832 46 -147.499s60.833 -69.334 100.5 -89.001s82.334 -29.5 128.001 -29.5s88.334 10 128.001 30s73.167 49.5 100.5 88.5s42.666 88.167 45.999 147.5
c-2 36 -10.167 70.833 -24.5 104.5s-33.5 63.334 -57.5 89.001s-52.333 46 -85 61s-68.334 21.5 -107.001 19.5c-36 -2 -70.833 -10.167 -104.5 -24.5s-63.5 -33.5 -89.5 -57.5s-46.5 -52.333 -61.5 -85s-21.5 -68.334 -19.5 -107.001z" />
    <glyph glyph-name="P" unicode="P" horiz-adv-x="2581" 
d="M1387 958c22 -5.33301 47.999 -12.002 77.999 -20.002s59.5 -18.5 88.5 -31.5s54.833 -28.667 77.5 -47s37.667 -40.833 45 -67.5c7.33301 -28.667 5.83301 -53.834 -4.5 -75.501s-26.833 -40.5 -49.5 -56.5s-49.834 -29.667 -81.501 -41s-65.167 -20.666 -100.5 -27.999
s-70.666 -13.166 -105.999 -17.499s-68 -7.5 -98 -9.5l59 -253.5c20 -83.667 42.333 -167.5 67 -251.5c4 -12.667 2.83301 -23.334 -3.5 -32.001s-14.5 -14.334 -24.5 -17.001s-20.167 -2 -30.5 2s-17.5 12.333 -21.5 25c-25.333 87.333 -48.5 174.333 -69.5 261
s-41.167 174 -60.5 262h-9c-12.667 0 -22.334 3.66699 -29.001 11s-10.5 15.833 -11.5 25.5s1.16699 19 6.5 28s13.666 14.833 24.999 17.5l-33.5 145l-34.5 144l-75 9c-13.333 1.33301 -23.333 6.66602 -30 15.999s-10 19.333 -10 30s3.33301 19.834 10 27.501
s16.667 10.834 30 9.50098l54 -6c-1.33301 2.66699 -2.16602 5.16699 -2.49902 7.5s-1.16602 5.16602 -2.49902 8.49902c-3.33301 12.667 -1.66602 23.334 5.00098 32.001s15 14.334 25 17.001s20 2 30 -2s16.667 -12.333 20 -25c2.66699 -8.66699 5 -17 7 -25l6 -24
c42.667 -6 85.167 -12.667 127.5 -20s84.5 -16.666 126.5 -27.999zM1404 675.998c10.667 2 24.832 5.16895 42.499 9.50195s35.667 9.66602 54 15.999s35.333 13.5 51 21.5s26.834 16.667 33.501 26s7.16699 19.666 1.5 30.999s-20.5 23.333 -44.5 36
c-58.667 30.667 -121 53.5 -187 68.5s-133 27.167 -201 36.5l32.5 -137l30.5 -137c32 2.66699 63.5 6.5 94.5 11.5s61.833 10.833 92.5 17.5z" />
    <glyph glyph-name="Q" unicode="Q" horiz-adv-x="2700" 
d="M1831 29c10.667 -8 16.499 -17.668 17.499 -29.001s-1 -21.5 -6 -30.5s-12.5 -15.167 -22.5 -18.5s-20.333 -1 -31 7c-79.333 56 -156.333 115 -231 177c-34 -21.333 -70.333 -36.833 -109 -46.5s-80 -12.167 -124 -7.5c-62 6.66699 -120 24.5 -174 53.5
s-100.333 66 -139 111s-68 96.5 -88 154.5s-27 119 -21 183c4 38.667 12.167 77.5 24.5 116.5s28.666 76.167 48.999 111.5s44.333 67.833 72 97.5s58.334 55 92.001 76s70 36.333 109 46s80.5 12.167 124.5 7.5c64.667 -7.33301 123 -25 175 -53s96.167 -64 132.5 -108
s64.333 -94.167 84 -150.5s29.5 -116.166 29.5 -179.499c0.666992 -2 1 -5.66699 1 -11c0 -1.33301 -0.166992 -2.83301 -0.5 -4.5s-0.5 -3.16699 -0.5 -4.5c-7.33301 -63.333 -25.666 -125 -54.999 -185s-67.333 -112 -114 -156l101.5 -80zM1325 163.999
c30 -0.666992 58.168 1.99805 84.501 7.99805s51.5 14.333 75.5 25l-64 58l-64 59c-9.33301 9.33301 -13.333 19.333 -12 30s5.66602 19.667 12.999 27s16.333 11.833 27 13.5s21 -2.16602 31 -11.499l71 -66.5l73 -64.5c43.333 34 78.166 76.333 104.499 127
s42.5 106.334 48.5 167.001c0.666992 48 -6.33301 96.833 -21 146.5s-36.5 94.5 -65.5 134.5s-64.667 72.833 -107 98.5s-90.833 38.834 -145.5 39.501c-51.333 0.666992 -100.166 -8.5 -146.499 -27.5s-87.333 -45.333 -123 -79s-64.167 -73.167 -85.5 -118.5
s-32.333 -94.333 -33 -147c-0.666992 -48 6.33301 -96.833 21 -146.5s36.5 -94.5 65.5 -134.5s64.667 -72.833 107 -98.5s90.833 -38.834 145.5 -39.501z" />
    <glyph glyph-name="R" unicode="R" horiz-adv-x="2893" 
d="M2122 107c11.333 -6.66699 17.8369 -15.334 19.5039 -26.001s-0.166016 -20.5 -5.5 -29.5c-5.33301 -9 -13 -15.667 -23 -20s-21 -3.16602 -33 3.50098l-222.5 121l-223.5 119.5c-74 40.333 -147.167 82.333 -219.5 126s-142.5 90.5 -210.5 140.5l-2 2l57 -232
c19.333 -76.667 40.666 -153.334 63.999 -230.001c4 -12.667 2.66699 -23.334 -4 -32.001s-15 -14.334 -25 -17.001s-20 -2 -30 2s-17 12.333 -21 25c-23.333 78.667 -45.166 157.667 -65.499 237l-59 238l-57 238.5l-59.5 238.5
c-3.33301 12.667 -1.83301 23.334 4.5 32.001s14.5 14.334 24.5 17.001s20.167 1.83398 30.5 -2.49902s17.166 -12.833 20.499 -25.5c1.33301 -7.33301 3 -14.5 5 -21.5l6 -21.5c25.333 -2.66699 52.666 -3 81.999 -1s59.666 4.33301 90.999 7s62.833 4.66699 94.5 6
s62 0 91 -4s56.167 -11.333 81.5 -22s47.666 -27 66.999 -49c15.333 -18 23 -37.5 23 -58.5s-4.5 -41.667 -13.5 -62s-21 -39.333 -36 -57s-29.833 -32.5 -44.5 -44.5c-34 -28 -70.167 -53 -108.5 -75s-78.5 -40 -120.5 -54c64.667 -45.333 131 -88 199 -128l206 -116.5
l209 -111.5zM1434 908c-26.667 2.66699 -53.332 3.83398 -79.999 3.50098s-53.334 -1 -80.001 -2l-80 -3c-26.667 -1 -53.334 -0.833008 -80.001 0.5l66 -273c27.333 2.66699 55.333 8.16699 84 16.5s56.5 18.666 83.5 30.999s52.667 26.833 77 43.5s45.833 35 64.5 55
c19.333 20.667 32 38.5 38 53.5s6.33301 27.5 1 37.5s-16.166 18 -32.499 24s-36.833 10.333 -61.5 13z" />
    <glyph glyph-name="S" unicode="S" horiz-adv-x="2706" 
d="M1833 485c15.333 -14 22.8379 -28.0039 22.5049 -42.0039s-5.5 -27.5 -15.5 -40.5s-23.5 -25.333 -40.5 -37s-34.333 -22.167 -52 -31.5s-34.334 -17.166 -50.001 -23.499s-27.167 -10.833 -34.5 -13.5c-62 -21.333 -124.5 -39.166 -187.5 -53.499
s-126.167 -27 -189.5 -38s-127 -21.167 -191 -30.5s-128 -20 -192 -32c-13.333 -2 -24.333 0.5 -33 7.5s-14.5 15.5 -17.5 25.5s-2.33301 19.833 2 29.5s13.166 15.5 26.499 17.5c58 10.667 116 20.167 174 28.5s116 17.166 174 26.499s115.667 19.833 173 31.5
s114 26.5 170 44.5l81.5 26.5c27.667 9 53.5 21.167 77.5 36.5c8 4.66699 14.667 8.16699 20 10.5s9.16602 3.83301 11.499 4.5s3.16602 1.16699 2.49902 1.5s-2.66699 1.16602 -6 2.49902c-24 10.667 -49.167 19 -75.5 25l-77.5 17
c-74.667 15.333 -149.334 29.666 -224.001 42.999s-149 30 -223 50l-59.5 15.5c-21.667 5.66699 -42.667 12.834 -63 21.501s-38.833 19.667 -55.5 33s-29 30 -37 50c-4 11.333 -2.5 21.666 4.5 30.999s15.167 16 24.5 20c125.333 52 251.833 96 379.5 132
s258.834 61.333 393.501 76c13.333 1.33301 23.166 -2 29.499 -10s9.5 -17.167 9.5 -27.5s-3.33301 -20.166 -10 -29.499s-16.334 -14.666 -29.001 -15.999c-120 -13.333 -237.167 -35.833 -351.5 -67.5s-227.5 -69.5 -339.5 -113.5c11.333 -6 24.333 -11.167 39 -15.5
s29.167 -8.16602 43.5 -11.499s27.5 -6.16602 39.5 -8.49902l28 -5.5c44.667 -11.333 89.334 -21.333 134.001 -30l134 -26c26.667 -5.33301 56.5 -10 89.5 -14s66 -9.5 99 -16.5s64.5 -16.167 94.5 -27.5s55.667 -26.666 77 -45.999z" />
    <glyph glyph-name="T" unicode="T" horiz-adv-x="2640" 
d="M1850 1003c13.333 1.33301 23.3379 -2.00098 30.0049 -10.001s10 -17.167 10 -27.5s-3.33301 -20.166 -10 -29.499s-16.667 -14.666 -30 -15.999c-72 -6.66699 -143 -14.667 -213 -24s-140 -20 -210 -32l44 -192l43 -191.5l46 -191
c16 -63.667 33.333 -126.834 52 -189.501c4 -13.333 2.66699 -24.333 -4 -33s-15 -14.334 -25 -17.001s-20 -2 -30 2s-17 12.667 -21 26c-38 126.667 -71 254.667 -99 384s-57.333 258.333 -88 387c-83.333 -16 -165.833 -34.333 -247.5 -55s-163.834 -43.667 -246.501 -69
c-12.667 -4 -23.334 -2.66699 -32.001 4s-14.334 15 -17.001 25s-2 20 2 30s12.333 17 25 21c83.333 25.333 166 48.333 248 69s164.667 39 248 55c-2.66699 10.667 -5.16699 21.167 -7.5 31.5s-5.16602 20.833 -8.49902 31.5c-3.33301 12.667 -1.83301 23.5 4.5 32.5
s14.5 14.833 24.5 17.5s20.167 2 30.5 -2s17.166 -12.333 20.499 -25c3.33301 -12 6.33301 -24 9 -36s5.66699 -23.667 9 -35c73.333 13.333 146.666 24.833 219.999 34.5s147.666 17.834 222.999 24.501z" />
    <glyph glyph-name="U" unicode="U" horiz-adv-x="2613" 
d="M952 917c-3.33301 12.667 -1.82617 23.501 4.50684 32.501s14.5 14.833 24.5 17.5s20.167 1.83398 30.5 -2.49902s17.166 -12.833 20.499 -25.5c4 -14.667 10 -38.167 18 -70.5s18 -69.666 30 -111.999s25.667 -87.5 41 -135.5s32.166 -95 50.499 -141
s38.166 -88.833 59.499 -128.5s43.833 -72.334 67.5 -98.001s48.5 -42.334 74.5 -50.001s52.667 -2.16699 80 16.5c27.333 18 51.333 40.667 72 68s38.667 57.666 54 90.999s28.5 68.666 39.5 105.999s20.5 74.5 28.5 111.5s14.667 73.167 20 108.5l15 98
c2 13.333 7.66699 22.166 17 26.499s19 5 29 2s18.667 -9 26 -18s10 -19.833 8 -32.5c-4.66699 -32 -10.5 -69.333 -17.5 -112s-16 -87 -27 -133s-24.5 -92 -40.5 -138s-35.333 -87.833 -58 -125.5s-49.334 -69.667 -80.001 -96s-66 -43.166 -106 -50.499
c-32.667 -6 -63.834 -2.33301 -93.501 11s-57 31.5 -82 54.5s-47.5 48.667 -67.5 77s-36.333 54.833 -49 79.5c-23.333 44.667 -43.833 90.334 -61.5 137.001s-33.834 94 -48.501 142s-28.334 96.167 -41.001 144.5z" />
    <glyph glyph-name="V" unicode="V" horiz-adv-x="2654" 
d="M1624 1069c2 13.333 7.49414 22.1709 16.4941 26.5039s18.5 5.16602 28.5 2.49902s18.667 -8.5 26 -17.5s10 -20.167 8 -33.5c-14.667 -104 -31.334 -207 -50.001 -309l-57 -308c-6 -32.667 -11.333 -66.334 -16 -101.001s-9.66699 -69.5 -15 -104.5
s-11.666 -69.5 -18.999 -103.5s-16.333 -66.667 -27 -98c-3.33301 -9.33301 -8.16602 -16.5 -14.499 -21.5s-13.166 -7.83301 -20.499 -8.5s-14.666 0.666016 -21.999 3.99902s-13.666 8.66602 -18.999 15.999c-23.333 30.667 -44.5 64.667 -63.5 102
s-36.833 75.666 -53.5 114.999l-48.5 117.5c-15.667 39 -31.834 75.833 -48.501 110.5l-129.5 270.5c-43 91 -90.5 179.167 -142.5 264.5c-7.33301 11.333 -9 22 -5 32s10.5 17.667 19.5 23s19 7.33301 30 6s20.167 -7.66602 27.5 -18.999
c54.667 -89.333 104.334 -181.666 149.001 -276.999l135 -285c12.667 -26 24.834 -53.167 36.501 -81.5l35.5 -86.5c12 -29.333 24.5 -58.333 37.5 -87s26.833 -56.334 41.5 -83.001c13.333 56.667 23.833 114.667 31.5 174s16.5 117 26.5 173l53.5 293
c17.667 97.333 33.834 195.333 48.501 294z" />
    <glyph glyph-name="W" unicode="W" horiz-adv-x="3046" 
d="M1913 1021c0 13.333 4.33691 23.3281 13.0039 29.9951s18.167 10 28.5 10s19.833 -3.33301 28.5 -10s13 -16.667 13 -30c-0.666992 -154.667 -4.33398 -308 -11.001 -460s-14.334 -305 -23.001 -459c0 -9.33301 -2.16699 -17 -6.5 -23s-9.66602 -10.5 -15.999 -13.5
s-13.166 -4.5 -20.499 -4.5s-14 1.66699 -20 5c-12.667 4.66699 -21.334 13.334 -26.001 26.001c-34 96 -74.5 189.667 -121.5 281l-143.5 272c-43.333 -104 -88.833 -206.833 -136.5 -308.5s-101.167 -200.167 -160.5 -295.5c-6 -10.667 -13.667 -17 -23 -19
s-18.333 -1.33301 -27 2c-14.667 3.33301 -24.334 12.666 -29.001 27.999c-22 79.333 -41 159.166 -57 239.499s-30.667 161 -44 242l-39 243c-12.667 81 -26.334 161.833 -41.001 242.5c-2.66699 13.333 -0.5 24.5 6.5 33.5s15.5 14.833 25.5 17.5
s19.833 1.83398 29.5 -2.49902s15.834 -13.166 18.501 -26.499c13.333 -73.333 25.666 -146.666 36.999 -219.999l35 -219.5c12 -73 24.833 -146 38.5 -219s29.5 -145.5 47.5 -217.5c54 94 103 190.333 147 289l127 298c3.33301 8 8.16602 14.5 14.499 19.5
s13.333 8.33301 21 10s15.167 1 22.5 -2s13.333 -8.83301 18 -17.5l129 -240.5c43.333 -80.333 83.666 -162.166 120.999 -245.499c6 124.667 11.333 248.834 16 372.501s7.33398 247.834 8.00098 372.501z" />
    <glyph glyph-name="X" unicode="X" horiz-adv-x="2622" 
d="M1368 545l173.998 -163.999c57.333 -54.667 113.333 -111.334 168 -170.001c8.66699 -10 12.334 -20.5 11.001 -31.5s-5.66602 -20.167 -12.999 -27.5s-16.333 -11.666 -27 -12.999s-20.667 3 -30 13l-155 158l-161 152c-17.333 -44.667 -35.5 -88.834 -54.5 -132.501
l-58.5 -131.5c-5.33301 -12 -13.166 -19 -23.499 -21s-20 -0.333008 -29 5s-15.833 13.333 -20.5 24s-4 22 2 34l61.5 140l57.5 142l-179.5 164.5l-177.5 166.5c-10 9.33301 -14.333 19.333 -13 30s5.66602 19.667 12.999 27s16.5 11.833 27.5 13.5
s21.167 -2.16602 30.5 -11.499l165 -154l167 -153l62 160.5l62 159.5c4.66699 12.667 12.5 21 23.5 25s21.5 4.66699 31.5 2s17.833 -8.33398 23.5 -17.001s6.16699 -19 1.5 -31l-69.5 -180z" />
    <glyph glyph-name="Y" unicode="Y" horiz-adv-x="2540" 
d="M1606 1025c4.66699 12 12.501 20.0039 23.501 24.0039s21.5 4.66699 31.5 2s17.833 -8.16699 23.5 -16.5s6.16699 -18.833 1.5 -31.5l-92 -236.5l-91.5 -237l-95 -236c-32.333 -78.333 -66.5 -155.833 -102.5 -232.5c-5.33301 -12 -13.166 -18.833 -23.499 -20.5
s-20 0.166016 -29 5.49902s-15.833 13.166 -20.5 23.499s-4 21.5 2 33.5c29.333 62.667 57.166 125.667 83.499 189l77.5 192l-1 1c-76 81.333 -155 158.666 -237 231.999l-244 225c-10 9.33301 -14.333 19.333 -13 30s5.66602 19.667 12.999 27s16.5 11.666 27.5 12.999
s21.167 -2.66699 30.5 -12l232 -213c78 -69.333 153.333 -142 226 -218l88.5 227.5z" />
    <glyph glyph-name="Z" unicode="Z" horiz-adv-x="3023" 
d="M2132 120c13.333 0 23.332 -4.5 29.999 -13.5s10 -18.667 10 -29s-3.33301 -19.666 -10 -27.999s-16.667 -12.5 -30 -12.5c-92 2.66699 -184.333 4.16699 -277 4.5s-185.5 1.5 -278.5 3.5s-185.833 5.33301 -278.5 10s-184.667 12.334 -276 23.001
c-10 1.33301 -18.5 5 -25.5 11s-11.667 12.833 -14 20.5s-2.16602 15.667 0.500977 24s8.66699 15.5 18 21.5c43.333 30 85.166 61.833 125.499 95.5l119 102.5l118 103.5c39.667 34.333 80.834 66.833 123.501 97.5l205 150c67.333 50 130.666 105.667 189.999 167
c-81.333 15.333 -163.333 28.333 -246 39s-165.334 19.667 -248.001 27s-165.5 13.666 -248.5 18.999l-248.5 16c-13.333 0.666992 -23.333 5.5 -30 14.5s-10 18.667 -10 29s3.33301 19.666 10 27.999s16.667 12.166 30 11.499c90 -5.33301 180.333 -11 271 -17
s181.334 -13.333 272.001 -22s180.834 -19.334 270.501 -32.001s178.834 -28.334 267.501 -47.001c8 -2 14.333 -5.66699 19 -11s7.83398 -11.333 9.50098 -18s1.66699 -13.667 0 -21s-4.83398 -13.666 -9.50098 -18.999c-33.333 -39.333 -68.333 -75.833 -105 -109.5
s-74.667 -66 -114 -97l-120.5 -90.5l-122.5 -89c-34.667 -25.333 -68.5 -51.833 -101.5 -79.5l-98 -84.5l-97.5 -85.5c-32.667 -28.333 -66 -55.833 -100 -82.5c82.667 -7.33301 165.667 -12.666 249 -15.999s166.833 -5.66602 250.5 -6.99902s167.167 -2.33301 250.5 -3
s166.666 -2 249.999 -4z" />
    <glyph glyph-name="bracketleft" unicode="[" horiz-adv-x="929" 
d="M793 -248c12 0.666992 20.998 -2.66602 26.998 -9.99902s9 -15.666 9 -24.999s-3 -18.166 -9 -26.499s-15 -12.833 -27 -13.5l-136 -10.5c-45.333 -3.66699 -90.333 -9.5 -135 -17.5s-88.5 -19 -131.5 -33s-84.167 -33 -123.5 -57c-6 -4 -12.333 -5.83301 -19 -5.5
s-12.667 2.16602 -18 5.49902s-9.83301 7.66602 -13.5 12.999s-5.5 11.666 -5.5 18.999c8 158.667 8.66699 316.834 2 474.501s-16.834 315.334 -30.501 473.001s-28.334 315.167 -44.001 472.5s-28.5 315 -38.5 473c0 6 1 11.667 3 17
c-3.33301 10.667 -2.16602 21.667 3.50098 33s15.834 17.333 30.501 18c40.667 2 81.5 5.66699 122.5 11l122 16c40.333 5.33301 80.833 10.166 121.5 14.499s81.667 7.16602 123 8.49902c12 0 21 -3.83301 27 -11.5s9 -16.167 9 -25.5s-3 -18 -9 -26s-15 -12 -27 -12
c-38 -0.666992 -75.833 -2.83398 -113.5 -6.50098s-75.334 -8 -113.001 -13l-112.5 -15.5c-37.333 -5.33301 -74.666 -9.33301 -111.999 -12c9.33301 -152 21.5 -304 36.5 -456s29.167 -304 42.5 -456s23.833 -304.167 31.5 -456.5s8.5 -304.833 2.5 -457.5
c38.667 18.667 78.834 33.667 120.501 45s83.834 20.333 126.501 27s85.667 11.834 129 15.501z" />
    <glyph glyph-name="backslash" unicode="\" horiz-adv-x="3015" 
d="M971 1197l566 -621.499l566 -621.5c8.66699 -10 12.334 -20.5 11 -31.5c-1.33301 -11 -5.83301 -20.167 -13.5 -27.5s-16.834 -11.5 -27.5 -12.5c-10.667 -1 -20.334 3.5 -29.001 13.5l-565.5 621l-566.5 621c-9.33301 10 -13.166 20.5 -11.499 31.5
s6.33398 20.167 14.001 27.5s16.667 11.666 27 12.999s20.166 -3 29.499 -13z" />
    <glyph glyph-name="bracketright" unicode="]" horiz-adv-x="1010" 
d="M684 1529c18.667 -160 33.9932 -320.662 45.9932 -481.995s25.167 -322.333 39.5 -483s32 -321 53 -481s49.833 -319 86.5 -477c1.33301 -6.66699 1 -13.334 -1 -20.001s-5.16699 -12.5 -9.5 -17.5s-9.66602 -8.5 -15.999 -10.5s-13.166 -1.66699 -20.499 1
c-45.333 17.333 -91.166 29.5 -137.499 36.5s-93.166 10.5 -140.499 10.5s-94.833 -2.33301 -142.5 -7l-141.5 -14c-12 -1.33301 -21 1.66699 -27 9s-9 15.666 -9 24.999s3 18.333 9 27s15 13.667 27 15c43.333 4.66699 86.833 9 130.5 13s87.5 6.5 131.5 7.5
s87.667 -0.5 131 -4.5s86 -12 128 -24c-33.333 153.333 -59.666 307.666 -78.999 462.999s-36 311 -50 467s-26.833 312.167 -38.5 468.5s-26.5 312.166 -44.5 467.499c-38 -4 -76.333 -6.66699 -115 -8s-77.167 -2.83301 -115.5 -4.5s-76.833 -3.83398 -115.5 -6.50098
s-77 -7 -115 -13c-12 -2 -22.167 0.333008 -30.5 7s-13.666 14.5 -15.999 23.5s-1.5 17.833 2.5 26.5s12 14 24 16c42.667 6.66699 85.334 11.5 128.001 14.5s85.334 5.5 128.001 7.5l128.5 6c43 2 85.833 5.66699 128.5 11c15.333 2 25.666 -2.5 30.999 -13.5
s6.33301 -22.167 3 -33.5c5.33301 -6 8.33301 -13.667 9 -23z" />
    <glyph glyph-name="asciicircum" unicode="^" horiz-adv-x="1109" 
d="M293 1294c25.333 52 52.333 102.832 81 152.499s62 96.834 100 141.501c9.33301 11.333 20.5 15.666 33.5 12.999s23.5 -8.66699 31.5 -18l115.5 -142.5l112 -145.5l112.5 -145c38 -48 77.333 -95 118 -141c8.66699 -10 12.334 -20.667 11.001 -32
s-5.5 -20.833 -12.5 -28.5s-15.667 -12.167 -26 -13.5s-19.833 3 -28.5 13l-112.5 134l-108 137l-107 138l-108.5 137c-32 -42.667 -60.167 -87.334 -84.5 -134.001l-72.5 -142c-12.667 -25.333 -26.334 -50.166 -41.001 -74.499l-44.5 -72.5l-44 -72.5
c-14.333 -24.333 -27.5 -49.166 -39.5 -74.499c-6 -12 -14.167 -19.167 -24.5 -21.5s-20.166 -1 -29.499 4s-16.333 12.667 -21 23s-4.33398 21.5 0.999023 33.5c13.333 28.667 28 56.667 44 84l49 81.5l49.5 81.5c16.333 27.333 31.5 55.333 45.5 84z" />
    <glyph glyph-name="underscore" unicode="_" horiz-adv-x="2792" 
d="M941 -1c-13.333 0.666992 -23.333 5.66699 -30 15s-10 19.166 -10 29.499s3.33301 19.5 10 27.5s16.667 11.667 30 11c76 -6 152 -8 228 -6s151.833 5.33301 227.5 10l227.5 14.5c76 5 152 7.83301 228 8.5c13.333 0 23.333 -4.16699 30 -12.5s10 -17.666 10 -27.999
s-3.33301 -20 -10 -29s-16.667 -13.5 -30 -13.5c-76 -0.666992 -152 -3.5 -228 -8.5l-227.5 -14.5c-75.667 -4.66699 -151.5 -8 -227.5 -10s-152 0 -228 6z" />
    <glyph glyph-name="grave" unicode="`" horiz-adv-x="553" 
d="M441 1311c-46.667 -47.333 -91.335 -96.002 -134.002 -146.002s-88 -98 -136 -144c-9.33301 -9.33301 -19.5 -13.166 -30.5 -11.499s-20.167 6.16699 -27.5 13.5s-11.666 16.333 -12.999 27s3 20.667 13 30c48 46 93.167 94 135.5 144s86.833 98.667 133.5 146
c9.33301 9.33301 19.333 13.333 30 12s19.667 -5.66602 27 -12.999s11.833 -16.5 13.5 -27.5s-2.16602 -21.167 -11.499 -30.5z" />
    <glyph glyph-name="a" unicode="a" horiz-adv-x="2614" 
d="M1843 318c12 -6 18.6719 -14.334 20.0049 -25.001s-0.666992 -20.5 -6 -29.5s-13 -15.667 -23 -20s-21 -3.16602 -33 3.50098c-35.333 18.667 -68.333 40.834 -99 66.501s-59.834 53.5 -87.501 83.5s-53.667 61.667 -78 95s-47.5 67 -69.5 101
c-2 -4.66699 -4.16699 -9.16699 -6.5 -13.5l-6.5 -12.5c-19.333 -33.333 -42.833 -65 -70.5 -95s-58.334 -56 -92.001 -78s-69.5 -39.333 -107.5 -52s-77 -18.334 -117 -17.001c-32 0.666992 -60.5 7 -85.5 19s-44.5 28 -58.5 48s-21.333 43.5 -22 70.5
s7.66602 55.5 24.999 85.5c19.333 34.667 42.833 67.167 70.5 97.5s58 57 91 80s68.5 41.667 106.5 56s77.333 22.833 118 25.5c14 0.666992 28.667 0.666992 44 0s30.166 -3 44.499 -7s27.833 -9.83301 40.5 -17.5s23.334 -17.834 32.001 -30.501c4 -6 7.16699 -12 9.5 -18
s4.16602 -12 5.49902 -18l71.5 -113c25 -38 52 -74.667 81 -110s60.167 -68.166 93.5 -98.499s69.666 -55.833 108.999 -76.5zM1118 412.999c56.667 12 107.666 34.999 152.999 68.999s82.333 76.333 111 127c2 4 4.83301 9.33301 8.5 16s7 13.667 10 21
s5.5 14.833 7.5 22.5s2.66699 14.834 2 21.501c0 0.666992 -0.166992 1.33398 -0.5 2.00098s-0.5 1.33398 -0.5 2.00098c-1.33301 5.33301 -3.5 10 -6.5 14s-7.83301 7 -14.5 9c-21.333 7.33301 -43.5 10.166 -66.5 8.49902s-45.167 -5.5 -66.5 -11.5
c-27.333 -7.33301 -54.166 -18 -80.499 -32s-51 -30.5 -74 -49.5s-43.833 -40 -62.5 -63s-34 -47.5 -46 -73.5c-9.33301 -22 -11 -39.333 -5 -52s16 -21.834 30 -27.501s30.333 -8.5 49 -8.5s36 1.66699 52 5z" />
    <glyph glyph-name="b" unicode="b" horiz-adv-x="2571" 
d="M1670 460c2.66699 -19.333 0.333008 -37.001 -7 -53.001s-17.333 -30.5 -30 -43.5s-27 -24.667 -43 -35s-31.333 -19.5 -46 -27.5c-38 -20.667 -77 -39 -117 -55s-81.667 -28.333 -125 -37c-4.66699 -5.33301 -10.5 -9.16602 -17.5 -11.499s-14.167 -3 -21.5 -2
s-14 3.66699 -20 8s-10.333 11.166 -13 20.499c-23.333 77.333 -44.333 155.166 -63 233.499l-54.5 235.5l-53 236c-17.667 78.667 -36.834 157 -57.501 235c-3.33301 12.667 -1.83301 23.5 4.5 32.5s14.5 14.833 24.5 17.5s20.167 1.83398 30.5 -2.49902
s17.166 -12.833 20.499 -25.5c26 -98.667 49.667 -197.167 71 -295.5l67 -296.5c44 10 88.833 15.833 134.5 17.5s90.5 -3.16602 134.5 -14.499c17.333 -4 36 -9.66699 56 -17s38.833 -16.5 56.5 -27.5s32.834 -24 45.501 -39s20.334 -32.833 23.001 -53.5zM1454 347.999
l34.0029 15.499c15.333 7 30.666 15 45.999 24s28.5 18.667 39.5 29s15.833 20.5 14.5 30.5c-2 14.667 -10.833 27.167 -26.5 37.5s-33.834 18.5 -54.501 24.5s-41.334 10.333 -62.001 13s-36.667 4.33398 -48 5.00098c-27.333 1.33301 -54 0.833008 -80 -1.5
s-52 -6.5 -78 -12.5l28 -110.5c9.33301 -36.333 19.333 -72.833 30 -109.5c27.333 6 54 13.5 80 22.5s51.667 19.833 77 32.5z" />
    <glyph glyph-name="c" unicode="c" horiz-adv-x="2608" 
d="M1605 647c1.33301 -13.333 -1.99805 -23.3369 -9.99805 -30.0039s-17.167 -10 -27.5 -10s-20.166 3.33301 -29.499 10s-14.666 16.667 -15.999 30c-3.33301 41.333 -17 73.5 -41 96.5s-53.667 38.167 -89 45.5s-74 8 -116 2s-82.5 -17 -121.5 -33s-74 -36.167 -105 -60.5
s-53.333 -51.166 -67 -80.499s-16.334 -60 -8.00098 -92s32.5 -64 72.5 -96c56 -44 115.333 -75 178 -93s126.834 -28.667 192.501 -32s132.167 -2.66602 199.5 2.00098s134 7.66699 200 9c13.333 0 23.333 -4.16699 30 -12.5s10 -17.666 10 -27.999s-3.33301 -20 -10 -29
s-16.667 -13.5 -30 -13.5c-60.667 -1.33301 -121.834 -4.16602 -183.501 -8.49902s-122.834 -5.83301 -183.501 -4.5s-120.667 7.5 -180 18.5s-117 31.5 -173 61.5c-36 18.667 -68.5 40.167 -97.5 64.5s-52 51.5 -69 81.5s-27 62.667 -30 98s4.16699 73.666 21.5 114.999
c12.667 31.333 32 59.833 58 85.5s55.667 47.834 89 66.501s69.166 33.5 107.499 44.5s76.833 17.333 115.5 19s76.167 -1.33301 112.5 -9s68.666 -20.5 96.999 -38.5s51.833 -41.833 70.5 -71.5s29.667 -65.5 33 -107.5z" />
    <glyph glyph-name="d" unicode="d" horiz-adv-x="2652" 
d="M931 1017c22 4.66699 52.167 9.33008 90.5 13.9971s81.166 8 128.499 10s97 2.5 149 1.5s102.667 -5.16699 152 -12.5s95 -18 137 -32s76.833 -32.833 104.5 -56.5s45.834 -52.667 54.501 -87s4.33398 -74.833 -12.999 -121.5
c-15.333 -40 -33.166 -78.833 -53.499 -116.5s-42.666 -74.5 -66.999 -110.5s-49.833 -71.167 -76.5 -105.5l-81 -100.5c-14.667 -17.333 -31.5 -39.166 -50.5 -65.499s-39.5 -52.166 -61.5 -77.499s-45.167 -48.166 -69.5 -68.499s-48.5 -33.166 -72.5 -38.499
c-13.333 -3.33301 -24.333 -1.5 -33 5.5s-14.334 15.5 -17.001 25.5s-2 19.833 2 29.5s12.667 16.167 26 19.5c10 2.66699 20.667 8.16699 32 16.5s22.666 18.166 33.999 29.499l-92.5 390c-31 129.333 -66.167 258.666 -105.5 387.999l-48 -8
c-16 -2.66699 -31.667 -5.66699 -47 -9c-13.333 -2.66699 -24.333 -0.5 -33 6.5s-14.5 15.5 -17.5 25.5s-2.33301 19.833 2 29.5s13.166 15.834 26.499 18.501zM1609 658.996l19.499 36c7 12.667 13.5 25.5 19.5 38.5s10.833 26.333 14.5 40s5.5 27.167 5.5 40.5
c-0.666992 20 -9 37.5 -25 52.5s-35 27.667 -57 38s-44.833 18.666 -68.5 24.999l-58.5 15.5c-52 12 -105.667 19.333 -161 22s-110.666 1.33398 -165.999 -3.99902c35.333 -118 67.333 -235.667 96 -353l85 -356l26.5 34l21.5 27c46 54 90.333 109.167 133 165.5
s81 115.833 115 178.5z" />
    <glyph glyph-name="e" unicode="e" horiz-adv-x="2418" 
d="M1565 420c12.667 2.66699 23.4961 0.501953 32.4961 -6.49805s15 -15.5 18 -25.5s2.33301 -19.833 -2 -29.5s-13.166 -15.834 -26.499 -18.501c-49.333 -10 -101.5 -18.833 -156.5 -26.5s-110 -10.834 -165 -9.50098s-108.833 8.83301 -161.5 22.5s-101 36.5 -145 68.5
c-30.667 22 -49 45 -55 69s-4 48 6 72s26 47.333 48 70s45.833 43.667 71.5 63s51.334 36.333 77.001 51s47.167 26 64.5 34c18 8.66699 40.5 16 67.5 22s55.167 9.83301 84.5 11.5s58.166 0.5 86.499 -3.5s52.5 -12.333 72.5 -25s34.5 -30 43.5 -52
s8.83301 -49.667 -0.5 -83c-6 -23.333 -18 -43.5 -36 -60.5s-38.5 -31.5 -61.5 -43.5s-46.833 -21.833 -71.5 -29.5s-47 -13.5 -67 -17.5c-24 -4.66699 -48 -7.5 -72 -8.5s-48.167 -0.666992 -72.5 1s-48.666 4 -72.999 7s-48.5 6.16699 -72.5 9.5
c5.33301 -13.333 15.833 -25 31.5 -35s33.334 -18.333 53.001 -25s40 -12.167 61 -16.5s39.5 -7.5 55.5 -9.5c62.667 -9.33301 123.834 -10.833 183.501 -4.5s120.167 15.833 181.5 28.5zM1234 690.002c-34.667 -13.333 -70.4971 -30.6709 -107.497 -52.0039
s-68.833 -45.333 -95.5 -72c-0.666992 -1.33301 -1.33398 -2.16602 -2.00098 -2.49902s-1.33398 -1.16602 -2.00098 -2.49902c34 -5.33301 70 -9.66602 108 -12.999s75.333 -3.5 112 -0.5s71.167 10.667 103.5 23s59.5 32.166 81.5 59.499c15.333 18 21.5 32.167 18.5 42.5
s-11.333 17.833 -25 22.5s-30.5 7.33398 -50.5 8.00098s-39.833 0.333984 -59.5 -0.999023s-37.334 -3.33301 -53.001 -6s-25.167 -4.66699 -28.5 -6z" />
    <glyph glyph-name="f" unicode="f" horiz-adv-x="2790" 
d="M2000 941c13.333 1.33301 23.3359 -1.99902 30.0029 -9.99902s10 -17.167 10 -27.5s-3.33301 -20.166 -10 -29.499s-16.667 -14.666 -30 -15.999c-146 -13.333 -288.833 -32.5 -428.5 -57.5s-279.5 -56.5 -419.5 -94.5l16.5 -76l17.5 -76
c62.667 14.667 125.167 26.667 187.5 36s125.833 14.666 190.5 15.999c13.333 0 23.333 -4.33301 30 -13s10 -18.167 10 -28.5s-3.33301 -19.833 -10 -28.5s-16.667 -13 -30 -13c-62 -1.33301 -122.5 -6.5 -181.5 -15.5s-118.5 -20.5 -178.5 -34.5l33 -136
c11.333 -44.667 23.666 -89.667 36.999 -135c4 -12.667 2.66699 -23.334 -4 -32.001s-15 -14.334 -25 -17.001s-20 -2 -30 2s-17 12.333 -21 25c-25.333 83.333 -47.166 166.833 -65.499 250.5l-56.5 253.5l-35.5 -10c-11.667 -3.33301 -23.5 -7 -35.5 -11
c-12.667 -4 -23.334 -2.66699 -32.001 4s-14.334 15 -17.001 25s-2 20 2 30s12.333 17 25 21c12 4 24.167 7.83301 36.5 11.5s24.833 7.16699 37.5 10.5c-3.33301 14 -6.83301 27.833 -10.5 41.5l-11.5 41.5c-3.33301 12.667 -1.83301 23.5 4.5 32.5s14.5 14.833 24.5 17.5
s20.167 1.83398 30.5 -2.49902s17.166 -12.833 20.499 -25.5c8 -26 15 -53.667 21 -83c144 38.667 287.333 70.667 430 96s288.667 44.666 438 57.999z" />
    <glyph glyph-name="g" unicode="g" horiz-adv-x="2513" 
d="M1683 372c10.667 -2 18.3301 -6.65918 22.9971 -13.9922s6.83398 -15.5 6.50098 -24.5s-3.16602 -17.5 -8.49902 -25.5s-12.333 -13.333 -21 -16c-24 -7.33301 -53.333 -15 -88 -23s-72 -15.333 -112 -22s-81.833 -11.834 -125.5 -15.501s-86.667 -4.66699 -129 -3
s-82.666 6.66699 -120.999 15s-72.333 21.166 -102 38.499s-53.834 40.166 -72.501 68.499s-29.334 63.166 -32.001 104.499c-4 58.667 5.16699 112 27.5 160s53 89.333 92 124s84.333 62.5 136 83.5s105 34.167 160 39.5s109 2.16602 162 -9.50098
s100.833 -32.5 143.5 -62.5c10.667 -8 16.667 -17.5 18 -28.5s-0.666992 -21 -6 -30s-12.833 -15.333 -22.5 -19s-19.834 -1.83398 -30.501 5.49902c-29.333 20.667 -61.333 36.5 -96 47.5s-70 17.167 -106 18.5s-71.833 -1.83398 -107.5 -9.50098
s-69.167 -19.834 -100.5 -36.501c-16.667 -8.66699 -34.5 -19.834 -53.5 -33.501s-37.167 -29 -54.5 -46s-33.166 -35.5 -47.499 -55.5s-25 -40.667 -32 -62s-9.66699 -43 -8 -65s9.5 -43.667 23.5 -65c20.667 -31.333 48.167 -54.833 82.5 -70.5s72.333 -26.167 114 -31.5
s85.334 -6.16602 131.001 -2.49902s90.167 9.5 133.5 17.5c-28 4.66699 -55.5 9 -82.5 13s-54.5 8.33301 -82.5 13c-13.333 2 -22.166 7.66699 -26.499 17s-5 19 -2 29s8.83301 18.667 17.5 26s19.667 10 33 8l183 -29z" />
    <glyph glyph-name="h" unicode="h" horiz-adv-x="2910" 
d="M1908 67c4 -12.667 2.66992 -23.333 -3.99707 -32s-15 -14.334 -25 -17.001s-20 -2 -30 2s-17 12.333 -21 25c-23.333 77.333 -44.333 155 -63 233l-54 235c-43.333 1.33301 -86.333 3.66602 -129 6.99902s-85.5 6.5 -128.5 9.5s-86 5.5 -129 7.5
s-85.833 2.33301 -128.5 1l49.5 -206.5c17 -68.333 35.5 -136.833 55.5 -205.5c4 -13.333 2.66699 -24.333 -4 -33s-15 -14.334 -25 -17.001s-20 -2 -30 2s-17 12.333 -21 25c-21.333 71.333 -40.666 142.833 -57.999 214.5l-51 216.5c-18 -2 -36.167 -4.16699 -54.5 -6.5
s-36.5 -5.5 -54.5 -9.5c-13.333 -2.66699 -24.333 -0.5 -33 6.5s-14.5 15.5 -17.5 25.5s-2.33301 19.833 2 29.5s13.166 15.834 26.499 18.501c19.333 4 38.166 7.33301 56.499 10s37.166 4.66699 56.499 6l-46.5 206c-15.667 68 -32.5 136.333 -50.5 205
c-3.33301 12.667 -1.83301 23.5 4.5 32.5s14.5 14.833 24.5 17.5s20.167 1.83398 30.5 -2.49902s17.166 -12.833 20.499 -25.5c19.333 -71.333 37 -142.5 53 -213.5l48 -213.5c42.667 1.33301 85.334 1.16602 128.001 -0.500977s85.5 -4 128.5 -7l128.5 -9
c42.667 -3 85.667 -5.16699 129 -6.5l-42.5 185c-14.333 61.333 -29.5 123 -45.5 185c-3.33301 12.667 -1.83301 23.334 4.5 32.001s14.5 14.334 24.5 17.001s20.167 2 30.5 -2s17.166 -12.333 20.499 -25c20 -76.667 38.833 -153.5 56.5 -230.5l52.5 -231l53.5 -231
c18.333 -77 38.833 -153.5 61.5 -229.5z" />
    <glyph glyph-name="i" unicode="i" horiz-adv-x="2246" 
d="M1082 891c14.667 -55.333 28.335 -110.999 41.002 -166.999l37.5 -168l38.5 -167.5c13.333 -55.667 28.333 -110.834 45 -165.501c4 -12.667 2.66699 -23.334 -4 -32.001s-15 -14.334 -25 -17.001s-20 -2 -30 2s-17 12.333 -21 25
c-16.667 54.667 -31.667 109.834 -45 165.501l-38.5 167.5l-37.5 168c-12.667 56 -26.334 111.667 -41.001 167c-3.33301 12.667 -1.83301 23.5 4.5 32.5s14.5 14.833 24.5 17.5s20.167 1.83398 30.5 -2.49902s17.166 -12.833 20.499 -25.5z" />
    <glyph glyph-name="j" unicode="j" horiz-adv-x="2395" 
d="M1345 802c26 -67.333 47.499 -138.833 64.499 -214.5s27.833 -152 32.5 -229s2.33398 -153.5 -6.99902 -229.5s-27.333 -148 -54 -216c-24.667 -62.667 -59.5 -113.667 -104.5 -153s-94.167 -65.333 -147.5 -78s-108 -10.5 -164 6.5s-107 50.5 -153 100.5
c-9.33301 10 -13.166 20.5 -11.499 31.5s6.33398 20.333 14.001 28s16.667 12 27 13s20.166 -3.5 29.499 -13.5c28.667 -32 61.167 -55.833 97.5 -71.5s72.833 -22.667 109.5 -21s71.667 12.334 105 32.001s62 49.5 86 89.5c31.333 52 53.833 107.5 67.5 166.5
s20.834 118.833 21.501 179.5c1.33301 93.333 -5.33398 187.666 -20.001 282.999s-39.334 186.666 -74.001 273.999c-4.66699 12 -4 22.333 2 31s14 14.334 24 17.001s20.333 2 31 -2s18.667 -12 24 -24zM1252 928c-13.333 0 -23.5 4.33301 -30.5 13
s-10.5 18.167 -10.5 28.5s3.5 19.833 10.5 28.5s17.167 13 30.5 13s23.333 -4.33301 30 -13s10 -18.167 10 -28.5s-3.33301 -19.833 -10 -28.5s-16.667 -13 -30 -13z" />
    <glyph glyph-name="k" unicode="k" horiz-adv-x="2722" 
d="M1902 107c11.333 -6.66699 17.6709 -15.499 19.0039 -26.499s-0.5 -21 -5.5 -30s-12.667 -15.5 -23 -19.5s-21.166 -2.66699 -32.499 4c-66.667 39.333 -131.334 80.166 -194.001 122.499s-127.334 82.5 -194.001 120.5l-123 69c-40.667 22.667 -80.334 47 -119.001 73
c14 -60.667 28.667 -120.834 44 -180.501s31.666 -119.834 48.999 -180.501c4 -12.667 2.83301 -23.334 -3.5 -32.001s-14.5 -14.334 -24.5 -17.001s-20 -2 -30 2s-17 12.333 -21 25c-24.667 82 -47 164.5 -67 247.5l-58 249.5l-56 250c-18.667 83.333 -39 166.333 -61 249
c-3.33301 12.667 -1.83301 23.334 4.5 32.001s14.5 14.334 24.5 17.001s20.167 2 30.5 -2s17.166 -12.333 20.499 -25c21.333 -82.667 41.333 -164.667 60 -246l56 -247c74.667 24.667 149.5 44.334 224.5 59.001s151.833 22.667 230.5 24
c13.333 0 23.333 -4.16699 30 -12.5s10 -17.666 10 -27.999s-3.33301 -20 -10 -29s-16.667 -13.5 -30 -13.5c-68 -1.33301 -134 -7.83301 -198 -19.5s-127.667 -27.167 -191 -46.5c46.667 -32.667 95.167 -62 145.5 -88s99.5 -54 147.5 -84l172.5 -109.5
c56.333 -37 113.833 -72.833 172.5 -107.5z" />
    <glyph glyph-name="l" unicode="l" horiz-adv-x="2737" 
d="M1847 337c13.333 2 23.1699 -0.830078 29.5029 -8.49707s9.5 -16.667 9.5 -27s-3.33301 -20.333 -10 -30s-16.334 -15.5 -29.001 -17.5c-124 -16.667 -247.167 -36.334 -369.5 -59.001s-244.833 -47 -367.5 -73c-5.33301 -2 -10.666 -3 -15.999 -3
c-9.33301 -0.666992 -17.5 1.66602 -24.5 6.99902s-12.167 11.666 -15.5 18.999c-2 2.66699 -3 6.66699 -3 12c-0.666992 0.666992 -1 2 -1 4v2c0 5.33301 0.333008 9.33301 1 12c23.333 126 42.666 251.667 57.999 377s23.666 252.333 24.999 381
c0 13.333 4.33301 23.333 13 30s18.167 10 28.5 10s19.833 -3.33301 28.5 -10s13 -16.667 13 -30v-27c0 -4 -0.333008 -7 -1 -9c-2.66699 -116 -10.834 -230.5 -24.501 -343.5s-30.167 -226.5 -49.5 -340.5c117.333 25.333 234.5 48.5 351.5 69.5s234.833 39.167 353.5 54.5
z" />
    <glyph glyph-name="m" unicode="m" horiz-adv-x="2934" 
d="M2031 214c4 -12.667 2.83398 -23.332 -3.49902 -31.999s-14.666 -14.334 -24.999 -17.001s-20.666 -2 -30.999 2s-17.5 12.333 -21.5 25l-95 306c-31.333 101.333 -65 202.666 -101 303.999l-139 -182.5c-45.333 -61 -88 -123.833 -128 -188.5
c-7.33301 -12 -17.333 -18.667 -30 -20s-24.334 2.66699 -35.001 12c-54 46 -105.333 95.333 -154 148s-96 107 -142 163c-3.33301 -89.333 -8.33301 -178 -15 -266s-15.667 -176.333 -27 -265c-1.33301 -13.333 -6.66602 -23.166 -15.999 -29.499s-19.333 -9.5 -30 -9.5
s-19.834 3.16699 -27.501 9.5s-10.834 16.166 -9.50098 29.499c13.333 107.333 23.666 214.333 30.999 321s12.666 213.667 15.999 321c0 8 2.66699 15.5 8 22.5s11.666 12.333 18.999 16s15 5 23 4s15 -5.16699 21 -12.5l154 -187
c52.667 -61.333 109.334 -119 170.001 -173c45.333 70 93 138 143 204l152 197c5.33301 6.66699 11.5 10.667 18.5 12s13.833 0.833008 20.5 -1.5s12.834 -6.16602 18.501 -11.499s9.5 -11 11.5 -17c42 -112.667 80.833 -226 116.5 -340z" />
    <glyph glyph-name="n" unicode="n" horiz-adv-x="3030" 
d="M1165 868c2 7.33301 5.66797 13.499 11.001 18.499s11.5 8.33301 18.5 10s14.167 1.66699 21.5 0s13.666 -5.16699 18.999 -10.5l285 -285.5l285 -286.5c13.333 50 25.833 100 37.5 150l34.5 150l34 150c11.333 50 23.666 100 36.999 150
c3.33301 12.667 10 21.167 20 25.5s20 5.16602 30 2.49902s18.333 -8.5 25 -17.5s8.33398 -19.833 5.00098 -32.5c-14.667 -55.333 -28.334 -111 -41.001 -167l-38 -168l-39 -167.5c-13.333 -55.667 -28.333 -110.834 -45 -165.501c-2 -7.33301 -5.66699 -13.5 -11 -18.5
s-11.333 -8.5 -18 -10.5s-13.5 -2.16699 -20.5 -0.5s-13.5 5.5 -19.5 11.5l-284 285l-284 285c-12.667 -50 -24.5 -100 -35.5 -150l-33.5 -150l-35.5 -149.5c-12.333 -49.667 -25.833 -99.167 -40.5 -148.5c-4 -12.667 -11.167 -21.167 -21.5 -25.5
s-20.5 -5.16602 -30.5 -2.49902s-18.167 8.33398 -24.5 17.001s-7.5 19.667 -3.5 33c16.667 54.667 31.667 109.834 45 165.501l38.5 167.5l37.5 168c12.667 56 26.334 111.667 41.001 167z" />
    <glyph glyph-name="o" unicode="o" horiz-adv-x="2368" 
d="M1467 534c-3.33301 -36 -12.666 -70.668 -27.999 -104.001s-35.333 -62.666 -60 -87.999s-53.5 -45.333 -86.5 -60s-68.833 -21 -107.5 -19c-37.333 2 -73.333 10.333 -108 25s-65.5 34.5 -92.5 59.5s-48.167 54.333 -63.5 88s-22 70.5 -20 110.5
c2 36.667 10.333 72.5 25 107.5s34.5 65.833 59.5 92.5s54.5 47.667 88.5 63s71 22 111 20c38.667 -2 74.5 -10 107.5 -24s61.833 -32.833 86.5 -56.5s44.667 -51.667 60 -84s24.666 -67.833 27.999 -106.5c0.666992 -2 1 -6 1 -12c0 -5.33301 -0.333008 -9.33301 -1 -12z
M984 545.999c2 -42.667 13.1631 -78.499 33.4961 -107.499s44.833 -50.667 73.5 -65s59.834 -21.5 93.501 -21.5s64.834 7.33301 93.501 22s53 36.167 73 64.5s31.333 64.166 34 107.499c-2.66699 42.667 -14.667 78.334 -36 107.001s-47.166 50.167 -77.499 64.5
s-62.833 21.666 -97.5 21.999s-66.5 -6.66699 -95.5 -21s-52.667 -35.833 -71 -64.5s-26.166 -64.667 -23.499 -108z" />
    <glyph glyph-name="p" unicode="p" horiz-adv-x="2377" 
d="M1440 801c18.667 -12.667 29.8359 -28.1641 33.5029 -46.4971s3 -37.333 -2 -57s-12.833 -38.834 -23.5 -57.501s-21.334 -34.334 -32.001 -47.001c-34 -41.333 -73.333 -76.666 -118 -105.999s-92 -53.333 -142 -72l71.5 -317.5
c24.333 -105 51.833 -209.833 82.5 -314.5c4 -13.333 2.83301 -24.333 -3.5 -33s-14.5 -14.334 -24.5 -17.001s-20 -2 -30 2s-17 12.333 -21 25c-22.667 76 -43.334 152.167 -62.001 228.5l-54.5 230l-52 231c-17 77 -35.167 153.5 -54.5 229.5
c-10 -2.66699 -19.5 -2 -28.5 2s-16.167 9.5 -21.5 16.5s-7.83301 14.833 -7.5 23.5s5.16602 16.667 14.499 24c3.33301 3.33301 7 6.16602 11 8.49902s8 4.83301 12 7.5c-2 10.667 -0.166992 19.834 5.5 27.501s12.834 13 21.501 16s17.5 3.5 26.5 1.5
s16.167 -7.33301 21.5 -16c23.333 6 46.666 10.833 69.999 14.5l67 10.5c18.667 2.66699 38.5 5.66699 59.5 9s42 5.16602 63 5.49902s41.5 -1.5 61.5 -5.5s38.667 -11.667 56 -23zM1390 712.003c2.66699 10 1.50391 17.3359 -3.49609 22.0029s-11.5 8 -19.5 10
s-16.5 2.83301 -25.5 2.5s-16.833 -0.5 -23.5 -0.5c-26 -1.33301 -52 -3.83301 -78 -7.5s-51.667 -8.16699 -77 -13.5c-10.667 -2.66699 -22.834 -4.83398 -36.501 -6.50098s-27.167 -4.16699 -40.5 -7.5c9.33301 -36 18.166 -71.833 26.499 -107.5l24.5 -107.5
c32 12 62.833 26.667 92.5 44s56.5 37.666 80.5 60.999c15.333 15.333 31.166 32.166 47.499 50.499s27.166 38.5 32.499 60.5z" />
    <glyph glyph-name="q" unicode="q" horiz-adv-x="2451" 
d="M1450 -246c1.33301 -13.333 -1.8252 -23.167 -9.49219 -29.5s-16.667 -9.5 -27 -9.5s-20.166 3.16699 -29.499 9.5s-14.666 16.166 -15.999 29.499c-13.333 124.667 -22.666 248.667 -27.999 372l-16 373c-17.333 -20.667 -35.833 -39.5 -55.5 -56.5
s-40.834 -31.5 -63.501 -43.5s-46.834 -21.167 -72.501 -27.5s-52.834 -8.83301 -81.501 -7.5c-32.667 1.33301 -59.834 9.83301 -81.501 25.5s-38.334 35.5 -50.001 59.5s-17.834 50.333 -18.501 79s3.66602 56.667 12.999 84c8 23.333 20.667 46 38 68
s37.333 42.333 60 61s47.5 35.167 74.5 49.5s54.167 24.833 81.5 31.5s54.166 9 80.499 7s50.5 -9.33301 72.5 -22c6 4 12.667 6.33301 20 7s14.5 -0.333008 21.5 -3s13.167 -7.16699 18.5 -13.5s8.33301 -14.166 9 -23.499c1.33301 -10 2.16602 -20.167 2.49902 -30.5
s1.16602 -20.833 2.49902 -31.5c0 -1.33301 0.166992 -3 0.5 -5s0.166016 -3.66699 -0.500977 -5c5.33301 -79.333 9.66602 -158.5 12.999 -237.5l10 -237c3.33301 -79 7.33301 -158 12 -237s11.334 -157.833 20.001 -236.5zM1156.01 463.999
c37.333 19.333 68.665 44.1631 93.998 74.4961s47.666 63.5 66.999 99.5l-2 29l-2 30l-1 1c-8.66699 22 -22 36.667 -40 44s-38 9.66602 -60 6.99902s-45 -9.66699 -69 -21s-46.333 -24.666 -67 -39.999s-38.5 -31.666 -53.5 -48.999s-24.5 -33.666 -28.5 -48.999
c-2.66699 -8.66699 -5.16699 -18.167 -7.5 -28.5s-3.66602 -20.666 -3.99902 -30.999s0.5 -20.333 2.5 -30s6 -18.5 12 -26.5c8.66699 -11.333 19.834 -19.166 33.501 -23.499s28 -6.5 43 -6.5s29.833 2 44.5 6s27.334 8.66699 38.001 14z" />
    <glyph glyph-name="r" unicode="r" horiz-adv-x="2857" 
d="M2085 208c12 -6 18.8311 -14.166 20.498 -24.499s-0.166016 -20 -5.5 -29c-5.33301 -9 -13.166 -15.667 -23.499 -20s-21.5 -3.5 -33.5 2.5c-69.333 34 -139.666 66.167 -210.999 96.5l-214 92l-212 96c-70 33 -138.333 69.167 -205 108.5
c0.666992 -78.667 0.833984 -157.167 0.500977 -235.5s-0.5 -156.833 -0.5 -235.5c0 -13.333 -4.33301 -23.5 -13 -30.5s-18.167 -10.5 -28.5 -10.5s-19.833 3.5 -28.5 10.5s-13 17.167 -13 30.5c0 87.333 0.166992 174.5 0.5 261.5s-0.166992 174.5 -1.5 262.5
c-10.667 8.66699 -15.834 19 -15.501 31s5.16602 22.333 14.499 31c-1.33301 64.667 -3 129.334 -5 194.001s-5.33301 129.667 -10 195c-0.666992 13.333 3 23.333 11 30s17.167 10 27.5 10s20 -3.33301 29 -10s14.167 -16.667 15.5 -30
c1.33301 -11.333 2.16602 -22.833 2.49902 -34.5s0.833008 -23.167 1.5 -34.5c16.667 -2.66699 37 -5.16699 61 -7.5s48.833 -5.5 74.5 -9.5s51.167 -9.16699 76.5 -15.5s48.5 -14.5 69.5 -24.5s38.167 -22.333 51.5 -37s21 -32.667 23 -54
c3.33301 -38.667 -4.16699 -70.334 -22.5 -95.001s-42.333 -44.834 -72 -60.501s-62.667 -28 -99 -37s-71.166 -17.167 -104.499 -24.5c66.667 -39.333 134.834 -75.333 204.501 -108l211 -95.5l213 -92c71 -30.333 141.167 -62.5 210.5 -96.5zM1433 828.001
c-38 16.667 -77.498 27.832 -118.498 33.499s-81.833 11.834 -122.5 18.501c1.33301 -34 2.5 -68.167 3.5 -102.5s2.16699 -68.833 3.5 -103.5c20 4.66699 40.167 8.33398 60.5 11.001s41.166 6.66699 62.499 12c5.33301 1.33301 14 4.66602 26 9.99902
s24.5 11.833 37.5 19.5s25.667 16.167 38 25.5s21.666 18.5 27.999 27.5s8.5 17.833 6.5 26.5s-10.333 16 -25 22z" />
    <glyph glyph-name="s" unicode="s" horiz-adv-x="2739" 
d="M1751 571c34 -20.667 57.835 -42.334 71.502 -65.001s18.5 -45 14.5 -67s-15.833 -43.333 -35.5 -64s-45.5 -39.334 -77.5 -56.001c-24 -12.667 -49.5 -22.5 -76.5 -29.5s-54.5 -12.5 -82.5 -16.5s-56 -7.16699 -84 -9.5s-55 -5.16602 -81 -8.49902
c-68.667 -8.66699 -136.834 -16.667 -204.501 -24s-135.834 -13.666 -204.501 -18.999c-13.333 -1.33301 -23.333 2.16699 -30 10.5s-10 17.666 -10 27.999s3.33301 20 10 29s16.667 14.167 30 15.5c77.333 6.66699 154.166 14 230.499 22s152.833 17 229.5 27
c21.333 2.66699 43.5 5.16699 66.5 7.5s45.833 5.5 68.5 9.5s44.834 9.5 66.501 16.5s41.834 16.833 60.501 29.5c18 12 29.167 23.167 33.5 33.5s4.33301 19.833 0 28.5s-11.833 16.5 -22.5 23.5s-22.167 13.167 -34.5 18.5s-24.666 10 -36.999 14s-22.166 7 -29.499 9
c-34 10 -68.333 19.333 -103 28s-69 17.834 -103 27.501s-68 20 -102 31s-67.333 23.833 -100 38.5c-14 6 -30 13.667 -48 23s-33.833 20.166 -47.5 32.499s-22.334 26.333 -26.001 42s2.16602 32.834 17.499 51.501c8.66699 10.667 21.667 18.667 39 24
s35.5 9.16602 54.5 11.499s37.667 3.83301 56 4.5s33.166 1.66699 44.499 3c56.667 6 112.667 11.5 168 16.5s111.333 9.16699 168 12.5c13.333 0.666992 23.333 -3 30 -11s10 -17.167 10 -27.5s-3.33301 -20.166 -10 -29.499s-16.667 -14.333 -30 -15
c-64.667 -3.33301 -128.667 -8 -192 -14s-127 -12.667 -191 -20c-9.33301 -0.666992 -18.333 -1.66699 -27 -3l-27 -4l7 -3.5c2 -1 4 -2.16699 6 -3.5c16.667 -8 33.167 -15.333 49.5 -22s32.833 -13 49.5 -19c34.667 -12 71 -22.5 109 -31.5l114 -27.5
c38 -9.33301 75 -20 111 -32s69.667 -27.333 101 -46z" />
    <glyph glyph-name="t" unicode="t" horiz-adv-x="2690" 
d="M1876 199c12 5.33301 23.3389 5.66797 34.0059 1.00098s18.667 -11.5 24 -20.5s7 -18.5 5 -28.5s-9 -17.667 -21 -23c-56 -24 -114 -43 -174 -57s-118.333 -18.333 -175 -13s-109.5 22.666 -158.5 51.999s-90.167 75.333 -123.5 138
c-27.333 53.333 -49.333 109.666 -66 168.999c-54 -11.333 -107.5 -23.833 -160.5 -37.5s-106.167 -28.5 -159.5 -44.5c-12.667 -4 -23.334 -2.83301 -32.001 3.5s-14.334 14.5 -17.001 24.5s-2 20.167 2 30.5s12.333 17.5 25 21.5c54 16.667 107.667 31.667 161 45
s107 25.666 161 36.999c-16.667 82.667 -26.834 166.167 -30.501 250.5s-6.83398 167.166 -9.50098 248.499c-0.666992 13.333 3.16602 23.333 11.499 30s17.833 10 28.5 10s20.334 -3.33301 29.001 -10s13.334 -16.667 14.001 -30l8.5 -241.5
c3 -81.667 12.833 -162.167 29.5 -241.5c61.333 11.333 122.5 21.333 183.5 30s123.167 16 186.5 22c13.333 1.33301 23.166 -2 29.499 -10s9.5 -17.333 9.5 -28s-3.33301 -20.667 -10 -30s-16.334 -14.333 -29.001 -15c-60 -5.33301 -118.833 -12 -176.5 -20
s-115.5 -17.667 -173.5 -29c2 -7.33301 4.16699 -14.666 6.5 -21.999s4.83301 -14.666 7.5 -21.999c24 -68 55 -121.167 93 -159.5s81.333 -64.166 130 -77.499s101.667 -15.5 159 -6.5s116.666 26.833 177.999 53.5z" />
    <glyph glyph-name="u" unicode="u" horiz-adv-x="2514" 
d="M951 780c-1.33301 13.333 1.83496 23.333 9.50195 30s16.834 10 27.501 10s20.667 -3.33301 30 -10s14.666 -16.667 15.999 -30c2.66699 -26.667 6.16699 -58.834 10.5 -96.501s10.666 -76.5 18.999 -116.5s19.333 -79 33 -117s31.334 -70 53.001 -96
s48.334 -44 80.001 -54s69.5 -7 113.5 9c31.333 11.333 57.833 28.333 79.5 51s39.5 48.834 53.5 78.501s24.667 61.834 32 96.501s12.666 69.5 15.999 104.5s5.16602 69.333 5.49902 103s0.5 64.167 0.5 91.5c0 13.333 4.16699 23.333 12.5 30s17.666 10 27.999 10
s20 -3.33301 29 -10s13.5 -16.667 13.5 -30c0 -34.667 -0.833008 -73.667 -2.5 -117s-6 -87.5 -13 -132.5s-17 -89 -30 -132s-30.833 -81.5 -53.5 -115.5s-51 -61.833 -85 -83.5s-74.667 -33.167 -122 -34.5c-50.667 -2 -94 5.33301 -130 22s-66.5 39.5 -91.5 68.5
s-45.167 62.667 -60.5 101s-27.833 78.666 -37.5 120.999s-17.167 84.833 -22.5 127.5s-10 83 -14 121z" />
    <glyph glyph-name="v" unicode="v" horiz-adv-x="2533" 
d="M1551 956c3.33301 12.667 9.99609 21.1729 19.9961 25.5059s20 5.16602 30 2.49902s18.333 -8.5 25 -17.5s8.33398 -19.833 5.00098 -32.5l-62.5 -243c-21 -80.667 -43.167 -161.334 -66.5 -242.001c-8 -28 -15.833 -56.833 -23.5 -86.5l-24 -89
c-8.33301 -29.667 -17.833 -58.834 -28.5 -87.501s-23 -56 -37 -82c-4 -6.66699 -9.16699 -11.667 -15.5 -15s-13.166 -5 -20.499 -5s-14.166 1.66699 -20.499 5s-11.5 8.33301 -15.5 15c-14 26.667 -26.667 54.667 -38 84s-21.833 59.166 -31.5 89.499l-28.5 91
c-9.33301 30.333 -19 59.833 -29 88.5l-86.5 246.5c-28.333 82.333 -61.166 162.833 -98.499 241.5c-6 12 -6.66699 23.167 -2 33.5s11.5 18.166 20.5 23.499s18.5 7.16602 28.5 5.49902s18 -8.5 24 -20.5c34.667 -72.667 65.5 -147.167 92.5 -223.5l81.5 -228.5l24.5 -73
l25.5 -79.5l26 -80.5c8.66699 -26.667 17.667 -51.667 27 -75c19.333 50 35.333 101.5 48 154.5s25.667 104.5 39 154.5z" />
    <glyph glyph-name="w" unicode="w" horiz-adv-x="2975" 
d="M1941 882c1.33301 12.667 6.65723 22.3359 15.9902 29.0029s19.333 10 30 10s19.834 -3.16699 27.501 -9.5s10.834 -16.166 9.50098 -29.499c-13.333 -107.333 -23.666 -214.666 -30.999 -321.999s-12.666 -215 -15.999 -323c0 -8 -2.66699 -15.5 -8 -22.5
s-11.666 -12.333 -18.999 -16s-15 -5 -23 -4s-15 5.16699 -21 12.5c-48 61.333 -97.667 121.5 -149 180.5s-105.666 115.167 -162.999 168.5c-19.333 -64 -44 -126.167 -74 -186.5s-61 -119.5 -93 -177.5c-3.33301 -5.33301 -7.66602 -9.83301 -12.999 -13.5
s-11.333 -6 -18 -7s-13 -0.5 -19 1.5s-11 5.66699 -15 11l-116 144l-117.5 145l-114.5 147c-37.333 49.333 -72.666 99.666 -105.999 150.999c-7.33301 11.333 -9.16602 22 -5.49902 32s10 17.667 19 23s19 7.33301 30 6s20.167 -7.66602 27.5 -18.999
c60.667 -92 126.167 -181 196.5 -267l209.5 -259c30.667 56.667 59.167 114.5 85.5 173.5s46.5 119.833 60.5 182.5c2 8 5.66699 14.333 11 19s11.5 7.66699 18.5 9s14 1.16602 21 -0.500977s13.5 -4.83398 19.5 -9.50098c54.667 -46.667 106.334 -96.334 155.001 -149.001
s96 -107.334 142 -164.001c4 90 9.33301 179.167 16 267.5s15.667 177.166 27 266.499z" />
    <glyph glyph-name="x" unicode="x" horiz-adv-x="2502" 
d="M1589 261c9.33301 -9.33301 13.333 -19.332 12 -29.999s-5.66602 -19.667 -12.999 -27s-16.5 -11.666 -27.5 -12.999s-21.167 2.66699 -30.5 12l-127 129.5l-124 133.5l-62 -145c-20 -48.667 -39 -98 -57 -148c-4.66699 -12.667 -12.334 -21 -23.001 -25
s-21 -4.5 -31 -1.5s-18 8.66699 -24 17s-6.66699 18.833 -2 31.5c41.333 113.333 87.333 225.666 138 336.999l-152.5 171l-153.5 170c-9.33301 10 -13.166 20.5 -11.499 31.5s6.33398 20.167 14.001 27.5s16.667 11.666 27 12.999s20.166 -3 29.499 -13l142.5 -158.5
l142.5 -159.5l78 157.5l82 155.5c6 12 14.333 18.667 25 20s20.5 -0.666992 29.5 -6s15.667 -13 20 -23s3.16602 -21 -3.50098 -33l-87.5 -167.5l-83.5 -169.5l134.5 -145.5z" />
    <glyph glyph-name="y" unicode="y" horiz-adv-x="2467" 
d="M1483 816c4.66699 12 12.501 20.0029 23.501 24.0029s21.5 4.66699 31.5 2s18 -8.16699 24 -16.5s6.66699 -18.833 2 -31.5l-80.5 -205l-79.5 -205c0 -8.66699 -3 -16.334 -9 -23.001l-56.5 -137c-19 -45.333 -39.167 -90.666 -60.5 -135.999
c-5.33301 -12 -13.166 -18.833 -23.499 -20.5s-20 0.166016 -29 5.49902s-15.833 13.166 -20.5 23.499s-4 21.5 2 33.5l54.5 124.5l51.5 125.5c-34 47.333 -66.833 95.5 -98.5 144.5l-96.5 146l-99.5 144c-33.667 47.667 -69.5 93.834 -107.5 138.501
c-8.66699 10 -12 20.667 -10 32s6.66699 20.666 14 27.999s16.166 11.5 26.499 12.5s19.833 -3.5 28.5 -13.5c35.333 -42.667 69.166 -86.334 101.499 -131.001l95 -135l91.5 -137l92 -137l66.5 171.5z" />
    <glyph glyph-name="z" unicode="z" horiz-adv-x="2782" 
d="M1941 246c13.333 0 23.333 -4.33105 30 -12.998s10 -18.167 10 -28.5s-3.33301 -19.833 -10 -28.5s-16.667 -13 -30 -13c-166 0.666992 -332.5 3.16699 -499.5 7.5s-333.167 14.166 -498.5 29.499c-8 0.666992 -15.5 3.5 -22.5 8.5s-12.167 11 -15.5 18
s-4.5 14.5 -3.5 22.5s5.16699 15.333 12.5 22c62.667 54 128 103.833 196 149.5s137.167 89.5 207.5 131.5l213.5 123l213 123c-66.667 6 -133.334 10.667 -200.001 14s-133.334 6.5 -200.001 9.5s-133.5 6.33301 -200.5 10s-133.833 8.5 -200.5 14.5
c-13.333 1.33301 -23.166 6.66602 -29.499 15.999s-9.5 19.166 -9.5 29.499s3.16699 19.5 9.5 27.5s16.166 11.333 29.499 10c76.667 -7.33301 153.667 -12.833 231 -16.5l232 -10.5c77.333 -3.33301 154.5 -7.5 231.5 -12.5s153.833 -12.167 230.5 -21.5
c10 -1.33301 18.5 -5 25.5 -11s11.667 -12.833 14 -20.5s2.16602 -15.667 -0.500977 -24s-8.66699 -15.5 -18 -21.5c-69.333 -44.667 -139.666 -87.167 -210.999 -127.5l-214.5 -122l-212 -127c-69.667 -43.667 -137.167 -90.5 -202.5 -140.5
c148.667 -11.333 297.334 -18.666 446.001 -21.999s297.334 -5.33301 446.001 -6z" />
    <glyph glyph-name="braceleft" unicode="{" horiz-adv-x="941" 
d="M630 -87c10.667 -28.667 23.498 -55.5029 38.498 -80.5029s31.167 -49.167 48.5 -72.5s35.666 -46.166 54.999 -68.499l58 -67.5c8.66699 -10 12.167 -20.333 10.5 -31s-6.16699 -19.5 -13.5 -26.5s-16 -11.167 -26 -12.5s-19.333 3 -28 13l-87 105
c-27.333 34 -52 69.333 -74 106s-40.667 75.334 -56 116.001s-26.666 85 -33.999 133c-6 36.667 -12.833 71.834 -20.5 105.501s-18.167 65.5 -31.5 95.5s-30.833 58 -52.5 84s-49.167 49.667 -82.5 71c-35.333 22 -71 42.833 -107 62.5s-72 40.5 -108 62.5
c-13.333 8 -19.833 19.333 -19.5 34s6.83301 26.334 19.5 35.001c40.667 27.333 73 59 97 95s42.5 74.833 55.5 116.5s22.167 85.667 27.5 132s9.33301 93.333 12 141s5.5 95.334 8.5 143.001s8.83301 94.334 17.5 140.001s21.834 89.167 39.501 130.5s42.5 79.333 74.5 114
c8.66699 10 18.167 14.333 28.5 13s19 -5.5 26 -12.5s11.333 -16 13 -27s-1.83301 -21.167 -10.5 -30.5c-31.333 -34 -55.666 -70.5 -72.999 -109.5s-30.333 -79.833 -39 -122.5s-14.5 -86.334 -17.5 -131.001s-5.5 -89.667 -7.5 -135s-5 -90.166 -9 -134.499
s-11.333 -87.166 -22 -128.499s-26.167 -80.833 -46.5 -118.5s-47.833 -72.5 -82.5 -104.5l97 -52.5c34 -17.667 66.333 -37.334 97 -59.001s58.5 -45.5 83.5 -71.5s43.833 -55.667 56.5 -89c11.333 -29.333 20 -59.333 26 -90s11.333 -61.334 16 -92.001
s10 -61.334 16 -92.001s14.667 -60.334 26 -89.001z" />
    <glyph glyph-name="bar" unicode="|" horiz-adv-x="2394" 
d="M1101 1488c-0.666992 12 2.66504 21 9.99805 27s15.666 9 24.999 9s18.166 -3 26.499 -9s12.833 -15 13.5 -27c10 -158 22.833 -316 38.5 -474s30.334 -316 44.001 -474s23.834 -316.167 30.501 -474.5s6 -316.833 -2 -475.5c-0.666992 -12 -5 -21 -13 -27
s-16.667 -9 -26 -9s-17.666 3 -24.999 9s-10.666 15 -9.99902 27c8 158.667 8.5 317.167 1.5 475.5s-17.167 316.5 -30.5 474.5s-28 316 -44 474s-29 316 -39 474z" />
    <glyph glyph-name="braceright" unicode="}" horiz-adv-x="940" 
d="M821 647c13.333 -8.66699 19.6631 -20.3311 18.9961 -34.998s-7 -26.334 -19 -35.001c-40.667 -27.333 -73 -59 -97 -95s-42.5 -74.833 -55.5 -116.5s-22.167 -85.5 -27.5 -131.5s-9.33301 -92.833 -12 -140.5l-8 -143.5c-2.66699 -48 -8.5 -94.667 -17.5 -140
s-22.167 -88.666 -39.5 -129.999s-42 -79.333 -74 -114c-9.33301 -10 -19.166 -14.333 -29.499 -13s-19 5.5 -26 12.5s-11.167 15.833 -12.5 26.5s2.33398 20.667 11.001 30c30.667 34 54.834 70.5 72.501 109.5s30.834 79.833 39.501 122.5s14.5 86.334 17.5 131.001
s5.5 89.667 7.5 135s5 90.166 9 134.499s11.333 87.166 22 128.499s26.167 80.833 46.5 118.5s47.833 72.5 82.5 104.5l-97.5 52c-33.667 18 -66 37.833 -97 59.5s-58.833 45.5 -83.5 71.5s-43.334 55.667 -56.001 89c-11.333 29.333 -20 59.333 -26 90
s-11.5 61.334 -16.5 92.001s-10.5 61.167 -16.5 91.5s-14.667 60.166 -26 89.499c-11.333 28.667 -24.333 55.5 -39 80.5s-30.667 49.167 -48 72.5s-35.666 46.166 -54.999 68.499l-58 67.5c-8 10 -11.167 20.333 -9.5 31s6 19.5 13 26.5s15.5 11.167 25.5 12.5
s19.333 -3 28 -13l87 -105.5c27.333 -34.333 52 -69.666 74 -105.999s40.833 -74.833 56.5 -115.5s27.167 -85 34.5 -133c5.33301 -36.667 11.833 -71.834 19.5 -105.501s18.334 -65.5 32.001 -95.5s31.167 -58.167 52.5 -84.5s48.666 -49.833 81.999 -70.5
c35.333 -22 71 -42.833 107 -62.5z" />
    <glyph glyph-name="asciitilde" unicode="~" horiz-adv-x="3105" 
d="M2352 645c12.667 2 23.4961 -0.665039 32.4961 -7.99805s15 -16 18 -26s2.33301 -19.667 -2 -29s-13.166 -15 -26.5 -17c-42 -6.66699 -84.833 -16.334 -128.5 -29.001l-132.5 -38c-44.667 -12.667 -89.5 -23.834 -134.5 -33.501s-89.5 -15.5 -133.5 -17.5
s-87.5 1.33301 -130.5 10s-84.833 25.667 -125.5 51c-10.667 6.66699 -20.5 14.334 -29.5 23.001s-17.5 17.667 -25.5 27l-24.5 27.5c-8.33301 9 -17.5 17.167 -27.5 24.5c-9.33301 7.33301 -24.166 11 -44.499 11s-41.833 -1.83301 -64.5 -5.5
s-44.167 -7.83398 -64.5 -12.501l-43.5 -10c-44 -10.667 -87.333 -23.334 -130 -38.001s-84.667 -30.667 -126 -48s-82.333 -35.666 -123 -54.999l-122 -58c-12 -6 -23.167 -6.66699 -33.5 -2s-18.166 11.5 -23.499 20.5s-7.16602 18.667 -5.49902 29s8.5 18.5 20.5 24.5
l115.5 55.5l118 55c39.667 17.667 79.667 33.834 120 48.501s81.5 27 123.5 37c20.667 4.66699 45.334 10.667 74.001 18s58 13.166 88 17.499s59.333 6 88 5s53 -7.5 73 -19.5c17.333 -10.667 32.5 -24.5 45.5 -41.5s27.167 -31.833 42.5 -44.5
c45.333 -36 94.666 -57.333 147.999 -64s107.333 -4.66699 162 6c36.667 7.33301 72.834 15.833 108.501 25.5l107.5 29.5l107.5 28.5c35.667 9 71.834 16.5 108.5 22.5z" />
    <glyph glyph-name="uni00A0" unicode="&#xa0;" horiz-adv-x="0" 
 />
    <glyph glyph-name="exclamdown" unicode="&#xa1;" horiz-adv-x="493" 
d="M310 29c-25.333 96 -48.833 192 -70.5 288l-64.5 290c-3.33301 12.667 -1.5 23.5 5.5 32.5s15.667 14.833 26 17.5s20.333 1.83398 30 -2.49902s16.167 -12.833 19.5 -25.5l64.5 -290c21.667 -96 45.167 -192 70.5 -288c3.33301 -13.333 1.66602 -24.333 -5.00098 -33
s-15 -14.334 -25 -17.001s-20.167 -2 -30.5 2s-17.166 12.667 -20.499 26zM141 1092c13.333 0 23.333 -4.33301 30 -13s10 -18.167 10 -28.5s-3.33301 -19.833 -10 -28.5s-16.667 -13 -30 -13s-23.5 4.33301 -30.5 13s-10.5 18.167 -10.5 28.5s3.5 19.833 10.5 28.5
s17.167 13 30.5 13z" />
    <glyph glyph-name="guillemotleft" unicode="&#xab;" 
d="M441 1311c-46.667 -47.333 -91.335 -96.002 -134.002 -146.002s-88 -98 -136 -144c-9.33301 -9.33301 -19.5 -13.166 -30.5 -11.499s-20.167 6.16699 -27.5 13.5s-11.666 16.333 -12.999 27s3 20.667 13 30c48 46 93.167 94 135.5 144s86.833 98.667 133.5 146
c9.33301 9.33301 19.333 13.333 30 12s19.667 -5.66602 27 -12.999s11.833 -16.5 13.5 -27.5s-2.16602 -21.167 -11.499 -30.5zM475.999 1021c-9.33301 -9.33301 -19.499 -13.168 -30.499 -11.501s-20.167 6.16699 -27.5 13.5s-11.666 16.333 -12.999 27s3 20.667 13 30
c48 46 93.167 94 135.5 144s86.833 98.667 133.5 146c9.33301 9.33301 19.5 13.333 30.5 12s20.167 -5.66602 27.5 -12.999s11.666 -16.5 12.999 -27.5s-2.66699 -21.167 -12 -30.5c-46.667 -47.333 -91.334 -96 -134.001 -146s-88 -98 -136 -144z" />
    <glyph glyph-name="degree" unicode="&#xb0;" horiz-adv-x="611" 
d="M511 1206c0 -6 -0.331055 -10.3311 -0.998047 -12.998c-2.66699 -25.333 -9.66699 -50 -21 -74s-25.833 -45 -43.5 -63s-38.334 -32 -62.001 -42s-49.5 -14.333 -77.5 -13c-26.667 1.33301 -52.5 7.33301 -77.5 18s-47.333 25 -67 43s-35 39.167 -46 63.5
s-15.833 51.166 -14.5 80.499c1.33301 26.667 7.33301 52.5 18 77.5s25 47.167 43 66.5s39.167 34.666 63.5 45.999s51.166 16 80.499 14c28 -1.33301 53.833 -7 77.5 -17s44.5 -23.333 62.5 -40s32.5 -36.5 43.5 -59.5s17.833 -48.167 20.5 -75.5
c0.666992 -2.66699 1 -6.66699 1 -12zM185.002 1206c1.33301 -26 8.00098 -47.833 20.001 -65.5s26.833 -30.834 44.5 -39.501s36.5 -13 56.5 -13s38.833 4.33301 56.5 13s32.667 21.834 45 39.501s19.166 39.5 20.499 65.5c-1.33301 26 -8.5 47.667 -21.5 65
s-28.833 30.333 -47.5 39s-38.5 13 -59.5 13s-40.167 -4.33301 -57.5 -13s-31.5 -21.667 -42.5 -39s-15.833 -39 -14.5 -65z" />
    <glyph glyph-name="plusminus" unicode="&#xb1;" horiz-adv-x="2792" 
d="M1852 716c13.333 0 23.333 -4.33203 30 -12.999s10 -18.167 10 -28.5s-3.33301 -19.833 -10 -28.5s-16.667 -13 -30 -13c-74.667 -1.33301 -149 -4.33301 -223 -9l-223 -14v-345c0 -13.333 -4.33301 -23.5 -13 -30.5s-18.167 -10.5 -28.5 -10.5s-19.833 3.5 -28.5 10.5
s-13 17.167 -13 30.5v340c-64 -3.33301 -127.5 -5.33301 -190.5 -6s-126.833 1.33301 -191.5 6c-13.333 0.666992 -23.333 5.66699 -30 15s-10 19.166 -10 29.499s3.33301 19.5 10 27.5s16.667 11.667 30 11c64.667 -5.33301 128.5 -7.5 191.5 -6.5s126.5 3.16699 190.5 6.5
v294c0 13.333 4.33301 23.333 13 30s18.167 10 28.5 10s19.833 -3.33301 28.5 -10s13 -16.667 13 -30v-289l223 14c74 4.66699 148.333 7.66699 223 9zM941 76.001c-13.333 0.666992 -23.333 5.66797 -30 15.001s-10 19.166 -10 29.499s3.33301 19.5 10 27.5
s16.667 11.667 30 11c76 -6 152 -8 228 -6s151.833 5.33301 227.5 10s151.5 9.66699 227.5 15s152 8.33301 228 9c13.333 0 23.333 -4.33301 30 -13s10 -18.167 10 -28.5s-3.33301 -19.833 -10 -28.5s-16.667 -13 -30 -13c-76 -0.666992 -152 -3.66699 -228 -9
s-151.833 -10.333 -227.5 -15s-151.5 -8 -227.5 -10s-152 0 -228 6z" />
    <glyph glyph-name="acute" unicode="&#xb4;" horiz-adv-x="553" 
d="M112 1311c-9.33301 9.33301 -13.333 19.502 -12 30.502s5.66602 20.167 12.999 27.5s16.5 11.666 27.5 12.999s21.167 -2.66699 30.5 -12c46 -47.333 90.333 -96 133 -146s88 -98 136 -144c10 -9.33301 14.333 -19.333 13 -30s-5.66602 -19.667 -12.999 -27
s-16.5 -11.833 -27.5 -13.5s-21.5 2.16602 -31.5 11.499c-48 46 -93.167 94 -135.5 144s-86.833 98.667 -133.5 146z" />
    <glyph glyph-name="periodcentered" unicode="&#xb7;" horiz-adv-x="1882" 
d="M941 505c-13.333 0 -23.5 4.33301 -30.5 13s-10.5 18.167 -10.5 28.5s3.5 19.833 10.5 28.5s17.167 13 30.5 13s23.333 -4.33301 30 -13s10 -18.167 10 -28.5s-3.33301 -19.833 -10 -28.5s-16.667 -13 -30 -13z" />
    <glyph glyph-name="guillemotright" unicode="&#xbb;" 
d="M441 12c-46.667 -47.333 -91.335 -96 -134.002 -146s-88 -98 -136 -144c-9.33301 -9.33301 -19.5 -13.166 -30.5 -11.499s-20.167 6.16699 -27.5 13.5s-11.666 16.166 -12.999 26.499s3 20.166 13 29.499c48 46 93.167 94 135.5 144s86.833 98.667 133.5 146
c9.33301 10 19.333 14.333 30 13s19.667 -5.66602 27 -12.999s11.833 -16.5 13.5 -27.5s-2.16602 -21.167 -11.499 -30.5zM475.999 -278c-9.33301 -9.33301 -19.499 -13.166 -30.499 -11.499s-20.167 6.16699 -27.5 13.5s-11.666 16.166 -12.999 26.499s3 20.166 13 29.499
c48 46 93.167 94 135.5 144s86.833 98.667 133.5 146c9.33301 10 19.5 14.333 30.5 13s20.167 -5.66602 27.5 -12.999s11.666 -16.5 12.999 -27.5s-2.66699 -21.167 -12 -30.5c-46.667 -47.333 -91.334 -96 -134.001 -146s-88 -98 -136 -144z" />
    <glyph glyph-name="questiondown" unicode="&#xbf;" horiz-adv-x="1451" 
d="M282 90c-6.66699 2.66699 -12.668 6.66504 -18.001 11.998s-9 11.333 -11 18s-2.33301 13.5 -1 20.5s5 13.5 11 19.5c44 38.667 89.333 75.167 136 109.5l142 100.5l144 97.5c48 32.333 95.333 66.166 142 101.499c10.667 8 20.834 10.167 30.501 6.5
s17.167 -10 22.5 -19s7.5 -19.167 6.5 -30.5s-6.83301 -21 -17.5 -29c-40 -30 -80.833 -59.167 -122.5 -87.5l-125 -84.5l-123.5 -85.5c-40.667 -29 -80.334 -59.5 -119.001 -91.5c62.667 -15.333 126.667 -23.666 192 -24.999s131 0.833984 197 6.50098
s132 12.334 198 20.001s130.667 12.834 194 15.501c13.333 0.666992 23.333 -3.16602 30 -11.499s10 -17.833 10 -28.5s-3.33301 -20.334 -10 -29.001s-16.667 -13.334 -30 -14.001c-72 -2.66699 -145.167 -8.5 -219.5 -17.5s-148.666 -15.833 -222.999 -20.5
s-148 -4.5 -221 0.5s-144.5 20.167 -214.5 45.5zM784.999 969.998c-13.333 0 -23.333 4.33301 -30 13s-10 18.167 -10 28.5s3.33301 19.833 10 28.5s16.667 13 30 13s23.333 -4.33301 30 -13s10 -18.167 10 -28.5s-3.33301 -19.833 -10 -28.5s-16.667 -13 -30 -13z" />
    <glyph glyph-name="Oslash" unicode="&#xd8;" horiz-adv-x="2381" 
d="M1403 1014c6.66699 11.333 15.332 17.6641 25.999 18.9971s20.5 -0.5 29.5 -5.5s15.5 -12.667 19.5 -23s2.66699 -21.166 -4 -32.499l-57.5 -101.5l-56.5 -101.5c32 -24 57.667 -54 77 -90s31 -76.333 35 -121c0.666992 -2 1 -6 1 -12
c0 -5.33301 -0.333008 -9.33301 -1 -12c-3.33301 -36 -12.666 -70.667 -27.999 -104s-35.333 -62.666 -60 -87.999s-53.5 -45.333 -86.5 -60s-68.833 -21 -107.5 -19c-32.667 2 -63.334 8.33301 -92.001 19c-38 -69.333 -78 -137.333 -120 -204
c-7.33301 -11.333 -16.333 -17.666 -27 -18.999s-20.5 0.666992 -29.5 6s-15.5 13 -19.5 23s-2.33301 20.667 5 32l60 99.5l58 100.5c-36.667 25.333 -66.167 57.333 -88.5 96s-32.166 82 -29.499 130c2 36.667 10.333 72.5 25 107.5s34.5 65.833 59.5 92.5
s54.333 47.667 88 63s70.5 22 110.5 20c34 -2 66.667 -8.66699 98 -20l56.5 103zM989.998 545.998c2 -34.667 9.83203 -64.6709 23.499 -90.0039s30.834 -46 51.501 -62l91 167.5l89 168.5c-29.333 8.66699 -59.5 11.334 -90.5 8.00098s-59 -12.666 -84 -27.999
s-45.167 -36.666 -60.5 -63.999s-22 -60.666 -20 -99.999zM1390 545.994c-1.33301 32.667 -8.50098 60.998 -21.501 84.998s-29.5 44.333 -49.5 61l-89 -167l-89 -167c27.333 -6.66699 55.333 -7.66699 84 -3s54.834 14.834 78.501 30.501s43.5 36.834 59.5 63.501
s25 59 27 97z" />
    <glyph glyph-name="divide" unicode="&#xf7;" horiz-adv-x="2790" 
d="M1398 1092c13.333 0 23.333 -4.33301 30 -13s10 -18 10 -28s-3.33301 -19.333 -10 -28s-16.667 -13 -30 -13s-23.5 4.33301 -30.5 13s-10.5 18 -10.5 28s3.5 19.333 10.5 28s17.167 13 30.5 13zM1398 83c13.333 0 23.333 -4.33301 30 -13s10 -18.167 10 -28.5
s-3.33301 -19.833 -10 -28.5s-16.667 -13 -30 -13s-23.5 4.33301 -30.5 13s-10.5 18.167 -10.5 28.5s3.5 19.833 10.5 28.5s17.167 13 30.5 13zM941 492c-13.333 0.666992 -23.333 5.66602 -30 14.999s-10 19 -10 29s3.33301 19 10 27s16.667 11.667 30 11
c76 -5.33301 151.833 -7 227.5 -5s151.334 5.33301 227.001 10l227 14.5c75.667 5 151.5 7.83301 227.5 8.5c13.333 0 23.333 -4.16699 30 -12.5s10 -17.666 10 -27.999s-3.33301 -20 -10 -29s-16.667 -13.5 -30 -13.5c-76 -0.666992 -151.833 -3.5 -227.5 -8.5l-227 -14.5
c-75.667 -4.66699 -151.334 -8 -227.001 -10s-151.5 0 -227.5 6z" />
    <glyph glyph-name="afii10023" unicode="&#x401;" horiz-adv-x="2817" 
d="M1226 1310c0 38 0.167969 75.5 0.500977 112.5s-1.16699 74.167 -4.5 111.5c-1.33301 13.333 2.16699 23.333 10.5 30s17.666 10 27.999 10s20 -3.33301 29 -10s14.167 -16.667 15.5 -30c3.33301 -37.333 4.83301 -74.5 4.5 -111.5s-0.5 -74.5 -0.5 -112.5
c0 -13.333 -4.33301 -23.333 -13 -30s-18.167 -10 -28.5 -10s-19.833 3.33301 -28.5 10s-13 16.667 -13 30zM1653 1338c0.666992 38 1.16895 75.333 1.50195 112s-1.16699 74 -4.5 112c-1.33301 13.333 2.16699 23.333 10.5 30s17.666 10 27.999 10s20 -3.33301 29 -10
s14.167 -16.667 15.5 -30c3.33301 -38 4.66602 -75.333 3.99902 -112s-1 -74 -1 -112c0 -13.333 -4.33301 -23.5 -13 -30.5s-18.167 -10.5 -28.5 -10.5s-19.833 3.5 -28.5 10.5s-13 17.167 -13 30.5zM1976 374c13.333 0.666992 23.3291 -3.00293 29.9961 -11.0029
s10 -17.167 10 -27.5s-3.33301 -20.166 -10 -29.499s-16.667 -14.333 -30 -15c-29.333 -2 -67.5 -5.5 -114.5 -10.5s-99 -9.66699 -156 -14s-116.667 -7.66602 -179 -9.99902s-123.833 -1.66602 -184.5 2.00098s-118.167 11.167 -172.5 22.5s-101.833 28.333 -142.5 51
s-72.5 52 -95.5 88s-33.167 80.333 -30.5 133c1.33301 32.667 9.5 61.667 24.5 87s34.333 47.833 58 67.5s50.5 36.5 80.5 50.5s60.667 25.667 92 35s62.333 16.833 93 22.5s58.667 9.83398 84 12.501c26 2.66699 54.833 5 86.5 7s64.334 2.66699 98.001 2
s67.5 -3.16699 101.5 -7.5s66.167 -11.5 96.5 -21.5s58.333 -23.333 84 -40s46.834 -37.667 63.501 -63c8.66699 -12 9.66699 -23.833 3 -35.5s-15.667 -20.167 -27 -25.5c-55.333 -22.667 -113.833 -38 -175.5 -46s-124 -10.5 -187 -7.5s-125.333 10.833 -187 23.5
s-119.834 28 -174.501 46c-3.33301 1.33301 -6.16602 2.83301 -8.49902 4.5s-4.83301 3.16699 -7.5 4.5c-25.333 -13.333 -47.166 -27.5 -65.499 -42.5s-32.166 -31 -41.499 -48s-13.333 -34.833 -12 -53.5s9 -37.667 23 -57c25.333 -34 59.5 -59.667 102.5 -77
s89 -29.333 138 -36s98 -9.83398 147 -9.50098s92.167 0.833008 129.5 1.5c76.667 1.33301 152.667 5 228 11s151.333 11.333 228 16zM1752 701.997c-27.333 18.667 -62 32.499 -104 41.499s-87.333 13.833 -136 14.5s-98.5 -2.66602 -149.5 -9.99902s-99.5 -18 -145.5 -32
c42.667 -11.333 86.667 -20.833 132 -28.5s90.833 -12.5 136.5 -14.5s91 -0.666992 136 4s88.5 13 130.5 25z" />
    <glyph glyph-name="afii10017" unicode="&#x410;" horiz-adv-x="2781" 
d="M1418 1030c56.667 -149.333 122.495 -293.999 197.495 -433.999s160.5 -274 256.5 -402c8 -10.667 10.167 -20.834 6.5 -30.501s-10 -17.167 -19 -22.5s-19.167 -7.5 -30.5 -6.5s-21 6.83301 -29 17.5c-30 40 -58.833 80.667 -86.5 122s-54.167 83 -79.5 125
c-1.33301 0 -2.16602 -0.166992 -2.49902 -0.5s-1.16602 -0.5 -2.49902 -0.5c-84 -12.667 -167.667 -22.5 -251 -29.5s-167.666 -13.5 -252.999 -19.5l-76.5 -146.5c-25 -49 -48.833 -98.5 -71.5 -148.5c-5.33301 -12 -13.166 -18.833 -23.499 -20.5
s-20 0.166016 -29 5.49902s-15.833 13.166 -20.5 23.499s-4.33398 21.5 0.999023 33.5l60 124.5l63 122.5l-30 -2l-29 -2c-13.333 -1.33301 -23.333 2.16699 -30 10.5s-10 17.666 -10 27.999s3.33301 20 10 29s16.667 13.833 30 14.5l52.5 4l52.5 4l76.5 146
c25 48.667 49 97.834 72 147.501s44.333 100 64 151s36.834 103.167 51.501 156.5c2.66699 10.667 7.66699 18.334 15 23.001s15.333 6.83398 24 6.50098s16.834 -3 24.501 -8s13.167 -12.167 16.5 -21.5zM1171 435.001c70 4.66699 139.668 9.99902 209.001 15.999
s138.666 14 207.999 24c-39.333 68.667 -76 137.834 -110 207.501s-66 140.834 -96 213.501c-28 -80.667 -60.167 -158.834 -96.5 -234.501s-74.5 -151.167 -114.5 -226.5z" />
    <glyph glyph-name="afii10018" unicode="&#x411;" horiz-adv-x="3011" 
d="M2020 1084c13.333 0 23.332 -4.33594 29.999 -13.0029s10 -18.167 10 -28.5s-3.33301 -19.833 -10 -28.5s-16.667 -13 -30 -13h-853c11.333 -42 21.833 -83.5 31.5 -124.5l28.5 -124.5c34 -5.33301 67.5 -11.166 100.5 -17.499s66.167 -13.833 99.5 -22.5
c22 -5.33301 48 -12 78 -20s59.5 -18.5 88.5 -31.5s54.833 -28.667 77.5 -47s37.667 -40.833 45 -67.5c6.66699 -26 6 -49.167 -2 -69.5s-21.5 -38.166 -40.5 -53.499s-42.167 -28.666 -69.5 -39.999s-56.5 -21 -87.5 -29s-63 -14.667 -96 -20s-64.5 -9.33301 -94.5 -12
l33 -131c11.333 -43.333 23.666 -87 36.999 -131c4 -13.333 2.66699 -24.333 -4 -33s-15 -14.334 -25 -17.001s-20 -2 -30 2s-17 12.333 -21 25l-38.5 139.5l-35.5 139.5c-12 -0.666992 -23 -1 -33 -1s-18.667 -0.333008 -26 -1c-13.333 0 -23.333 4.16699 -30 12.5
s-10 17.666 -10 27.999s3.33301 20 10 29s16.667 13.5 30 13.5c6.66699 0 13.167 0.166992 19.5 0.5s12.833 0.833008 19.5 1.5c-11.333 46.667 -22 93.334 -32 140.001l-31 140c-21.333 2.66699 -42.666 5.16699 -63.999 7.5s-42.666 4.83301 -63.999 7.5
c-13.333 1.33301 -23.166 6.66602 -29.499 15.999s-9.5 19.333 -9.5 30s3.16699 19.834 9.5 27.501s16.166 10.834 29.499 9.50098c18.667 -2 37 -4.16699 55 -6.5s36 -4.5 54 -6.5l-28 118.5c-9.33301 39 -19.333 78.5 -30 118.5h-142c-13.333 0 -23.333 4.33301 -30 13
s-10 18.167 -10 28.5s3.33301 19.833 10 28.5s16.667 13 30 13h174h906zM1582 569.997c-51.333 26.667 -105.502 47.334 -162.502 62.001s-114.833 26.334 -173.5 35.001l29.5 -130.5l30.5 -130.5c23.333 3.33301 46.5 6.83301 69.5 10.5s45.833 8.16699 68.5 13.5
c10.667 2 24.834 5.16699 42.501 9.5s35.667 9.66602 54 15.999s35.333 13.5 51 21.5s26.834 16.667 33.501 26s7.16699 19.666 1.5 30.999s-20.5 23.333 -44.5 36z" />
    <glyph glyph-name="afii10019" unicode="&#x412;" horiz-adv-x="2817" 
d="M1835 460c6.66699 -2.66699 12.6641 -6.65527 17.9971 -11.9883s9 -11.333 11 -18s2.33301 -13.334 1 -20.001s-5 -13 -11 -19c-37.333 -34.667 -77.166 -64.167 -119.499 -88.5s-86.166 -45 -131.499 -62s-91.833 -31.333 -139.5 -43s-95.834 -21.834 -144.501 -30.501
c2.66699 -8.66699 5 -17 7 -25s4.33301 -16.333 7 -25c4 -12.667 2.66699 -23.334 -4 -32.001s-15 -14.334 -25 -17.001s-20 -2 -30 2s-17 12.333 -21 25c-20 67.333 -38.167 135.166 -54.5 203.499l-48 205l-46.5 205c-15.333 68.333 -31.666 136.5 -48.999 204.5
c-19.333 -0.666992 -38.333 -0.833984 -57 -0.500977s-37.667 1.16602 -57 2.49902c-13.333 1.33301 -23.333 6.66602 -30 15.999s-10 19.166 -10 29.499s3.33301 19.5 10 27.5s16.667 11.333 30 10c41.333 -4 82.666 -4.83301 123.999 -2.5s82.5 5.66602 123.5 9.99902
l123 13.5c41 4.66699 81.833 7.16699 122.5 7.5s81.334 -2.33398 122.001 -8.00098s81.334 -16.5 122.001 -32.5c14.667 -6 24.167 -15.833 28.5 -29.5s0.833008 -26.834 -10.5 -39.501c-28.667 -32.667 -60 -61.667 -94 -87s-69 -49.333 -105 -72l-107.5 -68
c-35.667 -22.667 -69.5 -48 -101.5 -76c93.333 -19.333 185.5 -40.833 276.5 -64.5s181.167 -53.5 270.5 -89.5zM1589 927.012c-37.333 8.66699 -74.6689 13.832 -112.002 15.499s-74.666 1.33398 -111.999 -0.999023s-74.833 -5.83301 -112.5 -10.5
s-75.5 -8.66699 -113.5 -12l33 -135l31 -136c28.667 28 59.334 53.333 92.001 76s65.834 44.5 99.501 65.5l100.5 64.5c33.333 22 64.666 46.333 93.999 73zM1226.99 542.01l34 -148.502c11.333 -49 23.333 -97.833 36 -146.5c39.333 6.66699 78.666 14.334 117.999 23.001
s77.833 19.167 115.5 31.5s74.334 27 110.001 44s69.834 37.5 102.501 61.5c-84.667 30.667 -169.834 56.334 -255.501 77.001s-172.5 40 -260.5 58z" />
    <glyph glyph-name="afii10020" unicode="&#x413;" horiz-adv-x="2546" 
d="M1556 968c13.333 0 23.333 -4.33105 30 -12.998s10 -18 10 -28s-3.33301 -19.333 -10 -28s-16.667 -13 -30 -13h-493l42 -178l40 -178.5c13.333 -59.667 27.333 -119 42 -178s30.667 -117.833 48 -176.5c4 -12.667 2.66699 -23.334 -4 -32.001s-15 -14.334 -25 -17.001
s-20 -2 -30 2s-17 12.333 -21 25c-18 60.667 -34.333 121.5 -49 182.5l-43 184l-42 184.5l-44 184c-10 3.33301 -17.167 9.33301 -21.5 18s-6 17.667 -5 27s4.83301 17.5 11.5 24.5s16 10.5 28 10.5h566v0z" />
    <glyph glyph-name="afii10021" unicode="&#x414;" horiz-adv-x="3337" 
d="M2447 172c13.333 0 23.332 -4.33398 29.999 -13.001s10 -18.167 10 -28.5s-3.33301 -19.833 -10 -28.5s-16.667 -13 -30 -13h-1209c-6 -11.333 -11.333 -23 -16 -35c-5.33301 -11.333 -12.833 -18 -22.5 -20s-18.834 -0.833008 -27.501 3.5s-15.667 11.166 -21 20.499
s-6.33301 19.666 -3 30.999h-358c-13.333 0 -23.333 4.33301 -30 13s-10 18.167 -10 28.5s3.33301 19.833 10 28.5s16.667 13 30 13h396c34.667 70.667 70.834 140.667 108.501 210l110 210c35.667 70.667 69 142.167 100 214.5s57.167 146.833 78.5 223.5
c2.66699 10.667 7.66699 18.334 15 23.001s15.333 6.83398 24 6.50098s16.834 -3 24.501 -8s13.167 -12.167 16.5 -21.5c56.667 -149.333 122.5 -294 197.5 -434s160.5 -274 256.5 -402c5.33301 -7.33301 8 -14.666 8 -21.999h322zM1627 895.999
c-22 -63.333 -47.002 -125.5 -75.002 -186.5s-57.167 -121.333 -87.5 -181l-93.5 -178l-93 -178.5h753c-83.333 112 -158.166 228.333 -224.499 349s-126.166 245.667 -179.499 375z" />
    <glyph glyph-name="afii10022" unicode="&#x415;" horiz-adv-x="2817" 
d="M901 553c1.33301 32.667 9.49609 61.6641 24.4961 86.9971s34.333 47.833 58 67.5s50.5 36.5 80.5 50.5s60.667 25.667 92 35s62.333 16.833 93 22.5s58.667 9.83398 84 12.501c26 2.66699 54.833 5 86.5 7s64.334 2.66699 98.001 2s67.5 -3.16699 101.5 -7.5
s66.167 -11.5 96.5 -21.5s58.333 -23.333 84 -40s46.834 -37.667 63.501 -63c8.66699 -12 9.66699 -23.833 3 -35.5s-15.667 -20.167 -27 -25.5c-55.333 -22.667 -113.833 -38 -175.5 -46s-124 -10.5 -187 -7.5s-125.333 10.833 -187 23.5s-119.834 28 -174.501 46
c-3.33301 1.33301 -6.16602 2.83301 -8.49902 4.5s-4.83301 3.16699 -7.5 4.5c-25.333 -13.333 -47.166 -27.5 -65.499 -42.5s-32.166 -31 -41.499 -48s-13.333 -34.833 -12 -53.5s9 -37.667 23 -57c25.333 -34 59.5 -59.667 102.5 -77s89 -29.333 138 -36
s98 -9.83398 147 -9.50098s92.167 0.833008 129.5 1.5c76.667 1.33301 152.667 5 228 11s151.333 11.333 228 16c13.333 0.666992 23.333 -3 30 -11s10 -17.167 10 -27.5s-3.33301 -20.166 -10 -29.499s-16.667 -14.333 -30 -15c-29.333 -2 -67.5 -5.5 -114.5 -10.5
s-99 -9.66699 -156 -14s-116.667 -7.66602 -179 -9.99902s-123.833 -1.66602 -184.5 2.00098s-118.167 11.167 -172.5 22.5s-101.833 28.333 -142.5 51s-72.5 52 -95.5 88s-33.167 80.333 -30.5 133zM1752 701.997c-27.333 18.667 -62 32.499 -104 41.499
s-87.333 13.833 -136 14.5s-98.5 -2.66602 -149.5 -9.99902s-99.5 -18 -145.5 -32c42.667 -11.333 86.667 -20.833 132 -28.5s90.833 -12.5 136.5 -14.5s91 -0.666992 136 4s88.5 13 130.5 25z" />
    <glyph glyph-name="afii10024" unicode="&#x416;" horiz-adv-x="2906" 
d="M1977 366c12.667 -4 21.0029 -11.168 25.0029 -21.501s4.66699 -20.5 2 -30.5s-8.33398 -18 -17.001 -24s-19.334 -7 -32.001 -3c-76.667 24 -151.167 51.333 -223.5 82l-217.5 97c0.666992 -89.333 0.666992 -177.833 0 -265.5s-1 -176.167 -1 -265.5
c0 -13.333 -4.33301 -23.333 -13 -30s-18.167 -10 -28.5 -10s-19.833 3.33301 -28.5 10s-13 16.667 -13 30c0 89.333 0.333008 177.833 1 265.5s0.666992 176.167 0 265.5l-25 -15l-25 -15c-29.333 -16.667 -60 -32 -92 -46l-96 -43c-32 -14.667 -63 -30.5 -93 -47.5
s-57.333 -36.5 -82 -58.5c-10 -8.66699 -20.667 -12.167 -32 -10.5s-20.666 6.16699 -27.999 13.5s-11.5 16.166 -12.5 26.499s3.5 19.833 13.5 28.5c27.333 24 56.666 45 87.999 63s63.5 34.667 96.5 50l99 46c33 15.333 65.167 32 96.5 50c6.66699 3.33301 13 7 19 11
s12.333 7.66699 19 11l-222 103c-74 33.333 -149.333 64.333 -226 93c-12.667 4.66699 -21 12.334 -25 23.001s-4.5 21 -1.5 31s8.66699 18 17 24s18.833 6.66699 31.5 2c82.667 -30.667 163.5 -64 242.5 -100l236.5 -111c-0.666992 94.667 -2.33398 188.5 -5.00098 281.5
s-7 186.833 -13 281.5c-1.33301 13.333 2.16699 23.333 10.5 30s17.666 10 27.999 10s20 -3.33301 29 -10s14.167 -16.667 15.5 -30c5.33301 -91.333 9.33301 -182.166 12 -272.499s4.66699 -181.166 6 -272.499l255 162c11.333 7.33301 22 9.16602 32 5.49902
s17.667 -10 23 -19s7.33301 -19 6 -30s-7.66602 -20.167 -18.999 -27.5l-128.5 -83.5l-129.5 -81.5l210 -93.5c70 -29.667 141.667 -56.167 215 -79.5z" />
    <glyph glyph-name="afii10025" unicode="&#x417;" horiz-adv-x="2717" 
d="M1785 413c6.66699 -2.66699 12.6689 -6.66211 18.002 -11.9951s9 -11.166 11 -17.499s2.33301 -13 1 -20s-5 -13.5 -11 -19.5c-40 -36.667 -82.333 -67.667 -127 -93s-91.334 -46.666 -140.001 -63.999s-98.5 -31.833 -149.5 -43.5s-102.5 -21.834 -154.5 -30.501
c-13.333 -2 -24.333 0.5 -33 7.5s-14.334 15.5 -17.001 25.5s-2 19.833 2 29.5s12.667 15.5 26 17.5c42.667 7.33301 85.167 15.5 127.5 24.5s84 19.667 125 32s80.667 27.5 119 45.5s75.166 39.667 110.499 65c-90 32.667 -180.833 59.667 -272.5 81
s-184.167 41.666 -277.5 60.999c-8 2 -14.333 5.66699 -19 11s-7.83398 11.333 -9.50098 18s-1.66699 13.667 0 21s4.83398 13.666 9.50098 18.999c28.667 33.333 60.5 62.666 95.5 87.999s70.833 49.5 107.5 72.5l109.5 69.5c36.333 23.333 70.5 49.666 102.5 78.999
c-53.333 12.667 -106.833 18.334 -160.5 17.001s-107.5 -5 -161.5 -11s-108.167 -11.667 -162.5 -17s-108.833 -5.33301 -163.5 0c-13.333 1.33301 -23.333 6.5 -30 15.5s-10 18.667 -10 29s3.33301 19.5 10 27.5s16.667 11.667 30 11
c41.333 -4 82.666 -4.83301 123.999 -2.5s82.5 5.66602 123.5 9.99902l123 13c41 4.33301 81.833 6.66602 122.5 6.99902s81.334 -2.33398 122.001 -8.00098s81.334 -16.5 122.001 -32.5c14.667 -5.33301 24.167 -15 28.5 -29s0.833008 -27.333 -10.5 -40
c-28.667 -32.667 -60 -61.667 -94 -87s-69 -49.333 -105 -72l-107.5 -68c-35.667 -22.667 -69.5 -48 -101.5 -76c93.333 -19.333 185.5 -40.833 276.5 -64.5s181.167 -53.5 270.5 -89.5z" />
    <glyph glyph-name="afii10026" unicode="&#x418;" horiz-adv-x="3105" 
d="M2023 27c-35.333 116.667 -66.4971 234.169 -93.4971 352.502s-55.5 236.166 -85.5 353.499l-284 -284.5l-284 -284.5c-5.33301 -6 -11.666 -9.83301 -18.999 -11.5s-14.333 -1.5 -21 0.5s-12.667 5.5 -18 10.5s-9 11.167 -11 18.5c-21.333 70.667 -40.5 142 -57.5 214
l-49 216l-47 216c-15.667 72 -32.834 143.667 -51.501 215c-3.33301 12.667 -1.83301 23.5 4.5 32.5s14.5 14.833 24.5 17.5s20.167 2 30.5 -2s17.166 -12.333 20.499 -25c17.333 -66 33.333 -132.167 48 -198.5l43.5 -199l44 -199c15 -66.333 31.5 -132.166 49.5 -197.499
l285 286l285 285c5.33301 5.33301 11.666 8.83301 18.999 10.5s14.333 1.66699 21 0s12.667 -5 18 -10s9 -11.167 11 -18.5c17.333 -64.667 33.666 -129.334 48.999 -194.001l46.5 -194.5l48 -194.5c16.333 -64.667 34.166 -129 53.5 -193c4 -13.333 2.66699 -24.333 -4 -33
s-15 -14.334 -25 -17.001s-20 -2 -30 2s-17 12.667 -21 26z" />
    <glyph glyph-name="afii10027" unicode="&#x419;" horiz-adv-x="3105" 
d="M1335 1519c-13.333 0 -23.5 4.33301 -30.5 13s-10.5 18.167 -10.5 28.5s3.5 19.833 10.5 28.5s17.167 13 30.5 13h435c13.333 0 23.333 -4.33301 30 -13s10 -18.167 10 -28.5s-3.33301 -19.833 -10 -28.5s-16.667 -13 -30 -13h-435zM2023 27
c-35.333 116.667 -66.4971 234.169 -93.4971 352.502s-55.5 236.166 -85.5 353.499l-284 -284.5l-284 -284.5c-5.33301 -6 -11.666 -9.83301 -18.999 -11.5s-14.333 -1.5 -21 0.5s-12.667 5.5 -18 10.5s-9 11.167 -11 18.5c-21.333 70.667 -40.5 142 -57.5 214l-49 216
l-47 216c-15.667 72 -32.834 143.667 -51.501 215c-3.33301 12.667 -1.83301 23.5 4.5 32.5s14.5 14.833 24.5 17.5s20.167 2 30.5 -2s17.166 -12.333 20.499 -25c17.333 -66 33.333 -132.167 48 -198.5l43.5 -199l44 -199c15 -66.333 31.5 -132.166 49.5 -197.499l285 286
l285 285c5.33301 5.33301 11.666 8.83301 18.999 10.5s14.333 1.66699 21 0s12.667 -5 18 -10s9 -11.167 11 -18.5c17.333 -64.667 33.666 -129.334 48.999 -194.001l46.5 -194.5l48 -194.5c16.333 -64.667 34.166 -129 53.5 -193c4 -13.333 2.66699 -24.333 -4 -33
s-15 -14.334 -25 -17.001s-20 -2 -30 2s-17 12.667 -21 26z" />
    <glyph glyph-name="afii10028" unicode="&#x41a;" horiz-adv-x="3001" 
d="M1118 14l-0.000976562 532.503c0 177.667 -5.66699 355.167 -17 532.5c-0.666992 13.333 3 23.333 11 30s17.167 10 27.5 10s20 -3.33301 29 -10s14.167 -16.667 15.5 -30c5.33301 -76.667 9 -152.834 11 -228.501s3.66699 -151.834 5 -228.501l285 199
c94.667 66 192 128.333 292 187c11.333 6.66699 22.166 8 32.499 4s18 -10.5 23 -19.5s6.83301 -18.833 5.5 -29.5s-7.66602 -19.334 -18.999 -26.001c-99.333 -58.667 -196 -120.5 -290 -185.5l-282 -197.5l207 -121l206.5 -123.5l207.5 -121
c69.333 -39.667 139.666 -77.834 210.999 -114.501c12 -6 18.833 -14.167 20.5 -24.5s-0.166016 -20 -5.49902 -29s-13 -15.667 -23 -20s-21 -3.5 -33 2.5c-72 36.667 -143 74.834 -213 114.501l-208.5 121.5l-207 124l-208.5 122
c0.666992 -78.667 0.833984 -157.167 0.500977 -235.5s-0.5 -156.833 -0.5 -235.5c0 -13.333 -4.33301 -23.5 -13 -30.5s-18.167 -10.5 -28.5 -10.5s-19.833 3.5 -28.5 10.5s-13 17.167 -13 30.5z" />
    <glyph glyph-name="afii10029" unicode="&#x41b;" horiz-adv-x="2781" 
d="M1418 1030c56.667 -149.333 122.5 -293.997 197.5 -433.997s160.5 -274 256.5 -402c8 -10.667 10.167 -20.834 6.5 -30.501s-10 -17.167 -19 -22.5s-19.167 -7.5 -30.5 -6.5s-21 6.83301 -29 17.5c-86 115.333 -163.5 235 -232.5 359s-130.833 252.333 -185.5 385
c-26 -74 -55.667 -146.167 -89 -216.5l-104 -209l-109 -207c-36.667 -69 -71 -138.833 -103 -209.5c-6 -12 -14 -18.833 -24 -20.5s-19.5 0.166016 -28.5 5.49902s-15.833 13.166 -20.5 23.499s-4.33398 21.5 0.999023 33.5c35.333 78 73.5 155 114.5 231l120.5 228.5
c39.333 76.333 76.333 153.666 111 231.999s63.667 159.166 87 242.499c2.66699 10.667 7.66699 18.334 15 23.001s15.333 6.83398 24 6.50098s16.834 -3 24.501 -8s13.167 -12.167 16.5 -21.5z" />
    <glyph glyph-name="afii10030" unicode="&#x41c;" horiz-adv-x="3191" 
d="M1991 1089c2 10.667 7.33887 18.498 16.0059 23.498s17.667 7 27 6s18 -4.83301 26 -11.5s12.333 -16 13 -28c12 -177.333 17.833 -354.833 17.5 -532.5s-0.5 -355.167 -0.5 -532.5c0 -13.333 -4.33301 -23.5 -13 -30.5s-18.167 -10.5 -28.5 -10.5
s-19.833 3.5 -28.5 10.5s-13 17.167 -13 30.5c0.666992 156.667 1.16699 312.667 1.5 468s-3.16699 311.333 -10.5 468l-222 -319.5l-230 -313.5c-7.33301 -10 -17.5 -16.5 -30.5 -19.5s-24.5 0.833008 -34.5 11.5c-22 23.333 -41.333 49 -58 77s-32 56.833 -46 86.5
s-27.333 59.834 -40 90.501s-26.334 60 -41.001 88l-51.5 104c-17 34.667 -33.5 70 -49.5 106c5.33301 -142 7.66602 -283.167 6.99902 -423.5s-1 -281.5 -1 -423.5c0 -13.333 -4.33301 -23.5 -13 -30.5s-18.167 -10.5 -28.5 -10.5s-19.833 3.5 -28.5 10.5
s-13 17.167 -13 30.5v532.5c0 177.667 -5.66699 355.167 -17 532.5c-0.666992 8 0.666016 14.833 3.99902 20.5s7.66602 10 12.999 13s11.333 4.83301 18 5.5s13 0 19 -2c7.33301 -0.666992 14.5 -3.16699 21.5 -7.5s12.167 -11.166 15.5 -20.499
c23.333 -68.667 50.166 -135.5 80.499 -200.5s62.166 -129.833 95.499 -194.5c11.333 -22.667 22.333 -46.5 33 -71.5l32.5 -75c11 -25 22.5 -49.667 34.5 -74s25.667 -46.833 41 -67.5l246.5 338.5c81 112.333 159.5 227.5 235.5 345.5z" />
    <glyph glyph-name="afii10031" unicode="&#x41d;" horiz-adv-x="2950" 
d="M1806 1054c22 -82.667 42.5 -165.496 61.5 -248.496l56.5 -249.5l58 -249c20 -82.667 42 -165 66 -247c4 -12.667 2.66699 -23.334 -4 -32.001s-15 -14.334 -25 -17.001s-20 -2 -30 2s-17 12.333 -21 25c-25.333 86.667 -48.333 173.167 -69 259.5l-61 260.5h-690
l58.5 -250c19.667 -82.667 41.834 -165.334 66.501 -248.001c4 -12.667 2.66699 -23.334 -4 -32.001s-15 -14.334 -25 -17.001s-20 -2 -30 2s-17 12.333 -21 25c-24 82 -46 164.333 -66 247l-58 249l-56 249.5c-18.667 83 -39 165.833 -61 248.5
c-3.33301 12.667 -1.83301 23.5 4.5 32.5s14.5 14.833 24.5 17.5s20.167 1.83398 30.5 -2.49902s17.166 -12.833 20.499 -25.5c18 -68.667 35 -137.334 51 -206.001l47 -207h690l-44.5 196.5c-15 65 -31.167 129.833 -48.5 194.5c-3.33301 12.667 -1.83301 23.5 4.5 32.5
s14.5 14.833 24.5 17.5s20 1.83398 30 -2.49902s16.667 -12.833 20 -25.5z" />
    <glyph glyph-name="afii10032" unicode="&#x41e;" horiz-adv-x="2515" 
d="M1613 540c-4 -45.333 -15.501 -89.167 -34.501 -131.5s-44 -79.833 -75 -112.5s-67.333 -58.167 -109 -76.5s-87.167 -26.166 -136.5 -23.499c-46 2.66699 -91 13.167 -135 31.5s-82.833 43.333 -116.5 75s-60.334 68.667 -80.001 111s-28.167 88.833 -25.5 139.5
c3.33301 56.667 15.5 106.5 36.5 149.5s47.833 78.833 80.5 107.5s69.334 50.167 110.001 64.5s82.334 21.833 125.001 22.5s84.5 -5.83301 125.5 -19.5s78.167 -34.334 111.5 -62.001s61 -62.334 83 -104.001s35.333 -90.5 40 -146.5c1.33301 -5.33301 2 -9.33301 2 -12
c0 -3.33301 -0.666992 -7.66602 -2 -12.999zM983.999 552.999c3.33301 -58.667 18.6699 -107.666 46.0029 -146.999s60.833 -68.833 100.5 -88.5s82.167 -29.5 127.5 -29.5s87.833 9.83301 127.5 29.5s73.167 49.167 100.5 88.5s42.666 88.333 45.999 147
c-2 35.333 -10.167 69.833 -24.5 103.5s-33.5 63.5 -57.5 89.5s-52.333 46.333 -85 61s-68.334 21 -107.001 19c-36 -2 -70.833 -10 -104.5 -24s-63.334 -33 -89.001 -57s-46 -52.333 -61 -85s-21.5 -68.334 -19.5 -107.001z" />
    <glyph glyph-name="afii10033" unicode="&#x41f;" horiz-adv-x="2683" 
d="M1596 938c16.667 -63.333 32.166 -126.828 46.499 -190.495l43 -191.5l44.5 -191.5c15.333 -63.667 32.333 -126.834 51 -189.501c4 -12.667 2.66699 -23.334 -4 -32.001s-15 -14.334 -25 -17.001s-20 -2 -30 2s-17 12.333 -21 25c-35.333 120.667 -66 242.5 -92 365.5
s-54.667 245.5 -86 367.5h-460l42 -178l40 -178.5c13.333 -59.667 27.333 -119 42 -178s30.667 -117.833 48 -176.5c4 -12.667 2.66699 -23.334 -4 -32.001s-15 -14.334 -25 -17.001s-20 -2 -30 2s-17 12.333 -21 25c-18 60.667 -34.333 121.5 -49 182.5l-43 184l-42 184.5
l-44 184c-10 3.33301 -17.167 9.33301 -21.5 18s-6 17.667 -5 27s4.83301 17.5 11.5 24.5s16 10.5 28 10.5h566c8 0 14.333 -1.33301 19 -4s8.83398 -6 12.501 -10s6.5 -9.33301 8.5 -16z" />
    <glyph glyph-name="afii10034" unicode="&#x420;" horiz-adv-x="2579" 
d="M1674 847c6.66699 -25.333 6 -48.166 -2 -68.499s-21.333 -38.333 -40 -54s-41.5 -29.167 -68.5 -40.5s-56 -21 -87 -29s-62.833 -14.5 -95.5 -19.5s-64 -9 -94 -12s-57.5 -5 -82.5 -6l-61.5 -2.5l64.5 -278.5c21.667 -92.333 46.167 -184.5 73.5 -276.5
c4 -12.667 2.66699 -23.334 -4 -32.001s-15 -14.334 -25 -17.001s-20 -2 -30 2s-17 12.333 -21 25c-23.333 79.333 -44.833 159.333 -64.5 240l-56.5 242.5l-54.5 242.5c-18.333 80.667 -37.833 161 -58.5 241c-6.66699 5.33301 -11.334 12 -14.001 20s-3.5 15.667 -2.5 23
s3.83301 13.833 8.5 19.5s11.334 9.16699 20.001 10.5c8 4.66699 16.5 6.83398 25.5 6.50098s16.833 -3.83301 23.5 -10.5c60.667 -7.33301 120.667 -15.333 180 -24s118.333 -20.667 177 -36c22 -5.33301 48 -12 78 -20s59.5 -18.5 88.5 -31.5s54.833 -28.667 77.5 -47
s37.667 -40.833 45 -67.5zM1402 731c10.667 2 24.8311 5.16895 42.498 9.50195s35.667 9.66602 54 15.999s35.333 13.5 51 21.5s26.834 16.667 33.501 26s7.16699 19.666 1.5 30.999s-20.5 23.333 -44.5 36c-36 18.667 -73.833 34.5 -113.5 47.5s-80.167 23.667 -121.5 32
s-83 15.333 -125 21s-83.333 10.834 -124 15.501c12.667 -48.667 24.667 -97.334 36 -146.001l34 -146c4 2 9 3 15 3c44 1.33301 87.833 4.83301 131.5 10.5s86.834 13.167 129.501 22.5z" />
    <glyph glyph-name="afii10035" unicode="&#x421;" horiz-adv-x="2722" 
d="M1690 119l-116.993 -0.000976562c-42.667 0 -87 1.5 -133 4.5s-92.167 7.83301 -138.5 14.5s-90.5 16.334 -132.5 29.001s-80.833 29.167 -116.5 49.5s-65.834 45.5 -90.501 75.5s-42.334 65.333 -53.001 106s-12 88 -4 142c9.33301 64 31 122 65 174
s75.833 96.5 125.5 133.5s105.167 66.167 166.5 87.5s123.666 33.833 186.999 37.5s125.666 -2.33301 186.999 -18s117 -41.5 167 -77.5c10.667 -8 16.5 -17.667 17.5 -29s-1 -21.5 -6 -30.5s-12.5 -15.167 -22.5 -18.5s-20.333 -1 -31 7
c-40.667 29.333 -88.334 50.5 -143.001 63.5s-111 18.167 -169 15.5s-115 -13.167 -171 -31.5s-106 -43.833 -150 -76.5s-79.333 -72.5 -106 -119.5s-39.334 -100.5 -38.001 -160.5c1.33301 -56 14.166 -102.167 38.499 -138.5s56.166 -65.333 95.499 -87
s84 -37.667 134 -48s101 -17 153 -20s102.833 -4 152.5 -3s93.834 1.5 132.501 1.5c13.333 0 23.333 -4.33301 30 -13s10 -18.167 10 -28.5s-3.33301 -19.833 -10 -28.5s-16.667 -13 -30 -13z" />
    <glyph glyph-name="afii10036" unicode="&#x422;" horiz-adv-x="2998" 
d="M1958 1008c13.333 0 23.332 -4.33203 29.999 -12.999s10 -18.167 10 -28.5s-3.33301 -19.833 -10 -28.5s-16.667 -13 -30 -13h-462c16.667 -65.333 32.167 -131.166 46.5 -197.499l43.5 -198.5l46 -197.5c16 -65.667 33.667 -130.834 53 -195.501
c4 -13.333 2.66699 -24.333 -4 -33s-15 -14.334 -25 -17.001s-20 -2 -30 2s-17 12.333 -21 25c-20 66.667 -38 134 -54 202l-46.5 204l-45.5 203.5c-15.333 67.667 -31.666 135.167 -48.999 202.5h-570c-13.333 0 -23.333 4.33301 -30 13s-10 18.167 -10 28.5
s3.33301 19.833 10 28.5s16.667 13 30 13h1118v0z" />
    <glyph glyph-name="afii10037" unicode="&#x423;" horiz-adv-x="2410" 
d="M1427 906c4.66699 12 12.3359 20 23.0029 24s21 4.66699 31 2s18 -8.16699 24 -16.5s6.66699 -18.5 2 -30.5l-138 -354.5c-44.667 -117.667 -93.667 -234.5 -147 -350.5c-6 -12 -14 -19 -24 -21s-19.5 -0.333008 -28.5 5s-15.833 13.166 -20.5 23.499
s-4.33398 21.5 0.999023 33.5c21.333 46 41.666 92 60.999 138l57 139c-56.667 59.333 -115.167 116 -175.5 170l-179.5 166c-10 9.33301 -14.333 19.333 -13 30s5.66602 19.667 12.999 27s16.5 11.833 27.5 13.5s21.167 -2.16602 30.5 -11.499l167 -154.5
c56 -50.333 110.333 -102.5 163 -156.5l63 162z" />
    <glyph glyph-name="afii10038" unicode="&#x424;" horiz-adv-x="2946" 
d="M2041 855c8.66699 -32 5.83008 -59.8281 -8.50293 -83.4951s-36 -44 -65 -61s-63 -30.833 -102 -41.5s-78.667 -19.167 -119 -25.5s-79.166 -11 -116.499 -14s-68.666 -4.83301 -93.999 -5.5l65 -284.5c22 -94.333 47 -188.166 75 -281.499
c4 -13.333 2.66699 -24.333 -4 -33s-15 -14.334 -25 -17.001s-20 -1.83398 -30 2.49902s-17 12.833 -21 25.5c-28.667 96 -54.334 192.5 -77.001 289.5l-66 292.5c-34 11.333 -69 18.666 -105 21.999s-72.167 6.16602 -108.5 8.49902s-72.333 5.66602 -108 9.99902
s-70.5 13.166 -104.5 26.499c-17.333 6.66699 -35 16 -53 28s-33.333 25.833 -46 41.5s-21.334 33 -26.001 52s-2.33398 38.833 6.99902 59.5c8.66699 20 21.334 37.5 38.001 52.5s35.334 28 56.001 39s41.834 20.5 63.501 28.5s42.167 15 61.5 21
c32 10 63.833 19.333 95.5 28s63.5 16.667 95.5 24c2 8 6 14.667 12 20s14.667 7.33301 26 6l19.5 -2l18.5 -2c6 0 10.333 -0.333008 13 -1c6 0.666992 13.333 2.33398 22 5.00098c9.33301 2 17.333 1.66699 24 -1s12.334 -6.66699 17.001 -12
c47.333 -6.66699 94.5 -13.834 141.5 -21.501s93.5 -17.5 139.5 -29.5l78 -21c30 -8 59.5 -18.333 88.5 -31s54.833 -28.167 77.5 -46.5s37.667 -40.833 45 -67.5zM1215 731.005c36 -3.33301 72.1699 -5.83301 108.503 -7.5s72.5 -6.5 108.5 -14.5l-32.5 139.5l-34.5 139.5
l-98 -19.5c-34 -7 -67 -15.5 -99 -25.5s-62.333 -22 -91 -36s-53.334 -31 -74.001 -51c-14.667 -14 -20.667 -26.667 -18 -38s10.667 -21.666 24 -30.999s30.166 -17.333 50.499 -24s40.833 -12.334 61.5 -17.001s39.667 -8.16699 57 -10.5s29.666 -3.83301 36.999 -4.5z
M1770 739.005c10.667 2 24.834 5.16504 42.501 9.49805s35.667 9.66602 54 15.999s35.166 13.333 50.499 21s26.333 16.334 33 26.001s7.33398 20 2.00098 31s-20 22.833 -44 35.5c-34.667 18 -70.667 33.167 -108 45.5s-75.5 22.833 -114.5 31.5
s-78.333 15.834 -118 21.501s-78.834 10.834 -117.501 15.501l34.5 -143l32.5 -143c42.667 1.33301 85 4.83301 127 10.5s84 13.167 126 22.5z" />
    <glyph glyph-name="afii10039" unicode="&#x425;" horiz-adv-x="2621" 
d="M1368 545l173.499 -163.498c57 -55 112.833 -111.833 167.5 -170.5c8.66699 -10 12.334 -20.5 11.001 -31.5s-5.66602 -20.167 -12.999 -27.5s-16.333 -11.666 -27 -12.999s-20.667 3 -30 13l-155 158l-160 152l-55 -132l-58 -132c-6 -12 -14 -18.833 -24 -20.5
s-19.5 0.166016 -28.5 5.49902s-15.833 13.166 -20.5 23.499s-4.33398 21.5 0.999023 33.5l61.5 140l58.5 142l-180 164.5l-177 166.5c-10 9.33301 -14.333 19.333 -13 30s5.66602 19.667 12.999 27s16.5 11.666 27.5 12.999s21.167 -2.66699 30.5 -12l164.5 -153.5
l166.5 -152.5l62.5 160l62.5 160c4.66699 12 12.334 20 23.001 24s21 4.66699 31 2s18 -8.16699 24 -16.5s6.66699 -18.833 2 -31.5l-69.5 -179z" />
    <glyph glyph-name="afii10040" unicode="&#x426;" horiz-adv-x="3102" 
d="M2412 313c13.333 0 23.333 -4.33203 30 -12.999s10 -18.167 10 -28.5s-3.33301 -19.833 -10 -28.5s-16.667 -13 -30 -13c-68.667 0.666992 -137.834 2 -207.5 4c-69.667 2 -139.334 3.16699 -209 3.5c-69.667 0.333008 -139.167 -1.16699 -208.5 -4.5s-138 -10 -206 -20
s-135 -24.667 -201 -44s-130.667 -44.666 -194 -75.999c-9.33301 -10.667 -21.333 -15.334 -36 -14.001c-7.33301 -0.666992 -14.166 0.666016 -20.499 3.99902s-11.5 7.83301 -15.5 13.5s-6.83301 11.834 -8.5 18.501s-1.5 13 0.5 19
c-15.333 52.667 -29.333 105.834 -42 159.501l-37 161l-36 160.5c-12 53.333 -25 106.666 -39 159.999c-3.33301 12.667 -1.83301 23.5 4.5 32.5s14.5 14.833 24.5 17.5s20.167 1.83398 30.5 -2.49902s17.166 -12.833 20.499 -25.5
c13.333 -51.333 25.833 -102.666 37.5 -153.999l35 -154l35.5 -154.5c12 -51.667 25 -102.834 39 -153.501c88 40.667 177.5 70.667 268.5 90s183.833 32.666 278.5 39.999c-16 54 -30.5 108 -43.5 162l-37.5 163l-36.5 163.5c-12.333 54.333 -25.833 108.5 -40.5 162.5
c-3.33301 12.667 -1.83301 23.5 4.5 32.5s14.5 14.833 24.5 17.5s20.167 1.83398 30.5 -2.49902s17.166 -12.833 20.499 -25.5c14.667 -55.333 28.334 -111 41.001 -167l37.5 -167.5l38.5 -167c13.333 -55.667 28.333 -110.834 45 -165.501c0 -0.666992 0.333008 -1 1 -1
c100 4 200.167 4.66699 300.5 2s200.5 -4.33398 300.5 -5.00098z" />
    <glyph glyph-name="afii10041" unicode="&#x427;" horiz-adv-x="2744" 
d="M1593 993c8 -2 14.835 -6.16504 20.502 -12.498s9.16699 -14.5 10.5 -24.5c6 -71.333 10.5 -142.666 13.5 -213.999s4.83301 -142.666 5.5 -213.999s0.666992 -142.666 0 -213.999s-1 -142.666 -1 -213.999c0 -13.333 -4.33301 -23.333 -13 -30s-18.167 -10 -28.5 -10
s-19.833 3.33301 -28.5 10s-13 16.667 -13 30c0.666992 109.333 1.16699 217.833 1.5 325.5s-1.83398 215.834 -6.50098 324.501c-21.333 -38.667 -46.5 -75 -75.5 -109s-61 -62.833 -96 -86.5s-72.667 -40.334 -113 -50.001s-82.5 -9.5 -126.5 0.5
c-36.667 8.66699 -68.834 22.167 -96.501 40.5s-51.667 40.166 -72 65.499s-37.5 53.333 -51.5 84s-25.833 62.667 -35.5 96s-17.334 67.166 -23.001 101.499s-10.167 67.833 -13.5 100.5c-1.33301 13.333 1.83398 23.166 9.50098 29.499s16.834 9.5 27.501 9.5
s20.667 -3.33301 30 -10s14.666 -16.334 15.999 -29.001c2 -21.333 4.83301 -45.333 8.5 -72s8.66699 -53.834 15 -81.501s14.166 -54.834 23.499 -81.501s21 -51.334 35 -74.001s30.667 -42.167 50 -58.5s42 -27.5 68 -33.5c36.667 -8.66699 71.334 -10 104.001 -4
s63.334 17.333 92.001 34s54.667 37.667 78 63s44 53 62 83s33 61.333 45 94s20.667 64.667 26 96c0 10 2 17.667 6 23c5.33301 8 12.166 12.833 20.499 14.5s16.833 0.833984 25.5 -2.49902z" />
    <glyph glyph-name="afii10042" unicode="&#x428;" horiz-adv-x="3362" 
d="M2459 317c4.66699 -15.333 2 -28 -8 -38c2 -11.333 -0.166992 -22.333 -6.5 -33s-17.166 -16 -32.5 -16c-68.667 0.666992 -137.834 2 -207.5 4c-69.667 2 -139.334 3.16699 -209 3.5c-69.667 0.333008 -139.167 -1.16699 -208.5 -4.5s-138 -10 -206 -20
s-135 -24.667 -201 -44s-130.667 -44.666 -194 -75.999c-9.33301 -10.667 -21.333 -15.334 -36 -14.001c-7.33301 -0.666992 -14.166 0.666016 -20.499 3.99902s-11.5 7.83301 -15.5 13.5s-6.83301 11.834 -8.5 18.501s-1.5 13 0.5 19
c-15.333 52.667 -29.333 105.834 -42 159.501l-37 161l-36 160.5c-12 53.333 -25 106.666 -39 159.999c-3.33301 12.667 -1.83301 23.5 4.5 32.5s14.5 14.833 24.5 17.5s20.167 1.83398 30.5 -2.49902s17.166 -12.833 20.499 -25.5
c13.333 -51.333 25.833 -102.666 37.5 -153.999l35 -154l35.5 -154.5c12 -51.667 25 -102.834 39 -153.501c88 40.667 177.5 70.667 268.5 90s183.833 32.666 278.5 39.999c-16 54 -30.5 108 -43.5 162l-37.5 163l-36.5 163.5c-12.333 54.333 -25.833 108.5 -40.5 162.5
c-3.33301 12.667 -1.83301 23.5 4.5 32.5s14.5 14.833 24.5 17.5s20.167 1.83398 30.5 -2.49902s17.166 -12.833 20.499 -25.5c14.667 -55.333 28.334 -111 41.001 -167l37.5 -167.5l38.5 -167c13.333 -55.667 28.333 -110.834 45 -165.501c0 -0.666992 0.333008 -1 1 -1
c94 4 187.833 4.83301 281.5 2.5s187.5 -4.16602 281.5 -5.49902c-15.333 53.333 -29.5 107.166 -42.5 161.499l-38 163l-37 162.5c-12.333 54 -25.5 108 -39.5 162c-3.33301 12.667 -1.83301 23.5 4.5 32.5s14.5 14.833 24.5 17.5s20.167 1.83398 30.5 -2.49902
s17.166 -12.833 20.5 -25.5c14.667 -55.333 28.334 -111 41 -167l37.5 -167.5l38.5 -167c13.333 -55.667 28.333 -110.834 45 -165.501z" />
    <glyph glyph-name="afii10043" unicode="&#x429;" horiz-adv-x="3576" 
d="M2886 401c13.333 0 23.334 -4.33594 30.001 -13.0029s10 -18.167 10 -28.5s-3.33301 -19.833 -10 -28.5s-16.667 -13 -30 -13h-689c-94 0 -188.333 0.666992 -283 2s-188.667 -1.5 -282 -8.5s-185.333 -20.833 -276 -41.5s-179 -53.334 -265 -98.001
c-6 -3.33301 -13 -5 -21 -5c-9.33301 -1.33301 -18.333 0.333984 -27 5.00098s-14.667 12.667 -18 24c-12.667 42 -24 84 -34 126l-29.5 127l-28.5 128c-9.33301 42.667 -19.666 85 -30.999 127c-3.33301 12.667 -1.83301 23.5 4.5 32.5s14.5 14.833 24.5 17.5
s20.167 1.83398 30.5 -2.49902s17.166 -12.833 20.499 -25.5c20 -76.667 38 -153.667 54 -231s34.667 -154.333 56 -231c81.333 38 163.666 66.5 246.999 85.5s168.333 32.5 255 40.5c-11.333 40 -21.833 80.167 -31.5 120.5l-28 121.5l-27.5 121.5
c-9.33301 40.333 -19.333 80.5 -30 120.5c-3.33301 12.667 -1.66602 23.5 5.00098 32.5s15 14.833 25 17.5s20 1.83398 30 -2.49902s16.667 -12.833 20 -25.5c22.667 -83.333 42.5 -166.833 59.5 -250.5s37.833 -167.167 62.5 -250.5
c78.667 4.66699 157.167 6.83398 235.5 6.50098s157.166 -0.5 236.499 -0.5h181c-22 78.667 -41.167 157.5 -57.5 236.5s-35.166 157.833 -56.5 236.5c-3.33301 12.667 -1.83301 23.5 4.5 32.5s14.5 14.833 24.5 17.5s20.167 1.83398 30.5 -2.49902
s17.166 -12.833 20.5 -25.5c22 -82.667 41.5 -165.334 58.5 -248.001s37.5 -165 61.5 -247h468v0z" />
    <glyph glyph-name="afii10044" unicode="&#x42a;" horiz-adv-x="3128" 
d="M1291 219c-15.333 51.333 -29.3311 103 -41.998 155l-36.5 156.5l-35.5 156.5c-12 52 -24.667 104 -38 156h-449c-13.333 0 -23.333 4.33301 -30 13s-10 18.167 -10 28.5s3.33301 19.833 10 28.5s16.667 13 30 13h482c9.33301 0 17.666 -2.66699 24.999 -8
s12.333 -12.666 15 -21.999c17.333 -64.667 33 -129.334 47 -194.001l43 -195c16 6 42.5 12.667 79.5 20s80 14.166 129 20.499s102 11.833 159 16.5s113.333 7.16699 169 7.5s108.667 -2 159 -7s93.833 -14 130.499 -27c36.667 -13 64 -30.667 82 -53
s22.333 -50.166 13 -83.499c-6 -23.333 -19.833 -43.666 -41.5 -60.999s-46.334 -32.5 -74.001 -45.5s-55.667 -23.833 -84 -32.5s-52.166 -15.667 -71.499 -21c-99.333 -28 -202 -48.167 -308 -60.5s-210.667 -16.833 -314 -13.5c-15.333 0.666992 -26.333 6.66699 -33 18
s-8.66699 22.666 -6 33.999zM1322 426l22.001 -88.501c7.33301 -29 15.333 -58.5 24 -88.5c57.333 -1.33301 117.666 -0.666016 180.999 2.00098s126.5 8.83398 189.5 18.501s124.167 23.667 183.5 42s114 42.166 164 71.499c22 12.667 34.667 23.667 38 33s1 17.5 -7 24.5
s-20.167 13 -36.5 18s-33.5 9.16699 -51.5 12.5c-82.667 14.667 -166 20.667 -250 18c-37.333 -1.33301 -75.5 -3 -114.5 -5s-78 -5 -117 -9s-77.5 -9.83301 -115.5 -17.5s-74.667 -18.167 -110 -31.5z" />
    <glyph glyph-name="afii10045" unicode="&#x42b;" horiz-adv-x="3786" 
d="M2721 891c14.667 -55.333 28.334 -111 41 -167l37.5 -168l38.5 -167.5c13.333 -55.667 28.333 -110.834 45 -165.501c4 -12.667 2.83301 -23.334 -3.5 -32.001s-14.5 -14.334 -24.5 -17.001s-20.167 -2 -30.5 2s-17.5 12.333 -21.5 25
c-16 54.667 -30.833 109.834 -44.5 165.501s-26.667 111.5 -39 167.5l-37.5 168c-12.667 56 -26.334 111.667 -41 167c-3.33301 12.667 -1.83301 23.334 4.5 32.001s14.5 14.334 24.5 17.001s20.167 2 30.5 -2s17.166 -12.333 20.5 -25zM1122 507
c16 6 42.499 12.6641 79.499 19.9971s80 14.333 129 21s102 12.334 159 17.001s113.333 7.16699 169 7.5s108.667 -2.16699 159 -7.5s93.833 -14.5 130.5 -27.5s64 -30.667 82 -53s22.333 -50.166 13 -83.499c-6.66699 -23.333 -20.834 -43.666 -42.501 -60.999
s-46.167 -32.5 -73.5 -45.5s-55.166 -23.833 -83.499 -32.5s-52.166 -15.667 -71.499 -21c-100 -28 -203 -48 -309 -60s-210.667 -16.333 -314 -13c-15.333 0.666992 -26.166 6.5 -32.499 17.5s-8.5 22.5 -6.5 34.5c-16 54 -30.5 108.167 -43.5 162.5l-37.5 163.5
l-36.5 164.5c-12.333 55 -25.833 109.5 -40.5 163.5c-3.33301 12.667 -1.83301 23.5 4.5 32.5s14.5 14.833 24.5 17.5s20.167 1.83398 30.5 -2.49902s17.166 -12.833 20.499 -25.5c17.333 -64.667 33 -129.334 47 -194.001zM1906 382.997
c21.333 12.667 33.666 23.833 36.999 33.5s1 18 -7 25s-20 12.833 -36 17.5s-33 8.66699 -51 12c-82.667 14.667 -166 20.667 -250 18c-37.333 -1.33301 -75.5 -2.83301 -114.5 -4.5s-78 -4.5 -117 -8.5s-77.667 -9.83301 -116 -17.5s-74.833 -18.167 -109.5 -31.5h-1
l22.5 -89c7.66699 -29.333 15.834 -59 24.501 -89c57.333 -1.33301 117.666 -0.5 180.999 2.5s126.333 9.33301 189 19s123.834 23.5 183.501 41.5s114.5 41.667 164.5 71z" />
    <glyph glyph-name="afii10046" unicode="&#x42c;" horiz-adv-x="2948" 
d="M1122 507c16 6 42.499 12.6641 79.499 19.9971s80 14.333 129 21s102 12.334 159 17.001s113.333 7.16699 169 7.5s108.667 -2.16699 159 -7.5s93.833 -14.5 130.5 -27.5s64 -30.667 82 -53s22.333 -50.166 13 -83.499c-6.66699 -23.333 -20.834 -43.666 -42.501 -60.999
s-46.167 -32.5 -73.5 -45.5s-55.166 -23.833 -83.499 -32.5s-52.166 -15.667 -71.499 -21c-100 -28 -203 -48 -309 -60s-210.667 -16.333 -314 -13c-15.333 0.666992 -26.166 6.5 -32.499 17.5s-8.5 22.5 -6.5 34.5c-16 54 -30.5 108.167 -43.5 162.5l-37.5 163.5
l-36.5 164.5c-12.333 55 -25.833 109.5 -40.5 163.5c-3.33301 12.667 -1.83301 23.5 4.5 32.5s14.5 14.833 24.5 17.5s20.167 1.83398 30.5 -2.49902s17.166 -12.833 20.499 -25.5c17.333 -64.667 33 -129.334 47 -194.001zM1906 382.997
c21.333 12.667 33.666 23.833 36.999 33.5s1 18 -7 25s-20 12.833 -36 17.5s-33 8.66699 -51 12c-82.667 14.667 -166 20.667 -250 18c-37.333 -1.33301 -75.5 -2.83301 -114.5 -4.5s-78 -4.5 -117 -8.5s-77.667 -9.83301 -116 -17.5s-74.833 -18.167 -109.5 -31.5h-1
l22.5 -89c7.66699 -29.333 15.834 -59 24.501 -89c57.333 -1.33301 117.666 -0.5 180.999 2.5s126.333 9.33301 189 19s123.834 23.5 183.501 41.5s114.5 41.667 164.5 71z" />
    <glyph glyph-name="afii10047" unicode="&#x42d;" horiz-adv-x="2722" 
d="M919 877c50 36 105.675 61.8369 167.008 77.5039s123.666 21.667 186.999 18s125.666 -16.167 186.999 -37.5s116.833 -50.5 166.5 -87.5s91.5 -81.333 125.5 -133s55.667 -109.834 65 -174.501c8 -54 6.66699 -101.333 -4 -142s-28.334 -76 -53.001 -106
s-54.834 -55.167 -90.501 -75.5s-74.5 -36.833 -116.5 -49.5s-86.167 -22.334 -132.5 -29.001s-92.5 -11.5 -138.5 -14.5s-90.333 -4.5 -133 -4.5h-117c-13.333 0 -23.333 4.33301 -30 13s-10 18.167 -10 28.5s3.33301 19.833 10 28.5s16.667 13 30 13
c26.667 0 57.5 -0.333008 92.5 -1s72 -0.666992 111 0s78.667 2.66699 119 6s79.5 9 117.5 17s73.667 18.833 107 32.5s62.166 31.334 86.499 53.001s43.166 47.834 56.499 78.501s18.666 67 15.999 109c0 1.33301 -0.166992 2.83301 -0.5 4.5s-0.5 3.16699 -0.5 4.5h-558
c-13.333 0 -23.5 4.33301 -30.5 13s-10.5 18.167 -10.5 28.5s3.5 19.833 10.5 28.5s17.167 13 30.5 13h542c-15.333 47.333 -39.333 89.666 -72 126.999s-70.5 68.833 -113.5 94.5s-89.833 45.167 -140.5 58.5s-101.5 20.166 -152.5 20.499
s-100.833 -6.33398 -149.5 -20.001s-92.667 -34.834 -132 -63.501c-10.667 -8 -20.834 -10.333 -30.501 -7s-17.167 9.5 -22.5 18.5s-7.5 19.167 -6.5 30.5s6.83301 21 17.5 29z" />
    <glyph glyph-name="afii10048" unicode="&#x42e;" horiz-adv-x="2899" 
d="M1998 574c0.666992 -2 1.00293 -5.99707 1.00293 -11.9971c0 -5.33301 -0.333008 -9.33301 -1 -12c-3.33301 -36 -12.666 -70.667 -27.999 -104s-35.333 -62.666 -60 -87.999s-53.5 -45.333 -86.5 -60s-68.833 -21 -107.5 -19c-30 1.33301 -59.5 7.16602 -88.5 17.499
s-55.833 24.166 -80.5 41.499s-46 38 -64 62s-31.333 50.333 -40 79h-339c12 -52.667 24.667 -105.334 38 -158.001s27.666 -105 42.999 -157c4 -12.667 2.66699 -23.334 -4 -32.001s-15 -14.334 -25 -17.001s-20 -2 -30 2s-17 12.333 -21 25
c-16.667 56 -31.834 112 -45.501 168l-40.5 169h-279c-13.333 0 -23.333 4.33301 -30 13s-10 18.167 -10 28.5s3.33301 19.833 10 28.5s16.667 13 30 13h261l-40.5 183.5c-13.667 61 -28.834 121.833 -45.501 182.5c-3.33301 12.667 -1.66602 23.5 5.00098 32.5
s15 14.833 25 17.5s20 1.83398 30 -2.49902s16.667 -12.833 20 -25.5c17.333 -64.667 33.166 -129.167 47.499 -193.5l43.5 -194.5h347c2 36.667 10.333 72.5 25 107.5s34.5 65.833 59.5 92.5s54.333 47.667 88 63s70.5 22 110.5 20c38.667 -2 74.5 -10 107.5 -24
s61.833 -32.833 86.5 -56.5s44.667 -51.667 60 -84s24.666 -67.833 27.999 -106.5zM1516 562.003c2 -42.667 13.166 -78.5 33.499 -107.5s44.833 -50.5 73.5 -64.5s59.667 -21.167 93 -21.5s64.333 6.83398 93 21.501s53 36.167 73 64.5s31.333 64.166 34 107.499
c-2.66699 42.667 -14.5 78.334 -35.5 107.001s-46.833 50.167 -77.5 64.5s-63.167 21.5 -97.5 21.5s-66 -7.16699 -95 -21.5s-52.667 -35.833 -71 -64.5s-26.166 -64.334 -23.499 -107.001z" />
    <glyph glyph-name="afii10071.002" unicode="&#x42f;" horiz-adv-x="2905" 
d="M1794 664c6.66699 -8 10.1621 -16.999 10.4951 -26.999s-3.16699 -19 -10.5 -27c1.33301 -100 1.83301 -199.333 1.5 -298s-0.833008 -198 -1.5 -298c0 -13.333 -4.33301 -23.5 -13 -30.5s-18 -10.5 -28 -10.5s-19.333 3.5 -28 10.5s-13 17.167 -13 30.5
c0 91.333 0.333008 181.833 1 271.5s0.333984 180.167 -0.999023 271.5c-67.333 -40 -136.166 -76.667 -206.499 -110l-213 -96.5l-215.5 -93c-72 -31 -143 -63.5 -213 -97.5c-12 -6 -23.167 -6.83301 -33.5 -2.5s-18.166 11 -23.499 20s-7.16602 18.667 -5.49902 29
s8.5 18.5 20.5 24.5c68 33.333 137 65 207 95l209.5 90.5l207.5 94c68.667 32.333 136 67.5 202 105.5l-105.5 11c-38.333 4 -76.666 9.16699 -114.999 15.5s-74.666 14.5 -108.999 24.5s-63.333 23.167 -87 39.5s-40.5 36.166 -50.5 59.499s-9.33301 51.666 2 84.999
c8.66699 26 24.167 48.667 46.5 68s48.5 36.333 78.5 51s62.667 27.334 98 38.001s70.5 19.834 105.5 27.501s68.5 14.167 100.5 19.5s60 10.666 84 15.999c-0.666992 1.33301 -1 4 -1 8c-0.666992 13.333 3 23.333 11 30s17.167 10 27.5 10s20 -3.33301 29 -10
s14.167 -16.667 15.5 -30c4.66699 -70 8.16699 -139.333 10.5 -208s4.16602 -137.667 5.49902 -207zM1294 855.001c-22 -16 -32.3369 -30.499 -31.0039 -43.499s10 -24.667 26 -35s36.833 -19.166 62.5 -26.499s51.5 -13.5 77.5 -18.5s49.667 -8.83301 71 -11.5
s36 -4.33398 44 -5.00098c28 -1.33301 55.833 -3.33301 83.5 -6s55.167 -7 82.5 -13l-4 145.5c-1.33301 48.333 -3.33301 96.833 -6 145.5c-33.333 -7.33301 -68.166 -14.5 -104.499 -21.5s-72.166 -15.333 -107.499 -25s-69.666 -21.334 -102.999 -35.001
s-63.666 -30.5 -90.999 -50.5z" />
    <glyph glyph-name="afii10065" unicode="&#x430;" horiz-adv-x="2436" 
d="M1179 939c42 -50 81.8311 -101.33 119.498 -153.997l111 -160l108 -162.5l110.5 -160.5c8 -11.333 10.167 -21.833 6.5 -31.5s-10 -17 -19 -22s-19.167 -7 -30.5 -6s-20.666 6.83301 -27.999 17.5l-62 86.5l-59 88.5h-392l-56.5 -137.5
c-19 -45.667 -39.167 -91.167 -60.5 -136.5c-6 -12 -14 -18.833 -24 -20.5s-19.5 0.166016 -28.5 5.49902s-15.833 13.166 -20.5 23.499s-4.33398 21.5 0.999023 33.5c18 38 35.167 76.333 51.5 115l48.5 117h-51c-13.333 0 -23.5 4.33301 -30.5 13s-10.5 18.167 -10.5 28.5
s3.5 19.833 10.5 28.5s17.167 13 30.5 13h84l69 177.5l69 178.5c-1.33301 1.33301 -2.16602 2.33301 -2.49902 3s-1.16602 1.66699 -2.49902 3c-8.66699 10 -12 20.667 -10 32s6.5 20.666 13.5 27.999s15.667 11.5 26 12.5s19.833 -3.5 28.5 -13.5zM1381 518.003l-95.5 142
c-31.667 46.667 -65.167 93 -100.5 139l-54 -140l-54 -141h304z" />
    <glyph glyph-name="afii10066" unicode="&#x431;" horiz-adv-x="2840" 
d="M1949 1085c13.333 0 23.334 -4.33789 30.001 -13.0049s10 -18.167 10 -28.5s-3.33301 -19.833 -10 -28.5s-16.667 -13 -30 -13h-853c23.333 -91.333 45 -182.5 65 -273.5l62 -274.5c44 -6 87.833 -12.667 131.5 -20s86.834 -16.666 129.501 -27.999l78 -21
c30 -8 59.5 -18.333 88.5 -31s54.833 -28.167 77.5 -46.5s37.667 -40.833 45 -67.5c8.66699 -30.667 6.5 -57.667 -6.5 -81s-33 -43.333 -60 -60s-58.667 -30.5 -95 -41.5s-74 -19.833 -113 -26.5s-77 -11.667 -114 -15s-69.167 -5.66602 -96.5 -6.99902h-1
c-9.33301 -0.666992 -17.833 -1 -25.5 -1s-14.834 -0.333008 -21.501 -1c-12 0 -21.333 3.66699 -28 11s-10.5 15.833 -11.5 25.5s1 19 6 28s12.833 14.833 23.5 17.5c-27.333 96 -52.333 193 -75 291c-11.333 1.33301 -22.5 2.5 -33.5 3.5s-22.167 2.16699 -33.5 3.5
c-13.333 1.33301 -23.166 6.66602 -29.499 15.999s-9.5 19.333 -9.5 30s3.16699 19.834 9.5 27.501s16.166 10.834 29.499 9.50098c8 -1.33301 16 -2.16602 24 -2.49902s16 -1.16602 24 -2.49902l-64.5 284.5c-21 94.333 -44.167 188.833 -69.5 283.5
c-3.33301 13.333 -0.833008 25.333 7.5 36s19.166 16 32.499 16h907zM1640 262.995c-60.667 32 -124.832 55.5 -192.499 70.5s-135.834 26.833 -204.501 35.5l34 -137.5c11.333 -45.667 23.666 -91.5 36.999 -137.5c62.667 6 125.334 15.667 188.001 29l42.5 10.5
c17.667 4.33301 35.667 9.66602 54 15.999s35.166 13.333 50.499 21s26.333 16.334 33 26.001s7.33398 20 2.00098 31s-20 22.833 -44 35.5z" />
    <glyph glyph-name="afii10067" unicode="&#x432;" horiz-adv-x="2806" 
d="M1503 490c27.333 -13.333 56.167 -25.8369 86.5 -37.5039l90.5 -36.5c30 -12.667 59 -26.5 87 -41.5s53.333 -32.833 76 -53.5c6.66699 -6 10.667 -13.167 12 -21.5s0.333008 -16 -3 -23s-8.33301 -13.167 -15 -18.5s-14.334 -8 -23.001 -8
c-46 -1.33301 -91.5 -4.33301 -136.5 -9s-89.167 -11.667 -132.5 -21s-86 -21.333 -128 -36s-83.333 -33 -124 -55c3.33301 -11.333 6.5 -22.833 9.5 -34.5s6.16699 -23.167 9.5 -34.5c4 -13.333 2.66699 -24.333 -4 -33s-15 -14.334 -25 -17.001s-20 -2 -30 2
s-17 12.667 -21 26c-25.333 85.333 -48.333 171.166 -69 257.499l-60 260.5c-3.33301 0.666992 -6.5 1.33398 -9.5 2.00098s-6.16699 1.33398 -9.5 2.00098v1c-10.667 2 -18.667 6.83301 -24 14.5s-8 16 -8 25s2.66699 17.667 8 26s13.333 13.5 24 15.5l-33.5 144.5
l-34.5 144.5c-12.667 1.33301 -25.334 2.83301 -38.001 4.5s-25 3.16699 -37 4.5c-13.333 1.33301 -23.333 6.66602 -30 15.999s-10 19.333 -10 30s3.33301 19.834 10 27.501s16.667 10.834 30 9.50098c9.33301 -1.33301 18.166 -2.5 26.499 -3.5
s17.166 -2.16699 26.499 -3.5c-1.33301 6.66699 -2.66602 12 -3.99902 16c-3.33301 12.667 -1.66602 23.5 5.00098 32.5s15 14.833 25 17.5s20 2 30 -2s16.667 -12.333 20 -25c2.66699 -8.66699 5 -17 7 -25l6 -25c42.667 -5.33301 85 -11.666 127 -18.999
s84 -16.666 126 -27.999l78.5 -20c30.333 -8 59.833 -18.5 88.5 -31.5s54.334 -28.667 77.001 -47s37.667 -40.833 45 -67.5c9.33301 -33.333 6 -62.166 -10 -86.499s-39.667 -45 -71 -62s-67.666 -30.833 -108.999 -41.5s-83 -19 -125 -25
c32.667 -13.333 65 -27.333 97 -42zM1492 815.996c-59.333 30.667 -121.835 53.501 -187.502 68.501s-132.5 27.167 -200.5 36.5l32.5 -137l30.5 -137c62 4.66699 124.333 14.334 187 29.001c10.667 2 24.834 5.16699 42.501 9.5s35.667 9.66602 54 15.999
s35.333 13.5 51 21.5s26.834 16.667 33.501 26s7.16699 19.666 1.5 30.999s-20.5 23.333 -44.5 36zM1193 529.997l37 -159.498l40 -159.5c66 34 133.5 59.667 202.5 77s139.833 29.666 212.5 36.999c-38 17.333 -77 33.333 -117 48s-75.667 29.667 -107 45
c-44 21.333 -88.167 41.666 -132.5 60.999s-89.5 36.333 -135.5 51z" />
    <glyph glyph-name="afii10068" unicode="&#x433;" horiz-adv-x="2529" 
d="M1539 1084c13.333 0 23.334 -4.33105 30.001 -12.998s10 -18.167 10 -28.5s-3.33301 -19.833 -10 -28.5s-16.667 -13 -30 -13h-493c20 -78 38.833 -156.5 56.5 -235.5l53 -236.5l55 -236c19 -78.667 40.167 -156.667 63.5 -234c4 -12.667 2.66699 -23.334 -4 -32.001
s-15 -14.334 -25 -17.001s-20 -2 -30 2s-17 12.333 -21 25c-24 82 -46 164.5 -66 247.5l-58 249.5l-56.5 249.5c-19 83 -39.5 165.833 -61.5 248.5c-3.33301 13.333 -0.833008 25.333 7.5 36s19.166 16 32.499 16h547v0z" />
    <glyph glyph-name="afii10069" unicode="&#x434;" horiz-adv-x="2944" 
d="M1156 213l-12.001 -25.9961l-12 -26c-5.33301 -12 -13.166 -18.833 -23.499 -20.5s-20 0.166016 -29 5.49902s-15.833 13.166 -20.5 23.499s-4 21.5 2 33.5c0.666992 1.33301 1.33398 3 2.00098 5s1.33398 3.66699 2.00098 5h-225c-13.333 0 -23.333 4.33301 -30 13
s-10 18.167 -10 28.5s3.33301 19.833 10 28.5s16.667 13 30 13h262c42 95.333 81.333 191.166 118 287.499l112 290.5l-6 6c-8.66699 10 -12 20.667 -10 32s6.66699 20.666 14 27.999s16.166 11.5 26.499 12.5s19.833 -3.5 28.5 -13.5c42 -50 81.833 -101.333 119.5 -154
l110.5 -160l107.5 -162.5l110.5 -160.5c1.33301 -1.33301 2.66602 -3.33301 3.99902 -6h217c13.333 0 23.333 -4.33301 30 -13s10 -18.167 10 -28.5s-3.33301 -19.833 -10 -28.5s-16.667 -13 -30 -13h-898zM1391 799.004l-97.5 -252.5l-101.5 -250.5h545l-86.5 125.5
l-84.5 127.5l-85.5 126.5z" />
    <glyph glyph-name="afii10070" unicode="&#x435;" horiz-adv-x="2781" 
d="M1819 353c11.333 6.66699 22.1689 8 32.502 4s18 -10.5 23 -19.5s6.83301 -18.833 5.5 -29.5s-7.66602 -19.334 -18.999 -26.001c-44 -25.333 -86.667 -45.833 -128 -61.5s-83 -28.334 -125 -38.001s-85.167 -17 -129.5 -22s-91.5 -8.83301 -141.5 -11.5l-101.5 -6
c-35 -2 -69.333 -1 -103 3s-65.667 12.167 -96 24.5s-57.5 32.166 -81.5 59.499c-19.333 22 -33.333 45.833 -42 71.5s-13 52.334 -13 80.001s3.83301 56 11.5 85s18.167 57.833 31.5 86.5c-12.667 0.666992 -22 5.5 -28 14.5s-8.83301 18.5 -8.5 28.5
s3.66602 19 9.99902 27s16.166 12 29.499 12h21c6.66699 0 13.667 -0.333008 21 -1c20 30.667 42 60.334 66 89.001s48.667 54.667 74 78s50.666 44 75.999 62s49.333 32 72 42c32.667 14 67.334 25 104.001 33s73.834 12 111.501 12s74.667 -4.33301 111 -13
s70.166 -22.334 101.499 -41.001c22.667 -13.333 37.667 -31 45 -53s9.33301 -44.667 6 -68s-11 -46.166 -23 -68.499s-26 -40.5 -42 -54.5c-42.667 -38 -90.167 -65.333 -142.5 -82s-106.833 -27.167 -163.5 -31.5s-114.334 -4.66602 -173.001 -0.999023l-171 10.5
c-1.33301 -2.66699 -2.5 -5.16699 -3.5 -7.5l-3.5 -8.5c-15.333 -34 -26 -68.667 -32 -104s-5 -67.5 3 -96.5s24.333 -53 49 -72s60.667 -29.167 108 -30.5c58 -2 115.333 -2.16699 172 -0.5s112.334 7 167.001 16s108.667 22 162 39s105.666 40.167 156.999 69.5zM1253 794
c-30.667 -24 -59.9971 -49.667 -87.9971 -77s-53.667 -57 -77 -89l93 -6c31.333 -2 62.5 -3.16699 93.5 -3.5s61.833 0.666992 92.5 3s61 6.83301 91 13.5c24.667 5.33301 49.5 11.5 74.5 18.5s47.833 17.833 68.5 32.5c14 10 26.167 23.333 36.5 40
s16.666 33.334 18.999 50.001s-0.833984 32 -9.50098 46s-25.334 23.667 -50.001 29c-30 6 -60 10 -90 12s-59.5 1.16699 -88.5 -2.5s-57.5 -10.834 -85.5 -21.501s-54.667 -25.667 -80 -45z" />
    <glyph glyph-name="afii10072" unicode="&#x436;" horiz-adv-x="2834" 
d="M1871 831c12 6.66699 22.998 7.83203 32.998 3.49902s17.667 -11 23 -20s7.16602 -18.833 5.49902 -29.5s-8.16699 -19.334 -19.5 -26.001c-68 -38 -134 -77.667 -198 -119l-193 -127l26.5 -15l26.5 -15c28 -15.333 56.833 -29.5 86.5 -42.5l88 -40.5
c29 -14 57.167 -29 84.5 -45s53.333 -34.667 78 -56c10 -8.66699 14.5 -18.167 13.5 -28.5s-5.33301 -19.166 -13 -26.499s-17 -11.833 -28 -13.5s-21.5 1.83301 -31.5 10.5c-27.333 24 -57.333 45.167 -90 63.5s-66.334 35.666 -101.001 51.999l-104 48
c-34.667 15.667 -68 32.5 -100 50.5c0 -83.333 -0.166992 -166.333 -0.5 -249s-0.5 -165.667 -0.5 -249c0 -13.333 -4.33301 -23.5 -13 -30.5s-18.167 -10.5 -28.5 -10.5s-19.833 3.5 -28.5 10.5s-13 17.167 -13 30.5c0 76.667 0.333008 153 1 229s0.666992 152.333 0 229
l-201.5 -128.5c-67.667 -41.667 -137.5 -80.5 -209.5 -116.5c-12 -6 -23.167 -6.83301 -33.5 -2.5s-18.166 11 -23.499 20s-7.16602 18.667 -5.49902 29s8.5 18.5 20.5 24.5c78.667 39.333 154.334 81.833 227.001 127.5l218 140.5l-154 96.5l-153 98.5
c-11.333 7.33301 -17.5 16.5 -18.5 27.5s1 21 6 30s12.5 15.5 22.5 19.5s20.667 2.33301 32 -5l135.5 -88.5l136.5 -86.5c-1.33301 90 -3.16602 179.333 -5.49902 268s-6.5 177.667 -12.5 267c-1.33301 13.333 2.16699 23.333 10.5 30s17.666 10 27.999 10
s20 -3.33301 29 -10s14.167 -16.667 15.5 -30c6 -95.333 10.333 -189.666 13 -282.999s4.33398 -187.666 5.00098 -282.999l204.5 135c67.667 44 137.5 86 209.5 126z" />
    <glyph glyph-name="afii10073" unicode="&#x437;" horiz-adv-x="2706" 
d="M1453 471c27.333 -13.333 56.1592 -25.8311 86.4922 -37.498l90.5 -36.5c30 -12.667 59 -26.5 87 -41.5s53.333 -32.833 76 -53.5c6.66699 -6 10.667 -13 12 -21s0.333008 -15.667 -3 -23s-8.33301 -13.5 -15 -18.5s-14.334 -7.83301 -23.001 -8.5
c-49.333 -1.33301 -97.666 -4.5 -144.999 -9.5s-93.833 -12.833 -139.5 -23.5s-90.667 -24.334 -135 -41.001s-87.833 -37.667 -130.5 -63c-12 -6.66699 -23 -8 -33 -4s-17.667 10.5 -23 19.5s-7.16602 19 -5.49902 30s8.16699 19.833 19.5 26.5
c72.667 42.667 147.5 74.667 224.5 96s156.5 36 238.5 44c-38 18 -77 34.167 -117 48.5s-75.667 29.166 -107 44.499c-61.333 30 -122.833 57.5 -184.5 82.5s-125.834 44.833 -192.501 59.5c-11.333 2 -19.666 7.33301 -24.999 16s-7.66602 18 -6.99902 28
s4.33398 19 11.001 27s16.334 12 29.001 12c44 0.666992 88 4 132 10s87.333 13.667 130 23c10.667 2 24.834 5.16699 42.501 9.5s35.667 9.66602 54 15.999s35.333 13.5 51 21.5s26.834 16.667 33.501 26s7.16699 19.666 1.5 30.999s-20.5 23.333 -44.5 36
c-41.333 21.333 -84.833 38.833 -130.5 52.5s-92 25 -139 34s-94.333 16.167 -142 21.5l-139.5 16c-13.333 1.33301 -23.333 6.66602 -30 15.999s-10 19.333 -10 30s3.33301 19.834 10 27.501s16.667 10.834 30 9.50098c66.667 -8 133 -16.5 199 -25.5
s131.333 -22.167 196 -39.5l78.5 -20c30.333 -8 59.833 -18.5 88.5 -31.5s54.334 -28.667 77.001 -47s37.667 -40.833 45 -67.5c9.33301 -33.333 6 -62.166 -10 -86.499s-39.667 -45 -71 -62s-67.666 -30.833 -108.999 -41.5s-83 -19 -125 -25
c32.667 -13.333 65 -27.333 97 -42z" />
    <glyph glyph-name="afii10074" unicode="&#x438;" horiz-adv-x="3029" 
d="M1864 868c14.667 -55.333 28.3369 -110.999 41.0039 -166.999l37.5 -168c12.333 -56 25.333 -111.833 39 -167.5s28.5 -110.834 44.5 -165.501c4 -12.667 2.83301 -23.334 -3.5 -32.001s-14.5 -14.334 -24.5 -17.001s-20.167 -2 -30.5 2s-17.5 12.333 -21.5 25
c-14.667 49.333 -28.167 98.833 -40.5 148.5l-35.5 149.5l-33.5 150l-34.5 150l-284.5 -285l-284.5 -285c-11.333 -11.333 -24.5 -14.833 -39.5 -10.5s-24.833 13.833 -29.5 28.5c-16.667 54.667 -31.667 109.834 -45 165.501l-38.5 167.5l-37.5 168
c-12.667 56 -26.334 111.667 -41.001 167c-3.33301 12.667 -1.83301 23.5 4.5 32.5s14.5 14.833 24.5 17.5s20.167 1.83398 30.5 -2.49902s17.166 -12.833 20.499 -25.5c13.333 -50 25.666 -100 36.999 -150l33.5 -150l34 -150c11.667 -50 24.5 -99.667 38.5 -149l285 285.5
l285 285.5c5.33301 5.33301 11.666 8.83301 18.999 10.5s14.333 1.66699 21 0s12.667 -5 18 -10s9 -11.167 11 -18.5z" />
    <glyph glyph-name="afii10075" unicode="&#x439;" horiz-adv-x="3029" 
d="M1249 1519c-13.333 0 -23.5 4.33301 -30.5 13s-10.5 18.167 -10.5 28.5s3.5 19.833 10.5 28.5s17.167 13 30.5 13h368c13.333 0 23.333 -4.33301 30 -13s10 -18.167 10 -28.5s-3.33301 -19.833 -10 -28.5s-16.667 -13 -30 -13h-368zM1864 868
c14.667 -55.333 28.3369 -110.999 41.0039 -166.999l37.5 -168c12.333 -56 25.333 -111.833 39 -167.5s28.5 -110.834 44.5 -165.501c4 -12.667 2.83301 -23.334 -3.5 -32.001s-14.5 -14.334 -24.5 -17.001s-20.167 -2 -30.5 2s-17.5 12.333 -21.5 25
c-14.667 49.333 -28.167 98.833 -40.5 148.5l-35.5 149.5l-33.5 150l-34.5 150l-284.5 -285l-284.5 -285c-11.333 -11.333 -24.5 -14.833 -39.5 -10.5s-24.833 13.833 -29.5 28.5c-16.667 54.667 -31.667 109.834 -45 165.501l-38.5 167.5l-37.5 168
c-12.667 56 -26.334 111.667 -41.001 167c-3.33301 12.667 -1.83301 23.5 4.5 32.5s14.5 14.833 24.5 17.5s20.167 1.83398 30.5 -2.49902s17.166 -12.833 20.499 -25.5c13.333 -50 25.666 -100 36.999 -150l33.5 -150l34 -150c11.667 -50 24.5 -99.667 38.5 -149l285 285.5
l285 285.5c5.33301 5.33301 11.666 8.83301 18.999 10.5s14.333 1.66699 21 0s12.667 -5 18 -10s9 -11.167 11 -18.5z" />
    <glyph glyph-name="afii10076" unicode="&#x43a;" horiz-adv-x="2789" 
d="M1120 40l-0.00195312 590.002c0 196.667 -6.33301 393 -19 589c-0.666992 13.333 3 23.333 11 30s17.167 10 27.5 10s20 -3.33301 29 -10s14.167 -16.667 15.5 -30c7.33301 -108 12.166 -215.5 14.499 -322.5s3.83301 -214.5 4.5 -322.5
c26.667 10.667 52.334 23.334 77.001 38.001l74 44c24.667 14.667 49.667 28.5 75 41.5s52.333 23.5 81 31.5c50.667 14.667 101.5 27.5 152.5 38.5s101.833 23.167 152.5 36.5c12.667 3.33301 23.5 1.66602 32.5 -5.00098s14.833 -15 17.5 -25s1.83398 -20 -2.49902 -30
s-12.833 -16.667 -25.5 -20c-28.667 -7.33301 -57.667 -14 -87 -20s-58.666 -12.333 -87.999 -19s-58.5 -13.834 -87.5 -21.501s-57.167 -17.167 -84.5 -28.5c-32.667 -12.667 -63.334 -27.834 -92.001 -45.501l-87 -52.5c50.667 -21.333 99 -46.5 145 -75.5
s91.333 -59.167 136 -90.5l134.5 -94c45 -31.333 92.167 -59.666 141.5 -84.999c12 -6 18.667 -14.167 20 -24.5s-0.5 -20 -5.5 -29s-12.667 -15.667 -23 -20s-21.5 -3.5 -33.5 2.5c-54 27.333 -105.667 58.666 -155 93.999l-148 104.5c-49.333 34.333 -100 66.5 -152 96.5
s-107.667 53.333 -167 70c0 -74.667 -0.166992 -149 -0.5 -223s-0.833008 -148.333 -1.5 -223c0 -13.333 -4.33301 -23.333 -13 -30s-18.167 -10 -28.5 -10s-19.666 3.33301 -27.999 10s-12.5 16.667 -12.5 30z" />
    <glyph glyph-name="afii10077" unicode="&#x43b;" horiz-adv-x="2586" 
d="M1229 939c42 -50 81.8311 -101.331 119.498 -153.998l111 -160l108 -162.5l110.5 -160.5c8 -11.333 10.167 -21.833 6.5 -31.5s-10 -17 -19 -22s-19.167 -7 -30.5 -6s-20.666 6.83301 -27.999 17.5l-93.5 134.5l-90.5 136.5l-91.5 135.5
c-31 45 -63.167 89.167 -96.5 132.5l-124.5 -320.5c-41 -106.333 -85.5 -212.166 -133.5 -317.499c-6 -12 -14 -18.833 -24 -20.5s-19.5 0.166016 -28.5 5.49902s-15.833 13.166 -20.5 23.499s-4.33398 21.5 0.999023 33.5c50.667 110 97.5 221 140.5 333l130.5 337
c-1.33301 1.33301 -2.16602 2.5 -2.49902 3.5s-1.16602 2.16699 -2.49902 3.5c-8.66699 10 -12 20.667 -10 32s6.5 20.666 13.5 27.999s15.667 11.5 26 12.5s19.833 -3.5 28.5 -13.5z" />
    <glyph glyph-name="afii10078" unicode="&#x43c;" horiz-adv-x="2930" 
d="M1786 1036c22 -82.667 42.4932 -165.664 61.4932 -248.997l56.5 -250l58 -249c20 -82.667 42 -165 66 -247c4 -12.667 2.66699 -23.334 -4 -32.001s-15 -14.334 -25 -17.001s-20 -2 -30 2s-17 12.333 -21 25c-21.333 70.667 -40.833 141.834 -58.5 213.501l-51 216
l-48.5 216.5l-50 216c-18 -44.667 -37.833 -88.667 -59.5 -132l-66.5 -129.5l-68 -128.5c-22.667 -42.667 -43.667 -85.334 -63 -128.001c-3.33301 -6 -7.66602 -10.667 -12.999 -14s-11.166 -5.33301 -17.499 -6s-12.666 0 -18.999 2s-11.5 5 -15.5 9
c-34 32 -65.5 66.5 -94.5 103.5s-56.667 75.5 -83 115.5s-51.5 81 -75.5 123l-72 126l84.5 -373.5c27.667 -123.667 59.5 -247.167 95.5 -370.5c4 -12.667 2.83301 -23.334 -3.5 -32.001s-14.5 -14.334 -24.5 -17.001s-20.167 -2 -30.5 2s-17.5 12.333 -21.5 25
c-24 82 -46 164.5 -66 247.5l-58 249.5l-56 249.5c-18.667 83 -39 165.833 -61 248.5c-3.33301 12 -2 22.333 4 31s13.5 14.667 22.5 18s18.5 3.5 28.5 0.5s17.333 -9.83301 22 -20.5c0.666992 -1.33301 1.33398 -2.16602 2.00098 -2.49902s1.66699 -1.16602 3 -2.49902
c34.667 -48.667 67.334 -100 98.001 -154l93 -162.5c31.333 -54.333 63.833 -107.5 97.5 -159.5s71.167 -100 112.5 -144c22.667 46 46.667 92.333 72 139l74.5 141c24.333 47.333 47 95 68 143s38.167 96.333 51.5 145c0.666992 4 2.33398 8 5.00098 12
c2.66699 8.66699 7.66699 15.667 15 21s15.333 8.33301 24 9s16.834 -1.33301 24.501 -6s13.167 -12.334 16.5 -23.001z" />
    <glyph glyph-name="afii10079" unicode="&#x43d;" horiz-adv-x="2709" 
d="M1565 1055c22 -82.667 42.5 -165.665 61.5 -248.998l56.5 -250l58 -249c20 -82.667 42 -165 66 -247c4 -13.333 2.66699 -24.333 -4 -33s-15 -14.334 -25 -17.001s-20 -2 -30 2s-17 12.333 -21 25c-25.333 86.667 -48.5 173.334 -69.5 260.001l-60.5 261h-449l58.5 -250
c19.667 -82.667 41.834 -165.334 66.501 -248.001c4 -13.333 2.83301 -24.333 -3.5 -33s-14.5 -14.334 -24.5 -17.001s-20.167 -2 -30.5 2s-17.5 12.333 -21.5 25c-24 82 -46 164.5 -66 247.5l-58 249.5l-56 249.5c-18.667 83 -39 165.833 -61 248.5
c-3.33301 12.667 -1.83301 23.5 4.5 32.5s14.5 14.833 24.5 17.5s20.167 2 30.5 -2s17.166 -12.333 20.499 -25c18 -68.667 35 -137.5 51 -206.5l47 -207.5h449l-44.5 196.5c-15 65 -31.167 129.833 -48.5 194.5c-3.33301 12.667 -1.83301 23.5 4.5 32.5
s14.5 14.833 24.5 17.5s20 2 30 -2s16.667 -12.333 20 -25z" />
    <glyph glyph-name="afii10080" unicode="&#x43e;" horiz-adv-x="2368" 
d="M1467 534c-3.33301 -36 -12.666 -70.668 -27.999 -104.001s-35.333 -62.666 -60 -87.999s-53.5 -45.333 -86.5 -60s-68.833 -21 -107.5 -19c-37.333 2 -73.333 10.333 -108 25s-65.5 34.5 -92.5 59.5s-48.167 54.333 -63.5 88s-22 70.5 -20 110.5
c2 36.667 10.333 72.5 25 107.5s34.5 65.833 59.5 92.5s54.5 47.667 88.5 63s71 22 111 20c38.667 -2 74.5 -10 107.5 -24s61.833 -32.833 86.5 -56.5s44.667 -51.667 60 -84s24.666 -67.833 27.999 -106.5c0 -1.33301 0.166992 -3 0.5 -5s0.5 -4.33301 0.5 -7
c0 -2 -0.166992 -4 -0.5 -6s-0.5 -4 -0.5 -6zM984 545.999c2 -42.667 13.1641 -78.499 33.4971 -107.499s44.833 -50.667 73.5 -65s59.834 -21.5 93.501 -21.5s64.834 7.33301 93.501 22s53 36.167 73 64.5s31.333 64.166 34 107.499c-2 32 -9.33301 60.167 -22 84.5
s-28.834 44.5 -48.501 60.5s-41.667 28 -66 36s-49.166 12 -74.499 12s-49.666 -4 -72.999 -12s-44 -20 -62 -36s-32.167 -36.167 -42.5 -60.5s-14.5 -52.5 -12.5 -84.5z" />
    <glyph glyph-name="afii10081" unicode="&#x43f;" horiz-adv-x="2868" 
d="M1728 958c11.333 0 20.1641 -3.16406 26.4971 -9.49707s10.333 -13.833 12 -22.5s0.833984 -17.334 -2.49902 -26.001s-9 -15.334 -17 -20.001c12 -117.333 18 -234.5 18 -351.5s-0.333008 -234.167 -1 -351.5c0 -13.333 -4.33301 -23.333 -13 -30s-18 -10 -28 -10
s-19.333 3.33301 -28 10s-13 16.667 -13 30v349.5c0 115.667 -5.66699 231.834 -17 348.501h-596c20 -78 38.833 -156.5 56.5 -235.5l53 -236.5l55 -236c19 -78.667 40.167 -156.667 63.5 -234c4 -13.333 2.66699 -24.333 -4 -33s-15 -14.334 -25 -17.001
s-20 -1.83398 -30 2.49902s-17 12.833 -21 25.5c-23.333 79.333 -44.833 159.166 -64.5 239.499l-56.5 241.5l-54.5 242.5c-18.333 81 -37.833 161.5 -58.5 241.5c-11.333 2 -19.833 7.33301 -25.5 16s-8.16699 17.834 -7.5 27.501s4.33398 18.5 11.001 26.5
s16.334 12 29.001 12h738v0z" />
    <glyph glyph-name="afii10082" unicode="&#x440;" horiz-adv-x="2580" 
d="M1386 958l78.5 -20.0029c30.333 -8 59.833 -18.5 88.5 -31.5s54.334 -28.667 77.001 -47s37.667 -40.833 45 -67.5c7.33301 -28.667 5.83301 -53.834 -4.5 -75.501s-26.666 -40.5 -48.999 -56.5s-49.5 -29.667 -81.5 -41s-65.5 -20.666 -100.5 -27.999
s-70.167 -13.166 -105.5 -17.499s-68 -7.5 -98 -9.5l59 -253.5c20 -83.667 42.333 -167.167 67 -250.5c4 -13.333 2.66699 -24.333 -4 -33s-15 -14.334 -25 -17.001s-20 -2 -30 2s-17 12.333 -21 25c-25.333 87.333 -48.5 174.333 -69.5 261s-41.167 174 -60.5 262h-10
c-12.667 0 -22.334 3.66699 -29.001 11s-10.334 15.833 -11.001 25.5s1.66602 19 6.99902 28s13.666 14.833 24.999 17.5l-33.5 145l-34.5 144c-12.667 1.33301 -25.334 2.83301 -38.001 4.5s-25 3.16699 -37 4.5c-13.333 1.33301 -23.333 6.66602 -30 15.999
s-10 19.333 -10 30s3.33301 19.834 10 27.501s16.667 10.834 30 9.50098c9.33301 -1.33301 18.333 -2.5 27 -3.5s17.334 -2.16699 26.001 -3.5c-1.33301 6.66699 -2.66602 12 -3.99902 16c-3.33301 12.667 -1.66602 23.5 5.00098 32.5s15 14.833 25 17.5s20 2 30 -2
s16.667 -12.333 20 -25c2.66699 -8.66699 5 -17 7 -25l6 -25c42.667 -5.33301 85 -11.666 127 -18.999s84 -16.666 126 -27.999zM1404 675.997c10.667 2 24.832 5.16797 42.499 9.50098s35.667 9.66602 54 15.999s35.333 13.5 51 21.5s26.834 16.667 33.501 26
s7.16699 19.666 1.5 30.999s-20.5 23.333 -44.5 36c-59.333 30.667 -121.833 53.5 -187.5 68.5s-132.5 27.167 -200.5 36.5l32.5 -137l30.5 -137c62 4.66699 124.333 14.334 187 29.001z" />
    <glyph glyph-name="afii10083" unicode="&#x441;" horiz-adv-x="2682" 
d="M1058 166c-34.667 26.667 -63.333 59.833 -86 99.5s-39.834 82 -51.501 127s-18.167 91 -19.5 138s2.33398 91.167 11.001 132.5c12.667 60.667 36.167 112.834 70.5 156.501s75.333 79.5 123 107.5s100.334 48.333 158.001 61s115.834 18.167 174.501 16.5
s116 -10.167 172 -25.5s106.667 -37 152 -65c11.333 -7.33301 17.666 -16.333 18.999 -27s-0.5 -20.5 -5.5 -29.5s-12.5 -15.5 -22.5 -19.5s-20.667 -2.33301 -32 5c-40 24.667 -85.833 43.667 -137.5 57s-104.667 20.166 -159 20.499s-107.666 -5.83398 -159.999 -18.501
s-99 -32.667 -140 -60s-74.167 -62.5 -99.5 -105.5s-38 -94.5 -38 -154.5c0 -46 3.66699 -91.167 11 -135.5s20.666 -84.666 39.999 -120.999s45.666 -67 78.999 -92s76 -40.833 128 -47.5c36.667 -5.33301 73.5 -8.16602 110.5 -8.49902s73.833 0.5 110.5 2.5
s73.334 5 110.001 9l110 12c13.333 1.33301 23.333 -1.83398 30 -9.50098s10 -16.834 10 -27.501s-3.33301 -20.667 -10 -30s-16.667 -14.666 -30 -15.999c-30.667 -3.33301 -63.834 -7.33301 -99.501 -12s-72.167 -8.66699 -109.5 -12s-75 -5.33301 -113 -6
s-75.167 1.33301 -111.5 6s-71 12.667 -104 24s-63.167 27.333 -90.5 48z" />
    <glyph glyph-name="afii10084" unicode="&#x442;" horiz-adv-x="2999" 
d="M1959 933c13.333 0 23.334 -4.33301 30.001 -13s10 -18.167 10 -28.5s-3.33301 -19.833 -10 -28.5s-16.667 -13 -30 -13h-465l90.5 -396.5c29 -132.333 62.833 -263.5 101.5 -393.5c4 -13.333 2.66699 -24.333 -4 -33s-15 -14.334 -25 -17.001s-20 -2 -30 2
s-17 12.333 -21 25c-20 66.667 -38.5 133.834 -55.5 201.501s-33.167 135.5 -48.5 203.5l-46 204l-47 204h-569c-13.333 0 -23.333 4.33301 -30 13s-10 18.167 -10 28.5s3.33301 19.833 10 28.5s16.667 13 30 13h549l-12 49.5c-4 16.333 -8.33301 32.833 -13 49.5
c-3.33301 12.667 -1.83301 23.5 4.5 32.5s14.5 14.833 24.5 17.5s20.167 2 30.5 -2s17.166 -12.333 20.499 -25l15.5 -61.5l15.5 -60.5h484v0z" />
    <glyph glyph-name="afii10085" unicode="&#x443;" horiz-adv-x="2417" 
d="M1433 883c4.66699 12 12.498 20.0029 23.498 24.0029s21.5 4.66699 31.5 2s17.833 -8.16699 23.5 -16.5s6.16699 -18.833 1.5 -31.5l-78 -201.5l-79 -200.5c2.66699 -3.33301 4.83398 -6.33301 6.50098 -9s3.83398 -5.66699 6.50098 -9c6 -8 8.5 -15.833 7.5 -23.5
s-4 -14.334 -9 -20.001s-11.167 -10 -18.5 -13s-15 -3.83301 -23 -2.5l-47.5 -113.5l-50.5 -113.5c-5.33301 -12 -13.166 -18.833 -23.499 -20.5s-20 0.166016 -29 5.49902s-15.833 13.166 -20.5 23.499s-4 21.5 2 33.5l54.5 125l51.5 125l-98 145l-96.5 146l-100 143.5
c-34.333 47 -70.166 93.167 -107.499 138.5c-8.66699 10 -12 20.5 -10 31.5s6.66699 20.167 14 27.5s16.166 11.5 26.499 12.5s19.833 -3.5 28.5 -13.5c35.333 -42 69.166 -85.167 101.499 -129.5l95 -135l91.5 -137.5l92 -137l66.5 172.5z" />
    <glyph glyph-name="afii10086" unicode="&#x444;" horiz-adv-x="2906" 
d="M1479 554c-30.667 -1.33301 -63.5 -2.66895 -98.5 -4.00195s-70.333 -1.66602 -106 -0.999023s-71 3.33398 -106 8.00098s-68 12.334 -99 23.001s-59.167 25.334 -84.5 44.001s-46.333 42.667 -63 72c-14 24.667 -21 50 -21 76s4.83301 51.167 14.5 75.5
s23.5 46.666 41.5 66.999s38 37.166 60 50.499c53.333 32 110.166 55.5 170.499 70.5s121.5 24.833 183.5 29.5c4.66699 6.66699 10.667 11.667 18 15s14.833 4.66602 22.5 3.99902s14.667 -3.33398 21 -8.00098s10.833 -11.667 13.5 -21c2.66699 -8.66699 5 -17 7 -25
l6 -25c42.667 -5.33301 85 -11.666 127 -18.999s84 -16.666 126 -27.999l78.5 -20c30.333 -8 59.833 -18.5 88.5 -31.5s54.334 -28.667 77.001 -47s37.667 -40.833 45 -67.5c8 -28.667 6.66699 -53.834 -4 -75.501s-27.167 -40.5 -49.5 -56.5s-49.5 -29.667 -81.5 -41
s-65.5 -20.666 -100.5 -27.999s-70.167 -13.166 -105.5 -17.499s-68 -7.5 -98 -9.5l59 -253.5c20 -83.667 42.333 -167.167 67 -250.5c4 -13.333 2.66699 -24.333 -4 -33s-15 -14.334 -25 -17.001s-20 -2 -30 2s-17 12.333 -21 25c-25.333 86 -48.333 171.833 -69 257.5z
M1868 815.997c-58.667 30.667 -121.001 53.501 -187.001 68.501s-133 27.167 -201 36.5l32.5 -137l30.5 -137c62 4.66699 124.333 14.334 187 29.001c10.667 2 24.834 5.16699 42.501 9.5s35.667 9.66602 54 15.999s35.166 13.5 50.499 21.5s26.333 16.667 33 26
s7.33398 19.666 2.00098 30.999s-20 23.333 -44 36zM1053 681.998c30 -14.667 61.166 -25.499 93.499 -32.499s65.166 -11.667 98.499 -14s67 -3.16602 101 -2.49902s67.667 1.66699 101 3c4 2.66699 8 4.66699 12 6l-32.5 145l-34.5 144
c-12.667 1.33301 -25.334 2.83301 -38.001 4.5s-25 3.16699 -37 4.5c-10.667 1.33301 -19 5 -25 11s-10.333 13 -13 21c-35.333 -5.33301 -70 -13.333 -104 -24s-65.667 -24.667 -95 -42c-21.333 -12.667 -40.166 -28.834 -56.499 -48.501s-27.166 -40.334 -32.499 -62.001
s-3.66602 -42.5 5.00098 -62.5s27.667 -37 57 -51z" />
    <glyph glyph-name="afii10087" unicode="&#x445;" horiz-adv-x="2692" 
d="M1724 1063c8.66699 10 18 14.5039 28 13.5039s18.667 -5 26 -12s11.833 -16 13.5 -27s-1.83301 -21.5 -10.5 -31.5l-161.5 -188l-163.5 -186c51.333 -66.667 100.833 -134.5 148.5 -203.5s97.5 -136.833 149.5 -203.5c8 -10 11 -20.5 9 -31.5s-6.5 -20.167 -13.5 -27.5
s-15.5 -11.333 -25.5 -12s-19 4 -27 14c-52 65.333 -101.333 132.166 -148 200.499s-95.667 135.833 -147 202.5l-222.5 -267c-71.667 -90 -139.167 -184.667 -202.5 -284c-7.33301 -10.667 -16.333 -16.667 -27 -18s-20.5 0.5 -29.5 5.5s-15.333 12.333 -19 22
s-1.83398 20.167 5.49902 31.5c66 103.333 136.5 202 211.5 296l232.5 278c-28 34 -57.667 66.667 -89 98l-94 93l-93.5 93c-31 31.333 -60.167 64.666 -87.5 99.999c-8 10 -11 20.667 -9 32s6.66699 20.666 14 27.999s16 11.333 26 12s19 -4 27 -14
c26.667 -34.667 55.167 -67.834 85.5 -99.501l92 -93.5l92.5 -92c30.667 -30.667 60.334 -62.667 89.001 -96l161.5 182.5z" />
    <glyph glyph-name="afii10088" unicode="&#x446;" horiz-adv-x="2844" 
d="M2054 313c13.333 0 23.334 -4.50879 30.001 -13.5088s10 -18.667 10 -29s-3.33301 -19.666 -10 -27.999s-16.667 -12.5 -30 -12.5c-74.667 0.666992 -149.167 0.333984 -223.5 -0.999023s-147.833 -6.5 -220.5 -15.5s-144.334 -22.833 -215.001 -41.5s-140 -45 -208 -79
c-4.66699 -5.33301 -10.334 -9.16602 -17.001 -11.499s-13.334 -3.16602 -20.001 -2.49902c-7.33301 -0.666992 -14.166 0.666016 -20.499 3.99902s-11.5 7.83301 -15.5 13.5s-6.83301 11.834 -8.5 18.501s-1.5 13 0.5 19c-15.333 52.667 -29.333 105.834 -42 159.501
l-37 161l-36 161c-12 53.667 -25 107.167 -39 160.5c-3.33301 12.667 -1.83301 23.334 4.5 32.001s14.5 14.334 24.5 17.001s20.167 1.83398 30.5 -2.49902s17.166 -12.833 20.499 -25.5c13.333 -51.333 25.833 -102.666 37.5 -153.999l35 -154l35.5 -154.5
c12 -51.667 25 -102.834 39 -153.501c76 34.667 152.833 61.167 230.5 79.5s156.834 31.5 237.501 39.5c-16 54.667 -30.667 109.667 -44 165l-39 166l-37.5 166c-12.333 55.333 -25.833 110.333 -40.5 165c-3.33301 12.667 -1.83301 23.5 4.5 32.5s14.5 14.833 24.5 17.5
s20.167 1.83398 30.5 -2.49902s17.166 -12.833 20.499 -25.5c14.667 -55.333 28.334 -110.833 41.001 -166.5l37.5 -167.5l38.5 -167.5c13.333 -55.667 28.333 -111.167 45 -166.5c1.33301 -4 2 -7 2 -9c54 3.33301 107.833 5.33301 161.5 6s107.834 0.666992 162.501 0z
" />
    <glyph glyph-name="afii10089" unicode="&#x447;" horiz-adv-x="2689" 
d="M1497 939c17.333 -65.333 33.3369 -130.832 48.0039 -196.499l44 -197l45.5 -197c15.667 -65.667 33.167 -130.834 52.5 -195.501c4 -13.333 2.66699 -24.333 -4 -33s-15 -14.334 -25 -17.001s-20 -2 -30 2s-17 12.333 -21 25c-26.667 89.333 -50 178.833 -70 268.5
l-60 270.5c-6.66699 -17.333 -15.167 -32.833 -25.5 -46.5s-23 -25.334 -38 -35.001s-32.667 -16.5 -53 -20.5s-43.833 -4.66699 -70.5 -2c-53.333 5.33301 -103 18.5 -149 39.5s-87.667 48 -125 81s-69.666 71.167 -96.999 114.5s-49.333 90 -66 140
c-4 12.667 -2.83301 23.334 3.5 32.001s14.5 14.334 24.5 17.001s20.167 2 30.5 -2s17.5 -12.333 21.5 -25c11.333 -34.667 26.666 -68.834 45.999 -102.501s42 -64.5 68 -92.5s55.167 -52 87.5 -72s67.5 -33.333 105.5 -40c33.333 -6 60.833 -7.16699 82.5 -3.5
s39.167 11.167 52.5 22.5s23.166 25.666 29.499 42.999s10.666 36.5 12.999 57.5s3.16602 43.333 2.49902 67s-1 47.167 -1 70.5c-1.33301 2.66699 -2 4.33398 -2 5.00098c-3.33301 12.667 -1.83301 23.5 4.5 32.5s14.5 14.833 24.5 17.5s20.167 1.83398 30.5 -2.49902
s17.166 -12.833 20.499 -25.5z" />
    <glyph glyph-name="afii10090" unicode="&#x448;" horiz-adv-x="3999" 
d="M1107 135c-15.333 52.667 -29.3389 105.666 -42.0059 158.999l-37 160l-36.5 160.5c-12.333 53.667 -25.5 107.167 -39.5 160.5c-3.33301 12.667 -1.66602 23.334 5.00098 32.001s15 14.334 25 17.001s20 2 30 -2s16.667 -12.333 20 -25
c13.333 -51.333 25.833 -102.666 37.5 -153.999l35 -154l35.5 -154c12 -51.333 25 -102.333 39 -153c60.667 28 122.334 50.5 185.001 67.5s126 30.167 190 39.5s128.5 15.666 193.5 18.999s130.167 5.33301 195.5 6c-15.333 53.333 -29.5 107 -42.5 161l-37.5 162
l-36.5 162c-12.333 54 -25.833 108 -40.5 162c-3.33301 12.667 -1.66602 23.5 5.00098 32.5s15 14.833 25 17.5s20 1.83398 30 -2.49902s16.667 -12.833 20 -25.5c14.667 -55.333 28.334 -110.833 41.001 -166.5l37.5 -167l38.5 -167
c13.333 -55.667 28.333 -110.834 45 -165.501v-3h196h688c-16 53.333 -30.5 107 -43.5 161l-37.5 162l-36.5 162c-12.333 54 -25.5 108 -39.5 162c-3.33301 12.667 -1.83301 23.5 4.5 32.5s14.5 14.833 24.5 17.5s20.167 1.83398 30.5 -2.49902s17.166 -12.833 20.5 -25.5
c14.667 -55.333 28.334 -110.833 41 -166.5l37.5 -167l38.5 -167c13.333 -55.667 28.333 -110.834 45 -165.501c2.66699 -10 1.66699 -19.667 -3 -29c4.66699 -12 3.83398 -24.5 -2.49902 -37.5s-17.833 -19.5 -34.5 -19.5h-687c-92 0 -184.333 0.666992 -277 2
s-184.667 -1.16699 -276 -7.5s-181.5 -19.333 -270.5 -39s-175.833 -50.5 -260.5 -92.5c-4.66699 -4.66699 -10.167 -8.33398 -16.5 -11.001s-12.833 -3.66699 -19.5 -3c-7.33301 -0.666992 -14.166 0.666016 -20.499 3.99902s-11.5 7.83301 -15.5 13.5
s-6.66699 11.834 -8 18.501s-1 13 1 19z" />
    <glyph glyph-name="afii10091" unicode="&#x449;" horiz-adv-x="3749" 
d="M2958 313c13.333 0 23.3301 -4.33398 29.9971 -13.001s10 -18 10 -28s-3.33301 -19.333 -10 -28s-16.667 -13 -30 -13h-688c-92 0 -184.333 0.666992 -277 2s-184.667 -1.33398 -276 -8.00098s-181.5 -19.667 -270.5 -39s-175.833 -50 -260.5 -92
c-9.33301 -10.667 -21.666 -15.334 -36.999 -14.001c-7.33301 -0.666992 -14 0.666016 -20 3.99902s-11 7.83301 -15 13.5s-6.83301 11.834 -8.5 18.501s-1.5 13 0.5 19c-15.333 52.667 -29.333 105.667 -42 159l-37 160l-36 160.5c-12 53.667 -25 107.167 -39 160.5
c-3.33301 12.667 -1.83301 23.5 4.5 32.5s14.5 14.833 24.5 17.5s20 1.83398 30 -2.49902s16.667 -12.833 20 -25.5c14 -51.333 26.833 -102.666 38.5 -153.999l34.5 -154l35.5 -154c12.333 -51.333 25.5 -102.333 39.5 -153c88 40 177.5 69.333 268.5 88
s183.833 31 278.5 37c-16 54 -30.5 108.333 -43.5 163l-38 164l-37 164c-12.333 54.667 -25.833 109 -40.5 163c-3.33301 12.667 -1.66602 23.5 5.00098 32.5s15 14.833 25 17.5s20 1.83398 30 -2.49902s16.667 -12.833 20 -25.5
c14.667 -55.333 28.334 -110.833 41.001 -166.5l37.5 -167l38.5 -167c13.333 -55.667 28.333 -110.834 45 -165.501c0.666992 -1.33301 1 -3.33301 1 -6c68.667 2.66699 137.5 3.66699 206.5 3s138.167 -1 207.5 -1h148c-16 53.333 -30.5 107 -43.5 161l-37.5 162.5
l-36.5 162.5c-12.333 54 -25.5 108 -39.5 162c-3.33301 12.667 -1.83301 23.5 4.5 32.5s14.5 14.833 24.5 17.5s20.167 1.83398 30.5 -2.49902s17.166 -12.833 20.5 -25.5c14.667 -55.333 28.334 -110.833 41 -166.5l37.5 -167l38.5 -167
c13.333 -55.667 28.333 -110.834 45 -165.501c0 -1.33301 0.333008 -2.66602 1 -3.99902h500v0z" />
    <glyph glyph-name="afii10092" unicode="&#x44a;" horiz-adv-x="2729" 
d="M1190 628l-23.998 105.5c-8 35 -16.667 70.167 -26 105.5h-450c-13.333 0 -23.333 4.33301 -30 13s-10 18.167 -10 28.5s3.33301 19.833 10 28.5s16.667 13 30 13h482c9.33301 0 17.666 -2.83301 24.999 -8.5s12.333 -13.167 15 -22.5c12 -46 23.333 -91.667 34 -137
l32 -137c43.333 -6 86.333 -12.667 129 -20s85.334 -16.666 128.001 -27.999c22 -5.33301 48 -12 78 -20s59.5 -18.5 88.5 -31.5s54.833 -28.667 77.5 -47s37.667 -40.833 45 -67.5c9.33301 -34.667 5.5 -64.334 -11.5 -89.001s-41.833 -45.5 -74.5 -62.5
s-70.5 -30.667 -113.5 -41s-85.833 -18.333 -128.5 -24s-82.334 -9.66699 -119.001 -12s-65.334 -3.5 -86.001 -3.5c-12.667 0 -22.334 3.66699 -29.001 11s-10.334 15.666 -11.001 24.999s1.33301 18.5 6 27.5s12.334 14.833 23.001 17.5
c-13.333 48 -25.666 96.167 -36.999 144.5l-34 146.5l-35.5 4l-34.5 4c-13.333 1.33301 -23.333 6.66602 -30 15.999s-10 19.333 -10 30s3.33301 19.834 10 27.501s16.667 10.834 30 9.50098zM1690 427c-60 31.333 -123.502 54.501 -190.502 69.501
s-134.833 26.833 -203.5 35.5l32.5 -137c11 -45.333 23.167 -91 36.5 -137c62 4.66699 124.333 14.334 187 29.001c10.667 2 24.834 5.16699 42.501 9.5s35.667 9.66602 54 15.999s35.333 13.5 51 21.5s26.834 16.667 33.501 26s7.16699 19.666 1.5 30.999
s-20.5 23.333 -44.5 36z" />
    <glyph glyph-name="afii10093" unicode="&#x44b;" horiz-adv-x="3533" 
d="M2368 891c14.667 -55.333 28.334 -110.999 41 -166.999l37.5 -168l38.5 -167.5c13.333 -55.667 28.333 -110.834 45 -165.501c4 -12.667 2.83301 -23.334 -3.5 -32.001s-14.5 -14.334 -24.5 -17.001s-20.167 -2 -30.5 2s-17.5 12.333 -21.5 25
c-16.667 54.667 -31.667 109.834 -45 165.501l-38.5 167.5l-37.5 168c-12.667 56 -26.334 111.667 -41 167c-3.33301 12.667 -1.83301 23.5 4.5 32.5s14.5 14.833 24.5 17.5s20.167 1.83398 30.5 -2.49902s17.166 -12.833 20.5 -25.5zM1336 570.001l78.5029 -20.999
c30.333 -8 59.833 -18.333 88.5 -31s54.334 -28.334 77.001 -47.001s37.667 -41.334 45 -68.001c9.33301 -34 5.5 -63.5 -11.5 -88.5s-41.833 -46 -74.5 -63s-70.5 -30.667 -113.5 -41s-85.833 -18.333 -128.5 -24s-82.334 -9.5 -119.001 -11.5s-65.334 -3.33301 -86.001 -4
c-12 0 -21.333 3.66699 -28 11s-10.5 15.666 -11.5 24.999s1 18.5 6 27.5s12.833 15.167 23.5 18.5c-13.333 48 -25.833 96.167 -37.5 144.5s-22.834 96.833 -33.501 145.5l-35.5 4l-34.5 4c-13.333 1.33301 -23.333 6.66602 -30 15.999s-10 19.333 -10 30
s3.33301 19.834 10 27.501s16.667 10.834 30 9.50098l51 -6l-28 121.5c-9.33301 40.333 -19.333 80.5 -30 120.5c-3.33301 12.667 -1.83301 23.334 4.5 32.001s14.5 14.334 24.5 17.001s20.167 2 30.5 -2s17.166 -12.333 20.499 -25c12 -46 23.333 -91.833 34 -137.5
l31 -137.5c44 -5.33301 87.333 -11.833 130 -19.5s85 -16.834 127 -27.501zM1354 287.002c10.667 2 24.8311 5.33301 42.498 10s35.667 10 54 16s35.333 13 51 21s26.834 16.833 33.501 26.5s7.16699 20 1.5 31s-20.5 22.833 -44.5 35.5c-60 31.333 -123.5 54.5 -190.5 69.5
s-134.833 27.167 -203.5 36.5l32 -137.5c10.667 -45.667 22.667 -91.5 36 -137.5c62.667 6 125.334 15.667 188.001 29z" />
    <glyph glyph-name="afii10094" unicode="&#x44c;" horiz-adv-x="2530" 
d="M1336 570l78.5029 -20.999c30.333 -8 59.833 -18.333 88.5 -31s54.334 -28.334 77.001 -47.001s37.667 -41.334 45 -68.001c9.33301 -34 5.5 -63.5 -11.5 -88.5s-41.833 -46 -74.5 -63s-70.5 -30.667 -113.5 -41s-85.833 -18.333 -128.5 -24s-82.334 -9.5 -119.001 -11.5
s-65.334 -3.33301 -86.001 -4c-12 0 -21.333 3.66699 -28 11s-10.5 15.666 -11.5 24.999s1 18.5 6 27.5s12.833 15.167 23.5 18.5c-13.333 48 -25.833 96.167 -37.5 144.5s-22.834 96.833 -33.501 145.5l-35.5 4l-34.5 4c-13.333 1.33301 -23.333 6.66602 -30 15.999
s-10 19.333 -10 30s3.33301 19.834 10 27.501s16.667 10.834 30 9.50098l51 -6l-28 121.5c-9.33301 40.333 -19.333 80.5 -30 120.5c-3.33301 12.667 -1.83301 23.334 4.5 32.001s14.5 14.334 24.5 17.001s20.167 2 30.5 -2s17.166 -12.333 20.499 -25
c12 -46 23.333 -91.833 34 -137.5l31 -137.5c44 -5.33301 87.333 -11.833 130 -19.5s85 -16.834 127 -27.501zM1354 287.001l42.498 10.5c17.667 4.33301 35.667 9.66602 54 15.999s35.333 13.333 51 21s26.834 16.334 33.501 26.001s7.16699 20 1.5 31
s-20.5 22.833 -44.5 35.5c-60 31.333 -123.5 54.5 -190.5 69.5s-134.833 27.167 -203.5 36.5l32 -137.5c10.667 -45.667 22.667 -91.5 36 -137.5c62.667 6 125.334 15.667 188.001 29z" />
    <glyph glyph-name="afii10095" unicode="&#x44d;" horiz-adv-x="3155" 
d="M1727 996l97.0078 -38.9961c36 -14.667 72.667 -31.334 110 -50.001s73.833 -39.334 109.5 -62.001s68.167 -47.334 97.5 -74.001s53.833 -55.5 73.5 -86.5s32.167 -64.167 37.5 -99.5c4.66699 -32.667 1.66699 -63.167 -9 -91.5s-26.334 -55 -47.001 -80
s-45 -48.167 -73 -69.5s-57 -40.666 -87 -57.999s-59.667 -32.833 -89 -46.5l-79 -35.5c-106 -44.667 -214 -82.834 -324 -114.501s-221 -60.5 -333 -86.5c-12.667 -3.33301 -23.334 -1.5 -32.001 5.5s-14.334 15.333 -17.001 25s-2 19.334 2 29.001s12.333 16.167 25 19.5
c83.333 19.333 165.5 39.833 246.5 61.5s161.5 46.5 241.5 74.5l65.5 23c28.333 10 59.333 21.833 93 35.5s68.5 29.167 104.5 46.5s69.667 36.166 101 56.499s58.5 42 81.5 65s38.833 47.167 47.5 72.5h-806c-13.333 0 -23.333 4.33301 -30 13s-10 18 -10 28
s3.33301 19.333 10 28s16.667 13 30 13h802c-10.667 26 -26.167 49.833 -46.5 71.5s-42.833 41.834 -67.5 60.501s-50.167 35.667 -76.5 51l-73.5 43c-50 28 -100.833 52.667 -152.5 74s-104.834 39.666 -159.501 54.999c-52 14 -104.667 25.667 -158 35
s-106.833 15.5 -160.5 18.5s-107.334 2 -161.001 -3s-106.834 -14.833 -159.501 -29.5c-12.667 -3.33301 -23.334 -1.83301 -32.001 4.5s-14.334 14.5 -17.001 24.5s-2 20.167 2 30.5s12.333 17.166 25 20.499c64.667 18 131 29.333 199 34s136 4 204 -2
s135.333 -16.833 202 -32.5s131 -35.167 193 -58.5z" />
    <glyph glyph-name="afii10096" unicode="&#x44e;" horiz-adv-x="3185" 
d="M2284 559c0.666992 -2.66699 1 -6.66504 1 -11.998c0 -6 -0.333008 -10.333 -1 -13c-3.33301 -35.333 -12.666 -69.666 -28 -102.999c-15.333 -33.333 -35.333 -62.833 -60 -88.5s-53.5 -45.667 -86.5 -60s-68.833 -20.5 -107.5 -18.5
c-30 1.33301 -59.667 7.16602 -89 17.499s-56.166 24.166 -80.499 41.499s-45.666 37.833 -63.999 61.5s-31.833 50.167 -40.5 79.5h-587c12 -53.333 24.5 -106.166 37.5 -158.499s27.167 -104.833 42.5 -157.5c4 -12.667 2.83301 -23.334 -3.5 -32.001
s-14.5 -14.334 -24.5 -17.001s-20.167 -2 -30.5 2s-17.5 12.333 -21.5 25c-16.667 56.667 -31.834 113 -45.501 169l-39.5 169h-31c-13.333 0 -23.5 4.33301 -30.5 13s-10.5 18.167 -10.5 28.5s3.5 19.833 10.5 28.5s17.167 13 30.5 13h12l-40.5 183.5
c-13.667 61 -28.5 121.833 -44.5 182.5c-3.33301 12.667 -1.83301 23.5 4.5 32.5s14.5 14.833 24.5 17.5s20.167 1.83398 30.5 -2.49902s17.166 -12.833 20.499 -25.5c17.333 -64.667 33 -129.334 47 -194.001l43 -194h596c2 36.667 10.333 72.5 25 107.5
s34.5 65.833 59.5 92.5s54.5 47.667 88.5 63s71 22 111 20c38.667 -2 74.5 -10 107.5 -24s61.833 -32.833 86.5 -56.5s44.667 -51.667 60 -84s24.666 -67.833 28 -106.5zM1801 547.002c2 -43.333 13.1631 -79.332 33.4961 -107.999s44.833 -50.167 73.5 -64.5
s59.834 -21.5 93.501 -21.5s64.834 7.33301 93.501 22s53 36.167 73 64.5s31.333 64.166 34 107.499c-2 32 -9.33301 60.167 -22 84.5s-28.834 44.5 -48.5 60.5c-19.667 16 -41.667 28 -66 36s-49.166 12 -74.499 12s-49.666 -4 -72.999 -12s-44 -20 -62 -36
s-32.167 -36.167 -42.5 -60.5s-14.5 -52.5 -12.5 -84.5z" />
    <glyph glyph-name="afii10097" unicode="&#x44f;" horiz-adv-x="2864" 
d="M1620 1055c0.666992 -1.33301 2.66309 -9.49902 5.99609 -24.499l13 -56l18 -75l19.5 -81.5l18 -76l13.5 -58c3.33301 -0.666992 7 -1 11 -1h11c13.333 0 23.333 -4.5 30 -13.5s10 -18.667 10 -29s-3.33301 -19.666 -10 -27.999s-16.667 -12.5 -30 -12.5h-3l62 -271.5
c21.333 -89.667 45.333 -179.167 72 -268.5c4 -13.333 2.83301 -24.333 -3.5 -33s-14.5 -14.334 -24.5 -17.001s-20.167 -2 -30.5 2s-17.5 12.667 -21.5 26c-25.333 87.333 -48.666 174.833 -69.999 262.5s-41.666 176.167 -60.999 265.5
c-66 -46 -133.667 -89.5 -203 -130.5l-210 -119.5l-213 -114.5l-212 -115.5c-11.333 -6.66699 -22.166 -7.83398 -32.499 -3.50098s-18 11 -23 20s-6.83301 18.833 -5.5 29.5s7.66602 19.334 18.999 26.001l202 110l203.5 108.5l200.5 112.5
c66 38.667 130.667 79.667 194 123c-31.333 4 -63.666 8.83301 -96.999 14.5s-65.666 13 -96.999 22s-60.333 19.5 -87 31.5s-48.5 25.833 -65.5 41.5s-28 33.5 -33 53.5s-1.5 42.333 10.5 67c12.667 26 31.334 48.167 56.001 66.5s51.667 33.666 81 45.999
s59.333 22.333 90 30l85 20.5c5.33301 1.33301 10.666 2.33301 15.999 3s10.666 1.66699 15.999 3c-1.33301 3.33301 -2.16602 6.83301 -2.49902 10.5s-1.16602 7.16699 -2.49902 10.5c-3.33301 12.667 -1.83301 23.5 4.5 32.5s14.5 14.833 24.5 17.5s20.167 2 30.5 -2
s17.166 -12.333 20.499 -25zM1622 691.001l-28.499 124.501l-30.5 124.5c-46 -9.33301 -90.5 -21.333 -133.5 -36s-81.833 -34.334 -116.5 -59.001c-18.667 -13.333 -28.5 -25.833 -29.5 -37.5s3.66699 -22.167 14 -31.5s24.666 -17.666 42.999 -24.999
s37.333 -13.833 57 -19.5s38.5 -10.334 56.5 -14.001s31.667 -6.16699 41 -7.5l63.5 -10c21 -3.33301 42.167 -6.33301 63.5 -9z" />
    <glyph glyph-name="afii10071" unicode="&#x451;" horiz-adv-x="2781" 
d="M1819 352c11.333 6.66699 22.1689 8 32.502 4s18 -10.5 23 -19.5s6.83301 -18.833 5.5 -29.5s-7.66602 -19.334 -18.999 -26.001c-44 -25.333 -86.667 -45.833 -128 -61.5s-83 -28.334 -125 -38.001s-85.167 -17 -129.5 -22s-91.5 -8.83301 -141.5 -11.5l-101.5 -6
c-35 -2 -69.333 -1 -103 3s-65.667 12.167 -96 24.5s-57.5 32.166 -81.5 59.499c-19.333 22 -33.333 45.833 -42 71.5s-13 52.334 -13 80.001s3.83301 56 11.5 85s18.167 57.833 31.5 86.5c-12.667 0.666992 -22 5.5 -28 14.5s-8.83301 18.5 -8.5 28.5
s3.66602 19 9.99902 27s16.166 12 29.499 12h21c6.66699 0 13.667 -0.333008 21 -1c20 30.667 42 60.334 66 89.001s48.667 54.667 74 78s50.666 44 75.999 62s49.333 32 72 42c32.667 14 67.334 25 104.001 33s73.834 12 111.501 12s74.667 -4.33301 111 -13
s70.166 -22.334 101.499 -41.001c22.667 -13.333 37.667 -31 45 -53s9.33301 -44.667 6 -68s-11 -46.166 -23 -68.499s-26 -40.5 -42 -54.5c-42.667 -38 -90.167 -65.5 -142.5 -82.5s-106.833 -27.5 -163.5 -31.5s-114.334 -4 -173.001 0s-115.667 7.66699 -171 11
l-3.5 -8.5c-1 -2.33301 -2.16699 -4.83301 -3.5 -7.5c-15.333 -34 -26 -68.667 -32 -104s-5 -67.666 3 -96.999s24.333 -53.5 49 -72.5s60.667 -29.167 108 -30.5c58 -2 115.333 -2 172 0s112.334 7.33301 167.001 16s108.667 21.5 162 38.5s105.666 40.167 156.999 69.5z
M1253 793c-30.667 -24 -59.999 -49.5 -87.999 -76.5s-53.667 -56.5 -77 -88.5c62.667 -4.66699 124.834 -8 186.501 -10s122.834 3.33301 183.501 16c24.667 5.33301 49.5 11.5 74.5 18.5s47.833 17.833 68.5 32.5c14 10 26.167 23.333 36.5 40s16.666 33.334 18.999 50.001
s-0.833984 32 -9.50098 46s-25.334 23.667 -50.001 29c-30 6 -60 10 -90 12s-59.5 1.16699 -88.5 -2.5s-57.5 -10.834 -85.5 -21.501s-54.667 -25.667 -80 -45zM1215 1310c0 38 0.167969 75.5 0.500977 112.5s-1.16699 74.167 -4.5 111.5
c-1.33301 13.333 2.16699 23.333 10.5 30s17.666 10 27.999 10s20 -3.33301 29 -10s14.167 -16.667 15.5 -30c3.33301 -37.333 4.83301 -74.5 4.5 -111.5s-0.5 -74.5 -0.5 -112.5c0 -13.333 -4.33301 -23.5 -13 -30.5s-18.167 -10.5 -28.5 -10.5s-19.833 3.5 -28.5 10.5
s-13 17.167 -13 30.5zM1643 1337c0 38 0.166992 75.5 0.5 112.5s-1.16699 74.5 -4.5 112.5c-1.33301 13.333 2.16699 23.333 10.5 30s17.666 10 27.999 10s20 -3.33301 29 -10s14.167 -16.667 15.5 -30c3.33301 -38 4.83301 -75.5 4.5 -112.5s-0.5 -74.5 -0.5 -112.5
c0 -13.333 -4.5 -23.333 -13.5 -30s-18.667 -10 -29 -10s-19.666 3.33301 -27.999 10s-12.5 16.667 -12.5 30z" />
    <glyph glyph-name="endash" unicode="&#x2013;" horiz-adv-x="2792" 
d="M941 494c-13.333 0.666992 -23.333 5.66797 -30 15.001s-10 19.166 -10 29.499s3.33301 19.5 10 27.5s16.667 11.667 30 11c76 -6 152 -8 228 -6s151.833 5.33301 227.5 10l227.5 14.5c76 5 152 8.16699 228 9.5c13.333 0 23.333 -4.33301 30 -13s10 -18.167 10 -28.5
s-3.33301 -19.833 -10 -28.5s-16.667 -13 -30 -13c-76 -0.666992 -152 -3.66699 -228 -9s-151.833 -10.333 -227.5 -15s-151.5 -8 -227.5 -10s-152 0 -228 6z" />
    <glyph glyph-name="emdash" unicode="&#x2014;" horiz-adv-x="3358" 
d="M2417 595c13.333 0 23.333 -4.33398 30 -13.001s10 -18.167 10 -28.5s-3.33301 -19.833 -10 -28.5s-16.667 -13 -30 -13c-247.333 0 -493.5 -0.666992 -738.5 -2s-491.167 -5.33301 -738.5 -12c-13.333 -0.666992 -23.333 3.16602 -30 11.499s-10 17.833 -10 28.5
s3.33301 20.334 10 29.001s16.667 13.334 30 14.001c247.333 6.66699 493.5 10.667 738.5 12s491.167 2 738.5 2z" />
    <glyph glyph-name="quoteleft" unicode="&#x2018;" horiz-adv-x="553" 
d="M441 1311c-46.667 -47.333 -91.335 -96.002 -134.002 -146.002s-88 -98 -136 -144c-9.33301 -9.33301 -19.5 -13.166 -30.5 -11.499s-20.167 6.16699 -27.5 13.5s-11.666 16.333 -12.999 27s3 20.667 13 30c48 46 93.167 94 135.5 144s86.833 98.667 133.5 146
c9.33301 9.33301 19.333 13.333 30 12s19.667 -5.66602 27 -12.999s11.833 -16.5 13.5 -27.5s-2.16602 -21.167 -11.499 -30.5z" />
    <glyph glyph-name="quoteright" unicode="&#x2019;" horiz-adv-x="553" 
d="M441 1311c-46.667 -47.333 -91.335 -96.002 -134.002 -146.002s-88 -98 -136 -144c-9.33301 -9.33301 -19.5 -13.166 -30.5 -11.499s-20.167 6.16699 -27.5 13.5s-11.666 16.333 -12.999 27s3 20.667 13 30c48 46 93.167 94 135.5 144s86.833 98.667 133.5 146
c9.33301 9.33301 19.333 13.333 30 12s19.667 -5.66602 27 -12.999s11.833 -16.5 13.5 -27.5s-2.16602 -21.167 -11.499 -30.5z" />
    <glyph glyph-name="quotesinglbase" unicode="&#x201a;" horiz-adv-x="616" 
d="M106 -334c44 78.667 93.835 152.167 149.502 220.5s118.167 131.166 187.5 188.499c10 8 20.667 11.167 32 9.5s20.666 -6.16699 27.999 -13.5s11.5 -16.166 12.5 -26.499s-3.5 -19.833 -13.5 -28.5c-67.333 -54.667 -127.833 -114.667 -181.5 -180
s-101.5 -136 -143.5 -212c-6.66699 -12 -15.334 -18.667 -26.001 -20s-20.334 0.666992 -29.001 6s-15.167 13 -19.5 23s-3.16602 21 3.50098 33z" />
    <glyph glyph-name="quotedblleft" unicode="&#x201c;" 
d="M441 1311c-46.667 -47.333 -91.335 -96.002 -134.002 -146.002s-88 -98 -136 -144c-9.33301 -9.33301 -19.5 -13.166 -30.5 -11.499s-20.167 6.16699 -27.5 13.5s-11.666 16.333 -12.999 27s3 20.667 13 30c48 46 93.167 94 135.5 144s86.833 98.667 133.5 146
c9.33301 9.33301 19.333 13.333 30 12s19.667 -5.66602 27 -12.999s11.833 -16.5 13.5 -27.5s-2.16602 -21.167 -11.499 -30.5zM475.999 1021c-9.33301 -9.33301 -19.499 -13.168 -30.499 -11.501s-20.167 6.16699 -27.5 13.5s-11.666 16.333 -12.999 27s3 20.667 13 30
c48 46 93.167 94 135.5 144s86.833 98.667 133.5 146c9.33301 9.33301 19.5 13.333 30.5 12s20.167 -5.66602 27.5 -12.999s11.666 -16.5 12.999 -27.5s-2.66699 -21.167 -12 -30.5c-46.667 -47.333 -91.334 -96 -134.001 -146s-88 -98 -136 -144z" />
    <glyph glyph-name="quotedblright" unicode="&#x201d;" 
d="M441 1311c-46.667 -47.333 -91.335 -96.002 -134.002 -146.002s-88 -98 -136 -144c-9.33301 -9.33301 -19.5 -13.166 -30.5 -11.499s-20.167 6.16699 -27.5 13.5s-11.666 16.333 -12.999 27s3 20.667 13 30c48 46 93.167 94 135.5 144s86.833 98.667 133.5 146
c9.33301 9.33301 19.333 13.333 30 12s19.667 -5.66602 27 -12.999s11.833 -16.5 13.5 -27.5s-2.16602 -21.167 -11.499 -30.5zM475.999 1021c-9.33301 -9.33301 -19.499 -13.168 -30.499 -11.501s-20.167 6.16699 -27.5 13.5s-11.666 16.333 -12.999 27s3 20.667 13 30
c48 46 93.167 94 135.5 144s86.833 98.667 133.5 146c9.33301 9.33301 19.5 13.333 30.5 12s20.167 -5.66602 27.5 -12.999s11.666 -16.5 12.999 -27.5s-2.66699 -21.167 -12 -30.5c-46.667 -47.333 -91.334 -96 -134.001 -146s-88 -98 -136 -144z" />
    <glyph glyph-name="quotedblbase" unicode="&#x201e;" 
d="M441 12c-46.667 -47.333 -91.335 -96 -134.002 -146s-88 -98 -136 -144c-9.33301 -9.33301 -19.5 -13.166 -30.5 -11.499s-20.167 6.16699 -27.5 13.5s-11.666 16.166 -12.999 26.499s3 20.166 13 29.499c48 46 93.167 94 135.5 144s86.833 98.667 133.5 146
c9.33301 10 19.333 14.333 30 13s19.667 -5.66602 27 -12.999s11.833 -16.5 13.5 -27.5s-2.16602 -21.167 -11.499 -30.5zM475.999 -278c-9.33301 -9.33301 -19.499 -13.166 -30.499 -11.499s-20.167 6.16699 -27.5 13.5s-11.666 16.166 -12.999 26.499s3 20.166 13 29.499
c48 46 93.167 94 135.5 144s86.833 98.667 133.5 146c9.33301 10 19.5 14.333 30.5 13s20.167 -5.66602 27.5 -12.999s11.666 -16.5 12.999 -27.5s-2.66699 -21.167 -12 -30.5c-46.667 -47.333 -91.334 -96 -134.001 -146s-88 -98 -136 -144z" />
    <glyph glyph-name="bullet" unicode="&#x2022;" horiz-adv-x="2204" 
d="M901 546c-2.66699 43.333 5.33203 79.333 23.999 108s42.5 50.167 71.5 64.5s60.833 21.5 95.5 21.5s67.334 -7.16699 98.001 -21.5s56.667 -35.833 78 -64.5s33.333 -64.667 36 -108c-2.66699 -43.333 -14 -79.333 -34 -108s-44.5 -50.167 -73.5 -64.5
s-60.333 -21.5 -94 -21.5s-65 7.16699 -94 21.5s-53.667 35.833 -74 64.5s-31.5 64.667 -33.5 108z" />
    <glyph glyph-name="ellipsis" unicode="&#x2026;" horiz-adv-x="695" 
d="M51 83c13.333 0 23.333 -4.33301 30 -13s10 -18.167 10 -28.5s-3.33301 -19.833 -10 -28.5s-16.667 -13 -30 -13s-23.5 4.33301 -30.5 13s-10.5 18.167 -10.5 28.5s3.5 19.833 10.5 28.5s17.167 13 30.5 13zM348 83c13.333 0 23.333 -4.33301 30 -13s10 -18.167 10 -28.5
s-3.33301 -19.833 -10 -28.5s-16.667 -13 -30 -13s-23.5 4.33301 -30.5 13s-10.5 18.167 -10.5 28.5s3.5 19.833 10.5 28.5s17.167 13 30.5 13zM645 83c13.333 0 23.333 -4.33301 30 -13s10 -18.167 10 -28.5s-3.33301 -19.833 -10 -28.5s-16.667 -13 -30 -13
s-23.5 4.33301 -30.5 13s-10.5 18.167 -10.5 28.5s3.5 19.833 10.5 28.5s17.167 13 30.5 13z" />
    <glyph glyph-name="fraction" unicode="&#x2044;" horiz-adv-x="2381" 
d="M978 78c-7.33301 -11.333 -16.334 -17.667 -27.001 -19s-20.5 0.666992 -29.5 6s-15.5 13 -19.5 23s-2.33301 20.667 5 32c44.667 72.667 87.667 146.334 129 221.001l122 224.5l120 225.5c40 75.333 81.667 149.666 125 222.999
c6.66699 11.333 15.334 17.666 26.001 18.999s20.5 -0.5 29.5 -5.5s15.5 -12.667 19.5 -23s2.66699 -21.166 -4 -32.499l-125 -223.5l-120 -225.5l-122 -225c-41.333 -74.667 -84.333 -148 -129 -220z" />
    <glyph glyph-name="2116" unicode="&#x2116;" horiz-adv-x="3293" 
d="M2552 1335c13.333 0 23.3281 -4.33691 29.9951 -13.0039s10 -18.167 10 -28.5s-3.33301 -19.833 -10 -28.5s-16.667 -13 -30 -13h-468c-28 -106 -53.667 -212.5 -77 -319.5l-69.5 -321.5c-23 -107.333 -47.167 -214.5 -72.5 -321.5s-53.666 -213.167 -84.999 -318.5
c-3.33301 -10.667 -8.66602 -18.334 -15.999 -23.001s-15.166 -6.83398 -23.499 -6.50098s-16.166 3 -23.499 8s-13 12.167 -17 21.5l-174.5 438l-174.5 438l-65 -266l-63 -266l-66.5 -265.5c-23 -88.333 -47.5 -176.166 -73.5 -263.499c-4 -12.667 -11.167 -21 -21.5 -25
s-20.5 -4.66699 -30.5 -2s-18.167 8.33398 -24.5 17.001s-7.5 19.334 -3.5 32.001c29.333 97.333 56.5 195.333 81.5 294l73 296l71 296.5c23.667 99 48.5 197.5 74.5 295.5c2.66699 10.667 7.83398 18.334 15.501 23.001s15.667 6.83398 24 6.50098
s16.333 -3.16602 24 -8.49902s13.167 -12.333 16.5 -21l175.5 -440l175.5 -440c26.667 98.667 51.334 197.834 74.001 297.501l66 299.5l65.5 299.5c22.333 99.667 46.5 199.167 72.5 298.5c2.66699 9.33301 7.66699 16.666 15 21.999s15.666 8 24.999 8h500v0z" />
    <glyph glyph-name="radical" unicode="&#x221a;" horiz-adv-x="1905" 
d="M1715 1462c13.333 0 23.3311 -4.32715 29.998 -12.9941s10 -18.167 10 -28.5s-3.33301 -19.833 -10 -28.5s-16.667 -13 -30 -13h-468c-37.333 -142 -71.5 -285 -102.5 -429l-92.5 -432l-96 -431.5c-33.333 -143.667 -71 -285.834 -113 -426.501
c-3.33301 -10.667 -8.66602 -18.334 -15.999 -23.001s-15.166 -6.83398 -23.499 -6.50098s-16.333 3 -24 8s-13.167 12.167 -16.5 21.5l-192.5 483l-192.5 483h-88c-13.333 0 -23.333 4.33301 -30 13s-10 18.167 -10 28.5s3.33301 19.833 10 28.5s16.667 13 30 13h116
c10 0 18.333 -2.83301 25 -8.5s11.667 -12.834 15 -21.501l175 -440.5l175 -440.5c38 134.667 72.167 270.167 102.5 406.5l89 410l88.5 410c30 136.333 63 272.166 99 407.499c2 9.33301 6.83301 16.666 14.5 21.999s16.167 8 25.5 8h500v0z" />
    </font>
</defs>
</svg>
