<?xml version="1.0" standalone="no"?>
<!DOCTYPE svg PUBLIC "-//W3C//DTD SVG 1.1//EN" "http://www.w3.org/Graphics/SVG/1.1/DTD/svg11.dtd" >
<svg xmlns="http://www.w3.org/2000/svg" xmlns:xlink="http://www.w3.org/1999/xlink" version="1.1">
<metadata>
Created by FontForge 20170731 at Thu Aug  3 20:57:35 2017
 By Aleksey,,,
(c) 2016-2017 Stepan Lyaptsev, Alexandra Khlopok
</metadata>
<defs>
<font id="Alcotton" horiz-adv-x="858" >
  <font-face 
    font-family="Alcotton"
    font-weight="400"
    font-stretch="normal"
    units-per-em="2048"
    panose-1="1 0 0 0 0 0 0 0 0 0"
    ascent="1638"
    descent="-410"
    x-height="829"
    cap-height="968"
    bbox="10 -447.235 2998.45 1602.24"
    underline-thickness="175"
    underline-position="-533"
    unicode-range="U+0020-2265"
  />
<missing-glyph horiz-adv-x="2000" 
 />
    <glyph glyph-name=".notdef" horiz-adv-x="2000" 
 />
    <glyph glyph-name=".null" horiz-adv-x="0" 
 />
    <glyph glyph-name="nonmarkingreturn" horiz-adv-x="2000" 
 />
    <glyph glyph-name="space" unicode=" " horiz-adv-x="2000" 
 />
    <glyph glyph-name="exclam" unicode="!" horiz-adv-x="492" 
d="M182 1063q38 -144 70.5 -288t64.5 -290q4 -20 -6 -33t-25 -17.5t-30 2t-19 26.5q-32 146 -64.5 289.5t-70.5 288.5q-5 19 4.5 32.5t24.5 17.5t30.5 -2.5t20.5 -25.5zM351 -1q-20 0 -30.5 13t-10.5 29t10.5 29t30.5 13t30 -13t10 -29t-10 -29t-30 -13z" />
    <glyph glyph-name="quotedbl" unicode="&#x22;" 
d="M441 1311q-70 -71 -134 -146t-136 -144q-14 -14 -30.5 -11.5t-27.5 13.5t-13 27t13 30q72 69 135.5 144t133.5 146q14 14 30 12t27 -13t13.5 -27.5t-11.5 -30.5zM476 1021q-14 -14 -30.5 -11.5t-27.5 13.5t-13 27t13 30q72 69 135.5 144t133.5 146q14 14 30.5 12
t27.5 -13t13 -27.5t-12 -30.5q-70 -71 -134 -146t-136 -144z" />
    <glyph glyph-name="numbersign" unicode="#" horiz-adv-x="3040" 
d="M2100 811q20 1 30 -11.5t10 -28.5t-10 -29t-30 -14q-61 -2 -120 -8t-119 -15q-1 -71 -2 -141t-2 -142q29 2 57 2.5t57 -0.5q20 0 30 -13.5t10 -29t-10 -28t-30 -12.5q-29 1 -57.5 0.5t-56.5 -2.5q-1 -31 -1 -61v-61q0 -20 -13 -30t-28.5 -10t-28.5 10t-13 30v57.5t1 57.5
q-137 -16 -269.5 -53t-263.5 -85q-11 -99 -23 -196.5t-26 -196.5q-3 -20 -17 -26.5t-29 -2t-26 17.5t-8 33q13 85 23.5 169.5t20.5 169.5q-78 -30 -154.5 -61.5t-151.5 -61.5q-19 -8 -31.5 1t-16.5 24t2 31t24 24q83 33 167 67.5t171 67.5q8 81 15 161.5t15 162.5
q-85 -14 -169 -23t-170 -11q-20 0 -30 12.5t-10 28t10 28.5t30 13q88 2 174 11.5t172 24.5q20 229 40.5 455.5t52.5 454.5q3 19 16.5 25.5t28.5 2.5t26.5 -17.5t8.5 -32.5q-31 -219 -51 -436.5t-39 -437.5q125 24 246.5 51t246.5 48q3 153 3 307q0 20 13 30t28.5 10
t28.5 -10t13 -30q0 -147 -3 -294q60 9 119 15t119 8zM1774 415q1 69 2 138.5t2 138.5q-126 -22 -249.5 -49.5t-249.5 -50.5q-7 -77 -13.5 -153.5t-14.5 -153.5q129 46 259 81t264 49z" />
    <glyph glyph-name="percent" unicode="%" horiz-adv-x="3093" 
d="M1031 585q-39 2 -75.5 17.5t-65 42t-44.5 62t-14 77.5q2 39 17.5 75.5t42 65t62 44.5t77.5 14q41 -2 75.5 -16.5t60.5 -39.5t42 -58t20 -73q1 -2 1 -5.5v-6.5q0 -9 -1 -12q-4 -37 -20.5 -72t-42.5 -61t-60.5 -41t-74.5 -13zM1147 784q-2 37 -20.5 62t-45 37.5t-56.5 12.5
t-55 -12.5t-41 -37.5t-14 -62t19.5 -62.5t42.5 -37.5t54 -12.5t54 12.5t42.5 37.5t19.5 62.5zM2158 206q2 -8 1 -12q1 -5 -1 -13q-4 -37 -20.5 -71.5t-42 -61t-60 -41t-74.5 -12.5q-39 2 -76 17.5t-65 41.5t-44 62t-14 78q2 39 17.5 75.5t41.5 64.5t62 44t78 14
q40 -2 74.5 -16.5t60.5 -39t42 -57.5t20 -73zM1845 194q2 -37 19.5 -62.5t42.5 -38t54 -12.5t54 13t42.5 37.5t19.5 62.5q-2 37 -20.5 61.5t-45 37t-57 12.5t-55.5 -12t-40.5 -37t-13.5 -62zM2222 1209q13 15 29 13.5t27.5 -12.5t13.5 -27.5t-11 -31.5q-38 -42 -80.5 -80
t-86 -74.5t-88 -72.5t-86.5 -73q-88 -77 -173 -154.5t-170 -157.5q-179 -168 -358 -335t-367 -324q-15 -13 -31.5 -10t-27.5 14t-12.5 26.5t13.5 28.5q189 158 367 324t358 334q94 89 188.5 175.5t192.5 171.5q76 65 155 127.5t147 137.5z" />
    <glyph glyph-name="ampersand" unicode="&#x26;" horiz-adv-x="3378" 
d="M2427 286q19 6 32 -3t17 -24t-2 -31t-25 -22q-54 -17 -110 -34t-105 -47q13 -18 23.5 -38t21.5 -41q9 -18 3 -33t-19.5 -23t-29.5 -6t-26 20q-13 24 -24 47.5t-31 42.5q-93 -57 -201 -96.5t-221.5 -63.5t-228 -34t-220.5 -8q-41 1 -90 5.5t-97 15.5t-90 30.5t-68.5 50
t-33.5 73.5t16 102q21 53 59 98t86.5 83.5t105 71.5t113.5 62t111.5 54.5t100.5 49.5q28 14 59.5 29.5t66.5 32.5q-35 18 -70 35t-68.5 36t-64.5 42.5t-58 53.5q-27 32 -37.5 69t-5.5 73.5t23.5 69.5t50.5 58q48 37 110 60.5t131.5 36.5t143.5 15.5t146 -1.5t139 -13.5
t123 -22.5q12 -2 22 -14t8 -25q-9 -78 -46.5 -143.5t-90.5 -119.5t-117 -99t-127 -83q-13 -8 -25.5 -14.5t-25.5 -14.5q64 -42 125.5 -91t116 -105.5t99.5 -120t76 -134.5q54 31 112 50t117 38zM1511 798q48 -29 99 -51.5t100 -50.5q68 35 135.5 76.5t124.5 90t98 105
t56 122.5q-71 14 -150.5 20.5t-159.5 3.5t-157 -16.5t-143 -38.5q-57 -22 -83 -54.5t-24.5 -69t28 -72.5t76.5 -65zM1281 -25q103 0 213.5 9.5t219.5 32.5t212.5 61t193.5 94q-30 67 -74.5 127t-98 113t-113 98t-118.5 83q-4 3 -8 5.5t-8 5.5q-70 -37 -141 -72t-141.5 -72
t-138.5 -76.5t-132 -85.5q-24 -17 -56 -42t-58.5 -55t-41 -64t-4.5 -70q7 -24 26 -40t45.5 -26t57.5 -15.5t61.5 -8t57.5 -2.5h46z" />
    <glyph glyph-name="quotesingle" unicode="'" horiz-adv-x="553" 
d="M112 1311q-14 14 -12 30.5t13 27.5t27.5 13t30.5 -12q69 -71 133 -146t136 -144q15 -14 13 -30t-13 -27t-27.5 -13.5t-31.5 11.5q-72 69 -135.5 144t-133.5 146z" />
    <glyph glyph-name="parenleft" unicode="(" horiz-adv-x="602" 
d="M340 1369q-49 -121 -86 -261.5t-55.5 -288t-14.5 -297.5t37 -290t98 -265t170 -223q15 -14 13 -30t-13 -27t-27.5 -13.5t-30.5 11.5q-83 78 -142.5 171.5t-99.5 198t-60.5 217t-25.5 229t4.5 234t30.5 231.5t52.5 221.5t70.5 203.5q7 18 23 24t31 2t23.5 -16.5t1.5 -31.5
z" />
    <glyph glyph-name="parenright" unicode=")" horiz-adv-x="631" 
d="M315 -273q45 123 77.5 264.5t46 289.5t5 297.5t-46 288.5t-107 261.5t-176.5 217.5q-15 13 -13.5 29t12.5 27t27.5 13.5t31.5 -10.5q113 -100 187 -229t114.5 -274.5t51.5 -302t-2 -312t-46.5 -304t-81.5 -278.5q-7 -19 -23 -25t-31 -2t-24 17t-2 32z" />
    <glyph glyph-name="asterisk" unicode="*" horiz-adv-x="1305" 
d="M1155 1326q19 7 31.5 -2t16.5 -24t-2 -31t-24 -23q-116 -43 -226.5 -93t-222.5 -103q21 -12 41.5 -24t40.5 -23q42 -23 86.5 -42.5t88 -40t84.5 -44.5t78 -56q15 -13 13.5 -29t-13 -27t-28 -13.5t-31.5 10.5q-41 36 -90 63.5t-101 52t-104 48t-100 50.5q1 -81 0 -161.5
t-1 -161.5q0 -20 -13 -30.5t-28.5 -10.5t-28 10.5t-12.5 30.5q0 86 0.5 171.5t-0.5 171.5q-113 -53 -226.5 -101.5t-232.5 -86.5q-19 -6 -32 3t-17 24t2 31t25 22q110 35 215 79.5t210 92.5q-129 81 -258 165q-17 11 -19 27.5t6 30t23 19.5t32 -5q68 -45 135 -88.5
t136 -85.5q-2 91 -6 180t-12 180q-2 20 10 29.5t27.5 9.5t29.5 -10t16 -29q8 -91 12 -179.5t6 -178.5q115 54 229 106t234 96z" />
    <glyph glyph-name="plus" unicode="+" horiz-adv-x="2792" 
d="M1852 638q20 0 30 -12.5t10 -28t-10 -29t-30 -13.5q-112 -1 -223 -8t-223 -15v-345q0 -20 -13 -30t-28.5 -10t-28.5 10t-13 30v341q-96 -5 -190.5 -6.5t-191.5 6.5q-20 1 -30 15t-10 29.5t10 27.5t30 11q97 -8 191.5 -6.5t190.5 6.5v294q0 20 13 30t28.5 10t28.5 -10
t13 -30v-290q112 8 223 15t223 8z" />
    <glyph glyph-name="comma" unicode="," horiz-adv-x="616" 
d="M106 -334q66 118 149.5 220.5t187.5 188.5q15 12 32 9.5t28 -13.5t12.5 -26.5t-13.5 -28.5q-101 -82 -181.5 -180t-143.5 -212q-10 -18 -26 -20t-29 6t-19.5 23t3.5 33z" />
    <glyph glyph-name="hyphen" unicode="-" horiz-adv-x="2315" 
d="M1375 588q20 0 30 -13t10 -28.5t-10 -28.5t-30 -13h-435q-20 0 -30 13t-10 28.5t10 28.5t30 13h435v0z" />
    <glyph glyph-name="period" unicode="." horiz-adv-x="100" 
d="M50 83q20 0 30 -13t10 -28.5t-10 -28.5t-30 -13t-30 13t-10 28.5t10 28.5t30 13z" />
    <glyph glyph-name="slash" unicode="/" horiz-adv-x="2718" 
d="M1741 1323q10 18 26 20t29 -6t19.5 -23t-3.5 -33q-210 -380 -417 -756t-418 -756q-10 -17 -26 -19.5t-29 5.5t-19.5 23t3.5 33q210 380 417 756t418 756z" />
    <glyph glyph-name="zero" unicode="0" horiz-adv-x="2425" 
d="M1524 571q3 -62 -13.5 -129t-52 -123t-89.5 -93t-127 -39q-69 -2 -130 24.5t-106.5 72.5t-73.5 107.5t-31 129.5q-3 63 13.5 130t52 123t89.5 92.5t127 38.5q71 2 129 -23.5t101.5 -69.5t71.5 -103.5t37 -126.5v-1q2 -6 2 -10zM1262 274q50 15 85 44.5t56.5 68.5
t30.5 85.5t7 95.5q-8 48 -30.5 99.5t-58 91t-83.5 59t-106 1.5q-50 -15 -88 -49t-61.5 -78t-30.5 -95t5 -102q11 -44 35 -90t59.5 -80.5t81 -51t98.5 0.5z" />
    <glyph glyph-name="one" unicode="1" horiz-adv-x="2175" 
d="M1193 38q-36 123 -66 247t-58 249t-56 249.5t-61 248.5q-5 19 4.5 32.5t24.5 17.5t30.5 -2.5t20.5 -25.5q33 -124 61 -248.5t56 -249.5t58 -249t66 -247q6 -19 -4 -32t-25 -17t-30 2t-21 25z" />
    <glyph glyph-name="two" unicode="2" horiz-adv-x="2934" 
d="M2105 286q-138 -44 -282.5 -78.5t-291.5 -55.5t-294.5 -25t-292.5 13q-12 1 -22.5 9t-16 18.5t-4.5 22t13 21.5q43 36 89 67.5t93 61.5t95 59t95 59q40 26 96.5 59.5t110.5 73.5t96 86.5t54 98.5q8 38 -8.5 59.5t-51 30.5t-82.5 8t-101 -8.5t-107.5 -19t-102.5 -23
t-85.5 -20.5t-56.5 -12q-20 -3 -33.5 8t-17.5 26t2.5 29t26.5 17q28 4 71 15t94.5 24.5t109 26.5t114 21t109 8t95 -12.5t71.5 -40t39 -75.5q11 -52 -9.5 -100.5t-56.5 -91t-79.5 -78t-79.5 -61.5q-54 -40 -111 -76t-114.5 -71.5t-114.5 -71.5t-111 -75q130 -8 261 0.5
t261 29.5t257.5 52.5t250.5 70.5q19 6 32 -3.5t17 -24.5t-2 -30.5t-25 -21.5z" />
    <glyph glyph-name="three" unicode="3" horiz-adv-x="2792" 
d="M840 132q-20 1 -30 14t-10 28.5t10 28t30 12.5q101 -3 208.5 10t214.5 39.5t209 64t192 83.5q6 3 23 12t37.5 21.5t40 28t30.5 31t9 30t-24 26.5q-26 13 -52.5 18.5t-52.5 5.5t-53 -4t-55 -8q-61 -9 -120 -15t-121 3q-15 2 -21.5 11.5t-7.5 21.5t4.5 24t14.5 19
q33 24 76 49t84.5 53.5t76 62.5t50.5 75q-59 -2 -117 -11t-115.5 -21t-114.5 -25.5t-115 -23.5q-20 -3 -33 7.5t-17.5 25.5t2 29.5t26.5 17.5q67 12 133 27.5t132.5 29t133.5 22t136 5.5q16 -1 30 -12.5t12 -28.5q-5 -48 -25 -86.5t-49 -71.5t-65.5 -61t-75.5 -53
q45 7 90.5 15t89.5 10t85 -6t76 -34q27 -20 45 -44t23 -50.5t-5 -53.5t-39 -52q-44 -38 -94.5 -66.5t-104.5 -51.5t-109.5 -41.5l-109.5 -36.5q-72 -23 -144.5 -43t-146 -34t-147.5 -21.5t-150 -5.5z" />
    <glyph glyph-name="four" unicode="4" horiz-adv-x="2702" 
d="M952 433q-12 -5 -22.5 -1.5t-17.5 12t-10 19t-1 21.5q14 74 31.5 147.5t34.5 147t32 148t24 149.5q3 19 17 29t29.5 10t27.5 -10t9 -29q-17 -138 -49 -270.5t-61 -267.5q63 24 126.5 47t128 41.5t131 30t135.5 13.5q-2 117 -6 232.5t-12 232.5q-1 20 11.5 30t28 10
t29 -10t14.5 -30q19 -294 19 -588.5t-1 -589.5q0 -20 -13 -30t-28.5 -10t-28.5 10t-13 30q1 158 2 315t-1 315q-75 -2 -147 -16.5t-142 -36.5t-139 -48.5t-138 -52.5z" />
    <glyph glyph-name="five" unicode="5" horiz-adv-x="2689" 
d="M1632 318q2 -47 -28.5 -80.5t-79.5 -56.5t-110.5 -36.5t-122 -21t-113.5 -10t-84 -2.5q-20 0 -30 12.5t-10 28t10 29t30 13.5q14 0 55.5 4t94.5 11.5t110.5 18t103 24.5t72 31.5t18.5 37.5q-13 31 -45.5 52t-72 34.5t-80 21.5t-68.5 14q-60 11 -119.5 19.5t-120.5 15.5
q-2 1 -5 1t-5 2q-10 2 -18 8.5t-12 19.5q-16 52 -28 104.5t-23.5 105l-23 105t-25.5 105.5q-5 20 7.5 36.5t32.5 16.5h907q20 0 30 -13t10 -28.5t-10 -28.5t-30 -13h-853q20 -86 37.5 -171t41.5 -171q88 -10 174.5 -23t170.5 -41q30 -10 66 -24t68 -35t54 -49.5t24 -66.5z
" />
    <glyph glyph-name="six" unicode="6" horiz-adv-x="2651" 
d="M1000 199q-11 -2 -21 1.5t-17.5 10.5t-11 17t-1.5 20q-32 40 -43.5 94.5t3.5 126.5q12 55 34 112.5t53.5 111.5t71 101t86.5 80q46 32 96.5 51t103 29t107 13.5t109.5 3.5q20 0 30 -13t10 -28.5t-10 -28.5t-30 -13q-96 -1 -176.5 -16t-146.5 -50.5t-119 -95.5t-95 -150
q-38 -81 -38 -144t26 -109q59 49 132.5 99.5t152 89t157.5 58.5t149 9q36 -6 64 -24.5t46 -45.5t25 -60.5t0 -69.5q-8 -45 -31.5 -81t-56.5 -64t-73 -48.5t-81 -33.5q-54 -17 -121.5 -25t-136.5 -4t-133.5 22.5t-113.5 53.5zM1646 476q-23 21 -56 24t-68 -4.5t-68 -21
t-57 -24.5q-82 -38 -164.5 -84.5t-154.5 -104.5q37 -27 85 -42t101.5 -19t109.5 4t109 28q17 6 43.5 20t54 32.5t51 41.5t36 48t9 51t-30.5 51z" />
    <glyph glyph-name="seven" unicode="7" horiz-adv-x="2745" 
d="M1905 1051q15 0 24 -7t13 -17.5t2 -23t-10 -22.5q-180 -233 -358.5 -463t-359.5 -462q-12 -16 -27 -14.5t-26 12t-14 27.5t9 33q167 215 331.5 427.5t331.5 426.5h-1131q-20 0 -30 13t-10 28.5t10 28.5t30 13h1215v0z" />
    <glyph glyph-name="eight" unicode="8" horiz-adv-x="2794" 
d="M1237 941q31 30 75 49t95 28.5t106 12t108.5 -0.5t102 -10.5t87.5 -15.5q13 -3 23 -15t8 -25q-8 -58 -34.5 -106t-65.5 -89t-87.5 -75t-99.5 -64q37 -24 82 -57t86 -71.5t73 -81t43 -85.5t-4.5 -86t-68.5 -81q-63 -46 -145 -70.5t-169 -32t-174 -2t-161 19.5
q-24 4 -54 11t-59.5 18t-53.5 28t-36 43q-15 33 -12.5 66t16.5 63t37.5 56.5t49.5 46.5q88 67 186 118l196 102q-32 18 -65 38t-61.5 43t-48.5 48t-26.5 53.5t5 59t46.5 64.5zM1626 190q72 25 99 57.5t22 69t-34.5 74.5t-70.5 73.5t-86 66t-80 52.5q-1 1 -2 1t-2 1
q-29 -15 -56.5 -28.5t-53.5 -27.5q-14 -7 -44.5 -22.5t-69 -37t-80.5 -47t-78.5 -53t-63.5 -55t-35 -52.5t7.5 -46t63.5 -35q65 -19 137.5 -28.5t146 -8.5t145 12.5t135.5 33.5zM1751 931q-44 7 -91 10.5t-94 2.5t-92.5 -7t-87.5 -17q-12 -3 -28.5 -7.5t-32 -11t-29 -16
t-19.5 -22.5q-9 -23 -3 -42t19.5 -34.5t31.5 -27t32 -19.5q29 -16 58 -29.5t58 -29.5q40 22 83.5 47.5t82.5 56t68.5 67t43.5 79.5z" />
    <glyph glyph-name="nine" unicode="9" horiz-adv-x="2837" 
d="M1906 810q27 -52 30.5 -115t-24.5 -141q-24 -66 -64.5 -135t-93 -131.5t-114.5 -113t-128 -79.5q-65 -28 -131 -39t-132.5 -10t-134 10t-134.5 22q-20 4 -26.5 18t-2 29t17.5 25.5t33 6.5q55 -10 115 -20t121 -12t120 6.5t112 35.5q52 26 102 64t94.5 84t81 97.5
t60.5 104.5q32 70 35.5 128t-15.5 106q-75 -40 -154.5 -71t-157.5 -57q-52 -17 -109 -34.5t-116.5 -29t-118.5 -14t-114 11.5q-42 10 -74.5 32t-52.5 52.5t-27 69t2 82.5q12 54 42 95.5t71.5 71.5t91.5 48.5t101 27.5q47 8 104.5 10t118.5 -3.5t123 -19t119 -35.5t106 -52.5
t84 -70.5q10 0 18.5 -5t14 -13t7.5 -18t-1 -19zM1311 652q120 27 242 68t231 102q-47 54 -122 87.5t-159.5 48t-170 10.5t-153.5 -25q-21 -7 -50.5 -21.5t-58.5 -35.5t-53.5 -47t-36 -54t-6.5 -57t35 -57q28 -26 66.5 -34.5t80 -8t82 8t73.5 15.5z" />
    <glyph glyph-name="colon" unicode=":" horiz-adv-x="151" 
d="M50 788q20 0 30 -13t10 -28t-10 -28t-30 -13t-30 13t-10 28t10 28t30 13zM101 83q20 0 30 -13t10 -28.5t-10 -28.5t-30 -13t-30.5 13t-10.5 28.5t10.5 28.5t30.5 13z" />
    <glyph glyph-name="semicolon" unicode=";" horiz-adv-x="616" 
d="M443 75q15 12 32 9.5t28 -13.5t12.5 -26.5t-13.5 -28.5q-101 -82 -181.5 -180t-143.5 -212q-10 -18 -26 -20t-29 6t-19.5 23t3.5 33q66 118 149.5 220.5t187.5 188.5zM455 793q20 0 30 -13t10 -28.5t-10 -28.5t-30 -13t-30 13t-10 28.5t10 28.5t30 13z" />
    <glyph glyph-name="less" unicode="&#x3c;" horiz-adv-x="2584" 
d="M1570 163q15 -13 13.5 -28.5t-12.5 -26.5t-28 -13.5t-32 9.5q-71 58 -145 111.5t-148.5 106t-149.5 105t-147 108.5q-15 12 -19.5 31t11.5 34q64 60 136.5 105t148.5 87q42 23 82 49t79 52.5t79 52t82 47.5q18 9 33 2.5t23 -20t5.5 -29.5t-20.5 -25q-38 -19 -73 -42
t-69.5 -47t-69.5 -47.5t-72 -43.5q-71 -38 -139 -77.5t-130 -90.5q139 -104 283 -202.5t279 -207.5z" />
    <glyph glyph-name="equal" unicode="=" horiz-adv-x="2623" 
d="M1745 662q18 -8 24 -24t2 -31t-17 -24t-31 -1q-93 37 -189.5 60.5t-195.5 36.5t-199 17t-199 2q-20 0 -30 12.5t-10 28t10 28.5t30 13q102 2 204.5 -2t204.5 -17t201.5 -37t194.5 -62zM1710 392q19 -5 25.5 -20t2.5 -30t-17.5 -24.5t-32.5 -4.5q-84 21 -169.5 33
t-171.5 19.5t-172.5 13.5t-172.5 15q-20 2 -29.5 16t-9.5 30t9.5 27.5t29.5 9.5q89 -10 178 -16t178 -14t177 -20.5t175 -34.5z" />
    <glyph glyph-name="greater" unicode="&#x3e;" horiz-adv-x="2584" 
d="M1386 792q76 -42 148.5 -87t136.5 -105q16 -15 11.5 -34t-19.5 -31q-72 -56 -147 -108.5t-149.5 -105t-148.5 -106t-145 -111.5q-15 -12 -32 -9.5t-28 13.5t-12.5 26.5t13.5 28.5q135 109 279 207.5t283 202.5q-62 51 -130 90t-138 78q-38 20 -73 43.5t-69.5 47.5t-70 47
t-72.5 42q-18 9 -20.5 25t5.5 29.5t23 20t33 -2.5q42 -22 82 -47.5t79 -52t79 -52.5t82 -49z" />
    <glyph glyph-name="question" unicode="?" horiz-adv-x="1526" 
d="M1242 1042q11 -4 19.5 -12.5t12 -19.5t1 -22.5t-12.5 -20.5q-71 -62 -146.5 -117.5t-153 -108.5t-155.5 -105.5t-153 -109.5q-17 -13 -33 -7.5t-24 20t-6.5 33.5t18.5 32q65 49 132 94.5t134.5 91t133.5 92.5t129 98q-102 25 -208 27t-213 -7t-213.5 -21.5t-209.5 -16.5
q-22 -1 -32.5 12.5t-10.5 30.5t11 31.5t32 15.5q78 3 157.5 11t159.5 16.5t160.5 14t160 3t157.5 -14.5t153 -40zM699 93q22 0 32.5 -14t10.5 -31t-10.5 -31t-32.5 -14t-33 14t-11 31t11 31t33 14z" />
    <glyph glyph-name="at" unicode="@" horiz-adv-x="3223" 
d="M2362 254q17 11 32 5.5t22.5 -19t5.5 -30.5t-18 -28q-54 -37 -103.5 -74.5t-100 -72t-104.5 -65.5t-117 -55q-126 -48 -254.5 -96.5t-261.5 -77.5q-95 -21 -196.5 -23.5t-195.5 22t-174.5 80.5t-133.5 151q-44 79 -56 161t1.5 163t50 160t88.5 152t117 138.5t135.5 121
t143.5 98.5t142 70q58 23 123.5 45t134 37.5t137.5 22t136 -2t128.5 -33.5t115.5 -72q74 -65 99.5 -139t12.5 -147.5t-59 -143t-114 -126.5q-33 -27 -71.5 -51t-79 -40t-80.5 -23t-75.5 -0.5t-64.5 28.5t-46 63q-22 -24 -48 -48.5t-53.5 -45t-56.5 -34.5t-56.5 -15.5t-53 12
t-46.5 47.5q-18 29 -22.5 67t2 79t21.5 83t35.5 79t46 66t51.5 46q53 33 89.5 34.5t61 -18t40 -55t25 -77.5t16 -84.5t14.5 -76.5q10 -45 37.5 -60.5t64 -11t77.5 25t79 46t68 52.5t45 46q48 60 63.5 126t-1.5 125t-66 105.5t-128 68.5q-98 27 -203.5 21.5t-209.5 -35.5
t-200.5 -79t-175.5 -108q-69 -52 -142 -119.5t-132.5 -146t-98.5 -166.5t-41 -181q-2 -58 13 -113.5t44 -103.5t71 -87.5t95 -65.5q63 -31 127.5 -43.5t130.5 -11t131.5 14.5t130.5 33q109 34 216.5 71.5t213.5 79.5q60 24 111 54t99 64t95.5 70t99.5 71zM1577 463
q22 22 42.5 45t40.5 46q-2 22 -3 45t-4.5 45.5t-10.5 42.5t-19 37q-18 25 -38 23t-39 -19.5t-36 -45.5t-30.5 -56t-22.5 -50.5t-10 -28.5q-7 -28 -13.5 -61t2.5 -62q6 -18 17.5 -23.5t25.5 -2.5t29.5 12t29.5 19.5t24.5 20t14.5 13.5z" />
    <glyph glyph-name="A" unicode="A" horiz-adv-x="2613" 
d="M1711 99q6 -20 -4 -33t-25 -17t-30 2t-21 26q-33 113 -68.5 224.5t-73.5 223.5q-78 -5 -153.5 -17.5t-152.5 -29.5q-47 -112 -98 -220.5t-108 -214.5q-10 -18 -26 -20t-29 6t-19.5 23t3.5 33q49 91 93.5 184.5t86.5 190.5q-14 3 -22.5 14.5t-10 24.5t5.5 25t24 16
q11 2 20.5 4.5t20.5 4.5q51 123 98.5 246t93.5 245q6 15 17 22.5t23.5 7.5t23.5 -7.5t16 -22.5q39 -107 76.5 -213.5t74.5 -214.5q57 1 112 0q20 -1 30 -14.5t10 -29t-10 -28t-30 -11.5q-21 1 -42 1h-42q36 -108 70 -215t66 -216zM1222 571q60 12 119.5 21t120.5 14
q-26 77 -53 152.5t-54 151.5q-32 -85 -65 -169.5t-68 -169.5z" />
    <glyph glyph-name="B" unicode="B" horiz-adv-x="3013" 
d="M1378 596q48 3 112.5 8.5t137 10t148.5 7.5t146 0.5t129.5 -11.5t99 -27t55 -47t-2.5 -71q-12 -29 -38 -53.5t-59.5 -45.5t-72.5 -38.5t-77 -32t-73 -27t-61 -22.5q-76 -30 -153.5 -59t-157 -54t-160 -45t-161.5 -31q-20 -3 -33 8.5t-17.5 26.5t2 28.5t26.5 16.5
q64 9 129 24q-27 94 -49.5 188.5t-44 190t-43 190.5t-45.5 190q-44 -3 -87 -4t-87 4q-20 2 -30 16t-10 29.5t10 27.5t30 10q68 -7 135.5 -3t134.5 11t134 14.5t133.5 8.5t133 -8.5t132.5 -35.5q23 -9 28.5 -29.5t-10.5 -40.5q-41 -48 -89 -89t-98 -79t-100.5 -76t-96.5 -81z
M1658 931q-57 15 -114 19t-114.5 1.5t-115.5 -9.5t-116 -13q20 -80 38.5 -159.5t36.5 -160.5q43 46 91.5 85.5t99 77.5t100 76.5t94.5 82.5zM2112 484q19 16 6.5 28t-37 19.5t-51.5 11t-39 3.5q-67 2 -133 -2.5t-132 -10.5q-53 -5 -107 -12t-108 -11.5t-108 -5t-108 6.5
q20 -83 40 -165t43 -164q76 20 151 45.5t148 52.5q52 19 110.5 39t117 43.5t112 53t95.5 68.5z" />
    <glyph glyph-name="C" unicode="C" horiz-adv-x="2623" 
d="M1691 119h-117t-133 4.5t-138.5 14.5t-133 29t-117 49.5t-90 75.5t-53 106t-4.5 142q14 97 65 174.5t126 133t167 88t187 37.5t187 -18t167 -77q16 -12 17.5 -29t-6 -30.5t-22.5 -19t-31 6.5q-61 44 -143 64t-169 15.5t-171.5 -31.5t-150.5 -76.5t-106 -120t-38 -160.5
q2 -84 39 -138.5t96 -87t134 -48t153 -20t152.5 -3t132.5 1.5q20 0 30 -13t10 -28.5t-10 -28.5t-30 -13z" />
    <glyph glyph-name="D" unicode="D" horiz-adv-x="2999" 
d="M2148 521q4 -33 -14.5 -62.5t-50.5 -56.5t-73 -50.5t-82 -42.5t-76.5 -34t-56.5 -24q-77 -35 -156.5 -70t-160.5 -65.5t-164 -55t-167 -39.5q-20 -4 -33 7t-17.5 26t2 29.5t26.5 17.5q40 7 79.5 16.5t78.5 21.5q-48 163 -84 326.5t-74 329.5q-62 -9 -124 -27
q-19 -6 -32 3.5t-17 24.5t2 30.5t25 21.5q31 9 62.5 16t63.5 12q-8 36 -17 72.5t-19 72.5q-5 19 5 32.5t25 17.5t30 -2.5t20 -25.5q11 -40 20.5 -79t19.5 -79q133 9 267 -9.5t257 -53.5q37 -11 81.5 -24.5t91 -31.5t91 -41.5t80.5 -53.5t60.5 -67t30.5 -83zM2064 507
q16 28 -6 56.5t-66 55.5t-101 51t-111 42.5t-96.5 30.5t-56.5 15q-101 22 -207 35.5t-212 8.5q37 -161 72.5 -320.5t81.5 -317.5q66 22 129.5 47.5t126.5 51.5q74 31 147 64.5t144 72.5q17 9 39.5 20.5t44.5 24.5t41 28.5t30 33.5z" />
    <glyph glyph-name="E" unicode="E" horiz-adv-x="2818" 
d="M1978 291q-44 -3 -115 -10.5t-156.5 -14.5t-179 -10.5t-184.5 2t-173 22.5t-143 51.5t-95.5 88.5t-30.5 133q2 49 24.5 87.5t58 67.5t80.5 50t92.5 35.5t93.5 22.5t84 12q39 4 86.5 7t98 2t101.5 -7.5t97 -21.5t84 -40t64 -63q12 -18 2 -35.5t-27 -25.5
q-83 -34 -175.5 -46t-187 -7.5t-187 23.5t-175.5 46q-9 4 -15 9q-38 -20 -66 -42.5t-42 -48t-12 -53.5t23 -57q38 -51 102.5 -77t138.5 -36t147.5 -10t129.5 1q115 2 228.5 11.5t228.5 16.5q20 1 30 -11t10 -27.5t-10 -29.5t-30 -15zM1753 702q-41 29 -104 42.5t-136 14
t-149.5 -10.5t-145.5 -32q64 -17 132 -28t136.5 -14t136 3.5t130.5 24.5z" />
    <glyph glyph-name="F" unicode="F" horiz-adv-x="2654" 
d="M1763 1027q20 0 30 -13t10 -28t-10 -28t-30 -13h-621q19 -72 35 -140t31 -136h317q20 0 30 -13t10 -28.5t-10 -28.5t-30 -13h-298q30 -134 62 -266t74 -273q6 -19 -4 -32t-25 -17t-30 2t-21 25q-44 146 -76.5 284t-63.5 277h-10q-19 0 -29 11.5t-11 26t6.5 28t24.5 16.5
q-16 67 -32 134.5t-34 137.5h-16q-17 0 -29.5 12t-12.5 29t12.5 29.5t29.5 12.5q-2 5 -2.5 10.5t-2.5 10.5q-5 17 3.5 31.5t25.5 19.5q16 5 31 -3.5t20 -25.5l9 -39h637v0z" />
    <glyph glyph-name="G" unicode="G" horiz-adv-x="2880" 
d="M1988 399q15 0 25.5 -9t14 -22t-0.5 -26t-18 -20q-84 -45 -186 -88.5t-209.5 -72t-215 -34.5t-204.5 25q-42 13 -89 33.5t-90.5 47.5t-80.5 61t-59 75t-25 88.5t22 101.5q36 80 101.5 147t146.5 118t170.5 84.5t173.5 45.5q42 6 96.5 10t113 1.5t115.5 -14t103 -36
t76.5 -64t35.5 -97.5q2 -20 -10 -30t-27.5 -10t-29.5 10t-16 30q-4 46 -38 73.5t-85 41t-112 16t-120 -2t-109 -14t-78 -19.5q-36 -13 -83 -32.5t-97 -45.5t-98.5 -58.5t-85.5 -70t-59.5 -81t-20.5 -90.5t25.5 -85t61 -67t85 -49.5t96.5 -33t96.5 -17.5t85.5 -2
q108 8 212 33.5t204 65.5h-406q-20 0 -30.5 13t-10.5 28.5t10.5 28.5t30.5 13h593v0z" />
    <glyph glyph-name="H" unicode="H" horiz-adv-x="3102" 
d="M1857 1055q33 -124 61.5 -249t56.5 -250t58 -249.5t66 -247.5q6 -19 -3.5 -32t-24.5 -17t-30.5 2t-21.5 25q-38 130 -69 260t-61 261h-691q29 -126 59 -250t66 -249q6 -19 -3.5 -32t-24.5 -17t-30 2t-21 25q-37 123 -67 247.5t-58 249.5l-56 250t-61 249q-5 19 4.5 32
t24.5 17t30.5 -2t20.5 -25q27 -103 51 -206.5t47 -207.5h691q-22 99 -44.5 196.5t-48.5 195.5q-5 19 4.5 32t24.5 17t30 -2t20 -25z" />
    <glyph glyph-name="I" unicode="I" horiz-adv-x="2326" 
d="M1002 1033q-5 19 4.5 32t24.5 17t30.5 -2t20.5 -25q33 -124 61 -249l56 -250t58 -249.5t66 -247.5q6 -19 -3.5 -32t-24.5 -17t-30 2t-21 25q-37 123 -67 247.5t-58 249.5l-56 250t-61 249z" />
    <glyph glyph-name="J" unicode="J" horiz-adv-x="2548" 
d="M1482 1114q35 -91 63.5 -201.5t42 -225.5t8.5 -227t-36 -206q-36 -109 -101 -175t-148.5 -98t-180.5 -33t-199 20q-20 4 -26.5 19t-2 30t17.5 25.5t33 6.5q51 -11 102 -18.5t101 -5.5t98 16t93 46q53 37 86.5 89.5t51.5 112t22.5 123t1.5 124.5q-3 63 -10.5 129
t-19 132.5t-27.5 131.5t-37 126q-71 -16 -141 -32t-141 -32q-20 -5 -33 5.5t-17 25.5t2.5 29.5t26.5 19.5q80 18 159 36t160 36q17 5 30.5 -3.5t20.5 -25.5z" />
    <glyph glyph-name="K" unicode="K" horiz-adv-x="2840" 
d="M1120 -44q0 148 0.5 295.5t-0.5 295t-5 295t-14 294.5q-1 20 11 30t27.5 10t29 -10t15.5 -30q11 -162 14.5 -322.5t4.5 -323.5q40 17 77 39l74 44t75 41.5t81 31.5q76 22 152.5 38.5t152.5 36.5q19 5 32.5 -5t17.5 -25t-2.5 -30t-25.5 -20q-43 -11 -87 -20.5l-88 -19
t-87 -21.5t-85 -28q-48 -19 -91.5 -46t-87.5 -53q76 -32 145 -75t136 -90.5t134.5 -94t141.5 -84.5q18 -9 20.5 -25t-5.5 -29.5t-23.5 -20t-33.5 2.5q-81 42 -155 94.5t-148 104.5t-152 96.5t-167 70.5q0 -112 -0.5 -223.5t-0.5 -223.5q0 -20 -13.5 -30t-29 -10t-28 10
t-12.5 30z" />
    <glyph glyph-name="L" unicode="L" horiz-adv-x="2660" 
d="M1757 140q19 3 32.5 -7.5t18 -25.5t-2 -29t-26.5 -17q-182 -28 -361 -57t-359 -67q-8 -3 -15 -3q-14 -1 -24 6.5t-15 18.5q-4 8 -4 13q-1 1 -1 4v2q0 8 1 12q52 280 87 561.5t37 566.5q0 20 13 30t28 10t28 -10t13 -30v-40q0 -6 -1 -10q-5 -263 -36.5 -522.5
t-77.5 -517.5q166 33 331.5 59.5t333.5 52.5z" />
    <glyph glyph-name="M" unicode="M" horiz-adv-x="3146" 
d="M2031 1034q24 -244 43.5 -487t21.5 -489q0 -20 -13 -30t-28.5 -10t-28.5 10t-13 30q-1 214 -16.5 425t-36.5 425q-91 -146 -180 -290t-190 -283q-11 -17 -30.5 -20.5t-34.5 11.5q-32 32 -58.5 70.5t-50.5 80t-45.5 83.5t-42.5 81q-31 56 -61 112t-58 114
q-11 -203 -18 -404t-8 -405q0 -20 -13 -30t-28.5 -10t-28.5 10t-13 30q1 246 11.5 488.5t23.5 487.5q1 13 7.5 22t16 13.5t20.5 4.5t20 -4q19 -7 26 -26q36 -103 86.5 -200t104.5 -191q31 -55 62.5 -116.5t72.5 -113.5q106 151 202 308t195 313q2 16 14.5 23.5t27 6.5
t27 -11t14.5 -29z" />
    <glyph glyph-name="N" unicode="N" horiz-adv-x="3108" 
d="M1900 181q-3 -11 -11 -18t-18 -10t-20.5 -0.5t-19.5 10.5q-143 143 -284.5 285.5t-284.5 285.5q-45 -177 -86 -355t-93 -353q-6 -19 -21.5 -25t-30.5 -2t-24.5 17t-3.5 32q29 96 53.5 193t48 194.5t46.5 195t49 194.5q3 12 11 19.5t18.5 10t21.5 0t19 -10.5
q143 -144 285 -286t285 -286q27 98 49.5 197.5t44 199t44 199t48.5 198.5q5 19 20 25.5t30 2.5t25 -17.5t5 -32.5q-29 -107 -52.5 -215.5l-47 -217t-49 -216.5t-57.5 -214z" />
    <glyph glyph-name="O" unicode="O" horiz-adv-x="2516" 
d="M1614 540q-6 -68 -34.5 -131.5t-75 -112.5t-109 -77t-136.5 -24q-70 4 -136 32t-116.5 75.5t-80 111t-25.5 139.5q5 85 36.5 149.5t80.5 107.5t110 64.5t125 22.5t126 -19.5t112 -62t83 -104t40 -146.5q2 -8 2 -12q0 -5 -2 -13zM984 553q5 -88 46 -147.5t100.5 -89
t128 -29.5t128 30t100.5 88.5t46 147.5q-3 54 -24.5 104.5t-57.5 89t-85 61t-107 19.5q-54 -3 -104.5 -24.5t-89.5 -57.5t-61.5 -85t-19.5 -107z" />
    <glyph glyph-name="P" unicode="P" horiz-adv-x="2581" 
d="M1387 958q33 -8 78 -20t88.5 -31.5t77.5 -47t45 -67.5q11 -43 -4.5 -75.5t-49.5 -56.5t-81.5 -41t-100.5 -28t-106 -17.5t-98 -9.5q29 -128 59 -253.5t67 -251.5q6 -19 -3.5 -32t-24.5 -17t-30.5 2t-21.5 25q-38 131 -69.5 261t-60.5 262h-9q-19 0 -29 11t-11.5 25.5
t6.5 28t25 17.5q-17 73 -33.5 145t-34.5 144l-75 9q-20 2 -30 16t-10 30t10 27.5t30 9.5l54 -6q-2 4 -2.5 7.5t-2.5 8.5q-5 19 5 32t25 17t30 -2t20 -25q4 -13 7 -25l6 -24q64 -9 127.5 -20t126.5 -28zM1404 676q16 3 42.5 9.5t54 16t51 21.5t33.5 26t1.5 31t-44.5 36
q-88 46 -187 68.5t-201 36.5q17 -69 32.5 -137t30.5 -137q48 4 94.5 11.5t92.5 17.5z" />
    <glyph glyph-name="Q" unicode="Q" horiz-adv-x="2700" 
d="M1831 29q16 -12 17.5 -29t-6 -30.5t-22.5 -18.5t-31 7q-119 84 -231 177q-51 -32 -109 -46.5t-124 -7.5q-93 10 -174 53.5t-139 111t-88 154.5t-21 183q6 58 24.5 116.5t49 111.5t72 97.5t92 76t109 46t124.5 7.5q97 -11 175 -53t132.5 -108t84 -150.5t29.5 -179.5
q1 -3 1 -11q0 -2 -0.5 -4.5t-0.5 -4.5q-11 -95 -55 -185t-114 -156q51 -41 101.5 -80t103.5 -77zM1325 164q45 -1 84.5 8t75.5 25l-64 58t-64 59q-14 14 -12 30t13 27t27 13.5t31 -11.5q35 -34 71 -66.5t73 -64.5q65 51 104.5 127t48.5 167q1 72 -21 146.5t-65.5 134.5
t-107 98.5t-145.5 39.5q-77 1 -146.5 -27.5t-123 -79t-85.5 -118.5t-33 -147q-1 -72 21 -146.5t65.5 -134.5t107 -98.5t145.5 -39.5z" />
    <glyph glyph-name="R" unicode="R" horiz-adv-x="2893" 
d="M2122 107q17 -10 19.5 -26t-5.5 -29.5t-23 -20t-33 3.5q-110 62 -222.5 121t-223.5 119.5t-219.5 126t-210.5 140.5l-2 2q28 -117 57 -232t64 -230q6 -19 -4 -32t-25 -17t-30 2t-21 25q-35 118 -65.5 237t-59 238t-57 238.5t-59.5 238.5q-5 19 4.5 32t24.5 17t30.5 -2.5
t20.5 -25.5q2 -11 5 -21.5t6 -21.5q38 -4 82 -1t91 7t94.5 6t91 -4t81.5 -22t67 -49q23 -27 23 -58.5t-13.5 -62t-36 -57t-44.5 -44.5q-51 -42 -108.5 -75t-120.5 -54q97 -68 199 -128t206 -116.5t209 -111.5t208 -113zM1434 908q-40 4 -80 3.5t-80 -2l-80 -3t-80 0.5
q34 -137 66 -273q41 4 84 16.5t83.5 31t77 43.5t64.5 55q29 31 38 53.5t1 37.5t-32.5 24t-61.5 13z" />
    <glyph glyph-name="S" unicode="S" horiz-adv-x="2706" 
d="M1833 485q23 -21 22.5 -42t-15.5 -40.5t-40.5 -37t-52 -31.5t-50 -23.5t-34.5 -13.5q-93 -32 -187.5 -53.5t-189.5 -38t-191 -30.5t-192 -32q-20 -3 -33 7.5t-17.5 25.5t2 29.5t26.5 17.5q87 16 174 28.5t174 26.5t173 31.5t170 44.5q40 13 81.5 26.5t77.5 36.5
q12 7 20 10.5t11.5 4.5t2.5 1.5t-6 2.5q-36 16 -75.5 25t-77.5 17q-112 23 -224 43t-223 50q-27 7 -59.5 15.5t-63 21.5t-55.5 33t-37 50q-6 17 4.5 31t24.5 20q188 78 379.5 132t393.5 76q20 2 29.5 -10t9.5 -27.5t-10 -29.5t-29 -16q-180 -20 -351.5 -67.5t-339.5 -113.5
q17 -9 39 -15.5t43.5 -11.5t39.5 -8.5t28 -5.5q67 -17 134 -30l134 -26q40 -8 89.5 -14t99 -16.5t94.5 -27.5t77 -46z" />
    <glyph glyph-name="T" unicode="T" horiz-adv-x="2640" 
d="M1850 1003q20 2 30 -10t10 -27.5t-10 -29.5t-30 -16q-108 -10 -213 -24t-210 -32q23 -96 44 -192t43 -191.5t46 -191t52 -189.5q6 -20 -4 -33t-25 -17t-30 2t-21 26q-57 190 -99 384t-88 387q-125 -24 -247.5 -55t-246.5 -69q-19 -6 -32 4t-17 25t2 30t25 21
q125 38 248 69t248 55q-4 16 -7.5 31.5t-8.5 31.5q-5 19 4.5 32.5t24.5 17.5t30.5 -2t20.5 -25q5 -18 9 -36t9 -35q110 20 220 34.5t223 24.5z" />
    <glyph glyph-name="U" unicode="U" horiz-adv-x="2613" 
d="M952 917q-5 19 4.5 32.5t24.5 17.5t30.5 -2.5t20.5 -25.5q6 -22 18 -70.5t30 -112t41 -135.5t50.5 -141t59.5 -128.5t67.5 -98t74.5 -50t80 16.5q41 27 72 68t54 91t39.5 106t28.5 111.5t20 108.5t15 98q3 20 17 26.5t29 2t26 -18t8 -32.5q-7 -48 -17.5 -112t-27 -133
t-40.5 -138t-58 -125.5t-80 -96t-106 -50.5q-49 -9 -93.5 11t-82 54.5t-67.5 77t-49 79.5q-35 67 -61.5 137t-48.5 142t-41 144.5t-38 145.5z" />
    <glyph glyph-name="V" unicode="V" horiz-adv-x="2654" 
d="M1624 1069q3 20 16.5 26.5t28.5 2.5t26 -17.5t8 -33.5q-22 -156 -50 -309t-57 -308q-9 -49 -16 -101t-15 -104.5t-19 -103.5t-27 -98q-5 -14 -14.5 -21.5t-20.5 -8.5t-22 4t-19 16q-35 46 -63.5 102t-53.5 115t-48.5 117.5t-48.5 110.5q-65 134 -129.5 270.5
t-142.5 264.5q-11 17 -5 32t19.5 23t30 6t27.5 -19q82 -134 149 -277t135 -285q19 -39 36.5 -81.5t35.5 -86.5t37.5 -87t41.5 -83q20 85 31.5 174t26.5 173q27 147 53.5 293t48.5 294z" />
    <glyph glyph-name="W" unicode="W" horiz-adv-x="3046" 
d="M1913 1021q0 20 13 30t28.5 10t28.5 -10t13 -30q-1 -232 -11 -460t-23 -459q0 -14 -6.5 -23t-16 -13.5t-20.5 -4.5t-20 5q-19 7 -26 26q-51 144 -121.5 281t-143.5 272q-65 -156 -136.5 -308.5t-160.5 -295.5q-9 -16 -23 -19t-27 2q-22 5 -29 28q-33 119 -57 239.5
t-44 242t-39 243t-41 242.5q-4 20 6.5 33.5t25.5 17.5t29.5 -2.5t18.5 -26.5q20 -110 37 -220t35 -219.5t38.5 -219t47.5 -217.5q81 141 147 289t127 298q5 12 14.5 19.5t21 10t22.5 -2t18 -17.5q64 -120 129 -240.5t121 -245.5q9 187 16 372.5t8 372.5z" />
    <glyph glyph-name="X" unicode="X" horiz-adv-x="2622" 
d="M1368 545q88 -82 174 -164t168 -170q13 -15 11 -31.5t-13 -27.5t-27 -13t-30 13q-76 81 -155 158t-161 152q-26 -67 -54.5 -132.5t-58.5 -131.5q-8 -18 -23.5 -21t-29 5t-20.5 24t2 34q32 70 61.5 140t57.5 142q-90 83 -179.5 164.5t-177.5 166.5q-15 14 -13 30t13 27
t27.5 13.5t30.5 -11.5q82 -78 165 -154t167 -153q32 81 62 160.5t62 159.5q7 19 23.5 25t31.5 2t23.5 -17t1.5 -31q-35 -91 -69.5 -180t-69.5 -179z" />
    <glyph glyph-name="Y" unicode="Y" horiz-adv-x="2540" 
d="M1606 1025q7 18 23.5 24t31.5 2t23.5 -16.5t1.5 -31.5q-47 -118 -92 -236.5t-91.5 -237t-95 -236t-102.5 -232.5q-8 -18 -23.5 -20.5t-29 5.5t-20.5 23.5t2 33.5q44 94 83.5 189t77.5 192l-1 1q-114 122 -237 232t-244 225q-15 14 -13 30t13 27t27.5 13t30.5 -12
q115 -109 232 -213t226 -218q45 114 88.5 227.5t88.5 228.5z" />
    <glyph glyph-name="Z" unicode="Z" horiz-adv-x="3023" 
d="M2132 120q20 0 30 -13.5t10 -29t-10 -28t-30 -12.5q-138 4 -277 4.5t-278.5 3.5t-278.5 10t-276 23q-15 2 -25.5 11t-14 20.5t0.5 24t18 21.5q65 45 125.5 95.5t119 102.5t118 103.5t123.5 97.5q104 75 205 150t190 167q-122 23 -246 39t-248 27t-248.5 19t-248.5 16
q-20 1 -30 14.5t-10 29t10 28t30 11.5q135 -8 271 -17t272 -22t270.5 -32t267.5 -47q12 -3 19 -11t9.5 -18t0 -21t-9.5 -19q-50 -59 -105 -109.5t-114 -97t-120.5 -90.5t-122.5 -89q-52 -38 -101.5 -79.5t-98 -84.5t-97.5 -85.5t-100 -82.5q124 -11 249 -16t250.5 -7
t250.5 -3t250 -4z" />
    <glyph glyph-name="bracketleft" unicode="[" horiz-adv-x="929" 
d="M793 -248q18 1 27 -10t9 -25t-9 -26.5t-27 -13.5q-68 -5 -136 -10.5t-135 -17.5t-131.5 -33t-123.5 -57q-9 -6 -19 -5.5t-18 5.5t-13.5 13t-5.5 19q12 238 2 474.5t-30.5 473t-44 472.5t-38.5 473q0 9 3 17q-5 16 3.5 33t30.5 18q61 3 122.5 11t122 16t121.5 14.5
t123 8.5q18 0 27 -11.5t9 -25.5t-9 -26t-27 -12q-57 -1 -113.5 -6.5t-113 -13t-112.5 -15.5t-112 -12q14 -228 36.5 -456t42.5 -456t31.5 -456.5t2.5 -457.5q58 28 120.5 45t126.5 27t129 15.5t129 10.5z" />
    <glyph glyph-name="backslash" unicode="\" horiz-adv-x="3015" 
d="M971 1197q284 -312 566 -621.5t566 -621.5q13 -15 11 -31.5t-13.5 -27.5t-27.5 -12.5t-29 13.5q-284 312 -565.5 621t-566.5 621q-14 15 -11.5 31.5t14 27.5t27 13t29.5 -13z" />
    <glyph glyph-name="bracketright" unicode="]" horiz-adv-x="1010" 
d="M684 1529q28 -240 46 -482t39.5 -483t53 -481t86.5 -477q2 -10 -1 -20t-9.5 -17.5t-16 -10.5t-20.5 1q-68 26 -137.5 36.5t-140.5 10.5t-142.5 -7t-141.5 -14q-18 -2 -27 9t-9 25t9 27t27 15q65 7 130.5 13t131.5 7.5t131 -4.5t128 -24q-50 230 -79 463t-50 467
t-38.5 468.5t-44.5 467.5q-57 -6 -115 -8t-115.5 -4.5t-115.5 -6.5t-115 -13q-18 -3 -30.5 7t-16 23.5t2.5 26.5t24 16q64 10 128 14.5t128 7.5t128.5 6t128.5 11q23 3 31 -13.5t3 -33.5q8 -9 9 -23z" />
    <glyph glyph-name="asciicircum" unicode="^" horiz-adv-x="1109" 
d="M293 1294q38 78 81 152.5t100 141.5q14 17 33.5 13t31.5 -18q59 -70 115.5 -142.5t112 -145.5t112.5 -145t118 -141q13 -15 11 -32t-12.5 -28.5t-26 -13.5t-28.5 13q-58 66 -112.5 134t-108 137l-107 138t-108.5 137q-48 -64 -84.5 -134t-72.5 -142q-19 -38 -41 -74.5
t-44.5 -72.5t-44 -72.5t-39.5 -74.5q-9 -18 -24.5 -21.5t-29.5 4t-21 23t1 33.5q20 43 44 84t49 81.5t49.5 81.5t45.5 84z" />
    <glyph glyph-name="underscore" unicode="_" horiz-adv-x="2792" 
d="M941 -1q-20 1 -30 15t-10 29.5t10 27.5t30 11q114 -9 228 -6t227.5 10t227.5 14.5t228 8.5q20 0 30 -12.5t10 -28t-10 -29t-30 -13.5q-114 -1 -228 -8.5t-227.5 -14.5t-227.5 -10t-228 6z" />
    <glyph glyph-name="grave" unicode="`" horiz-adv-x="553" 
d="M441 1311q-70 -71 -134 -146t-136 -144q-14 -14 -30.5 -11.5t-27.5 13.5t-13 27t13 30q72 69 135.5 144t133.5 146q14 14 30 12t27 -13t13.5 -27.5t-11.5 -30.5z" />
    <glyph glyph-name="a" unicode="a" horiz-adv-x="2614" 
d="M1843 318q18 -9 20 -25t-6 -29.5t-23 -20t-33 3.5q-53 28 -99 66.5t-87.5 83.5t-78 95t-69.5 101q-3 -7 -6.5 -13.5t-6.5 -12.5q-29 -50 -70.5 -95t-92 -78t-107.5 -52t-117 -17q-48 1 -85.5 19t-58.5 48t-22 70.5t25 85.5q29 52 70.5 97.5t91 80t106.5 56t118 25.5
q21 1 44 0t44.5 -7t40.5 -17.5t32 -30.5q6 -9 9.5 -18t5.5 -18q34 -56 71.5 -113t81 -110t93.5 -98.5t109 -76.5zM1118 413q85 18 153 69t111 127q3 6 8.5 16t10 21t7.5 22.5t2 21.5q0 1 -0.5 2t-0.5 2q-2 8 -6.5 14t-14.5 9q-32 11 -66.5 8.5t-66.5 -11.5
q-41 -11 -80.5 -32t-74 -49.5t-62.5 -63t-46 -73.5q-14 -33 -5 -52t30 -27.5t49 -8.5t52 5z" />
    <glyph glyph-name="b" unicode="b" horiz-adv-x="2571" 
d="M1670 460q4 -29 -7 -53t-30 -43.5t-43 -35t-46 -27.5q-57 -31 -117 -55t-125 -37q-7 -8 -17.5 -11.5t-21.5 -2t-20 8t-13 20.5q-35 116 -63 233.5t-54.5 235.5l-53 236t-57.5 235q-5 19 4.5 32.5t24.5 17.5t30.5 -2.5t20.5 -25.5q39 -148 71 -295.5t67 -296.5
q66 15 134.5 17.5t134.5 -14.5q26 -6 56 -17t56.5 -27.5t45.5 -39t23 -53.5zM1454 348q11 5 34 15.5t46 24t39.5 29t14.5 30.5q-3 22 -26.5 37.5t-54.5 24.5t-62 13t-48 5q-41 2 -80 -1.5t-78 -12.5q14 -56 28 -110.5t30 -109.5q41 9 80 22.5t77 32.5z" />
    <glyph glyph-name="c" unicode="c" horiz-adv-x="2608" 
d="M1605 647q2 -20 -10 -30t-27.5 -10t-29.5 10t-16 30q-5 62 -41 96.5t-89 45.5t-116 2t-121.5 -33t-105 -60.5t-67 -80.5t-8 -92t72.5 -96q84 -66 178 -93t192.5 -32t199.5 2t200 9q20 0 30 -12.5t10 -28t-10 -29t-30 -13.5q-91 -2 -183.5 -8.5t-183.5 -4.5t-180 18.5
t-173 61.5q-54 28 -97.5 64.5t-69 81.5t-30 98t21.5 115q19 47 58 85.5t89 66.5t107.5 44.5t115.5 19t112.5 -9t97 -38.5t70.5 -71.5t33 -107.5z" />
    <glyph glyph-name="d" unicode="d" horiz-adv-x="2652" 
d="M931 1017q33 7 90.5 14t128.5 10t149 1.5t152 -12.5t137 -32t104.5 -56.5t54.5 -87t-13 -121.5q-23 -60 -53.5 -116.5t-67 -110.5t-76.5 -105.5t-81 -100.5q-22 -26 -50.5 -65.5t-61.5 -77.5t-69.5 -68.5t-72.5 -38.5q-20 -5 -33 5.5t-17 25.5t2 29.5t26 19.5
q15 4 32 16.5t34 29.5q-46 196 -92.5 390t-105.5 388l-48 -8t-47 -9q-20 -4 -33 6.5t-17.5 25.5t2 29.5t26.5 18.5zM1609 659q9 17 19.5 36t19.5 38.5t14.5 40t5.5 40.5q-1 30 -25 52.5t-57 38t-68.5 25t-58.5 15.5q-78 18 -161 22t-166 -4q53 -177 96 -353t85 -356
q14 18 26.5 34t21.5 27q69 81 133 165.5t115 178.5z" />
    <glyph glyph-name="e" unicode="e" horiz-adv-x="2418" 
d="M1565 420q19 4 32.5 -6.5t18 -25.5t-2 -29.5t-26.5 -18.5q-74 -15 -156.5 -26.5t-165 -9.5t-161.5 22.5t-145 68.5q-46 33 -55 69t6 72t48 70t71.5 63t77 51t64.5 34q27 13 67.5 22t84.5 11.5t86.5 -3.5t72.5 -25t43.5 -52t-0.5 -83q-9 -35 -36 -60.5t-61.5 -43.5
t-71.5 -29.5t-67 -17.5q-36 -7 -72 -8.5t-72.5 1t-73 7t-72.5 9.5q8 -20 31.5 -35t53 -25t61 -16.5t55.5 -9.5q94 -14 183.5 -4.5t181.5 28.5zM1234 690q-52 -20 -107.5 -52t-95.5 -72q-1 -2 -2 -2.5t-2 -2.5q51 -8 108 -13t112 -0.5t103.5 23t81.5 59.5q23 27 18.5 42.5
t-25 22.5t-50.5 8t-59.5 -1t-53 -6t-28.5 -6z" />
    <glyph glyph-name="f" unicode="f" horiz-adv-x="2790" 
d="M2000 941q20 2 30 -10t10 -27.5t-10 -29.5t-30 -16q-219 -20 -428.5 -57.5t-419.5 -94.5q8 -38 16.5 -76t17.5 -76q94 22 187.5 36t190.5 16q20 0 30 -13t10 -28.5t-10 -28.5t-30 -13q-93 -2 -181.5 -15.5t-178.5 -34.5q16 -69 33 -136t37 -135q6 -19 -4 -32t-25 -17
t-30 2t-21 25q-38 125 -65.5 250.5t-56.5 253.5q-18 -5 -35.5 -10t-35.5 -11q-19 -6 -32 4t-17 25t2 30t25 21q18 6 36.5 11.5t37.5 10.5q-5 21 -10.5 41.5t-11.5 41.5q-5 19 4.5 32.5t24.5 17.5t30.5 -2.5t20.5 -25.5q12 -39 21 -83q216 58 430 96t438 58z" />
    <glyph glyph-name="g" unicode="g" horiz-adv-x="2513" 
d="M1683 372q16 -3 23 -14t6.5 -24.5t-8.5 -25.5t-21 -16q-36 -11 -88 -23t-112 -22t-125.5 -15.5t-129 -3t-121 15t-102 38.5t-72.5 68.5t-32 104.5q-6 88 27.5 160t92 124t136 83.5t160 39.5t162 -9.5t143.5 -62.5q16 -12 18 -28.5t-6 -30t-22.5 -19t-30.5 5.5
q-44 31 -96 47.5t-106 18.5t-107.5 -9.5t-100.5 -36.5q-25 -13 -53.5 -33.5t-54.5 -46t-47.5 -55.5t-32 -62t-8 -65t23.5 -65q31 -47 82.5 -70.5t114 -31.5t131 -2.5t133.5 17.5q-42 7 -82.5 13t-82.5 13q-20 3 -26.5 17t-2 29t17.5 26t33 8q92 -14 183 -29t183 -29z" />
    <glyph glyph-name="h" unicode="h" horiz-adv-x="2910" 
d="M1908 67q6 -19 -4 -32t-25 -17t-30 2t-21 25q-35 116 -63 233t-54 235q-65 2 -129 7t-128.5 9.5t-129 7.5t-128.5 1q24 -104 49.5 -206.5t55.5 -205.5q6 -20 -4 -33t-25 -17t-30 2t-21 25q-32 107 -58 214.5t-51 216.5q-27 -3 -54.5 -6.5t-54.5 -9.5q-20 -4 -33 6.5
t-17.5 25.5t2 29.5t26.5 18.5q29 6 56.5 10t56.5 6q-23 104 -46.5 206t-50.5 205q-5 19 4.5 32.5t24.5 17.5t30.5 -2.5t20.5 -25.5q29 -107 53 -213.5t48 -213.5q64 2 128 -0.5t128.5 -7t128.5 -9t129 -6.5q-21 93 -42.5 185t-45.5 185q-5 19 4.5 32t24.5 17t30.5 -2
t20.5 -25q30 -115 56.5 -230.5t52.5 -231t53.5 -231t61.5 -229.5z" />
    <glyph glyph-name="i" unicode="i" horiz-adv-x="2246" 
d="M1082 891q22 -83 41 -167t37.5 -168t38.5 -167.5t45 -165.5q6 -19 -4 -32t-25 -17t-30 2t-21 25q-25 82 -45 165.5t-38.5 167.5t-37.5 168t-41 167q-5 19 4.5 32.5t24.5 17.5t30.5 -2.5t20.5 -25.5z" />
    <glyph glyph-name="j" unicode="j" horiz-adv-x="2395" 
d="M1345 802q39 -101 64.5 -214.5t32.5 -229t-7 -229.5t-54 -216q-37 -94 -104.5 -153t-147.5 -78t-164 6.5t-153 100.5q-14 15 -11.5 31.5t14 28t27 13t29.5 -13.5q43 -48 97.5 -71.5t109.5 -21t105 32t86 89.5q47 78 67.5 166.5t21.5 179.5q2 140 -20 283t-74 274
q-7 18 2 31t24 17t31 -2t24 -24zM1252 928q-20 0 -30.5 13t-10.5 28.5t10.5 28.5t30.5 13t30 -13t10 -28.5t-10 -28.5t-30 -13z" />
    <glyph glyph-name="k" unicode="k" horiz-adv-x="2722" 
d="M1902 107q17 -10 19 -26.5t-5.5 -30t-23 -19.5t-32.5 4q-100 59 -194 122.5t-194 120.5q-62 35 -123 69t-119 73q21 -91 44 -180.5t49 -180.5q6 -19 -3.5 -32t-24.5 -17t-30 2t-21 25q-37 123 -67 247.5t-58 249.5l-56 250t-61 249q-5 19 4.5 32t24.5 17t30.5 -2
t20.5 -25q32 -124 60 -246t56 -247q112 37 224.5 59t230.5 24q20 0 30 -12.5t10 -28t-10 -29t-30 -13.5q-102 -2 -198 -19.5t-191 -46.5q70 -49 145.5 -88t147.5 -84q88 -54 172.5 -109.5t172.5 -107.5z" />
    <glyph glyph-name="l" unicode="l" horiz-adv-x="2737" 
d="M1847 337q20 3 29.5 -8.5t9.5 -27t-10 -30t-29 -17.5q-186 -25 -369.5 -59t-367.5 -73q-8 -3 -16 -3q-14 -1 -24.5 7t-15.5 19q-3 4 -3 12q-1 1 -1 4v2q0 8 1 12q35 189 58 377t25 381q0 20 13 30t28.5 10t28.5 -10t13 -30v-27q0 -6 -1 -9q-4 -174 -24.5 -343.5
t-49.5 -340.5q176 38 351.5 69.5t353.5 54.5z" />
    <glyph glyph-name="m" unicode="m" horiz-adv-x="2934" 
d="M2031 214q6 -19 -3.5 -32t-25 -17t-31 2t-21.5 25q-48 154 -95 306t-101 304q-71 -91 -139 -182.5t-128 -188.5q-11 -18 -30 -20t-35 12q-81 69 -154 148t-142 163q-5 -134 -15 -266t-27 -265q-2 -20 -16 -29.5t-30 -9.5t-27.5 9.5t-9.5 29.5q20 161 31 321t16 321
q0 12 8 22.5t19 16t23 4t21 -12.5q75 -95 154 -187t170 -173q68 105 143 204t152 197q8 10 18.5 12t20.5 -1.5t18.5 -11.5t11.5 -17q63 -169 116.5 -340t107.5 -344z" />
    <glyph glyph-name="n" unicode="n" horiz-adv-x="3030" 
d="M1165 868q3 11 11 18.5t18.5 10t21.5 0t19 -10.5q143 -143 285 -285.5t285 -286.5q20 75 37.5 150t34.5 150l34 150t37 150q5 19 20 25.5t30 2.5t25 -17.5t5 -32.5q-22 -83 -41 -167l-38 -168t-39 -167.5t-45 -165.5q-3 -11 -11 -18.5t-18 -10.5t-20.5 -0.5t-19.5 11.5
q-143 143 -284 285t-284 285q-19 -75 -35.5 -150t-33.5 -150t-35.5 -149.5t-40.5 -148.5q-6 -19 -21.5 -25.5t-30.5 -2.5t-24.5 17t-3.5 33q25 82 45 165.5t38.5 167.5t37.5 168t41 167z" />
    <glyph glyph-name="o" unicode="o" horiz-adv-x="2368" 
d="M1467 534q-5 -54 -28 -104t-60 -88t-86.5 -60t-107.5 -19q-56 3 -108 25t-92.5 59.5t-63.5 88t-20 110.5q3 55 25 107.5t59.5 92.5t88.5 63t111 20q58 -3 107.5 -24t86.5 -56.5t60 -84t28 -106.5q1 -3 1 -12q0 -8 -1 -12zM984 546q3 -64 33.5 -107.5t73.5 -65t93.5 -21.5
t93.5 22t73 64.5t34 107.5q-4 64 -36 107t-77.5 64.5t-97.5 22t-95.5 -21t-71 -64.5t-23.5 -108z" />
    <glyph glyph-name="p" unicode="p" horiz-adv-x="2377" 
d="M1440 801q28 -19 33.5 -46.5t-2 -57t-23.5 -57.5t-32 -47q-51 -62 -118 -106t-142 -72q35 -160 71.5 -317.5t82.5 -314.5q6 -20 -3.5 -33t-24.5 -17t-30 2t-21 25q-34 114 -62 228.5t-54.5 230t-52 231t-54.5 229.5q-15 -4 -28.5 2t-21.5 16.5t-7.5 23.5t14.5 24
q5 5 11 8.5t12 7.5q-3 16 5.5 27.5t21.5 16t26.5 1.5t21.5 -16q35 9 70 14.5t67 10.5q28 4 59.5 9t63 5.5t61.5 -5.5t56 -23zM1390 712q4 15 -3.5 22t-19.5 10t-25.5 2.5t-23.5 -0.5q-39 -2 -78 -7.5t-77 -13.5q-16 -4 -36.5 -6.5t-40.5 -7.5q14 -54 26.5 -107.5
t24.5 -107.5q48 18 92.5 44t80.5 61q23 23 47.5 50.5t32.5 60.5z" />
    <glyph glyph-name="q" unicode="q" horiz-adv-x="2451" 
d="M1450 -246q2 -20 -9.5 -29.5t-27 -9.5t-29.5 9.5t-16 29.5q-20 187 -28 372t-16 373q-26 -31 -55.5 -56.5t-63.5 -43.5t-72.5 -27.5t-81.5 -7.5q-49 2 -81.5 25.5t-50 59.5t-18.5 79t13 84q12 35 38 68t60 61t74.5 49.5t81.5 31.5t80.5 7t72.5 -22q9 6 20 7t21.5 -3
t18.5 -13.5t9 -23.5q2 -15 2.5 -30.5t2.5 -31.5q0 -2 0.5 -5t-0.5 -5q8 -119 13 -237.5l10 -237t12 -237t20 -236.5zM1156 464q56 29 94 74.5t67 99.5q-1 14 -2 29l-2 30l-1 1q-13 33 -40 44t-60 7t-69 -21t-67 -40t-53.5 -49t-28.5 -49q-4 -13 -7.5 -28.5t-4 -31t2.5 -30
t12 -26.5q13 -17 33.5 -23.5t43 -6.5t44.5 6t38 14z" />
    <glyph glyph-name="r" unicode="r" horiz-adv-x="2857" 
d="M2085 208q18 -9 20.5 -24.5t-5.5 -29t-23.5 -20t-33.5 2.5q-104 51 -211 96.5t-214 92t-212 96t-205 108.5q1 -118 0.5 -235.5t-0.5 -235.5q0 -20 -13 -30.5t-28.5 -10.5t-28.5 10.5t-13 30.5q0 131 0.5 261.5t-1.5 262.5q-16 13 -15.5 31t14.5 31q-2 97 -5 194t-10 195
q-1 20 11 30t27.5 10t29 -10t15.5 -30q2 -17 2.5 -34.5t1.5 -34.5q25 -4 61 -7.5t74.5 -9.5t76.5 -15.5t69.5 -24.5t51.5 -37t23 -54q5 -58 -22.5 -95t-72 -60.5t-99 -37t-104.5 -24.5q100 -59 204.5 -108t211 -95.5t213 -92t210.5 -96.5zM1433 828q-57 25 -118.5 33.5
t-122.5 18.5q2 -51 3.5 -102.5t3.5 -103.5q30 7 60.5 11t62.5 12q8 2 26 10t37.5 19.5t38 25.5t28 27.5t6.5 26.5t-25 22z" />
    <glyph glyph-name="s" unicode="s" horiz-adv-x="2739" 
d="M1751 571q51 -31 71.5 -65t14.5 -67t-35.5 -64t-77.5 -56q-36 -19 -76.5 -29.5t-82.5 -16.5t-84 -9.5t-81 -8.5q-103 -13 -204.5 -24t-204.5 -19q-20 -2 -30 10.5t-10 28t10 29t30 15.5q116 10 230.5 22t229.5 27q32 4 66.5 7.5t68.5 9.5t66.5 16.5t60.5 29.5
q27 18 33.5 33.5t0 28.5t-22.5 23.5t-34.5 18.5t-37 14t-29.5 9q-51 15 -103 28t-103 27.5t-102 31t-100 38.5q-21 9 -48 23t-47.5 32.5t-26 42t17.5 51.5q13 16 39 24t54.5 11.5t56 4.5t44.5 3q85 9 168 16.5t168 12.5q20 1 30 -11t10 -27.5t-10 -29.5t-30 -15
q-97 -5 -192 -14t-191 -20q-14 -1 -27 -3t-27 -4l7 -3.5t6 -3.5q25 -12 49.5 -22t49.5 -19q52 -18 109 -31.5t114 -27.5t111 -32t101 -46z" />
    <glyph glyph-name="t" unicode="t" horiz-adv-x="2690" 
d="M1876 199q18 8 34 1t24 -20.5t5 -28.5t-21 -23q-84 -36 -174 -57t-175 -13t-158.5 52t-123.5 138q-41 80 -66 169q-81 -17 -160.5 -37.5t-159.5 -44.5q-19 -6 -32 3.5t-17 24.5t2 30.5t25 21.5q81 25 161 45t161 37q-25 124 -30.5 250.5t-9.5 248.5q-1 20 11.5 30
t28.5 10t29 -10t14 -30q4 -119 8.5 -241.5t29.5 -241.5q92 17 183.5 30t186.5 22q20 2 29.5 -10t9.5 -28t-10 -30t-29 -15q-90 -8 -176.5 -20t-173.5 -29q3 -11 6.5 -22t7.5 -22q36 -102 93 -159.5t130 -77.5t159 -6.5t178 53.5z" />
    <glyph glyph-name="u" unicode="u" horiz-adv-x="2514" 
d="M951 780q-2 20 9.5 30t27.5 10t30 -10t16 -30q4 -40 10.5 -96.5t19 -116.5t33 -117t53 -96t80 -54t113.5 9q47 17 79.5 51t53.5 78.5t32 96.5t16 104.5t5.5 103t0.5 91.5q0 20 12.5 30t28 10t29 -10t13.5 -30q0 -52 -2.5 -117t-13 -132.5t-30 -132t-53.5 -115.5
t-85 -83.5t-122 -34.5q-76 -3 -130 22t-91.5 68.5t-60.5 101t-37.5 121t-22.5 127.5t-14 121z" />
    <glyph glyph-name="v" unicode="v" horiz-adv-x="2533" 
d="M1551 956q5 19 20 25.5t30 2.5t25 -17.5t5 -32.5q-31 -122 -62.5 -243t-66.5 -242q-12 -42 -23.5 -86.5t-24 -89t-28.5 -87.5t-37 -82q-6 -10 -15.5 -15t-20.5 -5t-20.5 5t-15.5 15q-21 40 -38 84t-31.5 89.5t-28.5 91t-29 88.5q-44 123 -86.5 246.5t-98.5 241.5
q-9 18 -2 33.5t20.5 23.5t28.5 5.5t24 -20.5q52 -109 92.5 -223.5t81.5 -228.5q12 -34 24.5 -73t25.5 -79.5t26 -80.5t27 -75q29 75 48 154.5t39 154.5q58 210 111 420z" />
    <glyph glyph-name="w" unicode="w" horiz-adv-x="2975" 
d="M1941 882q2 19 16 29t30 10t27.5 -9.5t9.5 -29.5q-20 -161 -31 -322t-16 -323q0 -12 -8 -22.5t-19 -16t-23 -4t-21 12.5q-72 92 -149 180.5t-163 168.5q-29 -96 -74 -186.5t-93 -177.5q-5 -8 -13 -13.5t-18 -7t-19 1.5t-15 11q-57 72 -116 144t-117.5 145t-114.5 147
t-106 151q-11 17 -5.5 32t19 23t30 6t27.5 -19q91 -138 196.5 -267t209.5 -259q46 85 85.5 173.5t60.5 182.5q3 12 11 19t18.5 9t21 -0.5t19.5 -9.5q82 -70 155 -149t142 -164q6 135 16 267.5t27 266.5z" />
    <glyph glyph-name="x" unicode="x" horiz-adv-x="2502" 
d="M1589 261q14 -14 12 -30t-13 -27t-27.5 -13t-30.5 12q-65 64 -127 129.5t-124 133.5q-32 -72 -62 -145t-57 -148q-7 -19 -23 -25t-31 -1.5t-24 17t-2 31.5q62 170 138 337q-77 86 -152.5 171t-153.5 170q-14 15 -11.5 31.5t14 27.5t27 13t29.5 -13q72 -79 142.5 -158.5
t142.5 -159.5q38 80 78 157.5t82 155.5q9 18 25 20t29.5 -6t20 -23t-3.5 -33q-45 -84 -87.5 -167.5t-83.5 -169.5q67 -74 134.5 -145.5t138.5 -141.5z" />
    <glyph glyph-name="y" unicode="y" horiz-adv-x="2467" 
d="M1483 816q7 18 23.5 24t31.5 2t24 -16.5t2 -31.5q-42 -103 -80.5 -205t-79.5 -205q0 -13 -9 -23q-28 -69 -56.5 -137t-60.5 -136q-8 -18 -23.5 -20.5t-29 5.5t-20.5 23.5t2 33.5q28 62 54.5 124.5t51.5 125.5q-51 71 -98.5 144.5t-96.5 146t-99.5 144t-107.5 138.5
q-13 15 -10 32t14 28t26.5 12.5t28.5 -13.5q53 -64 101.5 -131t95 -135t91.5 -137t92 -137q34 86 66.5 171.5t66.5 172.5z" />
    <glyph glyph-name="z" unicode="z" horiz-adv-x="2782" 
d="M1941 246q20 0 30 -13t10 -28.5t-10 -28.5t-30 -13q-249 1 -499.5 7.5t-498.5 29.5q-12 1 -22.5 8.5t-15.5 18t-3.5 22.5t12.5 22q94 81 196 149.5t207.5 131.5t213.5 123t213 123q-100 9 -200 14t-200 9.5t-200.5 10t-200.5 14.5q-20 2 -29.5 16t-9.5 29.5t9.5 27.5
t29.5 10q115 -11 231 -16.5t232 -10.5t231.5 -12.5t230.5 -21.5q15 -2 25.5 -11t14 -20.5t-0.5 -24t-18 -21.5q-104 -67 -211 -127.5t-214.5 -122t-212 -127t-202.5 -140.5q223 -17 446 -22t446 -6z" />
    <glyph glyph-name="braceleft" unicode="{" horiz-adv-x="941" 
d="M630 -87q16 -43 38.5 -80.5t48.5 -72.5t55 -68.5t58 -67.5q13 -15 10.5 -31t-13.5 -26.5t-26 -12.5t-28 13q-46 54 -87 105t-74 106t-56 116t-34 133q-9 55 -20.5 105.5t-31.5 95.5t-52.5 84t-82.5 71q-53 33 -107 62.5t-108 62.5q-20 12 -19.5 34t19.5 35q61 41 97 95
t55.5 116.5t27.5 132t12 141t8.5 143t17.5 140t39.5 130.5t74.5 114q13 15 28.5 13t26 -12.5t13 -27t-10.5 -30.5q-47 -51 -73 -109.5t-39 -122.5t-17.5 -131t-7.5 -135t-9 -134.5t-22 -128.5t-46.5 -118.5t-82.5 -104.5q46 -26 97 -52.5t97 -59t83.5 -71.5t56.5 -89
q17 -44 26 -90t16 -92t16 -92t26 -89z" />
    <glyph glyph-name="bar" unicode="|" horiz-adv-x="2394" 
d="M1101 1488q-1 18 10 27t25 9t26.5 -9t13.5 -27q15 -237 38.5 -474t44 -474t30.5 -474.5t-2 -475.5q-1 -18 -13 -27t-26 -9t-25 9t-10 27q12 238 1.5 475.5t-30.5 474.5t-44 474t-39 474z" />
    <glyph glyph-name="braceright" unicode="}" horiz-adv-x="940" 
d="M821 647q20 -13 19 -35t-19 -35q-61 -41 -97 -95t-55.5 -116.5t-27.5 -131.5t-12 -140.5t-8 -143.5t-17.5 -140t-39.5 -130t-74 -114q-14 -15 -29.5 -13t-26 12.5t-12.5 26.5t11 30q46 51 72.5 109.5t39.5 122.5t17.5 131t7.5 135t9 134.5t22 128.5t46.5 118.5
t82.5 104.5q-47 25 -97.5 52t-97 59.5t-83.5 71.5t-56 89q-17 44 -26 90t-16.5 92t-16.5 91.5t-26 89.5q-17 43 -39 80.5t-48 72.5t-55 68.5t-58 67.5q-12 15 -9.5 31t13 26.5t25.5 12.5t28 -13q46 -54 87 -105.5t74 -106t56.5 -115.5t34.5 -133q8 -55 19.5 -105.5t32 -95.5
t52.5 -84.5t82 -70.5q53 -33 107 -62.5t108 -61.5z" />
    <glyph glyph-name="asciitilde" unicode="~" horiz-adv-x="3105" 
d="M2352 645q19 3 32.5 -8t18 -26t-2 -29t-26.5 -17q-63 -10 -128.5 -29t-132.5 -38t-134.5 -33.5t-133.5 -17.5t-130.5 10t-125.5 51q-16 10 -29.5 23t-25.5 27t-24.5 27.5t-27.5 24.5q-14 11 -44.5 11t-64.5 -5.5t-64.5 -12.5t-43.5 -10q-66 -16 -130 -38t-126 -48
t-123 -55l-122 -58q-18 -9 -33.5 -2t-23.5 20.5t-5.5 29t20.5 24.5q57 27 115.5 55.5t118 55t120 48.5t123.5 37q31 7 74 18t88 17.5t88 5t73 -19.5q26 -16 45.5 -41.5t42.5 -44.5q68 -54 148 -64t162 6q55 11 108.5 25.5t107.5 29.5t107.5 28.5t108.5 22.5z" />
    <glyph glyph-name="uni00A0" unicode="&#xa0;" horiz-adv-x="0" 
 />
    <glyph glyph-name="exclamdown" unicode="&#xa1;" horiz-adv-x="493" 
d="M310 29q-38 144 -70.5 288t-64.5 290q-5 19 5.5 32.5t26 17.5t30 -2.5t19.5 -25.5q32 -146 64.5 -290t70.5 -288q5 -20 -5 -33t-25 -17t-30.5 2t-20.5 26zM141 1092q20 0 30 -13t10 -28.5t-10 -28.5t-30 -13t-30.5 13t-10.5 28.5t10.5 28.5t30.5 13z" />
    <glyph glyph-name="guillemotleft" unicode="&#xab;" 
d="M441 1311q-70 -71 -134 -146t-136 -144q-14 -14 -30.5 -11.5t-27.5 13.5t-13 27t13 30q72 69 135.5 144t133.5 146q14 14 30 12t27 -13t13.5 -27.5t-11.5 -30.5zM476 1021q-14 -14 -30.5 -11.5t-27.5 13.5t-13 27t13 30q72 69 135.5 144t133.5 146q14 14 30.5 12
t27.5 -13t13 -27.5t-12 -30.5q-70 -71 -134 -146t-136 -144z" />
    <glyph glyph-name="degree" unicode="&#xb0;" horiz-adv-x="611" 
d="M511 1206q0 -9 -1 -13q-4 -38 -21 -74t-43.5 -63t-62 -42t-77.5 -13q-40 2 -77.5 18t-67 43t-46 63.5t-14.5 80.5q2 40 18 77.5t43 66.5t63.5 46t80.5 14q42 -2 77.5 -17t62.5 -40t43.5 -59.5t20.5 -75.5q1 -4 1 -12zM185 1206q2 -39 20 -65.5t44.5 -39.5t56.5 -13
t56.5 13t45 39.5t20.5 65.5q-2 39 -21.5 65t-47.5 39t-59.5 13t-57.5 -13t-42.5 -39t-14.5 -65z" />
    <glyph glyph-name="plusminus" unicode="&#xb1;" horiz-adv-x="2792" 
d="M1852 716q20 0 30 -13t10 -28.5t-10 -28.5t-30 -13q-112 -2 -223 -9t-223 -14v-345q0 -20 -13 -30.5t-28.5 -10.5t-28.5 10.5t-13 30.5v340q-96 -5 -190.5 -6t-191.5 6q-20 1 -30 15t-10 29.5t10 27.5t30 11q97 -8 191.5 -6.5t190.5 6.5v294q0 20 13 30t28.5 10t28.5 -10
t13 -30v-289q112 7 223 14t223 9zM941 76q-20 1 -30 15t-10 29.5t10 27.5t30 11q114 -9 228 -6t227.5 10t227.5 15t228 9q20 0 30 -13t10 -28.5t-10 -28.5t-30 -13q-114 -1 -228 -9t-227.5 -15t-227.5 -10t-228 6z" />
    <glyph glyph-name="acute" unicode="&#xb4;" horiz-adv-x="553" 
d="M112 1311q-14 14 -12 30.5t13 27.5t27.5 13t30.5 -12q69 -71 133 -146t136 -144q15 -14 13 -30t-13 -27t-27.5 -13.5t-31.5 11.5q-72 69 -135.5 144t-133.5 146z" />
    <glyph glyph-name="periodcentered" unicode="&#xb7;" horiz-adv-x="1882" 
d="M941 505q-20 0 -30.5 13t-10.5 28.5t10.5 28.5t30.5 13t30 -13t10 -28.5t-10 -28.5t-30 -13z" />
    <glyph glyph-name="guillemotright" unicode="&#xbb;" 
d="M441 12q-70 -71 -134 -146t-136 -144q-14 -14 -30.5 -11.5t-27.5 13.5t-13 26.5t13 29.5q72 69 135.5 144t133.5 146q14 15 30 13t27 -13t13.5 -27.5t-11.5 -30.5zM476 -278q-14 -14 -30.5 -11.5t-27.5 13.5t-13 26.5t13 29.5q72 69 135.5 144t133.5 146q14 15 30.5 13
t27.5 -13t13 -27.5t-12 -30.5q-70 -71 -134 -146t-136 -144z" />
    <glyph glyph-name="questiondown" unicode="&#xbf;" horiz-adv-x="1451" 
d="M282 90q-10 4 -18 12t-11 18t-1 20.5t11 19.5q66 58 136 109.5t142 100.5t144 97.5t142 101.5q16 12 30.5 6.5t22.5 -19t6.5 -30.5t-17.5 -29q-60 -45 -122.5 -87.5t-125 -84.5t-123.5 -85.5t-119 -91.5q94 -23 192 -25t197 6.5t198 20t194 15.5q20 1 30 -11.5t10 -28.5
t-10 -29t-30 -14q-108 -4 -219.5 -17.5t-223 -20.5t-221 0.5t-214.5 45.5zM785 970q-20 0 -30 13t-10 28.5t10 28.5t30 13t30 -13t10 -28.5t-10 -28.5t-30 -13z" />
    <glyph glyph-name="Oslash" unicode="&#xd8;" horiz-adv-x="2381" 
d="M1403 1014q10 17 26 19t29.5 -5.5t19.5 -23t-4 -32.5q-29 -51 -57.5 -101.5t-56.5 -101.5q48 -36 77 -90t35 -121q1 -3 1 -12q0 -8 -1 -12q-5 -54 -28 -104t-60 -88t-86.5 -60t-107.5 -19q-49 3 -92 19q-57 -104 -120 -204q-11 -17 -27 -19t-29.5 6t-19.5 23t5 32
q31 50 60 99.5t58 100.5q-55 38 -88.5 96t-29.5 130q3 55 25 107.5t59.5 92.5t88 63t110.5 20q51 -3 98 -20q28 52 56.5 103t58.5 102zM990 546q3 -52 23.5 -90t51.5 -62q47 84 91 167.5t89 168.5q-44 13 -90.5 8t-84 -28t-60.5 -64t-20 -100zM1390 546q-2 49 -21.5 85
t-49.5 61q-45 -84 -89 -167t-89 -167q41 -10 84 -3t78.5 30.5t59.5 63.5t27 97z" />
    <glyph glyph-name="divide" unicode="&#xf7;" horiz-adv-x="2790" 
d="M1398 1092q20 0 30 -13t10 -28t-10 -28t-30 -13t-30.5 13t-10.5 28t10.5 28t30.5 13zM1398 83q20 0 30 -13t10 -28.5t-10 -28.5t-30 -13t-30.5 13t-10.5 28.5t10.5 28.5t30.5 13zM941 492q-20 1 -30 15t-10 29t10 27t30 11q114 -8 227.5 -5t227 10t227 14.5t227.5 8.5
q20 0 30 -12.5t10 -28t-10 -29t-30 -13.5q-114 -1 -227.5 -8.5t-227 -14.5t-227 -10t-227.5 6z" />
    <glyph glyph-name="afii10023" unicode="&#x401;" horiz-adv-x="2817" 
d="M1226 1310q0 57 0.5 112.5t-4.5 111.5q-2 20 10.5 30t28 10t29 -10t15.5 -30q5 -56 4.5 -111.5t-0.5 -112.5q0 -20 -13 -30t-28.5 -10t-28.5 10t-13 30zM1653 1338q1 57 1.5 112t-4.5 112q-2 20 10.5 30t28 10t29 -10t15.5 -30q5 -57 4 -112t-1 -112q0 -20 -13 -30.5
t-28.5 -10.5t-28.5 10.5t-13 30.5zM1976 374q20 1 30 -11t10 -27.5t-10 -29.5t-30 -15q-44 -3 -114.5 -10.5t-156 -14t-179 -10t-184.5 2t-172.5 22.5t-142.5 51t-95.5 88t-30.5 133q2 49 24.5 87t58 67.5t80.5 50.5t92 35t93 22.5t84 12.5q39 4 86.5 7t98 2t101.5 -7.5
t96.5 -21.5t84 -40t63.5 -63q13 -18 3 -35.5t-27 -25.5q-83 -34 -175.5 -46t-187 -7.5t-187 23.5t-174.5 46q-5 2 -8.5 4.5t-7.5 4.5q-38 -20 -65.5 -42.5t-41.5 -48t-12 -53.5t23 -57q38 -51 102.5 -77t138 -36t147 -9.5t129.5 1.5q115 2 228 11t228 16zM1752 702
q-41 28 -104 41.5t-136 14.5t-149.5 -10t-145.5 -32q64 -17 132 -28.5t136.5 -14.5t136 4t130.5 25z" />
    <glyph glyph-name="afii10017" unicode="&#x410;" horiz-adv-x="2781" 
d="M1418 1030q85 -224 197.5 -434t256.5 -402q12 -16 6.5 -30.5t-19 -22.5t-30.5 -6.5t-29 17.5q-45 60 -86.5 122t-79.5 125q-2 0 -2.5 -0.5t-2.5 -0.5q-126 -19 -251 -29.5t-253 -19.5q-39 -73 -76.5 -146.5t-71.5 -148.5q-8 -18 -23.5 -20.5t-29 5.5t-20.5 23.5t1 33.5
q29 63 60 124.5t63 122.5l-30 -2t-29 -2q-20 -2 -30 10.5t-10 28t10 29t30 14.5q26 2 52.5 4t52.5 4q39 73 76.5 146t72 147.5t64 151t51.5 156.5q4 16 15 23t24 6.5t24.5 -8t16.5 -21.5zM1171 435q105 7 209 16t208 24q-59 103 -110 207.5t-96 213.5q-42 -121 -96.5 -234.5
t-114.5 -226.5z" />
    <glyph glyph-name="afii10018" unicode="&#x411;" horiz-adv-x="3011" 
d="M2020 1084q20 0 30 -13t10 -28.5t-10 -28.5t-30 -13h-853q17 -63 31.5 -124.5t28.5 -124.5q51 -8 100.5 -17.5t99.5 -22.5q33 -8 78 -20t88.5 -31.5t77.5 -47t45 -67.5q10 -39 -2 -69.5t-40.5 -53.5t-69.5 -40t-87.5 -29t-96 -20t-94.5 -12q16 -66 33 -131t37 -131
q6 -20 -4 -33t-25 -17t-30 2t-21 25q-20 70 -38.5 139.5t-35.5 139.5q-18 -1 -33 -1t-26 -1q-20 0 -30 12.5t-10 28t10 29t30 13.5q10 0 19.5 0.5t19.5 1.5q-17 70 -32 140t-31 140q-32 4 -64 7.5t-64 7.5q-20 2 -29.5 16t-9.5 30t9.5 27.5t29.5 9.5q28 -3 55 -6.5t54 -6.5
q-14 60 -28 118.5t-30 118.5h-142q-20 0 -30 13t-10 28.5t10 28.5t30 13h174h906zM1582 570q-77 40 -162.5 62t-173.5 35q15 -66 29.5 -130.5t30.5 -130.5q35 5 69.5 10.5t68.5 13.5q16 3 42.5 9.5t54 16t51 21.5t33.5 26t1.5 31t-44.5 36z" />
    <glyph glyph-name="afii10019" unicode="&#x412;" horiz-adv-x="2817" 
d="M1835 460q10 -4 18 -12t11 -18t1 -20t-11 -19q-56 -52 -119.5 -88.5t-131.5 -62t-139.5 -43t-144.5 -30.5q4 -13 7 -25t7 -25q6 -19 -4 -32t-25 -17t-30 2t-21 25q-30 101 -54.5 203.5t-48 205t-46.5 205t-49 204.5q-29 -1 -57 -0.5t-57 2.5q-20 2 -30 16t-10 29.5
t10 27.5t30 10q62 -6 124 -2.5t123.5 10t123 13.5t122.5 7.5t122 -8t122 -32.5q22 -9 28.5 -29.5t-10.5 -39.5q-43 -49 -94 -87t-105 -72t-107.5 -68t-101.5 -76q140 -29 276.5 -64.5t270.5 -89.5zM1589 927q-56 13 -112 15.5t-112 -1t-112.5 -10.5t-113.5 -12
q17 -68 33 -135t31 -136q43 42 92 76t99.5 65.5t100.5 64.5t94 73zM1227 542q17 -75 34 -148.5t36 -146.5q59 10 118 23t115.5 31.5t110 44t102.5 61.5q-127 46 -255.5 77t-260.5 58z" />
    <glyph glyph-name="afii10020" unicode="&#x413;" horiz-adv-x="2546" 
d="M1556 968q20 0 30 -13t10 -28t-10 -28t-30 -13h-493q22 -89 42 -178t40 -178.5t42 -178t48 -176.5q6 -19 -4 -32t-25 -17t-30 2t-21 25q-27 91 -49 182.5t-43 184t-42 184.5t-44 184q-15 5 -21.5 18t-5 27t11.5 24.5t28 10.5h566v0z" />
    <glyph glyph-name="afii10021" unicode="&#x414;" horiz-adv-x="3337" 
d="M2447 172q20 0 30 -13t10 -28.5t-10 -28.5t-30 -13h-1209q-9 -17 -16 -35q-8 -17 -22.5 -20t-27.5 3.5t-21 20.5t-3 31h-358q-20 0 -30 13t-10 28.5t10 28.5t30 13h396q52 106 108.5 210t110 210t100 214.5t78.5 223.5q4 16 15 23t24 6.5t24.5 -8t16.5 -21.5
q85 -224 197.5 -434t256.5 -402q8 -11 8 -22h322zM1627 896q-33 -95 -75 -186.5t-87.5 -181t-93.5 -178t-93 -178.5h753q-125 168 -224.5 349t-179.5 375z" />
    <glyph glyph-name="afii10022" unicode="&#x415;" horiz-adv-x="2817" 
d="M901 553q2 49 24.5 87t58 67.5t80.5 50.5t92 35t93 22.5t84 12.5q39 4 86.5 7t98 2t101.5 -7.5t96.5 -21.5t84 -40t63.5 -63q13 -18 3 -35.5t-27 -25.5q-83 -34 -175.5 -46t-187 -7.5t-187 23.5t-174.5 46q-5 2 -8.5 4.5t-7.5 4.5q-38 -20 -65.5 -42.5t-41.5 -48
t-12 -53.5t23 -57q38 -51 102.5 -77t138 -36t147 -9.5t129.5 1.5q115 2 228 11t228 16q20 1 30 -11t10 -27.5t-10 -29.5t-30 -15q-44 -3 -114.5 -10.5t-156 -14t-179 -10t-184.5 2t-172.5 22.5t-142.5 51t-95.5 88t-30.5 133zM1752 702q-41 28 -104 41.5t-136 14.5
t-149.5 -10t-145.5 -32q64 -17 132 -28.5t136.5 -14.5t136 4t130.5 25z" />
    <glyph glyph-name="afii10024" unicode="&#x416;" horiz-adv-x="2906" 
d="M1977 366q19 -6 25 -21.5t2 -30.5t-17 -24t-32 -3q-115 36 -223.5 82t-217.5 97q1 -134 0 -265.5t-1 -265.5q0 -20 -13 -30t-28.5 -10t-28.5 10t-13 30q0 134 1 265.5t0 265.5q-13 -8 -25 -15t-25 -15q-44 -25 -92 -46t-96 -43t-93 -47.5t-82 -58.5q-15 -13 -32 -10.5
t-28 13.5t-12.5 26.5t13.5 28.5q41 36 88 63t96.5 50l99 46t96.5 50q10 5 19 11t19 11q-111 53 -222 103t-226 93q-19 7 -25 23t-1.5 31t17 24t31.5 2q124 -46 242.5 -100t236.5 -111q-1 142 -5 281.5t-13 281.5q-2 20 10.5 30t28 10t29 -10t15.5 -30q8 -137 12 -272.5
t6 -272.5q129 79 255 162q17 11 32 5.5t23 -19t6 -30t-19 -27.5q-65 -42 -128.5 -83.5t-129.5 -81.5q105 -49 210 -93.5t215 -79.5z" />
    <glyph glyph-name="afii10025" unicode="&#x417;" horiz-adv-x="2717" 
d="M1785 413q10 -4 18 -12t11 -17.5t1 -20t-11 -19.5q-60 -55 -127 -93t-140 -64t-149.5 -43.5t-154.5 -30.5q-20 -3 -33 7.5t-17 25.5t2 29.5t26 17.5q64 11 127.5 24.5t125 32t119 45.5t110.5 65q-135 49 -272.5 81t-277.5 61q-12 3 -19 11t-9.5 18t0 21t9.5 19
q43 50 95.5 88t107.5 72.5t109.5 69.5t102.5 79q-80 19 -160.5 17t-161.5 -11t-162.5 -17t-163.5 0q-20 2 -30 15.5t-10 29t10 27.5t30 11q62 -6 124 -2.5t123.5 10l123 13t122.5 7t122 -8t122 -32.5q22 -8 28.5 -29t-10.5 -40q-43 -49 -94 -87t-105 -72t-107.5 -68
t-101.5 -76q140 -29 276.5 -64.5t270.5 -89.5z" />
    <glyph glyph-name="afii10026" unicode="&#x418;" horiz-adv-x="3105" 
d="M2023 27q-53 175 -93.5 352.5t-85.5 353.5q-143 -143 -284 -284.5t-284 -284.5q-8 -9 -19 -11.5t-21 0.5t-18 10.5t-11 18.5q-32 106 -57.5 214t-49 216l-47 216t-51.5 215q-5 19 4.5 32.5t24.5 17.5t30.5 -2t20.5 -25q26 -99 48 -198.5t43.5 -199t44 -199t49.5 -197.5
q143 144 285 286l285 285q8 8 19 10.5t21 0t18 -10t11 -18.5q26 -97 49 -194t46.5 -194.5t48 -194.5t53.5 -193q6 -20 -4 -33t-25 -17t-30 2t-21 26z" />
    <glyph glyph-name="afii10027" unicode="&#x419;" horiz-adv-x="3105" 
d="M1335 1519q-20 0 -30.5 13t-10.5 28.5t10.5 28.5t30.5 13h435q20 0 30 -13t10 -28.5t-10 -28.5t-30 -13h-435zM2023 27q-53 175 -93.5 352.5t-85.5 353.5q-143 -143 -284 -284.5t-284 -284.5q-8 -9 -19 -11.5t-21 0.5t-18 10.5t-11 18.5q-32 106 -57.5 214t-49 216
l-47 216t-51.5 215q-5 19 4.5 32.5t24.5 17.5t30.5 -2t20.5 -25q26 -99 48 -198.5t43.5 -199t44 -199t49.5 -197.5q143 144 285 286l285 285q8 8 19 10.5t21 0t18 -10t11 -18.5q26 -97 49 -194t46.5 -194.5t48 -194.5t53.5 -193q6 -20 -4 -33t-25 -17t-30 2t-21 26z" />
    <glyph glyph-name="afii10028" unicode="&#x41a;" horiz-adv-x="3001" 
d="M1118 14v532.5t-17 532.5q-1 20 11 30t27.5 10t29 -10t15.5 -30q8 -115 11 -228.5t5 -228.5q143 100 285 199t292 187q17 10 32.5 4t23 -19.5t5.5 -29.5t-19 -26q-149 -88 -290 -185.5t-282 -197.5q104 -59 207 -121t206.5 -123.5t207.5 -121t211 -114.5
q18 -9 20.5 -24.5t-5.5 -29t-23 -20t-33 2.5q-108 55 -213 114.5t-208.5 121.5l-207 124t-208.5 122q1 -118 0.5 -235.5t-0.5 -235.5q0 -20 -13 -30.5t-28.5 -10.5t-28.5 10.5t-13 30.5z" />
    <glyph glyph-name="afii10029" unicode="&#x41b;" horiz-adv-x="2781" 
d="M1418 1030q85 -224 197.5 -434t256.5 -402q12 -16 6.5 -30.5t-19 -22.5t-30.5 -6.5t-29 17.5q-129 173 -232.5 359t-185.5 385q-39 -111 -89 -216.5t-104 -209t-109 -207t-103 -209.5q-9 -18 -24 -20.5t-28.5 5.5t-20.5 23.5t1 33.5q53 117 114.5 231t120.5 228.5
t111 232t87 242.5q4 16 15 23t24 6.5t24.5 -8t16.5 -21.5z" />
    <glyph glyph-name="afii10030" unicode="&#x41c;" horiz-adv-x="3191" 
d="M1991 1089q3 16 16 23.5t27 6t26 -11.5t13 -28q18 -266 17.5 -532.5t-0.5 -532.5q0 -20 -13 -30.5t-28.5 -10.5t-28.5 10.5t-13 30.5q1 235 1.5 468t-10.5 468q-109 -163 -222 -319.5t-230 -313.5q-11 -15 -30.5 -19.5t-34.5 11.5q-33 35 -58 77t-46 86.5t-40 90.5
t-41 88q-26 52 -51.5 104t-49.5 106q8 -213 7 -423.5t-1 -423.5q0 -20 -13 -30.5t-28.5 -10.5t-28.5 10.5t-13 30.5v532.5t-17 532.5q-1 12 4 20.5t13 13t18 5.5t19 -2q11 -1 21.5 -7.5t15.5 -20.5q35 -103 80.5 -200.5t95.5 -194.5q17 -34 33 -71.5t32.5 -75t34.5 -74
t41 -67.5q125 170 246.5 338.5t235.5 345.5z" />
    <glyph glyph-name="afii10031" unicode="&#x41d;" horiz-adv-x="2950" 
d="M1806 1054q33 -124 61.5 -248.5t56.5 -249.5t58 -249t66 -247q6 -19 -4 -32t-25 -17t-30 2t-21 25q-38 130 -69 259.5t-61 260.5h-690q29 -126 58.5 -250t66.5 -248q6 -19 -4 -32t-25 -17t-30 2t-21 25q-36 123 -66 247t-58 249t-56 249.5t-61 248.5q-5 19 4.5 32.5
t24.5 17.5t30.5 -2.5t20.5 -25.5q27 -103 51 -206t47 -207h690q-22 99 -44.5 196.5t-48.5 194.5q-5 19 4.5 32.5t24.5 17.5t30 -2.5t20 -25.5z" />
    <glyph glyph-name="afii10032" unicode="&#x41e;" horiz-adv-x="2515" 
d="M1613 540q-6 -68 -34.5 -131.5t-75 -112.5t-109 -76.5t-136.5 -23.5q-69 4 -135 31.5t-116.5 75t-80 111t-25.5 139.5q5 85 36.5 149.5t80.5 107.5t110 64.5t125 22.5t125.5 -19.5t111.5 -62t83 -104t40 -146.5q2 -8 2 -12q0 -5 -2 -13zM984 553q5 -88 46 -147
t100.5 -88.5t127.5 -29.5t127.5 29.5t100.5 88.5t46 147q-3 53 -24.5 103.5t-57.5 89.5t-85 61t-107 19q-54 -3 -104.5 -24t-89 -57t-61 -85t-19.5 -107z" />
    <glyph glyph-name="afii10033" unicode="&#x41f;" horiz-adv-x="2683" 
d="M1596 938q25 -95 46.5 -190.5t43 -191.5t44.5 -191.5t51 -189.5q6 -19 -4 -32t-25 -17t-30 2t-21 25q-53 181 -92 365.5t-86 367.5h-460q22 -89 42 -178t40 -178.5t42 -178t48 -176.5q6 -19 -4 -32t-25 -17t-30 2t-21 25q-27 91 -49 182.5t-43 184t-42 184.5t-44 184
q-15 5 -21.5 18t-5 27t11.5 24.5t28 10.5h566q12 0 19 -4t12.5 -10t8.5 -16z" />
    <glyph glyph-name="afii10034" unicode="&#x420;" horiz-adv-x="2579" 
d="M1674 847q10 -38 -2 -68.5t-40 -54t-68.5 -40.5t-87 -29t-95.5 -19.5t-94 -12t-82.5 -6t-61.5 -2.5q32 -140 64.5 -278.5t73.5 -276.5q6 -19 -4 -32t-25 -17t-30 2t-21 25q-35 119 -64.5 240t-56.5 242.5t-54.5 242.5t-58.5 241q-10 8 -14 20t-2.5 23t8.5 19.5t20 10.5
q12 7 25.5 6.5t23.5 -10.5q91 -11 180 -24t177 -36q33 -8 78 -20t88.5 -31.5t77.5 -47t45 -67.5zM1402 731q16 3 42.5 9.5t54 16t51 21.5t33.5 26t1.5 31t-44.5 36q-54 28 -113.5 47.5t-121.5 32t-125 21t-124 15.5q19 -73 36 -146l34 -146q6 3 15 3q66 2 131.5 10.5
t129.5 22.5z" />
    <glyph glyph-name="afii10035" unicode="&#x421;" horiz-adv-x="2722" 
d="M1690 119h-117t-133 4.5t-138.5 14.5t-132.5 29t-116.5 49.5t-90.5 75.5t-53 106t-4 142q14 96 65 174t125.5 133.5t166.5 87.5t187 37.5t187 -18t167 -77.5q16 -12 17.5 -29t-6 -30.5t-22.5 -18.5t-31 7q-61 44 -143 63.5t-169 15.5t-171 -31.5t-150 -76.5t-106 -119.5
t-38 -160.5q2 -84 38.5 -138.5t95.5 -87t134 -48t153 -20t152.5 -3t132.5 1.5q20 0 30 -13t10 -28.5t-10 -28.5t-30 -13z" />
    <glyph glyph-name="afii10036" unicode="&#x422;" horiz-adv-x="2998" 
d="M1958 1008q20 0 30 -13t10 -28.5t-10 -28.5t-30 -13h-462q25 -98 46.5 -197.5t43.5 -198.5t46 -197.5t53 -195.5q6 -20 -4 -33t-25 -17t-30 2t-21 25q-30 100 -54 202t-46.5 204t-45.5 203.5t-49 202.5h-570q-20 0 -30 13t-10 28.5t10 28.5t30 13h1118v0z" />
    <glyph glyph-name="afii10037" unicode="&#x423;" horiz-adv-x="2410" 
d="M1427 906q7 18 23 24t31 2t24 -16.5t2 -30.5q-71 -178 -138 -354.5t-147 -350.5q-9 -18 -24 -21t-28.5 5t-20.5 23.5t1 33.5q32 69 61 138t57 139q-85 89 -175.5 170t-179.5 166q-15 14 -13 30t13 27t27.5 13.5t30.5 -11.5q83 -79 167 -154.5t163 -156.5q32 81 63 162
t63 162z" />
    <glyph glyph-name="afii10038" unicode="&#x424;" horiz-adv-x="2946" 
d="M2041 855q13 -48 -8.5 -83.5t-65 -61t-102 -41.5t-119 -25.5t-116.5 -14t-94 -5.5q32 -143 65 -284.5t75 -281.5q6 -20 -4 -33t-25 -17t-30 2.5t-21 25.5q-43 144 -77 289.5t-66 292.5q-51 17 -105 22t-108.5 8.5t-108 10t-104.5 26.5q-26 10 -53 28t-46 41.5t-26 52
t7 59.5q13 30 38 52.5t56 39t63.5 28.5t61.5 21q48 15 95.5 28t95.5 24q3 12 12 20t26 6q10 -1 19.5 -2t18.5 -2q9 0 13 -1q9 1 22 5q14 3 24 -1t17 -12q71 -10 141.5 -21.5t139.5 -29.5q33 -9 78 -21t88.5 -31t77.5 -46.5t45 -67.5zM1215 731q54 -5 108.5 -7.5t108.5 -14.5
q-16 70 -32.5 139.5t-34.5 139.5q-47 -9 -98 -19.5t-99 -25.5t-91 -36t-74 -51q-22 -21 -18 -38t24 -31t50.5 -24t61.5 -17t57 -10.5t37 -4.5zM1770 739q16 3 42.5 9.5t54 16t50.5 21t33 26t2 31t-44 35.5q-52 27 -108 45.5t-114.5 31.5t-118 21.5t-117.5 15.5
q18 -72 34.5 -143t32.5 -143q64 2 127 10.5t126 22.5z" />
    <glyph glyph-name="afii10039" unicode="&#x425;" horiz-adv-x="2621" 
d="M1368 545q88 -81 173.5 -163.5t167.5 -170.5q13 -15 11 -31.5t-13 -27.5t-27 -13t-30 13q-76 81 -155 158t-160 152q-27 -66 -55 -132t-58 -132q-9 -18 -24 -20.5t-28.5 5.5t-20.5 23.5t1 33.5q32 70 61.5 140t58.5 142q-91 83 -180 164.5t-177 166.5q-15 14 -13 30
t13 27t27.5 13t30.5 -12q82 -78 164.5 -153.5t166.5 -152.5q32 80 62.5 160t62.5 160q7 18 23 24t31 2t24 -16.5t2 -31.5q-35 -90 -69.5 -179t-69.5 -179z" />
    <glyph glyph-name="afii10040" unicode="&#x426;" horiz-adv-x="3102" 
d="M2412 313q20 0 30 -13t10 -28.5t-10 -28.5t-30 -13q-103 1 -207.5 4t-209 3.5t-208.5 -4.5t-206 -20t-201 -44t-194 -76q-14 -16 -36 -14q-11 -1 -20.5 4t-15.5 13.5t-8.5 18.5t0.5 19q-23 79 -42 159.5t-37 161t-36 160.5t-39 160q-5 19 4.5 32.5t24.5 17.5t30.5 -2.5
t20.5 -25.5q20 -77 37.5 -154l35 -154t35.5 -154.5t39 -153.5q132 61 268.5 90t278.5 40q-24 81 -43.5 162t-37.5 163t-36.5 163.5t-40.5 162.5q-5 19 4.5 32.5t24.5 17.5t30.5 -2.5t20.5 -25.5q22 -83 41 -167t37.5 -167.5t38.5 -167t45 -165.5q0 -1 1 -1q150 6 300.5 2
t300.5 -5z" />
    <glyph glyph-name="afii10041" unicode="&#x427;" horiz-adv-x="2744" 
d="M1593 993q12 -3 20.5 -12.5t10.5 -24.5q9 -107 13.5 -214t5.5 -214t0 -214t-1 -214q0 -20 -13 -30t-28.5 -10t-28.5 10t-13 30q1 164 1.5 325.5t-6.5 324.5q-32 -58 -75.5 -109t-96 -86.5t-113 -50t-126.5 0.5q-55 13 -96.5 40.5t-72 65.5t-51.5 84t-35.5 96t-23 101.5
t-13.5 100.5q-2 20 9.5 29.5t27.5 9.5t30 -10t16 -29q3 -32 8.5 -72t15 -81.5t23.5 -81.5t35 -74t50 -58.5t68 -33.5q55 -13 104 -4t92 34t78 63t62 83t45 94t26 96q0 15 6 23q8 12 20.5 14.5t25.5 -2.5z" />
    <glyph glyph-name="afii10042" unicode="&#x428;" horiz-adv-x="3362" 
d="M2459 317q7 -23 -8 -38q3 -17 -6.5 -33t-32.5 -16q-103 1 -207.5 4t-209 3.5t-208.5 -4.5t-206 -20t-201 -44t-194 -76q-14 -16 -36 -14q-11 -1 -20.5 4t-15.5 13.5t-8.5 18.5t0.5 19q-23 79 -42 159.5t-37 161t-36 160.5t-39 160q-5 19 4.5 32.5t24.5 17.5t30.5 -2.5
t20.5 -25.5q20 -77 37.5 -154l35 -154t35.5 -154.5t39 -153.5q132 61 268.5 90t278.5 40q-24 81 -43.5 162t-37.5 163t-36.5 163.5t-40.5 162.5q-5 19 4.5 32.5t24.5 17.5t30.5 -2.5t20.5 -25.5q22 -83 41 -167t37.5 -167.5t38.5 -167t45 -165.5q0 -1 1 -1q141 6 281.5 2.5
t281.5 -5.5q-23 80 -42.5 161.5t-38 163t-37 162.5t-39.5 162q-5 19 4.5 32.5t24.5 17.5t30.5 -2.5t20.5 -25.5q22 -83 41 -167t37.5 -167.5t38.5 -167t45 -165.5z" />
    <glyph glyph-name="afii10043" unicode="&#x429;" horiz-adv-x="3576" 
d="M2886 401q20 0 30 -13t10 -28.5t-10 -28.5t-30 -13h-689q-141 0 -283 2t-282 -8.5t-276 -41.5t-265 -98q-9 -5 -21 -5q-14 -2 -27 5t-18 24q-19 63 -34 126t-29.5 127t-28.5 128t-31 127q-5 19 4.5 32.5t24.5 17.5t30.5 -2.5t20.5 -25.5q30 -115 54 -231t56 -231
q122 57 247 85.5t255 40.5q-17 60 -31.5 120.5t-28 121.5t-27.5 121.5t-30 120.5q-5 19 5 32.5t25 17.5t30 -2.5t20 -25.5q34 -125 59.5 -250.5t62.5 -250.5q118 7 235.5 6.5t236.5 -0.5h181q-33 118 -57.5 236.5t-56.5 236.5q-5 19 4.5 32.5t24.5 17.5t30.5 -2.5
t20.5 -25.5q33 -124 58.5 -248t61.5 -247h468v0z" />
    <glyph glyph-name="afii10044" unicode="&#x42a;" horiz-adv-x="3128" 
d="M1291 219q-23 77 -42 155t-36.5 156.5t-35.5 156.5t-38 156h-449q-20 0 -30 13t-10 28.5t10 28.5t30 13h482q14 0 25 -8t15 -22q26 -97 47 -194t43 -195q24 9 79.5 20t129 20.5t159 16.5t169 7.5t159 -7t130.5 -27t82 -53t13 -83.5q-9 -35 -41.5 -61t-74 -45.5t-84 -32.5
t-71.5 -21q-149 -42 -308 -60.5t-314 -13.5q-23 1 -33 18t-6 34zM1322 426q11 -45 22 -88.5t24 -88.5q86 -2 181 2t189.5 18.5t183.5 42t164 71.5q33 19 38 33t-7 24.5t-36.5 18t-51.5 12.5q-124 22 -250 18q-56 -2 -114.5 -5t-117 -9t-115.5 -17.5t-110 -31.5z" />
    <glyph glyph-name="afii10045" unicode="&#x42b;" horiz-adv-x="3786" 
d="M2721 891q22 -83 41 -167t37.5 -168t38.5 -167.5t45 -165.5q6 -19 -3.5 -32t-24.5 -17t-30.5 2t-21.5 25q-24 82 -44.5 165.5t-39 167.5t-37.5 168t-41 167q-5 19 4.5 32t24.5 17t30.5 -2t20.5 -25zM1122 507q24 9 79.5 20t129 21t159 17t169 7.5t159 -7.5t130.5 -27.5
t82 -53t13 -83.5q-10 -35 -42.5 -61t-73.5 -45.5t-83.5 -32.5t-71.5 -21q-150 -42 -309 -60t-314 -13q-23 1 -32.5 17.5t-6.5 34.5q-24 81 -43.5 162.5t-37.5 163.5t-36.5 164.5t-40.5 163.5q-5 19 4.5 32.5t24.5 17.5t30.5 -2.5t20.5 -25.5q26 -97 47 -194t43 -195z
M1906 383q32 19 37 33.5t-7 25t-36 17.5t-51 12q-124 22 -250 18q-56 -2 -114.5 -4.5t-117 -8.5t-116 -17.5t-109.5 -31.5h-1q11 -45 22.5 -89t24.5 -89q86 -2 181 2.5t189 19t183.5 41.5t164.5 71z" />
    <glyph glyph-name="afii10046" unicode="&#x42c;" horiz-adv-x="2948" 
d="M1122 507q24 9 79.5 20t129 21t159 17t169 7.5t159 -7.5t130.5 -27.5t82 -53t13 -83.5q-10 -35 -42.5 -61t-73.5 -45.5t-83.5 -32.5t-71.5 -21q-150 -42 -309 -60t-314 -13q-23 1 -32.5 17.5t-6.5 34.5q-24 81 -43.5 162.5t-37.5 163.5t-36.5 164.5t-40.5 163.5
q-5 19 4.5 32.5t24.5 17.5t30.5 -2.5t20.5 -25.5q26 -97 47 -194t43 -195zM1906 383q32 19 37 33.5t-7 25t-36 17.5t-51 12q-124 22 -250 18q-56 -2 -114.5 -4.5t-117 -8.5t-116 -17.5t-109.5 -31.5h-1q11 -45 22.5 -89t24.5 -89q86 -2 181 2.5t189 19t183.5 41.5t164.5 71z
" />
    <glyph glyph-name="afii10047" unicode="&#x42d;" horiz-adv-x="2722" 
d="M919 877q75 54 167 77.5t187 18t187 -37.5t166.5 -87.5t125.5 -133t65 -174.5q12 -81 -4 -142t-53 -106t-90.5 -75.5t-116.5 -49.5t-132.5 -29t-138.5 -14.5t-133 -4.5h-117q-20 0 -30 13t-10 28.5t10 28.5t30 13q40 0 92.5 -1t111 0t119 6t117.5 17t107 32.5t86.5 53
t56.5 78.5t16 109q0 2 -0.5 4.5t-0.5 4.5h-558q-20 0 -30.5 13t-10.5 28.5t10.5 28.5t30.5 13h542q-23 71 -72 127t-113.5 94.5t-140.5 58.5t-152.5 20.5t-149.5 -20t-132 -63.5q-16 -12 -30.5 -7t-22.5 18.5t-6.5 30.5t17.5 29z" />
    <glyph glyph-name="afii10048" unicode="&#x42e;" horiz-adv-x="2899" 
d="M1998 574q1 -3 1 -12q0 -8 -1 -12q-5 -54 -28 -104t-60 -88t-86.5 -60t-107.5 -19q-45 2 -88.5 17.5t-80.5 41.5t-64 62t-40 79h-339q18 -79 38 -158t43 -157q6 -19 -4 -32t-25 -17t-30 2t-21 25q-25 84 -45.5 168t-40.5 169h-279q-20 0 -30 13t-10 28.5t10 28.5t30 13
h261q-20 92 -40.5 183.5t-45.5 182.5q-5 19 5 32.5t25 17.5t30 -2.5t20 -25.5q26 -97 47.5 -193.5t43.5 -194.5h347q3 55 25 107.5t59.5 92.5t88 63t110.5 20q58 -3 107.5 -24t86.5 -56.5t60 -84t28 -106.5zM1516 562q3 -64 33.5 -107.5t73.5 -64.5t93 -21.5t93 21.5
t73 64.5t34 107.5q-4 64 -35.5 107t-77.5 64.5t-97.5 21.5t-95 -21.5t-71 -64.5t-23.5 -107z" />
    <glyph glyph-name="afii10071.002" unicode="&#x42f;" horiz-adv-x="2905" 
d="M1794 664q10 -12 10.5 -27t-10.5 -27q2 -150 1.5 -298t-1.5 -298q0 -20 -13 -30.5t-28 -10.5t-28 10.5t-13 30.5q0 137 1 271.5t-1 271.5q-101 -60 -206.5 -110t-213 -96.5t-215.5 -93t-213 -97.5q-18 -9 -33.5 -2.5t-23.5 20t-5.5 29t20.5 24.5q102 50 207 95
t209.5 90.5t207.5 94t202 105.5q-48 5 -105.5 11t-115 15.5t-109 24.5t-87 39.5t-50.5 59.5t2 85q13 39 46.5 68t78.5 51t98 38t105.5 27.5t100.5 19.5t84 16q-1 2 -1 8q-1 20 11 30t27.5 10t29 -10t15.5 -30q7 -105 10.5 -208t5.5 -207zM1294 855q-33 -24 -31 -43.5t26 -35
t62.5 -26.5t77.5 -18.5t71 -11.5t44 -5q42 -2 83.5 -6t82.5 -13q-2 73 -4 145.5t-6 145.5q-50 -11 -104.5 -21.5t-107.5 -25t-103 -35t-91 -50.5z" />
    <glyph glyph-name="afii10065" unicode="&#x430;" horiz-adv-x="2436" 
d="M1179 939q63 -75 119.5 -154t111 -160t108 -162.5t110.5 -160.5q12 -17 6.5 -31.5t-19 -22t-30.5 -6t-28 17.5q-32 43 -62 86.5t-59 88.5h-392q-28 -69 -56.5 -137.5t-60.5 -136.5q-9 -18 -24 -20.5t-28.5 5.5t-20.5 23.5t1 33.5q27 57 51.5 115t48.5 117h-51
q-20 0 -30.5 13t-10.5 28.5t10.5 28.5t30.5 13h84q35 89 69 177.5t69 178.5q-2 2 -2.5 3t-2.5 3q-13 15 -10 32t13.5 28t26 12.5t28.5 -13.5zM1381 518q-48 72 -95.5 142t-100.5 139l-54 -140t-54 -141h304z" />
    <glyph glyph-name="afii10066" unicode="&#x431;" horiz-adv-x="2840" 
d="M1949 1085q20 0 30 -13t10 -28.5t-10 -28.5t-30 -13h-853q35 -137 65 -273.5t62 -274.5q66 -9 131.5 -20t129.5 -28q33 -9 78 -21t88.5 -31t77.5 -46.5t45 -67.5q13 -46 -6.5 -81t-60 -60t-95 -41.5t-113 -26.5t-114 -15t-96.5 -7h-1q-14 -1 -25.5 -1t-21.5 -1
q-18 0 -28 11t-11.5 25.5t6 28t23.5 17.5q-41 144 -75 291q-17 2 -33.5 3.5t-33.5 3.5q-20 2 -29.5 16t-9.5 30t9.5 27.5t29.5 9.5q12 -2 24 -2.5t24 -2.5q-33 143 -64.5 284.5t-69.5 283.5q-5 20 7.5 36t32.5 16h907zM1640 263q-91 48 -192.5 70.5t-204.5 35.5
q17 -69 34 -137.5t37 -137.5q94 9 188 29q16 4 42.5 10.5t54 16t50.5 21t33 26t2 31t-44 35.5z" />
    <glyph glyph-name="afii10067" unicode="&#x432;" horiz-adv-x="2806" 
d="M1503 490q41 -20 86.5 -37.5t90.5 -36.5t87 -41.5t76 -53.5q10 -9 12 -21.5t-3 -23t-15 -18.5t-23 -8q-69 -2 -136.5 -9t-132.5 -21t-128 -36t-124 -55q5 -17 9.5 -34.5t9.5 -34.5q6 -20 -4 -33t-25 -17t-30 2t-21 26q-38 128 -69 257.5t-60 260.5q-5 1 -9.5 2t-9.5 2v1
q-16 3 -24 14.5t-8 25t8 26t24 15.5q-17 72 -33.5 144.5t-34.5 144.5q-19 2 -38 4.5t-37 4.5q-20 2 -30 16t-10 30t10 27.5t30 9.5q14 -2 26.5 -3.5t26.5 -3.5q-2 10 -4 16q-5 19 5 32.5t25 17.5t30 -2t20 -25q4 -13 7 -25t6 -25q64 -8 127 -19t126 -28q33 -8 78.5 -20
t88.5 -31.5t77 -47t45 -67.5q14 -50 -10 -86.5t-71 -62t-109 -41.5t-125 -25q49 -20 97 -42t96 -45zM1492 816q-89 46 -187.5 68.5t-200.5 36.5q17 -69 32.5 -137t30.5 -137q93 7 187 29q16 3 42.5 9.5t54 16t51 21.5t33.5 26t1.5 31t-44.5 36zM1193 530q18 -80 37 -159.5
t40 -159.5q99 51 202.5 77t212.5 37q-57 26 -117 48t-107 45q-66 32 -132.5 61t-135.5 51z" />
    <glyph glyph-name="afii10068" unicode="&#x433;" horiz-adv-x="2529" 
d="M1539 1084q20 0 30 -13t10 -28.5t-10 -28.5t-30 -13h-493q30 -117 56.5 -235.5t53 -236.5t55 -236t63.5 -234q6 -19 -4 -32t-25 -17t-30 2t-21 25q-36 123 -66 247.5t-58 249.5t-56.5 249.5t-61.5 248.5q-5 20 7.5 36t32.5 16h547v0z" />
    <glyph glyph-name="afii10069" unicode="&#x434;" horiz-adv-x="2944" 
d="M1156 213l-12 -26l-12 -26q-8 -18 -23.5 -20.5t-29 5.5t-20.5 23.5t2 33.5q1 2 2 5t2 5h-225q-20 0 -30 13t-10 28.5t10 28.5t30 13h262q63 143 118 287.5t112 290.5l-6 6q-13 15 -10 32t14 28t26.5 12.5t28.5 -13.5q63 -75 119.5 -154t110.5 -160t107.5 -162.5
t110.5 -160.5q2 -2 4 -6h217q20 0 30 -13t10 -28.5t-10 -28.5t-30 -13h-898zM1391 799q-49 -127 -97.5 -252.5t-101.5 -250.5h545q-44 62 -86.5 125.5t-84.5 127.5t-85.5 126.5t-89.5 123.5z" />
    <glyph glyph-name="afii10070" unicode="&#x435;" horiz-adv-x="2781" 
d="M1819 353q17 10 32.5 4t23 -19.5t5.5 -29.5t-19 -26q-66 -38 -128 -61.5t-125 -38t-129.5 -22t-141.5 -11.5q-49 -3 -101.5 -6t-103 3t-96 24.5t-81.5 59.5q-29 33 -42 71.5t-13 80t11.5 85t31.5 86.5q-19 1 -28 14.5t-8.5 28.5t10 27t29.5 12h21t21 -1q30 46 66 89
t74 78t76 62t72 42q49 21 104 33t111.5 12t111 -13t101.5 -41q34 -20 45 -53t6 -68t-23 -68.5t-42 -54.5q-64 -57 -142.5 -82t-163.5 -31.5t-173 -1t-171 10.5q-2 -4 -3.5 -7.5t-3.5 -8.5q-23 -51 -32 -104t3 -96.5t49 -72t108 -30.5q87 -3 172 -0.5t167 16t162 39t157 69.5
zM1253 794q-46 -36 -88 -77t-77 -89q46 -3 93 -6t93.5 -3.5t92.5 3t91 13.5q37 8 74.5 18.5t68.5 32.5q21 15 36.5 40t19 50t-9.5 46t-50 29q-45 9 -90 12t-88.5 -2.5t-85.5 -21.5t-80 -45z" />
    <glyph glyph-name="afii10072" unicode="&#x436;" horiz-adv-x="2834" 
d="M1871 831q18 10 33 3.5t23 -20t5.5 -29.5t-19.5 -26q-102 -57 -198 -119t-193 -127q14 -8 26.5 -15t26.5 -15q42 -23 86.5 -42.5t88 -40.5t84.5 -45t78 -56q15 -13 13.5 -28.5t-13 -26.5t-28 -13.5t-31.5 10.5q-41 36 -90 63.5t-101 52t-104 48t-100 50.5
q0 -125 -0.5 -249t-0.5 -249q0 -20 -13 -30.5t-28.5 -10.5t-28.5 10.5t-13 30.5q0 115 1 229t0 229q-100 -66 -201.5 -128.5t-209.5 -116.5q-18 -9 -33.5 -2.5t-23.5 20t-5.5 29t20.5 24.5q118 59 227 127.5t218 140.5q-78 48 -154 96.5t-153 98.5q-17 11 -18.5 27.5t6 30
t22.5 19.5t32 -5q68 -45 135.5 -88.5t136.5 -86.5q-2 135 -5.5 268t-12.5 267q-2 20 10.5 30t28 10t29 -10t15.5 -30q9 -143 13 -283t5 -283q103 69 204.5 135t209.5 126z" />
    <glyph glyph-name="afii10073" unicode="&#x437;" horiz-adv-x="2706" 
d="M1453 471q41 -20 86.5 -37.5t90.5 -36.5t87 -41.5t76 -53.5q10 -9 12 -21t-3 -23t-15 -18.5t-23 -8.5q-74 -2 -145 -9.5t-139.5 -23.5t-135 -41t-130.5 -63q-18 -10 -33 -4t-23 19.5t-5.5 30t19.5 26.5q109 64 224.5 96t238.5 44q-57 27 -117 48.5t-107 44.5
q-92 45 -184.5 82.5t-192.5 59.5q-17 3 -25 16t-7 28t11 27t29 12q66 1 132 10t130 23q16 3 42.5 9.5t54 16t51 21.5t33.5 26t1.5 31t-44.5 36q-62 32 -130.5 52.5t-139 34t-142 21.5t-139.5 16q-20 2 -30 16t-10 30t10 27.5t30 9.5q100 -12 199 -25.5t196 -39.5
q33 -8 78.5 -20t88.5 -31.5t77 -47t45 -67.5q14 -50 -10 -86.5t-71 -62t-109 -41.5t-125 -25q49 -20 97 -42t96 -45z" />
    <glyph glyph-name="afii10074" unicode="&#x438;" horiz-adv-x="3029" 
d="M1864 868q22 -83 41 -167t37.5 -168t39 -167.5t44.5 -165.5q6 -19 -3.5 -32t-24.5 -17t-30.5 2t-21.5 25q-22 74 -40.5 148.5t-35.5 149.5t-33.5 150t-34.5 150q-143 -143 -284.5 -285t-284.5 -285q-17 -17 -39.5 -10.5t-29.5 28.5q-25 82 -45 165.5t-38.5 167.5
t-37.5 168t-41 167q-5 19 4.5 32.5t24.5 17.5t30.5 -2.5t20.5 -25.5q20 -75 37 -150t33.5 -150t34 -150t38.5 -149q143 143 285 285.5t285 285.5q8 8 19 10.5t21 0t18 -10t11 -18.5z" />
    <glyph glyph-name="afii10075" unicode="&#x439;" horiz-adv-x="3029" 
d="M1249 1519q-20 0 -30.5 13t-10.5 28.5t10.5 28.5t30.5 13h368q20 0 30 -13t10 -28.5t-10 -28.5t-30 -13h-368zM1864 868q22 -83 41 -167t37.5 -168t39 -167.5t44.5 -165.5q6 -19 -3.5 -32t-24.5 -17t-30.5 2t-21.5 25q-22 74 -40.5 148.5t-35.5 149.5t-33.5 150
t-34.5 150q-143 -143 -284.5 -285t-284.5 -285q-17 -17 -39.5 -10.5t-29.5 28.5q-25 82 -45 165.5t-38.5 167.5t-37.5 168t-41 167q-5 19 4.5 32.5t24.5 17.5t30.5 -2.5t20.5 -25.5q20 -75 37 -150t33.5 -150t34 -150t38.5 -149q143 143 285 285.5t285 285.5q8 8 19 10.5
t21 0t18 -10t11 -18.5z" />
    <glyph glyph-name="afii10076" unicode="&#x43a;" horiz-adv-x="2789" 
d="M1120 40v590t-19 589q-1 20 11 30t27.5 10t29 -10t15.5 -30q11 -162 14.5 -322.5t4.5 -322.5q40 16 77 38l74 44t75 41.5t81 31.5q76 22 152.5 38.5t152.5 36.5q19 5 32.5 -5t17.5 -25t-2.5 -30t-25.5 -20q-43 -11 -87 -20t-88 -19t-87.5 -21.5t-84.5 -28.5
q-49 -19 -92 -45.5t-87 -52.5q76 -32 145 -75.5t136 -90.5t134.5 -94t141.5 -85q18 -9 20 -24.5t-5.5 -29t-23 -20t-33.5 2.5q-81 41 -155 94t-148 104.5t-152 96.5t-167 70q0 -112 -0.5 -223t-1.5 -223q0 -20 -13 -30t-28.5 -10t-28 10t-12.5 30z" />
    <glyph glyph-name="afii10077" unicode="&#x43b;" horiz-adv-x="2586" 
d="M1229 939q63 -75 119.5 -154t111 -160t108 -162.5t110.5 -160.5q12 -17 6.5 -31.5t-19 -22t-30.5 -6t-28 17.5q-48 66 -93.5 134.5t-90.5 136.5t-91.5 135.5t-96.5 132.5q-63 -161 -124.5 -320.5t-133.5 -317.5q-9 -18 -24 -20.5t-28.5 5.5t-20.5 23.5t1 33.5
q76 165 140.5 333t130.5 337q-2 2 -2.5 3.5t-2.5 3.5q-13 15 -10 32t13.5 28t26 12.5t28.5 -13.5z" />
    <glyph glyph-name="afii10078" unicode="&#x43c;" horiz-adv-x="2930" 
d="M1786 1036q33 -124 61.5 -249t56.5 -250t58 -249t66 -247q6 -19 -4 -32t-25 -17t-30 2t-21 25q-32 106 -58.5 213.5t-51 216t-48.5 216.5t-50 216q-27 -67 -59.5 -132t-66.5 -129.5t-68 -128.5t-63 -128q-5 -9 -13 -14t-17.5 -6t-19 2t-15.5 9q-51 48 -94.5 103.5
t-83 115.5t-75.5 123l-72 126q43 -188 84.5 -373.5t95.5 -370.5q6 -19 -3.5 -32t-24.5 -17t-30.5 2t-21.5 25q-36 123 -66 247.5t-58 249.5t-56 249.5t-61 248.5q-5 18 4 31t22.5 18t28.5 0.5t22 -20.5q1 -2 2 -2.5t3 -2.5q52 -73 98 -154t93 -162.5t97.5 -159.5t112.5 -144
q34 69 72 139t74.5 141t68 143t51.5 145q1 6 5 12q4 13 15 21t24 9t24.5 -6t16.5 -23z" />
    <glyph glyph-name="afii10079" unicode="&#x43d;" horiz-adv-x="2709" 
d="M1565 1055q33 -124 61.5 -249t56.5 -250t58 -249t66 -247q6 -20 -4 -33t-25 -17t-30 2t-21 25q-38 130 -69.5 260t-60.5 261h-449q29 -126 58.5 -250t66.5 -248q6 -20 -3.5 -33t-24.5 -17t-30.5 2t-21.5 25q-36 123 -66 247.5t-58 249.5t-56 249.5t-61 248.5
q-5 19 4.5 32.5t24.5 17.5t30.5 -2t20.5 -25q27 -103 51 -206.5t47 -207.5h449q-22 99 -44.5 196.5t-48.5 194.5q-5 19 4.5 32.5t24.5 17.5t30 -2t20 -25z" />
    <glyph glyph-name="afii10080" unicode="&#x43e;" horiz-adv-x="2368" 
d="M1467 534q-5 -54 -28 -104t-60 -88t-86.5 -60t-107.5 -19q-56 3 -108 25t-92.5 59.5t-63.5 88t-20 110.5q3 55 25 107.5t59.5 92.5t88.5 63t111 20q58 -3 107.5 -24t86.5 -56.5t60 -84t28 -106.5q0 -2 0.5 -5t0.5 -7q0 -3 -0.5 -6t-0.5 -6zM984 546q3 -64 33.5 -107.5
t73.5 -65t93.5 -21.5t93.5 22t73 64.5t34 107.5q-3 48 -22 84.5t-48.5 60.5t-66 36t-74.5 12t-73 -12t-62 -36t-42.5 -60.5t-12.5 -84.5z" />
    <glyph glyph-name="afii10081" unicode="&#x43f;" horiz-adv-x="2868" 
d="M1728 958q17 0 26.5 -9.5t12 -22.5t-2.5 -26t-17 -20q18 -176 18 -351.5t-1 -351.5q0 -20 -13 -30t-28 -10t-28 10t-13 30v349.5t-17 348.5h-596q30 -117 56.5 -235.5t53 -236.5t55 -236t63.5 -234q6 -20 -4 -33t-25 -17t-30 2.5t-21 25.5q-35 119 -64.5 239.5
t-56.5 241.5t-54.5 242.5t-58.5 241.5q-17 3 -25.5 16t-7.5 27.5t11 26.5t29 12h738v0z" />
    <glyph glyph-name="afii10082" unicode="&#x440;" horiz-adv-x="2580" 
d="M1386 958q33 -8 78.5 -20t88.5 -31.5t77 -47t45 -67.5q11 -43 -4.5 -75.5t-49 -56.5t-81.5 -41t-100.5 -28t-105.5 -17.5t-98 -9.5q29 -128 59 -253.5t67 -250.5q6 -20 -4 -33t-25 -17t-30 2t-21 25q-38 131 -69.5 261t-60.5 262h-10q-19 0 -29 11t-11 25.5t7 28t25 17.5
q-17 73 -33.5 145t-34.5 144q-19 2 -38 4.5t-37 4.5q-20 2 -30 16t-10 30t10 27.5t30 9.5q14 -2 27 -3.5t26 -3.5q-2 10 -4 16q-5 19 5 32.5t25 17.5t30 -2t20 -25q4 -13 7 -25t6 -25q64 -8 127 -19t126 -28zM1404 676q16 3 42.5 9.5t54 16t51 21.5t33.5 26t1.5 31t-44.5 36
q-89 46 -187.5 68.5t-200.5 36.5q17 -69 32.5 -137t30.5 -137q93 7 187 29z" />
    <glyph glyph-name="afii10083" unicode="&#x441;" horiz-adv-x="2682" 
d="M1058 166q-52 40 -86 99.5t-51.5 127t-19.5 138t11 132.5q19 91 70.5 156.5t123 107.5t158 61t174.5 16.5t172 -25.5t152 -65q17 -11 19 -27t-5.5 -29.5t-22.5 -19.5t-32 5q-60 37 -137.5 57t-159 20.5t-160 -18.5t-140 -60t-99.5 -105.5t-38 -154.5q0 -69 11 -135.5
t40 -121t79 -92t128 -47.5q55 -8 110.5 -8.5t110.5 2.5t110 9l110 12q20 2 30 -9.5t10 -27.5t-10 -30t-30 -16q-46 -5 -99.5 -12t-109.5 -12t-113 -6t-111.5 6t-104 24t-90.5 48z" />
    <glyph glyph-name="afii10084" unicode="&#x442;" horiz-adv-x="2999" 
d="M1959 933q20 0 30 -13t10 -28.5t-10 -28.5t-30 -13h-465q47 -198 90.5 -396.5t101.5 -393.5q6 -20 -4 -33t-25 -17t-30 2t-21 25q-30 100 -55.5 201.5t-48.5 203.5l-46 204t-47 204h-569q-20 0 -30 13t-10 28.5t10 28.5t30 13h549q-6 25 -12 49.5t-13 49.5
q-5 19 4.5 32.5t24.5 17.5t30.5 -2t20.5 -25q8 -31 15.5 -61.5t15.5 -60.5h484v0z" />
    <glyph glyph-name="afii10085" unicode="&#x443;" horiz-adv-x="2417" 
d="M1433 883q7 18 23.5 24t31.5 2t23.5 -16.5t1.5 -31.5q-40 -101 -78 -201.5t-79 -200.5q4 -5 6.5 -9t6.5 -9q9 -12 7.5 -23.5t-9 -20t-18.5 -13t-23 -2.5q-23 -57 -47.5 -113.5t-50.5 -113.5q-8 -18 -23.5 -20.5t-29 5.5t-20.5 23.5t2 33.5q28 63 54.5 125t51.5 125
q-50 72 -98 145t-96.5 146t-100 143.5t-107.5 138.5q-13 15 -10 31.5t14 27.5t26.5 12.5t28.5 -13.5q53 -63 101.5 -129.5t95 -135t91.5 -137.5t92 -137q34 87 66.5 172.5t66.5 171.5z" />
    <glyph glyph-name="afii10086" unicode="&#x444;" horiz-adv-x="2906" 
d="M1479 554q-46 -2 -98.5 -4t-106 -1t-106 8t-99 23t-84.5 44t-63 72q-21 37 -21 76t14.5 75.5t41.5 67t60 50.5q80 48 170.5 70.5t183.5 29.5q7 10 18 15t22.5 4t21 -8t13.5 -21q4 -13 7 -25t6 -25q64 -8 127 -19t126 -28q33 -8 78.5 -20t88.5 -31.5t77 -47t45 -67.5
q12 -43 -4 -75.5t-49.5 -56.5t-81.5 -41t-100.5 -28t-105.5 -17.5t-98 -9.5q29 -128 59 -253.5t67 -250.5q6 -20 -4 -33t-25 -17t-30 2t-21 25q-38 129 -69 257.5t-60 259.5zM1868 816q-88 46 -187 68.5t-201 36.5q17 -69 32.5 -137t30.5 -137q93 7 187 29q16 3 42.5 9.5
t54 16t50.5 21.5t33 26t2 31t-44 36zM1053 682q45 -22 93.5 -32.5t98.5 -14t101 -2.5t101 3q6 4 12 6q-16 73 -32.5 145t-34.5 144q-19 2 -38 4.5t-37 4.5q-16 2 -25 11t-13 21q-53 -8 -104 -24t-95 -42q-32 -19 -56.5 -48.5t-32.5 -62t5 -62.5t57 -51z" />
    <glyph glyph-name="afii10087" unicode="&#x445;" horiz-adv-x="2692" 
d="M1724 1063q13 15 28 13.5t26 -12t13.5 -27t-10.5 -31.5q-80 -96 -161.5 -188t-163.5 -186q77 -100 148.5 -203.5t149.5 -203.5q12 -15 9 -31.5t-13.5 -27.5t-25.5 -12t-27 14q-78 98 -148 200.5t-147 202.5q-115 -132 -222.5 -267t-202.5 -284q-11 -16 -27 -18t-29.5 5.5
t-19 22t5.5 31.5q99 155 211.5 296t232.5 278q-42 51 -89 98t-94 93t-93.5 93t-87.5 100q-12 15 -9 32t14 28t26 12t27 -14q40 -52 85.5 -99.5t92 -93.5t92.5 -92t89 -96q81 92 161.5 182.5t158.5 184.5z" />
    <glyph glyph-name="afii10088" unicode="&#x446;" horiz-adv-x="2844" 
d="M2054 313q20 0 30 -13.5t10 -29t-10 -28t-30 -12.5q-112 1 -223.5 -1t-220.5 -15.5t-215 -41.5t-208 -79q-7 -8 -17 -11.5t-20 -2.5q-11 -1 -20.5 4t-15.5 13.5t-8.5 18.5t0.5 19q-23 79 -42 159.5t-37 161l-36 161t-39 160.5q-5 19 4.5 32t24.5 17t30.5 -2.5t20.5 -25.5
q20 -77 37.5 -154l35 -154t35.5 -154.5t39 -153.5q114 52 230.5 79.5t237.5 39.5q-24 82 -44 165t-39 166t-37.5 166t-40.5 165q-5 19 4.5 32.5t24.5 17.5t30.5 -2.5t20.5 -25.5q22 -83 41 -166.5t37.5 -167.5t38.5 -167.5t45 -166.5q2 -6 2 -9q81 5 161.5 6t162.5 0z" />
    <glyph glyph-name="afii10089" unicode="&#x447;" horiz-adv-x="2689" 
d="M1497 939q26 -98 48 -196.5l44 -197t45.5 -197t52.5 -195.5q6 -20 -4 -33t-25 -17t-30 2t-21 25q-40 134 -70 268.5t-60 270.5q-10 -26 -25.5 -46.5t-38 -35t-53 -20.5t-70.5 -2q-80 8 -149 39.5t-125 81t-97 114.5t-66 140q-6 19 3.5 32t24.5 17t30.5 -2t21.5 -25
q17 -52 46 -102.5t68 -92.5t87.5 -72t105.5 -40q50 -9 82.5 -3.5t52.5 22.5t29.5 43t13 57.5t2.5 67t-1 70.5q-2 4 -2 5q-5 19 4.5 32.5t24.5 17.5t30.5 -2.5t20.5 -25.5z" />
    <glyph glyph-name="afii10090" unicode="&#x448;" horiz-adv-x="3999" 
d="M1107 135q-23 79 -42 159t-37 160t-36.5 160.5t-39.5 160.5q-5 19 5 32t25 17t30 -2t20 -25q20 -77 37.5 -154l35 -154t35.5 -154t39 -153q91 42 185 67.5t190 39.5t193.5 19t195.5 6q-23 80 -42.5 161t-37.5 162t-36.5 162t-40.5 162q-5 19 5 32.5t25 17.5t30 -2.5
t20 -25.5q22 -83 41 -166.5t37.5 -167t38.5 -167t45 -165.5v-3h196h688q-24 80 -43.5 161t-37.5 162t-36.5 162t-39.5 162q-5 19 4.5 32.5t24.5 17.5t30.5 -2.5t20.5 -25.5q22 -83 41 -166.5t37.5 -167t38.5 -167t45 -165.5q4 -15 -3 -29q7 -18 -2.5 -37.5t-34.5 -19.5h-687
q-138 0 -277 2t-276 -7.5t-270.5 -39t-260.5 -92.5q-7 -7 -16.5 -11t-19.5 -3q-11 -1 -20.5 4t-15.5 13.5t-8 18.5t1 19z" />
    <glyph glyph-name="afii10091" unicode="&#x449;" horiz-adv-x="3749" 
d="M2958 313q20 0 30 -13t10 -28t-10 -28t-30 -13h-688q-138 0 -277 2t-276 -8t-270.5 -39t-260.5 -92q-14 -16 -37 -14q-11 -1 -20 4t-15 13.5t-8.5 18.5t0.5 19q-23 79 -42 159t-37 160t-36 160.5t-39 160.5q-5 19 4.5 32.5t24.5 17.5t30 -2.5t20 -25.5q21 -77 38.5 -154
t34.5 -154t35.5 -154t39.5 -153q132 60 268.5 88t278.5 37q-24 81 -43.5 163t-38 164l-37 164t-40.5 163q-5 19 5 32.5t25 17.5t30 -2.5t20 -25.5q22 -83 41 -166.5t37.5 -167t38.5 -167t45 -165.5q1 -2 1 -6q103 4 206.5 3t207.5 -1h148q-24 80 -43.5 161t-37.5 162.5
t-36.5 162.5t-39.5 162q-5 19 4.5 32.5t24.5 17.5t30.5 -2.5t20.5 -25.5q22 -83 41 -166.5t37.5 -167t38.5 -167t45 -165.5q0 -2 1 -4h500v0z" />
    <glyph glyph-name="afii10092" unicode="&#x44a;" horiz-adv-x="2729" 
d="M1190 628q-12 53 -24 105.5t-26 105.5h-450q-20 0 -30 13t-10 28.5t10 28.5t30 13h482q14 0 25 -8.5t15 -22.5q18 -69 34 -137t32 -137q65 -9 129 -20t128 -28q33 -8 78 -20t88.5 -31.5t77.5 -47t45 -67.5q14 -52 -11.5 -89t-74.5 -62.5t-113.5 -41t-128.5 -24t-119 -12
t-86 -3.5q-19 0 -29 11t-11 25t6 27.5t23 17.5q-20 72 -37 144.5t-34 146.5q-18 2 -35.5 4t-34.5 4q-20 2 -30 16t-10 30t10 27.5t30 9.5zM1690 427q-90 47 -190.5 69.5t-203.5 35.5q16 -69 32.5 -137t36.5 -137q93 7 187 29q16 3 42.5 9.5t54 16t51 21.5t33.5 26t1.5 31
t-44.5 36z" />
    <glyph glyph-name="afii10093" unicode="&#x44b;" horiz-adv-x="3533" 
d="M2368 891q22 -83 41 -167t37.5 -168t38.5 -167.5t45 -165.5q6 -19 -3.5 -32t-24.5 -17t-30.5 2t-21.5 25q-25 82 -45 165.5t-38.5 167.5t-37.5 168t-41 167q-5 19 4.5 32.5t24.5 17.5t30.5 -2.5t20.5 -25.5zM1336 570q33 -9 78.5 -21t88.5 -31t77 -47t45 -68
q14 -51 -11.5 -88.5t-74.5 -63t-113.5 -41t-128.5 -24t-119 -11.5t-86 -4q-18 0 -28 11t-11.5 25t6 27.5t23.5 18.5q-20 72 -37.5 144.5t-33.5 145.5q-18 2 -35.5 4t-34.5 4q-20 2 -30 16t-10 30t10 27.5t30 9.5l51 -6q-14 61 -28 121.5t-30 120.5q-5 19 4.5 32t24.5 17
t30.5 -2t20.5 -25q18 -69 34 -137.5t31 -137.5q66 -8 130 -19.5t127 -27.5zM1354 287q16 3 42.5 10t54 16t51 21t33.5 26.5t1.5 31t-44.5 35.5q-90 47 -190.5 69.5t-203.5 36.5q16 -69 32 -137.5t36 -137.5q94 9 188 29z" />
    <glyph glyph-name="afii10094" unicode="&#x44c;" horiz-adv-x="2530" 
d="M1336 570q33 -9 78.5 -21t88.5 -31t77 -47t45 -68q14 -51 -11.5 -88.5t-74.5 -63t-113.5 -41t-128.5 -24t-119 -11.5t-86 -4q-18 0 -28 11t-11.5 25t6 27.5t23.5 18.5q-20 72 -37.5 144.5t-33.5 145.5q-18 2 -35.5 4t-34.5 4q-20 2 -30 16t-10 30t10 27.5t30 9.5l51 -6
q-14 61 -28 121.5t-30 120.5q-5 19 4.5 32t24.5 17t30.5 -2t20.5 -25q18 -69 34 -137.5t31 -137.5q66 -8 130 -19.5t127 -27.5zM1354 287q16 4 42.5 10.5t54 16t51 21t33.5 26t1.5 31t-44.5 35.5q-90 47 -190.5 69.5t-203.5 36.5q16 -69 32 -137.5t36 -137.5q94 9 188 29z
" />
    <glyph glyph-name="afii10095" unicode="&#x44d;" horiz-adv-x="3155" 
d="M1727 996q43 -17 97 -39t110 -50t109.5 -62t97.5 -74t73.5 -86.5t37.5 -99.5q7 -49 -9 -91.5t-47 -80t-73 -69.5t-87 -58t-89 -46.5t-79 -35.5q-159 -67 -324 -114.5t-333 -86.5q-19 -5 -32 5.5t-17 25t2 29t25 19.5q125 29 246.5 61.5t241.5 74.5q23 8 65.5 23t93 35.5
t104.5 46.5t101 56.5t81.5 65t47.5 72.5h-806q-20 0 -30 13t-10 28t10 28t30 13h802q-16 39 -46.5 71.5t-67.5 60.5t-76.5 51t-73.5 43q-75 42 -152.5 74t-159.5 55q-78 21 -158 35t-160.5 18.5t-161 -3t-159.5 -29.5q-19 -5 -32 4.5t-17 24.5t2 30.5t25 20.5q97 27 199 34
t204 -2t202 -32.5t193 -58.5z" />
    <glyph glyph-name="afii10096" unicode="&#x44e;" horiz-adv-x="3185" 
d="M2284 559q1 -4 1 -12q0 -9 -1 -13q-5 -53 -28 -103t-60 -88.5t-86.5 -60t-107.5 -18.5q-45 2 -89 17.5t-80.5 41.5t-64 61.5t-40.5 79.5h-587q18 -80 37.5 -158.5t42.5 -157.5q6 -19 -3.5 -32t-24.5 -17t-30.5 2t-21.5 25q-25 85 -45.5 169t-39.5 169h-31q-20 0 -30.5 13
t-10.5 28.5t10.5 28.5t30.5 13h12q-20 92 -40.5 183.5t-44.5 182.5q-5 19 4.5 32.5t24.5 17.5t30.5 -2.5t20.5 -25.5q26 -97 47 -194t43 -194h596q3 55 25 107.5t59.5 92.5t88.5 63t111 20q58 -3 107.5 -24t86.5 -56.5t60 -84t28 -106.5zM1801 547q3 -65 33.5 -108
t73.5 -64.5t93.5 -21.5t93.5 22t73 64.5t34 107.5q-3 48 -22 84.5t-48.5 60.5t-66 36t-74.5 12t-73 -12t-62 -36t-42.5 -60.5t-12.5 -84.5z" />
    <glyph glyph-name="afii10097" unicode="&#x44f;" horiz-adv-x="2864" 
d="M1620 1055q1 -2 6 -24.5t13 -56t18 -75t19.5 -81.5t18 -76t13.5 -58q5 -1 11 -1h11q20 0 30 -13.5t10 -29t-10 -28t-30 -12.5h-3q30 -137 62 -271.5t72 -268.5q6 -20 -3.5 -33t-24.5 -17t-30.5 2t-21.5 26q-38 131 -70 262.5t-61 265.5q-99 -69 -203 -130.5t-210 -119.5
t-213 -114.5t-212 -115.5q-17 -10 -32.5 -3.5t-23 20t-5.5 29.5t19 26q100 56 202 110t203.5 108.5t200.5 112.5t194 123q-47 6 -97 14.5t-97 22t-87 31.5t-65.5 41.5t-33 53.5t10.5 67q19 39 56 66.5t81 46t90 30t85 20.5q8 2 16 3t16 3q-2 5 -2.5 10.5t-2.5 10.5
q-5 19 4.5 32.5t24.5 17.5t30.5 -2t20.5 -25zM1622 691q-14 63 -28.5 124.5t-30.5 124.5q-69 -14 -133.5 -36t-116.5 -59q-28 -20 -29.5 -37.5t14 -31.5t43 -25t57 -19.5t56.5 -14t41 -7.5q32 -5 63.5 -10t63.5 -9z" />
    <glyph glyph-name="afii10071" unicode="&#x451;" horiz-adv-x="2781" 
d="M1819 352q17 10 32.5 4t23 -19.5t5.5 -29.5t-19 -26q-66 -38 -128 -61.5t-125 -38t-129.5 -22t-141.5 -11.5q-49 -3 -101.5 -6t-103 3t-96 24.5t-81.5 59.5q-29 33 -42 71.5t-13 80t11.5 85t31.5 86.5q-19 1 -28 14.5t-8.5 28.5t10 27t29.5 12h21t21 -1q30 46 66 89
t74 78t76 62t72 42q49 21 104 33t111.5 12t111 -13t101.5 -41q34 -20 45 -53t6 -68t-23 -68.5t-42 -54.5q-64 -57 -142.5 -82.5t-163.5 -31.5t-173 0t-171 11q-2 -5 -3.5 -8.5t-3.5 -7.5q-23 -51 -32 -104t3 -97t49 -72.5t108 -30.5q87 -3 172 0t167 16t162 38.5t157 69.5z
M1253 793q-46 -36 -88 -76.5t-77 -88.5q94 -7 186.5 -10t183.5 16q37 8 74.5 18.5t68.5 32.5q21 15 36.5 40t19 50t-9.5 46t-50 29q-45 9 -90 12t-88.5 -2.5t-85.5 -21.5t-80 -45zM1215 1310q0 57 0.5 112.5t-4.5 111.5q-2 20 10.5 30t28 10t29 -10t15.5 -30
q5 -56 4.5 -111.5t-0.5 -112.5q0 -20 -13 -30.5t-28.5 -10.5t-28.5 10.5t-13 30.5zM1643 1337q0 57 0.5 112.5t-4.5 112.5q-2 20 10.5 30t28 10t29 -10t15.5 -30q5 -57 4.5 -112.5t-0.5 -112.5q0 -20 -13.5 -30t-29 -10t-28 10t-12.5 30z" />
    <glyph glyph-name="endash" unicode="&#x2013;" horiz-adv-x="2792" 
d="M941 494q-20 1 -30 15t-10 29.5t10 27.5t30 11q114 -9 228 -6t227.5 10t227.5 14.5t228 9.5q20 0 30 -13t10 -28.5t-10 -28.5t-30 -13q-114 -1 -228 -9t-227.5 -15t-227.5 -10t-228 6z" />
    <glyph glyph-name="emdash" unicode="&#x2014;" horiz-adv-x="3358" 
d="M2417 595q20 0 30 -13t10 -28.5t-10 -28.5t-30 -13q-371 0 -738.5 -2t-738.5 -12q-20 -1 -30 11.5t-10 28.5t10 29t30 14q371 10 738.5 12t738.5 2z" />
    <glyph glyph-name="quoteleft" unicode="&#x2018;" horiz-adv-x="553" 
d="M441 1311q-70 -71 -134 -146t-136 -144q-14 -14 -30.5 -11.5t-27.5 13.5t-13 27t13 30q72 69 135.5 144t133.5 146q14 14 30 12t27 -13t13.5 -27.5t-11.5 -30.5z" />
    <glyph glyph-name="quoteright" unicode="&#x2019;" horiz-adv-x="553" 
d="M441 1311q-70 -71 -134 -146t-136 -144q-14 -14 -30.5 -11.5t-27.5 13.5t-13 27t13 30q72 69 135.5 144t133.5 146q14 14 30 12t27 -13t13.5 -27.5t-11.5 -30.5z" />
    <glyph glyph-name="quotesinglbase" unicode="&#x201a;" horiz-adv-x="616" 
d="M106 -334q66 118 149.5 220.5t187.5 188.5q15 12 32 9.5t28 -13.5t12.5 -26.5t-13.5 -28.5q-101 -82 -181.5 -180t-143.5 -212q-10 -18 -26 -20t-29 6t-19.5 23t3.5 33z" />
    <glyph glyph-name="quotedblleft" unicode="&#x201c;" 
d="M441 1311q-70 -71 -134 -146t-136 -144q-14 -14 -30.5 -11.5t-27.5 13.5t-13 27t13 30q72 69 135.5 144t133.5 146q14 14 30 12t27 -13t13.5 -27.5t-11.5 -30.5zM476 1021q-14 -14 -30.5 -11.5t-27.5 13.5t-13 27t13 30q72 69 135.5 144t133.5 146q14 14 30.5 12
t27.5 -13t13 -27.5t-12 -30.5q-70 -71 -134 -146t-136 -144z" />
    <glyph glyph-name="quotedblright" unicode="&#x201d;" 
d="M441 1311q-70 -71 -134 -146t-136 -144q-14 -14 -30.5 -11.5t-27.5 13.5t-13 27t13 30q72 69 135.5 144t133.5 146q14 14 30 12t27 -13t13.5 -27.5t-11.5 -30.5zM476 1021q-14 -14 -30.5 -11.5t-27.5 13.5t-13 27t13 30q72 69 135.5 144t133.5 146q14 14 30.5 12
t27.5 -13t13 -27.5t-12 -30.5q-70 -71 -134 -146t-136 -144z" />
    <glyph glyph-name="quotedblbase" unicode="&#x201e;" 
d="M441 12q-70 -71 -134 -146t-136 -144q-14 -14 -30.5 -11.5t-27.5 13.5t-13 26.5t13 29.5q72 69 135.5 144t133.5 146q14 15 30 13t27 -13t13.5 -27.5t-11.5 -30.5zM476 -278q-14 -14 -30.5 -11.5t-27.5 13.5t-13 26.5t13 29.5q72 69 135.5 144t133.5 146q14 15 30.5 13
t27.5 -13t13 -27.5t-12 -30.5q-70 -71 -134 -146t-136 -144z" />
    <glyph glyph-name="bullet" unicode="&#x2022;" horiz-adv-x="2204" 
d="M901 546q-4 65 24 108t71.5 64.5t95.5 21.5t98 -21.5t78 -64.5t36 -108q-4 -65 -34 -108t-73.5 -64.5t-94 -21.5t-94 21.5t-74 64.5t-33.5 108z" />
    <glyph glyph-name="ellipsis" unicode="&#x2026;" horiz-adv-x="695" 
d="M51 83q20 0 30 -13t10 -28.5t-10 -28.5t-30 -13t-30.5 13t-10.5 28.5t10.5 28.5t30.5 13zM348 83q20 0 30 -13t10 -28.5t-10 -28.5t-30 -13t-30.5 13t-10.5 28.5t10.5 28.5t30.5 13zM645 83q20 0 30 -13t10 -28.5t-10 -28.5t-30 -13t-30.5 13t-10.5 28.5t10.5 28.5
t30.5 13z" />
    <glyph glyph-name="fraction" unicode="&#x2044;" horiz-adv-x="2381" 
d="M978 78q-11 -17 -27 -19t-29.5 6t-19.5 23t5 32q67 109 129 221t122 224.5t120 225.5t125 223q10 17 26 19t29.5 -5.5t19.5 -23t-4 -32.5q-65 -111 -125 -223.5t-120 -225.5t-122 -225t-129 -220z" />
    <glyph glyph-name="2116" unicode="&#x2116;" horiz-adv-x="3293" 
d="M2552 1335q20 0 30 -13t10 -28.5t-10 -28.5t-30 -13h-468q-42 -159 -77 -319.5t-69.5 -321.5t-72.5 -321.5t-85 -318.5q-5 -16 -16 -23t-23.5 -6.5t-23.5 8t-17 21.5q-88 220 -174.5 438t-174.5 438q-34 -133 -65 -266t-63 -266t-66.5 -265.5t-73.5 -263.5
q-6 -19 -21.5 -25t-30.5 -2t-24.5 17t-3.5 32q44 146 81.5 294t73 296t71 296.5t74.5 295.5q4 16 15.5 23t24 6.5t24 -8.5t16.5 -21q88 -221 175.5 -440t175.5 -440q40 148 74 297.5t66 299.5t65.5 299.5t72.5 298.5q4 14 15 22t25 8h500v0z" />
    <glyph glyph-name="radical" unicode="&#x221a;" horiz-adv-x="1905" 
d="M1715 1462q20 0 30 -13t10 -28.5t-10 -28.5t-30 -13h-468q-56 -213 -102.5 -429t-92.5 -432t-96 -431.5t-113 -426.5q-5 -16 -16 -23t-23.5 -6.5t-24 8t-16.5 21.5q-97 243 -192.5 483t-192.5 483h-88q-20 0 -30 13t-10 28.5t10 28.5t30 13h116q15 0 25 -8.5t15 -21.5
q88 -222 175 -440.5t175 -440.5q57 202 102.5 406.5t89 410t88.5 410t99 407.5q3 14 14.5 22t25.5 8h500v0z" />
    <glyph glyph-name="infinity" unicode="&#x221e;" horiz-adv-x="3751" 
d="M2832 558q20 -37 18 -75.5t-20.5 -72t-50 -58t-70.5 -33.5q-59 -14 -118.5 -14.5t-119 9t-117.5 25.5t-114 35q-93 31 -184 63.5t-182 69.5q-10 4 -19.5 8t-19.5 9q-84 -32 -174.5 -65t-183 -55.5t-185 -29t-179.5 15.5q-33 9 -72 27t-72 45t-53 62t-15 77q5 43 26 73.5
t51.5 51.5t69 33t77.5 18q71 10 144.5 10.5t145.5 -10t141.5 -32.5t133.5 -57q75 -42 157 -80q55 9 118.5 26.5t131.5 37t138.5 37.5t140 28t135.5 9t125 -20.5t109 -59.5t87 -108zM1021 528q45 -41 100.5 -60t116 -21t125.5 9.5t129.5 30.5t126 42t117.5 45
q-41 22 -81.5 42t-82.5 35q-88 30 -177 45.5t-181 7.5q-18 -2 -49 -6.5t-64 -13.5t-63 -23t-45 -33t-11 -44t39 -56zM2687 399q36 14 54 32.5t22.5 39t-2.5 41.5t-21.5 40.5t-33.5 35.5t-38 26q-42 23 -87 35.5t-93 12.5q-67 1 -131.5 -10.5t-128 -28.5t-126.5 -36.5
t-127 -35.5q187 -79 378 -127q37 -9 79.5 -20t87 -17t87.5 -4.5t80 16.5z" />
    <glyph glyph-name="notequal" unicode="&#x2260;" horiz-adv-x="2623" 
d="M1444 38q-36 123 -66 247t-58 249t-56 249.5t-61 248.5q-5 19 4.5 32.5t24.5 17.5t30.5 -2.5t20.5 -25.5q33 -124 61 -248.5t56 -249.5t58 -249t66 -247q6 -19 -4 -32t-25 -17t-30 2t-21 25zM1745 662q18 -8 24 -24t2 -31t-17 -24t-31 -1q-93 37 -189.5 60.5t-195.5 36.5
t-199 17t-199 2q-20 0 -30 12.5t-10 28t10 28.5t30 13q102 2 204.5 -2t204.5 -17t201.5 -37t194.5 -62zM1710 392q19 -5 25.5 -20t2.5 -30t-17.5 -24.5t-32.5 -4.5q-84 21 -169.5 33t-171.5 19.5t-172.5 13.5t-172.5 15q-20 2 -29.5 16t-9.5 30t9.5 27.5t29.5 9.5
q89 -10 178 -16t178 -14t177 -20.5t175 -34.5z" />
    <glyph glyph-name="lessequal" unicode="&#x2264;" horiz-adv-x="2587" 
d="M1572 253q16 -13 14.5 -28.5t-12.5 -26.5t-28 -13.5t-33 9.5q-71 58 -145.5 112t-149.5 106.5t-150 105.5t-147 109q-16 12 -20.5 31t11.5 34q65 60 137.5 106t149.5 88q42 23 82 49t79.5 52.5t79.5 52t82 47.5q18 9 33 2.5t23 -20t6 -29.5t-20 -25q-38 -20 -73.5 -43
t-70.5 -47t-70.5 -47.5t-72.5 -43.5q-71 -38 -139 -78t-131 -91q70 -53 141.5 -103t143 -100.5t142 -102t138.5 -106.5zM1545 69q13 -15 10.5 -31t-14.5 -26.5t-28.5 -11.5t-29.5 14q-60 64 -125.5 120t-134.5 109.5t-139 105t-137 106.5q-15 12 -16 29.5t7.5 30.5t23 17.5
t30.5 -7.5q70 -57 142 -110.5t143 -108t138.5 -113t129.5 -124.5z" />
    <glyph glyph-name="greaterequal" unicode="&#x2265;" horiz-adv-x="2587" 
d="M1387 886q78 -42 150 -88t137 -106q17 -15 12 -34t-20 -31q-73 -56 -148 -109t-150 -105.5t-149.5 -106.5t-145.5 -112q-15 -12 -32 -9.5t-28 13.5t-12.5 26.5t13.5 28.5q68 55 138.5 106.5t142 102t143 100.5t141.5 103q-63 51 -131 90.5t-139 78.5q-38 20 -73 43.5
t-70 47.5t-70.5 47t-72.5 43q-18 9 -20.5 25t5.5 29.5t23.5 20t33.5 -2.5q42 -22 82 -47.5t79.5 -52t79 -52.5t81.5 -49zM1609 488q18 10 32.5 3t21.5 -20.5t4.5 -30t-20.5 -26.5q-77 -41 -148.5 -90t-140 -102t-136.5 -107.5t-138 -105.5q-16 -12 -33 -8.5t-27.5 15
t-11.5 27t15 27.5q72 53 142.5 109t141.5 110.5t144.5 105.5t153.5 93z" />
    <glyph glyph-name="NULL" horiz-adv-x="0" 
 />
  </font>
</defs>
</svg>
