<?xml version="1.0" standalone="no"?>
<!DOCTYPE svg PUBLIC "-//W3C//DTD SVG 1.1//EN" "http://www.w3.org/Graphics/SVG/1.1/DTD/svg11.dtd" >
<svg>
<metadata>
Created by FontForge 20090914 at Thu Mar 18 20:29:53 2021
 By www-data
&#194;&#169; 2019, Creatype Studio Co.
</metadata>
<defs>
<font id="BarcelonyRegular" horiz-adv-x="0" >
  <font-face 
    font-family="Barcelony"
    font-weight="400"
    font-stretch="normal"
    units-per-em="1000"
    panose-1="0 0 0 0 0 0 0 0 0 0"
    ascent="800"
    descent="-200"
    x-height="296"
    cap-height="949"
    bbox="-504.521 -667 1551 1076.83"
    underline-thickness="50"
    underline-position="-100"
    unicode-range="U+000A-U+FB06"
  />
<missing-glyph horiz-adv-x="527" 
d="M50 700h427v-700h-427v700zM78 680l185 -309l186 309h-371zM251 350l-180 300v-601zM264 329l-185 -308h370zM276 350l181 -303v605z" />
    <glyph glyph-name="tt.liga" unicode="tt" horiz-adv-x="365" 
d="M721.5 531.5c5.66699 -3 9.66699 -7.50684 12 -13.5068s1.83301 -12 -1.5 -18c-32 -67.333 -157.667 -95.666 -377 -84.999c-29.333 -57.333 -60.666 -113.666 -93.999 -168.999c-2.66699 -5.33301 -7 -9 -13 -11c-2.66699 -14 -5 -25.667 -7 -35
c-6.66699 -36.667 -10.334 -75 -11.001 -115s1.83301 -75.167 7.5 -105.5s13.5 -49.5 23.5 -57.5c6 -5.33301 12.667 -7.66602 20 -6.99902c14 2 29 10.833 45 26.5s28.667 30.167 38 43.5c3.33301 5.33301 8.16602 8.5 14.499 9.5s12.166 -0.166992 17.499 -3.5
s8.66602 -8.16602 9.99902 -14.499s0.333008 -12.166 -3 -17.499l-13.5 -17.5c-5 -6.33301 -13 -15.333 -24 -27s-23.5 -21.667 -37.5 -30s-27.667 -13.5 -41 -15.5c-3.33301 -0.666992 -6.66602 -1 -9.99902 -1c-17.333 0 -33 6 -47 18c-12 10.667 -22 28 -30 52
c-34 -42 -67 -65 -99 -69c-3.33301 -0.666992 -6.66602 -1 -9.99902 -1c-18 0 -34 6 -48 18c-17.333 15.333 -29.833 44 -37.5 86s-10.667 83.667 -9 125s5.5 78.333 11.5 111c10 52.667 28.333 128.667 55 228c-179.333 8 -282 0 -308 -24c-4 -4.66699 -9.33301 -7 -16 -7
s-12.334 2.66699 -17.001 8c-4 4.66699 -6 10.167 -6 16.5s2.33301 11.833 7 16.5c36 34 153.667 46 353 36c57.333 204 109.333 321.333 156 352c14 9.33301 28 12.333 42 9c14.667 -3.33301 25.334 -12 32.001 -26c18.667 -42.667 -15.333 -151.667 -102 -327
c-1.33301 -3.33301 -3.66602 -8.66602 -6.99902 -15.999c16.667 -1.33301 35.667 -3 57 -5c46.667 174 91.667 275.333 135 304c14 9.33301 28.333 12.333 43 9c16 -3.33301 27.333 -12.666 34 -27.999c17.333 -41.333 -12 -139 -88 -293
c88.667 -3.33301 160.167 0.166992 214.5 10.5s86.833 26.5 97.5 48.5c2.66699 6 7.16699 10.167 13.5 12.5s12.333 2 18 -1zM415 733.993c-32.667 -22 -70.332 -111.667 -112.999 -269c5.33301 0 13.666 -0.333008 24.999 -1c36 72 62.833 133 80.5 183s22.5 80 14.5 90
c-2 0 -4.33301 -1 -7 -3zM258.002 794.993c-36 -23.333 -81.001 -128.668 -135.001 -316.001c5.33301 0 13 -0.333008 23 -1c42.667 84.667 74.834 156.334 96.501 215.001s28.5 94 20.5 106c0 -0.666992 -1.66699 -2 -5 -4zM123.001 431.991c-4.66699 0.666992 -9 1 -13 1
l-14 -52c8.66699 15.333 17.667 32.333 27 51zM195.001 207.991c13.333 72.667 28.999 144.33 46.999 214.997c-24 2.66699 -46.667 4.66699 -68 6c-36.667 -70.667 -69.667 -131.667 -99 -183c-3.33301 -5.33301 -7.66602 -8.66602 -12.999 -9.99902l-8 -36
c-10 -56 -13 -113.167 -9 -171.5s13.667 -93.833 29 -106.5c6 -5.33301 12.667 -7.66602 20 -6.99902c14 2 29 10.833 45 26.5s28.667 30.167 38 43.5c2.66699 4 6.66699 6.66699 12 8c-9.33301 70.667 -7.33301 142.334 6 215.001zM277 367.987l27.001 49.999
c-0.666992 0.666992 -5.33398 1.33398 -14.001 2.00098z" />
    <glyph glyph-name="st.liga" unicode="st" horiz-adv-x="478" 
d="M853 531c6 -2.66699 10.1611 -6.83789 12.4941 -12.5049s2.16602 -11.167 -0.500977 -16.5c-10 -25.333 -43 -46.833 -99 -64.5s-127 -22.834 -213 -15.501c-30.667 2.66699 -59.667 5 -87 7l-99 -182c-4.66699 -12.667 -11 -25.667 -19 -39
c-1.33301 -4.66699 -2 -7.33398 -2 -8.00098c-10 -56 -13 -113.167 -9 -171.5s13.667 -93.833 29 -106.5c6 -5.33301 12.667 -7.66602 20 -6.99902c14 2 29 10.833 45 26.5s28.667 30.167 38 43.5c3.33301 5.33301 8.16602 8.5 14.499 9.5s12.166 -0.166992 17.499 -3.5
s8.66602 -8.16602 9.99902 -14.499s0.333008 -12.166 -3 -17.499c-2.66699 -4 -5.66699 -8.16699 -9 -12.5s-9.16602 -11.166 -17.499 -20.499s-16.666 -17.666 -24.999 -24.999s-18.333 -14.166 -30 -20.499s-23.167 -10.166 -34.5 -11.499
c-3.33301 -0.666992 -6.66602 -1 -9.99902 -1c-17.333 0 -33 6 -47 18c-20.667 18 -34.167 51 -40.5 99s-7.16602 99.333 -2.49902 154c-28.667 -27.333 -66.667 -55.666 -114 -84.999c17.333 -45.333 14 -85.333 -10 -120c-24.667 -36 -56.667 -65.167 -96 -87.5
s-74.666 -33.5 -105.999 -33.5c-8.66699 0 -16.334 1 -23.001 3c-27.333 6.66699 -42.666 23.334 -45.999 50.001c-1.33301 14 1.16699 27.833 7.5 41.5s13.833 25.667 22.5 36s22.667 22.333 42 36s35.5 24.5 48.5 32.5l58.5 35c21.333 12 35 20 41 24
c-10 16.667 -26 39.334 -48 68.001c-11.333 14.667 -19.666 25.834 -24.999 33.501s-10.666 16.5 -15.999 26.5s-8 19 -8 27c-2 18.667 0.333008 36.5 7 53.5s16 31.5 28 43.5s24 22.333 36 31s25.167 16 39.5 22s24.5 10.167 30.5 12.5s11 3.83301 15 4.5
c6 2 11.833 1.33301 17.5 -2s9.33398 -8 11.001 -14s0.833984 -11.833 -2.49902 -17.5s-8 -9.5 -14 -11.5c-2.66699 -0.666992 -7.33398 -2.16699 -14.001 -4.5s-17 -6.83301 -31 -13.5s-26.5 -14.334 -37.5 -23.001s-20.667 -20 -29 -34s-11.833 -28.667 -10.5 -44
c0.666992 -7.33301 14 -28 40 -62c24 -30.667 41 -54.334 51 -71.001c71.333 44.667 120.333 88 147 130c15.333 70 32.333 140 51 210c-38 1.33301 -72.833 2.16602 -104.5 2.49902s-58 -0.166992 -79 -1.5s-39.333 -2.83301 -55 -4.5s-28 -3.83398 -37 -6.50098
s-16 -5.16699 -21 -7.5s-8.83301 -4.5 -11.5 -6.5c-4 -4.66699 -9.33301 -7 -16 -7s-12.334 2.66699 -17.001 8c-4 4.66699 -6 10.167 -6 16.5s2.33301 11.833 7 16.5c36 34 153.667 46 353 36c57.333 204 109.333 321.333 156 352c14 9.33301 28 12.333 42 9
c14.667 -3.33301 25.334 -12 32.001 -26c18.667 -42.667 -15.333 -151.667 -102 -327c-1.33301 -3.33301 -3.66602 -8.66602 -6.99902 -15.999l68 -6c35.333 -3.33301 66.833 -4 94.5 -2s51.834 5 72.501 9s38 9 52 15s24.833 11.5 32.5 16.5s12.167 9.16699 13.5 12.5
c2.66699 6 7 10.167 13 12.5s12 2.16602 18 -0.500977zM129.994 -39.0039c13.333 18.667 15.667 41.332 7 67.999c-12.667 -8 -25 -15.333 -37 -22l-41 -24.5l-36.5 -22.5c-15 -9.33301 -26.333 -17.166 -34 -23.499s-15.667 -13.5 -24 -21.5s-14 -15.667 -17 -23
s-4.16699 -14.333 -3.5 -21c0.666992 -5.33301 4 -8.66602 10 -9.99902c20 -5.33301 48.5 1.66699 85.5 21s67.167 45.666 90.5 78.999zM549.995 794.994c-36 -23.333 -81 -128.666 -135 -315.999c5.33301 0 13 -0.333008 23 -1c28 55.333 51.667 105.666 71 150.999
s33.166 83 41.499 113s9.5 49 3.5 57c0.666992 -0.666992 -0.666016 -2 -3.99902 -4zM387.995 380.994c8.66699 15.333 17.666 32.333 26.999 51c-3.33301 0.666992 -7.66602 1 -12.999 1z" />
    <glyph glyph-name=".notdef" horiz-adv-x="527" 
d="M50 700h427v-700h-427v700zM78 680l185 -309l186 309h-371zM251 350l-180 300v-601zM264 329l-185 -308h370zM276 350l181 -303v605z" />
    <glyph glyph-name=".null" 
 />
    <glyph glyph-name=".null" 
 />
    <glyph glyph-name="controlLF" unicode="&#xa;" 
 />
    <glyph glyph-name="controlCR" unicode="&#xd;" 
 />
    <glyph glyph-name="space" unicode=" " horiz-adv-x="248" 
 />
    <glyph glyph-name="exclam" unicode="!" horiz-adv-x="355" 
d="M261 894c6 7.33301 13.501 10.168 22.501 8.50098s15.167 -6 18.5 -13s2.33301 -14.5 -3 -22.5c-10 -12.667 -19.333 -28.667 -28 -48s-14.667 -34 -18 -44s-9 -29.833 -17 -59.5s-12.333 -45.5 -13 -47.5c-19.333 -68 -35.333 -137.667 -48 -209
c-23.333 -126 -36 -258 -38 -396c-0.666992 -9.33301 -4.83398 -15.5 -12.501 -18.5s-15.334 -2.16699 -23.001 2.5s-11.5 11.667 -11.5 21c2.66699 157.333 19 308.666 49 453.999c14 65.333 30 129 48 191c1.33301 4 4.83301 16 10.5 36s9.83398 33.833 12.501 41.5
s6.83398 19 12.501 34s11.667 27.833 18 38.5s13.166 21 20.499 31zM87.001 -60.998c4.66699 4 10.334 5.66797 17.001 5.00098s12 -3.33398 16 -8.00098c9.33301 -11.333 8.33301 -22.333 -3 -33l-29 -29c-4.66699 -4.66699 -10.334 -6.5 -17.001 -5.5s-12 3.83301 -16 8.5
c-8.66699 10.667 -7.66699 21.667 3 33z" />
    <glyph glyph-name="quotedbl" unicode="&#x22;" horiz-adv-x="220" 
d="M70 750c2.66699 8.66699 8.33496 13.502 17.002 14.502s16 -1.83301 22 -8.5s7.33301 -14.334 4 -23.001l-47 -129c-3.33301 -9.33301 -9.33301 -14.333 -18 -15s-15.834 2.16602 -21.501 8.49902s-6.83398 13.833 -3.50098 22.5zM183.001 751.002
c4 8 10.502 12.333 19.502 13s16.333 -2 22 -8s6.16699 -13.333 1.5 -22c-32.667 -64 -56 -130 -70 -198c-2 -8.66699 -7.33301 -14.5 -16 -17.5s-16.334 -2.16699 -23.001 2.5s-9.33398 11.667 -8.00098 21c16 74 40.667 143.667 74 209z" />
    <glyph glyph-name="quotedbl" unicode="&#x201d;" horiz-adv-x="220" 
d="M70 750c2.66699 8.66699 8.33496 13.502 17.002 14.502s16 -1.83301 22 -8.5s7.33301 -14.334 4 -23.001l-47 -129c-3.33301 -9.33301 -9.33301 -14.333 -18 -15s-15.834 2.16602 -21.501 8.49902s-6.83398 13.833 -3.50098 22.5zM183.001 751.002
c4 8 10.502 12.333 19.502 13s16.333 -2 22 -8s6.16699 -13.333 1.5 -22c-32.667 -64 -56 -130 -70 -198c-2 -8.66699 -7.33301 -14.5 -16 -17.5s-16.334 -2.16699 -23.001 2.5s-9.33398 11.667 -8.00098 21c16 74 40.667 143.667 74 209z" />
    <glyph glyph-name="quotedbl" unicode="&#x201c;" horiz-adv-x="220" 
d="M70 750c2.66699 8.66699 8.33496 13.502 17.002 14.502s16 -1.83301 22 -8.5s7.33301 -14.334 4 -23.001l-47 -129c-3.33301 -9.33301 -9.33301 -14.333 -18 -15s-15.834 2.16602 -21.501 8.49902s-6.83398 13.833 -3.50098 22.5zM183.001 751.002
c4 8 10.502 12.333 19.502 13s16.333 -2 22 -8s6.16699 -13.333 1.5 -22c-32.667 -64 -56 -130 -70 -198c-2 -8.66699 -7.33301 -14.5 -16 -17.5s-16.334 -2.16699 -23.001 2.5s-9.33398 11.667 -8.00098 21c16 74 40.667 143.667 74 209z" />
    <glyph glyph-name="numbersign" unicode="#" horiz-adv-x="597" 
d="M556 412c9.33301 1.33301 16.5 -1.66113 21.5 -8.99414s6.16699 -15.166 3.5 -23.499s-8.66699 -12.833 -18 -13.5c-7.33301 -0.666992 -25.5 -2.5 -54.5 -5.5s-51.5 -5.16699 -67.5 -6.5c-5.33301 -40 -11 -77.333 -17 -112c38 3.33301 64 5.66602 78 6.99902
c13.333 2 22 -3.66699 26 -17c3.33301 -14 -0.666992 -23 -12 -27l-7 -2c-20.667 -2 -51.667 -4.66699 -93 -8c-11.333 -65.333 -22.333 -123 -33 -173c-2 -9.33301 -7.16699 -15.5 -15.5 -18.5s-16 -2.16699 -23 2.5s-9.5 11.667 -7.5 21
c10 48.667 20.333 103.334 31 164.001c-47.333 -4 -98 -7.33301 -152 -10c-13.333 -46.667 -27.666 -91.334 -42.999 -134.001c-3.33301 -9.33301 -9.33301 -14.333 -18 -15s-15.834 2.16602 -21.501 8.49902s-7.16699 14.166 -4.5 23.499
c14 37.333 26.667 75.666 38 114.999c-59.333 -2.66699 -111.666 -4.33398 -156.999 -5.00098c-12.667 0 -19.334 6.33301 -20.001 19c-0.666992 13.333 5 22 17 26c2.66699 1.33301 5.33398 2 8.00098 2c47.333 0 102 1.66699 164 5c9.33301 34 17.666 68.667 24.999 104
l-105 -10c-9.33301 -0.666992 -16.5 2.66602 -21.5 9.99902s-6.16699 15 -3.5 23s8.66699 12.333 18 13l60.5 6l60.5 6c10.667 58 18.334 115.333 23.001 172c0.666992 9.33301 5.16699 15.5 13.5 18.5s16.166 2.16699 23.499 -2.5s10.333 -11.667 9 -21
c-4.66699 -52.667 -11.667 -106.667 -21 -162c8.66699 0.666992 18 1.5 28 2.5s19.5 2 28.5 3l27 3c9 1 18.5 2 28.5 3s19.333 1.83301 28 2.5c6.66699 50 12.334 96.333 17.001 139c1.33301 9.33301 6.16602 15.5 14.499 18.5s16 2.16699 23 -2.5s10.167 -11.667 9.5 -21
c-5.33301 -43.333 -11 -86.333 -17 -129c12 0.666992 30 2.16699 54 4.5s42 4.16602 54 5.49902zM376 238.006c6 34.667 11.667 71.667 17 111c-15.333 -1.33301 -38.666 -3.5 -69.999 -6.5s-55 -5.5 -71 -7.5c-7.33301 -38 -15.333 -73.667 -24 -107
c53.333 2.66699 102.666 6 147.999 10z" />
    <glyph glyph-name="dollar" unicode="$" horiz-adv-x="655" 
d="M594 351c22 -20.667 35.1689 -40.6699 39.502 -60.0029s1.83301 -36.166 -7.5 -50.499s-23.833 -28.166 -43.5 -41.499s-39.167 -24.166 -58.5 -32.499s-40 -16.166 -62 -23.499c-43.333 -14 -88.666 -23.333 -135.999 -28c-0.666992 -74.667 -1 -119.334 -1 -134.001
c-0.666992 -9.33301 -4.83398 -15.5 -12.501 -18.5s-15.334 -2.16699 -23.001 2.5s-11.5 11.667 -11.5 21c0.666992 10.667 1.33398 52.667 2.00098 126c-75.333 -2 -149.333 8 -222 30c-8.66699 2.66699 -13.5 8.16699 -14.5 16.5s1.66699 15.666 8 21.999
s14.166 8.16602 23.499 5.49902c68.667 -21.333 137 -31 205 -29c0.666992 100 -0.666016 196 -3.99902 288c-80 22.667 -135 39.334 -165 50.001l-34.5 15c-9 4 -19.167 9.66699 -30.5 17s-20.333 15.833 -27 25.5s-11 20.834 -13 33.501c-6 37.333 12 70.333 54 99
c52.667 37.333 119 53.333 199 48c-6 72 -9.33301 111.333 -10 118c-1.33301 13.333 5 21.666 19 24.999c13.333 3.33301 22 -0.666992 26 -12l2 -6c1.33301 -14.667 4.66602 -58 9.99902 -130c47.333 -8 92 -22 134 -42c8 -4 12.5 -10.5 13.5 -19.5
s-1.66699 -16.333 -8 -22s-13.833 -6.5 -22.5 -2.5c-36.667 18 -74.334 30.333 -113.001 37c4 -61.333 7.66699 -127.333 11 -198c60.667 -17.333 113 -35.666 157 -54.999s82.667 -44.333 116 -75zM223.002 507.997l50.001 -13.999c-2.66699 67.333 -6 131 -10 191
c-42 2 -82.333 -2.66699 -121 -14c-48 -14.667 -75.333 -31 -82 -49c-4 -10.667 -3.83301 -21.334 0.5 -32.001s10.333 -19.334 18 -26.001s16.5 -12 26.5 -16c21.333 -9.33301 60.666 -22.666 117.999 -39.999zM479.003 197.998c15.333 6 29.999 13.667 43.999 23
s26.167 19.833 36.5 31.5s14.5 24.667 12.5 39s-11.667 27.833 -29 40.5c-51.333 38 -124.666 71.333 -219.999 100c2.66699 -84.667 4 -175 4 -271c11.333 1.33301 19.333 2.33301 24 3c44 6.66699 86.667 18 128 34z" />
    <glyph glyph-name="percent" unicode="%" horiz-adv-x="528" 
d="M418 805c8 9.33301 18.3291 11.167 30.9961 5.5s16 -14.834 10 -27.501l-124.5 -252.5c-31 -64.333 -66.5 -143.5 -106.5 -237.5s-73.667 -181.667 -101 -263c-3.33301 -9.33301 -9.16602 -14.5 -17.499 -15.5s-15.5 1.83301 -21.5 8.5s-7.66699 14.334 -5 23.001
c57.333 172 151.333 389.667 282 653c-44.667 -29.333 -90 -47.333 -136 -54c-6 -58 -26.667 -96.667 -62 -116c-19.333 -11.333 -40.833 -16 -64.5 -14s-43 11.333 -58 28s-24.167 35.834 -27.5 57.501s-1.16602 41.5 6.50098 59.5s18.667 34.5 33 49.5s31.333 24 51 27
s40.167 -0.166992 61.5 -9.5c8.66699 -4 13.334 -10.5 14.001 -19.5s-2.16602 -16.333 -8.49902 -22s-13.833 -6.5 -22.5 -2.5c-30 14.667 -54.333 8.66699 -73 -18c-16 -23.333 -19.333 -47 -10 -71c7.33301 -20 23.333 -30.667 48 -32
c13.333 -0.666992 24.5 2.33301 33.5 9s15.667 16.167 20 28.5s7.5 23.5 9.5 33.5s3.33301 21.333 4 34c0 3.33301 1 6.5 3 9.5s4.5 5.66699 7.5 8s6.16699 3.5 9.5 3.5c38.667 3.33301 77 15.666 115 36.999s71 48 99 80zM432.996 262.001
c2.66699 8.66699 8.33301 13.499 17 14.499s16 -1.66699 22 -8s7.33301 -14.166 4 -23.499c-8 -24.667 -22.667 -46 -44 -64s-44.666 -26.667 -69.999 -26c-22.667 0.666992 -41.834 9.16699 -57.501 25.5s-23.834 35.833 -24.501 58.5c0 22.667 7.33301 44 22 64
s33 36.333 55 49c20.667 13.333 42.5 15.333 65.5 6s35.5 -27.333 37.5 -54c0.666992 -9.33301 -2.66602 -16.5 -9.99902 -21.5s-15 -6.16699 -23 -3.5s-12.333 8.66699 -13 18c-2 23.333 -16.667 26 -44 8c-10 -6.66699 -18 -13.334 -24 -20.001
c-14.667 -19.333 -20.667 -36.666 -18 -51.999c2 -12 8.16699 -20.667 18.5 -26s21.833 -6 34.5 -2c24.667 8 42 27 52 57z" />
    <glyph glyph-name="ampersand" unicode="&#x26;" horiz-adv-x="416" 
d="M228 794c-2 11.333 -4.00195 25.6689 -6.00195 43.002s-4.16699 33.666 -6.5 48.999s-5.16602 29 -8.49902 41c-3.33301 13.333 1.33398 21.666 14.001 24.999c14 3.33301 24 -0.666992 30 -12c1.33301 -2 2 -4 2 -6c4.66699 -16 9 -40 13 -72s6.66699 -52.333 8 -61
c2 -9.33301 -0.5 -16.5 -7.5 -21.5s-14.833 -6.16699 -23.5 -3.5s-13.667 8.66699 -15 18zM356.998 284.003c8.66699 6.66699 17.834 5.50391 27.501 -3.49609s11.167 -19.167 4.5 -30.5c-16 -28 -28.833 -62.167 -38.5 -102.5s-12.5 -75.833 -8.5 -106.5
c0.666992 -9.33301 -2.66602 -16.5 -9.99902 -21.5s-15 -6.16699 -23 -3.5s-12.667 8.66699 -14 18c-6 51.333 2.33301 109 25 173c-20.667 -8.66699 -42.667 -14.667 -66 -18s-46.333 -4.33301 -69 -3s-44.334 6 -65.001 14s-37.667 19 -51 33
c-19.333 20 -30.666 40.333 -33.999 61s-1 39.5 7 56.5s21.333 35 40 54s36.834 34.667 54.501 47s38.167 25.833 61.5 40.5c-31.333 8.66699 -58.333 23.5 -81 44.5s-37.334 45.667 -44.001 74s-1.33398 58.166 15.999 89.499c19.333 32.667 48.333 52.667 87 60
s77 4 115 -10s68.333 -34 91 -60c6 -7.33301 7.16699 -15 3.5 -23s-9.33398 -12.833 -17.001 -14.5s-15.167 0.833008 -22.5 7.5c-22 26 -53.833 43.833 -95.5 53.5s-76.5 4.16699 -104.5 -16.5c-24 -20.667 -34.667 -41.334 -32 -62.001s12 -39.334 28 -56.001
s36.333 -29.167 61 -37.5s47.334 -10.5 68.001 -6.5c10.667 2.66699 18.834 -2 24.501 -14s3.5 -21 -6.5 -27c-4.66699 -3.33301 -15.834 -10 -33.501 -20s-33.334 -19.333 -47.001 -28l-48.5 -32c-18.667 -12.667 -33.5 -25.167 -44.5 -37.5s-20.167 -25.333 -27.5 -39
s-9 -27.334 -5 -41.001s13.667 -26.5 29 -38.5c30.667 -22.667 71 -31 121 -25s88.667 21.333 116 46c2 2 4.66699 3.66699 8 5z" />
    <glyph glyph-name="quotesingle" unicode="'" horiz-adv-x="147" 
d="M65 709c3.33301 8.66699 9.33496 13.334 18.002 14.001s16 -2.16602 22 -8.49902s7 -13.833 3 -22.5l-41 -103c-3.33301 -8.66699 -9.33301 -13.334 -18 -14.001s-15.834 2.16602 -21.501 8.49902s-6.83398 13.833 -3.50098 22.5l20.5 51.5z" />
    <glyph glyph-name="quotesingle" unicode="&#x2019;" horiz-adv-x="147" 
d="M65 709c3.33301 8.66699 9.33496 13.334 18.002 14.001s16 -2.16602 22 -8.49902s7 -13.833 3 -22.5l-41 -103c-3.33301 -8.66699 -9.33301 -13.334 -18 -14.001s-15.834 2.16602 -21.501 8.49902s-6.83398 13.833 -3.50098 22.5l20.5 51.5z" />
    <glyph glyph-name="quotesingle" unicode="&#x2018;" horiz-adv-x="147" 
d="M65 709c3.33301 8.66699 9.33496 13.334 18.002 14.001s16 -2.16602 22 -8.49902s7 -13.833 3 -22.5l-41 -103c-3.33301 -8.66699 -9.33301 -13.334 -18 -14.001s-15.834 2.16602 -21.501 8.49902s-6.83398 13.833 -3.50098 22.5l20.5 51.5z" />
    <glyph glyph-name="parenleft" unicode="(" horiz-adv-x="398" 
d="M338 17c8 -4.66699 11.3311 -11.333 9.99805 -20s-5.66602 -14.834 -12.999 -18.501s-15.333 -3.5 -24 0.5c-77.333 49.333 -138.333 112.5 -183 189.5s-70.334 156.667 -77.001 239s6 165.166 38 248.499s82 155.333 150 216c6.66699 6.66699 14 8.16699 22 4.5
s12.833 -9.5 14.5 -17.5s-0.833008 -15.667 -7.5 -23c-62.667 -56 -108.5 -122.333 -137.5 -199s-40.167 -152.667 -33.5 -228s30.834 -148.166 72.501 -218.499s97.834 -128.166 168.501 -173.499z" />
    <glyph glyph-name="parenright" unicode=")" horiz-adv-x="416" 
d="M360 520c13.333 -90 3.66992 -179.836 -28.9971 -269.503s-80.667 -173.834 -144 -252.501c-6 -7.33301 -13.5 -10.166 -22.5 -8.49902s-15.167 6.16699 -18.5 13.5s-2.33301 15 3 23c57.333 70.667 101.5 145.5 132.5 224.5s42.833 159.167 35.5 240.5
c-7.33301 78 -33.5 149.167 -78.5 213.5s-103.167 110.5 -174.5 138.5c-8.66699 3.33301 -13.334 9.33301 -14.001 18s2.16602 15.834 8.49902 21.501s13.833 6.83398 22.5 3.50098c75.333 -29.333 137.666 -77.166 186.999 -143.499s80 -140.5 92 -222.5z" />
    <glyph glyph-name="asterisk" unicode="*" horiz-adv-x="274" 
d="M253 522c6 -6.66699 7.16406 -14.001 3.49707 -22.001s-9.5 -12.833 -17.5 -14.5s-15.333 0.833008 -22 7.5c-22.667 24.667 -48 46.667 -76 66c-1.33301 -35.333 -0.333008 -70.333 3 -105c0.666992 -9.33301 -2.66602 -16.666 -9.99902 -21.999s-15 -6.5 -23 -3.5
s-12.667 9.16699 -14 18.5c-2 26 -3 54.667 -3 86c-12 -12 -22.333 -24 -31 -36c-6 -8 -13.333 -11.167 -22 -9.5s-14.667 6 -18 13s-2.66602 14.833 2.00098 23.5c17.333 23.333 38 45.333 62 66c-15.333 6.66699 -26.333 11.667 -33 15
c-9.33301 3.33301 -14.333 9.33301 -15 18s2.16602 15.834 8.49902 21.501s13.833 6.83398 22.5 3.50098c4 -1.33301 14.333 -6 31 -14c2.66699 18.667 4.66699 31 6 37c1.33301 9.33301 6.33301 15.5 15 18.5s16.5 2.16699 23.5 -2.5s9.5 -11.667 7.5 -21
c-0.666992 -4.66699 -2.33398 -15.667 -5.00098 -33c14.667 8 25.334 13.667 32.001 17c8.66699 4 16.334 3.16699 23.001 -2.5s9.83398 -12.834 9.50098 -21.501s-4.83301 -15 -13.5 -19c-4 -2 -12.667 -6.66699 -26 -14c29.333 -20.667 56 -44.334 80 -71.001z" />
    <glyph glyph-name="plus" unicode="+" horiz-adv-x="283" 
d="M218 430c9.33301 1.33301 16.502 -1.6709 21.502 -9.00391s6.16699 -15.166 3.5 -23.499s-8.66699 -13.166 -18 -14.499c-18 -2 -38 -6 -60 -12c4.66699 -30 11.667 -58 21 -84c2.66699 -8.66699 1 -16.5 -5 -23.5s-13.167 -10.167 -21.5 -9.5
s-13.833 5.33398 -16.5 14.001c-9.33301 27.333 -16.666 57 -21.999 89c-24 -8 -45.667 -17 -65 -27c-8.66699 -4 -16.334 -3.33301 -23.001 2s-9.83398 12.333 -9.50098 21s4.83301 15.334 13.5 20.001c23.333 12 49 22.667 77 32c-2.66699 28.667 -3.66699 54.667 -3 78
c0.666992 9.33301 5 15.5 13 18.5s15.667 2.16699 23 -2.5s11 -11.667 11 -21c-0.666992 -18 -0.333984 -38 0.999023 -60c22 5.33301 41.667 9.33301 59 12z" />
    <glyph glyph-name="comma" unicode="," horiz-adv-x="127" 
d="M86 40c3.33301 -24 0.331055 -46.833 -9.00195 -68.5s-23.666 -39.834 -42.999 -54.501c-7.33301 -5.33301 -15.166 -6 -23.499 -2s-13.166 9.83301 -14.499 17.5s1.66699 14.5 9 20.5c27.333 20.667 39 47.334 35 80.001c-1.33301 9.33301 1.66699 16.5 9 21.5
s15.166 6.16699 23.499 3.5s12.833 -8.66699 13.5 -18z" />
    <glyph glyph-name="hyphen" unicode="-" horiz-adv-x="334" 
d="M264 411c5.33301 0 9.83203 -1.83105 13.499 -5.49805s5.66699 -7.83398 6 -12.501s-0.166992 -9.16699 -1.5 -13.5s-4.16602 -8 -8.49902 -11s-9.5 -4.16699 -15.5 -3.5c-60.667 4.66699 -121.334 0 -182.001 -14c-13.333 -2.66699 -21.666 2.66602 -24.999 15.999
s0.666992 23 12 29l6 2c63.333 14 128.333 18.333 195 13z" />
    <glyph glyph-name="period" unicode="." horiz-adv-x="103" 
d="M82 66c4 -4.66699 5.66699 -10.334 5 -17.001s-3.33398 -12 -8.00098 -16c-10.667 -8.66699 -21.667 -7.66699 -33 3l-15 15c-4 4.66699 -5.5 10.334 -4.5 17.001s3.83301 12 8.5 16c10.667 8.66699 21.334 7.66699 32.001 -3z" />
    <glyph glyph-name="slash" unicode="/" horiz-adv-x="338" 
d="M503 697c4.66699 8 11.502 11.333 20.502 10s15.167 -5.66602 18.5 -12.999s2.66602 -15.333 -2.00098 -24c-158.667 -236 -309 -477.333 -451 -724c-6.66699 -12.667 -16 -15 -28 -7c-12.667 7.33301 -16.334 17.333 -11.001 30c0 1.33301 0.333008 2.66602 1 3.99902
c142 246.667 292.667 488 452 724z" />
    <glyph glyph-name="zero" unicode="0" horiz-adv-x="460" 
d="M276 738c34.667 -16 64.001 -37.498 88.001 -64.498s41.5 -56.5 52.5 -88.5s17.667 -66.5 20 -103.5s-0.833984 -73.167 -9.50098 -108.5c-6 -26.667 -13 -52.334 -21 -77.001s-18.667 -50.5 -32 -77.5s-28.333 -50.5 -45 -70.5s-37 -37 -61 -51s-50 -22 -78 -24
c-28.667 -2 -53.667 1.83301 -75 11.5s-37.666 23.167 -48.999 40.5s-20.5 37.5 -27.5 60.5s-10.333 46.667 -10 71s1.16602 48.166 2.49902 71.499c10 80 32.5 156.667 67.5 230s80.167 140 135.5 200c9.33301 10 19.833 11.667 31.5 5s15.167 -15 10.5 -25z
M378.001 367.002c7.33301 32.667 11.165 64.6689 11.498 96.002s-3.5 62 -11.5 92s-22.167 57.333 -42.5 82s-46.166 44 -77.499 58c-4 1.33301 -7.33301 4.33301 -10 9c-62.667 -74 -109 -154.667 -139 -242c-7.33301 -21.333 -13.666 -42.5 -18.999 -63.5
s-10.166 -46 -14.499 -75s-5.83301 -55.167 -4.5 -78.5s7 -45.833 17 -67.5s25 -38.5 45 -50.5c17.333 -8.66699 34.666 -12.334 51.999 -11.001s34.333 7.16602 51 17.499s31.5 21.833 44.5 34.5s24.167 26 33.5 40c26 39.333 47.333 92.333 64 159z" />
    <glyph glyph-name="one" unicode="1" horiz-adv-x="264" 
d="M181 713c8 4 15.832 2.99902 23.499 -3.00098s10.834 -13 9.50098 -21c-29.333 -220 -68.333 -438.333 -117 -655c-2 -8.66699 -7.33301 -14.5 -16 -17.5s-16.334 -2.16699 -23.001 2.5s-9 11.334 -7 20.001c44 195.333 80.333 395.666 109 600.999
c-24.667 -24 -42.667 -54.333 -54 -91c-3.33301 -9.33301 -9.16602 -14.5 -17.499 -15.5s-15.5 1.83301 -21.5 8.5s-7.66699 14.334 -5 23.001c19.333 64 59 113.333 119 148z" />
    <glyph glyph-name="two" unicode="2" horiz-adv-x="593" 
d="M509 90c9.33301 3.33301 17.499 1.99609 24.499 -4.00391s10.333 -13.333 10 -22s-5.16602 -14.667 -14.499 -18c-18 -6 -38.167 -11.5 -60.5 -16.5s-46.5 -9 -72.5 -12s-51 -4 -75 -3s-46.833 4.5 -68.5 10.5s-39 15.333 -52 28s-21.833 29.334 -26.5 50.001
s-2 46.334 8 77.001c11.333 34 25.833 69.333 43.5 106s39.5 78.5 65.5 125.5l55 101.5c1.33301 2.66699 3.66602 7 6.99902 13l14 28c3.33301 6.66699 7.33301 16.167 12 28.5s7.5 22.333 8.5 30s1 16.5 0 26.5s-4.16699 18 -9.5 24s-13.5 11.667 -24.5 17
s-24.833 9 -41.5 11c-9.33301 0 -15.5 0.166992 -18.5 0.5s-9.66699 -0.666992 -20 -3s-17.166 -4 -20.499 -5l-19.5 -6c-9.66699 -3 -15.834 -4.83301 -18.501 -5.5c-36.667 -11.333 -67.334 -25.666 -92.001 -42.999c-23.333 -16.667 -27 -30.667 -11 -42
c8.66699 -5.33301 12.167 -12.666 10.5 -21.999s-6.33398 -15.666 -14.001 -18.999s-15.834 -2.66602 -24.501 2.00098c-14.667 10 -24.667 20.833 -30 32.5s-6 22.667 -2 33s10.333 20.666 19 30.999s19.334 19.666 32.001 27.999s24.834 15.5 36.501 21.5s22.5 11 32.5 15
c15.333 5.33301 29.333 10 42 14s28.167 8 46.5 12s34.833 6 49.5 6s29.667 -1.33301 45 -4s28.833 -8.5 40.5 -17.5s21.167 -21.167 28.5 -36.5c8 -16.667 12.167 -35 12.5 -55s-2 -39 -7 -57s-12.5 -37.833 -22.5 -59.5s-19.667 -40.5 -29 -56.5l-32 -54
c-12 -20 -20.667 -35.667 -26 -47c-5.33301 -10 -16.666 -29.333 -33.999 -58s-31.333 -54.5 -42 -77.5s-16.667 -44.167 -18 -63.5c-1.33301 -20 7 -39.167 25 -57.5s37.667 -30.166 59 -35.499c12.667 -2.66699 37.334 -2.33398 74.001 0.999023
c39.333 3.33301 81 12.333 125 27z" />
    <glyph glyph-name="three" unicode="3" horiz-adv-x="622" 
d="M277 484c15.333 0.666992 30.1699 1.16699 44.5029 1.5s30.5 0.166016 48.5 -0.500977s34.667 -2 50 -4s31 -4.83301 47 -8.5s30 -8 42 -13s23 -11.5 33 -19.5s17.5 -17 22.5 -27s7.33301 -22 7 -36s-3.83301 -29.333 -10.5 -46
c-2.66699 -7.33301 -6.33398 -14.666 -11.001 -21.999l-13 -20c-4 -6 -9.83301 -12.833 -17.5 -20.5l-18.5 -18.5c-4.66699 -4.66699 -12 -10.834 -22 -18.501s-17 -13.167 -21 -16.5s-11.667 -8.83301 -23 -16.5s-18.333 -12.334 -21 -14.001s-10 -6.5 -22 -14.5
s-18.333 -12.333 -19 -13c-84 -55.333 -176.667 -99 -278 -131c-8.66699 -2.66699 -16.5 -1.16699 -23.5 4.5s-10.167 12.5 -9.5 20.5s5.33398 13.667 14.001 17c130 41.333 244 100.666 342 177.999c30.667 24 53.667 44 69 60c22.667 24 28.667 50.167 18 78.5
s-33 44.833 -67 49.5c-48.667 6.66699 -121.334 7.33398 -218.001 2.00098c-11.333 -0.666992 -19.333 3.83301 -24 13.5s-2.66699 18.5 6 26.5c40 38 74 76.333 102 115l14 18.5c7.33301 9.66699 13.166 17.834 17.499 24.501l15 24
c5.66699 9.33301 9.66699 18.166 12 26.499s2.83301 15.5 1.5 21.5c-9.33301 49.333 -65 43.333 -167 -18c-49.333 -29.333 -86 -55 -110 -77c-7.33301 -6.66699 -14.833 -8.16699 -22.5 -4.5s-12.334 9.33398 -14.001 17.001s0.833008 15.167 7.5 22.5
c12.667 12.667 29.5 26.834 50.5 42.501s46.167 32.167 75.5 49.5s57.5 31 84.5 41s52.833 13.5 77.5 10.5s43 -15.167 55 -36.5c34 -62 -7.33301 -151.667 -124 -269z" />
    <glyph glyph-name="four" unicode="4" horiz-adv-x="642" 
d="M556 360c9.33301 4 17.832 2.99902 25.499 -3.00098s11.167 -13.833 10.5 -23.5s-5.66699 -16.5 -15 -20.5c-30.667 -12.667 -66 -25.667 -106 -39c-1.33301 -94 -6 -185.667 -14 -275c-0.666992 -10.667 -5.5 -17.667 -14.5 -21s-17.667 -2.33301 -26 3
s-11.833 13 -10.5 23c7.33301 83.333 11.666 167.333 12.999 252c-58.667 -18 -116 -33 -172 -45c-4.66699 -1.33301 -14.167 -3.66602 -28.5 -6.99902l-34.5 -8c-8.66699 -2 -20 -3.66699 -34 -5s-25.833 -1.5 -35.5 -0.5s-19.5 3.83301 -29.5 8.5s-18 11.334 -24 20.001
c-4 5.33301 -6.83301 11 -8.5 17s-2.66699 11 -3 15s0.5 9.83301 2.5 17.5s3.33301 12.667 4 15s2.66699 7.83301 6 16.5c6.66699 18 14.834 37 24.501 57s20.834 41.833 33.501 65.5s22 41.834 28 54.501l41 85.5l41.5 85l41.5 85l41 85.5c4.66699 9.33301 12 14.333 22 15
s18 -2.33301 24 -9s7 -15 3 -25l-116 -238l-116 -238c0 -0.666992 -1 -2.83398 -3 -6.50098s-3.5 -6.5 -4.5 -8.5s-2.33301 -5.16699 -4 -9.5s-3 -8 -4 -11s-2 -6.33301 -3 -10s-1.5 -7.16699 -1.5 -10.5s0.166992 -6.5 0.5 -9.5s1.5 -5.83301 3.5 -8.5
s4.33301 -4.66699 7 -6c6.66699 -1.33301 12.5 -1.83301 17.5 -1.5s13.333 1.83301 25 4.5s18.167 4 19.5 4c34.667 6 76.334 15.333 125.001 28c35.333 8.66699 72.666 19.334 111.999 32.001c0 76 -1.33301 146 -4 210c-0.666992 10.667 3.16602 18.667 11.499 24
s16.833 6.66602 25.5 3.99902s13.334 -9.33398 14.001 -20.001c2.66699 -59.333 4 -126 4 -200z" />
    <glyph glyph-name="five" unicode="5" horiz-adv-x="471" 
d="M399 345c18 -34.667 24.832 -72.1719 20.499 -112.505s-17.5 -76.5 -39.5 -108.5c-23.333 -34 -53.166 -60.333 -89.499 -79s-81.833 -36 -136.5 -52c-14 -4 -23 1.33301 -27 16s0.333008 25.667 13 33c2 1.33301 4 2.33301 6 3c30 8.66699 53.667 16.167 71 22.5
s37.5 16.5 60.5 30.5s41.5 30.333 55.5 49c12.667 17.333 22.334 37 29.001 59s8.66699 44.5 6 67.5s-11.334 42.833 -26.001 59.5c-8.66699 9.33301 -18.334 16.666 -29.001 21.999s-22.334 8.5 -35.001 9.5s-24.5 1.16699 -35.5 0.5s-24 -1.66699 -39 -3
s-27.167 -1.66602 -36.5 -0.999023c-39.333 0 -74.666 9.33301 -105.999 28c-3.33301 2 -6.16602 5.33301 -8.49902 10s-3.16602 9.33398 -2.49902 14.001c25.333 114.667 54 227.667 86 339c2.66699 10 8.66699 15.5 18 16.5s17.5 -2.16699 24.5 -9.5s8.83301 -16 5.5 -26
c-0.666992 -2 -1.5 -5.16699 -2.5 -9.5s-1.83301 -7.5 -2.5 -9.5l109 24l109 24c10 2.66699 16 -1.33301 18 -12c2 -11.333 -2.33301 -18.666 -13 -21.999c-26 -5.33301 -64.833 -13.833 -116.5 -25.5s-90.5 -20.167 -116.5 -25.5c-18 -65.333 -33 -122.666 -45 -171.999
l-5 -17.5c-2 -7 -3.83301 -12.833 -5.5 -17.5s-2.83398 -10 -3.50098 -16s-0.5 -11.167 0.5 -15.5s3.33301 -8.66602 7 -12.999s8.83398 -8.16602 15.501 -11.499c7.33301 -2.66699 15.666 -4.16699 24.999 -4.5s20.5 0.333984 33.5 2.00098s21.5 2.83398 25.5 3.50098
c17.333 1.33301 35 1.33301 53 0s34.667 -3.83301 50 -7.5s30 -10.834 44 -21.501s25.667 -24.334 35 -41.001z" />
    <glyph glyph-name="six" unicode="6" horiz-adv-x="563" 
d="M408 320c32 0 58.1699 -6.83301 78.5029 -20.5s29.166 -35.834 26.499 -66.501c-2.66699 -30 -12.167 -58.833 -28.5 -86.5s-37.166 -51.5 -62.499 -71.5s-52.666 -36.167 -81.999 -48.5s-60 -18.333 -92 -18s-61 7.5 -87 21.5c-29.333 15.333 -52.833 34.833 -70.5 58.5
s-29 49.667 -34 78s-7 57 -6 86s6 59.667 15 92s18.333 61.333 28 87s20.834 52.167 33.501 79.5c8 16.667 18 35.167 30 55.5s26.833 43.333 44.5 69s36.667 48.5 57 68.5s41 37 62 51s42.833 20.667 65.5 20s43.667 -10.334 63 -29.001
c11.333 -10.667 11.333 -21.667 0 -33c-12 -12 -24.667 -13.667 -38 -5l-5 3c-4.66699 4.66699 -10.334 7.33398 -17.001 8.00098s-13.834 -0.666016 -21.501 -3.99902s-15.5 -7.66602 -23.5 -12.999s-16.167 -11.666 -24.5 -18.999s-16 -14.5 -23 -21.5
s-13.833 -14.333 -20.5 -22l-16 -18.5l-11 -13c-29.333 -38 -56 -84.333 -80 -139c-11.333 -26 -20.333 -47.333 -27 -64s-14.167 -39 -22.5 -67s-13.5 -52.333 -15.5 -73s-1 -43 3 -67s12 -45.667 24 -65c18.667 -30 42.334 -50.167 71.001 -60.5s57.167 -11.833 85.5 -4.5
s55.5 20.5 81.5 39.5s47 41.5 63 67.5c4 6.66699 7.16699 12.167 9.5 16.5s5 9.83301 8 16.5s4.66699 12.5 5 17.5s0.166016 10.167 -0.500977 15.5s-3.33398 10 -8.00098 14s-10.667 7.33301 -18 10c-12.667 4 -42.334 1 -89.001 -9c-60 -12 -116 -39.333 -168 -82
c-8.66699 -6.66699 -17.834 -7.83398 -27.501 -3.50098s-15.167 11.166 -16.5 20.499s1.66699 18 9 26c85.333 68.667 176 103 272 103z" />
    <glyph glyph-name="seven" unicode="7" horiz-adv-x="635" 
d="M561 468c6.66699 2.66699 12.5 1.82812 17.5 -2.50488s7.33301 -9.5 7 -15.5s-3.83301 -10.333 -10.5 -13l-81 -28c-36 -12.667 -63.333 -22 -82 -28c-11.333 -23.333 -19.666 -40 -24.999 -50c-54.667 -109.333 -117.667 -218.333 -189 -327
c-5.33301 -8.66699 -12.833 -12.167 -22.5 -10.5s-16.334 6.5 -20.001 14.5s-3.16699 16.667 1.5 26c68 103.333 130 211 186 323l-86 -30c-10.667 -3.33301 -18 0.333984 -22 11.001c-4 10 -1 16.667 9 20l60 21l60 21c18.667 40 34.334 75 47.001 105
c22.667 52.667 36 89.667 40 111c5.33301 36.667 4 59.334 -4 68.001c-16 18.667 -50.333 27.334 -103 26.001c-25.333 -0.666992 -53.166 -3.83398 -83.499 -9.50098s-63.666 -13 -99.999 -22s-63.833 -15.167 -82.5 -18.5c-6 -1.33301 -11.333 -0.666016 -16 2.00098
s-7.83398 6.33398 -9.50098 11.001s-2.33398 9.66699 -2.00098 15s2.16602 10 5.49902 14s8.33301 6.66699 15 8l206 39l27.5 6c12.333 2.66699 22.5 4.66699 30.5 6s17.5 2.83301 28.5 4.5s21.333 2.16699 31 1.5s18.834 -2 27.501 -4c31.333 -8 53.666 -25.333 66.999 -52
s18 -57 14 -91c-6.66699 -51.333 -29.667 -116.666 -69 -195.999l64 22.5z" />
    <glyph glyph-name="eight" unicode="8" horiz-adv-x="525" 
d="M473 229c5.33301 -24.667 1.17285 -48.6621 -12.4941 -71.9951s-32.667 -43.333 -57 -60s-51.333 -31 -81 -43s-58.334 -21 -86.001 -27s-51.834 -8.66699 -72.501 -8c-64 1.33301 -91.333 31.666 -82 90.999c7.33301 46.667 32 95.334 74 146.001
c12.667 15.333 24.667 27.333 36 36c7.33301 6 15 7.16699 23 3.5s12.667 -9.5 14 -17.5s-1.33398 -15.333 -8.00098 -22c-8 -6.66699 -16.833 -14.834 -26.5 -24.501s-19.834 -21.334 -30.501 -35.001s-19 -27 -25 -40s-9.66699 -26.167 -11 -39.5s2.66699 -25 12 -35
c7.33301 -9.33301 18.5 -14.833 33.5 -16.5s31.333 -0.166992 49 4.5s33.334 9.5 47.001 14.5s26.834 10.5 39.501 16.5c13.333 6 25.666 12.333 36.999 19s23.5 15.167 36.5 25.5s22.833 20.833 29.5 31.5s9.66699 22.667 9 36s-6.66699 26.666 -18 39.999
c-9.33301 11.333 -22.833 21 -40.5 29s-39.334 15.5 -65.001 22.5s-41.834 11.833 -48.501 14.5c-1.33301 0 -3.16602 0.5 -5.49902 1.5s-3.83301 1.83301 -4.5 2.5l-3 -3l-3 -3c-9.33301 -8 -18.666 -8.33301 -27.999 -1s-12.333 16.333 -9 27
c-30.667 16.667 -57.334 36.5 -80.001 59.5s-40.334 48.167 -53.001 75.5s-16.334 57 -11.001 89s20.666 63.333 45.999 94c12 15.333 29.667 31.666 53 48.999s49.5 33.166 78.5 47.499s57.333 24.833 85 31.5s53.167 5.33398 76.5 -3.99902s40 -28 50 -56
c10.667 -30.667 11 -63.334 1 -98.001s-25.667 -72 -47 -112c-30 -57.333 -69 -110.333 -117 -159c16 -6.66699 33 -13 51 -19s33 -11.5 45 -16.5s25.833 -12 41.5 -21s28.334 -19.667 38.001 -32s16.167 -26.5 19.5 -42.5zM128.007 625.005
c-70 -94.667 -35.332 -176.334 104.001 -245.001c78.667 75.333 131.667 157.333 159 246c12 38.667 14.667 65.334 8 80.001c-4 8.66699 -8.33301 16 -13 22s-10.334 10.167 -17.001 12.5s-12.167 4 -16.5 5s-11 0.333008 -20 -2s-15.167 -4 -18.5 -5s-10 -3.66699 -20 -8
s-16 -6.83301 -18 -7.5c-70.667 -28 -120 -60.667 -148 -98z" />
    <glyph glyph-name="nine" unicode="9" horiz-adv-x="458" 
d="M171 685c-37.333 -55.333 -60.6689 -109.332 -70.002 -161.999c-5.33301 -30.667 -1 -58 13 -82s37 -32.667 69 -26c32.667 6 63 25 91 57c36.667 42 59.334 95 68.001 159c1.33301 9.33301 6 15.5 14 18.5s15.667 2.16699 23 -2.5s10.666 -11.667 9.99902 -21
c-14 -199.333 -39.333 -397 -76 -593c-1.33301 -9.33301 -6.33301 -15.5 -15 -18.5s-16.5 -2.16699 -23.5 2.5s-9.5 11.667 -7.5 21c26 140 46.333 282.333 61 427c-32 -46 -71.333 -76.333 -118 -91c-46 -14.667 -84.833 -9.16699 -116.5 16.5s-46.167 62.5 -43.5 110.5
c4 56 22.833 114.167 56.5 174.5s73.5 105.5 119.5 135.5c22.667 15.333 47.167 23.666 73.5 24.999s49.833 -5.5 70.5 -20.5s33.334 -36.833 38.001 -65.5c1.33301 -9.33301 -1.66699 -16.5 -9 -21.5s-15 -6.16699 -23 -3.5s-13 8.66699 -15 18
c-8.66699 64.667 -44.667 73 -108 25c-33.333 -26 -60.666 -53.667 -81.999 -83z" />
    <glyph glyph-name="colon" unicode=":" horiz-adv-x="175" 
d="M96 497c0 -6 -2.66699 -11.167 -8 -15.5s-11 -6.16602 -17 -5.49902c-14 2 -21 10.667 -21 26v39c0 6 2.83301 11.167 8.5 15.5s11.5 6.16602 17.5 5.49902c13.333 -2 20 -10.667 20 -26v-39zM99 276c13.333 1.33301 21.668 -4.49902 25.001 -17.499
s-0.666992 -21.833 -12 -26.5c-2 -8 -6.33301 -14.167 -13 -18.5s-14.334 -5.83301 -23.001 -4.5c-6 1.33301 -11.333 4.5 -16 9.5s-6.33398 10.5 -5.00098 16.5c2 7.33301 5.66699 14.666 11 21.999c1.33301 6.66699 4.83301 12 10.5 16s11.834 4.66699 18.501 2l2 1h2z
M73.002 234.001h1l-0.5 0.5c-0.333008 0.333008 -0.5 0.833008 -0.5 1.5v-1.5v-0.5z" />
    <glyph glyph-name="semicolon" unicode=";" horiz-adv-x="192" 
d="M98 481c-6 -2 -11.333 -2.33203 -16 -0.999023s-8.33398 4 -11.001 8s-4.5 8.16699 -5.5 12.5s-0.333008 8.66602 2 12.999s5.83301 7.5 10.5 9.5c1.33301 0.666992 2.33301 0.666992 3 0c-0.666992 0.666992 -1.33398 1.66699 -2.00098 3
c-2 9.33301 0.333008 16.5 7 21.5s14.334 6.16699 23.001 3.5s14.334 -8.66699 17.001 -18c2.66699 -10.667 1.16699 -21 -4.5 -31s-13.5 -17 -23.5 -21zM126 352.001c15.333 -29.333 19.499 -60.501 12.499 -93.501s-23.833 -59.5 -50.5 -79.5
c-7.33301 -6 -15 -7.16699 -23 -3.5s-12.667 9.5 -14 17.5s1.33398 15.333 8.00098 22c18 14 29.333 32 34 54s1.33398 43.333 -9.99902 64c-4.66699 8 -4.33398 15.333 0.999023 22s12.5 9.83398 21.5 9.50098s15.833 -4.5 20.5 -12.5z" />
    <glyph glyph-name="less" unicode="&#x3c;" horiz-adv-x="416" 
d="M390 220c8.66699 -2.66699 13.499 -8.16797 14.499 -16.501s-1.66699 -15.5 -8 -21.5s-14.166 -7.66699 -23.499 -5l-62 20l-60.5 19c-17.667 5.33301 -38.5 12 -62.5 20l-61 20c-2.66699 0.666992 -10.167 2.66699 -22.5 6s-21.666 6.16602 -27.999 8.49902
s-14.166 6 -23.499 11s-16.5 10.667 -21.5 17s-8.16699 13.833 -9.5 22.5c-2.66699 15.333 0 29.833 8 43.5s20 25.834 36 36.501s33.167 20.5 51.5 29.5s38.166 16.833 59.499 23.5s39.333 11.834 54 15.501s28.334 6.83398 41.001 9.50098c9.33301 2 16.5 -0.5 21.5 -7.5
s6.16699 -14.667 3.5 -23s-8.66699 -13.5 -18 -15.5c-48 -10 -91.333 -24.667 -130 -44c-1.33301 -0.666992 -5.83301 -2.66699 -13.5 -6s-14.334 -6.5 -20.001 -9.5s-11.334 -6.5 -17.001 -10.5s-9.16699 -7.33301 -10.5 -10c-2.66699 -6.66699 -4 -12.5 -4 -17.5
s0.833008 -9 2.5 -12s4.66699 -5.66699 9 -8s8 -4 11 -5s7.33301 -2.33301 13 -4s9.5 -2.83398 11.5 -3.50098c20 -6 60 -18.667 120 -38z" />
    <glyph glyph-name="equal" unicode="=" horiz-adv-x="420" 
d="M90 372c-9.33301 -2 -16.501 0.499023 -21.501 7.49902s-6.16699 14.667 -3.5 23s8.66699 13.5 18 15.5c78 14.667 157.333 18.667 238 12c9.33301 -0.666992 15.5 -5 18.5 -13s2.16699 -15.667 -2.5 -23s-11.667 -10.666 -21 -9.99902
c-75.333 6 -150.666 2 -225.999 -12zM349.999 314.999c9.33301 0 15.666 -3.83301 18.999 -11.5s2.5 -15.334 -2.5 -23.001s-12.167 -11.5 -21.5 -11.5c-90 2 -179.667 -8 -269 -30c-9.33301 -2 -16.5 0.333008 -21.5 7s-6.16699 14.334 -3.5 23.001s8.66699 14 18 16
c90.667 22 184.334 32 281.001 30z" />
    <glyph glyph-name="greater" unicode="&#x3e;" horiz-adv-x="352" 
d="M332 378c4 -32 -16 -65.999 -60 -101.999l-56.5 -43.5l-67.5 -49.5c-24.667 -18 -43.667 -32.333 -57 -43c-8 -5.33301 -16 -6 -24 -2s-12.667 9.83301 -14 17.5s1.33398 14.834 8.00098 21.501l60.5 45l60.5 45c2.66699 2 12.667 8.66699 30 20
s31.666 21.833 42.999 31.5s18.333 18.834 21 27.501c4 11.333 3.83301 21.166 -0.5 29.499s-12.166 14.833 -23.499 19.5s-21.833 8.5 -31.5 11.5s-21.334 5.66699 -35.001 8s-22.167 3.83301 -25.5 4.5l-131 34c-11.333 2.66699 -16.333 10.667 -15 24s8 20.333 20 21
c2 0 5.66699 0.333008 11 1c6.66699 0 12.667 -2.33301 18 -7c10 -2 31 -6.83301 63 -14.5s58.667 -14.334 80 -20.001s42 -11.834 62 -18.501c38.667 -12.667 60 -33 64 -61z" />
    <glyph glyph-name="question" unicode="?" horiz-adv-x="340" 
d="M203 783c26 1.33301 46.501 -4.50195 61.501 -17.502s23.5 -32.5 25.5 -58.5c2 -34.667 -2.5 -70.5 -13.5 -107.5s-25.167 -71.833 -42.5 -104.5l-52 -97.5c-17.333 -32.333 -31.833 -67.166 -43.5 -104.499s-16.5 -73.333 -14.5 -108c0 -10 -3.66699 -17.5 -11 -22.5
s-15 -6.16699 -23 -3.5s-12.333 9 -13 19c-0.666992 27.333 1 53.833 5 79.5s12 53.834 24 84.501s21.5 53.5 28.5 68.5l37.5 77.5l17 33c10.667 20.667 17.667 35 21 43l15.5 37.5c7 17 11.667 31.833 14 44.5s3.16602 25 2.49902 37c-4 52.667 -32 66.667 -84 42
c-35.333 -16.667 -67.666 -42 -96.999 -76c-4.66699 -5.33301 -8.33398 -10.333 -11.001 -15c-5.33301 -8 -12.333 -11.167 -21 -9.5s-14.667 6.16699 -18 13.5s-3 15 1 23c22 34.667 49.833 63.167 83.5 85.5s69.5 34.5 107.5 36.5zM81.001 44.998
c8.66699 4 16.333 3.33496 23 -1.99805s9.83398 -12.333 9.50098 -21s-4.83301 -15.334 -13.5 -20.001c-14.667 -7.33301 -24.334 -12 -29.001 -14c-8 -4.66699 -15.333 -4.33398 -22 0.999023s-9.83398 12.5 -9.50098 21.5s4.5 15.5 12.5 19.5
c4.66699 2 14.334 7 29.001 15z" />
    <glyph glyph-name="at" unicode="@" horiz-adv-x="671" 
d="M589 -136c8 4 15.3281 3.33008 21.9951 -2.00293s9.83398 -12.333 9.50098 -21s-4.5 -15.334 -12.5 -20.001c-45.333 -22.667 -93.166 -35.334 -143.499 -38.001s-98 3.83301 -143 19.5s-86.833 39.834 -125.5 72.501s-69.667 71.334 -93 116.001
c-21.333 40 -36.333 85.333 -45 136s-10.334 100.834 -5.00098 150.501s20.666 96.5 45.999 140.5s59 78 101 102c33.333 18.667 69.166 28.334 107.499 29.001s74.5 -7 108.5 -23s65.167 -36.833 93.5 -62.5s50.833 -56 67.5 -91s25.667 -70.5 27 -106.5
c0 -22.667 -3 -45.334 -9 -68.001s-17 -43 -33 -61s-36 -27 -60 -27c-35.333 0.666992 -60 17.334 -74 50.001c-18 -34.667 -40.667 -64.334 -68 -89.001c-12.667 -11.333 -25.167 -20.5 -37.5 -27.5s-26.333 -10.167 -42 -9.5s-28.834 7.66699 -39.501 21
c-25.333 33.333 -15.666 85.333 29.001 156c40 64 98 108.667 174 134c9.33301 2.66699 17.333 1.16699 24 -4.5s9.83398 -12.667 9.50098 -21s-5.16602 -14.166 -14.499 -17.499c-2 -0.666992 -4.66699 -1.66699 -8 -3c8.66699 -4 12.334 -11.333 11.001 -22
c-3.33301 -15.333 -5.33301 -30.666 -6 -45.999c46.667 -70.667 76.667 -77.667 90 -21c12 37.333 10 78 -6 122c-20.667 56 -57.667 100.333 -111 133c-55.333 31.333 -106.166 41.5 -152.499 30.5s-85.5 -36.833 -117.5 -77.5s-52.333 -88.667 -61 -144
c-7.33301 -44.667 -6.66602 -89.5 2.00098 -134.5s23.334 -86.333 44.001 -124s47 -71.167 79 -100.5s66.667 -51.833 104 -67.5s78.5 -22.5 123.5 -20.5s89.833 14.333 134.5 37zM372.995 157.997c22.667 34 37.999 75.3359 45.999 124.003
c0.666992 0.666992 1 1.16699 1 1.5v1.5c-32.667 -16.667 -61.667 -36.834 -87 -60.501s-39.666 -48.834 -42.999 -75.501c-6 -38.667 -0.666992 -56.334 16 -53.001s37.667 22 63 56z" />
    <glyph glyph-name="A" unicode="A" horiz-adv-x="993" 
d="M961 276c9.33301 -0.666992 15.5 -4.99805 18.5 -12.998s2.16699 -15.833 -2.5 -23.5s-11.667 -11.167 -21 -10.5c-67.333 5.33301 -142.666 1.33301 -225.999 -12c-7.33301 -220 -21.666 -445.333 -42.999 -676c-0.666992 -10 -5.16699 -16.5 -13.5 -19.5
s-16.166 -2 -23.499 3s-10.333 12.167 -9 21.5c20 224.667 34 445.667 42 663c-60.667 -12 -131.667 -29.667 -213 -53c-98.667 -28 -190.334 -60 -275.001 -96c-46.667 -146.667 -82.667 -286 -108 -418c-2.66699 -13.333 -11 -20 -25 -20c-13.333 0 -20.666 6 -21.999 18
c0 2 0.333008 4.33301 1 7c24 126.667 56 255.667 96 387c-86 -40.667 -163 -85 -231 -133c-8 -5.33301 -16.167 -6 -24.5 -2s-13 9.66699 -14 17s1.83301 14.333 8.5 21c82 58 175.333 110.333 280 157c36.667 112.667 77.667 224 123 334
c1.33301 4 7.83301 20.167 19.5 48.5l22 53.5l21.5 50.5c11.333 26.333 19.666 44.666 24.999 54.999l25.5 50.5c11.667 23.333 21.5 41 29.5 53l30.5 47c12.333 19.333 23.833 35.166 34.5 47.499s22.667 25.5 36 39.5s26.666 26.333 39.999 37
c23.333 18.667 44.166 29.334 62.499 32.001s33.5 -1.83301 45.5 -13.5s21.667 -26.667 29 -45s13 -40.5 17 -66.5c9.33301 -56 15.5 -119.667 18.5 -191s4 -127.833 3 -169.5s-3.16699 -105.834 -6.5 -192.501c84 12.667 160.333 16.667 229 12zM442 196.002
c92.667 27.333 173.666 47.332 242.999 59.999c4 76.667 5.83301 162.334 5.5 257.001s-4.83301 180 -13.5 256c-0.666992 2 -1.5 9 -2.5 21s-2.16699 22.667 -3.5 32s-3 20 -5 32s-5.16699 22 -9.5 30s-9.16602 13 -14.499 15c-21.333 10 -60.333 -23 -117 -99
c-36.667 -49.333 -72 -107 -106 -173s-61.167 -124 -81.5 -174s-44.5 -113.333 -72.5 -190c-18 -48.667 -35 -97 -51 -145c70.667 28.667 146.667 54.667 228 78z" />
    <glyph glyph-name="A" unicode="&#xc5;" horiz-adv-x="993" 
d="M961 276c9.33301 -0.666992 15.5 -4.99805 18.5 -12.998s2.16699 -15.833 -2.5 -23.5s-11.667 -11.167 -21 -10.5c-67.333 5.33301 -142.666 1.33301 -225.999 -12c-7.33301 -220 -21.666 -445.333 -42.999 -676c-0.666992 -10 -5.16699 -16.5 -13.5 -19.5
s-16.166 -2 -23.499 3s-10.333 12.167 -9 21.5c20 224.667 34 445.667 42 663c-60.667 -12 -131.667 -29.667 -213 -53c-98.667 -28 -190.334 -60 -275.001 -96c-46.667 -146.667 -82.667 -286 -108 -418c-2.66699 -13.333 -11 -20 -25 -20c-13.333 0 -20.666 6 -21.999 18
c0 2 0.333008 4.33301 1 7c24 126.667 56 255.667 96 387c-86 -40.667 -163 -85 -231 -133c-8 -5.33301 -16.167 -6 -24.5 -2s-13 9.66699 -14 17s1.83301 14.333 8.5 21c82 58 175.333 110.333 280 157c36.667 112.667 77.667 224 123 334
c1.33301 4 7.83301 20.167 19.5 48.5l22 53.5l21.5 50.5c11.333 26.333 19.666 44.666 24.999 54.999l25.5 50.5c11.667 23.333 21.5 41 29.5 53l30.5 47c12.333 19.333 23.833 35.166 34.5 47.499s22.667 25.5 36 39.5s26.666 26.333 39.999 37
c23.333 18.667 44.166 29.334 62.499 32.001s33.5 -1.83301 45.5 -13.5s21.667 -26.667 29 -45s13 -40.5 17 -66.5c9.33301 -56 15.5 -119.667 18.5 -191s4 -127.833 3 -169.5s-3.16699 -105.834 -6.5 -192.501c84 12.667 160.333 16.667 229 12zM442 196.002
c92.667 27.333 173.666 47.332 242.999 59.999c4 76.667 5.83301 162.334 5.5 257.001s-4.83301 180 -13.5 256c-0.666992 2 -1.5 9 -2.5 21s-2.16699 22.667 -3.5 32s-3 20 -5 32s-5.16699 22 -9.5 30s-9.16602 13 -14.499 15c-21.333 10 -60.333 -23 -117 -99
c-36.667 -49.333 -72 -107 -106 -173s-61.167 -124 -81.5 -174s-44.5 -113.333 -72.5 -190c-18 -48.667 -35 -97 -51 -145c70.667 28.667 146.667 54.667 228 78z" />
    <glyph glyph-name="A" unicode="&#xc3;" horiz-adv-x="993" 
d="M961 276c9.33301 -0.666992 15.5 -4.99805 18.5 -12.998s2.16699 -15.833 -2.5 -23.5s-11.667 -11.167 -21 -10.5c-67.333 5.33301 -142.666 1.33301 -225.999 -12c-7.33301 -220 -21.666 -445.333 -42.999 -676c-0.666992 -10 -5.16699 -16.5 -13.5 -19.5
s-16.166 -2 -23.499 3s-10.333 12.167 -9 21.5c20 224.667 34 445.667 42 663c-60.667 -12 -131.667 -29.667 -213 -53c-98.667 -28 -190.334 -60 -275.001 -96c-46.667 -146.667 -82.667 -286 -108 -418c-2.66699 -13.333 -11 -20 -25 -20c-13.333 0 -20.666 6 -21.999 18
c0 2 0.333008 4.33301 1 7c24 126.667 56 255.667 96 387c-86 -40.667 -163 -85 -231 -133c-8 -5.33301 -16.167 -6 -24.5 -2s-13 9.66699 -14 17s1.83301 14.333 8.5 21c82 58 175.333 110.333 280 157c36.667 112.667 77.667 224 123 334
c1.33301 4 7.83301 20.167 19.5 48.5l22 53.5l21.5 50.5c11.333 26.333 19.666 44.666 24.999 54.999l25.5 50.5c11.667 23.333 21.5 41 29.5 53l30.5 47c12.333 19.333 23.833 35.166 34.5 47.499s22.667 25.5 36 39.5s26.666 26.333 39.999 37
c23.333 18.667 44.166 29.334 62.499 32.001s33.5 -1.83301 45.5 -13.5s21.667 -26.667 29 -45s13 -40.5 17 -66.5c9.33301 -56 15.5 -119.667 18.5 -191s4 -127.833 3 -169.5s-3.16699 -105.834 -6.5 -192.501c84 12.667 160.333 16.667 229 12zM442 196.002
c92.667 27.333 173.666 47.332 242.999 59.999c4 76.667 5.83301 162.334 5.5 257.001s-4.83301 180 -13.5 256c-0.666992 2 -1.5 9 -2.5 21s-2.16699 22.667 -3.5 32s-3 20 -5 32s-5.16699 22 -9.5 30s-9.16602 13 -14.499 15c-21.333 10 -60.333 -23 -117 -99
c-36.667 -49.333 -72 -107 -106 -173s-61.167 -124 -81.5 -174s-44.5 -113.333 -72.5 -190c-18 -48.667 -35 -97 -51 -145c70.667 28.667 146.667 54.667 228 78z" />
    <glyph glyph-name="A" unicode="&#xc2;" horiz-adv-x="993" 
d="M961 276c9.33301 -0.666992 15.5 -4.99805 18.5 -12.998s2.16699 -15.833 -2.5 -23.5s-11.667 -11.167 -21 -10.5c-67.333 5.33301 -142.666 1.33301 -225.999 -12c-7.33301 -220 -21.666 -445.333 -42.999 -676c-0.666992 -10 -5.16699 -16.5 -13.5 -19.5
s-16.166 -2 -23.499 3s-10.333 12.167 -9 21.5c20 224.667 34 445.667 42 663c-60.667 -12 -131.667 -29.667 -213 -53c-98.667 -28 -190.334 -60 -275.001 -96c-46.667 -146.667 -82.667 -286 -108 -418c-2.66699 -13.333 -11 -20 -25 -20c-13.333 0 -20.666 6 -21.999 18
c0 2 0.333008 4.33301 1 7c24 126.667 56 255.667 96 387c-86 -40.667 -163 -85 -231 -133c-8 -5.33301 -16.167 -6 -24.5 -2s-13 9.66699 -14 17s1.83301 14.333 8.5 21c82 58 175.333 110.333 280 157c36.667 112.667 77.667 224 123 334
c1.33301 4 7.83301 20.167 19.5 48.5l22 53.5l21.5 50.5c11.333 26.333 19.666 44.666 24.999 54.999l25.5 50.5c11.667 23.333 21.5 41 29.5 53l30.5 47c12.333 19.333 23.833 35.166 34.5 47.499s22.667 25.5 36 39.5s26.666 26.333 39.999 37
c23.333 18.667 44.166 29.334 62.499 32.001s33.5 -1.83301 45.5 -13.5s21.667 -26.667 29 -45s13 -40.5 17 -66.5c9.33301 -56 15.5 -119.667 18.5 -191s4 -127.833 3 -169.5s-3.16699 -105.834 -6.5 -192.501c84 12.667 160.333 16.667 229 12zM442 196.002
c92.667 27.333 173.666 47.332 242.999 59.999c4 76.667 5.83301 162.334 5.5 257.001s-4.83301 180 -13.5 256c-0.666992 2 -1.5 9 -2.5 21s-2.16699 22.667 -3.5 32s-3 20 -5 32s-5.16699 22 -9.5 30s-9.16602 13 -14.499 15c-21.333 10 -60.333 -23 -117 -99
c-36.667 -49.333 -72 -107 -106 -173s-61.167 -124 -81.5 -174s-44.5 -113.333 -72.5 -190c-18 -48.667 -35 -97 -51 -145c70.667 28.667 146.667 54.667 228 78z" />
    <glyph glyph-name="A" unicode="&#xc1;" horiz-adv-x="993" 
d="M961 276c9.33301 -0.666992 15.5 -4.99805 18.5 -12.998s2.16699 -15.833 -2.5 -23.5s-11.667 -11.167 -21 -10.5c-67.333 5.33301 -142.666 1.33301 -225.999 -12c-7.33301 -220 -21.666 -445.333 -42.999 -676c-0.666992 -10 -5.16699 -16.5 -13.5 -19.5
s-16.166 -2 -23.499 3s-10.333 12.167 -9 21.5c20 224.667 34 445.667 42 663c-60.667 -12 -131.667 -29.667 -213 -53c-98.667 -28 -190.334 -60 -275.001 -96c-46.667 -146.667 -82.667 -286 -108 -418c-2.66699 -13.333 -11 -20 -25 -20c-13.333 0 -20.666 6 -21.999 18
c0 2 0.333008 4.33301 1 7c24 126.667 56 255.667 96 387c-86 -40.667 -163 -85 -231 -133c-8 -5.33301 -16.167 -6 -24.5 -2s-13 9.66699 -14 17s1.83301 14.333 8.5 21c82 58 175.333 110.333 280 157c36.667 112.667 77.667 224 123 334
c1.33301 4 7.83301 20.167 19.5 48.5l22 53.5l21.5 50.5c11.333 26.333 19.666 44.666 24.999 54.999l25.5 50.5c11.667 23.333 21.5 41 29.5 53l30.5 47c12.333 19.333 23.833 35.166 34.5 47.499s22.667 25.5 36 39.5s26.666 26.333 39.999 37
c23.333 18.667 44.166 29.334 62.499 32.001s33.5 -1.83301 45.5 -13.5s21.667 -26.667 29 -45s13 -40.5 17 -66.5c9.33301 -56 15.5 -119.667 18.5 -191s4 -127.833 3 -169.5s-3.16699 -105.834 -6.5 -192.501c84 12.667 160.333 16.667 229 12zM442 196.002
c92.667 27.333 173.666 47.332 242.999 59.999c4 76.667 5.83301 162.334 5.5 257.001s-4.83301 180 -13.5 256c-0.666992 2 -1.5 9 -2.5 21s-2.16699 22.667 -3.5 32s-3 20 -5 32s-5.16699 22 -9.5 30s-9.16602 13 -14.499 15c-21.333 10 -60.333 -23 -117 -99
c-36.667 -49.333 -72 -107 -106 -173s-61.167 -124 -81.5 -174s-44.5 -113.333 -72.5 -190c-18 -48.667 -35 -97 -51 -145c70.667 28.667 146.667 54.667 228 78z" />
    <glyph glyph-name="A" unicode="&#xc0;" horiz-adv-x="993" 
d="M961 276c9.33301 -0.666992 15.5 -4.99805 18.5 -12.998s2.16699 -15.833 -2.5 -23.5s-11.667 -11.167 -21 -10.5c-67.333 5.33301 -142.666 1.33301 -225.999 -12c-7.33301 -220 -21.666 -445.333 -42.999 -676c-0.666992 -10 -5.16699 -16.5 -13.5 -19.5
s-16.166 -2 -23.499 3s-10.333 12.167 -9 21.5c20 224.667 34 445.667 42 663c-60.667 -12 -131.667 -29.667 -213 -53c-98.667 -28 -190.334 -60 -275.001 -96c-46.667 -146.667 -82.667 -286 -108 -418c-2.66699 -13.333 -11 -20 -25 -20c-13.333 0 -20.666 6 -21.999 18
c0 2 0.333008 4.33301 1 7c24 126.667 56 255.667 96 387c-86 -40.667 -163 -85 -231 -133c-8 -5.33301 -16.167 -6 -24.5 -2s-13 9.66699 -14 17s1.83301 14.333 8.5 21c82 58 175.333 110.333 280 157c36.667 112.667 77.667 224 123 334
c1.33301 4 7.83301 20.167 19.5 48.5l22 53.5l21.5 50.5c11.333 26.333 19.666 44.666 24.999 54.999l25.5 50.5c11.667 23.333 21.5 41 29.5 53l30.5 47c12.333 19.333 23.833 35.166 34.5 47.499s22.667 25.5 36 39.5s26.666 26.333 39.999 37
c23.333 18.667 44.166 29.334 62.499 32.001s33.5 -1.83301 45.5 -13.5s21.667 -26.667 29 -45s13 -40.5 17 -66.5c9.33301 -56 15.5 -119.667 18.5 -191s4 -127.833 3 -169.5s-3.16699 -105.834 -6.5 -192.501c84 12.667 160.333 16.667 229 12zM442 196.002
c92.667 27.333 173.666 47.332 242.999 59.999c4 76.667 5.83301 162.334 5.5 257.001s-4.83301 180 -13.5 256c-0.666992 2 -1.5 9 -2.5 21s-2.16699 22.667 -3.5 32s-3 20 -5 32s-5.16699 22 -9.5 30s-9.16602 13 -14.499 15c-21.333 10 -60.333 -23 -117 -99
c-36.667 -49.333 -72 -107 -106 -173s-61.167 -124 -81.5 -174s-44.5 -113.333 -72.5 -190c-18 -48.667 -35 -97 -51 -145c70.667 28.667 146.667 54.667 228 78z" />
    <glyph glyph-name="B" unicode="B" horiz-adv-x="1078" 
d="M263 645c1.33301 9.33301 6.16699 15.499 14.5 18.499s16 2.16699 23 -2.5s10.167 -11.667 9.5 -21c-40 -358.667 -100 -714 -180 -1066c-2 -8.66699 -7.33301 -14.5 -16 -17.5s-16.5 -2.16699 -23.5 2.5s-9.16699 11.334 -6.5 20.001c79.333 352 139 707.333 179 1066z
M1001 132.999c9.33301 0.666992 16.6689 -2.66895 22.002 -10.002s6.5 -15 3.5 -23s-9.16699 -12.333 -18.5 -13c-47.333 -4 -96.333 -12.667 -147 -26c1.33301 -17.333 1.66602 -32.333 0.999023 -45c-1.33301 -40.667 -10.166 -80.5 -26.499 -119.5
s-37.833 -75 -64.5 -108s-55.167 -63 -85.5 -90s-63.5 -52.167 -99.5 -75.5c-72.667 -48 -145.334 -85 -218.001 -111c-2 -0.666992 -4.66699 -1.66699 -8 -3c-9.33301 -3.33301 -16.833 -5.83301 -22.5 -7.5l-23 -7c-9.66699 -3 -18 -5.16699 -25 -6.5
s-14.833 -2.66602 -23.5 -3.99902s-17 -2 -25 -2s-15.333 0.666992 -22 2c-22 4.66699 -36.333 14.167 -43 28.5s-6.66699 31.5 0 51.5s15.667 40.5 27 61.5s25.333 42.333 42 64s30.667 39.167 42 52.5l29 33c45.333 47.333 93.666 91.166 144.999 131.499
s107 76.833 167 109.5s120.667 58.667 182 78c-7.33301 35.333 -20 67.333 -38 96s-40.667 50.334 -68 65.001c-25.333 13.333 -53 22.5 -83 27.5s-61.5 6 -94.5 3s-62.333 -7 -88 -12s-55.167 -11.833 -88.5 -20.5c-13.333 -3.33301 -21.5 1.66699 -24.5 15
s0.833008 23 11.5 29c10 6 37.333 21.167 82 45.5s76 41.833 94 52.5s42.833 26.5 74.5 47.5s59.5 41.5 83.5 61.5c25.333 20.667 48.666 44.334 69.999 71.001s38.166 54.667 50.499 84s18.333 57.166 18 83.499s-11.666 50.166 -33.999 71.499s-55.5 36.333 -99.5 45
c-36.667 8.66699 -74.667 11.667 -114 9s-78.833 -8.33398 -118.5 -17.001s-78.667 -22.167 -117 -40.5s-74.5 -38.666 -108.5 -60.999s-65.5 -48.666 -94.5 -78.999s-54 -62 -75 -95s-37.167 -68.833 -48.5 -107.5s-17 -77.667 -17 -117
c0.666992 -12.667 -5.33301 -19.334 -18 -20.001c-13.333 -0.666992 -22 5 -26 17c-1.33301 2 -2 4.66699 -2 8c-0.666992 50.667 7.83301 100.834 25.5 150.501s42.5 95 74.5 136s69.167 79.167 111.5 114.5s88.333 64.833 138 88.5s100.167 42 151.5 55
s103.333 18.667 156 17s102 -11.167 148 -28.5c40.667 -15.333 70.834 -37.5 90.501 -66.5s28.5 -60.167 26.5 -93.5s-10.667 -67 -26 -101s-36 -65.333 -62 -94c-36 -39.333 -76.667 -75 -122 -107s-98.333 -65 -159 -99c116 14 205.667 -3.33301 269 -52
c47.333 -37.333 79 -93.666 95 -168.999c50 13.333 99 22 147 26zM816.004 20.9961v25.999c-82.667 -27.333 -162.334 -66 -239.001 -116s-147.334 -107.333 -212.001 -172c-33.333 -34 -61.833 -66.167 -85.5 -96.5s-40.834 -61.833 -51.501 -94.5
c-6 -19.333 -9 -31.333 -9 -36c0.666992 0 2.33398 -0.333008 5.00098 -1c2.66699 -1.33301 6.33398 -2.16602 11.001 -2.49902s8.66699 -0.166016 12 0.500977s7.83301 1.5 13.5 2.5s8.83398 1.5 9.50098 1.5c102.667 17.333 211.667 68.666 327 153.999
c142 104.667 215 216 219 334z" />
    <glyph glyph-name="C" unicode="C" horiz-adv-x="1004" 
d="M978 76c10 10.667 21.3369 11.6699 34.0039 3.00293c11.333 -9.33301 12.666 -19.333 3.99902 -30c-6.66699 -6.66699 -21.834 -22.834 -45.501 -48.501l-48.5 -52.5l-44.5 -46.5c-21 -21.667 -37.833 -38.5 -50.5 -50.5l-46.5 -44
c-18.333 -17.333 -36.166 -33 -53.499 -47l-51.999 -40l-74 -53c-20 -14 -46.333 -30.667 -79 -50s-62.167 -34.5 -88.5 -45.5s-55.5 -19.833 -87.5 -26.5s-62 -8.33398 -90 -5.00098c-36.667 4 -68.5 14.333 -95.5 31s-48 37.167 -63 61.5s-26.5 52.5 -34.5 84.5
s-12.333 64.333 -13 97s1.16602 66.834 5.49902 102.501s9.83301 68.334 16.5 98.001s14.667 58.167 24 85.5c70.667 215.333 170.334 422 299.001 620l33 50.5c9.33301 13.667 22.666 31.334 39.999 53.001s33.166 39.667 47.499 54s31.5 29 51.5 44s39.333 25.5 58 31.5
s39 8.5 61 7.5s43.667 -6.83301 65 -17.5c14.667 -8 27.5 -17.833 38.5 -29.5s19.833 -25.834 26.5 -42.501s12.167 -32.334 16.5 -47.001s6.83301 -32.834 7.5 -54.501s1.16699 -39.5 1.5 -53.5s-0.666992 -32.833 -3 -56.5s-4.16602 -40.334 -5.49902 -50.001
s-3.33301 -25.167 -6 -46.5c-1.33301 -9.33301 -6.16602 -15.5 -14.499 -18.5s-16 -2.16699 -23 2.5s-9.83301 11.667 -8.5 21c2 18.667 3.83301 34 5.5 46s3.5 30 5.5 54s2.5 44.333 1.5 61s-2.5 36 -4.5 58s-6.33301 40.167 -13 54.5s-14.834 27.666 -24.501 39.999
s-22.5 20.833 -38.5 25.5s-34.333 5 -55 1c-14.667 -2.66699 -29 -7 -43 -13s-27.5 -14.167 -40.5 -24.5s-25.167 -20.666 -36.5 -30.999s-22.833 -23 -34.5 -38l-30.5 -40.5c-8.66699 -12 -18.334 -26.667 -29.001 -44l-25.5 -42.5l-24.5 -42.5
c-10 -17.333 -17 -30 -21 -38c-103.333 -178 -182 -350.667 -236 -518c-34.667 -106.667 -49 -198 -43 -274c3.33301 -43.333 14.666 -83.666 33.999 -120.999s47 -64.333 83 -81c14 -6.66699 28.833 -11.167 44.5 -13.5s30.667 -2.66602 45 -0.999023
s29.666 4.66699 45.999 9s31 9.16602 44 14.499s27.167 11.666 42.5 18.999c52 25.333 102.5 54.333 151.5 87s97.167 70.5 144.5 113.5s88 81.5 122 115.5z" />
    <glyph glyph-name="C" unicode="&#xc7;" horiz-adv-x="1004" 
d="M978 76c10 10.667 21.3369 11.6699 34.0039 3.00293c11.333 -9.33301 12.666 -19.333 3.99902 -30c-6.66699 -6.66699 -21.834 -22.834 -45.501 -48.501l-48.5 -52.5l-44.5 -46.5c-21 -21.667 -37.833 -38.5 -50.5 -50.5l-46.5 -44
c-18.333 -17.333 -36.166 -33 -53.499 -47l-51.999 -40l-74 -53c-20 -14 -46.333 -30.667 -79 -50s-62.167 -34.5 -88.5 -45.5s-55.5 -19.833 -87.5 -26.5s-62 -8.33398 -90 -5.00098c-36.667 4 -68.5 14.333 -95.5 31s-48 37.167 -63 61.5s-26.5 52.5 -34.5 84.5
s-12.333 64.333 -13 97s1.16602 66.834 5.49902 102.501s9.83301 68.334 16.5 98.001s14.667 58.167 24 85.5c70.667 215.333 170.334 422 299.001 620l33 50.5c9.33301 13.667 22.666 31.334 39.999 53.001s33.166 39.667 47.499 54s31.5 29 51.5 44s39.333 25.5 58 31.5
s39 8.5 61 7.5s43.667 -6.83301 65 -17.5c14.667 -8 27.5 -17.833 38.5 -29.5s19.833 -25.834 26.5 -42.501s12.167 -32.334 16.5 -47.001s6.83301 -32.834 7.5 -54.501s1.16699 -39.5 1.5 -53.5s-0.666992 -32.833 -3 -56.5s-4.16602 -40.334 -5.49902 -50.001
s-3.33301 -25.167 -6 -46.5c-1.33301 -9.33301 -6.16602 -15.5 -14.499 -18.5s-16 -2.16699 -23 2.5s-9.83301 11.667 -8.5 21c2 18.667 3.83301 34 5.5 46s3.5 30 5.5 54s2.5 44.333 1.5 61s-2.5 36 -4.5 58s-6.33301 40.167 -13 54.5s-14.834 27.666 -24.501 39.999
s-22.5 20.833 -38.5 25.5s-34.333 5 -55 1c-14.667 -2.66699 -29 -7 -43 -13s-27.5 -14.167 -40.5 -24.5s-25.167 -20.666 -36.5 -30.999s-22.833 -23 -34.5 -38l-30.5 -40.5c-8.66699 -12 -18.334 -26.667 -29.001 -44l-25.5 -42.5l-24.5 -42.5
c-10 -17.333 -17 -30 -21 -38c-103.333 -178 -182 -350.667 -236 -518c-34.667 -106.667 -49 -198 -43 -274c3.33301 -43.333 14.666 -83.666 33.999 -120.999s47 -64.333 83 -81c14 -6.66699 28.833 -11.167 44.5 -13.5s30.667 -2.66602 45 -0.999023
s29.666 4.66699 45.999 9s31 9.16602 44 14.499s27.167 11.666 42.5 18.999c52 25.333 102.5 54.333 151.5 87s97.167 70.5 144.5 113.5s88 81.5 122 115.5z" />
    <glyph glyph-name="D" unicode="D" horiz-adv-x="1014" 
d="M406 780c3.33301 8.66699 9.5 13.499 18.5 14.499s16.333 -1.66699 22 -8s6.83398 -14.166 3.50098 -23.499c-152.667 -378 -265.334 -767 -338.001 -1167c-2 -9.33301 -7.16699 -15.5 -15.5 -18.5s-16 -2.16699 -23 2.5s-9.83301 11.667 -8.5 21
c74 405.333 187.667 798.333 341 1179zM917 728.999c36.667 -64.667 56.834 -137.997 60.501 -219.997s-8.83301 -168 -37.5 -258c0 -2.66699 -0.666992 -5.33398 -2 -8.00098c-38.667 -118.667 -102.334 -238.667 -191.001 -360
c-44.667 -60.667 -97.167 -115.834 -157.5 -165.501s-118 -87.667 -173 -114s-102.833 -40.833 -143.5 -43.5h-10c-28.667 0 -49.667 7.66699 -63 23c-12.667 13.333 -15.667 33 -9 59c6 25.333 22 58.166 48 98.499s61.167 85.5 105.5 135.5s93.833 99.333 148.5 148
s117.834 95.334 189.501 140.001s143.5 80.667 215.5 108c52.667 171.333 45.667 315.666 -21 432.999c-41.333 72.667 -101.333 126.167 -180 160.5s-169 46.833 -271 37.5c-68.667 -6.66699 -132 -25.334 -190 -56.001s-107 -71.667 -147 -123
c-33.333 -43.333 -57.333 -90.333 -72 -141s-18 -100.334 -10 -149.001c2.66699 -17.333 7.33398 -32.666 14.001 -45.999s13.5 -23.333 20.5 -30s14.5 -12 22.5 -16s13.833 -6.33301 17.5 -7s6.5 -1.33398 8.5 -2.00098c4 0 7.83301 -1.16699 11.5 -3.5
s6.33398 -5.33301 8.00098 -9s2.5 -7.83398 2.5 -12.501c-0.666992 -6 -3.5 -11.167 -8.5 -15.5s-10.5 -6.16602 -16.5 -5.49902c-10.667 0.666992 -21.834 3.5 -33.501 8.5s-24 12.5 -37 22.5s-24.667 24.5 -35 43.5s-17.5 40.833 -21.5 65.5
c-8.66699 54.667 -4.83398 110.5 11.499 167.5s43.5 109.833 81.5 158.5c28.667 37.333 62.167 69.833 100.5 97.5s80.166 49.834 125.499 66.501s93 27.334 143 32.001c111.333 10.667 210.333 -3.33301 297 -42s152.667 -98 198 -178zM709 -89.998
c74.667 102 130.999 203.333 168.999 304c-74.667 -31.333 -148.667 -72.333 -222 -123s-137 -102.5 -191 -155.5s-100.167 -103.667 -138.5 -152s-65.166 -90.166 -80.499 -125.499c-10 -22.667 -13.667 -37.667 -11 -45c4.66699 -4.66699 16.334 -6.66699 35.001 -6
c33.333 2 74.666 14.5 123.999 37.5s103.333 58.167 162 105.5s109.667 100.666 153 159.999z" />
    <glyph glyph-name="E" unicode="E" horiz-adv-x="1022" 
d="M1004 18c7.33301 6 15.0029 7.16895 23.0029 3.50195s12.667 -9.5 14 -17.5s-1.33398 -15.333 -8.00098 -22c-6.66699 -6 -26.5 -22.333 -59.5 -49l-64.5 -51.5l-59.5 -47c-29.667 -23.667 -51.5 -40.167 -65.5 -49.5l-62 -43.5c-27.333 -19.667 -50.333 -34.667 -69 -45
l-65.5 -37c-25 -14.333 -49.333 -26.666 -73 -36.999s-47.834 -19.833 -72.501 -28.5c-23.333 -8 -46.833 -15.167 -70.5 -21.5s-50.334 -12.166 -80.001 -17.499s-57.667 -7 -84 -5s-51.166 6.83301 -74.499 14.5s-43.166 21.334 -59.499 41.001s-26.833 44.5 -31.5 74.5
c-6 37.333 -5.33301 76.666 2 117.999s20.5 82.333 39.5 123s37.833 77 56.5 109s41 66 67 102c77.333 110.667 160.333 202 249 274c-0.666992 0 -3.83398 -0.5 -9.50098 -1.5s-10.167 -1.83301 -13.5 -2.5c-24.667 -4.66699 -44.167 -7.83398 -58.5 -9.50098
s-33.333 -1.5 -57 0.5s-42.5 8 -56.5 18c-22.667 15.333 -36.5 37.5 -41.5 66.5s-2.83301 59.167 6.5 90.5s21 60.666 35 87.999s28.333 49.666 43 66.999c41.333 50 91.333 94 150 132s119.334 65.667 182.001 83c58 16.667 100.333 16 127 -2
c24.667 -16 39.167 -39.167 43.5 -69.5s-2.83398 -56.5 -21.501 -78.5c-6 -6.66699 -13.5 -9.16699 -22.5 -7.5s-15.167 6 -18.5 13s-2.33301 14.5 3 22.5c10 12 16.167 22.833 18.5 32.5s1.33301 17.667 -3 24s-10.5 11.666 -18.5 15.999s-17 7.33301 -27 9
s-20 2.5 -30 2.5s-18.667 -1 -26 -3c-34.667 -8 -74.334 -23.333 -119.001 -46c-96.667 -49.333 -170 -109.666 -220 -180.999c-32.667 -46.667 -50 -93 -52 -139c-1.33301 -32 3.5 -55.167 14.5 -69.5s31.5 -21.5 61.5 -21.5c86 0 167.333 18.667 244 56
c20.667 11.333 31.667 17.333 33 18c8.66699 4 16.167 3.5 22.5 -1.5s9.33301 -12 9 -21s-4.5 -15.833 -12.5 -20.5c-130 -62.667 -254.333 -173.334 -373 -332.001c-52.667 -70 -95.667 -138.333 -129 -205s-51.333 -133 -54 -199c-1.33301 -32 3.66699 -58.5 15 -79.5
s26.5 -35.833 45.5 -44.5s41.667 -13.5 68 -14.5s52.833 0.833008 79.5 5.5s54.667 11.5 84 20.5s54.833 17.833 76.5 26.5s42.167 17.334 61.5 26.001c24.667 12 49.334 24.833 74.001 38.5s50 29 76 46l68 45.5c19.333 13.333 43.166 31.166 71.499 53.499l64.5 51l69 56z
" />
    <glyph glyph-name="E" unicode="&#xcb;" horiz-adv-x="1022" 
d="M1004 18c7.33301 6 15.0029 7.16895 23.0029 3.50195s12.667 -9.5 14 -17.5s-1.33398 -15.333 -8.00098 -22c-6.66699 -6 -26.5 -22.333 -59.5 -49l-64.5 -51.5l-59.5 -47c-29.667 -23.667 -51.5 -40.167 -65.5 -49.5l-62 -43.5c-27.333 -19.667 -50.333 -34.667 -69 -45
l-65.5 -37c-25 -14.333 -49.333 -26.666 -73 -36.999s-47.834 -19.833 -72.501 -28.5c-23.333 -8 -46.833 -15.167 -70.5 -21.5s-50.334 -12.166 -80.001 -17.499s-57.667 -7 -84 -5s-51.166 6.83301 -74.499 14.5s-43.166 21.334 -59.499 41.001s-26.833 44.5 -31.5 74.5
c-6 37.333 -5.33301 76.666 2 117.999s20.5 82.333 39.5 123s37.833 77 56.5 109s41 66 67 102c77.333 110.667 160.333 202 249 274c-0.666992 0 -3.83398 -0.5 -9.50098 -1.5s-10.167 -1.83301 -13.5 -2.5c-24.667 -4.66699 -44.167 -7.83398 -58.5 -9.50098
s-33.333 -1.5 -57 0.5s-42.5 8 -56.5 18c-22.667 15.333 -36.5 37.5 -41.5 66.5s-2.83301 59.167 6.5 90.5s21 60.666 35 87.999s28.333 49.666 43 66.999c41.333 50 91.333 94 150 132s119.334 65.667 182.001 83c58 16.667 100.333 16 127 -2
c24.667 -16 39.167 -39.167 43.5 -69.5s-2.83398 -56.5 -21.501 -78.5c-6 -6.66699 -13.5 -9.16699 -22.5 -7.5s-15.167 6 -18.5 13s-2.33301 14.5 3 22.5c10 12 16.167 22.833 18.5 32.5s1.33301 17.667 -3 24s-10.5 11.666 -18.5 15.999s-17 7.33301 -27 9
s-20 2.5 -30 2.5s-18.667 -1 -26 -3c-34.667 -8 -74.334 -23.333 -119.001 -46c-96.667 -49.333 -170 -109.666 -220 -180.999c-32.667 -46.667 -50 -93 -52 -139c-1.33301 -32 3.5 -55.167 14.5 -69.5s31.5 -21.5 61.5 -21.5c86 0 167.333 18.667 244 56
c20.667 11.333 31.667 17.333 33 18c8.66699 4 16.167 3.5 22.5 -1.5s9.33301 -12 9 -21s-4.5 -15.833 -12.5 -20.5c-130 -62.667 -254.333 -173.334 -373 -332.001c-52.667 -70 -95.667 -138.333 -129 -205s-51.333 -133 -54 -199c-1.33301 -32 3.66699 -58.5 15 -79.5
s26.5 -35.833 45.5 -44.5s41.667 -13.5 68 -14.5s52.833 0.833008 79.5 5.5s54.667 11.5 84 20.5s54.833 17.833 76.5 26.5s42.167 17.334 61.5 26.001c24.667 12 49.334 24.833 74.001 38.5s50 29 76 46l68 45.5c19.333 13.333 43.166 31.166 71.499 53.499l64.5 51l69 56z
" />
    <glyph glyph-name="E" unicode="&#xca;" horiz-adv-x="1022" 
d="M1004 18c7.33301 6 15.0029 7.16895 23.0029 3.50195s12.667 -9.5 14 -17.5s-1.33398 -15.333 -8.00098 -22c-6.66699 -6 -26.5 -22.333 -59.5 -49l-64.5 -51.5l-59.5 -47c-29.667 -23.667 -51.5 -40.167 -65.5 -49.5l-62 -43.5c-27.333 -19.667 -50.333 -34.667 -69 -45
l-65.5 -37c-25 -14.333 -49.333 -26.666 -73 -36.999s-47.834 -19.833 -72.501 -28.5c-23.333 -8 -46.833 -15.167 -70.5 -21.5s-50.334 -12.166 -80.001 -17.499s-57.667 -7 -84 -5s-51.166 6.83301 -74.499 14.5s-43.166 21.334 -59.499 41.001s-26.833 44.5 -31.5 74.5
c-6 37.333 -5.33301 76.666 2 117.999s20.5 82.333 39.5 123s37.833 77 56.5 109s41 66 67 102c77.333 110.667 160.333 202 249 274c-0.666992 0 -3.83398 -0.5 -9.50098 -1.5s-10.167 -1.83301 -13.5 -2.5c-24.667 -4.66699 -44.167 -7.83398 -58.5 -9.50098
s-33.333 -1.5 -57 0.5s-42.5 8 -56.5 18c-22.667 15.333 -36.5 37.5 -41.5 66.5s-2.83301 59.167 6.5 90.5s21 60.666 35 87.999s28.333 49.666 43 66.999c41.333 50 91.333 94 150 132s119.334 65.667 182.001 83c58 16.667 100.333 16 127 -2
c24.667 -16 39.167 -39.167 43.5 -69.5s-2.83398 -56.5 -21.501 -78.5c-6 -6.66699 -13.5 -9.16699 -22.5 -7.5s-15.167 6 -18.5 13s-2.33301 14.5 3 22.5c10 12 16.167 22.833 18.5 32.5s1.33301 17.667 -3 24s-10.5 11.666 -18.5 15.999s-17 7.33301 -27 9
s-20 2.5 -30 2.5s-18.667 -1 -26 -3c-34.667 -8 -74.334 -23.333 -119.001 -46c-96.667 -49.333 -170 -109.666 -220 -180.999c-32.667 -46.667 -50 -93 -52 -139c-1.33301 -32 3.5 -55.167 14.5 -69.5s31.5 -21.5 61.5 -21.5c86 0 167.333 18.667 244 56
c20.667 11.333 31.667 17.333 33 18c8.66699 4 16.167 3.5 22.5 -1.5s9.33301 -12 9 -21s-4.5 -15.833 -12.5 -20.5c-130 -62.667 -254.333 -173.334 -373 -332.001c-52.667 -70 -95.667 -138.333 -129 -205s-51.333 -133 -54 -199c-1.33301 -32 3.66699 -58.5 15 -79.5
s26.5 -35.833 45.5 -44.5s41.667 -13.5 68 -14.5s52.833 0.833008 79.5 5.5s54.667 11.5 84 20.5s54.833 17.833 76.5 26.5s42.167 17.334 61.5 26.001c24.667 12 49.334 24.833 74.001 38.5s50 29 76 46l68 45.5c19.333 13.333 43.166 31.166 71.499 53.499l64.5 51l69 56z
" />
    <glyph glyph-name="E" unicode="&#xc9;" horiz-adv-x="1022" 
d="M1004 18c7.33301 6 15.0029 7.16895 23.0029 3.50195s12.667 -9.5 14 -17.5s-1.33398 -15.333 -8.00098 -22c-6.66699 -6 -26.5 -22.333 -59.5 -49l-64.5 -51.5l-59.5 -47c-29.667 -23.667 -51.5 -40.167 -65.5 -49.5l-62 -43.5c-27.333 -19.667 -50.333 -34.667 -69 -45
l-65.5 -37c-25 -14.333 -49.333 -26.666 -73 -36.999s-47.834 -19.833 -72.501 -28.5c-23.333 -8 -46.833 -15.167 -70.5 -21.5s-50.334 -12.166 -80.001 -17.499s-57.667 -7 -84 -5s-51.166 6.83301 -74.499 14.5s-43.166 21.334 -59.499 41.001s-26.833 44.5 -31.5 74.5
c-6 37.333 -5.33301 76.666 2 117.999s20.5 82.333 39.5 123s37.833 77 56.5 109s41 66 67 102c77.333 110.667 160.333 202 249 274c-0.666992 0 -3.83398 -0.5 -9.50098 -1.5s-10.167 -1.83301 -13.5 -2.5c-24.667 -4.66699 -44.167 -7.83398 -58.5 -9.50098
s-33.333 -1.5 -57 0.5s-42.5 8 -56.5 18c-22.667 15.333 -36.5 37.5 -41.5 66.5s-2.83301 59.167 6.5 90.5s21 60.666 35 87.999s28.333 49.666 43 66.999c41.333 50 91.333 94 150 132s119.334 65.667 182.001 83c58 16.667 100.333 16 127 -2
c24.667 -16 39.167 -39.167 43.5 -69.5s-2.83398 -56.5 -21.501 -78.5c-6 -6.66699 -13.5 -9.16699 -22.5 -7.5s-15.167 6 -18.5 13s-2.33301 14.5 3 22.5c10 12 16.167 22.833 18.5 32.5s1.33301 17.667 -3 24s-10.5 11.666 -18.5 15.999s-17 7.33301 -27 9
s-20 2.5 -30 2.5s-18.667 -1 -26 -3c-34.667 -8 -74.334 -23.333 -119.001 -46c-96.667 -49.333 -170 -109.666 -220 -180.999c-32.667 -46.667 -50 -93 -52 -139c-1.33301 -32 3.5 -55.167 14.5 -69.5s31.5 -21.5 61.5 -21.5c86 0 167.333 18.667 244 56
c20.667 11.333 31.667 17.333 33 18c8.66699 4 16.167 3.5 22.5 -1.5s9.33301 -12 9 -21s-4.5 -15.833 -12.5 -20.5c-130 -62.667 -254.333 -173.334 -373 -332.001c-52.667 -70 -95.667 -138.333 -129 -205s-51.333 -133 -54 -199c-1.33301 -32 3.66699 -58.5 15 -79.5
s26.5 -35.833 45.5 -44.5s41.667 -13.5 68 -14.5s52.833 0.833008 79.5 5.5s54.667 11.5 84 20.5s54.833 17.833 76.5 26.5s42.167 17.334 61.5 26.001c24.667 12 49.334 24.833 74.001 38.5s50 29 76 46l68 45.5c19.333 13.333 43.166 31.166 71.499 53.499l64.5 51l69 56z
" />
    <glyph glyph-name="E" unicode="&#xc8;" horiz-adv-x="1022" 
d="M1004 18c7.33301 6 15.0029 7.16895 23.0029 3.50195s12.667 -9.5 14 -17.5s-1.33398 -15.333 -8.00098 -22c-6.66699 -6 -26.5 -22.333 -59.5 -49l-64.5 -51.5l-59.5 -47c-29.667 -23.667 -51.5 -40.167 -65.5 -49.5l-62 -43.5c-27.333 -19.667 -50.333 -34.667 -69 -45
l-65.5 -37c-25 -14.333 -49.333 -26.666 -73 -36.999s-47.834 -19.833 -72.501 -28.5c-23.333 -8 -46.833 -15.167 -70.5 -21.5s-50.334 -12.166 -80.001 -17.499s-57.667 -7 -84 -5s-51.166 6.83301 -74.499 14.5s-43.166 21.334 -59.499 41.001s-26.833 44.5 -31.5 74.5
c-6 37.333 -5.33301 76.666 2 117.999s20.5 82.333 39.5 123s37.833 77 56.5 109s41 66 67 102c77.333 110.667 160.333 202 249 274c-0.666992 0 -3.83398 -0.5 -9.50098 -1.5s-10.167 -1.83301 -13.5 -2.5c-24.667 -4.66699 -44.167 -7.83398 -58.5 -9.50098
s-33.333 -1.5 -57 0.5s-42.5 8 -56.5 18c-22.667 15.333 -36.5 37.5 -41.5 66.5s-2.83301 59.167 6.5 90.5s21 60.666 35 87.999s28.333 49.666 43 66.999c41.333 50 91.333 94 150 132s119.334 65.667 182.001 83c58 16.667 100.333 16 127 -2
c24.667 -16 39.167 -39.167 43.5 -69.5s-2.83398 -56.5 -21.501 -78.5c-6 -6.66699 -13.5 -9.16699 -22.5 -7.5s-15.167 6 -18.5 13s-2.33301 14.5 3 22.5c10 12 16.167 22.833 18.5 32.5s1.33301 17.667 -3 24s-10.5 11.666 -18.5 15.999s-17 7.33301 -27 9
s-20 2.5 -30 2.5s-18.667 -1 -26 -3c-34.667 -8 -74.334 -23.333 -119.001 -46c-96.667 -49.333 -170 -109.666 -220 -180.999c-32.667 -46.667 -50 -93 -52 -139c-1.33301 -32 3.5 -55.167 14.5 -69.5s31.5 -21.5 61.5 -21.5c86 0 167.333 18.667 244 56
c20.667 11.333 31.667 17.333 33 18c8.66699 4 16.167 3.5 22.5 -1.5s9.33301 -12 9 -21s-4.5 -15.833 -12.5 -20.5c-130 -62.667 -254.333 -173.334 -373 -332.001c-52.667 -70 -95.667 -138.333 -129 -205s-51.333 -133 -54 -199c-1.33301 -32 3.66699 -58.5 15 -79.5
s26.5 -35.833 45.5 -44.5s41.667 -13.5 68 -14.5s52.833 0.833008 79.5 5.5s54.667 11.5 84 20.5s54.833 17.833 76.5 26.5s42.167 17.334 61.5 26.001c24.667 12 49.334 24.833 74.001 38.5s50 29 76 46l68 45.5c19.333 13.333 43.166 31.166 71.499 53.499l64.5 51l69 56z
" />
    <glyph glyph-name="F" unicode="F" horiz-adv-x="783" 
d="M1019 942c9.33301 0.666992 16.499 -2.83105 21.499 -10.498s6.16699 -15.334 3.5 -23.001s-8.66699 -11.834 -18 -12.501c-184.667 -8.66699 -369 -23.667 -553 -45c-5.33301 -19.333 -14.166 -46.5 -26.499 -81.5s-18.5 -53.167 -18.5 -54.5l-42 -153l-63 -249
c30 17.333 63.5 32.833 100.5 46.5s69.333 24.167 97 31.5s65 14.666 112 21.999s80.833 12.166 101.5 14.499s57.667 6.16602 111 11.499c9.33301 1.33301 16.5 -1.66699 21.5 -9s6.16699 -15.166 3.5 -23.499s-8.66699 -12.833 -18 -13.5
c-40.667 -4 -68.334 -6.83301 -83.001 -8.5s-41.167 -5 -79.5 -10s-67.166 -9.66699 -86.499 -14l-78.5 -18.5c-33 -8 -60.167 -16.333 -81.5 -25s-44.666 -19.667 -69.999 -33s-48 -27.666 -68 -42.999c-0.666992 -2 -1.5 -5 -2.5 -9s-1.5 -7 -1.5 -9
c-54.667 -227.333 -100.334 -443 -137.001 -647c-1.33301 -6.66699 -4.33301 -12.167 -9 -16.5s-10.334 -5.83301 -17.001 -4.5c-5.33301 1.33301 -10.333 4 -15 8s-8.5 8.66699 -11.5 14s-5.83301 12 -8.5 20s-4.5 15.667 -5.5 23s-2 15.5 -3 24.5s-1.66699 16.667 -2 23
s-0.666016 13.333 -0.999023 21s-0.833008 12.834 -1.5 15.501c-8 116.667 0.666992 224.667 26 324c28 106 77.667 188 149 246l6.5 26.5c3 12.333 5.16699 21.5 6.5 27.5c32.667 131.333 65.667 257.666 99 378.999c2.66699 7.33301 7.16699 27.333 13.5 60
s12.5 58.334 18.5 77.001c-168 -21.333 -332.333 -46.666 -493 -75.999c-9.33301 -2 -16.5 0.5 -21.5 7.5s-6.16699 14.667 -3.5 23s8.66699 13.5 18 15.5c170.667 31.333 344 57.666 520 78.999c15.333 28.667 34.333 45.667 57 51c8.66699 2 15.667 -1 21 -9l7 -8
c6 -7.33301 7 -15.333 3 -24c170 18.667 337.333 31.667 502 39zM137.999 -309.998c30.667 160.667 66.001 324.668 106.001 492.001c-32 -38 -56 -81.667 -72 -131c-28.667 -86.667 -41.334 -186.334 -38.001 -299.001c0.666992 -19.333 2 -40 4 -62z" />
    <glyph glyph-name="G" unicode="G" horiz-adv-x="979" 
d="M998 375c8 4.66699 15.1631 4.33496 21.4961 -0.998047s9.5 -12.5 9.5 -21.5s-4 -15.833 -12 -20.5c-72.667 -42 -145 -89.333 -217 -142c-16.667 -77.333 -42.334 -158 -77.001 -242c-83.333 -199.333 -180.666 -341.666 -291.999 -426.999
c-14 -10.667 -30.5 -20.667 -49.5 -30s-38.833 -16.333 -59.5 -21s-39.667 -6.16699 -57 -4.5s-31.333 9.66699 -42 24s-15 34.5 -13 60.5c2.66699 33.333 10.834 67.5 24.501 102.5s29 66.667 46 95s39.167 58.666 66.5 90.999s51.166 59 71.499 80l74.5 74.5
c82.667 80 172.667 155.667 270 227c18 102 18.667 196 2 282c-62 -93.333 -134 -177 -216 -251s-169.667 -129 -263 -165c-25.333 -10 -50.5 -16.667 -75.5 -20s-49.667 -3.33301 -74 0s-45 13.666 -62 30.999s-27.833 41 -32.5 71
c-9.33301 60.667 -4.83301 123.834 13.5 189.501s44 125.334 77 179.001s72.167 103.834 117.5 150.501c70.667 74 146.667 131.333 228 172c90.667 44.667 160.334 60.667 209.001 48c24.667 -6.66699 41.5 -20 50.5 -40s10.667 -42.5 5 -67.5s-14.5 -50.5 -26.5 -76.5
s-26 -49.167 -42 -69.5s-30.667 -34.833 -44 -43.5c-12.667 -8 -24 -6 -34 6c-8.66699 12 -7.33398 22 3.99902 30c14.667 9.33301 31.667 27.666 51 54.999s34.166 55.333 44.499 84s7.83301 51.667 -7.5 69c-9.33301 9.33301 -23 14 -41 14s-36.333 -3 -55 -9
s-39.167 -14.333 -61.5 -25s-40.166 -19.834 -53.499 -27.501l-38 -22.5c-85.333 -54 -159.166 -122 -221.499 -204s-103.166 -169.333 -122.499 -262c-2.66699 -14 -4.66699 -25.667 -6 -35s-3 -22.333 -5 -39s-2.5 -31 -1.5 -43s3.16699 -24.5 6.5 -37.5s9 -24 17 -33
s18 -15.5 30 -19.5c11.333 -4 23.666 -5.83301 36.999 -5.5s25.833 1.66602 37.5 3.99902s24.834 6.16602 39.501 11.499s26.667 10.166 36 14.499l33 15.5c87.333 44 168.333 103 243 177s139.334 156.333 194.001 247c6 8.66699 13.833 11.5 23.5 8.5
s15.834 -9.16699 18.501 -18.5c26.667 -92 31.667 -195 15 -309c61.333 42.667 123 82.334 185 119.001zM496.996 -347.999c56 68.667 106.333 146.333 151 233s78 175.334 100 266.001c-74 -57.333 -144.333 -117.333 -211 -180l-70.5 -69
c-19 -19.333 -41.833 -44.333 -68.5 -75s-48.5 -59 -65.5 -85s-32.667 -55.333 -47 -88s-23.5 -64.667 -27.5 -96c-2 -18.667 -1 -31.334 3 -38.001s14.667 -10 32 -10c18.667 0 40.334 6.33301 65.001 19c43.333 22 89.666 63 138.999 123z" />
    <glyph glyph-name="H" unicode="H" horiz-adv-x="869" 
d="M749 436c-20 -82 -40.6699 -173.323 -62.0029 -273.99c-2 -11.333 -6.5 -32.166 -13.5 -62.499s-12.333 -54.666 -16 -72.999s-7.16699 -40.5 -10.5 -66.5s-4 -50.167 -2 -72.5s6.33301 -43.166 13 -62.499c16 -46.667 46.333 -82.5 91 -107.5s89.667 -28.833 135 -11.5
c8.66699 3.33301 16.334 2.16602 23.001 -3.50098s9.83398 -12.834 9.50098 -21.501s-4.83301 -14.667 -13.5 -18c-42.667 -16.667 -82.834 -19.834 -120.501 -9.50098s-70.5 28.666 -98.5 54.999s-49.5 58.833 -64.5 97.5s-21.5 78 -19.5 118
c1.33301 27.333 4.66602 58.166 9.99902 92.499s9.83301 60.333 13.5 78s10.834 50 21.501 97s17 73.833 19 80.5c2.66699 12 11 47.333 25 106c-26.667 -25.333 -99.667 -90.333 -219 -195c-14.667 -13.333 -57.167 -49.666 -127.5 -108.999s-123.5 -106 -159.5 -140
c-20 -75.333 -39.333 -138.333 -58 -189l-7 -20l-8 -22.5c-1.33301 -3.66699 -4 -10.334 -8 -20.001s-7.33301 -17.167 -10 -22.5s-6.16699 -11.666 -10.5 -18.999s-8.66602 -13.833 -12.999 -19.5s-9.16602 -10.834 -14.499 -15.501c-33.333 -31.333 -59.666 -29 -78.999 7
c-15.333 28.667 -20.333 61.667 -15 99c1.33301 7.33301 3 13.666 5 18.999c25.333 70 85 147 179 231c10.667 38.667 24.667 94 42 166s28.333 116.667 33 134c6 25.333 20.833 76.666 44.5 153.999s40.667 142.833 51 196.5s14.166 106.834 11.499 159.501
c-2.66699 68 -17.667 111.333 -45 130c-8.66699 6 -18.167 10 -28.5 12s-20.666 2.16699 -30.999 0.5s-20.833 -4.5 -31.5 -8.5s-20.334 -8.5 -29.001 -13.5s-17 -10.5 -25 -16.5c-46.667 -33.333 -82.834 -77 -108.501 -131s-34.167 -107.667 -25.5 -161
c1.33301 -9.33301 -1.5 -16.5 -8.5 -21.5s-14.667 -6.16699 -23 -3.5s-13.166 8.66699 -14.499 18c-5.33301 30.667 -4.16602 64.834 3.50098 102.501s20.834 74 39.501 109s40.834 66.667 66.501 95s55.667 49.666 90 63.999s69.166 18.166 104.499 11.499
c29.333 -5.33301 53.166 -17.833 71.499 -37.5s30.333 -44.334 36 -74.001s8.83398 -60.334 9.50098 -92.001s-2 -65.5 -8 -101.5s-12 -66.5 -18 -91.5s-12.333 -49.167 -19 -72.5c-20.667 -68.667 -63.334 -227.334 -128.001 -476.001c42.667 36 67.667 57.333 75 64
l85.5 75l95 83l80.5 72.5l92 85.5l81 79c14 56.667 26.333 103 37 139c32 114 60.333 200 85 258c6 13.333 10 22.5 12 27.5s6.16699 13.5 12.5 25.5s12 21 17 27s11.5 12.5 19.5 19.5s16.667 12.167 26 15.5c15.333 5.33301 29.5 5.66602 42.5 0.999023
s24 -12.334 33 -23.001s15.833 -23.334 20.5 -38.001c19.333 -61.333 1.33301 -137 -54 -227c-50.667 -82.667 -122.334 -170 -215.001 -262zM36.9971 -339.99c10 15.333 22.667 42.667 38 82c14 37.333 27.667 78.333 41 123c-26 -28.667 -48 -55 -66 -79
c-53.333 -72 -66 -121.333 -38 -148c3.33301 -3.33301 6.33301 -3.5 9 -0.5s8 10.5 16 22.5zM858.997 801.011c-29.333 -78.667 -57.001 -165.327 -83.001 -259.994c20.667 22 32 34.333 34 37c1.33301 1.33301 8.5 9.16602 21.5 23.499s21.667 24.166 26 29.499l26 31
c13 15.333 22.333 27.166 28 35.499l24 35.5c10.333 15.333 17.666 28.166 21.999 38.499l15 37c5.66699 14.333 9 27.166 10 38.499s0.833008 23.166 -0.5 35.499s-4.66602 23.833 -9.99902 34.5c-23.333 47.333 -54.666 25 -93.999 -67c-6 -13.333 -12.333 -29 -19 -47v-2
z" />
    <glyph glyph-name="I" unicode="I" horiz-adv-x="404" 
d="M673 949c9.33301 0.666992 16.667 -2.66602 22 -9.99902s6.5 -15 3.5 -23s-9.16699 -12.333 -18.5 -13c-122.667 -12.667 -249.334 -29 -380.001 -49l-56 -578l-55 -578c72 20 142.667 37.667 212 53c9.33301 2.66699 16.5 0.5 21.5 -6.5s6.16699 -14.833 3.5 -23.5
s-8.66699 -14 -18 -16c-76 -16.667 -152.333 -35.667 -229 -57c-6 -6 -13 -8 -21 -6c-64.667 -18.667 -124.334 -37 -179.001 -55c-8.66699 -2.66699 -16.5 -1 -23.5 5s-10.167 13.167 -9.5 21.5s5.33398 13.833 14.001 16.5c54.667 18 114.667 36.333 180 55l112 1161
c-91.333 -14 -173.333 -28 -246 -42c-9.33301 -2 -16.5 0.5 -21.5 7.5s-6.16699 14.667 -3.5 23s8.66699 13.5 18 15.5c77.333 14.667 163.333 29.334 258 44.001v6c0 2.66699 0.333008 4.33398 1 5.00098c0.666992 9.33301 4.83398 15.666 12.501 18.999
s15.167 2.66602 22.5 -2.00098s11 -11.334 11 -20.001c127.333 19.333 250.333 35 369 47z" />
    <glyph glyph-name="I" unicode="&#xcf;" horiz-adv-x="404" 
d="M673 949c9.33301 0.666992 16.667 -2.66602 22 -9.99902s6.5 -15 3.5 -23s-9.16699 -12.333 -18.5 -13c-122.667 -12.667 -249.334 -29 -380.001 -49l-56 -578l-55 -578c72 20 142.667 37.667 212 53c9.33301 2.66699 16.5 0.5 21.5 -6.5s6.16699 -14.833 3.5 -23.5
s-8.66699 -14 -18 -16c-76 -16.667 -152.333 -35.667 -229 -57c-6 -6 -13 -8 -21 -6c-64.667 -18.667 -124.334 -37 -179.001 -55c-8.66699 -2.66699 -16.5 -1 -23.5 5s-10.167 13.167 -9.5 21.5s5.33398 13.833 14.001 16.5c54.667 18 114.667 36.333 180 55l112 1161
c-91.333 -14 -173.333 -28 -246 -42c-9.33301 -2 -16.5 0.5 -21.5 7.5s-6.16699 14.667 -3.5 23s8.66699 13.5 18 15.5c77.333 14.667 163.333 29.334 258 44.001v6c0 2.66699 0.333008 4.33398 1 5.00098c0.666992 9.33301 4.83398 15.666 12.501 18.999
s15.167 2.66602 22.5 -2.00098s11 -11.334 11 -20.001c127.333 19.333 250.333 35 369 47z" />
    <glyph glyph-name="I" unicode="&#xce;" horiz-adv-x="404" 
d="M673 949c9.33301 0.666992 16.667 -2.66602 22 -9.99902s6.5 -15 3.5 -23s-9.16699 -12.333 -18.5 -13c-122.667 -12.667 -249.334 -29 -380.001 -49l-56 -578l-55 -578c72 20 142.667 37.667 212 53c9.33301 2.66699 16.5 0.5 21.5 -6.5s6.16699 -14.833 3.5 -23.5
s-8.66699 -14 -18 -16c-76 -16.667 -152.333 -35.667 -229 -57c-6 -6 -13 -8 -21 -6c-64.667 -18.667 -124.334 -37 -179.001 -55c-8.66699 -2.66699 -16.5 -1 -23.5 5s-10.167 13.167 -9.5 21.5s5.33398 13.833 14.001 16.5c54.667 18 114.667 36.333 180 55l112 1161
c-91.333 -14 -173.333 -28 -246 -42c-9.33301 -2 -16.5 0.5 -21.5 7.5s-6.16699 14.667 -3.5 23s8.66699 13.5 18 15.5c77.333 14.667 163.333 29.334 258 44.001v6c0 2.66699 0.333008 4.33398 1 5.00098c0.666992 9.33301 4.83398 15.666 12.501 18.999
s15.167 2.66602 22.5 -2.00098s11 -11.334 11 -20.001c127.333 19.333 250.333 35 369 47z" />
    <glyph glyph-name="I" unicode="&#xcd;" horiz-adv-x="404" 
d="M673 949c9.33301 0.666992 16.667 -2.66602 22 -9.99902s6.5 -15 3.5 -23s-9.16699 -12.333 -18.5 -13c-122.667 -12.667 -249.334 -29 -380.001 -49l-56 -578l-55 -578c72 20 142.667 37.667 212 53c9.33301 2.66699 16.5 0.5 21.5 -6.5s6.16699 -14.833 3.5 -23.5
s-8.66699 -14 -18 -16c-76 -16.667 -152.333 -35.667 -229 -57c-6 -6 -13 -8 -21 -6c-64.667 -18.667 -124.334 -37 -179.001 -55c-8.66699 -2.66699 -16.5 -1 -23.5 5s-10.167 13.167 -9.5 21.5s5.33398 13.833 14.001 16.5c54.667 18 114.667 36.333 180 55l112 1161
c-91.333 -14 -173.333 -28 -246 -42c-9.33301 -2 -16.5 0.5 -21.5 7.5s-6.16699 14.667 -3.5 23s8.66699 13.5 18 15.5c77.333 14.667 163.333 29.334 258 44.001v6c0 2.66699 0.333008 4.33398 1 5.00098c0.666992 9.33301 4.83398 15.666 12.501 18.999
s15.167 2.66602 22.5 -2.00098s11 -11.334 11 -20.001c127.333 19.333 250.333 35 369 47z" />
    <glyph glyph-name="I" unicode="&#xcc;" horiz-adv-x="404" 
d="M673 949c9.33301 0.666992 16.667 -2.66602 22 -9.99902s6.5 -15 3.5 -23s-9.16699 -12.333 -18.5 -13c-122.667 -12.667 -249.334 -29 -380.001 -49l-56 -578l-55 -578c72 20 142.667 37.667 212 53c9.33301 2.66699 16.5 0.5 21.5 -6.5s6.16699 -14.833 3.5 -23.5
s-8.66699 -14 -18 -16c-76 -16.667 -152.333 -35.667 -229 -57c-6 -6 -13 -8 -21 -6c-64.667 -18.667 -124.334 -37 -179.001 -55c-8.66699 -2.66699 -16.5 -1 -23.5 5s-10.167 13.167 -9.5 21.5s5.33398 13.833 14.001 16.5c54.667 18 114.667 36.333 180 55l112 1161
c-91.333 -14 -173.333 -28 -246 -42c-9.33301 -2 -16.5 0.5 -21.5 7.5s-6.16699 14.667 -3.5 23s8.66699 13.5 18 15.5c77.333 14.667 163.333 29.334 258 44.001v6c0 2.66699 0.333008 4.33398 1 5.00098c0.666992 9.33301 4.83398 15.666 12.501 18.999
s15.167 2.66602 22.5 -2.00098s11 -11.334 11 -20.001c127.333 19.333 250.333 35 369 47z" />
    <glyph glyph-name="J" unicode="J" horiz-adv-x="725" 
d="M913 886c8.66699 -3.33301 13.3301 -9.33301 13.9971 -18s-2.16602 -16 -8.49902 -22s-13.833 -7 -22.5 -3c-120 48.667 -258.333 53.334 -415 14.001c70.667 -157.333 108 -314.666 112 -471.999c51.333 29.333 100.333 54.666 147 75.999
c8.66699 4 16.334 3.33301 23.001 -2s9.83398 -12.333 9.50098 -21s-4.83301 -15 -13.5 -19c-52.667 -24 -108 -53.333 -166 -88c-3.33301 -116.667 -26.333 -225.667 -69 -327c-45.333 -108 -109 -201.667 -191 -281c-96 -94.667 -181.667 -149.667 -257 -165
c-43.333 -8 -78.833 1.16699 -106.5 27.5s-40.5 61.5 -38.5 105.5c2 35.333 9.66699 70.666 23 105.999s28.833 67 46.5 95s40.5 57.167 68.5 87.5s53.333 55.833 76 76.5s50 44.334 82 71.001c108 90 212.667 166 314 228c1.33301 168.667 -34 331.667 -106 489
c-114 -34.667 -213.667 -86.334 -299 -155.001c-7.33301 -6 -15 -7 -23 -3s-12.667 9.83301 -14 17.5s1 14.834 7 21.501c71.333 57.333 153 104 245 140s187 57.167 285 63.5s190.333 -7.83398 277 -42.501zM156.996 -353c80.667 46 149.162 103.835 205.495 173.502
s98.333 144.167 126 223.5s44.5 164 50.5 254c-83.333 -52.667 -169.666 -115.334 -258.999 -188.001c-37.333 -30 -68.166 -56 -92.499 -78s-51.166 -48.667 -80.499 -80s-53.666 -64 -72.999 -98s-34.333 -69.667 -45 -107c-24 -84 -10.667 -131.667 40 -143
c5.33301 -1.33301 11 -2 17 -2s11.5 0.5 16.5 1.5s10.5 2.5 16.5 4.5l16 5.5c4.66699 1.66699 10.167 4.16699 16.5 7.5s11.333 6.16602 15 8.49902s8.83398 5.33301 15.501 9s11.667 6.5 15 8.5z" />
    <glyph glyph-name="K" unicode="K" horiz-adv-x="739" 
d="M905 -399c8.66699 -2.66699 13.498 -8.16992 14.498 -16.5029s-1.66699 -15.5 -8 -21.5s-14.166 -8 -23.499 -6c-69.333 19.333 -132.166 52.666 -188.499 99.999s-110.833 106 -163.5 176c-16.667 22 -39.5 54 -68.5 96s-49.833 71.333 -62.5 88c-2 2.66699 -5 7 -9 13
s-7.16699 10.5 -9.5 13.5l-9.5 12.5c-4 5.33301 -7.5 9.66602 -10.5 12.999l-10.5 12l-11 12.5c-3.33301 3.66699 -7.16602 7.33398 -11.499 11.001l-13 10.5c-4.33301 3.33301 -8.83301 6 -13.5 8c-21.333 -125.333 -59 -320.666 -113 -585.999
c-2 -9.33301 -7.33301 -15.5 -16 -18.5s-16.5 -2.16699 -23.5 2.5s-9.5 11.667 -7.5 21l66 320.5c12.667 63.667 29.167 155.5 49.5 275.5s35.833 228 46.5 324c1.33301 8 3.83301 27.167 7.5 57.5s6.16699 52 7.5 65s2.83301 33.167 4.5 60.5s2.16699 49.5 1.5 66.5
s-2.33398 36.5 -5.00098 58.5s-6.66699 42 -12 60c-5.33301 16.667 -12.666 28.5 -21.999 35.5s-20.166 9.66699 -32.499 8s-24.5 -5.33398 -36.5 -11.001s-24.667 -13.167 -38 -22.5c-42 -30.667 -77 -70.834 -105 -120.501s-40.333 -98.834 -37 -147.501
c0.666992 -13.333 -5.66602 -21.666 -18.999 -24.999s-22 0.666992 -26 12c-0.666992 2 -1 4 -1 6c-3.33301 46.667 6 96.334 28 149.001s54 98.834 96 138.501s86.667 62.5 134 68.5c20.667 2.66699 38.667 0.166992 54 -7.5s27.5 -19.667 36.5 -36s16.333 -34.5 22 -54.5
s9 -43.667 10 -71s1.5 -52.833 1.5 -76.5s-1.5 -50 -4.5 -79s-5.66699 -53 -8 -72s-5 -39.5 -8 -61.5s-4.83301 -35.667 -5.5 -41c-8.66699 -72 -19.667 -148.667 -33 -230h1c6 6.66699 16 15.5 30 26.5s23 17.833 27 20.5c54 47.333 105.667 97.666 155 150.999
c33.333 35.333 61 66.333 83 93s46.167 58.667 72.5 96s47.166 75.333 62.499 114s25 77 29 115c0.666992 9.33301 5 15.5 13 18.5s15.833 2.16699 23.5 -2.5s10.834 -11.667 9.50098 -21c-2.66699 -33.333 -10.334 -67.333 -23.001 -102s-26.834 -66.167 -42.501 -94.5
s-35.667 -58.666 -60 -90.999s-46.166 -59.666 -65.499 -81.999l-70 -77.5c-60.667 -64.667 -121 -122 -181 -172c-2 -2 -7 -6.66699 -15 -14s-14.667 -13 -20 -17c23.333 -16.667 45.166 -37.5 65.499 -62.5s43.166 -57.333 68.499 -97s41.333 -64.167 48 -73.5
c28.667 -40 54.5 -74.167 77.5 -102.5s50.333 -58.166 82 -89.499s65.5 -57.666 101.5 -78.999s74 -37.333 114 -48z" />
    <glyph glyph-name="L" unicode="L" horiz-adv-x="484" 
d="M565 -241c8 5.33301 16.1621 5.83398 24.4951 1.50098s13.166 -10.166 14.499 -17.499s-1.66699 -14 -9 -20c-24.667 -16 -49.5 -30.833 -74.5 -44.5s-53.333 -26.667 -85 -39s-62.167 -21.833 -91.5 -28.5s-59.666 -9.33398 -90.999 -8.00098s-60 7.33301 -86 18
c-22.667 10 -42.167 24 -58.5 42s-28.666 37.333 -36.999 58s-14.166 43.834 -17.499 69.501s-4.66602 49.667 -3.99902 72s2.66699 45.833 6 70.5c10.667 79.333 24.334 159.666 41.001 240.999s38 168.333 64 261l66 228l78 248c2.66699 9.33301 8.16699 14.333 16.5 15
s15.666 -2.16602 21.999 -8.49902s7.83301 -14.166 4.5 -23.499c-98 -310 -169 -571 -213 -783l-12.5 -57c-6.33301 -28.667 -11 -50.334 -14 -65.001s-6.33301 -35.334 -10 -62.001s-5.5 -49 -5.5 -67s1.5 -38 4.5 -60s8.16699 -41.667 15.5 -59
c12 -28.667 29.167 -50.5 51.5 -65.5s47.333 -23.167 75 -24.5s56.334 0.5 86.001 5.5s59.834 13.833 90.501 26.5s58.167 25.167 82.5 37.5s46.5 25.166 66.5 38.499z" />
    <glyph glyph-name="M" unicode="M" horiz-adv-x="1601" 
d="M1535 559c10.667 -15.333 16.0049 -36.1621 16.0049 -62.4951s-2.33301 -48.5 -7 -66.5c-0.666992 -3.33301 -1 -6 -1 -8c-7.33301 -44 -26 -123 -56 -237c-1.33301 -6 -9.83301 -37.833 -25.5 -95.5s-25.167 -93.834 -28.5 -108.501l-21.5 -93.5
c-11 -47.667 -18.333 -84.167 -22 -109.5s-7.66699 -57 -12 -95s-6.5 -73.667 -6.5 -107c0 -13.333 -6.66699 -20 -20 -20c-12.667 -0.666992 -21 4.66602 -25 15.999c-1.33301 2.66699 -2 5.66699 -2 9c0.666992 52 5.83398 109 15.501 171s19.334 113.667 29.001 155
s23.5 97 41.5 167c5.33301 20 17.833 62 37.5 126s34 118.667 43 164s13.167 88.666 12.5 129.999c0 4 -0.666992 9.5 -2 16.5l-3 15.5c-0.666992 3.33301 -0.666992 5.33301 0 6c-2.66699 0.666992 -6 0.5 -10 -0.5s-8 -2.5 -12 -4.5s-8.66699 -4.66699 -14 -8
s-9.83301 -6.33301 -13.5 -9s-7.5 -5.66699 -11.5 -9s-6.66699 -5.33301 -8 -6c-52.667 -37.333 -113 -94 -181 -170c-138.667 -155.333 -247 -314.333 -325 -477c-4 -8 -10.333 -12.5 -19 -13.5s-15.834 1.66699 -21.501 8s-6.83398 13.833 -3.50098 22.5
c62 162.667 98.333 356.334 109 581.001c2.66699 30 3.66699 65.167 3 105.5s-5 75.166 -13 104.499c-2 8 -4.5 14.833 -7.5 20.5s-6.5 9.5 -10.5 11.5s-7.66699 3.5 -11 4.5s-7.83301 0.333008 -13.5 -2s-10 -4.16602 -13 -5.49902s-8 -4.66602 -15 -9.99902
s-11.833 -9.16602 -14.5 -11.499l-15 -12.5c-22 -18.667 -43.333 -40.334 -64 -65.001s-38.334 -48 -53.001 -70s-30.667 -49 -48 -81s-31 -58.333 -41 -79l-39 -81c-52 -114 -111 -263.333 -177 -448c-5.33301 -14 -11 -30.333 -17 -49l-16.5 -50.5l-17 -50l-18 -50.5
c-5.66699 -15.333 -12 -31.5 -19 -48.5s-14.167 -32.833 -21.5 -47.5c-4.66699 -8.66699 -11.334 -13.334 -20.001 -14.001s-15.834 2.16602 -21.501 8.49902s-6.5 13.833 -2.5 22.5c19.333 41.333 36.5 89 51.5 143s25.833 100.333 32.5 139s14.334 89 23.001 151
c22 151.333 35.667 306.333 41 465c3.33301 54.667 4.33301 117 3 187s-7 132 -17 186c-0.666992 0.666992 -1 2.33398 -1 5.00098c-2 12 -3.83301 21.333 -5.5 28s-4.66699 13.834 -9 21.501s-9.5 12.167 -15.5 13.5c-9.33301 2.66699 -19.333 2.5 -30 -0.5
s-20.667 -7.33301 -30 -13s-19.666 -13.667 -30.999 -24s-20.833 -19.666 -28.5 -27.999s-16.667 -18.833 -27 -31.5s-17.5 -21.834 -21.5 -27.501l-17 -23.5c-16 -22.667 -31.333 -46.667 -46 -72s-29.334 -54 -44.001 -86s-24.834 -63.167 -30.501 -93.5
s-7.33398 -59.666 -5.00098 -87.999s13 -53.833 32 -76.5s45.833 -40 80.5 -52c8.66699 -2.66699 13.5 -8.33398 14.5 -17.001s-1.66699 -16 -8 -22s-14.166 -7.33301 -23.499 -4c-44 15.333 -77.667 38.166 -101 68.499s-36.333 63.166 -39 98.499
s0.833008 73.833 10.5 115.5s22.667 80.167 39 115.5s35.166 69 56.499 101c6.66699 10.667 14.5 22.334 23.5 35.001s21 28 36 46s30 34.833 45 50.5s31.5 30.334 49.5 44.001s35 23.834 51 30.501s32.167 8.66699 48.5 6s30.5 -11.334 42.5 -26.001
c3.33301 -4 6.5 -8.33301 9.5 -13s5.5 -10.334 7.5 -17.001s3.83301 -12 5.5 -16s3.16699 -10.333 4.5 -19s2.16602 -14.334 2.49902 -17.001s1.16602 -9 2.49902 -19s2 -15.333 2 -16c7.33301 -52.667 11.333 -122.334 12 -209.001c1.33301 -186 -11.667 -380.667 -39 -584
c-0.666992 -5.33301 -2.66699 -20.333 -6 -45c0.666992 2 1.66699 4.83301 3 8.5l3.5 10c1 3 2.16699 5.83301 3.5 8.5c81.333 218 158.333 387.667 231 509c45.333 75.333 90.333 134 135 176c57.333 54.667 102.333 79.334 135 74.001
c10.667 -2 20.334 -6.33301 29.001 -13s15.667 -15.667 21 -27s9.83301 -23.333 13.5 -36s6.33398 -27.334 8.00098 -44.001s2.83398 -32 3.50098 -46s0.666992 -29.833 0 -47.5s-1.33398 -31.834 -2.00098 -42.501s-1.5 -23.167 -2.5 -37.5s-1.5 -23.5 -1.5 -27.5
c-8 -134 -24.667 -257 -50 -369c76 120.667 164.333 234.334 265 341.001c2 1.33301 5 4.33301 9 9l24 25.5l31.5 32.5c14.333 14.667 27.166 26.834 38.499 36.501l40.5 33c15.667 12.333 29.834 21.666 42.501 27.999s25.5 11.666 38.5 15.999s24.667 5 35 2
s19.166 -9.16699 26.499 -18.5z" />
    <glyph glyph-name="N" unicode="N" horiz-adv-x="1211" 
d="M1181 -313c9.33301 -0.666992 15.499 -5.00195 18.499 -13.002s2.16699 -15.833 -2.5 -23.5s-12 -11.167 -22 -10.5c-20 1.33301 -38 4.66602 -54 9.99902s-29.833 11.5 -41.5 18.5s-21.834 16.5 -30.501 28.5s-15.667 23 -21 33s-9.5 23.5 -12.5 40.5
s-5.16699 31.167 -6.5 42.5s-1.83301 27 -1.5 47s0.833008 35.333 1.5 46l3 48l3 39c8.66699 148.667 13.334 236.334 14.001 263.001c0 2.66699 0.666992 17.334 2 44.001s2 47.167 2 61.5s-1.83301 31.333 -5.5 51s-9.5 34.5 -17.5 44.5
c-32.667 40.667 -99.334 -8.33301 -200.001 -147c-18 -24 -37 -51.667 -57 -83l-2 -3c-28.667 -43.333 -57.167 -89 -85.5 -137l-98.5 -171.5l-80 -140.5l-19 -37c-10.667 -20.667 -20.667 -39 -30 -55s-20.5 -33.167 -33.5 -51.5s-26.5 -32.333 -40.5 -42
s-27.667 -13.834 -41 -12.501c-7.33301 1.33301 -12.833 5.16602 -16.5 11.499s-4.5 13.166 -2.5 20.499c13.333 48.667 33.333 117.167 60 205.5l52 174.5c51.333 178.667 89.333 324.334 114 437.001l12 52c6 26 10.333 45.333 13 58s6.16699 30.834 10.5 54.501
s7 43.5 8 59.5s1.5 34 1.5 54s-1.33301 38.333 -4 55c-10.667 63.333 -57.667 59.333 -141 -12c-31.333 -26.667 -59.333 -55 -84 -85c-65.333 -78 -119.333 -164.667 -162 -260s-71.667 -194 -87 -296c-1.33301 -9.33301 -6.16602 -15.5 -14.499 -18.5
s-16.166 -2.16699 -23.499 2.5s-10.333 11.667 -9 21c18.667 120 54.667 235.833 108 347.5s121.333 208.5 204 290.5l38 34.5c13.333 11.667 30.166 23.834 50.499 36.501s39.333 21.834 57 27.501s35.334 6.16699 53.001 1.5s31.834 -16 42.501 -34
c4.66699 -8 8.5 -17 11.5 -27s5.33301 -19.833 7 -29.5s2.83398 -20.334 3.50098 -32.001s0.666992 -22.834 0 -33.501s-1.66699 -22.167 -3 -34.5s-2.83301 -23.666 -4.5 -33.999s-3.66699 -21.666 -6 -33.999s-4.5 -23.166 -6.5 -32.499l-6.5 -31l-5.5 -27
c-12.667 -66 -28.834 -137.833 -48.501 -215.5s-37.334 -143.834 -53.001 -198.501l-63.5 -217l-59 -203l17 28l16 27.5c4.66699 8.33301 7.33398 13.166 8.00098 14.499c16.667 27.333 60.667 103.666 132 228.999c2 4 6.66699 12.667 14 26
c198 361.333 343.667 538 437 530c18 -1.33301 33.667 -9.66602 47 -24.999c19.333 -22 30.666 -65 33.999 -129v-4l1 -8c2.66699 -54 0.666992 -136.333 -6 -247c-8 -136 -12.333 -217 -13 -243c-0.666992 -23.333 -0.5 -41.833 0.5 -55.5s3.66699 -28.834 8 -45.501
s10.833 -29.667 19.5 -39s21 -17.666 37 -24.999s36 -11.666 60 -12.999z" />
    <glyph glyph-name="N" unicode="&#xd1;" horiz-adv-x="1211" 
d="M1181 -313c9.33301 -0.666992 15.499 -5.00195 18.499 -13.002s2.16699 -15.833 -2.5 -23.5s-12 -11.167 -22 -10.5c-20 1.33301 -38 4.66602 -54 9.99902s-29.833 11.5 -41.5 18.5s-21.834 16.5 -30.501 28.5s-15.667 23 -21 33s-9.5 23.5 -12.5 40.5
s-5.16699 31.167 -6.5 42.5s-1.83301 27 -1.5 47s0.833008 35.333 1.5 46l3 48l3 39c8.66699 148.667 13.334 236.334 14.001 263.001c0 2.66699 0.666992 17.334 2 44.001s2 47.167 2 61.5s-1.83301 31.333 -5.5 51s-9.5 34.5 -17.5 44.5
c-32.667 40.667 -99.334 -8.33301 -200.001 -147c-18 -24 -37 -51.667 -57 -83l-2 -3c-28.667 -43.333 -57.167 -89 -85.5 -137l-98.5 -171.5l-80 -140.5l-19 -37c-10.667 -20.667 -20.667 -39 -30 -55s-20.5 -33.167 -33.5 -51.5s-26.5 -32.333 -40.5 -42
s-27.667 -13.834 -41 -12.501c-7.33301 1.33301 -12.833 5.16602 -16.5 11.499s-4.5 13.166 -2.5 20.499c13.333 48.667 33.333 117.167 60 205.5l52 174.5c51.333 178.667 89.333 324.334 114 437.001l12 52c6 26 10.333 45.333 13 58s6.16699 30.834 10.5 54.501
s7 43.5 8 59.5s1.5 34 1.5 54s-1.33301 38.333 -4 55c-10.667 63.333 -57.667 59.333 -141 -12c-31.333 -26.667 -59.333 -55 -84 -85c-65.333 -78 -119.333 -164.667 -162 -260s-71.667 -194 -87 -296c-1.33301 -9.33301 -6.16602 -15.5 -14.499 -18.5
s-16.166 -2.16699 -23.499 2.5s-10.333 11.667 -9 21c18.667 120 54.667 235.833 108 347.5s121.333 208.5 204 290.5l38 34.5c13.333 11.667 30.166 23.834 50.499 36.501s39.333 21.834 57 27.501s35.334 6.16699 53.001 1.5s31.834 -16 42.501 -34
c4.66699 -8 8.5 -17 11.5 -27s5.33301 -19.833 7 -29.5s2.83398 -20.334 3.50098 -32.001s0.666992 -22.834 0 -33.501s-1.66699 -22.167 -3 -34.5s-2.83301 -23.666 -4.5 -33.999s-3.66699 -21.666 -6 -33.999s-4.5 -23.166 -6.5 -32.499l-6.5 -31l-5.5 -27
c-12.667 -66 -28.834 -137.833 -48.501 -215.5s-37.334 -143.834 -53.001 -198.501l-63.5 -217l-59 -203l17 28l16 27.5c4.66699 8.33301 7.33398 13.166 8.00098 14.499c16.667 27.333 60.667 103.666 132 228.999c2 4 6.66699 12.667 14 26
c198 361.333 343.667 538 437 530c18 -1.33301 33.667 -9.66602 47 -24.999c19.333 -22 30.666 -65 33.999 -129v-4l1 -8c2.66699 -54 0.666992 -136.333 -6 -247c-8 -136 -12.333 -217 -13 -243c-0.666992 -23.333 -0.5 -41.833 0.5 -55.5s3.66699 -28.834 8 -45.501
s10.833 -29.667 19.5 -39s21 -17.666 37 -24.999s36 -11.666 60 -12.999z" />
    <glyph glyph-name="O" unicode="O" horiz-adv-x="1002" 
d="M928 698c40 -119.333 28.6641 -272.002 -34.0029 -458.002c-46 -137.333 -111 -264.333 -195 -381c-24 -32.667 -47.167 -62.334 -69.5 -89.001s-47.833 -54 -76.5 -82s-59.167 -52.667 -91.5 -74s-65.166 -37.666 -98.499 -48.999c-34.667 -11.333 -68 -17 -100 -17
s-62.833 8.16699 -92.5 24.5s-53.167 40.166 -70.5 71.499c-49.333 86.667 -61.666 216.667 -36.999 390c23.333 161.333 68.666 296 135.999 404c5.33301 8 12.166 11.333 20.499 10s14.333 -5.66602 18 -12.999s3.5 -15.333 -0.5 -24
c-64.667 -103.333 -107.667 -233.666 -129 -390.999c-3.33301 -27.333 -6 -52 -8 -74s-3.16699 -48 -3.5 -78s1 -57 4 -81s9 -48.667 18 -74s20.5 -47.333 34.5 -66c18.667 -24 41.5 -40 68.5 -48s54.833 -8.5 83.5 -1.5s55.834 16.833 81.501 29.5
s49.834 27.334 72.501 44.001c88 66 173 164.333 255 295c26.667 42 51.334 85 74.001 129s43.834 92.667 63.501 146s34.5 105.166 44.5 155.499s14 101.833 12 154.5s-11.667 101.334 -29 146.001c-16.667 43.333 -38.5 77.666 -65.5 102.999s-55.667 40.833 -86 46.5
s-62.166 4.5 -95.499 -3.5s-65 -21.833 -95 -41.5s-57.833 -44 -83.5 -73s-46.5 -60.5 -62.5 -94.5c-20 -44 -36.333 -90.333 -49 -139s-20.667 -99.167 -24 -151.5s0.333984 -101.5 11.001 -147.5c12.667 -57.333 38.5 -105.5 77.5 -144.5s87.5 -68.833 145.5 -89.5
c9.33301 -3.33301 14.333 -9.16602 15 -17.499s-2.16602 -15.5 -8.49902 -21.5s-13.833 -7.33301 -22.5 -4c-45.333 16 -85.5 37.167 -120.5 63.5s-64.333 58.5 -88 96.5s-39.834 80.333 -48.501 127c-9.33301 60.667 -10.833 123.167 -4.5 187.5s21.166 128.5 44.499 192.5
s52.666 119 87.999 165c23.333 30 49.833 56.167 79.5 78.5s62.5 40 98.5 53s72.667 19.167 110 18.5c28 -0.666992 54.833 -6.5 80.5 -17.5s48 -26 67 -45s35.667 -40.333 50 -64s26.166 -49.167 35.499 -76.5z" />
    <glyph glyph-name="O" unicode="&#xd8;" horiz-adv-x="1002" 
d="M928 698c40 -119.333 28.6641 -272.002 -34.0029 -458.002c-46 -137.333 -111 -264.333 -195 -381c-24 -32.667 -47.167 -62.334 -69.5 -89.001s-47.833 -54 -76.5 -82s-59.167 -52.667 -91.5 -74s-65.166 -37.666 -98.499 -48.999c-34.667 -11.333 -68 -17 -100 -17
s-62.833 8.16699 -92.5 24.5s-53.167 40.166 -70.5 71.499c-49.333 86.667 -61.666 216.667 -36.999 390c23.333 161.333 68.666 296 135.999 404c5.33301 8 12.166 11.333 20.499 10s14.333 -5.66602 18 -12.999s3.5 -15.333 -0.5 -24
c-64.667 -103.333 -107.667 -233.666 -129 -390.999c-3.33301 -27.333 -6 -52 -8 -74s-3.16699 -48 -3.5 -78s1 -57 4 -81s9 -48.667 18 -74s20.5 -47.333 34.5 -66c18.667 -24 41.5 -40 68.5 -48s54.833 -8.5 83.5 -1.5s55.834 16.833 81.501 29.5
s49.834 27.334 72.501 44.001c88 66 173 164.333 255 295c26.667 42 51.334 85 74.001 129s43.834 92.667 63.501 146s34.5 105.166 44.5 155.499s14 101.833 12 154.5s-11.667 101.334 -29 146.001c-16.667 43.333 -38.5 77.666 -65.5 102.999s-55.667 40.833 -86 46.5
s-62.166 4.5 -95.499 -3.5s-65 -21.833 -95 -41.5s-57.833 -44 -83.5 -73s-46.5 -60.5 -62.5 -94.5c-20 -44 -36.333 -90.333 -49 -139s-20.667 -99.167 -24 -151.5s0.333984 -101.5 11.001 -147.5c12.667 -57.333 38.5 -105.5 77.5 -144.5s87.5 -68.833 145.5 -89.5
c9.33301 -3.33301 14.333 -9.16602 15 -17.499s-2.16602 -15.5 -8.49902 -21.5s-13.833 -7.33301 -22.5 -4c-45.333 16 -85.5 37.167 -120.5 63.5s-64.333 58.5 -88 96.5s-39.834 80.333 -48.501 127c-9.33301 60.667 -10.833 123.167 -4.5 187.5s21.166 128.5 44.499 192.5
s52.666 119 87.999 165c23.333 30 49.833 56.167 79.5 78.5s62.5 40 98.5 53s72.667 19.167 110 18.5c28 -0.666992 54.833 -6.5 80.5 -17.5s48 -26 67 -45s35.667 -40.333 50 -64s26.166 -49.167 35.499 -76.5z" />
    <glyph glyph-name="O" unicode="&#xd5;" horiz-adv-x="1002" 
d="M928 698c40 -119.333 28.6641 -272.002 -34.0029 -458.002c-46 -137.333 -111 -264.333 -195 -381c-24 -32.667 -47.167 -62.334 -69.5 -89.001s-47.833 -54 -76.5 -82s-59.167 -52.667 -91.5 -74s-65.166 -37.666 -98.499 -48.999c-34.667 -11.333 -68 -17 -100 -17
s-62.833 8.16699 -92.5 24.5s-53.167 40.166 -70.5 71.499c-49.333 86.667 -61.666 216.667 -36.999 390c23.333 161.333 68.666 296 135.999 404c5.33301 8 12.166 11.333 20.499 10s14.333 -5.66602 18 -12.999s3.5 -15.333 -0.5 -24
c-64.667 -103.333 -107.667 -233.666 -129 -390.999c-3.33301 -27.333 -6 -52 -8 -74s-3.16699 -48 -3.5 -78s1 -57 4 -81s9 -48.667 18 -74s20.5 -47.333 34.5 -66c18.667 -24 41.5 -40 68.5 -48s54.833 -8.5 83.5 -1.5s55.834 16.833 81.501 29.5
s49.834 27.334 72.501 44.001c88 66 173 164.333 255 295c26.667 42 51.334 85 74.001 129s43.834 92.667 63.501 146s34.5 105.166 44.5 155.499s14 101.833 12 154.5s-11.667 101.334 -29 146.001c-16.667 43.333 -38.5 77.666 -65.5 102.999s-55.667 40.833 -86 46.5
s-62.166 4.5 -95.499 -3.5s-65 -21.833 -95 -41.5s-57.833 -44 -83.5 -73s-46.5 -60.5 -62.5 -94.5c-20 -44 -36.333 -90.333 -49 -139s-20.667 -99.167 -24 -151.5s0.333984 -101.5 11.001 -147.5c12.667 -57.333 38.5 -105.5 77.5 -144.5s87.5 -68.833 145.5 -89.5
c9.33301 -3.33301 14.333 -9.16602 15 -17.499s-2.16602 -15.5 -8.49902 -21.5s-13.833 -7.33301 -22.5 -4c-45.333 16 -85.5 37.167 -120.5 63.5s-64.333 58.5 -88 96.5s-39.834 80.333 -48.501 127c-9.33301 60.667 -10.833 123.167 -4.5 187.5s21.166 128.5 44.499 192.5
s52.666 119 87.999 165c23.333 30 49.833 56.167 79.5 78.5s62.5 40 98.5 53s72.667 19.167 110 18.5c28 -0.666992 54.833 -6.5 80.5 -17.5s48 -26 67 -45s35.667 -40.333 50 -64s26.166 -49.167 35.499 -76.5z" />
    <glyph glyph-name="O" unicode="&#xd4;" horiz-adv-x="1002" 
d="M928 698c40 -119.333 28.6641 -272.002 -34.0029 -458.002c-46 -137.333 -111 -264.333 -195 -381c-24 -32.667 -47.167 -62.334 -69.5 -89.001s-47.833 -54 -76.5 -82s-59.167 -52.667 -91.5 -74s-65.166 -37.666 -98.499 -48.999c-34.667 -11.333 -68 -17 -100 -17
s-62.833 8.16699 -92.5 24.5s-53.167 40.166 -70.5 71.499c-49.333 86.667 -61.666 216.667 -36.999 390c23.333 161.333 68.666 296 135.999 404c5.33301 8 12.166 11.333 20.499 10s14.333 -5.66602 18 -12.999s3.5 -15.333 -0.5 -24
c-64.667 -103.333 -107.667 -233.666 -129 -390.999c-3.33301 -27.333 -6 -52 -8 -74s-3.16699 -48 -3.5 -78s1 -57 4 -81s9 -48.667 18 -74s20.5 -47.333 34.5 -66c18.667 -24 41.5 -40 68.5 -48s54.833 -8.5 83.5 -1.5s55.834 16.833 81.501 29.5
s49.834 27.334 72.501 44.001c88 66 173 164.333 255 295c26.667 42 51.334 85 74.001 129s43.834 92.667 63.501 146s34.5 105.166 44.5 155.499s14 101.833 12 154.5s-11.667 101.334 -29 146.001c-16.667 43.333 -38.5 77.666 -65.5 102.999s-55.667 40.833 -86 46.5
s-62.166 4.5 -95.499 -3.5s-65 -21.833 -95 -41.5s-57.833 -44 -83.5 -73s-46.5 -60.5 -62.5 -94.5c-20 -44 -36.333 -90.333 -49 -139s-20.667 -99.167 -24 -151.5s0.333984 -101.5 11.001 -147.5c12.667 -57.333 38.5 -105.5 77.5 -144.5s87.5 -68.833 145.5 -89.5
c9.33301 -3.33301 14.333 -9.16602 15 -17.499s-2.16602 -15.5 -8.49902 -21.5s-13.833 -7.33301 -22.5 -4c-45.333 16 -85.5 37.167 -120.5 63.5s-64.333 58.5 -88 96.5s-39.834 80.333 -48.501 127c-9.33301 60.667 -10.833 123.167 -4.5 187.5s21.166 128.5 44.499 192.5
s52.666 119 87.999 165c23.333 30 49.833 56.167 79.5 78.5s62.5 40 98.5 53s72.667 19.167 110 18.5c28 -0.666992 54.833 -6.5 80.5 -17.5s48 -26 67 -45s35.667 -40.333 50 -64s26.166 -49.167 35.499 -76.5z" />
    <glyph glyph-name="O" unicode="&#xd3;" horiz-adv-x="1002" 
d="M928 698c40 -119.333 28.6641 -272.002 -34.0029 -458.002c-46 -137.333 -111 -264.333 -195 -381c-24 -32.667 -47.167 -62.334 -69.5 -89.001s-47.833 -54 -76.5 -82s-59.167 -52.667 -91.5 -74s-65.166 -37.666 -98.499 -48.999c-34.667 -11.333 -68 -17 -100 -17
s-62.833 8.16699 -92.5 24.5s-53.167 40.166 -70.5 71.499c-49.333 86.667 -61.666 216.667 -36.999 390c23.333 161.333 68.666 296 135.999 404c5.33301 8 12.166 11.333 20.499 10s14.333 -5.66602 18 -12.999s3.5 -15.333 -0.5 -24
c-64.667 -103.333 -107.667 -233.666 -129 -390.999c-3.33301 -27.333 -6 -52 -8 -74s-3.16699 -48 -3.5 -78s1 -57 4 -81s9 -48.667 18 -74s20.5 -47.333 34.5 -66c18.667 -24 41.5 -40 68.5 -48s54.833 -8.5 83.5 -1.5s55.834 16.833 81.501 29.5
s49.834 27.334 72.501 44.001c88 66 173 164.333 255 295c26.667 42 51.334 85 74.001 129s43.834 92.667 63.501 146s34.5 105.166 44.5 155.499s14 101.833 12 154.5s-11.667 101.334 -29 146.001c-16.667 43.333 -38.5 77.666 -65.5 102.999s-55.667 40.833 -86 46.5
s-62.166 4.5 -95.499 -3.5s-65 -21.833 -95 -41.5s-57.833 -44 -83.5 -73s-46.5 -60.5 -62.5 -94.5c-20 -44 -36.333 -90.333 -49 -139s-20.667 -99.167 -24 -151.5s0.333984 -101.5 11.001 -147.5c12.667 -57.333 38.5 -105.5 77.5 -144.5s87.5 -68.833 145.5 -89.5
c9.33301 -3.33301 14.333 -9.16602 15 -17.499s-2.16602 -15.5 -8.49902 -21.5s-13.833 -7.33301 -22.5 -4c-45.333 16 -85.5 37.167 -120.5 63.5s-64.333 58.5 -88 96.5s-39.834 80.333 -48.501 127c-9.33301 60.667 -10.833 123.167 -4.5 187.5s21.166 128.5 44.499 192.5
s52.666 119 87.999 165c23.333 30 49.833 56.167 79.5 78.5s62.5 40 98.5 53s72.667 19.167 110 18.5c28 -0.666992 54.833 -6.5 80.5 -17.5s48 -26 67 -45s35.667 -40.333 50 -64s26.166 -49.167 35.499 -76.5z" />
    <glyph glyph-name="O" unicode="&#xd2;" horiz-adv-x="1002" 
d="M928 698c40 -119.333 28.6641 -272.002 -34.0029 -458.002c-46 -137.333 -111 -264.333 -195 -381c-24 -32.667 -47.167 -62.334 -69.5 -89.001s-47.833 -54 -76.5 -82s-59.167 -52.667 -91.5 -74s-65.166 -37.666 -98.499 -48.999c-34.667 -11.333 -68 -17 -100 -17
s-62.833 8.16699 -92.5 24.5s-53.167 40.166 -70.5 71.499c-49.333 86.667 -61.666 216.667 -36.999 390c23.333 161.333 68.666 296 135.999 404c5.33301 8 12.166 11.333 20.499 10s14.333 -5.66602 18 -12.999s3.5 -15.333 -0.5 -24
c-64.667 -103.333 -107.667 -233.666 -129 -390.999c-3.33301 -27.333 -6 -52 -8 -74s-3.16699 -48 -3.5 -78s1 -57 4 -81s9 -48.667 18 -74s20.5 -47.333 34.5 -66c18.667 -24 41.5 -40 68.5 -48s54.833 -8.5 83.5 -1.5s55.834 16.833 81.501 29.5
s49.834 27.334 72.501 44.001c88 66 173 164.333 255 295c26.667 42 51.334 85 74.001 129s43.834 92.667 63.501 146s34.5 105.166 44.5 155.499s14 101.833 12 154.5s-11.667 101.334 -29 146.001c-16.667 43.333 -38.5 77.666 -65.5 102.999s-55.667 40.833 -86 46.5
s-62.166 4.5 -95.499 -3.5s-65 -21.833 -95 -41.5s-57.833 -44 -83.5 -73s-46.5 -60.5 -62.5 -94.5c-20 -44 -36.333 -90.333 -49 -139s-20.667 -99.167 -24 -151.5s0.333984 -101.5 11.001 -147.5c12.667 -57.333 38.5 -105.5 77.5 -144.5s87.5 -68.833 145.5 -89.5
c9.33301 -3.33301 14.333 -9.16602 15 -17.499s-2.16602 -15.5 -8.49902 -21.5s-13.833 -7.33301 -22.5 -4c-45.333 16 -85.5 37.167 -120.5 63.5s-64.333 58.5 -88 96.5s-39.834 80.333 -48.501 127c-9.33301 60.667 -10.833 123.167 -4.5 187.5s21.166 128.5 44.499 192.5
s52.666 119 87.999 165c23.333 30 49.833 56.167 79.5 78.5s62.5 40 98.5 53s72.667 19.167 110 18.5c28 -0.666992 54.833 -6.5 80.5 -17.5s48 -26 67 -45s35.667 -40.333 50 -64s26.166 -49.167 35.499 -76.5z" />
    <glyph glyph-name="P" unicode="P" horiz-adv-x="1000" 
d="M328 703c1.33301 9.33301 6.16699 15.5 14.5 18.5s16.166 2.16699 23.499 -2.5s10.333 -11.667 9 -21l-163 -1132c-1.33301 -9.33301 -6.16602 -15.5 -14.499 -18.5s-16 -2.16699 -23 2.5s-9.83301 11.667 -8.5 21zM1112 497
c10 -0.666992 16.501 -5.00488 19.501 -13.0049s2 -15.833 -3 -23.5s-12.167 -11.167 -21.5 -10.5c-49.333 2.66699 -100 -1 -152 -11c-41.333 -73.333 -94.666 -143.666 -159.999 -210.999s-135.333 -128.666 -210 -183.999c-2 -1.33301 -5 -3.66602 -9 -6.99902
c-19.333 -14.667 -35 -26 -47 -34s-28 -17.833 -48 -29.5s-39.167 -20.167 -57.5 -25.5s-35.833 -7.66602 -52.5 -6.99902c-18.667 0.666992 -32.667 5.5 -42 14.5s-13.833 20.167 -13.5 33.5s2.83301 26.833 7.5 40.5s10.667 27.167 18 40.5
c60.667 102 163.667 198.667 309 290c94 58.667 186.667 98.667 278 120c40.667 72.667 61 140.667 61 204c0 28 -4.83301 53 -14.5 75s-22.667 39.833 -39 53.5s-35.666 25 -57.999 34s-45.5 15.5 -69.5 19.5s-49.333 6.33301 -76 7s-51.334 0 -74.001 -2
s-44.667 -4.66699 -66 -8c-90.667 -15.333 -174.834 -43.666 -252.501 -84.999s-146 -95.166 -205 -161.499s-104.5 -142.166 -136.5 -227.499c-3.33301 -9.33301 -9.33301 -14.333 -18 -15s-15.834 2.16602 -21.501 8.49902s-6.83398 14.166 -3.50098 23.499
c38 102.667 95.667 193 173 271s166.166 137.667 266.499 179s205.833 63 316.5 65c48.667 0.666992 94.334 -5.5 137.001 -18.5s79.834 -32.667 111.501 -59s53.5 -59.5 65.5 -99.5s11.667 -86.667 -1 -140c-9.33301 -36.667 -23.333 -74.667 -42 -114
c44.667 6.66699 88 9 130 7zM684.002 188.995c90.667 85.333 159.999 163.333 207.999 234c-89.333 -27.333 -178.666 -72.666 -267.999 -135.999c-29.333 -20.667 -54.166 -39 -74.499 -55s-44.333 -36.333 -72 -61s-50.834 -49.834 -69.501 -75.501
s-32.334 -51.5 -41.001 -77.5c-13.333 -42.667 21.334 -40.667 104.001 6c64 36 135 91 213 165z" />
    <glyph glyph-name="Q" unicode="Q" horiz-adv-x="1064" 
d="M970 -307c6.66699 6.66699 14.5029 9.16992 23.5029 7.50293s15 -6 18 -13s1.83301 -14.5 -3.5 -22.5c-18.667 -22 -39.334 -41.667 -62.001 -59s-47.334 -31.833 -74.001 -43.5s-53.667 -14.834 -81 -9.50098s-51.666 20 -72.999 44
c-9.33301 10.667 -24.166 31.5 -44.499 62.5s-34.833 52.5 -43.5 64.5c-32 -16.667 -64 -30 -96 -40c-38.667 -12.667 -76.834 -21.334 -114.501 -26.001s-77 -4 -118 2s-77.833 18 -110.5 36c-29.333 15.333 -54.166 35.333 -74.499 60s-35.333 51.167 -45 79.5
s-16.334 58.666 -20.001 90.999s-3.16699 64.166 1.5 95.499c4.66699 52 13.667 104.667 27 158s30.5 105.833 51.5 157.5s42.667 100.5 65 146.5s49.166 94.833 80.499 146.5l85.5 135.5l90.5 135c5.33301 8 12.5 11.167 21.5 9.5s15.167 -6.16699 18.5 -13.5
s2.66602 -15 -2.00098 -23c-3.33301 -5.33301 -9 -13.666 -17 -24.999c70 52.667 139.667 66.667 209 42c45.333 -16 86.166 -41 122.499 -75s66 -72.5 89 -115.5s41.833 -89.5 56.5 -139.5s24.334 -99.333 29.001 -148s5 -95.667 1 -141
c-8.66699 -106.667 -40.5 -206.834 -95.5 -300.501s-126.833 -168.5 -215.5 -224.5l20.5 -30l23.5 -34.5l21 -30.5c17.333 -23.333 36.5 -38.666 57.5 -45.999s42 -7 63 1s41 19.167 60 33.5s37.167 31.833 54.5 52.5zM563.003 -254.997
c11.333 4.66699 23.333 10.334 36 17.001c-54 58.667 -103.667 57.334 -149 -3.99902c-6 -7.33301 -13.333 -10.333 -22 -9s-14.667 5.66602 -18 12.999s-2.66602 15 2.00098 23c32 44 67.333 66.833 106 68.5s76.334 -17.5 113.001 -57.5c1.33301 -1.33301 3 -3.33301 5 -6
s3.66699 -4.66699 5 -6c84 52 152 122 204 210s82 182.333 90 283c3.33301 41.333 3 84.166 -1 128.499s-12.5 89.833 -25.5 136.5s-29.833 89.834 -50.5 129.501s-47.5 75.334 -80.5 107.001s-70.167 54.5 -111.5 68.5c-19.333 6 -37.5 9.16699 -54.5 9.5s-34 -3 -51 -10
s-33 -15.167 -48 -24.5s-29.667 -21.333 -44 -36s-27.333 -29.334 -39 -44.001s-22.834 -30.667 -33.501 -48s-20.167 -33.5 -28.5 -48.5s-15.833 -30.167 -22.5 -45.5c-54 -118.667 -77 -248 -69 -388c0.666992 -9.33301 -2.83301 -16.5 -10.5 -21.5
s-15.334 -6.16699 -23.001 -3.5s-11.834 8.66699 -12.501 18c-6 103.333 4.33301 202.666 31 297.999c-74 -142 -124 -278.667 -150 -410c-7.33301 -37.333 -11.666 -72.666 -12.999 -105.999s1.33398 -67.333 8.00098 -102s20.5 -65.834 41.5 -93.501
s48.833 -48.834 83.5 -63.501c33.333 -14.667 70 -23.167 110 -25.5s78.167 0.333984 114.5 8.00098s72.166 19.167 107.499 34.5z" />
    <glyph glyph-name="R" unicode="R" horiz-adv-x="971" 
d="M337 717c2 9.33301 7.16699 15.5 15.5 18.5s16 2.16699 23 -2.5s9.83301 -11.667 8.5 -21l-197 -1163c-2 -9.33301 -7.16699 -15.5 -15.5 -18.5s-16 -2.16699 -23 2.5s-9.83301 11.667 -8.5 21zM998 -451c13.333 -4 17.9971 -13.002 13.9971 -27.002
c-4 -12.667 -12.333 -18.667 -25 -18l-6 2c-310 102.667 -533.333 269.667 -670 501c-2.66699 4.66699 -3.33398 9.33398 -2.00098 14.001s3.83301 8.66699 7.5 12s7.83398 5.33301 12.501 6c75.333 16.667 150.666 45.334 225.999 86.001s145.333 88.334 210 143.001
c22 18.667 42.667 38 62 58s38 41.833 56 65.5s33.333 48.334 46 74.001s22.834 51.834 30.501 78.501s11.334 54.5 11.001 83.5s-5.16602 57.5 -14.499 85.5c-9.33301 31.333 -24.666 58.333 -45.999 81s-46.166 40.167 -74.499 52.5s-57.5 21.5 -87.5 27.5
s-61.333 9 -94 9c-74 0 -150.167 -10.833 -228.5 -32.5s-152.166 -52.167 -221.499 -91.5s-132.333 -88.166 -189 -146.499s-99.334 -121.833 -128.001 -190.5c-4 -8.66699 -10.333 -13.334 -19 -14.001s-16 2.16602 -22 8.49902s-7 13.833 -3 22.5
c25.333 59.333 60.333 114.833 105 166.5s93.167 96 145.5 133s109.5 69.833 171.5 98.5c28.667 13.333 60 25.666 94 36.999s70.5 21.5 109.5 30.5s78.333 15.333 118 19s79 4.66699 118 3s75.667 -8 110 -19s65.333 -26 93 -45s50.834 -44.667 69.501 -77
s30.667 -69.833 36 -112.5c6.66699 -53.333 2.33398 -106.5 -12.999 -159.5s-39 -101.667 -71 -146s-69.833 -86.5 -113.5 -126.5s-90.834 -75.5 -141.501 -106.5s-101.834 -57.833 -153.501 -80.5s-101.834 -40.334 -150.501 -53.001c130 -205.333 339.333 -356 628 -452z
" />
    <glyph glyph-name="S" unicode="S" horiz-adv-x="1055" 
d="M972 281c8.66699 4 16.3379 3.33301 23.0049 -2s9.83398 -12.5 9.50098 -21.5s-4.83301 -15.5 -13.5 -19.5c-20 -8.66699 -43.333 -19.667 -70 -33c26 -51.333 35.333 -105.666 28 -162.999c-13.333 -104.667 -75.333 -213.667 -186 -327
c-108 -110 -220.333 -186.667 -337 -230c-108.667 -40 -180 -32.667 -214 22c-53.333 86 -7 205 139 357c128 133.333 295.333 253 502 359c-19.333 20 -42.833 35.667 -70.5 47s-58.5 18 -92.5 20s-64.667 2.33301 -92 1s-59 -4.33301 -95 -9c-20 -2 -46 -5.5 -78 -10.5
s-62.167 -9.5 -90.5 -13.5s-54.5 -7 -78.5 -9c-22.667 -3.33301 -49.334 -4.16602 -80.001 -2.49902s-56 7.83398 -76 18.501c-20.667 12 -35 27.333 -43 46s-9.83301 38.834 -5.5 60.501s10.5 41.834 18.5 60.501s17.667 37 29 55c70.667 110 182.667 213 336 309
c68 42.667 133.667 76.167 197 100.5s125.666 33.833 186.999 28.5c74 -6.66699 119 -34.667 135 -84c3.33301 -12.667 5.5 -25.5 6.5 -38.5s-0.333008 -27.167 -4 -42.5l-9.5 -38.5c-2.66699 -10.333 -8 -24.333 -16 -42s-13.5 -29.5 -16.5 -35.5l-17.5 -36
c-4.66699 -8.66699 -11.5 -13.334 -20.5 -14.001s-16.167 2.16602 -21.5 8.49902s-6 13.833 -2 22.5l9 17.5l10 19.5l10 20.5c4 8.33301 7.33301 15.666 10 21.999l9 21.5c3.33301 8 5.83301 15.5 7.5 22.5s3.16699 14.167 4.5 21.5s1.83301 14.5 1.5 21.5
s-1.16602 13.833 -2.49902 20.5c-10 44 -48.667 66.333 -116 67c-66.667 1.33301 -148 -22 -244 -70c-85.333 -42.667 -165.166 -94.334 -239.499 -155.001s-133.833 -127 -178.5 -199c-42.667 -68.667 -49.667 -116.334 -21 -143.001c8 -7.33301 18.167 -13 30.5 -17
s27.166 -5.83301 44.499 -5.5s31.166 0.833008 41.499 1.5s25.666 2.66699 45.999 6s31.833 5 34.5 5c21.333 2.66699 52 7.5 92 14.5s74.167 12.333 102.5 16s60.166 7 95.499 10s69.166 2.5 101.499 -1.5s62.833 -11 91.5 -21c41.333 -14.667 75.666 -39.667 102.999 -75z
M901.004 126c-4.66699 21.333 -11.668 41 -21.001 59c-268.667 -134.667 -460.667 -284.667 -576 -450c-8 -11.333 -15.667 -23 -23 -35s-14.833 -26.833 -22.5 -44.5s-13.334 -34.167 -17.001 -49.5s-4.16699 -30.666 -1.5 -45.999s9.33398 -28 20.001 -38
c23.333 -22.667 70.666 -21.334 141.999 3.99902c120.667 42.667 235.334 122 344.001 238c124.667 134 176.334 254.667 155.001 362z" />
    <glyph glyph-name="T" unicode="T" horiz-adv-x="487" 
d="M987 927c13.333 -0.666992 19.9971 -7.33789 19.9971 -20.0049c0.666992 -13.333 -4.66602 -21.666 -15.999 -24.999c-2.66699 -1.33301 -5.66699 -1.66602 -9 -0.999023c-168.667 5.33301 -338.667 -1 -510 -19c-132.667 -481.333 -194 -909.666 -184 -1285
c0.666992 -13.333 -5.66602 -21.833 -18.999 -25.5s-22 0.166016 -26 11.499c-0.666992 2 -1 4.33301 -1 7c-10 378.667 50.333 807.334 181 1286c-167.333 -20 -330.666 -50.333 -489.999 -91c-9.33301 -2.66699 -16.5 -0.666992 -21.5 6s-6.16699 14.334 -3.5 23.001
s8.66699 14.334 18 17.001c166.667 42.667 336.667 74 510 94c2.66699 10 8.66699 15 18 15s16.333 -3.66699 21 -11c171.333 17.333 342 23.333 512 18z" />
    <glyph glyph-name="U" unicode="U" horiz-adv-x="1100" 
d="M1034 796c4.66699 8 11.334 12.502 20.001 13.502s15.667 -1.5 21 -7.5s6.33301 -13.667 3 -23c-72.667 -182.667 -127.667 -384.667 -165 -606c-9.33301 -53.333 -16.5 -98.333 -21.5 -135s-9.5 -79.667 -13.5 -129s-4.66699 -96.5 -2 -141.5s8.66699 -87.833 18 -128.5
c2 -9.33301 -0.333008 -16.5 -7 -21.5s-14.334 -6.16699 -23.001 -3.5s-14 8.66699 -16 18c-10 42 -16.333 86 -19 132s-2 94 2 144s8.66699 94 14 132s12.333 84 21 138c18.667 106.667 41 209.334 67 308.001l-69 -146l-65 -132
c-31.333 -62.667 -57.333 -111.5 -78 -146.5s-46.5 -76.333 -77.5 -124s-61.833 -91.167 -92.5 -130.5c-85.333 -107.333 -172.333 -174.666 -261 -201.999c-22.667 -7.33301 -46.334 -12.666 -71.001 -15.999s-50.834 -2.66602 -78.501 2.00098s-48.834 14.667 -63.501 30
c-11.333 11.333 -19.833 25.333 -25.5 42s-8.5 35 -8.5 55s1 39.5 3 58.5s6 40.167 12 63.5s11.333 43 16 59s10.5 34.833 17.5 56.5s11.5 36.5 13.5 44.5c10.667 35.333 37.834 120.5 81.501 255.5s74.167 240.167 91.5 315.5c0.666992 2 3.16699 11.833 7.5 29.5
s7.5 31.667 9.5 42s4 23.5 6 39.5s2 29.833 0 41.5s-5.66699 21.167 -11 28.5c-8 10 -17.667 15.667 -29 17s-23.833 -1.5 -37.5 -8.5s-27.167 -15.5 -40.5 -25.5s-27.666 -23 -42.999 -39l-40 -42.5c-11.333 -12.333 -23.5 -26.833 -36.5 -43.5
s-21.833 -28.334 -26.5 -35.001s-10.334 -14.334 -17.001 -23.001c-5.33301 -7.33301 -12.333 -10.333 -21 -9s-14.667 5.66602 -18 12.999s-2.66602 15 2.00098 23c1.33301 2.66699 4.33301 7 9 13c22 31.333 40.833 56.666 56.5 75.999s37.667 43.5 66 72.5
s56.833 49.5 85.5 61.5s56.334 15 83.001 9c40 -9.33301 60.333 -44.666 61 -105.999c0.666992 -38 -3.66602 -80.667 -12.999 -128s-18.5 -86 -27.5 -116s-23.333 -73.667 -43 -131l-38.5 -113c-44 -135.333 -73.667 -232.333 -89 -291
c-0.666992 -2.66699 -2 -7.33398 -4 -14.001c-8 -29.333 -14 -52.5 -18 -69.5s-7.83301 -38.833 -11.5 -65.5s-4.83398 -50.334 -3.50098 -71.001c4 -68 59.667 -88.333 167 -61c30 8 59.167 20.167 87.5 36.5s54.666 36.5 78.999 60.5s45.833 47.167 64.5 69.5
s38.334 47.833 59.001 76.5c31.333 44.667 62.5 92.667 93.5 144s58.833 100.666 83.5 147.999l77.5 154.5l74 154.5l75 155.5z" />
    <glyph glyph-name="U" unicode="&#xdb;" horiz-adv-x="1100" 
d="M1034 796c4.66699 8 11.334 12.502 20.001 13.502s15.667 -1.5 21 -7.5s6.33301 -13.667 3 -23c-72.667 -182.667 -127.667 -384.667 -165 -606c-9.33301 -53.333 -16.5 -98.333 -21.5 -135s-9.5 -79.667 -13.5 -129s-4.66699 -96.5 -2 -141.5s8.66699 -87.833 18 -128.5
c2 -9.33301 -0.333008 -16.5 -7 -21.5s-14.334 -6.16699 -23.001 -3.5s-14 8.66699 -16 18c-10 42 -16.333 86 -19 132s-2 94 2 144s8.66699 94 14 132s12.333 84 21 138c18.667 106.667 41 209.334 67 308.001l-69 -146l-65 -132
c-31.333 -62.667 -57.333 -111.5 -78 -146.5s-46.5 -76.333 -77.5 -124s-61.833 -91.167 -92.5 -130.5c-85.333 -107.333 -172.333 -174.666 -261 -201.999c-22.667 -7.33301 -46.334 -12.666 -71.001 -15.999s-50.834 -2.66602 -78.501 2.00098s-48.834 14.667 -63.501 30
c-11.333 11.333 -19.833 25.333 -25.5 42s-8.5 35 -8.5 55s1 39.5 3 58.5s6 40.167 12 63.5s11.333 43 16 59s10.5 34.833 17.5 56.5s11.5 36.5 13.5 44.5c10.667 35.333 37.834 120.5 81.501 255.5s74.167 240.167 91.5 315.5c0.666992 2 3.16699 11.833 7.5 29.5
s7.5 31.667 9.5 42s4 23.5 6 39.5s2 29.833 0 41.5s-5.66699 21.167 -11 28.5c-8 10 -17.667 15.667 -29 17s-23.833 -1.5 -37.5 -8.5s-27.167 -15.5 -40.5 -25.5s-27.666 -23 -42.999 -39l-40 -42.5c-11.333 -12.333 -23.5 -26.833 -36.5 -43.5
s-21.833 -28.334 -26.5 -35.001s-10.334 -14.334 -17.001 -23.001c-5.33301 -7.33301 -12.333 -10.333 -21 -9s-14.667 5.66602 -18 12.999s-2.66602 15 2.00098 23c1.33301 2.66699 4.33301 7 9 13c22 31.333 40.833 56.666 56.5 75.999s37.667 43.5 66 72.5
s56.833 49.5 85.5 61.5s56.334 15 83.001 9c40 -9.33301 60.333 -44.666 61 -105.999c0.666992 -38 -3.66602 -80.667 -12.999 -128s-18.5 -86 -27.5 -116s-23.333 -73.667 -43 -131l-38.5 -113c-44 -135.333 -73.667 -232.333 -89 -291
c-0.666992 -2.66699 -2 -7.33398 -4 -14.001c-8 -29.333 -14 -52.5 -18 -69.5s-7.83301 -38.833 -11.5 -65.5s-4.83398 -50.334 -3.50098 -71.001c4 -68 59.667 -88.333 167 -61c30 8 59.167 20.167 87.5 36.5s54.666 36.5 78.999 60.5s45.833 47.167 64.5 69.5
s38.334 47.833 59.001 76.5c31.333 44.667 62.5 92.667 93.5 144s58.833 100.666 83.5 147.999l77.5 154.5l74 154.5l75 155.5z" />
    <glyph glyph-name="U" unicode="&#xda;" horiz-adv-x="1100" 
d="M1034 796c4.66699 8 11.334 12.502 20.001 13.502s15.667 -1.5 21 -7.5s6.33301 -13.667 3 -23c-72.667 -182.667 -127.667 -384.667 -165 -606c-9.33301 -53.333 -16.5 -98.333 -21.5 -135s-9.5 -79.667 -13.5 -129s-4.66699 -96.5 -2 -141.5s8.66699 -87.833 18 -128.5
c2 -9.33301 -0.333008 -16.5 -7 -21.5s-14.334 -6.16699 -23.001 -3.5s-14 8.66699 -16 18c-10 42 -16.333 86 -19 132s-2 94 2 144s8.66699 94 14 132s12.333 84 21 138c18.667 106.667 41 209.334 67 308.001l-69 -146l-65 -132
c-31.333 -62.667 -57.333 -111.5 -78 -146.5s-46.5 -76.333 -77.5 -124s-61.833 -91.167 -92.5 -130.5c-85.333 -107.333 -172.333 -174.666 -261 -201.999c-22.667 -7.33301 -46.334 -12.666 -71.001 -15.999s-50.834 -2.66602 -78.501 2.00098s-48.834 14.667 -63.501 30
c-11.333 11.333 -19.833 25.333 -25.5 42s-8.5 35 -8.5 55s1 39.5 3 58.5s6 40.167 12 63.5s11.333 43 16 59s10.5 34.833 17.5 56.5s11.5 36.5 13.5 44.5c10.667 35.333 37.834 120.5 81.501 255.5s74.167 240.167 91.5 315.5c0.666992 2 3.16699 11.833 7.5 29.5
s7.5 31.667 9.5 42s4 23.5 6 39.5s2 29.833 0 41.5s-5.66699 21.167 -11 28.5c-8 10 -17.667 15.667 -29 17s-23.833 -1.5 -37.5 -8.5s-27.167 -15.5 -40.5 -25.5s-27.666 -23 -42.999 -39l-40 -42.5c-11.333 -12.333 -23.5 -26.833 -36.5 -43.5
s-21.833 -28.334 -26.5 -35.001s-10.334 -14.334 -17.001 -23.001c-5.33301 -7.33301 -12.333 -10.333 -21 -9s-14.667 5.66602 -18 12.999s-2.66602 15 2.00098 23c1.33301 2.66699 4.33301 7 9 13c22 31.333 40.833 56.666 56.5 75.999s37.667 43.5 66 72.5
s56.833 49.5 85.5 61.5s56.334 15 83.001 9c40 -9.33301 60.333 -44.666 61 -105.999c0.666992 -38 -3.66602 -80.667 -12.999 -128s-18.5 -86 -27.5 -116s-23.333 -73.667 -43 -131l-38.5 -113c-44 -135.333 -73.667 -232.333 -89 -291
c-0.666992 -2.66699 -2 -7.33398 -4 -14.001c-8 -29.333 -14 -52.5 -18 -69.5s-7.83301 -38.833 -11.5 -65.5s-4.83398 -50.334 -3.50098 -71.001c4 -68 59.667 -88.333 167 -61c30 8 59.167 20.167 87.5 36.5s54.666 36.5 78.999 60.5s45.833 47.167 64.5 69.5
s38.334 47.833 59.001 76.5c31.333 44.667 62.5 92.667 93.5 144s58.833 100.666 83.5 147.999l77.5 154.5l74 154.5l75 155.5z" />
    <glyph glyph-name="U" unicode="&#xd9;" horiz-adv-x="1100" 
d="M1034 796c4.66699 8 11.334 12.502 20.001 13.502s15.667 -1.5 21 -7.5s6.33301 -13.667 3 -23c-72.667 -182.667 -127.667 -384.667 -165 -606c-9.33301 -53.333 -16.5 -98.333 -21.5 -135s-9.5 -79.667 -13.5 -129s-4.66699 -96.5 -2 -141.5s8.66699 -87.833 18 -128.5
c2 -9.33301 -0.333008 -16.5 -7 -21.5s-14.334 -6.16699 -23.001 -3.5s-14 8.66699 -16 18c-10 42 -16.333 86 -19 132s-2 94 2 144s8.66699 94 14 132s12.333 84 21 138c18.667 106.667 41 209.334 67 308.001l-69 -146l-65 -132
c-31.333 -62.667 -57.333 -111.5 -78 -146.5s-46.5 -76.333 -77.5 -124s-61.833 -91.167 -92.5 -130.5c-85.333 -107.333 -172.333 -174.666 -261 -201.999c-22.667 -7.33301 -46.334 -12.666 -71.001 -15.999s-50.834 -2.66602 -78.501 2.00098s-48.834 14.667 -63.501 30
c-11.333 11.333 -19.833 25.333 -25.5 42s-8.5 35 -8.5 55s1 39.5 3 58.5s6 40.167 12 63.5s11.333 43 16 59s10.5 34.833 17.5 56.5s11.5 36.5 13.5 44.5c10.667 35.333 37.834 120.5 81.501 255.5s74.167 240.167 91.5 315.5c0.666992 2 3.16699 11.833 7.5 29.5
s7.5 31.667 9.5 42s4 23.5 6 39.5s2 29.833 0 41.5s-5.66699 21.167 -11 28.5c-8 10 -17.667 15.667 -29 17s-23.833 -1.5 -37.5 -8.5s-27.167 -15.5 -40.5 -25.5s-27.666 -23 -42.999 -39l-40 -42.5c-11.333 -12.333 -23.5 -26.833 -36.5 -43.5
s-21.833 -28.334 -26.5 -35.001s-10.334 -14.334 -17.001 -23.001c-5.33301 -7.33301 -12.333 -10.333 -21 -9s-14.667 5.66602 -18 12.999s-2.66602 15 2.00098 23c1.33301 2.66699 4.33301 7 9 13c22 31.333 40.833 56.666 56.5 75.999s37.667 43.5 66 72.5
s56.833 49.5 85.5 61.5s56.334 15 83.001 9c40 -9.33301 60.333 -44.666 61 -105.999c0.666992 -38 -3.66602 -80.667 -12.999 -128s-18.5 -86 -27.5 -116s-23.333 -73.667 -43 -131l-38.5 -113c-44 -135.333 -73.667 -232.333 -89 -291
c-0.666992 -2.66699 -2 -7.33398 -4 -14.001c-8 -29.333 -14 -52.5 -18 -69.5s-7.83301 -38.833 -11.5 -65.5s-4.83398 -50.334 -3.50098 -71.001c4 -68 59.667 -88.333 167 -61c30 8 59.167 20.167 87.5 36.5s54.666 36.5 78.999 60.5s45.833 47.167 64.5 69.5
s38.334 47.833 59.001 76.5c31.333 44.667 62.5 92.667 93.5 144s58.833 100.666 83.5 147.999l77.5 154.5l74 154.5l75 155.5z" />
    <glyph glyph-name="V" unicode="V" horiz-adv-x="900" 
d="M1179 923c6.66699 6.66699 13.9971 8.16504 21.9971 4.49805s12.833 -9.5 14.5 -17.5s-0.5 -15.667 -6.5 -23c-186 -184.667 -340.667 -393.167 -464 -625.5s-209.333 -477.166 -258 -734.499c-2.66699 -13.333 -10.5 -20.166 -23.5 -20.499s-20.5 6.16699 -22.5 19.5
c-7.33301 46 -13.666 92.667 -18.999 140l-19.5 182l-14.5 141c-22 204.667 -42.333 364.667 -61 480c-0.666992 4.66699 -3.66699 23.5 -9 56.5l-10.5 64.5c-1.66699 10 -5.5 28.833 -11.5 56.5s-11.333 49 -16 64s-11 32.833 -19 53.5s-16.333 39.334 -25 56.001
c-13.333 22.667 -28.666 37.334 -45.999 44.001s-35 6 -53 -2s-36.167 -19.5 -54.5 -34.5s-35.333 -32.667 -51 -53s-29.334 -39.5 -41.001 -57.5s-20.834 -34.333 -27.501 -49c-23.333 -52 -38.333 -105 -45 -159s-1.33398 -108 15.999 -162s47.333 -99 90 -135
c7.33301 -6 10.166 -13.5 8.49902 -22.5s-6 -15.167 -13 -18.5s-14.5 -2.33301 -22.5 3c-49.333 41.333 -84.166 92.333 -104.499 153s-27.333 121.834 -21 183.501s23.5 122.167 51.5 181.5c7.33301 17.333 16.666 35.166 27.999 53.499s25 38 41 59
s32.833 39.167 50.5 54.5s36.834 28.833 57.501 40.5s41.334 17.5 62.001 17.5s42 -5.33301 64 -16c12 -6.66699 23 -15.5 33 -26.5s18.833 -24.167 26.5 -39.5s14.334 -30 20.001 -44s10.834 -30.833 15.501 -50.5l11.5 -48.5c3 -12.667 6.33301 -28.834 10 -48.501
s6.16699 -32.834 7.5 -39.501c18.667 -92 34.667 -190.167 48 -294.5s26.333 -221.166 39 -350.499s23.334 -228.333 32.001 -297c58 238.667 147.167 465.167 267.5 679.5s267.833 408.166 442.5 581.499z" />
    <glyph glyph-name="W" unicode="W" horiz-adv-x="1592" 
d="M1404 760c42 -109.333 67.8262 -222.171 77.4932 -338.504s3.16699 -232.166 -19.5 -347.499c-5.33301 -26 -12.166 -53.833 -20.499 -83.5s-19.5 -63.167 -33.5 -100.5s-29.5 -72.333 -46.5 -105s-37 -63 -60 -91s-47.167 -49.667 -72.5 -65s-54 -22.5 -86 -21.5
s-64.667 12.5 -98 34.5c-24 15.333 -45.333 34.833 -64 58.5s-34.167 50.334 -46.5 80.001s-22.166 57 -29.499 82s-14.666 53.833 -21.999 86.5l-11.5 61.5c-3.66699 20.333 -7 43.166 -10 68.499s-5.5 45.166 -7.5 59.499s-4.66699 37.333 -8 69s-5.33301 52.167 -6 61.5
c-21.333 -48 -48.5 -115.167 -81.5 -201.5s-65 -164.833 -96 -235.5s-64.167 -135 -99.5 -193l-30.5 -46c-8.33301 -12 -19.5 -26.333 -33.5 -43s-28.833 -29.834 -44.5 -39.501s-32.167 -15.5 -49.5 -17.5c-26.667 -3.33301 -49.667 3.5 -69 20.5s-33.333 38.833 -42 65.5
c-6.66699 23.333 -10.667 49.833 -12 79.5s-1 54.5 1 74.5s5.66699 46.667 11 80c10.667 78 34.334 193.333 71.001 346c47.333 193.333 75 310.333 83 351c1.33301 4 4.33301 17.333 9 40s7.66699 37.834 9 45.501l7 41.5c3.33301 20 5.33301 35.667 6 47
s0.833984 24.833 0.500977 40.5s-1.5 30.167 -3.5 43.5c-12.667 72.667 -65 68 -157 -14c-34.667 -30.667 -67.334 -64.667 -98.001 -102c-126.667 -153.333 -159.667 -254.333 -99 -303c7.33301 -5.33301 10.166 -12.5 8.49902 -21.5s-6 -15.167 -13 -18.5
s-14.5 -2.33301 -22.5 3c-61.333 48 -60.666 129 2.00098 243c32 57.333 70.5 111.333 115.5 162s93.167 92.334 144.5 125.001c96.667 61.333 150 33 160 -85c6 -66 -1 -147.667 -21 -245c-9.33301 -47.333 -35 -155.5 -77 -324.5s-69 -300.167 -81 -393.5
c0 -1.33301 -1.33301 -11.166 -4 -29.499s-4.33398 -30.833 -5.00098 -37.5s-1.66699 -18.667 -3 -36s-1.5 -30.833 -0.5 -40.5s2.33301 -21.167 4 -34.5s5 -24.833 10 -34.5s11.167 -18.167 18.5 -25.5c7.33301 -8 15.333 -13.167 24 -15.5s17.334 -2 26.001 1
s16.834 6.66699 24.501 11s15.834 11.333 24.501 21l22.5 25.5c6.33301 7.33301 13.166 16.833 20.499 28.5l16.5 26l13.5 21.5c0.666992 2 1.33398 3.33301 2.00098 4c36.667 62 71.667 133.167 105 213.5l100.5 251c33.667 87 65.167 159.833 94.5 218.5
c4.66699 10 12.834 14.667 24.501 14s18.167 -7 19.5 -19c4 -29.333 9 -73.166 15 -131.499s12.167 -110.333 18.5 -156s14.166 -88.834 23.499 -129.501c6 -26 12.833 -51 20.5 -75s18.667 -51 33 -81s30 -55 47 -75s38.167 -35.333 63.5 -46s52.666 -12 81.999 -4
c14 3.33301 27.667 9.66602 41 18.999s25.833 21 37.5 35s21.334 26.833 29.001 38.5l25.5 40.5c43.333 74 76.333 162.333 99 265c25.333 114 33.833 229.333 25.5 346s-33.166 229.334 -74.499 338.001c-3.33301 9.33301 -2.16602 17.333 3.50098 24
s12.667 9.83398 21 9.50098s14.166 -5.16602 17.499 -14.499z" />
    <glyph glyph-name="X" unicode="X" horiz-adv-x="1124" 
d="M1086 -28c4 8.66699 10.4951 13.3281 19.4951 13.9951s16.333 -2.16602 22 -8.49902s6.5 -13.5 2.5 -21.5c-2 -4.66699 -5.33301 -11.667 -10 -21c-18.667 -40 -34.667 -72 -48 -96s-32.5 -53.167 -57.5 -87.5s-52.333 -57.666 -82 -69.999s-61.167 -13.5 -94.5 -3.5
c-30.667 10 -60 25 -88 45s-53.5 44.333 -76.5 73s-42.5 55.667 -58.5 81s-33 54.666 -51 87.999c-50 91.333 -97.667 201.666 -143 330.999c-129.333 -236.667 -227.333 -460.667 -294 -672c-3.33301 -9.33301 -9.16602 -14.5 -17.499 -15.5s-15.5 1.83301 -21.5 8.5
s-7.66699 14.334 -5 23.001c70.667 224 176.334 462.667 317.001 716l-37 112l-37 122l-33 109c-1.33301 4 -3.83301 12 -7.5 24s-6.33398 20.5 -8.00098 25.5s-4.5 13 -8.5 24s-7.5 19.167 -10.5 24.5l-12 21c-5 8.66699 -10 15.167 -15 19.5s-11 8.83301 -18 13.5
s-14.5 8 -22.5 10s-16.667 3.33301 -26 4c-35.333 0 -63.666 -10.667 -84.999 -32s-40.666 -51.666 -57.999 -90.999c-12 -28.667 -21.5 -56.834 -28.5 -84.501s-9.83301 -58 -8.5 -91s9.33301 -60.833 24 -83.5c5.33301 -8 5.83301 -16.167 1.5 -24.5
s-10.166 -13.166 -17.499 -14.499s-14 1.66699 -20 9c-18.667 29.333 -29.834 65.333 -33.501 108s-0.5 84.667 9.5 126s25.833 80.666 47.5 117.999s46.834 65.666 75.501 84.999c30 20.667 60 29.667 90 27s57.5 -13.667 82.5 -33s44.167 -44 57.5 -74
c8.66699 -18 17 -38.667 25 -62s14.667 -44 20 -62l19 -66.5c7.33301 -26.333 13.333 -47.166 18 -62.499l47 -146c86.667 151.333 169 272.333 247 363c38 44 75 81.167 111 111.5s74.667 52.833 116 67.5c9.33301 2.66699 17.333 1.16699 24 -4.5
s9.83398 -12.667 9.50098 -21s-5.16602 -14.166 -14.499 -17.499c-44.667 -15.333 -85.667 -40.166 -123 -74.499s-76.333 -77.166 -117 -128.499c-72.667 -90 -148.334 -205 -227.001 -345c-0.666992 -0.666992 -1.66699 -2.16699 -3 -4.5s-2.33301 -4.16602 -3 -5.49902
c14.667 -42.667 22.334 -64.667 23.001 -66l39.5 -104.5c10.333 -27 24.333 -60.667 42 -101s34.667 -75 51 -104s35.833 -59.667 58.5 -92s46.667 -60.833 72 -85.5c82.667 -83.333 152 -100.333 208 -51c19.333 18 38.666 41.667 57.999 71s33.5 52.833 42.5 70.5z" />
    <glyph glyph-name="Y" unicode="Y" horiz-adv-x="967" 
d="M878 306c8 6 16.1641 6.99609 24.4971 2.99609s13 -9.83301 14 -17.5s-1.83301 -14.834 -8.5 -21.501c-20.667 -14.667 -42 -30.667 -64 -48c-8.66699 -73.333 -21.334 -149.333 -38.001 -228c-10 -45.333 -19.833 -86.333 -29.5 -123s-22.667 -78.167 -39 -124.5
s-34 -87.666 -53 -123.999s-42.333 -72.166 -70 -107.499s-58.167 -64.666 -91.5 -87.999c-24.667 -18 -51.834 -30.167 -81.501 -36.5s-57.167 -6.5 -82.5 -0.5s-46.666 20 -63.999 42s-26.666 50 -27.999 84c-1.33301 29.333 2.16699 59.833 10.5 91.5
s18.833 60.334 31.5 86.001s29.334 54.167 50.001 85.5s38.834 56.833 54.501 76.5l57.5 70.5c100 120 209.667 227 329 321c20 187.333 11 356.333 -27 507c-44 -186 -104 -348 -180 -486c-14 -25.333 -27.667 -48.333 -41 -69s-29.666 -43 -48.999 -67
s-38.833 -44.5 -58.5 -61.5s-42.334 -31.667 -68.001 -44s-51.834 -19.5 -78.501 -21.5c-28 -2.66699 -54.5 -0.166992 -79.5 7.5s-42.167 21.834 -51.5 42.501c-16.667 35.333 -16.667 89.666 0 162.999c6.66699 28.667 17.334 64 32.001 106s28.167 78.833 40.5 110.5
s22.666 67.667 30.999 108s11.166 77.5 8.49902 111.5c-2.66699 32.667 -13.167 57.167 -31.5 73.5s-40.166 24 -65.499 23s-52 -8.5 -80 -22.5c-51.333 -25.333 -94.166 -61.166 -128.499 -107.499s-49.833 -96.166 -46.5 -149.499
c0.666992 -13.333 -5.83301 -21.666 -19.5 -24.999s-22.167 0.666992 -25.5 12l-2 6c-2.66699 52.667 10.333 105 39 157s67.834 94.667 117.501 128s101.167 50.333 154.5 51c22.667 0 42.5 -4 59.5 -12s30.333 -18.833 40 -32.5s17.334 -29.167 23.001 -46.5s9 -36 10 -56
s0.666992 -39.167 -1 -57.5s-4.5 -36.5 -8.5 -54.5c-6.66699 -28 -17.667 -63.167 -33 -105.5l-42 -112.5c-12.667 -32.667 -23 -69.334 -31 -110.001s-9.66699 -77.667 -5 -111c2.66699 -18.667 10.834 -32.334 24.501 -41.001s29.667 -12.334 48 -11.001
s36.333 4.66602 54 9.99902s33.167 12.333 46.5 21c57.333 35.333 113.666 101 168.999 197c89.333 156.667 156.666 347.334 201.999 572.001c2 10.667 8.83301 17.334 20.5 20.001s19.5 -1.66602 23.5 -12.999c57.333 -168.667 77 -359.334 59 -572.001c2 2 5 4.33301 9 7
s7.5 5.16699 10.5 7.5zM761.997 11.9961c12 57.333 21.665 113.668 28.998 169.001c-114 -94.667 -216.667 -199.334 -308 -314.001c-11.333 -14 -24.333 -31.667 -39 -53s-32.334 -48.833 -53.001 -82.5s-37.667 -66.5 -51 -98.5s-23.166 -62.833 -29.499 -92.5
s-3.16602 -54.5 9.50098 -74.5s35.334 -31.667 68.001 -35c78 -8.66699 155 51.333 231 180c61.333 104 109 237.667 143 401z" />
    <glyph glyph-name="Y" unicode="&#xdd;" horiz-adv-x="967" 
d="M878 306c8 6 16.1641 6.99609 24.4971 2.99609s13 -9.83301 14 -17.5s-1.83301 -14.834 -8.5 -21.501c-20.667 -14.667 -42 -30.667 -64 -48c-8.66699 -73.333 -21.334 -149.333 -38.001 -228c-10 -45.333 -19.833 -86.333 -29.5 -123s-22.667 -78.167 -39 -124.5
s-34 -87.666 -53 -123.999s-42.333 -72.166 -70 -107.499s-58.167 -64.666 -91.5 -87.999c-24.667 -18 -51.834 -30.167 -81.501 -36.5s-57.167 -6.5 -82.5 -0.5s-46.666 20 -63.999 42s-26.666 50 -27.999 84c-1.33301 29.333 2.16699 59.833 10.5 91.5
s18.833 60.334 31.5 86.001s29.334 54.167 50.001 85.5s38.834 56.833 54.501 76.5l57.5 70.5c100 120 209.667 227 329 321c20 187.333 11 356.333 -27 507c-44 -186 -104 -348 -180 -486c-14 -25.333 -27.667 -48.333 -41 -69s-29.666 -43 -48.999 -67
s-38.833 -44.5 -58.5 -61.5s-42.334 -31.667 -68.001 -44s-51.834 -19.5 -78.501 -21.5c-28 -2.66699 -54.5 -0.166992 -79.5 7.5s-42.167 21.834 -51.5 42.501c-16.667 35.333 -16.667 89.666 0 162.999c6.66699 28.667 17.334 64 32.001 106s28.167 78.833 40.5 110.5
s22.666 67.667 30.999 108s11.166 77.5 8.49902 111.5c-2.66699 32.667 -13.167 57.167 -31.5 73.5s-40.166 24 -65.499 23s-52 -8.5 -80 -22.5c-51.333 -25.333 -94.166 -61.166 -128.499 -107.499s-49.833 -96.166 -46.5 -149.499
c0.666992 -13.333 -5.83301 -21.666 -19.5 -24.999s-22.167 0.666992 -25.5 12l-2 6c-2.66699 52.667 10.333 105 39 157s67.834 94.667 117.501 128s101.167 50.333 154.5 51c22.667 0 42.5 -4 59.5 -12s30.333 -18.833 40 -32.5s17.334 -29.167 23.001 -46.5s9 -36 10 -56
s0.666992 -39.167 -1 -57.5s-4.5 -36.5 -8.5 -54.5c-6.66699 -28 -17.667 -63.167 -33 -105.5l-42 -112.5c-12.667 -32.667 -23 -69.334 -31 -110.001s-9.66699 -77.667 -5 -111c2.66699 -18.667 10.834 -32.334 24.501 -41.001s29.667 -12.334 48 -11.001
s36.333 4.66602 54 9.99902s33.167 12.333 46.5 21c57.333 35.333 113.666 101 168.999 197c89.333 156.667 156.666 347.334 201.999 572.001c2 10.667 8.83301 17.334 20.5 20.001s19.5 -1.66602 23.5 -12.999c57.333 -168.667 77 -359.334 59 -572.001c2 2 5 4.33301 9 7
s7.5 5.16699 10.5 7.5zM761.997 11.9961c12 57.333 21.665 113.668 28.998 169.001c-114 -94.667 -216.667 -199.334 -308 -314.001c-11.333 -14 -24.333 -31.667 -39 -53s-32.334 -48.833 -53.001 -82.5s-37.667 -66.5 -51 -98.5s-23.166 -62.833 -29.499 -92.5
s-3.16602 -54.5 9.50098 -74.5s35.334 -31.667 68.001 -35c78 -8.66699 155 51.333 231 180c61.333 104 109 237.667 143 401z" />
    <glyph glyph-name="Z" unicode="Z" horiz-adv-x="709" 
d="M145 -100c-41.333 -55.333 -66.333 -89.6738 -75 -103.007c-56.667 -88 -49 -144 23 -168c29.333 -10 77.333 -10.333 144 -1c41.333 5.33301 82.5 14.5 123.5 27.5s84 31 129 54s81.333 42.5 109 58.5l115.5 69c12.667 8 22.334 5.33301 29.001 -8
c6 -14.667 2.66699 -26 -10 -34l-118 -71c-30 -17.333 -67.5 -37.333 -112.5 -60s-88.667 -40.667 -131 -54s-84.833 -22.666 -127.5 -27.999c-16 -2 -31.667 -3.66699 -47 -5s-32.333 -1.66602 -51 -0.999023s-36.167 2.5 -52.5 5.5s-32 7.83301 -47 14.5
s-27.5 14.834 -37.5 24.501s-17.5 22.334 -22.5 38.001s-6.16699 33.834 -3.5 54.501c2.66699 19.333 9.5 40.5 20.5 63.5s20.833 41 29.5 54s23.5 33 44.5 60l37.5 48.5l103.5 137l76.5 102l23 31l120.5 162l105 149c41.667 60.667 78.167 117 109.5 169
c2 4 8.5 14.667 19.5 32s18.833 30.333 23.5 39l18.5 36c7.66699 15.333 13.5 29.333 17.5 42s6.33301 25 7 37c0.666992 7.33301 0 13.833 -2 19.5s-5.33301 9.83398 -10 12.501s-9.33398 4.66699 -14.001 6s-10.834 2 -18.501 2s-14.167 -0.166992 -19.5 -0.5
s-12.166 -0.833008 -20.499 -1.5s-14.5 -1.33398 -18.5 -2.00098c-27.333 -1.33301 -54.5 -3.66602 -81.5 -6.99902s-59 -8.5 -96 -15.5s-71 -16.167 -102 -27.5s-60.5 -24.833 -88.5 -40.5s-50.667 -35.334 -68 -59.001s-27.333 -49.5 -30 -77.5
c-0.666992 -10 -5 -16.5 -13 -19.5s-15.667 -2 -23 3s-10.666 12.167 -9.99902 21.5c2 26.667 9.5 51.5 22.5 74.5s29 42.833 48 59.5s42 32 69 46s53.5 25.5 79.5 34.5s54.333 17 85 24s57.667 12.333 81 16s47.666 6.83398 72.999 9.50098c2 0 4.66699 0.333008 8 1
l93.5 6.5c32.333 2.33301 58.833 -5.16699 79.5 -22.5s27 -45 19 -83c-4 -19.333 -11.333 -41.166 -22 -65.499s-19.5 -42.666 -26.5 -54.999l-35.5 -60.5c-40 -68 -97 -154 -171 -258c-48 -68.667 -119.333 -165.834 -214 -291.501z" />
    <glyph glyph-name="bracketleft" unicode="[" horiz-adv-x="388" 
d="M383 -32c9.33301 2 16.498 -0.500977 21.498 -7.50098s6.16699 -14.667 3.5 -23s-8.66699 -13.5 -18 -15.5c-104 -17.333 -210 -24.666 -318 -21.999c-6 0.666992 -11.167 3.66699 -15.5 9s-5.83301 11 -4.5 17c56.667 262 66.334 521 29.001 777
c-1.33301 10 -5.33301 27.667 -12 53s-12 47.166 -16 65.499s-4.33301 37.833 -1 58.5s12 36.334 26 47.001c20 16 47.5 26.333 82.5 31s67.333 5.5 97 2.5s58.834 -7.83301 87.501 -14.5c14 -3.33301 20.333 -12.666 19 -27.999
c-0.666992 -12 -6.33398 -18.333 -17.001 -19c-2.66699 -0.666992 -5 -0.666992 -7 0c-60 14.667 -115.333 17.667 -166 9c-1.33301 0 -3 -0.333008 -5 -1c-12 -2 -20.833 -3.66699 -26.5 -5s-12.167 -3.83301 -19.5 -7.5s-12.666 -8.83398 -15.999 -15.501
s-5.33301 -15 -6 -25c-0.666992 -8 1.5 -21.667 6.5 -41s7.5 -29.666 7.5 -30.999c17.333 -96 28 -192.667 32 -290c8 -180.667 -6.66699 -362.334 -44 -545.001c94.667 -1.33301 188 5.66699 280 21z" />
    <glyph glyph-name="backslash" unicode="\" horiz-adv-x="390" 
d="M338 -124c3.33301 -8.66699 2.16699 -16.3311 -3.5 -22.998s-12.667 -9.83398 -21 -9.50098s-14.5 4.83301 -18.5 13.5c-144.667 349.333 -317.667 682 -519 998c-8 12.667 -6.5 23.5 4.5 32.5s21.833 8.16699 32.5 -2.5c3.33301 -4 7.33301 -8.33301 12 -13l15 -15.5
l12 -12.5c8 -8.66699 8.66699 -17.334 2 -26.001c188 -304 349.333 -618 484 -942z" />
    <glyph glyph-name="bracketright" unicode="]" horiz-adv-x="328" 
d="M277 -22c2.66699 -6.66699 2.33008 -13.6641 -1.00293 -20.9971s-9 -11 -17 -11l-176 -10c-9.33301 -0.666992 -16.666 2.66602 -21.999 9.99902s-6.5 15 -3.5 23s9.16699 12.333 18.5 13c39.333 2.66699 89 5.33398 149 8.00098c-12 42.667 -22.5 86.167 -31.5 130.5
s-16.167 90.333 -21.5 138s-9.5 91.5 -12.5 131.5s-4.83301 86.833 -5.5 140.5s-1 98 -1 133s0.333008 82 1 141s1.33398 103.5 2.00098 133.5l-83.5 -19.5l-76.5 -17.5c-13.333 -3.33301 -21.666 1.66699 -24.999 15c-3.33301 14 0.666992 23.667 12 29l6 2l93 21.5
c41.333 9.66699 72.333 17.167 93 22.5c8 1.33301 14.5 -0.833984 19.5 -6.50098s7.5 -12.167 7.5 -19.5c0 -38 -0.333008 -92.167 -1 -162.5s-1.16699 -127.166 -1.5 -170.499s0.5 -97.333 2.5 -162s5.5 -121.334 10.5 -170.001s13 -101.834 24 -159.501
s24.5 -111.834 40.5 -162.501z" />
    <glyph glyph-name="asciicircum" unicode="^" horiz-adv-x="357" 
d="M305 356c4.66699 -13.333 0.333008 -23.3311 -13 -29.998s-22.666 -3.66699 -27.999 9c-0.666992 0.666992 -1.33398 1.66699 -2.00098 3l-76 222c-4.66699 -10.667 -34.667 -73.667 -90 -189c-4 -8.66699 -10.5 -13.334 -19.5 -14.001s-16.333 2.16602 -22 8.49902
s-6.5 13.5 -2.5 21.5l23.5 48.5l23.5 49l22.5 47.5l23.5 49.5l23 48.5c4 8.66699 11.167 13.5 21.5 14.5s17.5 -3.5 21.5 -13.5z" />
    <glyph glyph-name="underscore" unicode="_" horiz-adv-x="450" 
d="M413 61c13.333 0.666992 21.667 -5.66797 25 -19.001s-0.666992 -22 -12 -26c-2 -0.666992 -4 -1 -6 -1c-129.333 -6.66699 -257.333 -4 -384 8c-9.33301 0.666992 -15.5 5 -18.5 13s-2.16699 15.833 2.5 23.5s11.667 10.834 21 9.50098
c124.667 -12 248.667 -14.667 372 -8z" />
    <glyph glyph-name="grave" unicode="`" horiz-adv-x="225" 
d="M195 593c4.66699 -3.33301 7.66699 -7.50195 9 -12.502s1 -9.5 -1 -13.5s-4.66699 -7.66699 -8 -11s-7.5 -5.16602 -12.5 -5.49902s-9.83301 1.16699 -14.5 4.5c-39.333 27.333 -83.333 42 -132 44c-9.33301 0.666992 -15.5 4.83398 -18.5 12.501
s-2.16699 15.334 2.5 23.001s11.667 11.5 21 11.5c56 -2.66699 107.333 -20.334 154 -53.001z" />
    <glyph glyph-name="a" unicode="a" horiz-adv-x="400" 
d="M423.5 139c5 -4 7.99609 -9.16504 8.99609 -15.498s-0.5 -12.166 -4.5 -17.499c-4.66699 -6 -10.167 -12.667 -16.5 -20s-16.5 -18 -30.5 -32s-28 -26.333 -42 -37s-30 -20 -48 -28s-35 -12 -51 -12s-30.667 4 -44 12c-20 12 -30.333 33.667 -31 65
c-44.667 -54.667 -87 -76.667 -127 -66c-32.667 9.33301 -49.334 32.333 -50.001 69c-0.666992 26 8.5 57 27.5 93s41.833 68 68.5 96s50.667 45 72 51c18.667 6 35.667 4.33301 51 -5c8.66699 -5.33301 16.334 -13.333 23.001 -24v1.5v0.5
c3.33301 5.33301 7.83301 9.16602 13.5 11.499s11.334 2.16602 17.001 -0.500977s9.83398 -7 12.501 -13s2.66699 -11.667 0 -17c-9.33301 -23.333 -19.666 -47 -30.999 -71c-14.667 -38 -24.167 -70.667 -28.5 -98s-2.16602 -45 6.50098 -53
c9.33301 -6.66699 20.666 -8 33.999 -4s26.333 9.83301 39 17.5s25.834 17.667 39.501 30s25.167 23.666 34.5 33.999s17.333 19.833 24 28.5c4 4.66699 9.16699 7.5 15.5 8.5s12 -0.5 17 -4.5zM198.996 199.002l5 12c-2.66699 3.33301 -4.66699 7 -6 11
c-2.66699 15.333 -8 25.333 -16 30c-1.33301 1.33301 -3 2 -5 2s-4.33301 -0.333008 -7 -1c-24.667 -7.33301 -53.5 -34.333 -86.5 -81s-49.167 -85 -48.5 -115c0 -12.667 5.33301 -20.667 16 -24c19.333 -5.33301 42.5 8.5 69.5 41.5s53.167 74.5 78.5 124.5z" />
    <glyph glyph-name="a" unicode="&#xe5;" horiz-adv-x="400" 
d="M423.5 139c5 -4 7.99609 -9.16504 8.99609 -15.498s-0.5 -12.166 -4.5 -17.499c-4.66699 -6 -10.167 -12.667 -16.5 -20s-16.5 -18 -30.5 -32s-28 -26.333 -42 -37s-30 -20 -48 -28s-35 -12 -51 -12s-30.667 4 -44 12c-20 12 -30.333 33.667 -31 65
c-44.667 -54.667 -87 -76.667 -127 -66c-32.667 9.33301 -49.334 32.333 -50.001 69c-0.666992 26 8.5 57 27.5 93s41.833 68 68.5 96s50.667 45 72 51c18.667 6 35.667 4.33301 51 -5c8.66699 -5.33301 16.334 -13.333 23.001 -24v1.5v0.5
c3.33301 5.33301 7.83301 9.16602 13.5 11.499s11.334 2.16602 17.001 -0.500977s9.83398 -7 12.501 -13s2.66699 -11.667 0 -17c-9.33301 -23.333 -19.666 -47 -30.999 -71c-14.667 -38 -24.167 -70.667 -28.5 -98s-2.16602 -45 6.50098 -53
c9.33301 -6.66699 20.666 -8 33.999 -4s26.333 9.83301 39 17.5s25.834 17.667 39.501 30s25.167 23.666 34.5 33.999s17.333 19.833 24 28.5c4 4.66699 9.16699 7.5 15.5 8.5s12 -0.5 17 -4.5zM198.996 199.002l5 12c-2.66699 3.33301 -4.66699 7 -6 11
c-2.66699 15.333 -8 25.333 -16 30c-1.33301 1.33301 -3 2 -5 2s-4.33301 -0.333008 -7 -1c-24.667 -7.33301 -53.5 -34.333 -86.5 -81s-49.167 -85 -48.5 -115c0 -12.667 5.33301 -20.667 16 -24c19.333 -5.33301 42.5 8.5 69.5 41.5s53.167 74.5 78.5 124.5z" />
    <glyph glyph-name="a" unicode="&#xe3;" horiz-adv-x="400" 
d="M423.5 139c5 -4 7.99609 -9.16504 8.99609 -15.498s-0.5 -12.166 -4.5 -17.499c-4.66699 -6 -10.167 -12.667 -16.5 -20s-16.5 -18 -30.5 -32s-28 -26.333 -42 -37s-30 -20 -48 -28s-35 -12 -51 -12s-30.667 4 -44 12c-20 12 -30.333 33.667 -31 65
c-44.667 -54.667 -87 -76.667 -127 -66c-32.667 9.33301 -49.334 32.333 -50.001 69c-0.666992 26 8.5 57 27.5 93s41.833 68 68.5 96s50.667 45 72 51c18.667 6 35.667 4.33301 51 -5c8.66699 -5.33301 16.334 -13.333 23.001 -24v1.5v0.5
c3.33301 5.33301 7.83301 9.16602 13.5 11.499s11.334 2.16602 17.001 -0.500977s9.83398 -7 12.501 -13s2.66699 -11.667 0 -17c-9.33301 -23.333 -19.666 -47 -30.999 -71c-14.667 -38 -24.167 -70.667 -28.5 -98s-2.16602 -45 6.50098 -53
c9.33301 -6.66699 20.666 -8 33.999 -4s26.333 9.83301 39 17.5s25.834 17.667 39.501 30s25.167 23.666 34.5 33.999s17.333 19.833 24 28.5c4 4.66699 9.16699 7.5 15.5 8.5s12 -0.5 17 -4.5zM198.996 199.002l5 12c-2.66699 3.33301 -4.66699 7 -6 11
c-2.66699 15.333 -8 25.333 -16 30c-1.33301 1.33301 -3 2 -5 2s-4.33301 -0.333008 -7 -1c-24.667 -7.33301 -53.5 -34.333 -86.5 -81s-49.167 -85 -48.5 -115c0 -12.667 5.33301 -20.667 16 -24c19.333 -5.33301 42.5 8.5 69.5 41.5s53.167 74.5 78.5 124.5z" />
    <glyph glyph-name="a" unicode="&#xe2;" horiz-adv-x="400" 
d="M423.5 139c5 -4 7.99609 -9.16504 8.99609 -15.498s-0.5 -12.166 -4.5 -17.499c-4.66699 -6 -10.167 -12.667 -16.5 -20s-16.5 -18 -30.5 -32s-28 -26.333 -42 -37s-30 -20 -48 -28s-35 -12 -51 -12s-30.667 4 -44 12c-20 12 -30.333 33.667 -31 65
c-44.667 -54.667 -87 -76.667 -127 -66c-32.667 9.33301 -49.334 32.333 -50.001 69c-0.666992 26 8.5 57 27.5 93s41.833 68 68.5 96s50.667 45 72 51c18.667 6 35.667 4.33301 51 -5c8.66699 -5.33301 16.334 -13.333 23.001 -24v1.5v0.5
c3.33301 5.33301 7.83301 9.16602 13.5 11.499s11.334 2.16602 17.001 -0.500977s9.83398 -7 12.501 -13s2.66699 -11.667 0 -17c-9.33301 -23.333 -19.666 -47 -30.999 -71c-14.667 -38 -24.167 -70.667 -28.5 -98s-2.16602 -45 6.50098 -53
c9.33301 -6.66699 20.666 -8 33.999 -4s26.333 9.83301 39 17.5s25.834 17.667 39.501 30s25.167 23.666 34.5 33.999s17.333 19.833 24 28.5c4 4.66699 9.16699 7.5 15.5 8.5s12 -0.5 17 -4.5zM198.996 199.002l5 12c-2.66699 3.33301 -4.66699 7 -6 11
c-2.66699 15.333 -8 25.333 -16 30c-1.33301 1.33301 -3 2 -5 2s-4.33301 -0.333008 -7 -1c-24.667 -7.33301 -53.5 -34.333 -86.5 -81s-49.167 -85 -48.5 -115c0 -12.667 5.33301 -20.667 16 -24c19.333 -5.33301 42.5 8.5 69.5 41.5s53.167 74.5 78.5 124.5z" />
    <glyph glyph-name="a" unicode="&#xe1;" horiz-adv-x="400" 
d="M423.5 139c5 -4 7.99609 -9.16504 8.99609 -15.498s-0.5 -12.166 -4.5 -17.499c-4.66699 -6 -10.167 -12.667 -16.5 -20s-16.5 -18 -30.5 -32s-28 -26.333 -42 -37s-30 -20 -48 -28s-35 -12 -51 -12s-30.667 4 -44 12c-20 12 -30.333 33.667 -31 65
c-44.667 -54.667 -87 -76.667 -127 -66c-32.667 9.33301 -49.334 32.333 -50.001 69c-0.666992 26 8.5 57 27.5 93s41.833 68 68.5 96s50.667 45 72 51c18.667 6 35.667 4.33301 51 -5c8.66699 -5.33301 16.334 -13.333 23.001 -24v1.5v0.5
c3.33301 5.33301 7.83301 9.16602 13.5 11.499s11.334 2.16602 17.001 -0.500977s9.83398 -7 12.501 -13s2.66699 -11.667 0 -17c-9.33301 -23.333 -19.666 -47 -30.999 -71c-14.667 -38 -24.167 -70.667 -28.5 -98s-2.16602 -45 6.50098 -53
c9.33301 -6.66699 20.666 -8 33.999 -4s26.333 9.83301 39 17.5s25.834 17.667 39.501 30s25.167 23.666 34.5 33.999s17.333 19.833 24 28.5c4 4.66699 9.16699 7.5 15.5 8.5s12 -0.5 17 -4.5zM198.996 199.002l5 12c-2.66699 3.33301 -4.66699 7 -6 11
c-2.66699 15.333 -8 25.333 -16 30c-1.33301 1.33301 -3 2 -5 2s-4.33301 -0.333008 -7 -1c-24.667 -7.33301 -53.5 -34.333 -86.5 -81s-49.167 -85 -48.5 -115c0 -12.667 5.33301 -20.667 16 -24c19.333 -5.33301 42.5 8.5 69.5 41.5s53.167 74.5 78.5 124.5z" />
    <glyph glyph-name="a" unicode="&#xe0;" horiz-adv-x="400" 
d="M423.5 139c5 -4 7.99609 -9.16504 8.99609 -15.498s-0.5 -12.166 -4.5 -17.499c-4.66699 -6 -10.167 -12.667 -16.5 -20s-16.5 -18 -30.5 -32s-28 -26.333 -42 -37s-30 -20 -48 -28s-35 -12 -51 -12s-30.667 4 -44 12c-20 12 -30.333 33.667 -31 65
c-44.667 -54.667 -87 -76.667 -127 -66c-32.667 9.33301 -49.334 32.333 -50.001 69c-0.666992 26 8.5 57 27.5 93s41.833 68 68.5 96s50.667 45 72 51c18.667 6 35.667 4.33301 51 -5c8.66699 -5.33301 16.334 -13.333 23.001 -24v1.5v0.5
c3.33301 5.33301 7.83301 9.16602 13.5 11.499s11.334 2.16602 17.001 -0.500977s9.83398 -7 12.501 -13s2.66699 -11.667 0 -17c-9.33301 -23.333 -19.666 -47 -30.999 -71c-14.667 -38 -24.167 -70.667 -28.5 -98s-2.16602 -45 6.50098 -53
c9.33301 -6.66699 20.666 -8 33.999 -4s26.333 9.83301 39 17.5s25.834 17.667 39.501 30s25.167 23.666 34.5 33.999s17.333 19.833 24 28.5c4 4.66699 9.16699 7.5 15.5 8.5s12 -0.5 17 -4.5zM198.996 199.002l5 12c-2.66699 3.33301 -4.66699 7 -6 11
c-2.66699 15.333 -8 25.333 -16 30c-1.33301 1.33301 -3 2 -5 2s-4.33301 -0.333008 -7 -1c-24.667 -7.33301 -53.5 -34.333 -86.5 -81s-49.167 -85 -48.5 -115c0 -12.667 5.33301 -20.667 16 -24c19.333 -5.33301 42.5 8.5 69.5 41.5s53.167 74.5 78.5 124.5z" />
    <glyph glyph-name="b" unicode="b" horiz-adv-x="493" 
d="M505 229c6.66699 0 12.3281 -2.33789 16.9951 -7.00488s7 -10.167 7 -16.5s-2.33301 -11.833 -7 -16.5s-10.334 -7 -17.001 -7c-21.333 0 -48.666 -9.83301 -81.999 -29.5s-68 -45.5 -104 -77.5c-17.333 -54 -43.833 -109.833 -79.5 -167.5s-63.5 -90.5 -83.5 -98.5
c-4 -1.33301 -8 -2 -12 -2c-7.33301 0 -13.666 2.33301 -18.999 7c-20 18 -23 45.667 -9 83c10.667 27.333 30.834 59.666 60.501 96.999s63.5 73.333 101.5 108c5.33301 19.333 8.33301 36.333 9 51c0 16 -3.33301 26.667 -10 32c-12 3.33301 -24.5 2.83301 -37.5 -1.5
s-26 -12.833 -39 -25.5s-24.667 -25.167 -35 -37.5s-21.5 -28.666 -33.5 -48.999l-27.5 -47c-6.33301 -11 -14.166 -25.5 -23.499 -43.5c-14 -27.333 -24 -44.666 -30 -51.999s-13.667 -10.666 -23 -9.99902c-4.66699 0.666992 -9.16699 2.66699 -13.5 6
s-7.16602 7.33301 -8.49902 12c-6.66699 19.333 -10.667 42.833 -12 70.5s-1.16602 53 0.500977 76s4.5 52.167 8.5 87.5c0.666992 4.66699 2.66699 14 6 28c0 4 1 7.66699 3 11c8.66699 36 20.334 78.667 35.001 128s33.334 106 56.001 170s45.667 122.333 69 175
s48.333 97.334 75 134.001s51 55 73 55s37.667 -8.66699 47 -26c10 -18.667 8.33301 -50.167 -5 -94.5s-32 -90.666 -56 -138.999s-53.667 -102.666 -89 -162.999s-65.333 -109.666 -90 -147.999l-73 -111.5c-2 -10 -3.33301 -18 -4 -24
c-8.66699 -73.333 -11.667 -127.333 -9 -162l16 30.5c4 7.66699 10 18.5 18 32.5s15 25.667 21 35l22.5 33.5c9 13 17.333 23.667 25 32s16.5 17.166 26.5 26.499s19.833 16.666 29.5 21.999s19.667 9.83301 30 13.5s21.166 5.33398 32.499 5.00098s22.666 -2.5 33.999 -6.5
l4 -2c24 -14 35 -40 33 -78c70.667 54 128 81 172 81zM162.994 534.995c-24.667 -64 -47.335 -129.333 -68.002 -196c78.667 124.667 140.167 233.667 184.5 327s59.5 146.333 45.5 159h-5c-0.666992 0 -2.5 -0.666992 -5.5 -2s-9.16699 -7.33301 -18.5 -18
s-19.666 -25.167 -30.999 -43.5s-26.166 -47.333 -44.499 -87s-37.5 -86.167 -57.5 -139.5zM156.993 -130.005c22.667 28 46.999 66.665 72.999 115.998c-35.333 -41.333 -58.666 -76.666 -69.999 -105.999c-1.33301 -3.33301 -2.33301 -6.66602 -3 -9.99902z" />
    <glyph glyph-name="c" unicode="c" horiz-adv-x="322" 
d="M348 187.5c4.66699 -4.33301 7.16602 -9.66211 7.49902 -15.9951s-1.5 -11.833 -5.5 -16.5s-10.833 -11.834 -20.5 -21.501s-26.667 -25.167 -51 -46.5s-48.166 -40.5 -71.499 -57.5s-49.5 -32.333 -78.5 -46s-54.5 -20.5 -76.5 -20.5
c-20.667 0 -38.334 5.66699 -53.001 17c-18 14 -28.667 33.333 -32 58c-2.66699 19.333 -0.333984 41.166 6.99902 65.499s17.5 47.666 30.5 69.999s23.333 39.333 31 51s14.834 21.5 21.501 29.5c26.667 34 51.334 47 74.001 39c20 -6.66699 30.333 -27 31 -61
c0 -6.66699 -2.16699 -12.334 -6.5 -17.001s-9.83301 -7 -16.5 -7c-4.66699 0 -8.66699 1 -12 3s-6.16602 4.66699 -8.49902 8s-3.5 7.33301 -3.5 12c0 5.33301 -0.333008 10 -1 14c-7.33301 -5.33301 -14.333 -12 -21 -20c-18.667 -24.667 -37.334 -55.167 -56.001 -91.5
s-26.667 -66.166 -24 -89.499c1.33301 -12 6.33301 -21 15 -27c10.667 -8.66699 25.667 -10.334 45 -5.00098s40 14.333 62 27s44.833 28.167 68.5 46.5s45 36.166 64 53.499s34.833 33 47.5 47c4.66699 4.66699 10.167 7.16699 16.5 7.5s11.833 -1.66699 16.5 -6z" />
    <glyph glyph-name="c" unicode="&#xe7;" horiz-adv-x="322" 
d="M348 187.5c4.66699 -4.33301 7.16602 -9.66211 7.49902 -15.9951s-1.5 -11.833 -5.5 -16.5s-10.833 -11.834 -20.5 -21.501s-26.667 -25.167 -51 -46.5s-48.166 -40.5 -71.499 -57.5s-49.5 -32.333 -78.5 -46s-54.5 -20.5 -76.5 -20.5
c-20.667 0 -38.334 5.66699 -53.001 17c-18 14 -28.667 33.333 -32 58c-2.66699 19.333 -0.333984 41.166 6.99902 65.499s17.5 47.666 30.5 69.999s23.333 39.333 31 51s14.834 21.5 21.501 29.5c26.667 34 51.334 47 74.001 39c20 -6.66699 30.333 -27 31 -61
c0 -6.66699 -2.16699 -12.334 -6.5 -17.001s-9.83301 -7 -16.5 -7c-4.66699 0 -8.66699 1 -12 3s-6.16602 4.66699 -8.49902 8s-3.5 7.33301 -3.5 12c0 5.33301 -0.333008 10 -1 14c-7.33301 -5.33301 -14.333 -12 -21 -20c-18.667 -24.667 -37.334 -55.167 -56.001 -91.5
s-26.667 -66.166 -24 -89.499c1.33301 -12 6.33301 -21 15 -27c10.667 -8.66699 25.667 -10.334 45 -5.00098s40 14.333 62 27s44.833 28.167 68.5 46.5s45 36.166 64 53.499s34.833 33 47.5 47c4.66699 4.66699 10.167 7.16699 16.5 7.5s11.833 -1.66699 16.5 -6z" />
    <glyph glyph-name="d" unicode="d" horiz-adv-x="443" 
d="M449 77c4 5.33301 9.17383 8.5 15.5068 9.5s12.166 -0.166992 17.499 -3.5s8.66602 -8.16602 9.99902 -14.499s0 -12.166 -4 -17.499c-2.66699 -4 -6 -8.66699 -10 -14s-12 -14.333 -24 -27s-24.333 -23.667 -37 -33s-28.334 -17.833 -47.001 -25.5
s-37.334 -11.5 -56.001 -11.5c-12.667 0 -25.334 1.66699 -38.001 5c-45.333 12.667 -74.333 48.667 -87 108c-4.66699 20.667 -7 44 -7 70c-50 -64 -92.5 -108 -127.5 -132s-65.833 -26.667 -92.5 -8c-0.666992 0 -1.33398 0.666992 -2.00098 2
c-31.333 27.333 -37 67.333 -17 120c14.667 38 39.667 75.167 75 111.5s66.333 54.5 93 54.5c6.66699 0 12.334 -2.33301 17.001 -7s7 -10.167 7 -16.5s-2.33301 -11.833 -7 -16.5s-10.334 -7 -17.001 -7c-12.667 0 -33.334 -14.5 -62.001 -43.5
s-49.334 -59.833 -62.001 -92.5c-12 -31.333 -11 -54 3 -68c28.667 -16 94.334 46.667 197.001 188c14 115.333 50 240.333 108 375s112.333 223.334 163 266.001c28 23.333 53.333 30.666 76 21.999c12 -5.33301 20 -14.666 24 -27.999
c12 -40.667 -14.167 -124.334 -78.5 -251.001s-141.833 -253.334 -232.5 -380.001l-16 -22c-5.33301 -50.667 -4.33301 -93 3 -127c9.33301 -41.333 27.666 -65.666 54.999 -72.999c8.66699 -3.33301 17.834 -4.5 27.501 -3.5s18.5 2.5 26.5 4.5s16.333 5.5 25 10.5
s16.167 9.66699 22.5 14s12.833 9.66602 19.5 15.999s12 11.666 16 15.999s8 9.16602 12 14.499l8 10.5c1.33301 1.66699 2.33301 2.83398 3 3.50098v1zM488.007 813c-40 -33.333 -83.999 -102.001 -131.999 -206.001s-83.667 -207.333 -107 -310
c85.333 124.667 152.333 238.334 201 341.001s70 165.667 64 189c-6.66699 0 -15.334 -4.66699 -26.001 -14z" />
    <glyph glyph-name="e" unicode="e" horiz-adv-x="336" 
d="M367 154c4.66699 -4.66699 7.00195 -10.166 7.00195 -16.499s-2 -11.833 -6 -16.5c-10 -10.667 -22.167 -22.5 -36.5 -35.5s-35 -30.333 -62 -52s-55.333 -39.5 -85 -53.5s-56.667 -21 -81 -21s-45.166 7.33301 -62.499 22c-18 16.667 -29.167 38.5 -33.5 65.5
s-3 54.5 4 82.5s17.833 56 32.5 84c18.667 34.667 41.667 63.5 69 86.5s54.666 30.833 81.999 23.5c26.667 -7.33301 41.667 -21.333 45 -42c2 -14.667 -3.33301 -31.334 -16 -50.001s-30.167 -37.167 -52.5 -55.5s-42.833 -34 -61.5 -47l-58 -38.5
c-3.33301 -34 3.33398 -58.667 20.001 -74c10 -10 23.833 -13.333 41.5 -10s36.167 9.83301 55.5 19.5s39.666 22.334 60.999 38.001s40.666 31 57.999 46s32.666 29.5 45.999 43.5c4.66699 4.66699 10.167 7.16699 16.5 7.5s11.833 -1.83398 16.5 -6.50098zM85.002 190.001
c-6 -10.667 -11.333 -21.667 -16 -33c35.333 24.667 65 48 89 70s36 37.667 36 47c0 0.666992 -3.66699 1.66699 -11 3c-2 0.666992 -4 1 -6 1c-13.333 0 -28.5 -8.16699 -45.5 -24.5s-32.5 -37.5 -46.5 -63.5z" />
    <glyph glyph-name="e" unicode="&#xeb;" horiz-adv-x="336" 
d="M367 154c4.66699 -4.66699 7.00195 -10.166 7.00195 -16.499s-2 -11.833 -6 -16.5c-10 -10.667 -22.167 -22.5 -36.5 -35.5s-35 -30.333 -62 -52s-55.333 -39.5 -85 -53.5s-56.667 -21 -81 -21s-45.166 7.33301 -62.499 22c-18 16.667 -29.167 38.5 -33.5 65.5
s-3 54.5 4 82.5s17.833 56 32.5 84c18.667 34.667 41.667 63.5 69 86.5s54.666 30.833 81.999 23.5c26.667 -7.33301 41.667 -21.333 45 -42c2 -14.667 -3.33301 -31.334 -16 -50.001s-30.167 -37.167 -52.5 -55.5s-42.833 -34 -61.5 -47l-58 -38.5
c-3.33301 -34 3.33398 -58.667 20.001 -74c10 -10 23.833 -13.333 41.5 -10s36.167 9.83301 55.5 19.5s39.666 22.334 60.999 38.001s40.666 31 57.999 46s32.666 29.5 45.999 43.5c4.66699 4.66699 10.167 7.16699 16.5 7.5s11.833 -1.83398 16.5 -6.50098zM85.002 190.001
c-6 -10.667 -11.333 -21.667 -16 -33c35.333 24.667 65 48 89 70s36 37.667 36 47c0 0.666992 -3.66699 1.66699 -11 3c-2 0.666992 -4 1 -6 1c-13.333 0 -28.5 -8.16699 -45.5 -24.5s-32.5 -37.5 -46.5 -63.5z" />
    <glyph glyph-name="e" unicode="&#xea;" horiz-adv-x="336" 
d="M367 154c4.66699 -4.66699 7.00195 -10.166 7.00195 -16.499s-2 -11.833 -6 -16.5c-10 -10.667 -22.167 -22.5 -36.5 -35.5s-35 -30.333 -62 -52s-55.333 -39.5 -85 -53.5s-56.667 -21 -81 -21s-45.166 7.33301 -62.499 22c-18 16.667 -29.167 38.5 -33.5 65.5
s-3 54.5 4 82.5s17.833 56 32.5 84c18.667 34.667 41.667 63.5 69 86.5s54.666 30.833 81.999 23.5c26.667 -7.33301 41.667 -21.333 45 -42c2 -14.667 -3.33301 -31.334 -16 -50.001s-30.167 -37.167 -52.5 -55.5s-42.833 -34 -61.5 -47l-58 -38.5
c-3.33301 -34 3.33398 -58.667 20.001 -74c10 -10 23.833 -13.333 41.5 -10s36.167 9.83301 55.5 19.5s39.666 22.334 60.999 38.001s40.666 31 57.999 46s32.666 29.5 45.999 43.5c4.66699 4.66699 10.167 7.16699 16.5 7.5s11.833 -1.83398 16.5 -6.50098zM85.002 190.001
c-6 -10.667 -11.333 -21.667 -16 -33c35.333 24.667 65 48 89 70s36 37.667 36 47c0 0.666992 -3.66699 1.66699 -11 3c-2 0.666992 -4 1 -6 1c-13.333 0 -28.5 -8.16699 -45.5 -24.5s-32.5 -37.5 -46.5 -63.5z" />
    <glyph glyph-name="e" unicode="&#xe9;" horiz-adv-x="336" 
d="M367 154c4.66699 -4.66699 7.00195 -10.166 7.00195 -16.499s-2 -11.833 -6 -16.5c-10 -10.667 -22.167 -22.5 -36.5 -35.5s-35 -30.333 -62 -52s-55.333 -39.5 -85 -53.5s-56.667 -21 -81 -21s-45.166 7.33301 -62.499 22c-18 16.667 -29.167 38.5 -33.5 65.5
s-3 54.5 4 82.5s17.833 56 32.5 84c18.667 34.667 41.667 63.5 69 86.5s54.666 30.833 81.999 23.5c26.667 -7.33301 41.667 -21.333 45 -42c2 -14.667 -3.33301 -31.334 -16 -50.001s-30.167 -37.167 -52.5 -55.5s-42.833 -34 -61.5 -47l-58 -38.5
c-3.33301 -34 3.33398 -58.667 20.001 -74c10 -10 23.833 -13.333 41.5 -10s36.167 9.83301 55.5 19.5s39.666 22.334 60.999 38.001s40.666 31 57.999 46s32.666 29.5 45.999 43.5c4.66699 4.66699 10.167 7.16699 16.5 7.5s11.833 -1.83398 16.5 -6.50098zM85.002 190.001
c-6 -10.667 -11.333 -21.667 -16 -33c35.333 24.667 65 48 89 70s36 37.667 36 47c0 0.666992 -3.66699 1.66699 -11 3c-2 0.666992 -4 1 -6 1c-13.333 0 -28.5 -8.16699 -45.5 -24.5s-32.5 -37.5 -46.5 -63.5z" />
    <glyph glyph-name="e" unicode="&#xe8;" horiz-adv-x="336" 
d="M367 154c4.66699 -4.66699 7.00195 -10.166 7.00195 -16.499s-2 -11.833 -6 -16.5c-10 -10.667 -22.167 -22.5 -36.5 -35.5s-35 -30.333 -62 -52s-55.333 -39.5 -85 -53.5s-56.667 -21 -81 -21s-45.166 7.33301 -62.499 22c-18 16.667 -29.167 38.5 -33.5 65.5
s-3 54.5 4 82.5s17.833 56 32.5 84c18.667 34.667 41.667 63.5 69 86.5s54.666 30.833 81.999 23.5c26.667 -7.33301 41.667 -21.333 45 -42c2 -14.667 -3.33301 -31.334 -16 -50.001s-30.167 -37.167 -52.5 -55.5s-42.833 -34 -61.5 -47l-58 -38.5
c-3.33301 -34 3.33398 -58.667 20.001 -74c10 -10 23.833 -13.333 41.5 -10s36.167 9.83301 55.5 19.5s39.666 22.334 60.999 38.001s40.666 31 57.999 46s32.666 29.5 45.999 43.5c4.66699 4.66699 10.167 7.16699 16.5 7.5s11.833 -1.83398 16.5 -6.50098zM85.002 190.001
c-6 -10.667 -11.333 -21.667 -16 -33c35.333 24.667 65 48 89 70s36 37.667 36 47c0 0.666992 -3.66699 1.66699 -11 3c-2 0.666992 -4 1 -6 1c-13.333 0 -28.5 -8.16699 -45.5 -24.5s-32.5 -37.5 -46.5 -63.5z" />
    <glyph glyph-name="f" unicode="f" horiz-adv-x="322" 
d="M348 120.5c4.66699 -4.33301 7 -9.83789 7 -16.5049s-2.33301 -12.334 -7 -17.001c-21.333 -20.667 -55.5 -34.834 -102.5 -42.501s-89.167 -7.5 -126.5 0.5c16 -48 25 -113.167 27 -195.5s-3 -152.833 -15 -211.5c-21.333 -123.333 -60 -190 -116 -200h-10
c-14 0 -26.667 5 -38 15c-13.333 13.333 -23.5 35.833 -30.5 67.5s-11 63.834 -12 96.501s-0.5 67.5 1.5 104.5s3.83301 63.833 5.5 80.5l3.5 35l8 42c4.66699 24.667 12.167 62.334 22.5 113.001s21.5 101 33.5 151c0 2.66699 0.333008 5 1 7
c17.333 73.333 34.833 141.833 52.5 205.5s37.667 128.167 60 193.5s46 120 71 164s49.5 72.333 73.5 85c20.667 10.667 41 11.334 61 2.00098c16.667 -8.66699 27.667 -23 33 -43c6 -25.333 0.5 -62.666 -16.5 -111.999s-38.333 -98.333 -64 -147
s-56.334 -102 -92.001 -160s-63.167 -101.167 -82.5 -129.5l-53 -77.5c-32 -135.333 -52.333 -235.333 -61 -300c-9.33301 -59.333 -12.833 -127.5 -10.5 -204.5s11.833 -123.5 28.5 -139.5c2 -2 4.33301 -3 7 -3c16 3.33301 31 19.333 45 48s25 67 33 115
c14.667 92 18.334 180 11.001 264s-20.333 136.333 -39 157c-4 2 -7.33301 4.66699 -10 8c-4 4 -6.33301 8.83301 -7 14.5s1 10.834 5 15.501c8 11.333 18 13.333 30 6c4 -2 7.66699 -4.66699 11 -8c13.333 -8 35.5 -13.333 66.5 -16s62.5 -1.16699 94.5 4.5
s54.667 15.167 68 28.5c4.66699 4.66699 10.167 6.83398 16.5 6.50098s11.833 -2.66602 16.5 -6.99902zM279 755.995c-57.333 -30 -125 -194.668 -203 -494.001c42.667 66.667 81.5 130.334 116.5 191.001s64 119 87 175s31.5 95.333 25.5 118c-1.33301 6 -4 10 -8 12
c-2.66699 1.33301 -5 2 -7 2c-3.33301 0 -7 -1.33301 -11 -4z" />
    <glyph glyph-name="g" unicode="g" horiz-adv-x="464" 
d="M499 127c0.666992 -3.33301 0.831055 -6.50293 0.498047 -9.50293s-1.16602 -5.83301 -2.49902 -8.5s-3.16602 -5 -5.49902 -7s-5.16602 -3.33301 -8.49902 -4c-42.667 -12.667 -84 -27.667 -124 -45c-7.33301 -72.667 -22.666 -142.834 -45.999 -210.501
s-51.166 -127 -83.499 -178s-65.833 -95.167 -100.5 -132.5s-69.334 -67 -104.001 -89c-42 -26.667 -79.333 -40 -112 -40c-20.667 0 -38 5.33301 -52 16c-22 12 -29.667 45 -23 99c4 32.667 12.667 67.667 26 105s33 77.166 59 119.499s56.5 83.333 91.5 123
s78 78.667 129 117s106.5 71.5 166.5 99.5c6 76 4.33301 148.667 -5 218c-0.666992 -0.666992 -1.33398 -2 -2.00098 -4l-3 -4c-74.667 -108.667 -134.5 -186 -179.5 -232s-82.167 -63 -111.5 -51c-16.667 7.33301 -26 21.666 -28 42.999
c-2.66699 25.333 5.33301 61.333 24 108s40.667 90 66 130s46.666 66 63.999 78c26 17.333 51.333 23.333 76 18c22 -4.66699 38.667 -16.334 50 -35.001c3.33301 -5.33301 4.33301 -11.166 3 -17.499s-4.83301 -11.166 -10.5 -14.499s-11.5 -4.16602 -17.5 -2.49902
s-10.667 5.16699 -14 10.5c-6 7.33301 -13 12 -21 14c-11.333 2 -24.666 -2 -39.999 -12c-16.667 -11.333 -37 -37.5 -61 -78.5s-43.5 -82 -58.5 -123s-19.5 -66.5 -13.5 -76.5c2.66699 -0.666992 5.66699 -0.5 9 0.5s8.16602 3.5 14.499 7.5s13.5 9.83301 21.5 17.5
s18.167 18.334 30.5 32.001s25.833 29.834 40.5 48.501l52 69.5l65 91.5c21.333 30.667 34.666 49.334 39.999 56.001c6 7.33301 13.833 9.83301 23.5 7.5s15.5 -8.16602 17.5 -17.499c18 -86.667 25 -172.667 21 -258c34.667 14 70.334 26.333 107.001 37
c6 1.33301 11.833 0.5 17.5 -2.5s9.5 -7.5 11.5 -13.5zM-0.00292969 -518.003c36 23.333 69.1689 50.8311 99.502 82.498s56.666 65.167 78.999 100.5s42 73.5 59 114.5s30.833 81.833 41.5 122.5s19 82.334 25 125.001c-72.667 -36.667 -137.667 -81.167 -195 -133.5
s-102.333 -104.166 -135 -155.499s-57.334 -103.333 -74.001 -156c-5.33301 -18 -9.5 -35 -12.5 -51s-4.5 -28.833 -4.5 -38.5s0.333008 -17.5 1 -23.5s2 -10 4 -12c10 -8 25 -9.66699 45 -5s42.333 14.667 67 30z" />
    <glyph glyph-name="h" unicode="h" horiz-adv-x="471" 
d="M490.5 46c5 -4 8 -9.1709 9 -15.5039s-0.5 -12.166 -4.5 -17.499c-9.33301 -12.667 -22.333 -24.667 -39 -36s-34.334 -17.666 -53.001 -18.999c-25.333 -2 -48 6.66699 -68 26c-8 8 -14.5 20.333 -19.5 37s-8.5 32 -10.5 46s-4 35 -6 63
c-6.66699 72.667 -14.667 113.334 -24 122.001c-18 -10.667 -59.667 -79 -125 -205c-39.333 -76 -67.833 -126.833 -85.5 -152.5s-34.167 -38.5 -49.5 -38.5h-4c-15.333 2 -25.333 12 -30 30c-9.33301 34 2.33398 120.667 35.001 260c0 3.33301 0.666992 6.33301 2 9
c12.667 54.667 27.667 111.667 45 171c22 78 45 150.167 69 216.5s47.333 123.666 70 171.999s44 85.166 64 110.499c25.333 32.667 50.333 49 75 49c22.667 0 38.667 -9 48 -27c10.667 -20.667 8.5 -56.167 -6.5 -106.5s-35.833 -102.666 -62.5 -156.999
s-59.167 -115 -97.5 -182s-69.333 -119.5 -93 -157.5l-67.5 -107c-12 -49.333 -21.333 -93.166 -28 -131.499s-10 -67.5 -10 -87.5c14.667 20.667 43 71 85 151c49.333 95.333 86.166 159.333 110.499 192s47.5 44.667 69.5 36c8.66699 -2.66699 16 -8 22 -16
s10.667 -16.167 14 -24.5s6.5 -20.5 9.5 -36.5s5 -29.167 6 -39.5l4.5 -46.5c6.66699 -69.333 14.334 -108.333 23.001 -117c9.33301 -9.33301 20 -13.666 32 -12.999c10.667 0.666992 21.5 5 32.5 13s19.5 16 25.5 24c4 5.33301 9.16699 8.5 15.5 9.5s12 -0.5 17 -4.5z
M303 795.996c-32.667 -42 -67.167 -110.002 -103.5 -204.002s-69.833 -196.667 -100.5 -308c52 84.667 98 164.334 138 239.001s70.5 139.834 91.5 195.501s27.5 91.167 19.5 106.5c-1.33301 1.33301 -4 2.33301 -8 3c-8.66699 0 -21 -10.667 -37 -32z" />
    <glyph glyph-name="i" unicode="i" horiz-adv-x="236" 
d="M287 198.5c5.33301 -3.66699 8.50195 -8.66699 9.50195 -15s-0.5 -12.166 -4.5 -17.499c-10.667 -14.667 -22.834 -30.334 -36.501 -47.001s-32.5 -37.5 -56.5 -62.5s-49.333 -45.333 -76 -61s-51 -23.5 -73 -23.5c-14 0 -27 3 -39 9
c-14.667 8.66699 -23.834 25.334 -27.501 50.001s-2.16699 53.334 4.5 86.001s13.667 61.667 21 87s15.666 50.666 24.999 75.999c2 6 5.83301 10.333 11.5 13s11.5 3 17.5 1c4 -1.33301 7.33301 -3.66602 10 -6.99902s4.33398 -6.83301 5.00098 -10.5
s0.333984 -7.83398 -0.999023 -12.501c-14 -38.667 -25.5 -76.834 -34.5 -114.501s-13.833 -66.834 -14.5 -87.501s1.33301 -34 6 -40c22 -12 55 0.833008 99 38.5s84.333 81.834 121 132.501c4 5.33301 9.16699 8.5 15.5 9.5s12.166 -0.333008 17.499 -4zM50.002 370
c-11.333 0 -18.668 5.33398 -22.001 16.001c-2.66699 6 -2.5 11.833 0.5 17.5s7.5 9.83398 13.5 12.501c1.33301 0 3.5 0.666992 6.5 2s6.16699 2.66602 9.5 3.99902s6.5 2.66602 9.5 3.99902l8 3.5l3.5 1.5l18 -44c-21.333 -8.66699 -34.666 -13.667 -39.999 -15
c-2 -1.33301 -4.33301 -2 -7 -2z" />
    <glyph glyph-name="i" unicode="&#xef;" horiz-adv-x="236" 
d="M287 198.5c5.33301 -3.66699 8.50195 -8.66699 9.50195 -15s-0.5 -12.166 -4.5 -17.499c-10.667 -14.667 -22.834 -30.334 -36.501 -47.001s-32.5 -37.5 -56.5 -62.5s-49.333 -45.333 -76 -61s-51 -23.5 -73 -23.5c-14 0 -27 3 -39 9
c-14.667 8.66699 -23.834 25.334 -27.501 50.001s-2.16699 53.334 4.5 86.001s13.667 61.667 21 87s15.666 50.666 24.999 75.999c2 6 5.83301 10.333 11.5 13s11.5 3 17.5 1c4 -1.33301 7.33301 -3.66602 10 -6.99902s4.33398 -6.83301 5.00098 -10.5
s0.333984 -7.83398 -0.999023 -12.501c-14 -38.667 -25.5 -76.834 -34.5 -114.501s-13.833 -66.834 -14.5 -87.501s1.33301 -34 6 -40c22 -12 55 0.833008 99 38.5s84.333 81.834 121 132.501c4 5.33301 9.16699 8.5 15.5 9.5s12.166 -0.333008 17.499 -4zM50.002 370
c-11.333 0 -18.668 5.33398 -22.001 16.001c-2.66699 6 -2.5 11.833 0.5 17.5s7.5 9.83398 13.5 12.501c1.33301 0 3.5 0.666992 6.5 2s6.16699 2.66602 9.5 3.99902s6.5 2.66602 9.5 3.99902l8 3.5l3.5 1.5l18 -44c-21.333 -8.66699 -34.666 -13.667 -39.999 -15
c-2 -1.33301 -4.33301 -2 -7 -2z" />
    <glyph glyph-name="i" unicode="&#xee;" horiz-adv-x="236" 
d="M287 198.5c5.33301 -3.66699 8.50195 -8.66699 9.50195 -15s-0.5 -12.166 -4.5 -17.499c-10.667 -14.667 -22.834 -30.334 -36.501 -47.001s-32.5 -37.5 -56.5 -62.5s-49.333 -45.333 -76 -61s-51 -23.5 -73 -23.5c-14 0 -27 3 -39 9
c-14.667 8.66699 -23.834 25.334 -27.501 50.001s-2.16699 53.334 4.5 86.001s13.667 61.667 21 87s15.666 50.666 24.999 75.999c2 6 5.83301 10.333 11.5 13s11.5 3 17.5 1c4 -1.33301 7.33301 -3.66602 10 -6.99902s4.33398 -6.83301 5.00098 -10.5
s0.333984 -7.83398 -0.999023 -12.501c-14 -38.667 -25.5 -76.834 -34.5 -114.501s-13.833 -66.834 -14.5 -87.501s1.33301 -34 6 -40c22 -12 55 0.833008 99 38.5s84.333 81.834 121 132.501c4 5.33301 9.16699 8.5 15.5 9.5s12.166 -0.333008 17.499 -4zM50.002 370
c-11.333 0 -18.668 5.33398 -22.001 16.001c-2.66699 6 -2.5 11.833 0.5 17.5s7.5 9.83398 13.5 12.501c1.33301 0 3.5 0.666992 6.5 2s6.16699 2.66602 9.5 3.99902s6.5 2.66602 9.5 3.99902l8 3.5l3.5 1.5l18 -44c-21.333 -8.66699 -34.666 -13.667 -39.999 -15
c-2 -1.33301 -4.33301 -2 -7 -2z" />
    <glyph glyph-name="i" unicode="&#xed;" horiz-adv-x="236" 
d="M287 198.5c5.33301 -3.66699 8.50195 -8.66699 9.50195 -15s-0.5 -12.166 -4.5 -17.499c-10.667 -14.667 -22.834 -30.334 -36.501 -47.001s-32.5 -37.5 -56.5 -62.5s-49.333 -45.333 -76 -61s-51 -23.5 -73 -23.5c-14 0 -27 3 -39 9
c-14.667 8.66699 -23.834 25.334 -27.501 50.001s-2.16699 53.334 4.5 86.001s13.667 61.667 21 87s15.666 50.666 24.999 75.999c2 6 5.83301 10.333 11.5 13s11.5 3 17.5 1c4 -1.33301 7.33301 -3.66602 10 -6.99902s4.33398 -6.83301 5.00098 -10.5
s0.333984 -7.83398 -0.999023 -12.501c-14 -38.667 -25.5 -76.834 -34.5 -114.501s-13.833 -66.834 -14.5 -87.501s1.33301 -34 6 -40c22 -12 55 0.833008 99 38.5s84.333 81.834 121 132.501c4 5.33301 9.16699 8.5 15.5 9.5s12.166 -0.333008 17.499 -4zM50.002 370
c-11.333 0 -18.668 5.33398 -22.001 16.001c-2.66699 6 -2.5 11.833 0.5 17.5s7.5 9.83398 13.5 12.501c1.33301 0 3.5 0.666992 6.5 2s6.16699 2.66602 9.5 3.99902s6.5 2.66602 9.5 3.99902l8 3.5l3.5 1.5l18 -44c-21.333 -8.66699 -34.666 -13.667 -39.999 -15
c-2 -1.33301 -4.33301 -2 -7 -2z" />
    <glyph glyph-name="i" unicode="&#xec;" horiz-adv-x="236" 
d="M287 198.5c5.33301 -3.66699 8.50195 -8.66699 9.50195 -15s-0.5 -12.166 -4.5 -17.499c-10.667 -14.667 -22.834 -30.334 -36.501 -47.001s-32.5 -37.5 -56.5 -62.5s-49.333 -45.333 -76 -61s-51 -23.5 -73 -23.5c-14 0 -27 3 -39 9
c-14.667 8.66699 -23.834 25.334 -27.501 50.001s-2.16699 53.334 4.5 86.001s13.667 61.667 21 87s15.666 50.666 24.999 75.999c2 6 5.83301 10.333 11.5 13s11.5 3 17.5 1c4 -1.33301 7.33301 -3.66602 10 -6.99902s4.33398 -6.83301 5.00098 -10.5
s0.333984 -7.83398 -0.999023 -12.501c-14 -38.667 -25.5 -76.834 -34.5 -114.501s-13.833 -66.834 -14.5 -87.501s1.33301 -34 6 -40c22 -12 55 0.833008 99 38.5s84.333 81.834 121 132.501c4 5.33301 9.16699 8.5 15.5 9.5s12.166 -0.333008 17.499 -4zM50.002 370
c-11.333 0 -18.668 5.33398 -22.001 16.001c-2.66699 6 -2.5 11.833 0.5 17.5s7.5 9.83398 13.5 12.501c1.33301 0 3.5 0.666992 6.5 2s6.16699 2.66602 9.5 3.99902s6.5 2.66602 9.5 3.99902l8 3.5l3.5 1.5l18 -44c-21.333 -8.66699 -34.666 -13.667 -39.999 -15
c-2 -1.33301 -4.33301 -2 -7 -2z" />
    <glyph glyph-name="j" unicode="j" horiz-adv-x="100" 
d="M109 77c6 -2 10.6738 -5.83594 14.0068 -11.5029s4.16602 -11.5 2.49902 -17.5s-5.33398 -10.667 -11.001 -14s-11.5 -4 -17.5 -2c-18.667 5.33301 -39.334 5.66602 -62.001 0.999023c-20.667 -131.333 -63.5 -255.5 -128.5 -372.5s-132.5 -202.833 -202.5 -257.5
c-45.333 -35.333 -87 -53 -125 -53c-14 0 -27.333 2.66699 -40 8c-1.33301 0.666992 -2.33301 1.33398 -3 2.00098c-52.667 33.333 -54 107 -4 221c19.333 43.333 45.666 90 78.999 140s70.5 98.5 111.5 145.5s85.667 89.167 134 126.5s94.166 63 137.499 77
c10 79.333 9.66699 155 -1 227c-0.666992 4 -0.333984 7.83301 0.999023 11.5s3.66602 6.83398 6.99902 9.50098s7 4.33398 11 5.00098c6.66699 0.666992 12.667 -0.833008 18 -4.5s8.33301 -8.5 9 -14.5c10.667 -71.333 11.667 -145.666 3 -222.999
c24 3.33301 46.333 2 67 -4zM-323.993 -560.003c64 50 126.167 128.501 186.5 235.501s101.5 221.167 123.5 342.5c-72.667 -31.333 -149.5 -93 -230.5 -185s-141.167 -182.333 -180.5 -271c-18 -40.667 -28.5 -75.334 -31.5 -104.001s2.16699 -47.667 15.5 -57
c29.333 -11.333 68.333 1.66699 117 39zM-8.99316 372.998c-11.333 0 -18.668 4.99902 -22.001 14.999c-1.33301 4.66699 -1.66602 8.83398 -0.999023 12.501s2.33398 7.16699 5.00098 10.5s6 5.66602 10 6.99902c0.666992 0.666992 2 1.33398 4 2.00098
s4.16699 1.5 6.5 2.5l7 3l7 3l6 2.5c1.66699 0.666992 3.16699 1.16699 4.5 1.5l2 0.5l18 -43l-39 -16c-2.66699 -0.666992 -5.33398 -1 -8.00098 -1z" />
    <glyph glyph-name="k" unicode="k" horiz-adv-x="414" 
d="M442 112.5c4.66699 -4.33301 6.99902 -9.66309 6.99902 -15.9961s-2.33301 -11.833 -7 -16.5c-34.667 -36 -80.667 -68.5 -138 -97.5s-111.666 -40.833 -162.999 -35.5c-42 4.66699 -77.333 22.334 -106 53.001c-8.66699 -30 -14 -58.667 -16 -86v-3v-1
c-2 -15.333 -9 -23.333 -21 -24h-3c-5.33301 0 -10.166 1.66699 -14.499 5s-7.16602 8 -8.49902 14c-0.666992 4.66699 -0.333984 13 0.999023 25c2 26 9 71.333 21 136s27 133.667 45 207c0.666992 2 1.33398 4.33301 2.00098 7c20 79.333 40.833 152.666 62.5 219.999
s47.167 132.5 76.5 195.5s58.666 108.833 87.999 137.5c28.667 28 57.667 41.667 87 41c18 0 30.667 -7.33301 38 -22c9.33301 -18.667 4.5 -52.334 -14.5 -101.001s-47.833 -105.167 -86.5 -169.5l-106.5 -171.5c-32.333 -50 -66.166 -99.667 -101.499 -149
c-8 -32.667 -15.667 -65.667 -23 -99c37.333 43.333 84 75.666 140 96.999c11.333 4.66699 23 8.66699 35 12c6.66699 1.33301 12.667 0.5 18 -2.5s9 -7.5 11 -13.5c0.666992 -4.66699 0.666992 -8.83398 0 -12.501s-2.5 -7 -5.5 -10s-6.5 -5.16699 -10.5 -6.5
c-8.66699 -2 -17 -4.66699 -25 -8c-77.333 -28 -134 -83.333 -170 -166c11.333 -17.333 24.666 -30.833 39.999 -40.5s32.666 -15.5 51.999 -17.5c44.667 -5.33301 92.5 5.66699 143.5 33s90.833 55.666 119.5 84.999c4.66699 4.66699 10.167 7 16.5 7
s11.833 -2.16699 16.5 -6.5zM300.999 800.003c-60 -59.333 -120.331 -194 -180.998 -404c44 66 83.667 128.5 119 187.5s63.666 110.833 84.999 155.5s30.666 74 27.999 88c-16 -0.666992 -33 -9.66699 -51 -27z" />
    <glyph glyph-name="l" unicode="l" horiz-adv-x="335" 
d="M363 22c5.33301 -3.33301 8.83203 -8.16699 10.499 -14.5s0.833984 -12.166 -2.49902 -17.499c-2 -4 -5.16699 -9.16699 -9.5 -15.5s-12.666 -16.333 -24.999 -30s-25.333 -25.834 -39 -36.501s-30.834 -20.334 -51.501 -29.001s-41.667 -13 -63 -13
c-10.667 0 -21.334 1 -32.001 3c-65.333 12.667 -110 56.5 -134 131.5s-25.333 174.5 -4 298.5c8.66699 51.333 21.334 105.5 38.001 162.5s36.334 112.5 59.001 166.5s46.667 102.333 72 145s52.166 76.167 80.499 100.5s55.5 34.5 81.5 30.5
c1.33301 0 2.66602 -0.333008 3.99902 -1c20 -6.66699 33.667 -20.667 41 -42c9.33301 -28.667 4.83301 -73 -13.5 -133s-42 -120 -71 -180s-63.833 -125.667 -104.5 -197s-71.5 -124 -92.5 -158l-56.5 -90c-1.33301 -2 -3 -3.66699 -5 -5c8 -108.667 46 -169.667 114 -183
c18.667 -3.33301 37.334 -2.16602 56.001 3.50098s34.334 13.167 47.001 22.5s24.834 20.166 36.501 32.499s19.5 21.333 23.5 27s6.66699 10.167 8 13.5c3.33301 5.33301 8.16602 8.83301 14.499 10.5s12.166 0.833984 17.499 -2.49902zM58.999 291.999
c-6.66699 -38 -10.999 -74.3359 -12.999 -109.003c54.667 86.667 105 172.334 151 257.001s84.5 166.334 115.5 245.001s41.833 132.334 32.5 161.001c-2 6 -5.33301 10.333 -10 13h-2c-18.667 0 -41.334 -16.667 -68.001 -50s-53 -76 -79 -128s-50.833 -113 -74.5 -183
s-41.167 -138.667 -52.5 -206z" />
    <glyph glyph-name="m" unicode="m" horiz-adv-x="566" 
d="M590 77.5c5.33301 -3.66699 8.50098 -8.67383 9.50098 -15.0068s-0.166992 -12.166 -3.5 -17.499c-2 -2.66699 -4.5 -5.66699 -7.5 -9s-7.5 -8 -13.5 -14s-13.333 -11.167 -22 -15.5s-17.334 -6.83301 -26.001 -7.5c-17.333 -2 -33.333 3.66699 -48 17
c-5.33301 4.66699 -9.5 12.334 -12.5 23.001s-6.5 28.334 -10.5 53.001c-8.66699 50.667 -16.334 80.334 -23.001 89.001c-6 -5.33301 -23.333 -28 -52 -68l-16.5 -24c-3.66699 -5.33301 -9 -12.666 -16 -21.999s-12.5 -16.166 -16.5 -20.499l-15.5 -16.5
c-6.33301 -6.66699 -12 -11.334 -17 -14.001s-10.333 -5 -16 -7s-11.167 -2.66699 -16.5 -2s-11 2.33398 -17 5.00098c-12 6.66699 -19.167 22.334 -21.5 47.001s-1.16602 61.667 3.50098 111c3.33301 56.667 4.33301 94 3 112c-16 -16.667 -48 -59 -96 -127l-72 -99.5
c-17.333 -23 -34.833 -43.667 -52.5 -62s-32.5 -29.5 -44.5 -33.5c-2.66699 -1.33301 -5.33398 -2 -8.00098 -2c-4.66699 0 -9 1.33301 -13 4c-6 4 -9.33301 10 -10 18c-2 21.333 6 57.333 24 108s33.333 90.167 46 118.5l35 76.5c3.33301 5.33301 8 9.16602 14 11.499
s11.833 2 17.5 -1s9.66699 -7.5 12 -13.5s1.83301 -12 -1.5 -18c-41.333 -86 -71.333 -159.333 -90 -220c22 25.333 57 72.333 105 141l69.5 94.5c15 19.667 28.5 34.834 40.5 45.501s22.667 16 32 16s17.333 -3.33301 24 -10c8.66699 -9.33301 13.667 -26.666 15 -51.999
s0 -62 -4 -110c-4 -60.667 -4.66699 -98 -2 -112c10 6.66699 32.333 35 67 85c23.333 32.667 41.333 55.667 54 69s25.334 20 38.001 20c8.66699 0 16.5 -2.66699 23.5 -8s12.5 -11.5 16.5 -18.5s8 -17.333 12 -31s6.83301 -24.834 8.5 -33.501s3.83398 -21.667 6.50098 -39
c4.66699 -28.667 8.33398 -45.667 11.001 -51c3.33301 -2.66699 6.33301 -3.66699 9 -3c11.333 1.33301 23.333 10.333 36 27c3.33301 5.33301 8.16602 8.5 14.499 9.5s12.166 -0.333008 17.499 -4z" />
    <glyph glyph-name="n" unicode="n" horiz-adv-x="343" 
d="M373.5 18c4.33301 -4.66699 6.50293 -10.165 6.50293 -16.498s-2.33301 -11.833 -7 -16.5c-22.667 -21.333 -45.667 -32 -69 -32c-11.333 0 -21.666 3.33301 -30.999 10c-9.33301 6 -16.833 16.5 -22.5 31.5s-9.33398 28.833 -11.001 41.5
s-3.83398 31.334 -6.50098 56.001c-4 44 -8.33301 70 -13 78c-16 -4.66699 -56.333 -46.334 -121 -125.001c-23.333 -28.667 -40.666 -49 -51.999 -61s-21 -19.833 -29 -23.5s-15.667 -2.83398 -23 2.49902s-10.666 12.333 -9.99902 21c4 41.333 27.667 148.333 71 321
c2 6 5.66699 10.667 11 14s11.166 4.33301 17.499 3s11.166 -4.83301 14.499 -10.5s4.33301 -11.5 3 -17.5c-21.333 -81.333 -40.333 -162 -57 -242l18 23c44 53.333 78 91 102 113s45.333 31.667 64 29c9.33301 -1.33301 17.166 -5 23.499 -11s11.166 -15.667 14.499 -29
s5.83301 -25 7.5 -35s3.5 -25.333 5.5 -46c5.33301 -58 11.666 -89.667 18.999 -95c4 -2.66699 10.333 -1.83398 19 2.49902s16.334 9.5 23.001 15.5c4 4 9.33301 6 16 6s12.167 -2.33301 16.5 -7z" />
    <glyph glyph-name="n" unicode="&#xf1;" horiz-adv-x="343" 
d="M373.5 18c4.33301 -4.66699 6.50293 -10.165 6.50293 -16.498s-2.33301 -11.833 -7 -16.5c-22.667 -21.333 -45.667 -32 -69 -32c-11.333 0 -21.666 3.33301 -30.999 10c-9.33301 6 -16.833 16.5 -22.5 31.5s-9.33398 28.833 -11.001 41.5
s-3.83398 31.334 -6.50098 56.001c-4 44 -8.33301 70 -13 78c-16 -4.66699 -56.333 -46.334 -121 -125.001c-23.333 -28.667 -40.666 -49 -51.999 -61s-21 -19.833 -29 -23.5s-15.667 -2.83398 -23 2.49902s-10.666 12.333 -9.99902 21c4 41.333 27.667 148.333 71 321
c2 6 5.66699 10.667 11 14s11.166 4.33301 17.499 3s11.166 -4.83301 14.499 -10.5s4.33301 -11.5 3 -17.5c-21.333 -81.333 -40.333 -162 -57 -242l18 23c44 53.333 78 91 102 113s45.333 31.667 64 29c9.33301 -1.33301 17.166 -5 23.499 -11s11.166 -15.667 14.499 -29
s5.83301 -25 7.5 -35s3.5 -25.333 5.5 -46c5.33301 -58 11.666 -89.667 18.999 -95c4 -2.66699 10.333 -1.83398 19 2.49902s16.334 9.5 23.001 15.5c4 4 9.33301 6 16 6s12.167 -2.33301 16.5 -7z" />
    <glyph glyph-name="o" unicode="o" horiz-adv-x="294" 
d="M352 282.5c4 -5 5.66992 -10.665 5.00293 -16.998s-3.33398 -11.5 -8.00098 -15.5c-39.333 -31.333 -89.333 -40 -150 -26c3.33301 -23.333 2.33301 -56 -3 -98c-2.66699 -19.333 -11.5 -44.333 -26.5 -75s-33.5 -52.667 -55.5 -66c-12.667 -8 -26 -12 -40 -12
c-8 0 -15.667 1.33301 -23 4c-46.667 16 -65 66 -55 150c0.666992 4.66699 1 7.66699 1 9c2 19.333 9 41.166 21 65.499s28.667 46.166 50 65.499s43.666 29 66.999 29c16 0 29.333 -5.33301 40 -16c61.333 -23.333 109.333 -21 144 7c5.33301 4 11.166 5.5 17.499 4.5
s11.5 -4 15.5 -9zM149.003 131.002c7.33301 56.667 6.66797 93.335 -1.99902 110.002c-6 2 -11.667 4.66699 -17 8c-18.667 -3.33301 -37.334 -18.333 -56.001 -45s-28.667 -50.667 -30 -72c-0.666992 -2 -1 -5.33301 -1 -10c-4 -20.667 -4.5 -41.5 -1.5 -62.5
s11.167 -33.833 24.5 -38.5c7.33301 -2.66699 15.333 -1.66699 24 3c9.33301 6.66699 18.833 17.667 28.5 33s17 29.666 22 42.999s7.83301 23.666 8.5 30.999z" />
    <glyph glyph-name="o" unicode="&#xf8;" horiz-adv-x="294" 
d="M352 282.5c4 -5 5.66992 -10.665 5.00293 -16.998s-3.33398 -11.5 -8.00098 -15.5c-39.333 -31.333 -89.333 -40 -150 -26c3.33301 -23.333 2.33301 -56 -3 -98c-2.66699 -19.333 -11.5 -44.333 -26.5 -75s-33.5 -52.667 -55.5 -66c-12.667 -8 -26 -12 -40 -12
c-8 0 -15.667 1.33301 -23 4c-46.667 16 -65 66 -55 150c0.666992 4.66699 1 7.66699 1 9c2 19.333 9 41.166 21 65.499s28.667 46.166 50 65.499s43.666 29 66.999 29c16 0 29.333 -5.33301 40 -16c61.333 -23.333 109.333 -21 144 7c5.33301 4 11.166 5.5 17.499 4.5
s11.5 -4 15.5 -9zM149.003 131.002c7.33301 56.667 6.66797 93.335 -1.99902 110.002c-6 2 -11.667 4.66699 -17 8c-18.667 -3.33301 -37.334 -18.333 -56.001 -45s-28.667 -50.667 -30 -72c-0.666992 -2 -1 -5.33301 -1 -10c-4 -20.667 -4.5 -41.5 -1.5 -62.5
s11.167 -33.833 24.5 -38.5c7.33301 -2.66699 15.333 -1.66699 24 3c9.33301 6.66699 18.833 17.667 28.5 33s17 29.666 22 42.999s7.83301 23.666 8.5 30.999z" />
    <glyph glyph-name="o" unicode="&#xf5;" horiz-adv-x="294" 
d="M352 282.5c4 -5 5.66992 -10.665 5.00293 -16.998s-3.33398 -11.5 -8.00098 -15.5c-39.333 -31.333 -89.333 -40 -150 -26c3.33301 -23.333 2.33301 -56 -3 -98c-2.66699 -19.333 -11.5 -44.333 -26.5 -75s-33.5 -52.667 -55.5 -66c-12.667 -8 -26 -12 -40 -12
c-8 0 -15.667 1.33301 -23 4c-46.667 16 -65 66 -55 150c0.666992 4.66699 1 7.66699 1 9c2 19.333 9 41.166 21 65.499s28.667 46.166 50 65.499s43.666 29 66.999 29c16 0 29.333 -5.33301 40 -16c61.333 -23.333 109.333 -21 144 7c5.33301 4 11.166 5.5 17.499 4.5
s11.5 -4 15.5 -9zM149.003 131.002c7.33301 56.667 6.66797 93.335 -1.99902 110.002c-6 2 -11.667 4.66699 -17 8c-18.667 -3.33301 -37.334 -18.333 -56.001 -45s-28.667 -50.667 -30 -72c-0.666992 -2 -1 -5.33301 -1 -10c-4 -20.667 -4.5 -41.5 -1.5 -62.5
s11.167 -33.833 24.5 -38.5c7.33301 -2.66699 15.333 -1.66699 24 3c9.33301 6.66699 18.833 17.667 28.5 33s17 29.666 22 42.999s7.83301 23.666 8.5 30.999z" />
    <glyph glyph-name="o" unicode="&#xf4;" horiz-adv-x="294" 
d="M352 282.5c4 -5 5.66992 -10.665 5.00293 -16.998s-3.33398 -11.5 -8.00098 -15.5c-39.333 -31.333 -89.333 -40 -150 -26c3.33301 -23.333 2.33301 -56 -3 -98c-2.66699 -19.333 -11.5 -44.333 -26.5 -75s-33.5 -52.667 -55.5 -66c-12.667 -8 -26 -12 -40 -12
c-8 0 -15.667 1.33301 -23 4c-46.667 16 -65 66 -55 150c0.666992 4.66699 1 7.66699 1 9c2 19.333 9 41.166 21 65.499s28.667 46.166 50 65.499s43.666 29 66.999 29c16 0 29.333 -5.33301 40 -16c61.333 -23.333 109.333 -21 144 7c5.33301 4 11.166 5.5 17.499 4.5
s11.5 -4 15.5 -9zM149.003 131.002c7.33301 56.667 6.66797 93.335 -1.99902 110.002c-6 2 -11.667 4.66699 -17 8c-18.667 -3.33301 -37.334 -18.333 -56.001 -45s-28.667 -50.667 -30 -72c-0.666992 -2 -1 -5.33301 -1 -10c-4 -20.667 -4.5 -41.5 -1.5 -62.5
s11.167 -33.833 24.5 -38.5c7.33301 -2.66699 15.333 -1.66699 24 3c9.33301 6.66699 18.833 17.667 28.5 33s17 29.666 22 42.999s7.83301 23.666 8.5 30.999z" />
    <glyph glyph-name="o" unicode="&#xf3;" horiz-adv-x="294" 
d="M352 282.5c4 -5 5.66992 -10.665 5.00293 -16.998s-3.33398 -11.5 -8.00098 -15.5c-39.333 -31.333 -89.333 -40 -150 -26c3.33301 -23.333 2.33301 -56 -3 -98c-2.66699 -19.333 -11.5 -44.333 -26.5 -75s-33.5 -52.667 -55.5 -66c-12.667 -8 -26 -12 -40 -12
c-8 0 -15.667 1.33301 -23 4c-46.667 16 -65 66 -55 150c0.666992 4.66699 1 7.66699 1 9c2 19.333 9 41.166 21 65.499s28.667 46.166 50 65.499s43.666 29 66.999 29c16 0 29.333 -5.33301 40 -16c61.333 -23.333 109.333 -21 144 7c5.33301 4 11.166 5.5 17.499 4.5
s11.5 -4 15.5 -9zM149.003 131.002c7.33301 56.667 6.66797 93.335 -1.99902 110.002c-6 2 -11.667 4.66699 -17 8c-18.667 -3.33301 -37.334 -18.333 -56.001 -45s-28.667 -50.667 -30 -72c-0.666992 -2 -1 -5.33301 -1 -10c-4 -20.667 -4.5 -41.5 -1.5 -62.5
s11.167 -33.833 24.5 -38.5c7.33301 -2.66699 15.333 -1.66699 24 3c9.33301 6.66699 18.833 17.667 28.5 33s17 29.666 22 42.999s7.83301 23.666 8.5 30.999z" />
    <glyph glyph-name="o" unicode="&#xf2;" horiz-adv-x="294" 
d="M352 282.5c4 -5 5.66992 -10.665 5.00293 -16.998s-3.33398 -11.5 -8.00098 -15.5c-39.333 -31.333 -89.333 -40 -150 -26c3.33301 -23.333 2.33301 -56 -3 -98c-2.66699 -19.333 -11.5 -44.333 -26.5 -75s-33.5 -52.667 -55.5 -66c-12.667 -8 -26 -12 -40 -12
c-8 0 -15.667 1.33301 -23 4c-46.667 16 -65 66 -55 150c0.666992 4.66699 1 7.66699 1 9c2 19.333 9 41.166 21 65.499s28.667 46.166 50 65.499s43.666 29 66.999 29c16 0 29.333 -5.33301 40 -16c61.333 -23.333 109.333 -21 144 7c5.33301 4 11.166 5.5 17.499 4.5
s11.5 -4 15.5 -9zM149.003 131.002c7.33301 56.667 6.66797 93.335 -1.99902 110.002c-6 2 -11.667 4.66699 -17 8c-18.667 -3.33301 -37.334 -18.333 -56.001 -45s-28.667 -50.667 -30 -72c-0.666992 -2 -1 -5.33301 -1 -10c-4 -20.667 -4.5 -41.5 -1.5 -62.5
s11.167 -33.833 24.5 -38.5c7.33301 -2.66699 15.333 -1.66699 24 3c9.33301 6.66699 18.833 17.667 28.5 33s17 29.666 22 42.999s7.83301 23.666 8.5 30.999z" />
    <glyph glyph-name="p" unicode="p" horiz-adv-x="443" 
d="M455 339c4 0 7.83301 -0.833008 11.5 -2.5s6.83398 -4.16699 9.50098 -7.5s4.16699 -7.16602 4.5 -11.499s-0.333984 -8.33301 -2.00098 -12s-4.33398 -6.66699 -8.00098 -9s-7.5 -3.83301 -11.5 -4.5c-41.333 -3.33301 -87.666 -27 -138.999 -71
c-6.66699 -29.333 -18.667 -63.333 -36 -102s-30.833 -66.667 -40.5 -84s-16.834 -29.666 -21.501 -36.999c-23.333 -38 -43.5 -63.833 -60.5 -77.5s-32.167 -16.5 -45.5 -8.5c-20 10.667 -26.667 32.334 -20 65.001c7.33301 35.333 28.166 78.833 62.499 130.5
s73.833 97.5 118.5 137.5c1.33301 6 2.33301 11.667 3 17c2 19.333 0.333008 30.666 -5 33.999c-11.333 8.66699 -25 11 -41 7c-29.333 -6.66699 -61.666 -29.834 -96.999 -69.501s-62.666 -76.5 -81.999 -110.5c-18 -32 -46 -132.5 -84 -301.5s-61 -288.833 -69 -359.5
c-0.666992 -5.33301 -3.16699 -10 -7.5 -14s-9.5 -6 -15.5 -6c-3.33301 0 -6.33301 0.5 -9 1.5s-5 2.33301 -7 4s-3.66699 3.66699 -5 6s-2 4.83301 -2 7.5c-4 24.667 9.16699 120 39.5 286s57.833 302.333 82.5 409l48 209c2 6 5.66699 10.667 11 14
s11.166 4.33301 17.499 3s11.166 -4.83301 14.499 -10.5s4.33301 -11.5 3 -17.5c-1.33301 -2.66699 -15.666 -64.334 -42.999 -185.001c10 16 21 31.667 33 47s26.833 33 44.5 53s36.834 37.167 57.501 51.5s40.667 23.833 60 28.5c28.667 6.66699 54.667 2 78 -14
c14.667 -10 23 -26.667 25 -50c46 32.667 88.667 50.667 128 54zM141 -35c14 14.667 30.833 39 50.5 73s37.167 69 52.5 105c-22.667 -28 -43 -56.667 -61 -86c-23.333 -38 -37.333 -68.667 -42 -92z" />
    <glyph glyph-name="q" unicode="q" horiz-adv-x="328" 
d="M355.5 187c5.66699 -3.33301 9.33301 -8.16699 11 -14.5s0.833984 -12.166 -2.49902 -17.499c-12.667 -22 -34.167 -43.167 -64.5 -63.5s-57.666 -35.5 -81.999 -45.5s-48.833 -19 -73.5 -27c43.333 -88.667 64.333 -169 63 -241
c-0.666992 -45.333 -4.83398 -88.166 -12.501 -128.499s-17.5 -74.666 -29.5 -102.999s-25.667 -52.833 -41 -73.5s-30.666 -35.834 -45.999 -45.501s-30 -14.5 -44 -14.5h-4c-24 4 -43.667 17.667 -59 41c-14 22.667 -23 53.667 -27 93s-3.83301 79.666 0.5 120.999
s12.166 80.333 23.499 117c10 36 53 156 129 360c-66 -86.667 -113.667 -130.334 -143 -131.001c-14 0 -24.667 5.33301 -32 16c-12 18.667 -14.5 43.5 -7.5 74.5s18.833 62.833 35.5 95.5s33.5 61.5 50.5 86.5s29.5 40.833 37.5 47.5c30.667 24 57.667 32.667 81 26
c17.333 -5.33301 29.333 -16.666 36 -33.999c2 -5.33301 2 -10.666 0 -15.999c3.33301 6 7 12 11 18c3.33301 5.33301 7.83301 8.66602 13.5 9.99902s11.167 0.666016 16.5 -2.00098s9.16602 -6.66699 11.499 -12s2.5 -11 0.5 -17
c-59.333 -157.333 -90.333 -240.333 -93 -249c40 12 81 28.667 123 50s70.667 44.666 86 69.999c2.66699 6 7.16699 9.83301 13.5 11.5s12.333 0.833984 18 -2.49902zM-42.001 62.999c15.333 7.33301 41.5 34.3311 78.5 80.998s74.5 99.334 112.5 158.001
c-2 -2.66699 -4.66699 -4.66699 -8 -6c-6 -2 -11.833 -1.66699 -17.5 1s-9.83398 7 -12.501 13c-1.33301 2.66699 -3 4.33398 -5 5.00098h-3c-8.66699 0 -20.667 -6 -36 -18c-17.333 -13.333 -41.166 -50.5 -71.499 -111.5s-42.833 -101.833 -37.5 -122.5zM160.999 -221.003
c0.666992 67.333 -21.002 143.666 -65.002 228.999c-48 -131.333 -76 -210 -84 -236c-14.667 -52 -22.667 -106 -24 -162s6.33398 -99.667 23.001 -131c6.66699 -10.667 14.667 -17 24 -19c8 0.666992 16.833 5 26.5 13s20.334 20.833 32.001 38.5
s22.167 38.334 31.5 62.001s17.5 53.5 24.5 89.5s10.833 74.667 11.5 116z" />
    <glyph glyph-name="r" unicode="r" horiz-adv-x="286" 
d="M243 295c6.66699 -0.666992 12.0029 -3.49902 16.0029 -8.49902s5.66699 -10.667 5 -17s-3.66699 -11.5 -9 -15.5s-11 -5.66699 -17 -5c-30.667 4 -61.5 -9.5 -92.5 -40.5s-58 -70.667 -81 -119s-42.833 -101.5 -59.5 -159.5
c-2.66699 -10.667 -9.33398 -16.334 -20.001 -17.001c-0.666992 -0.666992 -1.33398 -1 -2.00098 -1c-10 0 -17 4.33301 -21 13c-16 32.667 11.333 189.667 82 471c1.33301 6 4.83301 10.667 10.5 14s11.5 4.16602 17.5 2.49902s10.667 -5.16699 14 -10.5
s4.33301 -11.333 3 -18c-23.333 -94 -43.333 -181.333 -60 -262c29.333 57.333 62.166 101.833 98.499 133.5s74.833 44.834 115.5 39.501z" />
    <glyph glyph-name="s" unicode="s" horiz-adv-x="236" 
d="M273.5 139c3 -6 3.49902 -11.999 1.49902 -17.999s-6 -10.333 -12 -13c-5.33301 -2.66699 -17.333 -8.33398 -36 -17.001c-29.333 -13.333 -54.666 -25.333 -75.999 -36c22.667 -50.667 21 -95 -5 -133c-24.667 -36 -56.667 -65.167 -96 -87.5
s-74.666 -33.5 -105.999 -33.5c-8.66699 0 -16.334 1 -23.001 3c-27.333 6.66699 -42.333 23.667 -45 51c-7.33301 67.333 62.667 140.333 210 219c-9.33301 14 -22.333 31.667 -39 53c-8.66699 11.333 -15 19.833 -19 25.5s-8.66699 12.667 -14 21
s-9.33301 15.666 -12 21.999s-4 12.5 -4 18.5c-1.33301 16.667 0.5 32.5 5.5 47.5s11.5 27.833 19.5 38.5s18 20.834 30 30.501s23.167 17.334 33.5 23.001s21 10.834 32 15.501s18.833 7.66699 23.5 9s8.66699 2.66602 12 3.99902c6 1.33301 11.833 0.5 17.5 -2.5
s9.33398 -7.66699 11.001 -14s0.833984 -12.333 -2.49902 -18s-8 -9.16699 -14 -10.5c-2.66699 -0.666992 -7.33398 -2.16699 -14.001 -4.5s-16.834 -7 -30.501 -14s-26.167 -14.833 -37.5 -23.5s-21.166 -19.834 -29.499 -33.501s-11.833 -28.167 -10.5 -43.5
c0.666992 -7.33301 14 -28 40 -62c20 -26 34.667 -46 44 -60l79 37c18 8.66699 29.667 14 35 16c5.33301 3.33301 11.166 4 17.499 2s11 -6 14 -12zM107.999 -50.999c15.333 22.667 15.666 50.668 0.999023 84.001c-129.333 -69.333 -191.666 -127 -186.999 -173
c0.666992 -5.33301 4 -9 10 -11c20 -5.33301 48.5 1.66699 85.5 21s67.167 45.666 90.5 78.999z" />
    <glyph glyph-name="t" unicode="t" horiz-adv-x="200" 
d="M562 519.5c6 -2.33301 10.1719 -6.3291 12.5049 -11.9961s2.16602 -11.5 -0.500977 -17.5c-10 -25.333 -43 -46.833 -99 -64.5s-127 -22.834 -213 -15.501c-28.667 2.66699 -56.667 5 -84 7c-34.667 -70.667 -75.667 -148.334 -123 -233.001
c-10 -55.333 -13 -111.666 -9 -168.999s13.667 -92.333 29 -105c6 -5.33301 12.667 -7.33301 20 -6c14 1.33301 29 9.83301 45 25.5s28.667 30.167 38 43.5c3.33301 5.33301 8.16602 8.66602 14.499 9.99902s12.166 0.166016 17.499 -3.50098s8.66602 -8.66699 9.99902 -15
s0.333008 -12.166 -3 -17.499c-3.33301 -4.66699 -7.66602 -10.334 -12.999 -17.001s-13.5 -15.834 -24.5 -27.501s-23.333 -21.667 -37 -30s-27.5 -13.5 -41.5 -15.5h-9c-18 0 -34 6 -48 18c-17.333 15.333 -29.833 43.833 -37.5 85.5s-10.667 83 -9 124
s5.5 78.167 11.5 111.5c0 0.666992 0.333008 1 1 1c14 68 32 143.667 54 227c-179.333 8.66699 -282 0.666992 -308 -24c-4 -4 -9.33301 -6 -16 -6s-12.334 2.33301 -17.001 7c-4 4.66699 -6 10.167 -6 16.5s2.33301 11.833 7 16.5c36 34 153.667 46 353 36
c57.333 204 109.333 321.667 156 353c14 8.66699 28 11.5 42 8.5s24 -11.5 30 -25.5c2 -3.33301 3.33301 -8.16602 4 -14.499s-0.166016 -18.333 -2.49902 -36s-6.66602 -38.167 -12.999 -61.5s-17.5 -55.333 -33.5 -96s-36 -86 -60 -136
c21.333 -1.33301 43.666 -3 66.999 -5c28.667 -2.66699 55 -3.66699 79 -3s45.667 2.5 65 5.5s36.166 6.66699 50.499 11s26.5 8.83301 36.5 13.5s17.667 9 23 13s8.66602 7.66699 9.99902 11c2.66699 5.33301 7 9.16602 13 11.499s12 2.33301 18 0zM259.005 784.004
c-36 -24 -80.999 -129.331 -134.999 -315.998c5.33301 -0.666992 13.666 -1.33398 24.999 -2.00098c40.667 84 71.667 155.167 93 213.5s28.333 94.166 21 107.499c0 -0.666992 -1.33301 -1.66699 -4 -3zM94.0059 355.006l33 66h-5h-6h-5c-6 -22 -11.667 -44 -17 -66z" />
    <glyph glyph-name="u" unicode="u" horiz-adv-x="407" 
d="M434.5 184.5c5 -4.33301 7.83398 -9.66797 8.50098 -16.001s-1 -11.833 -5 -16.5c-3.33301 -4.66699 -7.16602 -9.5 -11.499 -14.5l-18 -20c-7.66699 -8.33301 -15.5 -16.166 -23.5 -23.499l-27.5 -24.5c-10.333 -9 -20.333 -17 -30 -24s-20.167 -13.5 -31.5 -19.5
s-22 -10.5 -32 -13.5s-20.333 -4.33301 -31 -4s-20.667 2.5 -30 6.5c-24.667 12 -33 47.667 -25 107c-56 -83.333 -104 -125 -144 -125c-6 0 -11.333 0.666992 -16 2c-16 5.33301 -27.333 16 -34 32c-4.66699 10 -7 22.833 -7 38.5s1.83301 32.167 5.5 49.5
s8 34.166 13 50.499s10.833 32.666 17.5 48.999l16 38.5l11 25c2.66699 6 7 10 13 12s12 1.66699 18 -1s10 -7 12 -13s1.66699 -12 -1 -18c-18.667 -39.333 -34.334 -80.666 -47.001 -123.999s-15.334 -73 -8.00098 -89
c0.666992 -2.66699 2.33398 -4.33398 5.00098 -5.00098c17.333 -5.33301 46.166 19.834 86.499 75.501s77.5 119.167 111.5 190.5c2.66699 6 7 10 13 12s11.833 1.83301 17.5 -0.5s9.83398 -6.33301 12.501 -12s2.66699 -11.5 0 -17.5
c-19.333 -54 -33.833 -104.667 -43.5 -152s-11.167 -75.333 -4.5 -84c11.333 -5.33301 28.166 -1.5 50.499 11.5s44.5 29.833 66.5 50.5s42 41.667 60 63c4 5.33301 9.16699 8.33301 15.5 9s12 -1.16602 17 -5.49902z" />
    <glyph glyph-name="u" unicode="&#xfb;" horiz-adv-x="407" 
d="M434.5 184.5c5 -4.33301 7.83398 -9.66797 8.50098 -16.001s-1 -11.833 -5 -16.5c-3.33301 -4.66699 -7.16602 -9.5 -11.499 -14.5l-18 -20c-7.66699 -8.33301 -15.5 -16.166 -23.5 -23.499l-27.5 -24.5c-10.333 -9 -20.333 -17 -30 -24s-20.167 -13.5 -31.5 -19.5
s-22 -10.5 -32 -13.5s-20.333 -4.33301 -31 -4s-20.667 2.5 -30 6.5c-24.667 12 -33 47.667 -25 107c-56 -83.333 -104 -125 -144 -125c-6 0 -11.333 0.666992 -16 2c-16 5.33301 -27.333 16 -34 32c-4.66699 10 -7 22.833 -7 38.5s1.83301 32.167 5.5 49.5
s8 34.166 13 50.499s10.833 32.666 17.5 48.999l16 38.5l11 25c2.66699 6 7 10 13 12s12 1.66699 18 -1s10 -7 12 -13s1.66699 -12 -1 -18c-18.667 -39.333 -34.334 -80.666 -47.001 -123.999s-15.334 -73 -8.00098 -89
c0.666992 -2.66699 2.33398 -4.33398 5.00098 -5.00098c17.333 -5.33301 46.166 19.834 86.499 75.501s77.5 119.167 111.5 190.5c2.66699 6 7 10 13 12s11.833 1.83301 17.5 -0.5s9.83398 -6.33301 12.501 -12s2.66699 -11.5 0 -17.5
c-19.333 -54 -33.833 -104.667 -43.5 -152s-11.167 -75.333 -4.5 -84c11.333 -5.33301 28.166 -1.5 50.499 11.5s44.5 29.833 66.5 50.5s42 41.667 60 63c4 5.33301 9.16699 8.33301 15.5 9s12 -1.16602 17 -5.49902z" />
    <glyph glyph-name="u" unicode="&#xfa;" horiz-adv-x="407" 
d="M434.5 184.5c5 -4.33301 7.83398 -9.66797 8.50098 -16.001s-1 -11.833 -5 -16.5c-3.33301 -4.66699 -7.16602 -9.5 -11.499 -14.5l-18 -20c-7.66699 -8.33301 -15.5 -16.166 -23.5 -23.499l-27.5 -24.5c-10.333 -9 -20.333 -17 -30 -24s-20.167 -13.5 -31.5 -19.5
s-22 -10.5 -32 -13.5s-20.333 -4.33301 -31 -4s-20.667 2.5 -30 6.5c-24.667 12 -33 47.667 -25 107c-56 -83.333 -104 -125 -144 -125c-6 0 -11.333 0.666992 -16 2c-16 5.33301 -27.333 16 -34 32c-4.66699 10 -7 22.833 -7 38.5s1.83301 32.167 5.5 49.5
s8 34.166 13 50.499s10.833 32.666 17.5 48.999l16 38.5l11 25c2.66699 6 7 10 13 12s12 1.66699 18 -1s10 -7 12 -13s1.66699 -12 -1 -18c-18.667 -39.333 -34.334 -80.666 -47.001 -123.999s-15.334 -73 -8.00098 -89
c0.666992 -2.66699 2.33398 -4.33398 5.00098 -5.00098c17.333 -5.33301 46.166 19.834 86.499 75.501s77.5 119.167 111.5 190.5c2.66699 6 7 10 13 12s11.833 1.83301 17.5 -0.5s9.83398 -6.33301 12.501 -12s2.66699 -11.5 0 -17.5
c-19.333 -54 -33.833 -104.667 -43.5 -152s-11.167 -75.333 -4.5 -84c11.333 -5.33301 28.166 -1.5 50.499 11.5s44.5 29.833 66.5 50.5s42 41.667 60 63c4 5.33301 9.16699 8.33301 15.5 9s12 -1.16602 17 -5.49902z" />
    <glyph glyph-name="u" unicode="&#xf9;" horiz-adv-x="407" 
d="M434.5 184.5c5 -4.33301 7.83398 -9.66797 8.50098 -16.001s-1 -11.833 -5 -16.5c-3.33301 -4.66699 -7.16602 -9.5 -11.499 -14.5l-18 -20c-7.66699 -8.33301 -15.5 -16.166 -23.5 -23.499l-27.5 -24.5c-10.333 -9 -20.333 -17 -30 -24s-20.167 -13.5 -31.5 -19.5
s-22 -10.5 -32 -13.5s-20.333 -4.33301 -31 -4s-20.667 2.5 -30 6.5c-24.667 12 -33 47.667 -25 107c-56 -83.333 -104 -125 -144 -125c-6 0 -11.333 0.666992 -16 2c-16 5.33301 -27.333 16 -34 32c-4.66699 10 -7 22.833 -7 38.5s1.83301 32.167 5.5 49.5
s8 34.166 13 50.499s10.833 32.666 17.5 48.999l16 38.5l11 25c2.66699 6 7 10 13 12s12 1.66699 18 -1s10 -7 12 -13s1.66699 -12 -1 -18c-18.667 -39.333 -34.334 -80.666 -47.001 -123.999s-15.334 -73 -8.00098 -89
c0.666992 -2.66699 2.33398 -4.33398 5.00098 -5.00098c17.333 -5.33301 46.166 19.834 86.499 75.501s77.5 119.167 111.5 190.5c2.66699 6 7 10 13 12s11.833 1.83301 17.5 -0.5s9.83398 -6.33301 12.501 -12s2.66699 -11.5 0 -17.5
c-19.333 -54 -33.833 -104.667 -43.5 -152s-11.167 -75.333 -4.5 -84c11.333 -5.33301 28.166 -1.5 50.499 11.5s44.5 29.833 66.5 50.5s42 41.667 60 63c4 5.33301 9.16699 8.33301 15.5 9s12 -1.16602 17 -5.49902z" />
    <glyph glyph-name="v" unicode="v" horiz-adv-x="387" 
d="M442 187.5c4.66699 -4.33301 7.16797 -9.66797 7.50098 -16.001s-1.5 -11.833 -5.5 -16.5c-1.33301 -2 -3.33301 -4.16699 -6 -6.5s-8.16699 -5.83301 -16.5 -10.5s-17 -8.33398 -26 -11.001s-20.667 -3.66699 -35 -3s-28.833 4 -43.5 10
c-34.667 14 -57.334 48.667 -68.001 104c-92 -154 -161 -232.667 -207 -236h-3c-15.333 0 -27.666 6.33301 -36.999 19c-10.667 14.667 -16.167 37.5 -16.5 68.5s3.5 64.833 11.5 101.5s15.167 66.334 21.5 89.001s12.5 43 18.5 61c2 6 5.83301 10.5 11.5 13.5
s11.667 3.5 18 1.5s10.833 -5.83301 13.5 -11.5s3 -11.5 1 -17.5c-19.333 -59.333 -33.333 -115.833 -42 -169.5s-8.33398 -89.834 0.999023 -108.501c14 0 41.667 27.833 83 83.5s82 120.5 122 194.5c6 10.667 15 14.334 27 11.001s17.667 -11 17 -23
c-0.666992 -24.667 2.33301 -52 9 -82s18.667 -48.333 36 -55c6.66699 -2.66699 13 -4.66699 19 -6s11.333 -1.83301 16 -1.5s9.16699 1 13.5 2s8 2.16699 11 3.5s5.66699 2.83301 8 4.5l5 3.5c1 0.666992 1.83301 1.33398 2.5 2.00098
c4.66699 4.66699 10.167 7.16699 16.5 7.5s11.833 -1.66699 16.5 -6z" />
    <glyph glyph-name="w" unicode="w" horiz-adv-x="486" 
d="M448 274c6.66699 -1.33301 11.998 -4.49805 15.998 -9.49805s5.66699 -10.5 5 -16.5c-3.33301 -28 -23.666 -70.333 -60.999 -127s-72.333 -92.667 -105 -108c-22.667 -10.667 -42.667 -10.334 -60 0.999023c-32.667 20.667 -44 71 -34 151
c-53.333 -72 -97.166 -123.167 -131.499 -153.5s-61.833 -45.5 -82.5 -45.5c-6.66699 0 -13 2 -19 6c-14.667 9.33301 -22.5 26.833 -23.5 52.5s4 56.334 15 92.001s22.5 68.667 34.5 99s26 61.833 42 94.5c2.66699 6 7 10 13 12s12 1.66699 18 -1s10 -7 12 -13
s1.66699 -12 -1 -18c-29.333 -62 -52.5 -120.833 -69.5 -176.5s-22.167 -89.5 -15.5 -101.5c16 3.33301 47 31.666 93 84.999s93.333 116 142 188c7.33301 11.333 17 14 29 8c5.33301 -2 9.16602 -5.66699 11.499 -11s2.83301 -10.666 1.5 -15.999
c-8 -27.333 -14.5 -55.833 -19.5 -85.5s-7 -56.834 -6 -81.501s6.16699 -40 15.5 -46c2.66699 -2 7.66699 -1.33301 15 2c25.333 12 54.333 43.167 87 93.5s50.334 85.166 53.001 104.499c0.666992 6.66699 3.5 12 8.5 16s10.5 5.66699 16.5 5z" />
    <glyph glyph-name="x" unicode="x" horiz-adv-x="414" 
d="M458 214c5.33301 -4 8.33496 -9.16895 9.00195 -15.502s-1 -12.166 -5 -17.499c-6 -6.66699 -12.667 -14.5 -20 -23.5s-19.166 -22.333 -35.499 -40s-33.333 -34.167 -51 -49.5s-36.667 -30.5 -57 -45.5s-41.166 -27 -62.499 -36s-41.333 -13.5 -60 -13.5
c-6 0 -12 0.333008 -18 1c-33.333 6 -61 29.667 -83 71c-34 -46.667 -59.667 -87.667 -77 -123c-4 -8.66699 -11 -13 -21 -13c-3.33301 0 -6.66602 0.666992 -9.99902 2c-6 2.66699 -10 7 -12 13s-1.66699 12 1 18c20 41.333 52.667 92.333 98 153
c-18.667 56.667 -29 120.334 -31 191.001c0 6.66699 2.16699 12.334 6.5 17.001s9.83301 7 16.5 7c2.66699 0 5.5 -0.666992 8.5 -2s5.66699 -3 8 -5s4 -4.33301 5 -7s1.83301 -5.66699 2.5 -9c1.33301 -48.667 7.66602 -97.334 18.999 -146.001
c33.333 42 64.333 77.833 93 107.5s47.667 45.167 57 46.5c8 2 15 0 21 -6c4.66699 -4.66699 7 -10.167 7 -16.5s-2 -11.833 -6 -16.5c-2.66699 -2.66699 -6 -4.66699 -10 -6c-4.66699 -3.33301 -11.834 -10 -21.501 -20l-33.5 -36l-43 -49.5
c-16 -19 -31.333 -38.167 -46 -57.5c16 -40.667 35.667 -63 59 -67c22 -3.33301 50.167 5.66699 84.5 27s66.166 46.5 95.499 75.5s55.666 58.167 78.999 87.5c4 5.33301 9.16699 8.33301 15.5 9s12.166 -1 17.499 -5z" />
    <glyph glyph-name="y" unicode="y" horiz-adv-x="422" 
d="M453 143c1.33301 -4.66699 1.66602 -8.83496 0.999023 -12.502s-2.33398 -7.16699 -5.00098 -10.5s-6 -5.66602 -10 -6.99902c-33.333 -12 -66.666 -27 -99.999 -45c-4.66699 -95.333 -22.334 -183 -53.001 -263c-26.667 -69.333 -63 -138.666 -109 -207.999
s-94.167 -127.833 -144.5 -175.5s-94.5 -76.167 -132.5 -85.5c-8.66699 -2 -16.667 -3 -24 -3c-18.667 0 -34.667 6 -48 18c-30 26 -39 68.667 -27 128c10.667 56 38.834 122 84.501 198s105.167 152.667 178.5 230s149.666 139.666 228.999 186.999
c1.33301 68.667 -4 118 -16 148c-10.667 -11.333 -32 -37 -64 -77c-31.333 -39.333 -56.333 -69.666 -75 -90.999s-38.167 -40.333 -58.5 -57s-37.5 -26 -51.5 -28c-12.667 -1.33301 -23.667 1.66699 -33 9c-30.667 25.333 -28.667 89.333 6 192c16.667 48.667 35 94 55 136
c2.66699 5.33301 7.16699 9.16602 13.5 11.499s12.333 2.16602 18 -0.500977s9.66699 -7.16699 12 -13.5s1.83301 -12.166 -1.5 -17.499c-29.333 -62.667 -51.5 -121.5 -66.5 -176.5s-17.167 -86.5 -6.5 -94.5c16 0 66.333 53 151 159c33.333 41.333 56.333 68.5 69 81.5
s24 19.833 34 20.5c8 0.666992 14.667 -1.33301 20 -6c26.667 -23.333 40.334 -79.666 41.001 -168.999c28.667 14.667 56.334 26.667 83.001 36c6 2 12 1.66699 18 -1s10 -7 12 -13zM242 -178.001c25.333 64.667 41.332 136.666 47.999 215.999
c-72 -46.667 -141 -105.667 -207 -177s-119.333 -141.5 -160 -210.5s-66 -129.167 -76 -180.5c-8.66699 -42 -4.66699 -70 12 -84c6.66699 -6 16.667 -7.33301 30 -4c30.667 7.33301 68.334 32.333 113.001 75s89.5 97.334 134.5 164.001s80.167 133.667 105.5 201z" />
    <glyph glyph-name="y" unicode="&#xff;" horiz-adv-x="422" 
d="M453 143c1.33301 -4.66699 1.66602 -8.83496 0.999023 -12.502s-2.33398 -7.16699 -5.00098 -10.5s-6 -5.66602 -10 -6.99902c-33.333 -12 -66.666 -27 -99.999 -45c-4.66699 -95.333 -22.334 -183 -53.001 -263c-26.667 -69.333 -63 -138.666 -109 -207.999
s-94.167 -127.833 -144.5 -175.5s-94.5 -76.167 -132.5 -85.5c-8.66699 -2 -16.667 -3 -24 -3c-18.667 0 -34.667 6 -48 18c-30 26 -39 68.667 -27 128c10.667 56 38.834 122 84.501 198s105.167 152.667 178.5 230s149.666 139.666 228.999 186.999
c1.33301 68.667 -4 118 -16 148c-10.667 -11.333 -32 -37 -64 -77c-31.333 -39.333 -56.333 -69.666 -75 -90.999s-38.167 -40.333 -58.5 -57s-37.5 -26 -51.5 -28c-12.667 -1.33301 -23.667 1.66699 -33 9c-30.667 25.333 -28.667 89.333 6 192c16.667 48.667 35 94 55 136
c2.66699 5.33301 7.16699 9.16602 13.5 11.499s12.333 2.16602 18 -0.500977s9.66699 -7.16699 12 -13.5s1.83301 -12.166 -1.5 -17.499c-29.333 -62.667 -51.5 -121.5 -66.5 -176.5s-17.167 -86.5 -6.5 -94.5c16 0 66.333 53 151 159c33.333 41.333 56.333 68.5 69 81.5
s24 19.833 34 20.5c8 0.666992 14.667 -1.33301 20 -6c26.667 -23.333 40.334 -79.666 41.001 -168.999c28.667 14.667 56.334 26.667 83.001 36c6 2 12 1.66699 18 -1s10 -7 12 -13zM242 -178.001c25.333 64.667 41.332 136.666 47.999 215.999
c-72 -46.667 -141 -105.667 -207 -177s-119.333 -141.5 -160 -210.5s-66 -129.167 -76 -180.5c-8.66699 -42 -4.66699 -70 12 -84c6.66699 -6 16.667 -7.33301 30 -4c30.667 7.33301 68.334 32.333 113.001 75s89.5 97.334 134.5 164.001s80.167 133.667 105.5 201z" />
    <glyph glyph-name="y" unicode="&#xfd;" horiz-adv-x="422" 
d="M453 143c1.33301 -4.66699 1.66602 -8.83496 0.999023 -12.502s-2.33398 -7.16699 -5.00098 -10.5s-6 -5.66602 -10 -6.99902c-33.333 -12 -66.666 -27 -99.999 -45c-4.66699 -95.333 -22.334 -183 -53.001 -263c-26.667 -69.333 -63 -138.666 -109 -207.999
s-94.167 -127.833 -144.5 -175.5s-94.5 -76.167 -132.5 -85.5c-8.66699 -2 -16.667 -3 -24 -3c-18.667 0 -34.667 6 -48 18c-30 26 -39 68.667 -27 128c10.667 56 38.834 122 84.501 198s105.167 152.667 178.5 230s149.666 139.666 228.999 186.999
c1.33301 68.667 -4 118 -16 148c-10.667 -11.333 -32 -37 -64 -77c-31.333 -39.333 -56.333 -69.666 -75 -90.999s-38.167 -40.333 -58.5 -57s-37.5 -26 -51.5 -28c-12.667 -1.33301 -23.667 1.66699 -33 9c-30.667 25.333 -28.667 89.333 6 192c16.667 48.667 35 94 55 136
c2.66699 5.33301 7.16699 9.16602 13.5 11.499s12.333 2.16602 18 -0.500977s9.66699 -7.16699 12 -13.5s1.83301 -12.166 -1.5 -17.499c-29.333 -62.667 -51.5 -121.5 -66.5 -176.5s-17.167 -86.5 -6.5 -94.5c16 0 66.333 53 151 159c33.333 41.333 56.333 68.5 69 81.5
s24 19.833 34 20.5c8 0.666992 14.667 -1.33301 20 -6c26.667 -23.333 40.334 -79.666 41.001 -168.999c28.667 14.667 56.334 26.667 83.001 36c6 2 12 1.66699 18 -1s10 -7 12 -13zM242 -178.001c25.333 64.667 41.332 136.666 47.999 215.999
c-72 -46.667 -141 -105.667 -207 -177s-119.333 -141.5 -160 -210.5s-66 -129.167 -76 -180.5c-8.66699 -42 -4.66699 -70 12 -84c6.66699 -6 16.667 -7.33301 30 -4c30.667 7.33301 68.334 32.333 113.001 75s89.5 97.334 134.5 164.001s80.167 133.667 105.5 201z" />
    <glyph glyph-name="z" unicode="z" horiz-adv-x="465" 
d="M410 -36c12 -12 18.6709 -26 20.0039 -42c1.33301 -28 -19.667 -65.333 -63 -112s-92.5 -90.167 -147.5 -130.5s-105.167 -72.166 -150.5 -95.499c-40 -20.667 -71 -31 -93 -31c-12 0 -22 3.33301 -30 10c-24 19.333 -30.667 45.666 -20 78.999
c13.333 44.667 55.666 98.167 126.999 160.5s144.333 114.166 219 155.499c-61.333 4 -128 1.66699 -200 -7c-12 -2 -20.167 2.5 -24.5 13.5s-1.83301 20.167 7.5 27.5c44 34.667 88.167 72 132.5 112s84.166 81.5 119.499 124.5s52.666 75.167 51.999 96.5
c-0.666992 5.33301 -3 9.66602 -7 12.999c-24.667 6.66699 -53.5 4.83398 -86.5 -5.49902s-65.167 -26.166 -96.5 -47.499s-58.833 -41.833 -82.5 -61.5s-43.834 -38.5 -60.501 -56.5c-4.66699 -4.66699 -10.167 -7 -16.5 -7s-11.833 2.16699 -16.5 6.5s-7 9.83301 -7 16.5
s2 12.334 6 17.001c11.333 11.333 26.166 25 44.499 41s47.333 39.167 87 69.5s81.667 52.5 126 66.5s84.5 15.333 120.5 4l6 -2c18.667 -12.667 28.334 -30.334 29.001 -53.001c1.33301 -20.667 -6.66699 -45.5 -24 -74.5s-40.5 -59 -69.5 -90s-56.833 -58.833 -83.5 -83.5
l-84 -74c86.667 5.33301 154.334 2 203.001 -10c20 7.33301 36.333 11.666 49 12.999c6.66699 0.666992 12.5 -1.16602 17.5 -5.49902s7.5 -9.5 7.5 -15.5c1.33301 -10 -2.33398 -17.333 -11.001 -22zM223.004 -258c37.333 29.333 68.6641 56.999 93.9971 82.999
s42.833 46.333 52.5 61s14.167 25.667 13.5 33c0 4.66699 -2.33301 9 -7 13c-6 5.33301 -14.667 9.66602 -26 12.999c-40.667 -18 -88.667 -45.667 -144 -83s-106.166 -78.166 -152.499 -122.499s-74.166 -81.166 -83.499 -110.499c-4 -14 -2.33301 -24 5 -30
c11.333 -3.33301 41.333 8.5 90 35.5s101.334 62.833 158.001 107.5z" />
    <glyph glyph-name="braceleft" unicode="{" horiz-adv-x="426" 
d="M410 -50c8.66699 2 15.499 -0.329102 20.499 -6.99609s6.16699 -14.334 3.5 -23.001s-8.66699 -14 -18 -16c-32.667 -9.33301 -62.667 -16 -90 -20s-56.666 -5.33301 -87.999 -4s-59.833 9.33301 -85.5 24s-47.167 36 -64.5 64c-10.667 17.333 -19 36 -25 56
s-9.83301 40 -11.5 60s-2.16699 40.333 -1.5 61s2 41.667 4 63s3.83301 41.833 5.5 61.5s2.33398 40.334 2.00098 62.001s-2.5 41.5 -6.5 59.5c-1.33301 10 1.33398 17.333 8.00098 22s14.167 5.66699 22.5 3s13.833 -8.66699 16.5 -18c30.667 14 43.667 35.333 39 64v28
c0 4.66699 -0.333008 28.334 -1 71.001c-0.666992 97.333 -0.666992 148 0 152c0 42 3.5 79.167 10.5 111.5s20.5 60.5 40.5 84.5c19.333 23.333 43.5 39.5 72.5 48.5s57.667 8.83301 86 -0.5s49.833 -27.333 64.5 -54c7.33301 -12.667 4.33301 -22.334 -9 -29.001
c-14.667 -6 -25.667 -2.66699 -33 10c-12 20 -28.167 31.167 -48.5 33.5s-39.666 -1.5 -57.999 -11.5s-32.833 -22.667 -43.5 -38c-5.33301 -6.66699 -9.83301 -14 -13.5 -22s-6.83398 -16.167 -9.50098 -24.5s-4.83398 -16.333 -6.50098 -24
s-2.83398 -16.334 -3.50098 -26.001s-1.16699 -18.167 -1.5 -25.5s-0.833008 -16 -1.5 -26c-0.666992 -26.667 -0.166992 -72.334 1.5 -137.001s1.5 -110.334 -0.5 -137.001c-2.66699 -63.333 -24.667 -97.333 -66 -102h-14c0.666992 -23.333 -0.5 -53.833 -3.5 -91.5
s-5.33301 -68.334 -7 -92.001s-0.166992 -54.167 4.5 -91.5c22 -129.333 125 -169 309 -119z" />
    </font>
</defs>
</svg>
