<?xml version="1.0" standalone="no"?>
<!DOCTYPE svg PUBLIC "-//W3C//DTD SVG 1.1//EN" "http://www.w3.org/Graphics/SVG/1.1/DTD/svg11.dtd" >
<svg>
<metadata>
Created by FontForge 20090914 at Mon Mar 15 17:28:28 2021
 By www-data
Copyright (c) 2018 by mrletters_Muhammad Rizal. All rights reserved.
</metadata>
<defs>
<font id="beloved" horiz-adv-x="750" >
  <font-face 
    font-family="beloved"
    font-weight="400"
    font-stretch="normal"
    units-per-em="1000"
    panose-1="2 0 5 3 8 0 0 2 0 3"
    ascent="750"
    descent="-250"
    x-height="362.998"
    cap-height="665"
    bbox="-243.255 -341.001 1149.56 913.203"
    underline-thickness="50"
    underline-position="-50"
    unicode-range="U+000D-U+FB02"
  />
<missing-glyph horiz-adv-x="180" 
 />
    <glyph glyph-name=".notdef" horiz-adv-x="180" 
 />
    <glyph glyph-name="NULL" horiz-adv-x="0" 
 />
    <glyph glyph-name="NULL" horiz-adv-x="0" 
 />
    <glyph glyph-name="nonmarkingreturn" unicode="&#xd;" horiz-adv-x="180" 
 />
    <glyph glyph-name="space" unicode=" " horiz-adv-x="180" 
 />
    <glyph glyph-name="exclam" unicode="!" 
d="M285 112c3.33301 2 7.50391 3.5 12.5039 4.5s10.167 1.5 15.5 1.5c6 -2 11.667 -5.66699 17 -11s7.66602 -11.666 6.99902 -18.999c-0.666992 -9.33301 -5.33398 -17.833 -14.001 -25.5s-19.667 -11.5 -33 -11.5c-18.667 4 -27.334 14.333 -26.001 31
c0 6 2.16699 11.667 6.5 17s9.16602 9.66602 14.499 12.999zM449.004 642c5.33301 0 9.83789 -1.66602 13.5049 -4.99902s4.16699 -7.66602 1.5 -12.999l-35.5 -118.5l-38.5 -132c-12.667 -45 -24.334 -89.833 -35.001 -134.5s-19.334 -86.334 -26.001 -125.001
c-5.33301 -5.33301 -10 -8.5 -14 -9.5s-8 -1.5 -12 -1.5c-3.33301 0 -6.83301 0.5 -10.5 1.5s-7.16699 2.5 -10.5 4.5c-1.33301 1.33301 -2.83301 3.16602 -4.5 5.49902s-2.16699 4.83301 -1.5 7.5c6.66699 40.667 14.167 82.667 22.5 126s17.5 86.833 27.5 130.5
s20.667 87 32 130s23.666 84.167 36.999 123.5c1.33301 3.33301 3.66602 5.83301 6.99902 7.5s6.66602 2.5 9.99902 2.5h37z" />
    <glyph glyph-name="quotedbl" unicode="&#x22;" horiz-adv-x="203" 
d="M135 612c-0.666992 4 0.668945 7.5 4.00195 10.5s7.66602 4.5 12.999 4.5h34c5.33301 0 9.66602 -1.5 12.999 -4.5s4.66602 -6.5 3.99902 -10.5l-17 -152c-1.33301 -4 -3.66602 -7.16699 -6.99902 -9.5s-7 -3.5 -11 -3.5h-15c-4 0 -7.66699 1.16699 -11 3.5
s-5 5.5 -5 9.5zM60.0029 614c-0.666992 4 0.668945 7.5 4.00195 10.5s7.66602 4.5 12.999 4.5h35c5.33301 0 9.66602 -1.5 12.999 -4.5s4.66602 -6.5 3.99902 -10.5l-18 -152c-2.66699 -9.33301 -8.66699 -14 -18 -14h-13c-4.66699 0 -8.66699 1.33301 -12 4
s-4.66602 6 -3.99902 10z" />
    <glyph glyph-name="numbersign" unicode="#" horiz-adv-x="506" 
d="M107 404c2 2.66699 4.50391 4.83301 7.50391 6.5s6.16699 2.16699 9.5 1.5c11.333 -2 24.5 -4 39.5 -6s31.167 -4 48.5 -6h-2c3.33301 0 4.5 -0.166992 3.5 -0.5s0.166992 -0.5 3.5 -0.5l23 52l20 46c1.33301 2.66699 3.66602 5 6.99902 7s6.33301 3 9 3h28
c6.66699 0 11.667 -1.83301 15 -5.5s3.33301 -8.16699 0 -13.5l-16 -40c-5.33301 -12.667 -13.333 -30.334 -24 -53.001l26 -2l38 -2l26 56.5c8.66699 19 15.667 35.5 21 49.5c0.666992 2.66699 2.66699 5 6 7s6.66602 3 9.99902 3h28c6 0 10.667 -2 14 -6
s3.66602 -8.33301 0.999023 -13c-4 -11.333 -9.83301 -25.5 -17.5 -42.5l-26.5 -57.5h8c15.333 0 29.5 0.333008 42.5 1s25.167 1.66699 36.5 3c7.33301 0.666992 12.666 -1.33301 15.999 -6s3.33301 -9.66699 0 -15l-17 -29c-1.33301 -2 -3.5 -3.83301 -6.5 -5.5
s-5.5 -2.5 -7.5 -2.5c-9.33301 -0.666992 -19 -1.16699 -29 -1.5s-20.667 -0.5 -32 -0.5c-8 0 -14 -0.166992 -18 -0.5s-10.333 -0.166016 -19 0.500977c-5.33301 -12 -11 -23.667 -17 -35l-18 -34h5c26 0 49.667 1 71 3c7.33301 0.666992 12.833 -1.33301 16.5 -6
s3.5 -9.66699 -0.5 -15l-16 -29c-1.33301 -2 -3.5 -3.83301 -6.5 -5.5s-5.83301 -2.5 -8.5 -2.5c-10 -0.666992 -20.833 -1.16699 -32.5 -1.5s-23.834 -0.5 -36.501 -0.5h-22c-8.66699 -16.667 -17.834 -32.834 -27.501 -48.501l-25.5 -42.5
c-5.33301 -4 -10.666 -6 -15.999 -6h-29c-7.33301 0 -12.666 2.33301 -15.999 7s-2.66602 9.66699 2.00098 15c4.66699 6.66699 8.66699 12.667 12 18l10.5 16.5c3.66699 5.66699 7.5 12 11.5 19l14 24.5l-46 3c-3.33301 0 -8.33301 0.666992 -15 2
c-10.667 -17.333 -20.667 -34.5 -30 -51.5s-19.666 -33.167 -30.999 -48.5c-1.33301 -1.33301 -3.33301 -2.5 -6 -3.5s-5 -1.5 -7 -1.5h-29c-7.33301 0 -12.5 2.5 -15.5 7.5s-2.16699 10.167 2.5 15.5c10 13.333 18.5 25.833 25.5 37.5s16.167 27.834 27.5 48.501
c-19.333 2 -37.5 4.16699 -54.5 6.5s-30.5 4.5 -40.5 6.5c-6.66699 1.33301 -11 4 -13 8s-1.33301 8.66699 2 14l16 25c1.33301 2.66699 3.66602 4.83398 6.99902 6.50098s6.66602 2.16699 9.99902 1.5c13.333 -2.66699 28.333 -4.83398 45 -6.50098l56 -5.5l21 40v-1
c2 4 3.66699 7.16699 5 9.5s2.5 4.5 3.5 6.5s2.16699 4.16699 3.5 6.5s3 5.5 5 9.5l-50.5 5.5c-15.667 1.66699 -28.5 3.5 -38.5 5.5c-6.66699 1.33301 -11 4 -13 8s-1.66699 8.33301 1 13zM252.004 338.999c-6 -14 -11.333 -25.498 -16 -34.498l-19 -35.5l62 -5l18.5 34
c5 9.33301 11.167 21.666 18.5 36.999h-2c-12.667 0.666992 -23.167 1.16699 -31.5 1.5s-18.5 1.16602 -30.5 2.49902zM291.004 264.001h-8h-4l-3 -8z" />
    <glyph glyph-name="dollar" unicode="$" horiz-adv-x="386" 
d="M189 217c0 1.33301 0.166992 2.99902 0.5 4.99902s0.5 4 0.5 6c-2 -3.33301 -3 -6.66602 -3 -9.99902c0 -0.666992 0.333008 -1 1 -1h1zM269 406.999l3 2l-2 -1c2 2 3.66699 4.83301 5 8.5s2.5 7.66699 3.5 12s1.83301 8.5 2.5 12.5s1 7 1 9c0.666992 11.333 -1 17 -5 17
c-1.33301 0 -2.33301 -2.66699 -3 -8s-1 -11 -1 -17l-1 -16zM176 264.999c1.33301 0 3.82617 -0.492188 7.49316 -1.49219s6.83398 -2.5 9.50098 -4.5l7 64c-16 6.66699 -29.833 15.334 -41.5 26.001s-16.834 28 -15.501 52c1.33301 23.333 10.333 43.666 27 60.999
s34.334 30.666 53.001 39.999c2.66699 15.333 5 30.333 7 45s4.33301 28 7 40c0.666992 3.33301 2.83398 6.16602 6.50098 8.49902s7.5 3.5 11.5 3.5h23c4.66699 0 8.83398 -1.33301 12.501 -4s4.83398 -6.33398 3.50098 -11.001l-7 -39l-5 -32
c14 -2.66699 25.333 -8.83398 34 -18.501s12.334 -25.167 11.001 -46.5c0 -3.33301 -1 -9.16602 -3 -17.499s-5 -17 -9 -26s-8.66699 -16.833 -14 -23.5s-11.666 -10 -18.999 -10c-6 0 -12 2.33301 -18 7c0 -2 -0.166992 -4.33301 -0.5 -7s-0.833008 -6 -1.5 -10
c16 -8.66699 29.5 -19 40.5 -31s15.833 -27 14.5 -45c-1.33301 -20 -9.5 -39.5 -24.5 -58.5s-31.833 -33.5 -50.5 -43.5c-2.66699 -22.667 -4.66699 -43.667 -6 -63s-2.66602 -34.333 -3.99902 -45c0 -6 -3 -10.333 -9 -13c-3.33301 -2 -8.66602 -3 -15.999 -3
c-4.66699 0 -9.16699 0.333008 -13.5 1s-7.83301 2.66699 -10.5 6c-1.33301 1.33301 -2.5 3.16602 -3.5 5.49902s-1.16699 4.16602 -0.5 5.49902c0.666992 9.33301 1.33398 21.666 2.00098 36.999s2 35.666 4 60.999c-11.333 1.33301 -21.833 5 -31.5 11
s-13.834 16.667 -12.501 32c0 2 0.833008 5.66699 2.5 11s4 10.666 7 15.999s6.66699 10 11 14s9.16602 6 14.499 6zM218.993 232.007c7.33301 7.33301 13.8311 15.833 19.498 25.5s8.83398 19.167 9.50098 28.5c0.666992 6 -0.666016 10.667 -3.99902 14s-7 6.33301 -11 9
l25 12c-4 -31.333 -7 -61.333 -9 -90c0 -1.33301 -0.333008 -2.83301 -1 -4.5s-1 -3.16699 -1 -4.5zM207.991 396.007l2 10.998c-0.666992 -1.33301 -1 -2.66602 -1 -3.99902s-0.333008 -2.66602 -1 -3.99902c0 -1.33301 -0.333008 -2.33301 -1 -3h1zM242.991 450.005
c-6.66699 -5.33301 -13.167 -11.833 -19.5 -19.5s-10.833 -15.5 -13.5 -23.5l7 56z" />
    <glyph glyph-name="percent" unicode="%" horiz-adv-x="340" 
d="M126 534c10 5.33301 17.666 16.001 22.999 32.001s8.66602 33 9.99902 51c0.666992 10.667 0.333984 21.167 -0.999023 31.5s-3.5 19.5 -6.5 27.5s-7.16699 14.5 -12.5 19.5s-11.333 7.5 -18 7.5c-9.33301 0 -17.166 -3.5 -23.499 -10.5s-11.5 -15.833 -15.5 -26.5
s-7 -22.334 -9 -35.001s-3.33301 -24.667 -4 -36c-1.33301 -17.333 0.5 -33.333 5.5 -48s14.167 -22 27.5 -22c8 0 15.667 3 23 9h1zM64.999 662.001c5.33301 15.333 13.332 28.002 23.999 38.002s22.667 15 36 15c7.33301 -0.666992 14.333 -3.83398 21 -9.50098
s12.334 -13 17.001 -22s8.33398 -19.333 11.001 -31s3.66699 -23.834 3 -36.501c-0.666992 -12 -2.83398 -24.167 -6.50098 -36.5s-8.83398 -23.5 -15.501 -33.5s-14.5 -18.167 -23.5 -24.5s-19.167 -9.5 -30.5 -9.5c-9.33301 0 -17.333 2.5 -24 7.5s-12 11.5 -16 19.5
s-6.83301 17 -8.5 27s-2.16699 20 -1.5 30c0.666992 11.333 2.33398 22.833 5.00098 34.5s5.66699 22.5 9 32.5v-1zM273.998 129.003c9.33301 5.33301 16.665 16.001 21.998 32.001s8.66602 33 9.99902 51c0.666992 10.667 0.333984 21.167 -0.999023 31.5
s-3.5 19.5 -6.5 27.5s-7 14.5 -12 19.5s-11.167 7.5 -18.5 7.5c-8.66699 0 -16.167 -3.5 -22.5 -10.5s-11.666 -15.833 -15.999 -26.5s-7.66602 -22.334 -9.99902 -35.001s-3.83301 -24.667 -4.5 -36c-0.666992 -17.333 1.5 -33.333 6.5 -48s14.5 -22 28.5 -22
c7.33301 0 15 3 23 9h1zM212.997 256.004c5.33301 15.333 13.168 28.167 23.501 38.5s22.166 15.5 35.499 15.5c7.33301 -1.33301 14.333 -4.83301 21 -10.5s12.5 -13 17.5 -22s8.83301 -19.333 11.5 -31s3.66699 -23.834 3 -36.501
c-0.666992 -11.333 -2.83398 -23.166 -6.50098 -35.499s-8.83398 -23.5 -15.501 -33.5s-14.5 -18.167 -23.5 -24.5s-19.167 -9.5 -30.5 -9.5c-10 0 -18.333 2.5 -25 7.5s-12 11.5 -16 19.5s-6.83301 17 -8.5 27s-2.16699 20 -1.5 30
c0.666992 11.333 2.33398 22.833 5.00098 34.5s6.33398 22.167 11.001 31.5zM234.999 751.005c1.33301 4 3.83398 6.99902 7.50098 8.99902s7.83398 2.66699 12.501 2l32 -7c5.33301 -0.666992 9.33301 -2.66699 12 -6s3.33398 -7 2.00098 -11l-177 -683
c-0.666992 -4 -2.83398 -7.16699 -6.50098 -9.5s-7.83398 -3.16602 -12.501 -2.49902l-31 8c-5.33301 0.666992 -9.33301 2.66699 -12 6s-3.33398 7 -2.00098 11z" />
    <glyph glyph-name="ampersand" unicode="&#x26;" horiz-adv-x="528" 
d="M284 317l4 -13l-12 -5zM329 204l11.002 -24l-25 4c1.33301 1.33301 3.16602 3.83301 5.49902 7.5s5.16602 7.5 8.49902 11.5v1zM325.002 312c-10.667 0 -22.9971 -2.66699 -36.9971 -8l20 -51.5c6.66699 -17 13.667 -33.167 21 -48.5l12 14c3.33301 4 8.33301 6 15 6
c5.33301 0 10.666 -2.16699 15.999 -6.5s7.66602 -8.83301 6.99902 -13.5c-0.666992 -7.33301 -4 -15 -10 -23s-12.333 -15.333 -19 -22c4 -9.33301 7 -17 9 -23s6 -14.667 12 -26c20.667 30 32 63.667 34 101c1.33301 29.333 -5.83398 53.5 -21.501 72.5
s-35.167 28.5 -58.5 28.5zM841.005 -266c12.667 8.66699 23.999 18.665 33.999 29.998s18.833 23 26.5 35s13.667 24 18 36s6.83301 23 7.5 33c0 4 -0.833008 8 -2.5 12l-4.5 11c-4 8 -6 15.333 -6 22c1.33301 13.333 9 20 23 20c6 0 11.333 -2.5 16 -7.5s8.5 -11 11.5 -18
s5 -14.167 6 -21.5s1.5 -13.666 1.5 -18.999c-1.33301 -20.667 -8 -43.167 -20 -67.5s-28.167 -46.833 -48.5 -67.5s-44.666 -38 -72.999 -52s-59.5 -21 -93.5 -21c-44.667 0 -86.5 11.5 -125.5 34.5s-74.667 52 -107 87s-61.666 73.167 -87.999 114.5
s-48.833 80.666 -67.5 117.999c-18 -10 -36.667 -17.333 -56 -22s-39 -7 -59 -7c-27.333 0 -54.166 5.16699 -80.499 15.5s-49.5 25.5 -69.5 45.5s-35.833 44.167 -47.5 72.5s-16.5 60.5 -14.5 96.5c1.33301 23.333 5.66602 45.333 12.999 66s17.166 40.834 29.499 60.501
s27.333 39.667 45 60s37.5 41.833 59.5 64.5c-5.33301 21.333 -10.5 46.333 -15.5 75s-6.83301 56.334 -5.5 83.001c0.666992 20.667 4 40.167 10 58.5s14.167 34.333 24.5 48s23.333 24.5 39 32.5s33.5 12 53.5 12c13.333 0 26.5 -2.33301 39.5 -7s24.5 -11.667 34.5 -21
s17.833 -20.666 23.5 -33.999s8.16699 -29 7.5 -47c-0.666992 -16.667 -5.16699 -33.5 -13.5 -50.5s-18.666 -33.667 -30.999 -50s-25.5 -31.833 -39.5 -46.5s-27.333 -28 -40 -40c-6.66699 -4.66699 -12.667 -10.334 -18 -17.001l17 -57c5.33301 -18.667 12 -38.667 20 -60
c10 4 19.667 6.66699 29 8s19.666 2 30.999 2c19.333 0 37.5 -3.33301 54.5 -10s31.667 -16 44 -28s21.833 -26.833 28.5 -44.5s9.66699 -37.5 9 -59.5c-1.33301 -28 -8.83301 -56.5 -22.5 -85.5s-30.167 -53.167 -49.5 -72.5c11.333 -22.667 24.5 -47 39.5 -73
s31.5 -52 49.5 -78s37.167 -51.167 57.5 -75.5s41.5 -45.833 63.5 -64.5s44.5 -33.667 67.5 -45s46.167 -17 69.5 -17c29.333 0 61 11 95 33zM308.004 132.998l-16 -5l-3 12zM325.004 59.998c-6 12 -11.4971 23.499 -16.4971 34.499s-10.5 22.167 -16.5 33.5
c-8 -2 -16.333 -3 -25 -3c-24.667 0 -45.334 8.16699 -62.001 24.5s-24.334 40.5 -23.001 72.5c2 34 14.667 62.667 38 86c-3.33301 10 -6.5 18.833 -9.5 26.5l-8.5 22l-8 22c-2.66699 7.66699 -5.33398 16.167 -8.00098 25.5c-32 -36 -56.167 -68.667 -72.5 -98
s-25.166 -59 -26.499 -89c-1.33301 -28.667 2 -54.667 10 -78s19.167 -43.166 33.5 -59.499s30.666 -29 48.999 -38s36.833 -13.5 55.5 -13.5c30.667 0 60.667 10.667 90 32zM253.007 281.997c-3.33301 -2.66699 -6 -5.66699 -8 -9s-4.66699 -7 -8 -11l-10 23z
M264.007 198.997c-4.66699 10.667 -9 21.168 -13 31.501s-8.66699 20.833 -14 31.5c-2 -5.33301 -3.83301 -11.333 -5.5 -18s-2.83398 -13.334 -3.50098 -20.001c-1.33301 -19.333 2.33398 -33.833 11.001 -43.5s19 -14.5 31 -14.5h6zM237.007 704.998
c-6 -8.66699 -11.1689 -19.832 -15.502 -33.499s-7.16602 -30.167 -8.49902 -49.5c-1.33301 -30.667 2 -64.667 10 -102c27.333 28.667 48.833 55 64.5 79s24.167 46.333 25.5 67c1.33301 21.333 -2.16699 38.166 -10.5 50.499s-17.166 18.5 -26.499 18.5
c-12 0 -24.667 -9.66699 -38 -29z" />
    <glyph glyph-name="quotesingle" unicode="'" horiz-adv-x="126" 
d="M59 614c-0.666992 4 0.669922 7.5 4.00293 10.5s7.66602 4.5 12.999 4.5h35c5.33301 0 9.66602 -1.5 12.999 -4.5s4.66602 -6.5 3.99902 -10.5l-18 -152c-2.66699 -9.33301 -8.66699 -14 -18 -14h-13c-10.667 0 -16 4.66699 -16 14z" />
    <glyph glyph-name="parenleft" unicode="(" horiz-adv-x="228" 
d="M234 688c14 0 20.668 -7.00293 20.001 -21.0029c0 -5.33301 -2.33301 -10.166 -7 -14.499s-9.66699 -6.83301 -15 -7.5c-14 -2 -26.833 -8.16699 -38.5 -18.5s-22.334 -23.5 -32.001 -39.5s-18.5 -33.833 -26.5 -53.5s-15 -39.334 -21 -59.001s-10.833 -38.5 -14.5 -56.5
s-6.5 -33.333 -8.5 -46c-2.66699 -19.333 -4.66699 -38.666 -6 -57.999c-2.66699 -48 0 -94.5 8 -139.5s21.667 -83.167 41 -114.5c2 -3.33301 3 -6 3 -8v-5c0 -3.33301 -2 -7.5 -6 -12.5s-9.66699 -7.5 -17 -7.5c-5.33301 0 -11.666 3.33301 -18.999 10
s-12.333 11.334 -15 14.001c-12 13.333 -22.167 29.666 -30.5 48.999s-15 40.833 -20 64.5s-8.33301 49 -10 76s-1.83398 54.5 -0.500977 82.5c2.66699 44 9 87.5 19 130.5s24 81.833 42 116.5s39.833 62.834 65.5 84.501s55.167 32.834 88.5 33.501z" />
    <glyph glyph-name="parenright" unicode=")" horiz-adv-x="228" 
d="M25 27c-5.33301 0 -10.335 2.00391 -15.002 6.00391s-6.66699 8.66699 -6 14c0 5.33301 2.5 10.166 7.5 14.499s10.167 6.83301 15.5 7.5c20.667 2.66699 39.167 14.834 55.5 36.501s30.333 47 42 76s21.167 58.5 28.5 88.5s12.333 54.667 15 74
c2.66699 20 4.66699 39.667 6 59c2 46.667 -0.666992 92.5 -8 137.5s-20.666 83.167 -39.999 114.5c-2.66699 3.33301 -4 5.66602 -4 6.99902v5c0.666992 5.33301 2.66699 10.166 6 14.499s9 6.5 17 6.5c6 0 11.667 -2.5 17 -7.5l13 -12.5l4 -3
c12 -13.333 22.167 -29.833 30.5 -49.5s15 -41.5 20 -65.5s8.33301 -49.333 10 -76s1.83398 -54 0.500977 -82c-2 -44 -8.16699 -87.5 -18.5 -130.5s-24.5 -81.833 -42.5 -116.5s-39.833 -62.834 -65.5 -84.501s-55.167 -32.834 -88.5 -33.501z" />
    <glyph glyph-name="asterisk" unicode="*" horiz-adv-x="315" 
d="M80 521c2.66699 3.33301 6.16309 6.67285 10.4961 10.0059l16.5 13c7.33301 4.66699 14.666 4.66699 21.999 0l17 -21v3c0.666992 11.333 1 21.666 1 30.999v28c0 8.66699 5.66699 13.667 17 15l35 3c4.66699 0.666992 8.83398 -0.5 12.501 -3.5s5.5 -6.16699 5.5 -9.5
v-28c0 -9.33301 -0.333008 -19.333 -1 -30v-8l16 18c7.33301 4 15 4.33301 23 1c5.33301 -5.33301 10.166 -10.5 14.499 -15.5s8.16602 -9.83301 11.499 -14.5c2 -3.33301 2.83301 -6.83301 2.5 -10.5s-2.16602 -6.5 -5.49902 -8.5
c-3.33301 -4 -5.16602 -6.33301 -5.49902 -7s-0.666016 -1.16699 -0.999023 -1.5l-2 -2l-7.5 -7.5c9.33301 1.33301 17.5 2.66602 24.5 3.99902s15.167 2.66602 24.5 3.99902c5.33301 0.666992 10.166 -0.5 14.499 -3.5s5.83301 -6.83301 4.5 -11.5l-7 -36
c0 -3.33301 -1.5 -6.16602 -4.5 -8.49902s-6.5 -3.83301 -10.5 -4.5l-18 -3c-4 -0.666992 -7.66699 -1.33398 -11 -2.00098s-7.5 -1.33398 -12.5 -2.00098s-12.5 -1.33398 -22.5 -2.00098l14 -14l13 -12c4.66699 -6 5 -12.333 1 -19
c-3.33301 -4.66699 -7.33301 -9.16699 -12 -13.5s-10.334 -8.83301 -17.001 -13.5c-3.33301 -2 -6.83301 -2.83301 -10.5 -2.5s-7.16699 1.5 -10.5 3.5l-6.5 6.5l-2 2c-0.333008 0.333008 -1.33301 1.16602 -3 2.49902s-4.5 4.33301 -8.5 9
c-0.666992 -24.667 -2.66699 -48.667 -6 -72c-1.33301 -4 -3.66602 -7.33301 -6.99902 -10s-7.66602 -3.66699 -12.999 -3h-5c-1.33301 0 -3.16602 0.166992 -5.49902 0.5s-4.16602 0.5 -5.49902 0.5c-8.66699 0 -16.5 0.666992 -23.5 2s-10.167 6 -9.5 14
c0.666992 9.33301 1.33398 19.166 2.00098 29.499s1.66699 20.5 3 30.5l-17 -16c-6.66699 -5.33301 -14 -5.66602 -22 -0.999023l-15 15c-4.66699 4.66699 -8.66699 9.66699 -12 15c-6 7.33301 -5 13.666 3 18.999l19 18h-4c-7.33301 0 -14.333 -0.166992 -21 -0.5
s-13.667 -0.5 -21 -0.5c-4.66699 0 -8.16699 1.33301 -10.5 4s-3.5 5.83398 -3.5 9.50098s1 7 3 10s5 4.83301 9 5.5c-7.33301 0 -11.333 1 -12 3s-0.666992 4 0 6l2 13c1.33301 3.33301 3.83301 6.33301 7.5 9s7.16699 4 10.5 4h19.5h11.5h11c4 0 10 0.333008 18 1l-29 35z
" />
    <glyph glyph-name="plus" unicode="+" horiz-adv-x="333" 
d="M21 331c0 4 1.66895 7.5 5.00195 10.5s7.66602 4.5 12.999 4.5h107l6 126c0.666992 3.33301 2.66699 6.5 6 9.5s7.33301 4.5 12 4.5h35c4.66699 0 8.66699 -1.5 12 -4.5s4.66602 -6.16699 3.99902 -9.5l-6 -126h109c4.66699 0 8.5 -1.5 11.5 -4.5s4.5 -6.5 4.5 -10.5
l-2 -33c0 -4 -1.83301 -7.5 -5.5 -10.5s-7.83398 -4.5 -12.501 -4.5h-109l-6 -127c-0.666992 -4 -2.66699 -7.5 -6 -10.5s-7.33301 -4.5 -12 -4.5h-35c-4.66699 0 -8.66699 1.5 -12 4.5s-4.66602 6.5 -3.99902 10.5l6 127h-107c-5.33301 0 -9.33301 1.5 -12 4.5
s-4 6.5 -4 10.5z" />
    <glyph glyph-name="comma" unicode="," horiz-adv-x="101" 
d="M25 96l7.99902 4c-7.33301 2.66699 -12.666 6.66699 -15.999 12s-4.66602 13.333 -3.99902 24c0.666992 12 5.66699 22.5 15 31.5s20.333 13.5 33 13.5c13.333 0 24.166 -5.5 32.499 -16.5s11.833 -22.833 10.5 -35.5c0 -8 -2.5 -16.667 -7.5 -26s-11.333 -18 -19 -26
s-16.167 -14.667 -25.5 -20s-18.333 -8 -27 -8c-6 0 -10.833 2.33301 -14.5 7s-5.5 9.66699 -5.5 15c0.666992 3.33301 2.16699 7.33301 4.5 12s5.83301 8.66699 10.5 12z" />
    <glyph glyph-name="hyphen" unicode="-" horiz-adv-x="261" 
d="M18 293c0 4 1.83105 7.33301 5.49805 10s7.83398 4 12.501 4h216c10.667 0 16 -4.66699 16 -14l-2 -38c-0.666992 -3.33301 -2.5 -6.5 -5.5 -9.5s-7.16699 -4.5 -12.5 -4.5h-216c-4.66699 0 -8.66699 1.5 -12 4.5s-4.66602 6.16699 -3.99902 9.5z" />
    <glyph glyph-name="period" unicode="." horiz-adv-x="172" 
d="M-4 142c0.666992 13.333 5.66699 24.666 15 33.999s20.666 14 33.999 14s24.666 -4.66699 33.999 -14s13.666 -20.666 12.999 -33.999s-6.16699 -24.5 -16.5 -33.5s-22.166 -13.5 -35.499 -13.5s-24.166 4.5 -32.499 13.5s-12.166 20.167 -11.499 33.5z" />
    <glyph glyph-name="slash" unicode="/" horiz-adv-x="214" 
d="M176 674c1.33301 4 3.99805 7.33301 7.99805 10s8.33301 3.33398 13 2.00098l23 -8c4.66699 -1.33301 8.33398 -3.66602 11.001 -6.99902s3.33398 -6.66602 2.00098 -9.99902l-176 -683c-1.33301 -4 -4 -7.33301 -8 -10s-8.33301 -3.33398 -13 -2.00098l-23 8
c-4.66699 1.33301 -8 3.66602 -10 6.99902s-2.66699 6.66602 -2 9.99902z" />
    <glyph glyph-name="zero" unicode="0" horiz-adv-x="439" 
d="M291 108c-30.667 -21.333 -66.666 -32 -107.999 -32c-32.667 0 -59.834 7.16699 -81.501 21.5s-38.834 33.5 -51.501 57.5s-21.167 51.333 -25.5 82s-5.5 62 -3.5 94c2 42.667 7.83301 85.334 17.5 128.001s23.5 81.167 41.5 115.5s40.5 62.166 67.5 83.499
s59.5 32 97.5 32c32 0 59.5 -8.33301 82.5 -25s41.5 -38.834 55.5 -66.501s23.833 -59.167 29.5 -94.5s7.5 -71.333 5.5 -108c-1.33301 -29.333 -5.16602 -58.666 -11.499 -87.999s-15 -56.833 -26 -82.5s-24 -48.667 -39 -69s-32.167 -36.5 -51.5 -48.5h1zM132.001 520
c-9.33301 -25.333 -17.8369 -54.667 -25.5039 -88s-12.167 -67.333 -13.5 -102c-1.33301 -24 -0.666016 -48.333 2.00098 -73s7.83398 -47 15.501 -67s17.667 -36.167 30 -48.5s27.833 -18.5 46.5 -18.5c24.667 0 46.834 8.5 66.501 25.5s36.334 38.833 50.001 65.5
s24.334 55.667 32.001 87s12.167 61.666 13.5 90.999c2 35.333 0.166992 70.333 -5.5 105s-14.167 64.667 -25.5 90c-10 22.667 -21.333 36.667 -34 42s-25.334 8 -38.001 8c-21.333 0 -42 -10.167 -62 -30.5s-37.333 -49.166 -52 -86.499z" />
    <glyph glyph-name="one" unicode="1" horiz-adv-x="285" 
d="M143 482c-1.33301 -2 -3.33301 -3.83105 -6 -5.49805s-6.66699 -2.5 -12 -2.5c-8.66699 0 -14.667 2.5 -18 7.5s-5 9.83301 -5 14.5c0.666992 2 2.33398 5.5 5.00098 10.5l16 30.5c1.33301 2.66699 3 5.66699 5 9s3.66699 6.33301 5 9l22 38
c8 13.333 16.167 25.833 24.5 37.5s17.166 21.167 26.499 28.5s19 11 29 11c10.667 0 18.5 -3.5 23.5 -10.5s6.83301 -18.833 5.5 -35.5c-9.33301 -70.667 -21 -141.5 -35 -212.5l-43 -210.5l-14 -66c2.66699 0.666992 7 1 13 1c14.667 0 22 -6.66699 22 -20
c-0.666992 -4 -2.5 -8.5 -5.5 -13.5s-8.83301 -7.5 -17.5 -7.5c-11.333 -0.666992 -22 -1.66699 -32 -3l-31 -4l-38.5 -4c-13 -1.33301 -26.167 -2.33301 -39.5 -3c-7.33301 0 -13 1.5 -17 4.5s-5.66699 8.5 -5 16.5c0 4.66699 2.33301 8.5 7 11.5s10.5 5.33301 17.5 7
s14.667 3 23 4s16.5 1.83301 24.5 2.5h7l9.5 46l15 70.5l18 84.5l18.5 89l17 84l14 70l-18 -35l-6 -10.5c-2 -3.66699 -3.66699 -6.5 -5 -8.5l-7 -12.5c-2 -3.66699 -3.66699 -6.83398 -5 -9.50098c-2 -2.66699 -3.66699 -5.33398 -5 -8.00098z" />
    <glyph glyph-name="two" unicode="2" horiz-adv-x="454" 
d="M311 622c-18.667 0 -38.6709 -3.3252 -60.0039 -9.99219s-41 -14.334 -59 -23.001c-2.66699 -2.66699 -7.33398 -4 -14.001 -4c-5.33301 0 -10.333 1.66699 -15 5s-7 8.33301 -7 15c0 5.33301 5.16699 11.166 15.5 17.499s22.5 12.166 36.5 17.499
s28.167 10.166 42.5 14.499s25.5 7.16602 33.5 8.49902c1.33301 0 2.83301 0.166992 4.5 0.5s3.16699 0.5 4.5 0.5c4 0.666992 8.66699 1 14 1h18c20 0 36.833 -2.33301 50.5 -7s24.834 -11 33.501 -19s15 -17.333 19 -28s5.66699 -22.334 5 -35.001
c-1.33301 -23.333 -10 -49.5 -26 -78.5s-35.833 -58.833 -59.5 -89.5s-49.5 -61.334 -77.5 -92.001l-79 -86l-56.5 -62c-16.333 -18 -28.166 -32.667 -35.499 -44c4.66699 1.33301 9.5 2.83301 14.5 4.5l13.5 4.5l11 2h-2c21.333 5.33301 44.833 10.5 70.5 15.5
s51.5 7.5 77.5 7.5c6.66699 0 16.167 -0.833008 28.5 -2.5s24.333 -4.33398 36 -8.00098s21.667 -8.5 30 -14.5s12.166 -13.333 11.499 -22c0 -6.66699 -2.33301 -11.667 -7 -15s-10 -5 -16 -5c-3.33301 0 -6.16602 0.166992 -8.49902 0.5s-4.16602 1.83301 -5.49902 4.5v-1
c-8.66699 8 -19.167 13.667 -31.5 17s-25.833 5 -40.5 5c-21.333 0 -43.833 -2.33301 -67.5 -7s-46.167 -9.66699 -67.5 -15c-16.667 -4 -31.834 -7.33301 -45.501 -10s-26.167 -4 -37.5 -4c-12.667 0 -23 1.83301 -31 5.5s-11.667 11.5 -11 23.5
c1.33301 15.333 14.166 37.333 38.499 66s53.5 61 87.5 97l72 78c24.667 27.333 47.334 54.333 68.001 81s37.834 52.167 51.501 76.5s21.167 46.5 22.5 66.5c0.666992 13.333 -3.16602 24.5 -11.499 33.5s-21.166 13.5 -38.499 13.5z" />
    <glyph glyph-name="three" unicode="3" horiz-adv-x="499" 
d="M210 605c-2.66699 -2.66699 -5.00195 -4.16699 -7.00195 -4.5s-5 -0.5 -9 -0.5c-5.33301 0 -10.5 1.66699 -15.5 5s-7.16699 8.33301 -6.5 15c0 6.66699 5.66699 12.834 17 18.501s25.166 10.5 41.499 14.5s33.5 7 51.5 9s33.667 3 47 3
c35.333 0 63.666 -4.33301 84.999 -13s31.333 -24 30 -46c-0.666992 -9.33301 -4.83398 -19.333 -12.501 -30s-17.5 -21.5 -29.5 -32.5s-25.5 -22.333 -40.5 -34l-44.5 -33.5c-15.333 -11.333 -27.333 -19.5 -36 -24.5s-16 -11.833 -22 -20.5h5
c24 0 48.833 -2.33301 74.5 -7s49.167 -12.834 70.5 -24.501s38.5 -27 51.5 -46s18.833 -42.5 17.5 -70.5c-2 -32.667 -11.167 -61.667 -27.5 -87s-36.166 -46.5 -59.499 -63.5s-48.666 -30 -75.999 -39s-53 -13.5 -77 -13.5c-39.333 0 -77.5 7.5 -114.5 22.5
s-68.833 35.5 -95.5 61.5l2 -1c-4 2.66699 -6.66699 5.5 -8 8.5s-2 6.16699 -2 9.5c0 4.66699 2.66699 9.16699 8 13.5s10.666 6.5 15.999 6.5c2.66699 0 5.5 -0.166992 8.5 -0.5s5.16699 -1.5 6.5 -3.5c28 -27.333 55.333 -46.666 82 -57.999s52.334 -17 77.001 -17
c25.333 0 49 5 71 15s41.333 22.667 58 38s29.834 32.666 39.501 51.999s15.167 38.333 16.5 57c0.666992 13.333 -1.33301 26.333 -6 39s-12.5 24 -23.5 34s-25.5 18 -43.5 24s-40 9 -66 9c-12 0 -23 -0.666992 -33 -2s-18.667 -2.66602 -26 -3.99902
c-3.33301 -0.666992 -7.83301 -1.33398 -13.5 -2.00098s-8.16699 -1 -7.5 -1c-14.667 0 -21.667 7.33301 -21 22c0 7.33301 3.33301 15.5 10 24.5s15.167 18.167 25.5 27.5s22.166 19.166 35.499 29.499l41 31.5l35 26c11.333 8.66699 21.5 17 30.5 25s16.333 15.333 22 22
s8.5 12.334 8.5 17.001c0.666992 6 -4.66602 10.333 -15.999 13s-25.666 4 -42.999 4c-19.333 0 -39.166 -1.5 -59.499 -4.5s-35.833 -8.16699 -46.5 -15.5z" />
    <glyph glyph-name="four" unicode="4" horiz-adv-x="430" 
d="M234 67c-6 0 -10.6719 1.66699 -14.0049 5s-4 7.66602 -2 12.999c8.66699 34 18 68.833 28 104.5l29 102.5l12 38c-19.333 -1.33301 -42.166 -2.66602 -68.499 -3.99902s-51.833 -2 -76.5 -2c-38 0 -68 2.16699 -90 6.5s-32.333 15.5 -31 33.5
c0.666992 15.333 5.83398 32.333 15.501 51s22.167 38 37.5 58s32.5 40.167 51.5 60.5s38.333 39.833 58 58.5l56 51l46.5 39c3.33301 2.66699 8 4.5 14 5.5s12 1.5 18 1.5c10.667 0 20.167 -1.66699 28.5 -5s12.166 -9.33301 11.499 -18c0 -4.66699 -4 -10 -12 -16h1
c-10.667 -8 -24.167 -18.833 -40.5 -32.5s-33.833 -29.167 -52.5 -46.5l-56 -54.5c-18.667 -19 -35.5 -37.667 -50.5 -56s-27.333 -36 -37 -53s-14.834 -31.5 -15.501 -43.5c0 0.666992 2.33301 1.16699 7 1.5s10.834 0.5 18.501 0.5h24.5h25h8c20.667 0 41.5 0.5 62.5 1.5
s40.833 3.16699 59.5 6.5l21 82c6 23.333 10.333 42 13 56c2.66699 8.66699 8.83398 16 18.501 22s18.834 9 27.501 9s15.834 -2 21.501 -6s8.16699 -9.66699 7.5 -17c-0.666992 -6.66699 -2.66699 -17.334 -6 -32.001s-7.66602 -32.167 -12.999 -52.5l-18 -67l-22 -76.5
l-31.5 -110.5c-10.333 -37 -19.5 -71.167 -27.5 -102.5c-1.33301 -3.33301 -3.5 -6.16602 -6.5 -8.49902s-6.5 -3.5 -10.5 -3.5h-40z" />
    <glyph glyph-name="five" unicode="5" horiz-adv-x="514" 
d="M338 640c12.667 -2.66699 25.999 -4.99609 39.999 -6.99609s26.667 -3 38 -3c9.33301 0 17.5 0.833008 24.5 2.5s12.833 4.5 17.5 8.5l-1 -1c1.33301 1.33301 2.83301 2.5 4.5 3.5s5.16699 1.5 10.5 1.5c6 0 11.167 -1.83301 15.5 -5.5s6.16602 -8.83398 5.49902 -15.501
c0 -6.66699 -3 -12.167 -9 -16.5s-13.167 -7.83301 -21.5 -10.5s-17.166 -4.66699 -26.499 -6s-17.333 -2 -24 -2c-15.333 0 -30.666 1 -45.999 3s-29.666 4.33301 -42.999 7l-36 6l-3 -7v1l-16 -36.5c-6.66699 -15 -13.334 -30.833 -20.001 -47.5s-12.5 -33 -17.5 -49
s-7.83301 -29.333 -8.5 -40c0 -3.33301 -1 -5 -3 -5c3.33301 0 8 1.16699 14 3.5s12.333 5.16602 19 8.49902h-1c11.333 5.33301 23.333 10.166 36 14.499s26 6.5 40 6.5c19.333 0 37.833 -3.33301 55.5 -10s33.167 -16.667 46.5 -30s23.666 -30 30.999 -50
s10.333 -43.333 9 -70c-2 -32 -10 -61.167 -24 -87.5s-32.333 -48.833 -55 -67.5s-48.667 -33.167 -78 -43.5s-59.666 -15.5 -90.999 -15.5c-20 0 -39.667 1.83301 -59 5.5s-37.5 9.5 -54.5 17.5s-32.667 18.5 -47 31.5s-26.5 29.167 -36.5 48.5l2 -2
c-3.33301 3.33301 -5.16602 5.83301 -5.49902 7.5s-0.166016 3.5 0.500977 5.5c0 6 2.66699 11 8 15s10.666 6 15.999 6c11.333 0 18 -3.33301 20 -10l-1 1c14.667 -29.333 35 -50.666 61 -63.999s53.333 -20 82 -20c24 0 47.167 4.33301 69.5 13
s42.166 20.834 59.499 36.501s31.333 34 42 55s16.667 43.5 18 67.5c0.666992 12.667 -0.5 26.167 -3.5 40.5s-7.66699 27.166 -14 38.499s-14.833 20.833 -25.5 28.5s-23 11.5 -37 11.5c-12.667 0 -25.667 -3 -39 -9s-26.333 -12.667 -39 -20v1
c-10 -5.33301 -19.5 -9.83301 -28.5 -13.5s-17.167 -5.5 -24.5 -5.5c-24.667 0 -36.334 16.667 -35.001 50c0.666992 12.667 3.33398 27.167 8.00098 43.5s10 33.166 16 50.499s12.5 34.333 19.5 51l19.5 45l10 22l-1 -1c3.33301 8.66699 9 14 17 16s17 3 27 3
c12.667 0 26 -0.833008 40 -2.5s24.667 -2.83398 32 -3.50098z" />
    <glyph glyph-name="six" unicode="6" horiz-adv-x="402" 
d="M352 632c-30.667 0 -59.498 -9.66602 -86.498 -28.999s-51.333 -44 -73 -74s-39.667 -62.833 -54 -98.5s-24.5 -69.5 -30.5 -101.5c32 26.667 61.333 45.667 88 57s50.667 17 72 17c20.667 0 38.5 -4.16699 53.5 -12.5s27 -19.333 36 -33s15.333 -29.167 19 -46.5
s5.16699 -35 4.5 -53c-1.33301 -30 -7.33301 -56.167 -18 -78.5s-24.5 -40.666 -41.5 -54.999s-36.167 -25.166 -57.5 -32.499s-43.333 -11 -66 -11c-31.333 0 -58.5 5.16699 -81.5 15.5s-41.833 24.666 -56.5 42.999s-25.334 40.166 -32.001 65.499s-9 52.666 -7 81.999
c2 45.333 12.667 90.833 32 136.5s44.333 87 75 124s65.834 67.167 105.501 90.5s81.167 35 124.5 35c14.667 0 22 -7 22 -21c-0.666992 -10 -3.83398 -15.833 -9.50098 -17.5s-11.834 -2.5 -18.501 -2.5zM101.002 272.001c0 -1.33301 -0.666992 -3.33301 -2 -6l-5 -5z
M249.002 357.001c-12 0 -24.6709 -2.99902 -38.0039 -8.99902s-26.666 -13.5 -39.999 -22.5s-26.166 -18.833 -38.499 -29.5l-33.5 -30v-1v-7c-1.33301 -20.667 0.833984 -39.334 6.50098 -56.001s13.5 -31 23.5 -43s21.833 -21.167 35.5 -27.5s28.167 -9.5 43.5 -9.5
c26.667 0 50.5 10.333 71.5 31s32.5 51.667 34.5 93c0.666992 18 -0.666016 34 -3.99902 48s-8.33301 25.667 -15 35s-14 16.333 -22 21s-16 7 -24 7z" />
    <glyph glyph-name="seven" unicode="7" horiz-adv-x="438" 
d="M81 38c-4.66699 -2.66699 -9 -4.3291 -13 -4.99609s-8.33301 -1 -13 -1c-12.667 0 -22.334 4 -29.001 12c-2 1.33301 -3.5 3.83301 -4.5 7.5s-0.833008 6.5 0.5 8.5c6.66699 18.667 16.334 40.667 29.001 66s27 52.333 43 81l51.5 89l55 90.5l53 85l46.5 72.5
c7.33301 10 13.666 19.167 18.999 27.5s10.666 16.166 15.999 23.499c-14 -3.33301 -28.833 -6 -44.5 -8s-30.167 -3 -43.5 -3c-1.33301 0 -6.83301 0.333008 -16.5 1l-35 2.5c-13.667 1 -28.167 2.5 -43.5 4.5s-29.5 4.5 -42.5 7.5s-23.667 6.5 -32 10.5
s-12.5 8.66699 -12.5 14c0.666992 8 3.33398 13.5 8.00098 16.5s11.667 4.5 21 4.5c32 -7.33301 60.667 -12.5 86 -15.5s48 -4.5 68 -4.5c24 0 45.167 1.5 63.5 4.5s33.166 5.83301 44.499 8.5c6 1.33301 11.667 2.16602 17 2.49902s10.333 0.5 15 0.5
c6 0 12.5 -1.5 19.5 -4.5s10.167 -8.83301 9.5 -17.5c0 -2.66699 -2.33301 -8.33398 -7 -17.001l-18 -32c-7.33301 -12.667 -16.166 -27.167 -26.499 -43.5l-32.5 -51.5l-68.5 -109l-70.5 -117.5c-22.667 -39 -43.167 -76.333 -61.5 -112s-32.166 -65.834 -41.499 -90.501z
" />
    <glyph glyph-name="eight" unicode="8" horiz-adv-x="440" 
d="M312 162c8.66699 15.333 12.998 30.667 12.998 46c1.33301 28.667 -6 57.167 -22 85.5s-36 53.5 -60 75.5l-44 -36.5c-16.667 -14.333 -32.667 -30 -48 -47s-28.666 -35 -39.999 -54s-17.333 -37.5 -18 -55.5c-0.666992 -14 1.33301 -26 6 -36s11.167 -18.167 19.5 -24.5
s17.833 -11 28.5 -14s21.334 -4.5 32.001 -4.5c12.667 0 25.667 1.5 39 4.5s26 7.33301 38 13s22.833 12.5 32.5 20.5s17.5 17 23.5 27zM413.998 611.001c2.66699 -6.66699 4.33008 -12.833 4.99707 -18.5s1 -11.5 1 -17.5c-1.33301 -16 -6.33301 -31.667 -15 -47
s-19.5 -30.333 -32.5 -45s-26.833 -28.334 -41.5 -41.001l-41 -34c30 -28 55.5 -59.667 76.5 -95s30.5 -71 28.5 -107c-1.33301 -24.667 -8.5 -46.667 -21.5 -66s-29.5 -35.833 -49.5 -49.5s-42.333 -24.167 -67 -31.5s-49.667 -11 -75 -11
c-18.667 0 -37.834 2.5 -57.501 7.5s-37.334 12.833 -53.001 23.5s-28.334 23.834 -38.001 39.501s-13.834 34.5 -12.501 56.5c0.666992 21.333 7.5 43 20.5 65s28.5 43.167 46.5 63.5s37.167 39.5 57.5 57.5l53.5 46c-12 10 -24.833 21.333 -38.5 34s-26.167 26 -37.5 40
s-20.666 28.333 -27.999 43s-10.666 29.334 -9.99902 44.001c0.666992 18 6.83398 34.167 18.501 48.5s26.334 26.166 44.001 35.499s36.834 16.5 57.501 21.5s41 7.5 61 7.5c32.667 0 62.834 -5.66699 90.501 -17s46.834 -29 57.501 -53zM246.994 447.002l32.0049 26.498
c11.333 9.66699 22.166 20 32.499 31s19 22.5 26 34.5s10.833 23.667 11.5 35c0.666992 10.667 -1.33301 19.667 -6 27s-10.834 13.333 -18.501 18s-16.334 8.16699 -26.001 10.5s-19.5 3.5 -29.5 3.5c-13.333 0 -26.5 -1.5 -39.5 -4.5s-24.833 -7.5 -35.5 -13.5
s-19.334 -13.167 -26.001 -21.5s-10.334 -17.5 -11.001 -27.5c-0.666992 -11.333 1.83301 -22.5 7.5 -33.5s12.667 -21.667 21 -32s17.833 -20.166 28.5 -29.499s20.667 -17.666 30 -24.999z" />
    <glyph glyph-name="nine" unicode="9" horiz-adv-x="401" 
d="M51 113c30.667 0 59.501 9.66699 86.501 29s51.167 43.833 72.5 73.5s39.166 62.167 53.499 97.5s24.5 69.333 30.5 102c-30.667 -26 -58.5 -45 -83.5 -57s-48.833 -18 -71.5 -18c-22 0 -40.667 4.33301 -56 13s-27.833 19.834 -37.5 33.501s-16.5 29.334 -20.5 47.001
s-5.33301 35.5 -4 53.5c1.33301 29.333 7.66602 55.5 18.999 78.5s25.833 42.5 43.5 58.5s37.5 28.333 59.5 37s44.667 13 68 13c24.667 0 47.667 -5.16699 69 -15.5s39.666 -24.833 54.999 -43.5s27 -41.334 35 -68.001s11.333 -56.334 10 -89.001
c-2.66699 -45.333 -13.5 -90.833 -32.5 -136.5s-43.833 -87 -74.5 -124s-65.667 -67.167 -105 -90.5s-80.666 -35 -123.999 -35c-6 0 -11.167 2 -15.5 6s-6.5 9 -6.5 15c0.666992 10 3.83398 15.833 9.50098 17.5s12.167 2.5 19.5 2.5zM300.001 479v4l7 7zM151.001 388
c11.333 0 23.6709 3.16895 37.0039 9.50195s26.666 14.166 39.999 23.499s26.166 19.5 38.499 30.5s23.5 21.5 33.5 31.5c1.33301 43.333 -7.33398 76.666 -26.001 99.999s-41 35 -67 35c-14.667 0 -29 -3 -43 -9s-26.667 -14.5 -38 -25.5s-20.666 -24 -27.999 -39
s-11.333 -31.5 -12 -49.5c-0.666992 -12.667 0.333008 -25.334 3 -38.001s6.66699 -24.167 12 -34.5s12.166 -18.666 20.499 -24.999s18.166 -9.5 29.499 -9.5z" />
    <glyph glyph-name="colon" unicode=":" horiz-adv-x="119" 
d="M19 183c0.666992 13.333 6.00098 24.666 16.001 33.999s21.667 14 35 14s24.333 -4.66699 33 -14s12.667 -20.666 12 -33.999s-5.83398 -24.5 -15.501 -33.5s-21.167 -13.5 -34.5 -13.5s-24.5 4.5 -33.5 13.5s-13.167 20.167 -12.5 33.5zM28.001 349
c0.666992 13.333 5.83301 24.666 15.5 33.999s21.167 14 34.5 14s24.5 -4.66699 33.5 -14s13.167 -20.666 12.5 -33.999c-1.33301 -13.333 -6.83301 -24.5 -16.5 -33.5s-21.167 -13.5 -34.5 -13.5s-24.5 4.5 -33.5 13.5s-12.833 20.167 -11.5 33.5z" />
    <glyph glyph-name="semicolon" unicode=";" horiz-adv-x="103" 
d="M27 140l8.00195 4.00098c-6.66699 2.66699 -11.834 6.66699 -15.501 12s-5.16699 13.666 -4.5 24.999c0.666992 12 5.66699 22.333 15 31s20.333 13 33 13c14 0 25 -5.5 33 -16.5s11.667 -22.833 11 -35.5c-0.666992 -8 -3.5 -16.667 -8.5 -26s-11.333 -18 -19 -26
s-16.167 -14.667 -25.5 -20s-18.333 -8 -27 -8c-6 0 -10.833 2.33301 -14.5 7s-5.16699 9.66699 -4.5 15c0 3.33301 1.16699 7.33301 3.5 12s6.16602 8.66699 11.499 12zM21.002 329.001c0.666992 13.333 5.66699 24.666 15 33.999s20.666 14 33.999 14
s24.833 -4.66699 34.5 -14s14.167 -20.666 13.5 -33.999c-1.33301 -13.333 -7.16602 -24.5 -17.499 -33.5s-22.166 -13.5 -35.499 -13.5s-24.333 4.5 -33 13.5s-12.334 20.167 -11.001 33.5z" />
    <glyph glyph-name="less" unicode="&#x3c;" horiz-adv-x="319" 
d="M215 431c4 3.33301 8.33398 4.33203 13.001 2.99902s8.66699 -3.66602 12 -6.99902l10 -17c3.33301 -3.33301 4.16602 -6.66602 2.49902 -9.99902s-4.16699 -6.33301 -7.5 -9l-159 -133l144 -117c7.33301 -5.33301 8.33301 -11.666 3 -18.999l-13 -17
c-2.66699 -3.33301 -6.5 -5.5 -11.5 -6.5s-9.5 -0.166992 -13.5 2.5l-174 145c-4 3.33301 -6 7.16602 -6 11.499s2.66699 8.16602 8 11.499z" />
    <glyph glyph-name="equal" unicode="=" 
d="M424 474c7.33301 -1.33301 12.332 -4.16895 14.999 -8.50195s3.66699 -8.16602 3 -11.499c0 -6 -5.83301 -10.833 -17.5 -14.5s-25.167 -6.16699 -40.5 -7.5s-30.666 -2.16602 -45.999 -2.49902s-26.333 -0.5 -33 -0.5c-8.66699 0 -22 0.333008 -40 1s-36.333 2 -55 4
s-34.834 5 -48.501 9s-20.167 9.33301 -19.5 16c0 4.66699 2.83301 8.5 8.5 11.5s12.834 5.16699 21.501 6.5s18.167 2.33301 28.5 3s20.5 1 30.5 1c33.333 0 65.5 -0.333008 96.5 -1s62.5 -2.66699 94.5 -6h2zM418.999 365.997c12 -4 17.999 -10.668 17.999 -20.001
c-0.666992 -6 -6.83398 -10.833 -18.501 -14.5s-25.167 -6.16699 -40.5 -7.5s-30.666 -2.16602 -45.999 -2.49902s-26.333 -0.5 -33 -0.5c-8.66699 0 -22 0.333008 -40 1s-36.167 2 -54.5 4s-34.333 5 -48 9s-20.5 9.33301 -20.5 16c0 4.66699 2.83301 8.5 8.5 11.5
s12.834 5.16699 21.501 6.5s18.167 2.33301 28.5 3s20.5 1 30.5 1c33.333 0 65.5 -0.333008 96.5 -1s62.833 -2.66699 95.5 -6h2z" />
    <glyph glyph-name="greater" unicode="&#x3e;" horiz-adv-x="271" 
d="M78 101c-4.66699 -3.33301 -9.16602 -4.33203 -13.499 -2.99902s-8.16602 3.66602 -11.499 6.99902l-11 17c-2.66699 3.33301 -3.33398 6.66602 -2.00098 9.99902s3.66602 6.33301 6.99902 9l160 133l-144 117c-8.66699 5.33301 -9.66699 11.666 -3 18.999l12 17
c7.33301 8 16 9.33301 26 4l172 -145c4.66699 -3.33301 7 -7.16602 7 -11.499s-2.66699 -8.16602 -8 -11.499z" />
    <glyph glyph-name="question" unicode="?" horiz-adv-x="366" 
d="M80 615c-3.33301 -5.33301 -7.00195 -8.83008 -11.002 -10.4971s-7.66699 -2.5 -11 -2.5c-7.33301 0 -12.833 2 -16.5 6s-5.5 8.66699 -5.5 14c0 2 0.166992 3.83301 0.5 5.5s1.83301 3.83398 4.5 6.50098c19.333 30 44.666 53.333 75.999 70s63.333 25 96 25
c26 0 49.833 -4.83301 71.5 -14.5s40 -22.667 55 -39s26.333 -35.333 34 -57s10.834 -44.5 9.50098 -68.5c-1.33301 -30 -10 -61.833 -26 -95.5s-41.667 -69.167 -77 -106.5c-15.333 -16 -27.833 -30.5 -37.5 -43.5s-17.167 -25.333 -22.5 -37s-9 -23.334 -11 -35.001
s-3.33301 -23.834 -4 -36.501c-0.666992 -6.66699 -1 -13.167 -1 -19.5v-20.5c0 -9.33301 -0.333008 -20 -1 -32s-1.33398 -23.333 -2.00098 -34c-0.666992 -11.333 -4.5 -19.166 -11.5 -23.499s-14.833 -6.5 -23.5 -6.5c-10 0 -17.833 1.16699 -23.5 3.5
s-9.66699 5.16602 -12 8.49902s-3.5 7.16602 -3.5 11.499v12.5c0.666992 12 1 23.167 1 33.5v29.5v49c0.666992 14 2.33398 27.667 5.00098 41s6.83398 26.666 12.501 39.999s13.5 27.333 23.5 42s22.667 30 38 46c12 12 23.667 25.333 35 40s21.5 30 30.5 46
s16.5 32.5 22.5 49.5s9.66699 33.833 11 50.5c0.666992 14 -1.66602 28.333 -6.99902 43s-13 28 -23 40s-22 21.667 -36 29s-29.333 11 -46 11c-21.333 0 -42 -6.33301 -62 -19s-37.667 -30.667 -53 -54zM165.998 73.0029c12.667 0 23.334 -4.16699 32.001 -12.5
s12.667 -18.166 12 -29.499s-5.66699 -21.333 -15 -30s-20.333 -13 -33 -13s-23.334 4.33301 -32.001 13s-12.667 18.667 -12 30s5.66699 21.166 15 29.499s20.333 12.5 33 12.5z" />
    <glyph glyph-name="at" unicode="@" 
d="M647 19c-8.66699 -3.33301 -17.0049 -4.99805 -25.0049 -4.99805c-12 0 -22.667 3.66699 -32 11s-13.333 20.666 -12 39.999c0 3.33301 0.333008 7 1 11s1.33398 7.66699 2.00098 11c-7.33301 -5.33301 -15.5 -9.66602 -24.5 -12.999s-18.167 -5 -27.5 -5
c-13.333 0 -25.666 5.16699 -36.999 15.5s-16.333 27.166 -15 50.499c0.666992 15.333 5 32.166 13 50.499s18.667 35.333 32 51s28.833 28.667 46.5 39s37.167 15.5 58.5 15.5c15.333 0 29.666 -3.83301 42.999 -11.5s25 -22.167 35 -43.5
c-0.666992 -7.33301 -3.5 -12.833 -8.5 -16.5s-10.167 -5.5 -15.5 -5.5c-4.66699 0 -8.83398 1.66699 -12.501 5s-7.16699 7 -10.5 11l-10 12c-3.33301 4 -4.33301 5.66699 -3 5c-3.33301 2.66699 -7.66602 4 -12.999 4c-11.333 0 -22.333 -4 -33 -12s-20.167 -18 -28.5 -30
s-15.166 -24.833 -20.499 -38.5s-8.33301 -25.834 -9 -36.501c-0.666992 -14 0 -21 2 -21c4 0 9 2.16699 15 6.5s12.5 9.66602 19.5 15.999s14 13 21 20s13.167 13.5 18.5 19.5l8 9c8.66699 9.33301 15.667 15.833 21 19.5s10.666 5.5 15.999 5.5c6 0 11 -1.5 15 -4.5
s5.66699 -8.16699 5 -15.5c0 -2 -1.16699 -6 -3.5 -12s-5.16602 -12.667 -8.49902 -20c-5.33301 -13.333 -11.166 -29 -17.499 -47s-9.83301 -33.333 -10.5 -46c0 -5.33301 -1.66699 -8 -5 -8c10.667 0 21.334 5 32.001 15s20.334 22.167 29.001 36.5s16 30 22 47
s9.33301 32.5 10 46.5c1.33301 33.333 -9.16699 60.333 -31.5 81s-52.5 31 -90.5 31c-26.667 0 -50 -5.83301 -70 -17.5s-37 -26.167 -51 -43.5s-24.667 -36.166 -32 -56.499s-11.333 -39.166 -12 -56.499c-1.33301 -18.667 0.333984 -36.667 5.00098 -54
s12 -32.833 22 -46.5s22.667 -24.5 38 -32.5s33 -12 53 -12c13.333 0 27.5 1.83301 42.5 5.5s31.167 10.167 48.5 19.5c-1.33301 0 -2.33301 -0.166992 -3 -0.5s-1.33398 -0.5 -2.00098 -0.5v1zM776.995 202.002c-0.666992 -12 -3.16992 -25.667 -7.50293 -41
s-10.5 -30.666 -18.5 -45.999s-17.667 -30 -29 -44s-24.333 -25.667 -39 -35h1c7.33301 0 13 -2 17 -6s5.66699 -9.33301 5 -16c0 -6.66699 -4 -12.334 -12 -17.001h1c-24 -16 -47.333 -27.333 -70 -34s-44.667 -10 -66 -10c-27.333 0 -51.166 5 -71.499 15
s-37.333 23.5 -51 40.5s-23.834 36.833 -30.501 59.5s-9.33398 46.334 -8.00098 71.001c0.666992 22 5.83398 45.5 15.501 70.5s23.334 48.333 41.001 70s39.5 39.5 65.5 53.5s56 21 90 21c26 0 49.5 -3.66699 70.5 -11s38.833 -17.833 53.5 -31.5
s25.834 -29.834 33.501 -48.501s10.834 -39 9.50098 -61z" />
    <glyph glyph-name="A" unicode="A" horiz-adv-x="715" 
d="M430 138c-2 12 -2.99609 25.1699 -2.99609 39.5029s0.333008 30.166 1 47.499c0.666992 9.33301 1.33398 19.333 2.00098 30s1.66699 21.667 3 33c-54.667 -21.333 -104 -47.333 -148 -78c-64.667 -100 -117.834 -173 -159.501 -219s-71.167 -69 -88.5 -69
c-20.667 0 -30.334 10.667 -29.001 32c0.666992 10.667 4.66699 23.167 12 37.5s16.666 29.5 27.999 45.5s24.166 32.333 38.499 49s28.833 32.5 43.5 47.5s28.667 28.667 42 41l34 30.5c49.333 78.667 97.666 160.834 144.999 246.501l137 258.5
c5.33301 11.333 11.833 19.166 19.5 23.499s17.5 6.5 29.5 6.5c7.33301 0 14 -1.83301 20 -5.5s8.33301 -14.167 7 -31.5c-0.666992 -13.333 -2.5 -31.833 -5.5 -55.5s-6.66699 -49.334 -11 -77.001s-9 -55.834 -14 -84.501l-13.5 -78l-9 -52
c17.333 4.66699 36.833 8.83398 58.5 12.501s42.5 6.16699 62.5 7.5c9.33301 0 15.833 -2.33301 19.5 -7s5.16699 -9.66699 4.5 -15c-0.666992 -6.66699 -9.33398 -12.167 -26.001 -16.5s-35.667 -8.5 -57 -12.5h1c-17.333 -3.33301 -31.666 -6 -42.999 -8s-20 -4 -26 -6
c-2.66699 -16.667 -4.5 -31.5 -5.5 -44.5s-2.16699 -25.833 -3.5 -38.5c-2 -46.667 -0.833008 -79.167 3.5 -97.5s10.833 -27.5 19.5 -27.5s18.334 4.66699 29.001 14s22.5 21.666 35.5 36.999s26.667 33.333 41 54l45.5 65l25 38v-1c2 4 4.66699 7.83301 8 11.5
s8.66602 5.5 15.999 5.5c4.66699 0 9.66699 -1.66699 15 -5s8 -8.66602 8 -15.999c-0.666992 -2.66699 -1.33398 -4.83398 -2.00098 -6.50098s-1.66699 -3.5 -3 -5.5l-71 -104c-20.667 -30 -40 -55.333 -58 -76s-35.167 -36.167 -51.5 -46.5s-33.166 -15.5 -50.499 -15.5
c-21.333 0 -38.5 7.5 -51.5 22.5s-21.167 36.167 -24.5 63.5zM472.004 525.003c0.666992 6.66699 1.16602 10.667 1.49902 12s0.333008 1.33301 0 0s-0.666016 -3.5 -0.999023 -6.5s-0.5 -5.16699 -0.5 -6.5v1zM438.003 326.003c0 3.33301 0.333008 6 1 8l12 4z
M331.003 287.003c17.333 9.33301 34.5 17.668 51.5 25.001s35.833 14.666 56.5 21.999c4 32 9 63.667 15 95l18 95c0 -0.666992 -0.166992 -0.166992 -0.5 1.5s0.166992 5.5 1.5 11.5l-40.5 -76.5l-34 -60.5l-32.5 -55zM210.003 154.005
c-23.333 -19.333 -45.668 -41.168 -67.001 -65.501s-40.666 -50.166 -57.999 -77.499c-1.33301 -1.33301 -3.33301 -4 -6 -8s-5.33398 -8.5 -8.00098 -13.5s-5 -9.66699 -7 -14s-3 -7.5 -3 -9.5l-17 14c2 0 7.33301 5 16 15s19.334 23.667 32.001 41l43 61l51 76z" />
    <glyph glyph-name="B" unicode="B" horiz-adv-x="636" 
d="M120 192l17.4941 86.499l13 62c3.66699 17.667 7 32.834 10 45.501s6.16699 24.667 9.5 36c3.33301 14.667 6 26.834 8 36.501s4 18.834 6 27.501s4.16699 17.167 6.5 25.5s5.83301 18.166 10.5 29.499l-2 -1c-8.66699 -5.33301 -16.834 -11 -24.501 -17
s-14.5 -13.5 -20.5 -22.5s-11 -20 -15 -33s-6.33301 -28.833 -7 -47.5c-0.666992 -6.66699 -3.33398 -11.834 -8.00098 -15.501s-10.667 -5.5 -18 -5.5c-5.33301 0 -10.166 1.83301 -14.499 5.5s-6.16602 8.83398 -5.49902 15.501c1.33301 25.333 4.5 46.166 9.5 62.499
s11.667 30.166 20 41.499s18 21 29 29l35.5 25c14.667 9.33301 29.667 20.166 45 32.499s29.333 25.833 42 40.5l-4 -3c3.33301 5.33301 6.83301 8.33301 10.5 9s6.83398 1 9.50098 1c6.66699 0 12.334 -1.66699 17.001 -5s6.66699 -8.33301 6 -15
c0 -1.33301 -0.166992 -2.66602 -0.5 -3.99902s-1.83301 -3.33301 -4.5 -6c-10.667 -25.333 -21.5 -55.833 -32.5 -91.5s-22.167 -77.5 -33.5 -125.5l11 25c20.667 45.333 44.334 87.833 71.001 127.5s57.667 71.167 93 94.5c8 4.66699 17.333 9.83398 28 15.501
s22.334 10.667 35.001 15s25.834 8 39.501 11s27.167 4.5 40.5 4.5c28 0 50.5 -7.83301 67.5 -23.5s24.5 -39.5 22.5 -71.5c-1.33301 -24.667 -8.66602 -51.667 -21.999 -81s-29.833 -58.333 -49.5 -87s-40.667 -55.667 -63 -81s-43.166 -46 -62.499 -62
c18.667 -5.33301 34.834 -13.333 48.501 -24s25.167 -25.667 34.5 -45l48.5 42.5l39.5 35.5c1.33301 2 3.16602 4 5.49902 6s4.16602 3.66699 5.49902 5c2 2 3.66699 4 5 6c8 0 15.5 -1.66699 22.5 -5s10.167 -8.66602 9.5 -15.999
c0 -2.66699 -0.666992 -4.83398 -2 -6.50098s-2.66602 -3.5 -3.99902 -5.5c-11.333 -13.333 -27.5 -29.166 -48.5 -47.499l-69.5 -58.5c1.33301 -7.33301 2.33301 -15 3 -23s0.666992 -15.667 0 -23c-2.66699 -45.333 -12.334 -85 -29.001 -119s-36.667 -62.5 -60 -85.5
s-47.666 -40.333 -72.999 -52s-47.666 -17.5 -66.999 -17.5c-25.333 0 -46.333 6.16699 -63 18.5s-24.334 29.166 -23.001 50.499c0.666992 16.667 8.5 35 23.5 55s34 40.833 57 62.5s48.667 43.834 77 66.501l84.5 66c-7.33301 31.333 -21.833 52.5 -43.5 63.5
s-46.5 16.5 -74.5 16.5c-6.66699 0 -11.667 2 -15 6s-5 8.66699 -5 14c0.666992 9.33301 6.33398 15.666 17.001 18.999c12.667 4 27 11.833 43 23.5s32.167 25.834 48.5 42.501s32.166 35.167 47.499 55.5s29.166 41.166 41.499 62.499s22.5 42.333 30.5 63
s12.333 40 13 58c1.33301 17.333 -1.5 30.5 -8.5 39.5s-16.833 13.5 -29.5 13.5c-8.66699 0 -17.834 -1.33301 -27.501 -4s-19.167 -5.83398 -28.5 -9.50098s-18.166 -7.66699 -26.499 -12s-15.166 -8.5 -20.499 -12.5h1c-30.667 -20.667 -57.834 -49.167 -81.501 -85.5
s-45.5 -75.5 -65.5 -117.5l-29.5 -68l-33.5 -79l-27.5 -65c-7.66699 -18 -11.5 -27.333 -11.5 -28c-3.33301 -3.33301 -8.5 -6.16602 -15.5 -8.49902s-13.167 -3.5 -18.5 -3.5c-9.33301 0 -17 1.66699 -23 5s-9 9 -9 17zM500.994 154.999
c-0.666992 -0.666992 -1.33301 -1 -2 -1h1zM475.995 135.999v13.5c0 4.33301 -0.666992 8.83301 -2 13.5l25 -9c-4 -3.33301 -8 -6.5 -12 -9.5s-7.66699 -6.16699 -11 -9.5v1zM315.995 -92.001c20 0 39.1719 7.49805 57.5049 22.498s34.666 33.667 48.999 56
s26.166 46.833 35.499 73.5s15.333 51.667 18 75l-72.5 -57.5c-23.667 -19 -44.834 -37.167 -63.501 -54.5s-33.834 -33.666 -45.501 -48.999s-17.834 -28.333 -18.501 -39c-0.666992 -9.33301 3.33301 -16.166 12 -20.499s18 -6.5 28 -6.5z" />
    <glyph glyph-name="C" unicode="C" horiz-adv-x="452" 
d="M449 559c-0.666992 -6.66699 -3.33301 -11.8281 -8 -15.4951s-9.66699 -5.5 -15 -5.5c-10.667 0 -17.667 3.66699 -21 11c-4 8 -8.5 16.333 -13.5 25s-10.5 16.5 -16.5 23.5s-12.5 12.833 -19.5 17.5s-14.167 7 -21.5 7c-15.333 0 -30.833 -5.83301 -46.5 -17.5
s-31 -26.834 -46 -45.501s-29.333 -40 -43 -64s-26.334 -48.333 -38.001 -73s-21.834 -48.5 -30.501 -71.5s-15.667 -43.167 -21 -60.5c-4.66699 -18 -8.83398 -37.333 -12.501 -58s-6.16699 -41 -7.5 -61c-0.666992 -18.667 -0.333984 -36.5 0.999023 -53.5
s4 -31.833 8 -44.5s9.5 -22.834 16.5 -30.501s16.167 -11.5 27.5 -11.5c12.667 0 27.334 4.83301 44.001 14.5s33.834 22.167 51.501 37.5s36 33 55 53s37.333 40.333 55 61l50 60.5l42.5 51.5l-1 -1c3.33301 6.66699 7.33301 11.167 12 13.5s9 3.5 13 3.5
c14 0 20.667 -7 20 -21c0 -6.66699 -4 -13.667 -12 -21l3 3l-40 -52l-52.5 -65c-19 -22.667 -39 -45.167 -60 -67.5s-42.5 -42.5 -64.5 -60.5s-43.833 -32.5 -65.5 -43.5s-42.167 -16.5 -61.5 -16.5c-21.333 0 -39.333 5.66699 -54 17s-26.167 26.166 -34.5 44.499
s-14.166 39 -17.499 62s-4.33301 46.5 -3 70.5c1.33301 22 3.83301 44.167 7.5 66.5s8.16699 42.166 13.5 59.499c6.66699 21.333 15.334 45.166 26.001 71.499s23 53 37 80s29.333 53.5 46 79.5s34.5 49 53.5 69s38.833 36 59.5 48s42 18 64 18c14.667 0 28.167 -3 40.5 -9
s23.5 -13.833 33.5 -23.5s18.833 -20.5 26.5 -32.5s14.167 -24.333 19.5 -37v-6z" />
    <glyph glyph-name="D" unicode="D" horiz-adv-x="648" 
d="M209 518c1.33301 4.66699 4.00098 7.33789 8.00098 8.00488s7.66699 1 11 1c6 0 11.333 -1.66699 16 -5s6.66699 -8.33301 6 -15c0 -4 -1 -7.33301 -3 -10c-10 -21.333 -20.333 -49.166 -31 -83.499s-21 -70.833 -31 -109.5c18.667 36.667 39 72.5 61 107.5s45 66 69 93
s48.833 48.667 74.5 65s51.5 24.5 77.5 24.5c19.333 0 35.833 -5.33301 49.5 -16s24.667 -24.834 33 -42.501s14 -38.167 17 -61.5s3.83301 -48 2.5 -74c-1.33301 -27.333 -4.66602 -55 -9.99902 -83s-11.666 -54.667 -18.999 -80c17.333 11.333 33.833 23 49.5 35
s30.167 25.667 43.5 41c3.33301 3.33301 6 5.16602 8 5.49902s5 0.5 9 0.5c15.333 0 22.333 -6.66699 21 -20c0 -2.66699 -0.333008 -5 -1 -7s-2.66699 -4.66699 -6 -8v1c-18.667 -21.333 -40.334 -40.5 -65.001 -57.5s-51 -33.167 -79 -48.5
c-11.333 -30 -24.5 -59.333 -39.5 -88s-32 -55.834 -51 -81.501s-39.667 -49 -62 -70s-46.5 -38.5 -72.5 -52.5c-20.667 -11.333 -39.667 -17 -57 -17c-18.667 0 -33.5 5 -44.5 15s-15.833 25.667 -14.5 47c2 32 11.333 60.5 28 85.5s37.167 47.5 61.5 67.5
s50.833 37.667 79.5 53s55.667 29 81 41l25 12l15 47c5.33301 17.333 10.166 35.166 14.499 53.499s8 37 11 56s5.16699 37.5 6.5 55.5c0.666992 20.667 0.166992 39.834 -1.5 57.501s-4.83398 33.167 -9.50098 46.5s-10.334 23.833 -17.001 31.5s-14.334 11.5 -23.001 11.5
c-10.667 0 -22.167 -4.16699 -34.5 -12.5s-25.166 -18.166 -38.499 -29.499c-26 -22.667 -51.833 -53.667 -77.5 -93s-49.667 -81.5 -72 -126.5s-42.666 -90.167 -60.999 -135.5s-33.5 -86 -45.5 -122v-2c-4 -8 -7.33301 -12.667 -10 -14s-7.66699 -2 -15 -2h-6
c-3.33301 -0.666992 -6 -0.833984 -8 -0.500977s-3.66699 0.5 -5 0.5h-9c-5.33301 3.33301 -9 6.66602 -11 9.99902s-3.66699 7.66602 -5 12.999c3.33301 14 8 35.333 14 64s13.167 60.5 21.5 95.5l27 109.5c9.66699 38 20.167 73.333 31.5 106l-3 -2
c-8.66699 -5.33301 -16.834 -11 -24.501 -17s-14.5 -13.5 -20.5 -22.5s-11 -19.833 -15 -32.5s-6.33301 -28.667 -7 -48c-0.666992 -6 -3.16699 -11 -7.5 -15s-9.83301 -6 -16.5 -6c-5.33301 0 -10.5 2 -15.5 6s-7.16699 9 -6.5 15c1.33301 25.333 4.5 46.333 9.5 63
s11.667 30.667 20 42s18 21 29 29s23.167 16.333 36.5 25c14.667 9.33301 29.334 20.166 44.001 32.499s28.667 25.5 42 39.5zM443.001 138.004c-5.33301 -3.33301 -10.667 -5.33301 -16 -6c6.66699 11.333 12.667 24 18 38l23 -19zM252 -76.9961
c35.333 21.333 67.999 50.499 97.999 87.499s55.667 77.5 77 121.5l-65.5 -35.5c-23 -13 -44.5 -27.5 -64.5 -43.5s-36.667 -33.667 -50 -53s-20.666 -40.666 -21.999 -63.999c-1.33301 -13.333 1.33398 -20 8.00098 -20c5.33301 0 11.666 2.33301 18.999 7z" />
    <glyph glyph-name="E" unicode="E" horiz-adv-x="451" 
d="M321 685c8.66699 0 14.9951 -1.17285 18.9951 -3.50586s6.66699 -6.16602 8 -11.499c26.667 11.333 53.667 20.666 81 27.999s55.333 11 84 11c9.33301 0 17.5 -1.33301 24.5 -4s10.5 -8.66699 10.5 -18c-0.666992 -5.33301 -3.5 -10.166 -8.5 -14.499
s-11.167 -6.5 -18.5 -6.5c-3.33301 0.666992 -6.83301 1 -10.5 1h-9.5c-28 0 -56 -4.83301 -84 -14.5s-56 -21.167 -84 -34.5l-32.5 -90.5l-27.5 -76.5l-25.5 -68.5l-25.5 -65.5c19.333 8 39.333 14.833 60 20.5s43 8.5 67 8.5c7.33301 0 14.5 -1.33301 21.5 -4
s10.167 -8.66699 9.5 -18c0 -5.33301 -2.5 -10.166 -7.5 -14.499s-10.833 -6.5 -17.5 -6.5h-9c-1.33301 0 -2.83301 0.166992 -4.5 0.5s-3.16699 0.5 -4.5 0.5c-21.333 0 -43.333 -4.16699 -66 -12.5s-45.667 -17.833 -69 -28.5l-1 -1l-40.5 -100l-32.5 -78l1 1l-36 -95l5 3
l2 2c0.666992 0.666992 1.33398 1 2.00098 1l50 35c19.333 13.333 40.5 26.5 63.5 39.5s47.833 25 74.5 36s54.334 19.167 83.001 24.5c18.667 0 27.334 -7.33301 26.001 -22c0 -5.33301 -2 -9.5 -6 -12.5s-8.66699 -5.5 -14 -7.5
c-24 -4.66699 -47.167 -11.334 -69.5 -20.001s-43.166 -18.167 -62.499 -28.5s-37.333 -21.166 -54 -32.499l-46 -32c-18.667 -13.333 -36 -25.166 -52 -35.499s-30.333 -15.5 -43 -15.5c-4 0 -8.33301 0.333008 -13 1s-9 2 -13 4s-7.16699 5 -9.5 9s-3.5 9.66699 -3.5 17
c0.666992 11.333 5.5 28.5 14.5 51.5l37.5 94.5v-1l12.5 29.5l11.5 28l13 32l16 41.5h-3c-6 0 -11.333 1.66699 -16 5s-7.66699 8.66602 -9 15.999c0.666992 9.33301 5.16699 15.333 13.5 18s17.833 5.33398 28.5 8.00098l5 1l49.5 132l59.5 160
c-5.33301 -2 -10.5 -3.83301 -15.5 -5.5s-9.16699 -2.5 -12.5 -2.5c-6 0 -11.333 1.83301 -16 5.5s-6.66699 8.83398 -6 15.501s5.33398 12.334 14.001 17.001l57 30c0 2 0.666992 4.33301 2 7l-1 -1c1.33301 6 3 11.667 5 17s5 10.333 9 15s9 8.33398 15 11.001s14 4 24 4z
" />
    <glyph glyph-name="F" unicode="F" horiz-adv-x="443" 
d="M172 500c4.66699 0 9.99805 -0.832031 15.998 -2.49902s8.66699 -7.83398 8 -18.501c-0.666992 -6.66699 -5.83398 -12.5 -15.501 -17.5s-20.334 -9 -32.001 -12s-22.5 -5.33301 -32.5 -7s-15.333 -2.5 -16 -2.5c-20.667 0 -36.167 5 -46.5 15s-15.166 23.667 -14.499 41
c1.33301 22.667 12.166 47.334 32.499 74.001s50.333 51.5 90 74.5s88.5 42.333 146.5 58s125 23.5 201 23.5c10 0 19.167 -1.33301 27.5 -4s12.166 -8 11.499 -16c0 -6 -2.5 -11.167 -7.5 -15.5s-10.167 -6.5 -15.5 -6.5h-18c-3.33301 0 -6.16602 0.166992 -8.49902 0.5
s-5.16602 0.5 -8.49902 0.5c-23.333 0 -47.5 -1.16699 -72.5 -3.5s-48.833 -5.83301 -71.5 -10.5c0 -4 -1 -11 -3 -21s-4.5 -21.833 -7.5 -35.5s-6.5 -28.667 -10.5 -45l-12 -49.5c-7.33301 -30 -14.5 -57.833 -21.5 -83.5l-23.5 -85.5c21.333 5.33301 42.833 10 64.5 14
s42.834 7.66699 63.501 11l19 3c7.33301 0 13.5 -1.83301 18.5 -5.5s7.16699 -8.83398 6.5 -15.501c0 -4.66699 -2 -9 -6 -13s-8.66699 -6.33301 -14 -7l-85 -14c-28.667 -4.66699 -56 -11.667 -82 -21c-13.333 -48.667 -26.666 -94.334 -39.999 -137.001
s-26.5 -80 -39.5 -112s-25.667 -57.167 -38 -75.5s-24.166 -27.5 -35.499 -27.5s-21 4.66699 -29 14s-14.5 21 -19.5 35s-8.5 28.833 -10.5 44.5s-2.66699 30.167 -2 43.5c1.33301 24 5.83301 47.667 13.5 71s18.167 45.333 31.5 66s29 39.334 47 56.001s38 30.667 60 42
c12.667 43.333 24.167 85.333 34.5 126s20.5 78 30.5 112c7.33301 28 12.5 48.667 15.5 62s6.16699 24 9.5 32c-30 -10 -57 -21.833 -81 -35.5s-44.5 -28 -61.5 -43s-30.167 -29.667 -39.5 -44s-14.333 -26.5 -15 -36.5c0 -10.667 6 -16 18 -16
c14.667 0 35.667 6.33301 63 19zM93.998 11.001c-5.33301 0 -8.33398 -0.333008 -9.00098 -1l6 10c0.666992 -3.33301 1.33398 -5.5 2.00098 -6.5s1 -1.83301 1 -2.5zM86.9971 89.001c-0.666992 -10.667 -0.667969 -22.832 -0.000976562 -36.499s2 -24.5 4 -32.5
c12 25.333 25.167 59.666 39.5 102.999s28.833 90 43.5 140c-23.333 -20 -43.166 -46 -59.499 -78s-25.5 -64 -27.5 -96z" />
    <glyph glyph-name="G" unicode="G" horiz-adv-x="544" 
d="M55 467c-4.66699 2 -8.49414 4.33203 -11.4941 6.99902s-4.16699 6.66699 -3.5 12c0.666992 6 3.5 11 8.5 15s10.833 6 17.5 6c23.333 -7.33301 45.833 -12.5 67.5 -15.5s41.834 -4.5 60.501 -4.5c5.33301 0 8.33301 -0.166992 9 -0.5
s3.33398 -0.166016 8.00098 0.500977c7.33301 16 16.666 34 27.999 54s24.333 38.833 39 56.5s30.5 32.5 47.5 44.5s35.167 18 54.5 18c9.33301 0 18.5 -1.5 27.5 -4.5s16.667 -7.33301 23 -13s11.5 -12.667 15.5 -21s5.66699 -17.5 5 -27.5
c-1.33301 -20 -8.5 -38 -21.5 -54s-28.833 -29.833 -47.5 -41.5s-38.334 -21.334 -59.001 -29.001s-39.334 -13.5 -56.001 -17.5c-13.333 -32.667 -25 -65.667 -35 -99s-15.667 -64.333 -17 -93c-1.33301 -21.333 -0.5 -36.666 2.5 -45.999s7.16699 -14 12.5 -14
c10.667 0 24.334 6.33301 41.001 19s33.167 27.5 49.5 44.5s31.166 34.167 44.499 51.5s22 31 26 41c1.33301 6 5.5 10.667 12.5 14s14.833 5 23.5 5c9.33301 0 17 -2.33301 23 -7s8.66699 -11.667 8 -21l-28 -117c42 25.333 76 53 102 83
c3.33301 3.33301 6.16602 5.33301 8.49902 6s5.16602 1 8.49902 1c7.33301 0 12.833 -2.5 16.5 -7.5s5.16699 -9.16699 4.5 -12.5c0 -5.33301 -2 -10 -6 -14c-16 -20 -37.5 -39.667 -64.5 -59s-54.5 -37.666 -82.5 -54.999l-7 -24c-6.66699 -28 -14.667 -58.333 -24 -91
s-21.5 -63.167 -36.5 -91.5s-33.5 -51.833 -55.5 -70.5s-49 -28 -81 -28c-26.667 0 -47.334 8.33301 -62.001 25s-21.334 37.667 -20.001 63c1.33301 23.333 8.16602 45 20.499 65s28.5 39 48.5 57s42.833 35.333 68.5 52l79.5 50l18 74
c-12 -12.667 -24.5 -25.167 -37.5 -37.5s-26.333 -23.333 -40 -33s-27 -17.5 -40 -23.5s-25.5 -9 -37.5 -9c-15.333 0 -27.333 3.83301 -36 11.5s-15.167 17.167 -19.5 28.5s-7 23.333 -8 36s-1.16699 23.667 -0.5 33c1.33301 26.667 6.33301 56.167 15 88.5
s19.667 65.166 33 98.499h-2c-20 0 -41.5 1.5 -64.5 4.5s-47.167 8.5 -72.5 16.5h-1zM368.006 142.999c-5.33301 -3.33301 -11 -6.66699 -17 -10s-11.667 -7 -17 -11l3 13c0.666992 4 1.5 7.83301 2.5 11.5s2.16699 7.16699 3.5 10.5zM225.006 -82.002
c16 7.33301 29.668 18.333 41.001 33s21.166 31.5 29.499 50.5s15.5 39 21.5 60l17 60.5c-21.333 -13.333 -41.333 -26.5 -60 -39.5s-35.167 -26.5 -49.5 -40.5s-25.833 -28.333 -34.5 -43s-13.334 -30 -14.001 -46c-0.666992 -11.333 1.33301 -21 6 -29
s11.334 -12 20.001 -12c6 0 13.667 2 23 6zM369.007 606.998c-14.667 -9.33301 -28.833 -24.5 -42.5 -45.5s-25.5 -41.833 -35.5 -62.5c11.333 4 23.5 8.83301 36.5 14.5s25.167 12.5 36.5 20.5s20.833 17 28.5 27s11.834 21 12.501 33c0 13.333 -5.66699 20 -17 20
c-4.66699 0 -11.334 -2.33301 -20.001 -7h1z" />
    <glyph glyph-name="H" unicode="H" horiz-adv-x="440" 
d="M287 688c-9.33301 -32 -17.501 -64.333 -24.501 -97s-14.833 -66 -23.5 -100l-5 -24.5c-1.33301 -6.33301 -2.66602 -12.333 -3.99902 -18l-4 -17.5c-1.33301 -6 -3.33301 -13.667 -6 -23c20.667 11.333 41.834 21.333 63.501 30l65.5 26h1c4 1.33301 6.5 2.5 7.5 3.5
s3.16699 2.16699 6.5 3.5c4 15.333 7.66699 30.5 11 45.5l10 45.5l14 64c4.66699 21.333 10 42.666 16 63.999c1.33301 6.66699 6.66602 12.667 15.999 18s18.666 8 27.999 8c8 0 14 -2.5 18 -7.5s6 -10.833 6 -17.5c-3.33301 -21.333 -8.33301 -46.833 -15 -76.5
l-26 -113.5l53 24c0.666992 0.666992 1.33398 1 2.00098 1c1.33301 0 2.33301 0.333008 3 1c6.66699 0 12.667 -2 18 -6s7.66602 -8.66699 6.99902 -14c0 -4.66699 -3.5 -9.66699 -10.5 -15s-15.333 -10.5 -25 -15.5s-20 -9.66699 -31 -14l-29.5 -11.5l-29.5 -122.5
l-30.5 -122.5l-33 -137l-18 -70c-1.33301 -4 -3.83301 -7.83301 -7.5 -11.5s-9.5 -5.5 -17.5 -5.5h-2c-1.33301 0 -2.5 0.166992 -3.5 0.5s-2.16699 0.5 -3.5 0.5l-11 2c-8 1.33301 -13.833 3.83301 -17.5 7.5s-5.16699 10.167 -4.5 19.5l18 66l50 208l34 136l-75 -32.5
c-26 -11.667 -50 -24.167 -72 -37.5l-5 -23l-30.5 -118.5c-10.333 -39 -21 -74.167 -32 -105.5s-22.333 -56.666 -34 -75.999s-23.834 -29 -36.501 -29c-13.333 0 -25.5 9.5 -36.5 28.5s-15.167 47.833 -12.5 86.5c2.66699 52 14.834 98.333 36.501 139s49.167 74 82.5 100
c6.66699 25.333 12.667 50.333 18 75l17 75l11 45.5l12 50l12 49.5c4 16 8 31 12 45c1.33301 6.66699 6.5 12.5 15.5 17.5s18.167 7.5 27.5 7.5c6.66699 0 12.834 -1.5 18.501 -4.5s8.16699 -9.16699 7.5 -18.5c0 -0.666992 -0.166992 -1.16699 -0.5 -1.5
s-0.5 -0.833008 -0.5 -1.5v-2zM157.999 317c-15.333 -14 -29 -29 -41 -45c4 16 7.16699 29.333 9.5 40s3.83301 16.667 4.5 18zM58.999 59c2 0 5.49902 7.33203 10.499 21.999s10.167 32.834 15.5 54.501l17 69.5c6 24.667 11 47 15 67
c-14.667 -21.333 -26.667 -44.833 -36 -70.5s-14.666 -53.5 -15.999 -83.5c-0.666992 -6 -1.16699 -12.5 -1.5 -19.5s-0.833008 -13.333 -1.5 -19s-1.16699 -10.5 -1.5 -14.5s-0.833008 -6 -1.5 -6z" />
    <glyph glyph-name="I" unicode="I" horiz-adv-x="211" 
d="M65 134l28.5049 110.498l26 104l24.5 103.5c8 34.667 16 71.667 24 111l-14 -9c-10 -6 -19.333 -12.167 -28 -18.5s-16.334 -14.166 -23.001 -23.499s-12.167 -20.833 -16.5 -34.5s-6.83301 -30.5 -7.5 -50.5c-0.666992 -5.33301 -3.33398 -10 -8.00098 -14
s-10 -6 -16 -6s-11.333 2 -16 6s-6.66699 8.66699 -6 14c1.33301 26 4.66602 47.333 9.99902 64s12.166 30.667 20.499 42s18 21 29 29s22.833 16 35.5 24c13.333 8 27.166 17.333 41.499 28s29.5 25.667 45.5 45l-2 -3c2 4.66699 4.83301 7.33398 8.5 8.00098s7.5 1 11.5 1
c14.667 0 21.667 -7.66699 21 -23c-13.333 -72 -28.833 -144.5 -46.5 -217.5l-55.5 -218.5l-30 -122l-30 -120c-1.33301 -6 -5 -10.667 -11 -14s-11.667 -5 -17 -5c-10 0 -19.333 3 -28 9s-12.667 13 -12 21z" />
    <glyph glyph-name="J" unicode="J" horiz-adv-x="414" 
d="M12 -32c1.33301 24.667 8.83301 48.5039 22.5 71.5039s30.5 44.167 50.5 63.5s41.5 36.666 64.5 51.999s44.167 28.333 63.5 39c16 54 31.667 111.5 47 172.5s26 119.833 32 176.5c-5.33301 -4 -10.833 -7.66699 -16.5 -11s-10.834 -6.66602 -15.501 -9.99902
c-9.33301 -6 -18.166 -12 -26.499 -18s-15.666 -13.5 -21.999 -22.5s-11.5 -20 -15.5 -33s-6.66699 -29.5 -8 -49.5c0 -6.66699 -2.5 -12 -7.5 -16s-10.167 -6 -15.5 -6c-14.667 0 -22 7.33301 -22 22c1.33301 23.333 4.83301 43.166 10.5 59.499s12.667 30.5 21 42.5
s18 22.167 29 30.5s22.167 16.166 33.5 23.499s24.833 16.833 40.5 28.5s31.5 27.167 47.5 46.5c1.33301 1.33301 3.5 2.83301 6.5 4.5s6.5 2.5 10.5 2.5c9.33301 0 15.333 -4 18 -12s3.66699 -16.333 3 -25c-1.33301 -24 -4.5 -51.5 -9.5 -82.5s-10.833 -63 -17.5 -96
s-13.834 -65.667 -21.501 -98l-21.5 -88.5c22 11.333 42.833 23.333 62.5 36s37.167 27.667 52.5 45c3.33301 3.33301 6.16602 5.16602 8.49902 5.49902s5.16602 0.5 8.49902 0.5c14.667 0 21.334 -6.66699 20.001 -20c0 -3.33301 -1.5 -7.33301 -4.5 -12s-5.5 -8 -7.5 -10
c-20.667 -22 -44 -40.167 -70 -54.5l-79 -41.5h-1l-6 -3c-1.33301 -2 -2.16602 -4.33301 -2.49902 -7s-0.833008 -5.33398 -1.5 -8.00098v1l-26.5 -83.5c-10.333 -31.667 -23 -61.5 -38 -89.5s-32.667 -51.667 -53 -71s-44.166 -29 -71.499 -29
c-20.667 0 -37.834 6.5 -51.501 19.5s-20.5 30.833 -20.5 53.5v1zM229 157.004c-11.333 -6 -22.667 -13.333 -34 -22l7 27l4 12zM107.999 -41.9961c10 8 19.167 18.833 27.5 32.5s16 28.5 23 44.5s13.5 32.667 19.5 50l17 50c-14.667 -9.33301 -30 -20 -46 -32
s-30.667 -24.833 -44 -38.5s-24.5 -28 -33.5 -43s-13.833 -30.167 -14.5 -45.5c-0.666992 -11.333 1 -20 5 -26s9 -9 15 -9c10 0 20.333 5.33301 31 16v1z" />
    <glyph glyph-name="K" unicode="K" horiz-adv-x="432" 
d="M207 469l30.001 29.9961l77.5 82c25.667 27.333 45.5 52.666 59.5 75.999l-1 -1c2.66699 5.33301 8.66699 9.66602 18 12.999s18 5 26 5c7.33301 0 13.5 -1.66699 18.5 -5s7.5 -8.33301 7.5 -15c0 -2.66699 -1.33301 -6.66699 -4 -12v1c-5.33301 -10 -13 -21.5 -23 -34.5
s-21.667 -27 -35 -42l-43.5 -47l-47.5 -49.5l-65 -68.5c-20.667 -22.333 -37.667 -42.166 -51 -59.499c-1.33301 -5.33301 -2.66602 -9.83301 -3.99902 -13.5s-2.66602 -8.16699 -3.99902 -13.5c32 -50 65.333 -98.167 100 -144.5l106 -137.5l56 -69
c3.33301 -5.33301 5 -10.666 5 -15.999c-0.666992 -6.66699 -4 -11.667 -10 -15s-13.333 -5 -22 -5c-7.33301 0 -14.333 1 -21 3s-11.334 4.66699 -14.001 8l-59 74l-44.5 56l-40 51l-38.5 51.5l-40 58.5l-33.5 -121.5l-31.5 -121.5c-4 -9.33301 -13.667 -14 -29 -14
c-9.33301 0 -17.833 2.83301 -25.5 8.5s-11.167 11.834 -10.5 18.501l83 306c-0.666992 1.33301 -1.33398 3.33301 -2.00098 6s-1 4.66699 -1 6c0.666992 4.66699 2.16699 9.83398 4.5 15.501s5.16602 11.167 8.49902 16.5c6 22 11.167 41.667 15.5 59l13.5 51.5l13.5 51.5
c4.33301 17.333 9.5 37 15.5 59l-9 -4c-9.33301 -6 -18.166 -12.167 -26.499 -18.5s-15.833 -14 -22.5 -23s-12.167 -20 -16.5 -33s-6.83301 -29.5 -7.5 -49.5c-1.33301 -14 -9 -21 -23 -21c-16 0 -23.333 7 -22 21c1.33301 24.667 4.5 45.334 9.5 62.001
s11.667 30.834 20 42.501s18 21.334 29 29.001s22.833 15.5 35.5 23.5c12 8 25.667 17.667 41 29s30.666 26.666 45.999 45.999c3.33301 3.33301 6.5 5.16602 9.5 5.49902s5.5 0.5 7.5 0.5c6 0 11.167 -2.66699 15.5 -8s6.5 -9.66602 6.5 -12.999z" />
    <glyph glyph-name="L" unicode="L" horiz-adv-x="362" 
d="M18 -61c-4.66699 14.667 -6.67188 32.999 -6.00488 54.999c2 31.333 9.5 70.166 22.5 116.499s28.5 94.833 46.5 145.5s37.167 100.834 57.5 150.501l54.5 131.5c-8 -5.33301 -15.667 -11.166 -23 -17.499s-13.666 -14 -18.999 -23s-9.83301 -19.667 -13.5 -32
s-5.83398 -27.166 -6.50098 -44.499c-0.666992 -5.33301 -3.33398 -10.166 -8.00098 -14.499s-10.667 -6.5 -18 -6.5c-5.33301 0 -10 2.16699 -14 6.5s-5.66699 9.16602 -5 14.499c1.33301 24.667 4.5 45.334 9.5 62.001s11.667 30.667 20 42s17.833 21 28.5 29
s22.667 16 36 24s27 17.5 41 28.5s29.667 26.5 47 46.5l-3 -3c2.66699 5.33301 5.83398 8.33301 9.50098 9s6.83398 1 9.50098 1c6.66699 0 12.334 -1.66699 17.001 -5s6.66699 -8.33301 6 -15c0 -2.66699 -0.666992 -5.33398 -2 -8.00098l-15 -34l-22 -49l-34 -80
l-39 -95.5l-40 -103.5c-13.333 -35.333 -25.166 -69.5 -35.499 -102.5s-19 -64.333 -26 -94s-11.167 -55.5 -12.5 -77.5c-1.33301 -19.333 0 -33.166 4 -41.499s9.66699 -12.5 17 -12.5c12 0 27.333 5.33301 46 16s38.667 24.167 60 40.5s43 34.166 65 53.499l62 55
c5.33301 2.66699 10.666 4 15.999 4c15.333 0 22.333 -7 21 -21c0 -2.66699 -0.333008 -4.83398 -1 -6.50098s-3 -4.5 -7 -8.5l-7 -6l-59 -51.5c-23.333 -20.333 -47.5 -39.833 -72.5 -58.5s-49.667 -34.667 -74 -48s-45.166 -20 -62.499 -20
c-15.333 0 -29.666 4.5 -42.999 13.5s-22.666 20.833 -27.999 35.5v-1z" />
    <glyph glyph-name="M" unicode="M" horiz-adv-x="809" 
d="M673 617l2 4zM92 78c-8 13.333 -10.9922 33.0078 -8.99219 59.0078c0.666992 20.667 3.66699 44.667 9 72s11.5 55.333 18.5 84s14.333 56.5 22 83.5l20.5 72.5l-8 -4c-8 -5.33301 -15.833 -11 -23.5 -17s-14.334 -13.333 -20.001 -22s-10.5 -19.5 -14.5 -32.5
s-6.33301 -28.833 -7 -47.5c-0.666992 -5.33301 -3.5 -10.166 -8.5 -14.499s-10.5 -6.5 -16.5 -6.5s-11.167 2.16699 -15.5 6.5s-6.16602 9.16602 -5.49902 14.499c1.33301 25.333 4.5 46.166 9.5 62.499s11.667 30.166 20 41.499s17.833 21 28.5 29s22.667 16 36 24
s27 17.333 41 28s28.667 26 44 46l-2 -3c2 5.33301 4.83301 8.33301 8.5 9s7.5 1 11.5 1c15.333 0 22.333 -7.66699 21 -23l-57 -187.5c-18.667 -64.333 -32.667 -128.5 -42 -192.5c-1.33301 -6.66699 -2.33301 -12.667 -3 -18s-1.33398 -10 -2.00098 -14l15.5 35l20.5 47.5
l22 52.5l20 51l12 30v-1l49.5 126.5c17 43 33.667 81.833 50 116.5s31.666 63 45.999 85s26.5 33 36.5 33c13.333 0 22.166 -6.83301 26.499 -20.5s5.83301 -31.167 4.5 -52.5c-1.33301 -16 -3.33301 -34.5 -6 -55.5s-6.16699 -43.667 -10.5 -68l-14 -75.5l-14.5 -78
l-15.5 -76c-5 -25.333 -9.5 -50 -13.5 -74l-11 -67.5c-3.33301 -21 -5.33301 -39.5 -6 -55.5c5.33301 10 11.833 22.833 19.5 38.5l25 52.5l28.5 62l31 67l61.5 130.5c21 44.333 41.333 84.166 61 119.499s38 64.333 55 87s31.5 34 43.5 34
c10.667 0 19.167 -4.33301 25.5 -13s8.83301 -23.667 7.5 -45c-0.666992 -8.66699 -1.83398 -16.667 -3.50098 -24s-3.83398 -15.666 -6.50098 -24.999l-18 -59c-6.66699 -22 -14.334 -45.667 -23.001 -71l-34.5 -107.5c-11.667 -37.667 -22.5 -74.834 -32.5 -111.501
s-18.5 -71.334 -25.5 -104.001s-11.167 -60.334 -12.5 -83.001c-0.666992 -7.33301 -1.16699 -13.833 -1.5 -19.5s-1.5 -9.16699 -3.5 -10.5c4 0.666992 11.5 7.66699 22.5 21s25.833 32.833 44.5 58.5l68.5 96.5l95.5 137l-2 -2c2.66699 5.33301 6 8.33301 10 9s7 1 9 1
c6.66699 0 12.5 -2 17.5 -6s7.16699 -9 6.5 -15c0 -2 -0.166992 -3.66699 -0.5 -5s-1.5 -3.66602 -3.5 -6.99902l-23 -32l-23 -32l-88 -126c-24.667 -34.667 -46.334 -63 -65.001 -85s-35.167 -38 -49.5 -48s-27.833 -15 -40.5 -15c-14.667 0 -26 6.16699 -34 18.5
s-11.333 34.166 -10 65.499c1.33301 23.333 5.16602 49.666 11.499 78.999s14 60.166 23 92.499s19 65.333 30 99l33.5 99.5l25 81l23 76c-18.667 -32.667 -38.5 -71.334 -59.5 -116.001l-61.5 -133l-13 -26l-23 -51.5c-8.66699 -19.667 -18 -39.834 -28 -60.501
s-20.5 -41 -31.5 -61s-21.667 -38 -32 -54s-20.333 -28.833 -30 -38.5s-18.167 -14.5 -25.5 -14.5c-13.333 0 -24.166 6.66699 -32.499 20s-11.833 29.333 -10.5 48c0.666992 16.667 2.66699 36.334 6 59.001s7.16602 46.667 11.499 72l14 79l15.5 81l20 106
c6.66699 34.667 12.334 66.667 17.001 96c-15.333 -34.667 -31.333 -73.167 -48 -115.5l-48 -123.5c-3.33301 -5.33301 -5.83301 -11 -7.5 -17s-3.83398 -12 -6.50098 -18c-10.667 -28 -22 -56.167 -34 -84.5s-25.667 -56.5 -41 -84.5l-9.5 -15.5
c-4.33301 -7 -9.5 -14.167 -15.5 -21.5s-12.667 -13.666 -20 -18.999s-15 -8 -23 -8c-6.66699 0 -12.5 1.16699 -17.5 3.5s-9.16699 7.16602 -12.5 14.499z" />
    <glyph glyph-name="N" unicode="N" horiz-adv-x="630" 
d="M82 118c-1.33301 5.33301 -1.33691 12.0049 -0.00390625 20.0049c0.666992 20.667 4.33398 48.167 11.001 82.5s14.5 70.666 23.5 108.999l27.5 112.5l23 92l-7 -8c-20.667 -15.333 -38.167 -30.666 -52.5 -45.999s-22.166 -33.666 -23.499 -54.999
c-0.666992 -7.33301 0.166016 -15.333 2.49902 -24s5.5 -17.667 9.5 -27c2.66699 -2.66699 4 -4.83398 4 -6.50098s-0.333008 -3.5 -1 -5.5c0 -5.33301 -2.16699 -10 -6.5 -14s-10.166 -6 -17.499 -6s-13.333 4 -18 12s-8.5 17 -11.5 27s-5 19.5 -6 28.5
s-1.5 14.5 -1.5 16.5c0.666992 16 4.33398 30.5 11.001 43.5s15 25.333 25 37s21.5 22.834 34.5 33.501l40.5 32l39 31c12.667 10 23.667 20.333 33 31l-4 -3c2.66699 5.33301 5.83398 8.33301 9.50098 9s7.16699 1 10.5 1c16 0 23.333 -8 22 -24
c-2 -9.33301 -5.66699 -24 -11 -44l-19 -70l-24 -94l-25 -99.5c-8 -32.333 -15.167 -62.666 -21.5 -90.999s-10.5 -51.5 -12.5 -69.5c10 15.333 23.5 37.833 40.5 67.5l56.5 100.5l29 51.5l43 73l50.5 80.5c17.667 27.333 35.167 52.166 52.5 74.499
s33.833 40.666 49.5 54.999s29.167 21.5 40.5 21.5c12 0 20.833 -4.33301 26.5 -13s7.83398 -19.334 6.50098 -32.001c-0.666992 -10 -2.83398 -24.167 -6.50098 -42.5s-8.16699 -38.833 -13.5 -61.5l-17.5 -71.5l-18.5 -71.5l-14 -59.5
c-4 -17.667 -7.33301 -31.834 -10 -42.501l-17 -83c-5.33301 -27.333 -10.166 -53.166 -14.499 -77.499s-7.83301 -46.833 -10.5 -67.5s-4.33398 -38 -5.00098 -52c0 -5.33301 -0.333008 -9 -1 -11c7.33301 11.333 18.5 29.666 33.5 54.999l49.5 83l61 101
c21.333 35.333 42.333 66 63 92l-3 -2c2.66699 4 6 6.66699 10 8s7.66699 2 11 2c6 0 11 -1.83301 15 -5.5s6 -8.83398 6 -15.501c-0.666992 -2 -1.16699 -3.83301 -1.5 -5.5s-1.83301 -4.16699 -4.5 -7.5c-12 -15.333 -24.833 -33.833 -38.5 -55.5l-43.5 -69.5v1l-15 -27
l-35.5 -63.5c-14.333 -25 -29.5 -49 -45.5 -72s-31.833 -42.667 -47.5 -59s-29.5 -24.5 -41.5 -24.5c-12.667 0 -23 4.83301 -31 14.5s-11.333 29.167 -10 58.5c0.666992 18 3 39.5 7 64.5l12.5 76c4.33301 25.667 8.83301 50 13.5 73s8.33398 42.167 11.001 57.5l4 19
c4.66699 20 10.167 41.667 16.5 65l19.5 70l24.5 92c8.33301 30 14.166 57.667 17.499 83l-8 -8c-12 -14.667 -24.833 -32.167 -38.5 -52.5s-27.667 -42.333 -42 -66l-43.5 -73l-43 -73.5v1l-26 -47l-34 -58c-13.333 -22.667 -27 -44.334 -41 -65.001
s-27.667 -38.334 -41 -53.001s-25 -22 -35 -22c-10.667 0 -19.5 3.33301 -26.5 10s-10.5 16.667 -10.5 30v-1z" />
    <glyph glyph-name="O" unicode="O" horiz-adv-x="510" 
d="M198 377c2.66699 42 8.33203 79.833 16.999 113.5s18.667 64.167 30 91.5c-2 -4 -6 -7 -12 -9h1c-20 -7.33301 -38.167 -22.333 -54.5 -45s-30.5 -49.334 -42.5 -80.001s-21.5 -64 -28.5 -100s-11.5 -71 -13.5 -105c-3.33301 -65.333 2.83398 -116.333 18.501 -153
s38.5 -55 68.5 -55c28 0 55.333 13.333 82 40s51.334 62 74.001 106c-29.333 0.666992 -53.333 6.33398 -72 17.001s-33.334 25 -44.001 43s-17.667 38.833 -21 62.5s-4.33301 48.167 -3 73.5zM227.998 615c7.33301 0 12.999 -2.49414 16.999 -7.49414s6 -9.83301 6 -14.5
v-1c2 5.33301 4.33301 10.666 7 15.999s5.33398 10.333 8.00098 15c4.66699 9.33301 10.834 19.166 18.501 29.499s16.167 19.833 25.5 28.5s19.333 15.834 30 21.501s22 8.5 34 8.5c17.333 0 32.333 -6.83301 45 -20.5s22.834 -31.334 30.501 -53.001
s13.167 -45.834 16.5 -72.501s4.33301 -53 3 -79c-2 -42 -7.66699 -83 -17 -123s-22.333 -80.667 -39 -122c16.667 9.33301 33 21.166 49 35.499s30 29.166 42 44.499c1.33301 1.33301 3.83301 2.66602 7.5 3.99902s6.83398 2 9.50098 2c14.667 0 22 -7 22 -21
c-0.666992 -1.33301 -1.33398 -3 -2.00098 -5s-2 -4.66699 -4 -8c-8.66699 -10 -18.667 -20.5 -30 -31.5s-23.5 -21.333 -36.5 -31s-26.333 -18.334 -40 -26.001s-26.834 -13.834 -39.501 -18.501c-10 -22 -22.333 -44.667 -37 -68s-31.334 -44.666 -50.001 -63.999
s-39.167 -35.166 -61.5 -47.499s-46.5 -18.5 -72.5 -18.5c-48 0 -84.833 22.167 -110.5 66.5s-36.5 106.5 -32.5 186.5c2 44 8.5 88.167 19.5 132.5s25.167 84.5 42.5 120.5s37.833 65.167 61.5 87.5s49.5 33.5 77.5 33.5zM355.997 215.006l1 7l9 2zM356.997 222.006
c18.667 40.667 33.666 83.999 44.999 129.999s18.333 91.333 21 136c0.666992 18 0.5 37.333 -0.5 58s-3.33301 39.834 -7 57.501s-8.5 32.334 -14.5 44.001s-13.333 17.5 -22 17.5c-12 0 -24.333 -8.83301 -37 -26.5s-24.334 -40.334 -35.001 -68.001
s-19.667 -58.5 -27 -92.5s-12 -67 -14 -99c-1.33301 -19.333 -0.666016 -38.333 2.00098 -57s7.33398 -35.5 14.001 -50.5s15.5 -27 26.5 -36s24.5 -13.5 40.5 -13.5h8z" />
    <glyph glyph-name="P" unicode="P" horiz-adv-x="483" 
d="M8 -97c6.66699 45.333 15.6719 93.667 27.0049 145s23.666 103.833 36.999 157.5s27.5 107.667 42.5 162l44.5 158.5v-1c2.66699 11.333 5 20.333 7 27l5.5 18.5l5.5 18.5l8 27l-4 -2c-20 -16 -38.167 -32.167 -54.5 -48.5s-25.166 -35.166 -26.499 -56.499
c-0.666992 -6.66699 0.166016 -14.5 2.49902 -23.5s6.16602 -18.167 11.499 -27.5c1.33301 -2.66699 2.16602 -4.83398 2.49902 -6.50098s0.5 -3.16699 0.5 -4.5c-0.666992 -5.33301 -3.33398 -10.166 -8.00098 -14.499s-10.334 -6.5 -17.001 -6.5
c-7.33301 0 -13.333 4 -18 12s-8.5 17.167 -11.5 27.5s-5 20 -6 29s-1.5 14.5 -1.5 16.5c0.666992 15.333 4.16699 29.333 10.5 42s14.5 24.834 24.5 36.501s21.333 22.667 34 33s26 20.5 40 30.5c12.667 9.33301 25.167 19.166 37.5 29.499s24.166 21.833 35.499 34.5
c1.33301 1.33301 3.66602 2.83301 6.99902 4.5s6.33301 2.5 9 2.5c11.333 0 18 -2.5 20 -7.5s2.66699 -10.5 2 -16.5c-1.33301 -9.33301 -4.66602 -23 -9.99902 -41s-10.333 -36 -15 -54c27.333 22.667 56.333 42.5 87 59.5s59.334 25.5 86.001 25.5
c18.667 0 34 -3.66699 46 -11s21.5 -17.5 28.5 -30.5s11.667 -28 14 -45s3.16602 -34.833 2.49902 -53.5c-2 -44 -10.333 -85.5 -25 -124.5s-32.667 -73.167 -54 -102.5s-45.333 -52.5 -72 -69.5s-53 -25.5 -79 -25.5c-23.333 0 -44.666 6.16699 -63.999 18.5
s-35 34.833 -47 67.5l-19.5 -77.5l-20.5 -84.5l-19.5 -84l-17 -76l-13 -61.5c-3.66699 -17.667 -5.83398 -30.834 -6.50098 -39.501c-1.33301 -7.33301 -5 -12.5 -11 -15.5s-12.333 -4.5 -19 -4.5c-10 0 -19.167 3 -27.5 9s-12.166 13 -11.499 21v2zM197.005 403.001
c6 -46 16.502 -79.002 31.502 -99.002s32.167 -30 51.5 -30c16 0 33.333 6.83301 52 20.5s36.167 32.834 52.5 57.501s30.333 54.334 42 89.001s18.5 73 20.5 115c1.33301 24 -0.833984 44.667 -6.50098 62s-17.167 26 -34.5 26c-12.667 0 -26.834 -3.5 -42.501 -10.5
s-31.5 -16.167 -47.5 -27.5s-31.5 -24 -46.5 -38s-28.5 -28 -40.5 -42z" />
    <glyph glyph-name="Q" unicode="Q" horiz-adv-x="516" 
d="M205 84c-4 2 -6.33203 4.66895 -6.99902 8.00195s-1 5.66602 -1 6.99902c0 7.33301 2.66699 12.666 8 15.999s10.666 5 15.999 5c8.66699 0 17 -5.33301 25 -16l23 -30c14.667 14 28 29.833 40 47.5s22.667 36.167 32 55.5c-46 0 -81.5 16.833 -106.5 50.5
s-35.833 82.834 -32.5 147.501c1.33301 24 4.5 49 9.5 75s11.167 51.333 18.5 76l7 20c2.66699 7.33301 6 15.333 10 24c-21.333 -12 -40.833 -30 -58.5 -54s-33 -51.5 -46 -82.5s-23.333 -64 -31 -99s-12.5 -69.167 -14.5 -102.5c-2 -30 -1.16699 -57.167 2.5 -81.5
s9.5 -45.333 17.5 -63s18 -31.334 30 -41.001s25.667 -14.5 41 -14.5c14 0 29.667 4.66699 47 14l-18 23.5c-4.66699 6.33301 -9 11.5 -13 15.5zM247.001 623.002c3.33301 0 7.33887 -0.328125 12.0059 -0.995117s9 -1.66699 13 -3c6.66699 12 14 23.5 22 34.5
s16.333 20.667 25 29s17.667 15.166 27 20.499s18.666 8 27.999 8c18.667 0 34.5 -7.33301 47.5 -22s23.5 -33 31.5 -55s13.5 -46 16.5 -72s3.83301 -50.333 2.5 -73c-2 -44 -8.33301 -88 -19 -132s-22.667 -83.667 -36 -119c16 9.33301 32.167 21.166 48.5 35.499
s30.166 29.166 41.499 44.499c1.33301 1.33301 3.83301 2.83301 7.5 4.5s7.16699 2.5 10.5 2.5c6 0 11.167 -2.5 15.5 -7.5s6.16602 -10.167 5.49902 -15.5c0 -1.33301 -0.166992 -2.83301 -0.5 -4.5s-1.83301 -4.16699 -4.5 -7.5c-8.66699 -10 -18.834 -20.5 -30.501 -31.5
s-24 -21.333 -37 -31s-26.333 -18.334 -40 -26.001s-26.834 -13.834 -39.501 -18.501c-12 -25.333 -26 -50.5 -42 -75.5s-34.667 -47.5 -56 -67.5c13.333 -16.667 26.333 -31.667 39 -45s24.667 -20 36 -20c6.66699 0 14 4 22 12c1.33301 1.33301 3.66602 2.5 6.99902 3.5
s6.33301 1.5 9 1.5c8.66699 0 14.5 -2.33301 17.5 -7s4.5 -9.33398 4.5 -14.001c0 -6 -2.83301 -11.333 -8.5 -16s-12.167 -8.5 -19.5 -11.5s-14.333 -5.33301 -21 -7s-11 -2.5 -13 -2.5c-20.667 0 -40 8 -58 24s-35 34 -51 54
c-12.667 -7.33301 -26.334 -13.166 -41.001 -17.499s-29 -6.5 -43 -6.5c-51.333 0 -90 22 -116 66s-37 103.667 -33 179c2.66699 48 10.5 95.833 23.5 143.5s28.833 89.5 47.5 125.5c7.33301 14 16.166 28.167 26.499 42.5s21.833 27.333 34.5 39s26.334 21.167 41.001 28.5
s30.334 11 47.001 11zM359.007 212.007l3 6l10 3zM362.007 218.007c6.66699 16.667 13.666 35.499 20.999 56.499s14 43.333 20 67s11 48.167 15 73.5s6.66699 50.333 8 75c2 34 0.5 65.333 -4.5 94s-15.5 52.667 -31.5 72c-4 4.66699 -7 7 -9 7
c-13.333 0 -26.166 -10 -38.499 -30s-23.5 -44.667 -33.5 -74s-18.5 -60.666 -25.5 -93.999s-11.167 -63.333 -12.5 -90c-2.66699 -46.667 3.5 -84.5 18.5 -113.5s36.5 -43.5 64.5 -43.5h8z" />
    <glyph glyph-name="R" unicode="R" horiz-adv-x="526" 
d="M444 693c-21.333 0 -42.1689 -8.50098 -62.502 -25.501s-40 -39.5 -59 -67.5s-37.333 -60 -55 -96s-34.167 -73 -49.5 -111c12.667 18 28.834 37.5 48.501 58.5l61.5 63.5l47 46.5c15.333 15.667 29.166 30.834 41.499 45.501s22.333 28.5 30 41.5
s11.834 24.5 12.501 34.5c0.666992 3.33301 -0.666016 5.83301 -3.99902 7.5s-7 2.5 -11 2.5zM30.9971 39.999c2.66699 20 8.16699 48.8242 16.5 86.4912s18.166 79.334 29.499 125.001l36 141.5l36 135l20 73l-2 -1c-20.667 -15.333 -39 -31.166 -55 -47.499
s-24.667 -35.166 -26 -56.499c0 -7.33301 1 -15.333 3 -24s5.33301 -17.667 10 -27c2.66699 -2.66699 3.83398 -4.83398 3.50098 -6.50098s-0.5 -3.5 -0.5 -5.5c0 -5.33301 -2.5 -10 -7.5 -14s-10.5 -6 -16.5 -6c-7.33301 0 -13.333 4 -18 12s-8.5 17 -11.5 27
s-5.16699 19.5 -6.5 28.5s-2 14.5 -2 16.5c0.666992 15.333 4.33398 29.5 11.001 42.5s15 25.167 25 36.5s21.5 22.333 34.5 33l39.5 32l39 31c13.333 10.667 24.666 21.334 33.999 32.001l-3 -3c2.66699 5.33301 5.66699 8.33301 9 9s7 1 11 1
c15.333 0 22.333 -8.33301 21 -25l-22 -80c-5.33301 -19.333 -9.33301 -33.333 -12 -42s-4.66699 -14.667 -6 -18s-2.33301 -5.5 -3 -6.5s-1.5 -3.66699 -2.5 -8l-5.5 -23c-2.66699 -11 -6.33398 -27.833 -11.001 -50.5c16 36.667 33.333 71.834 52 105.501
s38.667 63.334 60 89.001s44 46.167 68 61.5s49.333 23 76 23c18.667 0 35.667 -4 51 -12s22.666 -22.333 21.999 -43c-0.666992 -13.333 -5.66699 -28 -15 -44s-21 -32.5 -35 -49.5s-29.667 -34.167 -47 -51.5l-51 -51l-41.5 -42c-13.667 -14 -26 -27.167 -37 -39.5
s-19.833 -23.833 -26.5 -34.5s-10.334 -19.667 -11.001 -27c-0.666992 -14.667 1 -35.667 5 -63s8.83301 -55.5 14.5 -84.5s11.667 -56.167 18 -81.5s11.166 -43 14.499 -53c8.66699 -23.333 15.667 -35 21 -35c3.33301 0 8.33301 4.33301 15 13
s14.334 20.334 23.001 35.001l28.5 49c10.333 18 20.5 36.667 30.5 56l40.5 73.5c13.667 23.667 27.167 44.167 40.5 61.5l-2 -3c1.33301 5.33301 3.83301 8.33301 7.5 9s7.83398 1 12.501 1c7.33301 0 12.833 -2.5 16.5 -7.5s5.16699 -9.5 4.5 -13.5
c0 -1.33301 -0.166992 -3.16602 -0.5 -5.49902s-2.16602 -5.16602 -5.49902 -8.49902c-9.33301 -11.333 -20.5 -28.666 -33.5 -51.999l-40.5 -75l-30.5 -55c-10.333 -18 -20.5 -34.667 -30.5 -50s-20 -28.833 -30 -40.5s-19.333 -19.834 -28 -24.501
c-5.33301 -2.66699 -10.666 -4.5 -15.999 -5.5s-10.666 -1.5 -15.999 -1.5c-19.333 0 -34.833 6.33301 -46.5 19s-20.5 27.334 -26.5 44.001c-4 10.667 -9.16699 28.667 -15.5 54s-12.333 52.833 -18 82.5s-10.334 58.667 -14.001 87s-5.5 51.166 -5.5 68.499
c-16 -44 -30.5 -86 -43.5 -126l-32.5 -102l-6 -23l-7.5 -26.5c-2.33301 -8.33301 -5.33301 -15.666 -9 -21.999s-8.33398 -11.5 -14.001 -15.5s-12.5 -6 -20.5 -6c-10 0 -18.167 2 -24.5 6s-9.16602 9.66699 -8.49902 17v1z" />
    <glyph glyph-name="S" unicode="S" horiz-adv-x="386" 
d="M146 546c-11.333 -12 -20.6699 -25.334 -28.0029 -40.001s-11.333 -30.334 -12 -47.001c-0.666992 -9.33301 0 -19.666 2 -30.999c2 -8 6.33301 -17.167 13 -27.5s14.5 -21.166 23.5 -32.499s19 -22.833 30 -34.5l32.5 -35.5c13.333 -15.333 25 -28 35 -38
s18.667 -20.667 26 -32c23.333 13.333 44.333 27.166 63 41.499s35 30.166 49 47.499c1.33301 1.33301 3.5 2.83301 6.5 4.5s6.5 2.5 10.5 2.5c5.33301 0 10.5 -2 15.5 -6s7.16699 -9.33301 6.5 -16c0 -1.33301 -0.666992 -3.33301 -2 -6s-2.66602 -5 -3.99902 -7
c-14.667 -17.333 -32.667 -33.666 -54 -48.999l-67 -46c23.333 -39.333 33.666 -79.333 30.999 -120c-1.33301 -24 -7.66602 -47.667 -18.999 -71s-26 -45.333 -44 -66s-38.667 -40 -62 -58s-47.5 -33.333 -72.5 -46s-50.333 -22.667 -76 -30s-49.5 -11 -71.5 -11
c-26 0 -48.333 6.16699 -67 18.5s-27.334 33.5 -26.001 63.5c2 35.333 13.833 68.5 35.5 99.5s48.167 59.5 79.5 85.5s64.833 49.667 100.5 71l97.5 57c2.66699 1.33301 4.5 2.33301 5.5 3s1.83301 1.16699 2.5 1.5s1.5 0.833008 2.5 1.5l4.5 3
c-8 11.333 -17.667 23.166 -29 35.499l-36 38.5h1l-35.5 38.5c-11.667 13 -22.5 25.667 -32.5 38s-18.5 24.333 -25.5 36s-11.833 22.5 -14.5 32.5c-2.66699 7.33301 -4.16699 14.5 -4.5 21.5s-0.166016 14.167 0.500977 21.5c1.33301 28.667 9.33301 54.5 24 77.5
s32.667 42.667 54 59s44.5 29 69.5 38s48.5 13.5 70.5 13.5c30.667 0 56.167 -7.16699 76.5 -21.5s29.833 -35.833 28.5 -64.5c-1.33301 -13.333 -5.5 -28.666 -12.5 -45.999s-18.167 -36.333 -33.5 -57c-6 -6 -12.333 -9 -19 -9c-16 0 -23.333 7.33301 -22 22
c0 1.33301 0.333008 3 1 5s2.33398 4.33301 5.00098 7c22 33.333 33.333 59.333 34 78c0.666992 14.667 -3.66602 25.5 -12.999 32.5s-21.333 10.5 -36 10.5c-18 0 -37.833 -4.66699 -59.5 -14s-41.167 -23.666 -58.5 -42.999zM-3.00391 -161.001
c29.333 6 58.9961 16.6689 88.9961 32.002s57.167 33.666 81.5 54.999s44.5 44.666 60.5 69.999s24.667 51.333 26 78c1.33301 15.333 0.333008 30 -3 44s-8.66602 28 -15.999 42l-17 -8l2 1l-90 -52c-32.667 -19.333 -63.5 -40.833 -92.5 -64.5s-53.667 -49 -74 -76
s-31.166 -55.5 -32.499 -85.5c-1.33301 -14.667 1.83398 -25 9.50098 -31s17.167 -9 28.5 -9c4 0 8.33301 0.333008 13 1s9.33398 1.66699 14.001 3h1z" />
    <glyph glyph-name="T" unicode="T" horiz-adv-x="493" 
d="M291 561l4.99609 1.99805c6.66699 0 12.334 -2.16699 17.001 -6.5s7 -8.83301 7 -13.5c0 -6.66699 -4.66699 -12.5 -14 -17.5s-19.5 -9.33301 -30.5 -13s-21.333 -6.33398 -31 -8.00098s-15.167 -2.5 -16.5 -2.5c-16.667 0 -29.167 3.83301 -37.5 11.5
s-12.166 17.834 -11.499 30.501c0.666992 18 12.667 40.667 36 68s56 53.833 98 79.5s93 47.834 153 66.501s127 28 201 28c8.66699 0 16.667 -1.33301 24 -4s10.666 -8.66699 9.99902 -18c-1.33301 -12 -6.5 -18.333 -15.5 -19s-18.167 -1 -27.5 -1h-6
c-32.667 0 -63.667 -2.16699 -93 -6.5s-57.333 -10.166 -84 -17.499l-23.5 -98.5l-22.5 -95.5c-20 -86 -40.833 -171 -62.5 -255s-45.834 -162.333 -72.501 -235c-2.66699 -10.667 -12 -16 -28 -16c-11.333 0 -20.333 3 -27 9s-9.66699 13.667 -9 23
c23.333 66.667 44.333 135.667 63 207s36.667 144.333 54 219l13.5 56.5l12.5 51.5l12.5 51l14.5 56c-27.333 -12 -51.666 -25.333 -72.999 -40s-39.666 -28.834 -54.999 -42.501s-27.166 -26.167 -35.499 -37.5s-12.5 -20.333 -12.5 -27c0 -2 2.33301 -3 7 -3
c6.66699 0 14.834 1.33301 24.501 4s21.167 7.33398 34.5 14.001h1z" />
    <glyph glyph-name="U" unicode="U" horiz-adv-x="612" 
d="M205 639c-2.66699 -7.33301 -6.99805 -21.333 -12.998 -42l-21 -75l-25 -95.5c-8.66699 -34.333 -16.834 -69.166 -24.501 -104.499s-14.167 -69.333 -19.5 -102s-8.66602 -61.667 -9.99902 -87c-1.33301 -21.333 -1.33301 -38.333 0 -51s4.33301 -19 9 -19
c8.66699 0 20.167 7.66699 34.5 23s30.166 35.666 47.499 60.999s35.833 54 55.5 86l58 97l54 96l44.5 82c8 15.333 15 28.166 21 38.499l13 22.5c5.33301 8.66699 11.333 15 18 19s13 6 19 6c14 0 21.667 -7.66699 23 -23
c-0.666992 -7.33301 -2.83398 -17.333 -6.50098 -30s-8.16699 -27.334 -13.5 -44.001l-32.5 -96.5c-13 -39 -25.667 -79.667 -38 -122s-23.166 -84.5 -32.499 -126.5s-14.666 -78.667 -15.999 -110l-3 -43c1.33301 0 3.83301 1.83301 7.5 5.5s7.66699 8 12 13l13.5 16
l12 14.5l7 10l62 81l67.5 87.5l76.5 94.5l-3 -3c2 4.66699 5 7.33398 9 8.00098s7.66699 1 11 1c6 0 11.167 -1.5 15.5 -4.5s6.5 -8.16699 6.5 -15.5c-0.666992 -4 -3 -8.33301 -7 -13l-73 -91c-23.333 -30 -43.666 -57.667 -60.999 -83
c-38 -50.667 -70.667 -91.834 -98 -123.501s-52 -47.5 -74 -47.5c-37.333 0 -54.333 32 -51 96c2 37.333 8.66699 79.833 20 127.5s24.666 96.167 39.999 145.5l-66.5 -109c-23 -36 -45.833 -68.167 -68.5 -96.5s-44.5 -51.333 -65.5 -69s-40.5 -26.5 -58.5 -26.5
c-24 0 -40.167 12 -48.5 36s-11.5 55.333 -9.5 94c1.33301 26.667 4.66602 56.334 9.99902 89.001s11.833 66 19.5 100s15.667 67.667 24 101s16.666 64 24.999 92l22.5 73.5l15 46.5c2 6.66699 6.33301 11.334 13 14.001s13.667 4 21 4c22.667 0 33.667 -8.33301 33 -25z
" />
    <glyph glyph-name="V" unicode="V" horiz-adv-x="366" 
d="M46 598c2.66699 8 6.83203 13.6709 12.499 17.0039s11.5 5 17.5 5c7.33301 0 14.833 -1.83301 22.5 -5.5s13.167 -8.83398 16.5 -15.501v-7c-1.33301 -3.33301 -2.33301 -7.83301 -3 -13.5l-3 -25.5c-1.33301 -20 -2.66602 -48.833 -3.99902 -86.5s-2.5 -79 -3.5 -124
s-2.16699 -90.833 -3.5 -137.5s-2.16602 -89 -2.49902 -127s-0.333008 -69.167 0 -93.5s1.16602 -36.5 2.49902 -36.5l7.5 18.5l21 50l31.5 73.5l38 88.5l41 94.5l40 93l50.5 116l29.5 69c2 3.33301 4.83301 6.33301 8.5 9s7.83398 4 12.501 4
c5.33301 0 10.5 -2.16699 15.5 -6.5s7.5 -8.83301 7.5 -13.5c0 -0.666992 -0.166992 -1.33398 -0.5 -2.00098s-0.5 -1.33398 -0.5 -2.00098l-74 -169c-2.66699 -6.66699 -5.83398 -14 -9.50098 -22s-6.5 -15 -8.5 -21l-52 -117.5l-52 -117l-45.5 -100
c-13.667 -29.667 -24.5 -51.834 -32.5 -66.501c-5.33301 -9.33301 -12 -16.333 -20 -21s-16 -7 -24 -7c-6.66699 0 -12.834 2.16699 -18.501 6.5s-10.167 9.83301 -13.5 16.5c-3.33301 14.667 -6.16602 37 -8.49902 67s-4 64.167 -5 102.5s-1.5 79 -1.5 122
s0.166992 84.833 0.5 125.5s1 78.5 2 113.5s2.16699 63.833 3.5 86.5c0.666992 7.33301 1 14.5 1 21.5s0.333008 12.5 1 16.5z" />
    <glyph glyph-name="W" unicode="W" horiz-adv-x="588" 
d="M239 702c-7.33301 -16.667 -15.835 -39.4961 -25.502 -68.4961s-19.834 -61.667 -30.501 -98s-21.334 -74.666 -32.001 -114.999s-20.334 -80 -29.001 -119s-16 -76.333 -22 -112s-9.66699 -66.5 -11 -92.5c-0.666992 -6 -1 -13 -1 -21s0.166992 -15.5 0.5 -22.5
s1.5 -13 3.5 -18s4.66699 -7.5 8 -7.5s9 2.5 17 7.5s18.667 13.167 32 24.5c24 22.667 46.833 50.167 68.5 82.5s42 66.5 61 102.5s36.667 72.5 53 109.5s31.166 72.167 44.499 105.5c4 8.66699 11 13 21 13c12 0 19.5 -3.66699 22.5 -11s3.83301 -20 2.5 -38
c-1.33301 -12.667 -2.83301 -28.167 -4.5 -46.5l-5.5 -59.5c-3.33301 -28.667 -6.16602 -58 -8.49902 -88s-4.16602 -59 -5.49902 -87l-3.5 -66.5c-1 -19 -1.5 -32.167 -1.5 -39.5c1.33301 2 3.66602 4.66699 6.99902 8c54.667 81.333 95.834 169 123.501 263
s44.167 190 49.5 288c0 14 7.66699 21 23 21s23 -7 23 -21c-3.33301 -50.667 -8.83301 -100.834 -16.5 -150.501s-19.167 -99.167 -34.5 -148.5c-3.33301 -10.667 -8.83301 -26 -16.5 -46s-16.667 -41.667 -27 -65s-21.666 -47 -33.999 -71s-25 -45.833 -38 -65.5
s-25.667 -35.834 -38 -48.501s-23.833 -19 -34.5 -19c-12.667 0 -22.667 4.5 -30 13.5s-12.666 21.333 -15.999 37s-5.33301 34 -6 55s-0.333984 43.167 0.999023 66.5c0.666992 17.333 1.66699 35.5 3 54.5s3 37.167 5 54.5c-21.333 -42.667 -45.333 -84.334 -72 -125.001
s-56.334 -76.334 -89.001 -107.001c-13.333 -13.333 -27.666 -25.5 -42.999 -36.5s-31.333 -16.5 -48 -16.5c-22 0 -39.167 10 -51.5 30s-17.166 52 -14.499 96c1.33301 26.667 4.83301 57 10.5 91s12.834 69.667 21.501 107s18.167 75.333 28.5 114s21 76 32 112
l32.5 101.5c10.667 31.667 20.334 59.167 29.001 82.5c3.33301 7.33301 8.83301 12.666 16.5 15.999s15.167 5 22.5 5c9.33301 0 17 -2 23 -6s8.33301 -10.667 7 -20v1z" />
    <glyph glyph-name="X" unicode="X" horiz-adv-x="478" 
d="M157 681c-0.666992 2.66699 -0.665039 5.33398 0.00195312 8.00098c0 6.66699 2.83301 11.667 8.5 15s12.167 5 19.5 5c8 0 16.333 -2.33301 25 -7s13.667 -8.66699 15 -12c7.33301 -32.667 14 -68.667 20 -108l17 -110l10 -73l48 75.5l42.5 69l34 58.5l23.5 43
c3.33301 6 10.666 11.5 21.999 16.5s21 7.5 29 7.5c15.333 0 23 -6.33301 23 -19c0 -0.666992 -0.333008 -1.33398 -1 -2.00098s-1 -1.66699 -1 -3c-5.33301 -12 -14.5 -29.833 -27.5 -53.5s-28.833 -50.834 -47.5 -81.501l-61.5 -100l-68.5 -108
c6.66699 -39.333 14 -77.166 22 -113.499s16.5 -68.833 25.5 -97.5s18.667 -51.5 29 -68.5s21.5 -25.5 33.5 -25.5c11.333 0 26 13 44 39l-2 -2c4.66699 6.66699 11.667 10 21 10c7.33301 0 12.833 -2 16.5 -6s5.5 -8.66699 5.5 -14c0 -4 -2 -8 -6 -12
c-12 -17.333 -26.5 -31.5 -43.5 -42.5s-34.5 -16.5 -52.5 -16.5c-18.667 0 -35.334 6.83301 -50.001 20.5s-27.834 32.5 -39.501 56.5s-22.167 52.333 -31.5 85s-18 68 -26 106l-50.5 -74.5c-17 -25 -33.333 -47.5 -49 -67.5s-30.167 -36.167 -43.5 -48.5
s-24 -18.5 -32 -18.5c-9.33301 0 -18.833 3 -28.5 9s-14.167 12.333 -13.5 19c0 3.33301 0.833008 6.5 2.5 9.5s5.83398 5.83301 12.501 8.5c4.66699 2.66699 11.5 9.5 20.5 20.5s19.333 24.333 31 40l37 51l38 54l34 50l25.5 38.5l-2 13v-1l-10.5 67.5
c-3.66699 23 -7.16699 46.167 -10.5 69.5c-5.33301 39.333 -11 77.833 -17 115.5s-12.667 72.5 -20 104.5z" />
    <glyph glyph-name="Y" unicode="Y" horiz-adv-x="471" 
d="M235 631c-15.333 -10.667 -29.501 -26.6621 -42.501 -47.9951s-24.167 -45.333 -33.5 -72s-16.833 -54.5 -22.5 -83.5s-9.16699 -56.167 -10.5 -81.5c-2.66699 -45.333 0.333008 -77.833 9 -97.5s17.334 -29.5 26.001 -29.5s18.667 5 30 15s22.833 23 34.5 39
s23.5 34 35.5 54s23.5 40.333 34.5 61l30.5 58.5c9.33301 18.333 17 34.166 23 47.499l29 57c2.66699 2 6.16699 4.33301 10.5 7s8.83301 4 13.5 4s8.33398 -1.66699 11.001 -5s4.5 -7.33301 5.5 -12s1.5 -9.5 1.5 -14.5v-12.5l-8 -63
c-3.33301 -28 -7.66602 -59.833 -12.999 -95.5s-12.333 -72.834 -21 -111.501c18 12 34.333 23.833 49 35.5s26.667 23.167 36 34.5c3.33301 3.33301 6.66602 5.16602 9.99902 5.49902s5.66602 0.5 6.99902 0.5c5.33301 0 10.5 -2.5 15.5 -7.5s7.16699 -9.83301 6.5 -14.5
c0 -1.33301 -0.333008 -3 -1 -5s-2.33398 -4.66699 -5.00098 -8c-12.667 -14 -30.334 -29.5 -53.001 -46.5s-48.667 -35.167 -78 -54.5c-11.333 -47.333 -25.166 -95.5 -41.499 -144.5s-34.5 -91.833 -54.5 -128.5c-10.667 -18 -23 -33.667 -37 -47
s-28.833 -24.5 -44.5 -33.5s-31.334 -15.833 -47.001 -20.5s-30.5 -7 -44.5 -7c-12.667 0 -24.5 1.66699 -35.5 5s-20.5 8.16602 -28.5 14.499s-14.333 14.333 -19 24s-6.66699 21.167 -6 34.5s4.33398 27.333 11.001 42s14.5 28.667 23.5 42s18.333 25.666 28 36.999
s18.167 20.666 25.5 27.999c30 31.333 62.333 60 97 86s70 50.667 106 74l13 55.5c3.33301 13.667 6 25.834 8 36.501s3.66699 21.334 5 32.001l5 41c-12 -21.333 -25.167 -43 -39.5 -65s-29.333 -42 -45 -60s-32 -32.667 -49 -44s-33.833 -17 -50.5 -17
c-20 0.666992 -36 7.16699 -48 19.5s-21.167 27.166 -27.5 44.499s-10.333 36 -12 56s-1.83398 38.333 -0.500977 55c0.666992 20 3.16699 41.833 7.5 65.5s10 47.334 17 71.001s15.333 46.5 25 68.5s20.334 41.5 32.001 58.5s24.334 30.5 38.001 40.5s27.834 15 42.501 15
c8.66699 0 15.5 -1.83301 20.5 -5.5s7.5 -7.83398 7.5 -12.501c-0.666992 -3.33301 -1.83398 -6.33301 -3.50098 -9s-5.16699 -5.66699 -10.5 -9h2zM317.999 157.005c-6.66699 -4 -12.832 -8 -18.499 -12s-11.834 -8 -18.501 -12l11 39zM88.001 -145.995
c26.667 0 50.1699 8.49902 70.5029 25.499s38.166 39 53.499 66s28.666 57 39.999 90s21 65.5 29 97.5l-79 -59.5c-27.333 -21 -53 -44.167 -77 -69.5c-5.33301 -5.33301 -11.833 -12.5 -19.5 -21.5s-15.334 -18.667 -23.001 -29s-14.167 -21.166 -19.5 -32.499
s-8.33301 -22.333 -9 -33c-1.33301 -12 1.5 -20.667 8.5 -26s15.5 -8 25.5 -8z" />
    <glyph glyph-name="Z" unicode="Z" horiz-adv-x="469" 
d="M142 582c-6 0 -11.167 2.00098 -15.5 6.00098s-6.16602 9 -5.49902 15c0 4.66699 4.33301 8.5 13 11.5s20 5.5 34 7.5s30 3.33301 48 4s36.667 1 56 1c23.333 0 46.833 -0.833008 70.5 -2.5s44.834 -5.33398 63.501 -11.001s33.667 -13.334 45 -23.001
s16.666 -22.5 15.999 -38.5c0 -6 -4.66699 -20.667 -14 -44s-21.5 -51.666 -36.5 -84.999l-51.5 -110l-59.5 -117.5l-59.5 -108c-19.333 -33.667 -36.666 -61.167 -51.999 -82.5c8.66699 -1.33301 17.334 -3.33301 26.001 -6s17.334 -5 26.001 -7l61 -13.5
c20 -4.33301 39 -6.5 57 -6.5c12.667 0 25.167 1.83301 37.5 5.5s23.166 9.16699 32.499 16.5c2 2.66699 6.66699 4 14 4s13 -2 17 -6s5.66699 -9 5 -15c0 -2 -0.5 -4.5 -1.5 -7.5s-4.5 -5.83301 -10.5 -8.5l3 1c-13.333 -11.333 -28.5 -19.5 -45.5 -24.5
s-34.833 -7.5 -53.5 -7.5c-21.333 0 -42.5 2 -63.5 6s-41.5 8.66699 -61.5 14l-40.5 9.5c-13 3 -25.167 5.16699 -36.5 6.5c-19.333 -17.333 -38 -29.166 -56 -35.499s-33.333 -9.5 -46 -9.5c-5.33301 0 -11 0.5 -17 1.5s-11.333 2.66699 -16 5
s-8.33398 5.66602 -11.001 9.99902s-4 9.83301 -4 16.5c0.666992 8.66699 5 16.5 13 23.5s17.5 12.833 28.5 17.5s22.833 8.33398 35.5 11.001s23.667 4 33 4c14 15.333 30.5 38.5 49.5 69.5s38.833 65.5 59.5 103.5l61.5 118.5l55 114.5
c16.333 35.333 29.666 65.5 39.999 90.5s15.5 40.833 15.5 47.5s-3.83301 12 -11.5 16s-17.834 7.16699 -30.501 9.5s-27 4 -43 5s-32 1.5 -48 1.5c-18 0 -35 -0.333008 -51 -1s-30 -1.33398 -42 -2.00098c-6 -0.666992 -12.167 -1 -18.5 -1h-14.5zM56 -34.999
c6 2 12.832 5.16699 20.499 9.5s16.5 10.5 26.5 18.5l9 -26h-2c-31.333 -4 -48.666 -7.66699 -51.999 -11c0 5.33301 -2.66699 8 -8 8l6 2v-1z" />
    <glyph glyph-name="bracketleft" unicode="[" horiz-adv-x="238" 
d="M246 639c4.66699 0 8.66797 -1.5 12.001 -4.5s4.66602 -6.5 3.99902 -10.5l-1 -32c-0.666992 -4 -2.66699 -7.5 -6 -10.5s-7.33301 -4.5 -12 -4.5h-143l-30 -571h143c4.66699 0 8.5 -1.5 11.5 -4.5s4.5 -6.5 4.5 -10.5l-2 -32c0 -4 -1.66699 -7.5 -5 -10.5
s-7.33301 -4.5 -12 -4.5h-193c-5.33301 0 -9.5 1.5 -12.5 4.5s-4.5 6.5 -4.5 10.5l35 665c0.666992 4 2.5 7.5 5.5 10.5s7.16699 4.5 12.5 4.5h193z" />
    <glyph glyph-name="backslash" unicode="\" horiz-adv-x="214" 
d="M207 -9c1.33301 -4 0.170898 -7.66602 -3.49609 -10.999s-7.83398 -5.33301 -12.501 -6l-31 -8c-4.66699 -0.666992 -8.83398 0.166016 -12.501 2.49902s-6.16699 5.5 -7.5 9.5l-104 683c-1.33301 4 -0.333008 7.66699 3 11s7.66602 5.33301 12.999 6l32 8
c11.333 1.33301 17.666 -2.66699 18.999 -12z" />
    <glyph glyph-name="bracketright" unicode="]" horiz-adv-x="238" 
d="M246 639c4.66699 0 8.66895 -1.5 12.002 -4.5s4.66602 -6.5 3.99902 -10.5l-35 -665c0 -4 -1.66699 -7.5 -5 -10.5s-7.33301 -4.5 -12 -4.5h-193c-5.33301 0 -9.5 1.5 -12.5 4.5s-4.5 6.5 -4.5 10.5l2 32c0 4 1.66699 7.5 5 10.5s7.66602 4.5 12.999 4.5h142l30 571h-142
c-5.33301 0 -9.5 1.5 -12.5 4.5s-4.16699 6.5 -3.5 10.5l1 32c0.666992 4 2.5 7.5 5.5 10.5s7.16699 4.5 12.5 4.5h193z" />
    <glyph glyph-name="asciicircum" unicode="^" horiz-adv-x="248" 
d="M41 417c-7.33301 0 -12.499 2.16699 -15.499 6.5s-2.83301 9.16602 0.5 14.499l100 193c0.666992 2 2.66699 3.83301 6 5.5s6.33301 2.5 9 2.5h28c2 0 4.66699 -0.833008 8 -2.5s5.66602 -3.5 6.99902 -5.5l77 -193c3.33301 -5.33301 3.33301 -10.166 0 -14.499
s-8.66602 -6.5 -15.999 -6.5h-28c-2.66699 0 -5.33398 0.833008 -8.00098 2.5s-4.66699 3.16699 -6 4.5l-53 130l-65 -130c-1.33301 -1.33301 -3.83301 -2.83301 -7.5 -4.5s-6.5 -2.5 -8.5 -2.5h-28z" />
    <glyph glyph-name="underscore" unicode="_" 
d="M549 143c0 -4 -1.66797 -7.33301 -5.00098 -10s-7.66602 -4 -12.999 -4h-350c-4.66699 0 -8.66699 1.33301 -12 4s-5 6 -5 10l2 38c0 3.33301 2 6.5 6 9.5s8.33301 4.5 13 4.5h350c5.33301 0 9.33301 -1.5 12 -4.5s4 -6.16699 4 -9.5z" />
    <glyph glyph-name="grave" unicode="`" horiz-adv-x="121" 
d="M148 602c-1.33301 -13.333 -9.33105 -20.0029 -23.998 -20.0029c-5.33301 0 -12.833 4.16699 -22.5 12.5s-19.334 17.833 -29.001 28.5s-18.167 21.334 -25.5 32.001s-11 18.334 -11 23.001c0.666992 7.33301 5.5 15.166 14.5 23.499s17.5 12.5 25.5 12.5
c4.66699 0 8.5 -1.16699 11.5 -3.5s5.16699 -5.16602 6.5 -8.49902c6.66699 -19.333 13.167 -34.833 19.5 -46.5s15.166 -24.5 26.499 -38.5c2 -2 3.83301 -4.16699 5.5 -6.5s2.5 -5.16602 2.5 -8.49902z" />
    <glyph glyph-name="a" unicode="a" horiz-adv-x="310" 
d="M180 382l10.001 -7.00488c4.66699 -3.33301 9.33398 -7.33301 14.001 -12s8.83398 -10 12.501 -16s5.5 -12 5.5 -18c-0.666992 -5.33301 -3.16699 -10 -7.5 -14s-9.83301 -6 -16.5 -6c-4.66699 0 -8.66699 1.66699 -12 5s-6.66602 7 -9.99902 11l-18 21
c-6.66699 3.33301 -12.334 5 -17.001 5c-12.667 0 -25.167 -4.66699 -37.5 -14s-23.666 -20.666 -33.999 -33.999s-18.833 -28 -25.5 -44s-10.334 -30.333 -11.001 -43c-0.666992 -9.33301 -0.333984 -16.166 0.999023 -20.499s2.66602 -6.5 3.99902 -6.5
c6 0 13.333 3.16699 22 9.5s17.667 13.666 27 21.999s18.333 17.166 27 26.499l22 23h-1c18 20 32 30 42 30c4 0 8.33301 -1.83301 13 -5.5s6.66699 -8.5 6 -14.5c0 -2 -1.33301 -6.66699 -4 -14s-5.66699 -14.666 -9 -21.999l-20.5 -53
c-7.66699 -20 -11.834 -38 -12.501 -54l-2 -14c7.33301 0 17.666 6.16699 30.999 18.5s27.5 27.333 42.5 45l44.5 55l38 49.5l13 16c3.33301 3.33301 6.33301 5.33301 9 6s5.66699 1 9 1c6.66699 0 12 -2 16 -6s6 -8.33301 6 -13c0 -3.33301 -1.16699 -6.5 -3.5 -9.5
l-10.5 -13.5l-39.5 -50.5c-15.667 -19.667 -32 -39 -49 -58s-34 -35.833 -51 -50.5s-32.167 -24 -45.5 -28c-4 -1.33301 -8 -2.33301 -12 -3s-9 -1 -15 -1c-9.33301 0 -18.166 2.33301 -26.499 7s-14.833 13.334 -19.5 26.001l-1 6v-3c-0.666992 4.66699 -0.666992 11 0 19
c0 5.33301 0.333008 10.833 1 16.5s1.66699 11.834 3 18.501c-9.33301 -7.33301 -19.5 -13.666 -30.5 -18.999s-22.167 -8 -33.5 -8c-15.333 0 -29 5.5 -41 16.5s-17.333 29.5 -16 55.5c0.666992 18 5.5 37.167 14.5 57.5s21 39.333 36 57s32.5 32.334 52.5 44.001
s41.667 17.5 65 17.5c8.66699 0 16.667 -0.666992 24 -2s14.333 -4 21 -8z" />
    <glyph glyph-name="b" unicode="b" horiz-adv-x="275" 
d="M254 608c-0.666992 -16 -7.00684 -36.1689 -19.0068 -60.502s-26.5 -50 -43.5 -77s-34.667 -53.5 -53 -79.5l-48.5 -68c-7.33301 -10 -13.166 -18.5 -17.499 -25.5s-7.83301 -12.167 -10.5 -15.5c-2 -7.33301 -3 -9.66602 -3 -6.99902v-3c15.333 18.667 31.333 34 48 46
s33.334 18 50.001 18c10.667 0 19.334 -2.33301 26.001 -7s11.834 -10.834 15.501 -18.501s6.16699 -16.167 7.5 -25.5s1.66602 -19 0.999023 -29c-0.666992 -5.33301 -1.16699 -10.166 -1.5 -14.499s-1.16602 -9.16602 -2.49902 -14.499
c15.333 9.33301 28.333 20.666 39 33.999l36 46c3.33301 2.66699 6.33301 4.66699 9 6s6 2 10 2c5.33301 0 10.166 -2 14.499 -6s6.5 -8.66699 6.5 -14c0 -2.66699 -1.33301 -6 -4 -10l-26.5 -35c-8.33301 -10.667 -17.166 -20.5 -26.499 -29.5
s-19.666 -17.167 -30.999 -24.5s-24.666 -14 -39.999 -20c-12.667 -30.667 -29.5 -52.667 -50.5 -66s-40.167 -20 -57.5 -20c-12.667 0 -24 3.16699 -34 9.5s-14.667 16.166 -14 29.499c0.666992 12 4.16699 22 10.5 30s14 14.5 23 19.5s18.667 9 29 12l29.5 8.5h1
c2.66699 0 3.66699 0 3 0s0.333008 0.333008 3 1c2 6 4 14.167 6 24.5s3.33301 20.833 4 31.5c0.666992 9.33301 0.833984 17.166 0.500977 23.499s-1.5 9.5 -3.5 9.5c-6 0 -13.333 -4 -22 -12s-17.5 -17.667 -26.5 -29s-17.333 -23.166 -25 -35.499
s-13.5 -23.166 -17.5 -32.499c-3.33301 -9.33301 -9.33301 -16.166 -18 -20.499s-16.667 -6.5 -24 -6.5c-12.667 0 -20.5 3.33301 -23.5 10s-3.83301 16.667 -2.5 30c0.666992 16 4.5 42 11.5 78s17.333 75.333 31 118s30.5 84.5 50.5 125.5s43 74.5 69 100.5
c11.333 11.333 22.5 20 33.5 26s22.5 9 34.5 9c10 0 19.5 -2.83301 28.5 -8.5s14.167 -14.5 15.5 -26.5zM209.993 596.998h-2.00098c1.33301 4 2 7.66699 2 11c0 -2 3 -3 9 -3c-1.33301 -0.666992 -2.66602 -1.66699 -3.99902 -3zM39.9922 322.998l22.5 30.5l31.5 44.5
c-5.33301 -15.333 -10 -30.333 -14 -45l-11 -42zM207.992 596.998c-25.333 -20.667 -47.333 -49.332 -66 -85.999s-34.667 -74.334 -48 -113.001l35.5 52.5c12.333 18.333 23.833 36.5 34.5 54.5s20 35 28 51s13.333 29.667 16 41zM76.9922 133
c0.666992 0 1.33203 0.166992 1.99902 0.5s1.33398 0.5 2.00098 0.5c-0.666992 -0.666992 -1 -1.66699 -1 -3zM80.9902 134c4.66699 2.66699 9.66699 6.66699 15 12c-8 -3.33301 -13 -7.33301 -15 -12zM129.99 158l3 0.000976562c-5.33301 -1.33301 -11.5 -3 -18.5 -5
s-13.167 -4.33301 -18.5 -7c5.33301 5.33301 10 11.166 14 17.499l11 17.5l19 -20z" />
    <glyph glyph-name="c" unicode="c" horiz-adv-x="220" 
d="M202 346c0 -1.33301 -0.995117 -5.5 -2.99512 -12.5s-4.66699 -14.5 -8 -22.5s-7.16602 -15.167 -11.499 -21.5s-9.16602 -9.5 -14.499 -9.5c-6.66699 0 -12 2.66699 -16 8s-6 9.33301 -6 12v3.5c0 1 1 2.83301 3 5.5c3.33301 7.33301 6 14.166 8 20.499
s3.33301 12.166 4 17.499c0 6.66699 -2.33301 10 -7 10c-16.667 0 -32.334 -6.33301 -47.001 -19s-27.667 -28.167 -39 -46.5s-20.333 -38.166 -27 -59.499s-10.334 -40.666 -11.001 -57.999c-1.33301 -14.667 -0.166016 -26.667 3.50098 -36s9.16699 -14 16.5 -14
c10 0 22 5.83301 36 17.5s28.667 26 44 43s30.333 35 45 54l39 51.5c2 2.66699 4 5.5 6 8.5s3.66699 5.83301 5 8.5c2 1.33301 4.5 2.83301 7.5 4.5s6.5 2.5 10.5 2.5c6.66699 0 12.167 -1.83301 16.5 -5.5s6.16602 -8.5 5.49902 -14.5c0 -4 -2 -8 -6 -12l-49 -68
c-18 -24 -36.833 -46.167 -56.5 -66.5s-39.334 -37.333 -59.001 -51s-38.834 -20.5 -57.501 -20.5c-24.667 0 -43 10.333 -55 31s-17.333 46 -16 76c1.33301 22.667 6.66602 46.667 15.999 72s21.833 48.833 37.5 70.5s34.167 39.5 55.5 53.5s44.666 21 69.999 21
c16 0 29.667 -3.16699 41 -9.5s17.666 -18.833 18.999 -37.5v-7z" />
    <glyph glyph-name="d" unicode="d" horiz-adv-x="354" 
d="M110 172c-0.666992 -1.33301 -1 -2.33203 -1 -2.99902s0.333008 -0.333984 1 0.999023l1 2h-1zM-17 243.001c0.666992 16.667 4.50195 33.3311 11.502 49.998s17.5 32 31.5 46s32.167 25.833 54.5 35.5s49.5 15.167 81.5 16.5l16.5 48
c6.33301 18.667 13.666 37.834 21.999 57.501s17.333 39 27 58s20 36 31 51s22.5 27.167 34.5 36.5s24.333 14 37 14s23 -3.5 31 -10.5s11.333 -18.833 10 -35.5c-0.666992 -14.667 -4.33398 -32.167 -11.001 -52.5s-15 -42 -25 -65s-21.5 -46.667 -34.5 -71l-39.5 -70.5
c-13.333 -22.667 -26.5 -43.834 -39.5 -63.501s-24.5 -36.167 -34.5 -49.5c-4 -15.333 -6.66699 -28.833 -8 -40.5s-2.33301 -21.834 -3 -30.501c-0.666992 -14.667 -0.666992 -24.834 0 -30.501s2.33398 -8.5 5.00098 -8.5c8 0 19 5.83301 33 17.5s29.167 26.5 45.5 44.5
s33 37.667 50 59l46.5 60l-1 -2c1.33301 4.66699 4 7.33398 8 8.00098s7.33301 1 10 1c6 0 11.167 -1.66699 15.5 -5s6.16602 -8.33301 5.49902 -15c0 -3.33301 -1.33301 -7.33301 -4 -12c-17.333 -23.333 -35.666 -46.666 -54.999 -69.999s-38.833 -44.666 -58.5 -63.999
s-39.334 -35 -59.001 -47s-38.5 -18 -56.5 -18c-11.333 0 -20.5 2.33301 -27.5 7s-12.333 10.834 -16 18.501s-6 16.5 -7 26.5s-1.16699 20.333 -0.5 31v2l1 2h-1c-9.33301 -4 -18.5 -7.33301 -27.5 -10s-18.167 -4 -27.5 -4c-22.667 0 -40.667 6.5 -54 19.5
s-19.333 34.833 -18 65.5zM117.002 218.998v3l6 5zM150.002 350.998l5.99902 17l13 -18c-3.33301 0.666992 -6.16602 1 -8.49902 1h-7.5h-3zM68.001 198.998c7.33301 0 15.501 2.33105 24.501 6.99805s17.167 10 24.5 16c3.33301 21.333 8 42.833 14 64.5
s12.333 43.167 19 64.5c-17.333 0 -32.333 -4.33301 -45 -13s-23.334 -19 -32.001 -31s-15 -24.167 -19 -36.5s-6.33301 -22.166 -7 -29.499c-0.666992 -15.333 1.33301 -26.166 6 -32.499s9.66699 -9.5 15 -9.5zM338.002 610.996c0.666992 0 -0.5 -2.00098 -3.5 -6.00098
l-8.5 -11c0 4.66699 0.666992 10.334 2 17.001h10zM165.002 276.995l26.001 40.5l32 50.5c-6 -18.667 -11.333 -36.667 -16 -54s-9.33398 -33.333 -14.001 -48zM326.003 593.995c-10 -13.333 -19.833 -28.667 -29.5 -46s-19 -35.833 -28 -55.5s-17.333 -40.167 -25 -61.5
s-14.5 -42.333 -20.5 -63l32.5 58.5c11 20.333 21.167 40.5 30.5 60.5s17.5 39.167 24.5 57.5s12.167 34.833 15.5 49.5z" />
    <glyph glyph-name="e" unicode="e" horiz-adv-x="221" 
d="M74 312l-9 -17l-12 18c3.33301 -0.666992 7.33301 -1 12 -1h9zM104 360c-11.333 -12 -21.333 -28.001 -30 -48.001c13.333 1.33301 26.5 6.33301 39.5 15s20.167 21.334 21.5 38.001c0 5.33301 -1.66699 8 -5 8c-6 0 -14.333 -4.33301 -25 -13h-1zM-13 257.999
c4 17.333 9.67188 35.5029 17.0049 54.5029s16.5 36.333 27.5 52s23.833 28.5 38.5 38.5s31.667 15 51 15c7.33301 0 14.666 -1 21.999 -3s13.666 -5.33301 18.999 -10s9.66602 -10.334 12.999 -17.001s4.66602 -14.334 3.99902 -23.001
c-1.33301 -15.333 -5.83301 -28.833 -13.5 -40.5s-17.167 -21.334 -28.5 -29.001s-23.5 -13.5 -36.5 -17.5s-25.167 -6 -36.5 -6c-3.33301 0 -4.5 -0.166992 -3.5 -0.5s0.166992 -0.166016 -2.5 0.500977c-2.66699 -8.66699 -4.83398 -18.667 -6.50098 -30
s-3.16699 -23 -4.5 -35c-0.666992 -12.667 -0.166992 -24.5 1.5 -35.5s5.5 -16.5 11.5 -16.5c8 0 17.833 4.66699 29.5 14s24 20.666 37 33.999s25.667 27.333 38 42l32.5 38c7.33301 9.33301 14.333 17 21 23s12 9 16 9c6 0 11 -2 15 -6s6 -8.66699 6 -14
c0 -4 -2 -8 -6 -12l-40.5 -51c-16.333 -20 -33.833 -39.333 -52.5 -58s-37.667 -34.5 -57 -47.5s-37.333 -19.5 -54 -19.5c-13.333 0 -24.333 3 -33 9s-15.5 14 -20.5 24s-8.33301 21.167 -10 33.5s-2.16699 24.833 -1.5 37.5c0 8.66699 0.666992 17 2 25s3 15.333 5 22z
" />
    <glyph glyph-name="f" unicode="f" horiz-adv-x="245" 
d="M225 579c1.33301 3.33301 3 5 5 5zM217 571c-12.667 -11.333 -24.832 -25 -36.499 -41s-22.834 -33.167 -33.501 -51.5s-20.834 -37.5 -30.501 -57.5s-18.5 -40 -26.5 -60l48 50c16 17.333 30.167 35 42.5 53s22.5 36.333 30.5 55s12.667 37.334 14 56.001v4
c-1.33301 -2.66699 -3.66602 -5.33398 -6.99902 -8.00098h-1zM-58.998 -3c-1.33301 8 -1.99902 15.668 -1.99902 23.001s0.333008 14.666 1 21.999c1.33301 22.667 4.66602 47.667 9.99902 75s12 55.666 20 84.999s17 58.666 27 87.999s20.333 57.333 31 84
s21 51.334 31 74.001s19.333 41.667 28 57c9.33301 16.667 19.166 32.334 29.499 47.001s21 27.667 32 39s22.5 20.333 34.5 27s24.667 10 38 10c14.667 0 27.167 -3.66699 37.5 -11s14.833 -20.333 13.5 -39c-1.33301 -26 -7.83301 -51.167 -19.5 -75.5
s-26.167 -48 -43.5 -71s-36.333 -45 -57 -66l-59 -59.5c15.333 -8.66699 26.166 -22.667 32.499 -42s10.5 -38.333 12.5 -57c15.333 6.66699 31.666 17.667 48.999 33s37 37.666 59 66.999l-3 -2c2.66699 4.66699 6 7.33398 10 8.00098s7 1 9 1c6 0 11.5 -1.5 16.5 -4.5
s7.16699 -7.83301 6.5 -14.5c0 -3.33301 -0.666992 -5.83301 -2 -7.5s-2.66602 -3.5 -3.99902 -5.5c-25.333 -34 -50.166 -60.5 -74.499 -79.5s-46.5 -32.167 -66.5 -39.5c-1.33301 -19.333 -4 -39.333 -8 -60s-9.83301 -40.667 -17.5 -60s-17 -37.5 -28 -54.5
s-24.5 -31.167 -40.5 -42.5v1c-17.333 -11.333 -32.666 -17 -45.999 -17c-16 0 -28.833 6.16699 -38.5 18.5s-16.167 28.5 -19.5 48.5h1zM93.0029 197.001h7.99902c2.66699 0 5.33398 0.333008 8.00098 1l-15 -15zM52.002 250.001
c-1.33301 -10.667 1.33301 -20.6699 8 -30.0029c4.66699 -7.33301 10 -12.666 16 -15.999s11.667 -5.66602 17 -6.99902c-0.666992 28.667 -3.66699 48.667 -9 60s-11.333 17 -18 17c-3.33301 0 -6.5 -2.16699 -9.5 -6.5s-4.5 -10.166 -4.5 -17.499zM93.001 156.998l1 15
l21 -14c-2.66699 -0.666992 -7.66699 -1 -15 -1h-7zM43.001 223.998c-1.33301 -6 -3.16602 -12.332 -5.49902 -18.999s-4.5 -13.667 -6.5 -21c-4.66699 5.33301 -8.83398 11.166 -12.501 17.499s-6.16699 13.5 -7.5 21.5zM93.001 156.999c-25.333 1.33301 -46 10.333 -62 27
c-6 -22.667 -11.667 -47 -17 -73s-8.66602 -50.667 -9.99902 -74c-0.666992 -15.333 -0.166992 -29.333 1.5 -42s4.16699 -19 7.5 -19c2 0 4 1 6 3c12 8.66699 22.333 19.667 31 33s16 28 22 44s10.667 32.667 14 50s5.66602 34.333 6.99902 51z" />
    <glyph glyph-name="g" unicode="g" horiz-adv-x="291" 
d="M70 199c10.667 8 20.6729 16.8311 30.0059 26.498s18 19.167 26 28.5c11.333 12.667 21.833 23 31.5 31s18.5 12 26.5 12c12.667 0 19.834 -6 21.501 -18s1.83398 -25.667 0.500977 -41c0 -4 -0.333008 -7.66699 -1 -11s-1 -7 -1 -11l46.5 44
c15.667 15.333 30.167 31.666 43.5 48.999c3.33301 3.33301 6.16602 5.33301 8.49902 6s5.16602 1 8.49902 1c6 0 11 -1.83301 15 -5.5s5.66699 -8.83398 5 -15.501c0 -1.33301 -0.166992 -3 -0.5 -5s-2.16602 -4.66699 -5.49902 -8
c-16.667 -21.333 -36 -42.166 -58 -62.499s-44.667 -40.166 -68 -59.499c-2.66699 -17.333 -6.83398 -38.5 -12.501 -63.5s-12.834 -51 -21.501 -78s-18.667 -54 -30 -81s-24 -51.167 -38 -72.5s-29.333 -38.666 -46 -51.999s-34.334 -20 -53.001 -20s-33.334 8 -44.001 24
s-15.334 35.333 -14.001 58c1.33301 24.667 9.33301 50.834 24 78.501s32 54.334 52 80.001s40.667 49.334 62 71.001s39.333 39.167 54 52.5c1.33301 7.33301 2.33301 14.833 3 22.5l2 23.5c-14 -14.667 -30 -28.167 -48 -40.5s-37.667 -18.5 -59 -18.5
c-23.333 0 -38.833 7.33301 -46.5 22s-10.5 31.834 -8.5 51.501s7.16699 39.5 15.5 59.5s16.166 35 23.499 45c15.333 20.667 33 37.5 53 50.5s40 20.667 60 23s39 -1.33398 57 -11.001s32.667 -27.167 44 -52.5c-0.666992 -8 -2.5 -13.833 -5.5 -17.5
s-10.833 -5.5 -23.5 -5.5c-4 3.33301 -8 7.66602 -12 12.999s-8.16699 10.5 -12.5 15.5s-8.83301 9.33301 -13.5 13s-9.66699 5.5 -15 5.5c-12 0 -24.167 -4.83301 -36.5 -14.5s-23.5 -21.667 -33.5 -36s-18.5 -29.833 -25.5 -46.5s-10.833 -32 -11.5 -46
c-0.666992 -17.333 1.66602 -26 6.99902 -26c3.33301 0 7.33301 1.16699 12 3.5s8.66699 5.16602 12 8.49902zM154.006 121.998c-10 -8 -22 -19 -36 -33l11 46zM26.0059 -131.002c21.333 27.333 39.6709 61 55.0039 101s27.666 79.667 36.999 119
c-14 -14 -28.5 -29.833 -43.5 -47.5s-28.833 -36 -41.5 -55s-23.5 -38.167 -32.5 -57.5s-13.833 -37.333 -14.5 -54c-0.666992 -10.667 -0.333984 -19.5 0.999023 -26.5s3.33301 -10.5 6 -10.5c3.33301 0 8.16602 3.33301 14.499 10s11.166 12.667 14.499 18z" />
    <glyph glyph-name="h" unicode="h" horiz-adv-x="297" 
d="M87 389l41.501 53c13.667 18 26.167 36 37.5 54s20.666 35.833 27.999 53.5s11.666 35.167 12.999 52.5c0.666992 14 0.333984 21 -0.999023 21c-6 0 -13.833 -4.83301 -23.5 -14.5s-20 -24.167 -31 -43.5s-22.167 -44 -33.5 -74s-22 -65 -32 -105zM-23.999 169
c4 25.333 8.83301 53.9971 14.5 85.9971s12.167 64.833 19.5 98.5s16 66.834 26 99.501s21.333 63 34 91s27 52.5 43 73.5s34 35.833 54 44.5c4 2 8.16699 3.16699 12.5 3.5s8.83301 0.5 13.5 0.5c18 0 32.333 -5 43 -15s15.334 -26.667 14.001 -50
c-2 -34.667 -13.667 -69.667 -35 -105s-45.333 -70 -72 -104c10 6.66699 20 10 30 10c14 0 25.333 -4.5 34 -13.5s12.334 -24.167 11.001 -45.5c-0.666992 -10 -2.33398 -21 -5.00098 -33s-5.66699 -22.667 -9 -32c-2 -5.33301 -3.66699 -10.833 -5 -16.5
s-3.33301 -11.167 -6 -16.5l-21.5 -64.5c-6.33301 -19 -10.5 -34.5 -12.5 -46.5c12 10 30.833 28.667 56.5 56s53.5 64.333 83.5 111l-1 -1c2 4 5 6.66699 9 8s7.66699 2 11 2c6 0 11.167 -2 15.5 -6s6.5 -8.33301 6.5 -13c0 -2 -0.166992 -3.83301 -0.5 -5.5
s-1.5 -3.5 -3.5 -5.5c-15.333 -24 -30.833 -45.667 -46.5 -65s-30.667 -36.5 -45 -51.5s-27.333 -27.667 -39 -38l-27.5 -24.5c-7.33301 -6 -15 -11.167 -23 -15.5s-16 -6.5 -24 -6.5c-12.667 0 -22.5 4.16699 -29.5 12.5s-9.83301 22.5 -8.5 42.5
c0 9.33301 1.66699 19.333 5 30s7.66602 23.334 12.999 38.001c4.66699 13.333 9.33398 27.5 14.001 42.5l14 45.5c2.66699 10 4.66699 18.833 6 26.5s2 14.5 2 20.5v1c-7.33301 -6 -16.5 -17.167 -27.5 -33.5s-22 -33.833 -33 -52.5s-20.833 -36.667 -29.5 -54
s-14.334 -30 -17.001 -38c-3.33301 -7.33301 -7.83301 -12.666 -13.5 -15.999s-12.167 -5 -19.5 -5c-9.33301 0 -16.833 3 -22.5 9s-8.5 12.333 -8.5 19v2z" />
    <glyph glyph-name="i" unicode="i" horiz-adv-x="174" 
d="M25 382l-1.00195 -1.00098c2.66699 7.33301 7.5 12.666 14.5 15.999s14.5 5 22.5 5c22 0 32.333 -9 31 -27c-7.33301 -20 -14.166 -40.5 -20.499 -61.5s-11.666 -41.5 -15.999 -61.5s-8 -38.833 -11 -56.5s-4.83301 -32.834 -5.5 -45.501
c0 -3.33301 -0.333008 -6.5 -1 -9.5s-2 -4.83301 -4 -5.5c4.66699 0 12 4.83301 22 14.5s20.833 21.667 32.5 36l36.5 46.5l34 46c11.333 16.667 19.666 26.5 24.999 29.5s9.33301 4.5 12 4.5c6 0 11.5 -1.5 16.5 -4.5s7.16699 -7.83301 6.5 -14.5
c0 -4 -2 -9.16699 -6 -15.5s-8.83301 -12.833 -14.5 -19.5l-16.5 -19.5l-12 -14.5l-39 -49c-13.333 -16 -26.833 -30.333 -40.5 -43s-26.834 -23 -39.501 -31s-25 -12 -37 -12c-14.667 0 -25 6.33301 -31 19s-9 28.834 -9 48.501s2.16699 41.334 6.5 65.001
s9.33301 46.334 15 68.001s11.334 41 17.001 58s9.83398 28.5 12.501 34.5zM83.998 517.999c10 0 18.832 -3.16797 26.499 -9.50098s11.167 -14.833 10.5 -25.5c-0.666992 -9.33301 -4.83398 -17.166 -12.501 -23.499s-17.167 -9.5 -28.5 -9.5s-20.666 3 -27.999 9
s-10.666 14 -9.99902 24c0.666992 11.333 5.5 20 14.5 26s18.167 9 27.5 9z" />
    <glyph glyph-name="j" unicode="j" horiz-adv-x="193" 
d="M-140 -122c21.333 23.333 38.999 49.832 52.999 79.499s26 60.5 36 92.5c-18.667 -14.667 -36.167 -29.5 -52.5 -44.5s-30.666 -30 -42.999 -45s-22.333 -30 -30 -45s-11.834 -30.5 -12.501 -46.5c-1.33301 -17.333 0.333984 -26 5.00098 -26c2.66699 0 6 1.33301 10 4
s8 5.83398 12 9.50098l12 11.5c4 4 7 7.33301 9 10h1zM56.999 511.999c8.66699 0 16.999 -3.16797 24.999 -9.50098s12 -13.833 12 -22.5c-0.666992 -7.33301 -3.83398 -14.166 -9.50098 -20.499s-14.5 -9.5 -26.5 -9.5c-11.333 0 -20.166 3 -26.499 9
s-9.16602 13 -8.49902 21c0.666992 11.333 4 19.5 10 24.5s14 7.5 24 7.5zM-236.002 -134.002c1.33301 23.333 7.66309 45.498 18.9961 66.498s26.166 41.333 44.499 61s39.333 39.167 63 58.5l73.5 59c3.33301 13.333 7.33301 31.5 12 54.5s9 47.5 13 73.5l11.5 76
c3.66699 24.667 6.16699 45.667 7.5 63c1.33301 7.33301 5.66602 13 12.999 17s15.333 6 24 6c8 0 15 -2 21 -6s8.66699 -10.667 8 -20c-1.33301 -12 -3.16602 -26.5 -5.49902 -43.5s-5 -34.667 -8 -53l-9.5 -55.5l-9 -51l73 61c24.667 21.333 46.667 44.333 66 69
c4 3.33301 7.33301 5.33301 10 6s5.66699 1 9 1c13.333 0 20 -6.33301 20 -19c-1.33301 -6 -3.66602 -11.333 -6.99902 -16c-23.333 -27.333 -50.166 -53.5 -80.499 -78.5l-88.5 -72.5l-15 -11c-6 -25.333 -13.667 -53.5 -23 -84.5s-21.166 -61.167 -35.499 -90.5
s-31.166 -56.166 -50.499 -80.499s-42 -42.166 -68 -53.499c-11.333 -4.66699 -22.666 -7 -33.999 -7c-19.333 0 -33.5 6.66699 -42.5 20s-12.833 30 -11.5 50z" />
    <glyph glyph-name="k" unicode="k" horiz-adv-x="265" 
d="M73 308l-14 -5l1 -20zM105 76c-15.333 0 -28.835 5.50195 -40.502 16.502s-19.834 32.5 -24.501 64.5c-5.33301 -2.66699 -10.833 -4.83398 -16.5 -6.50098s-10.5 -2.5 -14.5 -2.5c-7.33301 0 -13.833 1.83301 -19.5 5.5s-8.16699 11.167 -7.5 22.5
c0.666992 18.667 3.33398 43.334 8.00098 74.001s11.167 63.834 19.5 99.501s18.5 71.667 30.5 108s25.5 69 40.5 98s31.333 52.833 49 71.5s36.834 28 57.501 28c20 0 33.5 -6.33301 40.5 -19s10.167 -27.334 9.5 -44.001c-1.33301 -16 -5.16602 -33.5 -11.499 -52.5
s-14.333 -38.5 -24 -58.5s-20.834 -39.833 -33.501 -59.5s-25.334 -37.834 -38.001 -54.501c8 3.33301 15.333 5 22 5c5.33301 0 11 -1.33301 17 -4s11.333 -6.5 16 -11.5s8.5 -10.833 11.5 -17.5s4.16699 -13.667 3.5 -21c-0.666992 -12.667 -4.5 -23.167 -11.5 -31.5
s-15.5 -15 -25.5 -20s-20.667 -9 -32 -12s-21.666 -5.16699 -30.999 -6.5v-1v-40.5c0 -15 0.5 -29 1.5 -42s2.83301 -23.833 5.5 -32.5s6.33398 -13 11.001 -13c6.66699 0 15.834 6.16699 27.501 18.5s24.167 27.166 37.5 44.499s26.5 35.5 39.5 54.5l33.5 49.5l12 19
c2.66699 2 5.66699 3.83301 9 5.5s6.66602 2.5 9.99902 2.5c7.33301 0 12.833 -2.33301 16.5 -7s5.5 -9 5.5 -13v-4.5c0 -1.66699 -1.66699 -3.83398 -5 -6.50098l-36 -56c-15.333 -23.333 -32 -46.166 -50 -68.499s-36.833 -41.5 -56.5 -57.5s-38.5 -24 -56.5 -24z
M167.998 584.002c-9.33301 -12 -18.001 -26 -26.001 -42s-15.5 -33.167 -22.5 -51.5s-13.5 -37.333 -19.5 -57s-11.333 -38.834 -16 -57.501c10.667 13.333 21.667 28.5 33 45.5s21.833 34.5 31.5 52.5s18 35.833 25 53.5s12.167 34.5 15.5 50.5
c2.66699 16 2.33398 24.333 -0.999023 25s-10 -5.66602 -20 -18.999zM132.997 319.002c0 5.33301 1.66602 8 4.99902 8c2.66699 0 1.33398 -2 -3.99902 -6zM116.996 297.002c4 2.66699 7.66699 5.66602 11 8.99902s5 7 5 11v2
c-2.66699 -3.33301 -5.16699 -6.66602 -7.5 -9.99902zM84.9961 289.001c10.667 0 21.333 2.66602 32 7.99902c-2 -3.33301 -4.5 -7.16602 -7.5 -11.499s-5.83301 -8.83301 -8.5 -13.5l-6 -7z" />
    <glyph glyph-name="l" unicode="l" horiz-adv-x="244" 
d="M-15 195c1.33301 32 5.83203 65.4961 13.499 100.496s17.167 69.667 28.5 104s24.333 67 39 98s30.167 58.167 46.5 81.5s33 42 50 56s33.5 21 49.5 21c15.333 0 27.666 -4.83301 36.999 -14.5s13.333 -24.167 12 -43.5c-0.666992 -12 -4.5 -26.333 -11.5 -43
s-16 -34.5 -27 -53.5s-23.667 -39 -38 -60l-43.5 -61l-43 -56l-38 -46.5c-2.66699 -16 -5 -31 -7 -45s-3.33301 -27.333 -4 -40c-1.33301 -18.667 -0.5 -35.667 2.5 -51s8.5 -23 16.5 -23s20 6.83301 36 20.5s32.833 30.334 50.5 50.001s34.834 40.167 51.501 61.5
s30.334 40 41.001 56c2 4 5.33301 6.5 10 7.5s9.16699 0.833008 13.5 -0.5s8 -3.66602 11 -6.99902s4.5 -7.33301 4.5 -12c0 -1.33301 -0.166992 -2.66602 -0.5 -3.99902s-1.33301 -3.33301 -3 -6s-4.5 -6.5 -8.5 -11.5l-16 -20.5c-18 -24 -37.5 -48.667 -58.5 -74
s-42.5 -47 -64.5 -65c-24.667 -19.333 -46.667 -31.166 -66 -35.499s-35.5 -2.33301 -48.5 6s-22.5 22 -28.5 41s-8.33301 42.167 -7 69.5zM219.999 610.996c-10 0 -20.832 -7.33203 -32.499 -21.999s-23.5 -33.167 -35.5 -55.5s-23.667 -47.333 -35 -75
s-21.333 -54.834 -30 -81.501c14.667 18.667 29.5 38.667 44.5 60s28.667 42 41 62s22.666 38.833 30.999 56.5s12.833 32.5 13.5 44.5c0 6 1 9.66699 3 11z" />
    <glyph glyph-name="m" unicode="m" horiz-adv-x="387" 
d="M4 338c2 6.66699 6.33105 11.6729 12.998 15.0059s13.667 4.83301 21 4.5s14 -2.33301 20 -6s9 -8.83398 9 -15.501l-7 -49c8 17.333 18 33.666 30 48.999s23.667 26 35 32s21.166 5.66699 29.499 -1s12.5 -23.334 12.5 -50.001c8 9.33301 18.167 18.833 30.5 28.5
s24 16.167 35 19.5s20.167 2 27.5 -4s10.333 -20.333 9 -43c0 -2.66699 -0.833008 -9.33398 -2.5 -20.001l-6 -38l-7.5 -46.5c-2.66699 -16.333 -5 -31.5 -7 -45.5s-3.5 -25.5 -4.5 -34.5s-0.833008 -13.5 0.5 -13.5c6 0 15 6.16699 27 18.5s24.833 27.5 38.5 45.5
s27.334 37.167 41.001 57.5l35.5 54.5c2.66699 6.66699 7 10.667 13 12s11.5 1 16.5 -1s8.83301 -5.5 11.5 -10.5s2.33398 -10.5 -0.999023 -16.5c-12 -20.667 -26.333 -43 -43 -67s-34.167 -46.333 -52.5 -67s-36.5 -38 -54.5 -52s-34 -21 -48 -21
s-24.667 3.83301 -32 11.5s-12.333 17.5 -15 29.5s-3.66699 25.667 -3 41s2.33398 30.666 5.00098 45.999s5.5 29.833 8.5 43.5l7.5 34.5c-2 -12 -6.5 -23.833 -13.5 -35.5s-15 -21.667 -24 -30s-18.333 -14.833 -28 -19.5s-18.334 -6.33398 -26.001 -5.00098
s-13.667 6.5 -18 15.5s-5.5 22.5 -3.5 40.5c-9.33301 -18.667 -16.5 -33.5 -21.5 -44.5s-9 -19.5 -12 -25.5s-5 -10.167 -6 -12.5s-1.83301 -3.83301 -2.5 -4.5h1c-3.33301 -7.33301 -7.16602 -13 -11.499 -17s-13.833 -6 -28.5 -6c-7.33301 0 -14 1.66699 -20 5
s-8.66699 9.33301 -8 18c7.33301 32 13 62.833 17 92.5z" />
    <glyph glyph-name="n" unicode="n" horiz-adv-x="274" 
d="M31 165c-5.33301 -2.66699 -11.3311 -4.66504 -17.998 -5.99805s-13.334 -1.5 -20.001 -0.5s-12.167 3.16699 -16.5 6.5s-6.5 8.66602 -6.5 15.999c10 35.333 18.5 70.5 25.5 105.5s15.5 69.833 25.5 104.5c4.66699 12 16.334 18 35.001 18
c8.66699 0 16.5 -1.83301 23.5 -5.5s10.167 -9.5 9.5 -17.5c-0.666992 -6.66699 -3.16699 -18.5 -7.5 -35.5l-14.5 -55.5c8.66699 12 17.834 23.333 27.501 34s19.167 20.167 28.5 28.5s18.5 15 27.5 20s17.167 7.5 24.5 7.5c14.667 0 23.834 -5.5 27.501 -16.5
s4.5 -23.667 2.5 -38s-5.5 -28.333 -10.5 -42s-8.5 -23.5 -10.5 -29.5l-8.5 -24.5c-3.66699 -10.333 -7.16699 -21.166 -10.5 -32.499s-6.33301 -22.5 -9 -33.5s-4.33398 -20.5 -5.00098 -28.5c25.333 24.667 48.166 52 68.499 82l59.5 88
c3.33301 3.33301 7.33301 5.66602 12 6.99902s9.16699 1.5 13.5 0.5s8 -3.16699 11 -6.5s4.16699 -7.66602 3.5 -12.999c0 -1.33301 -1.33301 -4.33301 -4 -9s-10.667 -16.334 -24 -35.001l-50 -66.5c-18.667 -25 -37.334 -46.5 -56.001 -64.5
c-9.33301 -9.33301 -19.833 -17.333 -31.5 -24s-22.834 -10.167 -33.501 -10.5s-19.5 3.16699 -26.5 10.5s-9.83301 20.666 -8.5 39.999c0.666992 16 3 31.5 7 46.5s8.5 29.667 13.5 44l15.5 42.5c5.33301 14 10 28 14 42c-18 -19.333 -35.5 -42 -52.5 -68z" />
    <glyph glyph-name="o" unicode="o" horiz-adv-x="248" 
d="M-28 209c0.666992 16.667 4.00586 34.1689 10.0059 52.502s14.333 35.333 25 51s23 28.667 37 39s29.333 16.166 46 17.499c14 11.333 30.333 17 49 17c23.333 0 40.5 -9.5 51.5 -28.5s15.833 -43.167 14.5 -72.5c-0.666992 -4.66699 -1 -8.5 -1 -11.5
s-0.333008 -6.83301 -1 -11.5c8.66699 5.33301 16.667 11 24 17s14.666 13.333 21.999 22c2.66699 3.33301 5.5 5.16602 8.5 5.49902s5.16699 0.5 6.5 0.5c5.33301 0 10.666 -1.83301 15.999 -5.5s7.66602 -8.83398 6.99902 -15.501
c0 -3.33301 -2.66699 -7.66602 -8 -12.999c-11.333 -14 -25 -26.167 -41 -36.5s-32.667 -18.166 -50 -23.499c-6 -13.333 -13.667 -26.333 -23 -39s-19.833 -24 -31.5 -34s-24.334 -18 -38.001 -24s-27.834 -9 -42.501 -9c-28 0 -48.833 10.167 -62.5 30.5
s-19.834 44.166 -18.501 71.499zM138.006 207.002l10 21l17 -20c-3.33301 -0.666992 -6.33301 -1 -9 -1h-8h-10zM92.0059 320.002c-15.333 -12 -27.001 -26.666 -35.001 -43.999c-0.666992 3.33301 -1.16699 6.83301 -1.5 10.5s-0.166016 7.5 0.500977 11.5
c0 6.66699 1 13.167 3 19.5s4.66699 13.166 8 20.499zM138.005 207.003c-20.667 2.66699 -38.167 10.334 -52.5 23.001s-23.833 28 -28.5 46c-5.33301 -10.667 -9.33301 -21.834 -12 -33.501s-4.33398 -22.834 -5.00098 -33.501
c-1.33301 -17.333 0.333984 -31.666 5.00098 -42.999s11.667 -17 21 -17s20.833 5 34.5 15s26.167 24.333 37.5 43zM152.005 240.003c1.33301 2.66699 2 5 2 7c2 0 3.83301 0.166992 5.5 0.5s3.5 0.833008 5.5 1.5zM102.005 299.003
c-1.33301 -13.333 1.83301 -25.332 9.5 -35.999s19.834 -16 36.501 -16h6c2 5.33301 3.5 11.166 4.5 17.499s1.83301 12.833 2.5 19.5c1.33301 16 0.166016 30.333 -3.50098 43s-9.16699 19 -16.5 19c-10.667 0 -19.667 -4.83301 -27 -14.5s-11.333 -20.5 -12 -32.5z" />
    <glyph glyph-name="p" unicode="p" horiz-adv-x="277" 
d="M-8 244c4 30 7.83496 56.6699 11.502 80.0029s6.16699 42 7.5 56c0.666992 6.66699 4.33398 12 11.001 16s14 6 22 6c9.33301 0 17 -2 23 -6s8.66699 -10 8 -18c0 -5.33301 -0.333008 -11.166 -1 -17.499s-1.66699 -13.166 -3 -20.499c8.66699 6.66699 18.167 12 28.5 16
s21.5 6 33.5 6c16 0 29.333 -3.5 40 -10.5s19 -16.167 25 -27.5s10.167 -24.333 12.5 -39s3.16602 -29.334 2.49902 -44.001c11.333 7.33301 22.666 16 33.999 26s21.666 21.667 30.999 35c4.66699 6.66699 11.334 10 20.001 10c5.33301 0 10.166 -2.33301 14.499 -7
s6.5 -9 6.5 -13c0 -4.66699 -1.33301 -8.33398 -4 -11.001c-14 -22 -30.833 -40.333 -50.5 -55s-39.167 -26.667 -58.5 -36c-3.33301 -13.333 -8 -26.5 -14 -39.5s-13.333 -24.667 -22 -35s-18.834 -18.666 -30.501 -24.999s-24.834 -9.5 -39.501 -9.5
s-25.667 5.16699 -33 15.5s-10.666 21.166 -9.99902 32.499c0.666992 10.667 3.83398 20.167 9.50098 28.5s12.667 15.5 21 21.5s17.166 11.167 26.499 15.5s18.333 8.16602 27 11.499c1.33301 5.33301 2.16602 10.5 2.49902 15.5s0.833008 10.167 1.5 15.5
c1.33301 21.333 0 40.5 -4 57.5s-10.667 25.5 -20 25.5c-10 0 -20.5 -5.83301 -31.5 -17.5s-21.167 -23.834 -30.5 -36.501l-20 -135l-16.5 -100.5l-16.5 -92c-5.33301 -28.333 -10.333 -53.333 -15 -75s-8.66699 -37.834 -12 -48.501
c-5.33301 -15.333 -12.5 -25.833 -21.5 -31.5s-18 -7 -27 -4s-17.167 9.83301 -24.5 20.5s-11.333 25 -12 43c-1.33301 18 -0.666016 37.5 2.00098 58.5s5.66699 41.5 9 61.5s7 38.167 11 54.5l9 36.5c16.667 61.333 38 118.333 64 171
c0.666992 3.33301 1.33398 6.5 2.00098 9.5s1 6.16699 1 9.5zM-32.998 91.0029c-3.33301 -16.667 -6.66895 -35.166 -10.002 -55.499l-10 -61l-9.5 -58l-7.5 -46.5c-1.33301 -10.667 -1.66602 -18.5 -0.999023 -23.5s1.66699 -7.83301 3 -8.5s2.66602 0.5 3.99902 3.5
s2 7.16699 2 12.5c0.666992 9.33301 2.33398 24.666 5.00098 45.999s5.83398 44.333 9.50098 69l10.5 72.5c3.33301 23.667 5.83301 42.667 7.5 57s2.5 21.833 2.5 22.5s-2 -9.33301 -6 -30zM100.999 130.004c-0.666992 -0.666992 -1 -1.66699 -1 -3c0 2 0.333008 3 1 3z
M99.999 130.004c-3.33301 -2.66699 -5.33496 -4 -6.00195 -4c3.33301 0 5.33301 -0.333008 6 -1c-1.33301 -4 -1 -5.33301 1 -4s3.83301 3.16602 5.5 5.49902s2.33398 4.33301 2.00098 6s-3.16602 0.833984 -8.49902 -2.49902z" />
    <glyph glyph-name="q" unicode="q" horiz-adv-x="341" 
d="M89 321c-14 -14.667 -25.3281 -30.999 -33.9951 -48.999s-13.334 -34.667 -14.001 -50c-1.33301 -16.667 1.66699 -25 9 -25c4.66699 0 11.5 3.16699 20.5 9.5s18.5 14.333 28.5 24l31 31l30 31.5l-2 -1c6 8 14.333 12 25 12c9.33301 0 15.5 -1.83301 18.5 -5.5
s4.16699 -11.167 3.5 -22.5l-8 -19c-6 -14 -10 -26.667 -12 -38c-1.33301 -3.33301 -2 -5.5 -2 -6.5v-2c0 -0.333008 -0.166992 -1 -0.5 -2s-0.833008 -2.83301 -1.5 -5.5c33.333 8 63.833 21.667 91.5 41s52.5 43 74.5 71c4 5.33301 8.66699 7.83301 14 7.5
s10.166 -2.16602 14.499 -5.49902s7 -7.83301 8 -13.5s-0.833008 -10.834 -5.5 -15.501c-10.667 -10.667 -23.334 -22.5 -38.001 -35.5s-30.334 -25.5 -47.001 -37.5s-34 -22.667 -52 -32s-36 -15.666 -54 -18.999c8.66699 -18 14.334 -38 17.001 -60
s3.33398 -45 2.00098 -69c-1.33301 -26 -5.83301 -53.333 -13.5 -82s-18 -54.834 -31 -78.501s-28.5 -43.334 -46.5 -59.001s-38.333 -23.5 -61 -23.5c-16.667 0 -29.5 5.16699 -38.5 15.5s-12.833 27.833 -11.5 52.5c0.666992 9.33301 2 20.333 4 33
s5.66699 27.334 11 44.001l28.5 84l29.5 83l9 25c2 5.33301 3.83301 10 5.5 14s3.5 8.83301 5.5 14.5l9 25.5c-10.667 -8 -22.334 -15.167 -35.001 -21.5s-24.667 -9.5 -36 -9.5c-17.333 0 -31.833 6 -43.5 18s-16.834 29.667 -15.501 53c0.666992 19.333 6 39.5 16 60.5
s22.667 40.167 38 57.5s32.666 31.5 51.999 42.5s39 16.5 59 16.5c17.333 0 33.833 -4.5 49.5 -13.5s28.167 -22.167 37.5 -39.5c2.66699 -2.66699 4 -4.66699 4 -6v-5c-0.666992 -5.33301 -3.33398 -10 -8.00098 -14s-10 -6 -16 -6c-4 0 -7.83301 0.833008 -11.5 2.5
s-6.16699 4.5 -7.5 8.5l1 -1c-6.66699 11.333 -13.167 19.5 -19.5 24.5s-13.166 7.5 -20.499 7.5c-9.33301 0 -19.333 -3.33301 -30 -10s-21 -15.334 -31 -26.001v-1zM141.005 91.001l-30.5 -81.9961c-9.66699 -26.667 -18.834 -54.334 -27.501 -83.001
c-2 -5.33301 -4.5 -14.833 -7.5 -28.5s-4.83301 -26.834 -5.5 -39.501c-0.666992 -6 -1 -11.333 -1 -16s0.333008 -7 1 -7c1.33301 0 5.66602 2.66699 12.999 8c12 8 22.667 19.167 32 33.5s17.333 30.5 24 48.5s11.834 37 15.501 57s6.16699 39.667 7.5 59
c1.33301 17.333 1.33301 33.666 0 48.999s-3.66602 28.666 -6.99902 39.999z" />
    <glyph glyph-name="r" unicode="r" horiz-adv-x="269" 
d="M34 279c-4.66699 -6.66699 -10.0039 -10.166 -16.0039 -10.499s-11.333 1.16699 -16 4.5s-7.5 7.83301 -8.5 13.5s1.5 11.5 7.5 17.5c10 12 19 24.333 27 37s15.333 25 22 37c-5.33301 3.33301 -11 7.33301 -17 12s-11.333 9.66699 -16 15s-8.5 11.166 -11.5 17.499
s-4.16699 13.166 -3.5 20.499c0.666992 16 8.16699 29.333 22.5 40s28.833 16 43.5 16c13.333 0 25.333 -4.33301 36 -13s15.334 -23 14.001 -43c-0.666992 -6.66699 -2 -13.834 -4 -21.501s-5 -17.167 -9 -28.5l10 -5l-1 1c16 -8.66699 29.333 -17.167 40 -25.5
s15.667 -21.166 15 -38.499c-0.666992 -3.33301 -1.5 -7.16602 -2.5 -11.499s-2.16699 -8.5 -3.5 -12.5c-3.33301 -9.33301 -7.83301 -19.833 -13.5 -31.5s-11.834 -22.5 -18.501 -32.5c-9.33301 -16.667 -18.166 -34.334 -26.499 -53.001s-13.166 -38.667 -14.499 -60
c0 -6 -1 -9.33301 -3 -10c6 0 14 4 24 12s20.833 17.833 32.5 29.5s24 24.834 37 39.501l37 42.5l31.5 38l21 26.5c6.66699 5.33301 13.334 8.5 20.001 9.5s12.334 0.5 17.001 -1.5s7.33398 -5.33301 8.00098 -10s-1.66602 -10 -6.99902 -16l-50.5 -64
c-19.667 -24.667 -40.5 -48.334 -62.5 -71.001s-43.833 -42 -65.5 -58s-41.167 -24 -58.5 -24c-15.333 0 -27.333 5.16699 -36 15.5s-12.334 25.166 -11.001 44.499c1.33301 22.667 7.16602 45.334 17.499 68.001s20.833 43.667 31.5 63c7.33301 13.333 14 26 20 38
s9.33301 22.333 10 31c0 5.33301 -1.16699 10 -3.5 14s-6.83301 8.33301 -13.5 13c-6 -10 -13.5 -21.667 -22.5 -35s-18.833 -26.666 -29.5 -39.999zM60.9961 398.001c2.66699 5.33301 5 11 7 17l16 -10zM46.9961 443.001c-0.666992 -5.33301 1.33301 -10.332 6 -14.999
s9.66699 -9 15 -13c2 5.33301 3.33301 10.166 4 14.499l2 12.5c0 11.333 -2.66699 17 -8 17c-4 0 -8.16699 -1.5 -12.5 -4.5s-6.5 -6.83301 -6.5 -11.5z" />
    <glyph glyph-name="s" unicode="s" horiz-adv-x="221" 
d="M181 336c-1.33301 -4 -3.33496 -9.49902 -6.00195 -16.499s-6.16699 -13.833 -10.5 -20.5s-9.16602 -12.5 -14.499 -17.5s-11 -7.5 -17 -7.5c-4.66699 0 -8.5 1.33301 -11.5 4s-5.16699 6 -6.5 10s-1.33301 8 0 12s4 7.33301 8 10
c2.66699 1.33301 5.33398 5.16602 8.00098 11.499s5 12.833 7 19.5s3.33301 12.667 4 18s0 8 -2 8c-5.33301 0 -12.166 -2.16699 -20.499 -6.5s-16.666 -9.83301 -24.999 -16.5s-15.5 -14.167 -21.5 -22.5s-9.33301 -16.5 -10 -24.5c-0.666992 -6 1.5 -10.5 6.5 -13.5
s11.167 -5.83301 18.5 -8.5c9.33301 -3.33301 18.5 -7.33301 27.5 -12s17.167 -12 24.5 -22c14 7.33301 28.833 16.666 44.5 27.999s28.5 23.333 38.5 36c4 5.33301 8.66699 8 14 8s10.166 -1.5 14.499 -4.5s7.33301 -7 9 -12s0.5 -10.167 -3.5 -15.5
c-12 -15.333 -27.333 -29.666 -46 -42.999s-36.667 -24.666 -54 -33.999v-6c-0.666992 -15.333 -5.83398 -30 -15.501 -44s-21 -26.333 -34 -37s-26.667 -19 -41 -25s-26.833 -9 -37.5 -9c-6.66699 0 -13.167 0.666992 -19.5 2s-11.833 3.5 -16.5 6.5
s-8.5 7.16699 -11.5 12.5s-4.16699 11.666 -3.5 18.999c0.666992 9.33301 4 18.166 10 26.499s13.667 16.333 23 24s19.833 14.834 31.5 21.501s23.5 12.667 35.5 18c-3.33301 1.33301 -6 2.5 -8 3.5l-9 4.5h1c-7.33301 3.33301 -14.833 7 -22.5 11s-14.5 8.66699 -20.5 14
s-10.833 11.833 -14.5 19.5s-5.5 17.167 -5.5 28.5c0.666992 16.667 5.66699 32.167 15 46.5s20.833 26.833 34.5 37.5s28 19.167 43 25.5s28.833 9.5 41.5 9.5c16 0 29.167 -4.33301 39.5 -13s14.833 -22 13.5 -40c0 -3.33301 -0.333008 -6.83301 -1 -10.5
s-2 -8.16699 -4 -13.5zM28.998 127.001c10 3.33301 19.668 9.33203 29.001 17.999s17 17.334 23 26.001c-14.667 -7.33301 -27.834 -15 -39.501 -23s-18.167 -15.667 -19.5 -23c0.666992 0 3 0.666992 7 2z" />
    <glyph glyph-name="t" unicode="t" horiz-adv-x="255" 
d="M131 638c2.66699 6 6.8252 10.3301 12.4922 12.9971s11.5 4 17.5 4c8.66699 0 16.334 -2.83301 23.001 -8.5s9.66699 -12.167 9 -19.5v-4c0 -1.33301 -0.666992 -3.66602 -2 -6.99902c-5.33301 -10 -9.33301 -18.833 -12 -26.5s-7.33398 -19.167 -14.001 -34.5
c4.66699 -0.666992 8.66699 -1.33398 12 -2.00098s7.66602 -1.33398 12.999 -2.00098c13.333 -1.33301 26.833 -2.83301 40.5 -4.5s26.167 -2.5 37.5 -2.5c7.33301 0 14.166 0.833008 20.499 2.5s11.833 3.5 16.5 5.5c7.33301 2.66699 13.333 4 18 4
c7.33301 0 12.5 -2 15.5 -6s4.5 -9 4.5 -15c-0.666992 -5.33301 -3.66699 -10 -9 -14s-11.833 -7.33301 -19.5 -10s-16 -4.5 -25 -5.5s-17.5 -1.5 -25.5 -1.5c-14 0 -27.667 0.833008 -41 2.5s-26.666 3.16699 -39.999 4.5c-10 1.33301 -16.833 2.33301 -20.5 3
s-8.83398 1 -15.501 1l-20.5 -51l-23 -59l-22 -58c-7 -18.667 -12.5 -35 -16.5 -49c-3.33301 -8 -6.66602 -18.167 -9.99902 -30.5s-6.66602 -25.5 -9.99902 -39.5s-6.16602 -28.333 -8.49902 -43s-3.83301 -28.667 -4.5 -42c-1.33301 -15.333 -1 -28.333 1 -39
s6.33301 -16 13 -16c12 0 27.167 7.5 45.5 22.5s37.5 33.667 57.5 56s39.667 46.166 59 71.499s36 48 50 68l-2 -2c2.66699 4.66699 5.83398 7.33398 9.50098 8.00098s7.16699 1 10.5 1c5.33301 0 10.5 -1.5 15.5 -4.5s7.16699 -7.83301 6.5 -14.5
c0 -2 -0.666992 -4.16699 -2 -6.5s-2.66602 -4.16602 -3.99902 -5.49902c-15.333 -23.333 -33.833 -49 -55.5 -77s-44.167 -54 -67.5 -78s-46.666 -44 -69.999 -60s-44 -24 -62 -24c-23.333 0 -41.333 7.66699 -54 23s-18 41.333 -16 78
c0.666992 14 2.33398 28.667 5.00098 44s5.66699 30.333 9 45s6.83301 28.834 10.5 42.501s7.16699 25.5 10.5 35.5c4 13.333 9 28.5 15 45.5l19 52.5l20.5 53.5l19.5 47.5c-11.333 -3.33301 -21.666 -8.66602 -30.999 -15.999h1c-4 -4 -9.33301 -6 -16 -6
c-5.33301 0 -10.166 2.5 -14.499 7.5s-6.5 9.5 -6.5 13.5c0 6 3.16699 11.667 9.5 17s13.833 9.83301 22.5 13.5s17.834 6.83398 27.501 9.50098s18.5 4.66699 26.5 6z" />
    <glyph glyph-name="u" unicode="u" horiz-adv-x="352" 
d="M354 310c2 4.66699 7.33398 7.00391 16.001 7.00391c6 0 11 -2 15 -6s5.66699 -8.66699 5 -14c0 -2 -1.66699 -5.83301 -5 -11.5s-7.66602 -12.334 -12.999 -20.001l-18 -25l-20 -26.5l-20.5 -23c-8.33301 -9.33301 -17.833 -18.666 -28.5 -27.999s-22 -17.333 -34 -24
s-23.667 -10 -35 -10c-13.333 0 -25 5.33301 -35 16s-15.667 25.667 -17 45l-17 -31.5c-5.33301 -9.66699 -10.666 -17.834 -15.999 -24.501c-12 -14 -23.833 -24.167 -35.5 -30.5s-23.167 -9.5 -34.5 -9.5c-13.333 0 -24.666 3.66699 -33.999 11s-17.166 17 -23.499 29
s-10.833 26 -13.5 42s-3.66699 33 -3 51c0.666992 14 3 31.167 7 51.5s9.16699 39.666 15.5 57.999s13.166 34 20.499 47s15 19.5 23 19.5c9.33301 0 18.666 -3.16699 27.999 -9.5s13.333 -13.833 12 -22.5c-4.66699 -8 -9.33398 -17.833 -14.001 -29.5
s-9 -24.334 -13 -38.001s-7.33301 -27.667 -10 -42s-4.33398 -28.5 -5.00098 -42.5c-1.33301 -17.333 -0.5 -32.833 2.5 -46.5s8.83301 -20.5 17.5 -20.5c7.33301 0 14.5 3.83301 21.5 11.5s14 17.667 21 30s14 26 21 41s13.5 29.833 19.5 44.5
c10.667 25.333 21.334 47.666 32.001 66.999s23.334 29 38.001 29c20.667 0 30.667 -14 30 -42c-0.666992 -7.33301 -2.33398 -15.5 -5.00098 -24.5s-4.66699 -17.167 -6 -24.5c-10.667 -33.333 -16.334 -59 -17.001 -77c-0.666992 -17.333 0.666016 -26 3.99902 -26
c4 0 11 4.5 21 13.5s21 20 33 33l37 42z" />
    <glyph glyph-name="v" unicode="v" horiz-adv-x="287" 
d="M87 367c-13.333 -29.333 -23.5049 -58.1709 -30.5049 -86.5039s-11.167 -54.166 -12.5 -77.499c-2 -44.667 3.66699 -67 17 -67c23.333 0 56.666 37.333 99.999 112c-3.33301 5.33301 -5.16602 11 -5.49902 17s-0.5 11.667 -0.5 17
c0.666992 12.667 3.83398 25.334 9.50098 38.001s12.167 23.834 19.5 33.501s15.333 17.5 24 23.5s16.334 9 23.001 9c8.66699 0 15.334 -2.16699 20.001 -6.5s6.66699 -12.166 6 -23.499c-0.666992 -14 -5.33398 -30.167 -14.001 -48.5s-17.667 -35.166 -27 -50.499
c4.66699 0 10.334 1.5 17.001 4.5s13.334 6.83301 20.001 11.5s13 9.66699 19 15s11 10 15 14c2.66699 8 9.66699 12 21 12c5.33301 0 10.166 -1.83301 14.499 -5.5s6.5 -8.83398 6.5 -15.501l-2 -6c-0.666992 -2 -2 -4.33301 -4 -7c-5.33301 -6 -12.333 -12.667 -21 -20
s-17.834 -14.166 -27.501 -20.499s-19.667 -11.666 -30 -15.999s-20.166 -6.5 -29.499 -6.5c-8 0 -15 1 -21 3c-8.66699 -14 -18.667 -28.833 -30 -44.5s-23.5 -30 -36.5 -43s-26.667 -23.667 -41 -32s-28.833 -12.5 -43.5 -12.5c-24.667 0 -41.5 9.16699 -50.5 27.5
s-12.5 46.5 -10.5 84.5c0.666992 13.333 3.16699 31.166 7.5 53.499s9.83301 44.166 16.5 65.499s14.334 39.833 23.001 55.5s18 23.5 28 23.5c22.667 0 33.334 -8.33301 32.001 -25zM181.995 281.995l19.5 36.999c7 13.333 11.167 24.666 12.5 33.999c0 -4 4 -6 12 -6
c-5.33301 -1.33301 -10.833 -9.16602 -16.5 -23.499s-9.16699 -27.166 -10.5 -38.499c0 -6 0.666992 -11.667 2 -17l-28 -1z" />
    <glyph glyph-name="w" unicode="w" horiz-adv-x="332" 
d="M16 389c4 13.333 14.3369 19.9971 31.0039 19.9971c9.33301 0 17.666 -3 24.999 -9s10.666 -14 9.99902 -24c-3.33301 -12 -6.66602 -25.667 -9.99902 -41s-6.33301 -31 -9 -47s-5 -31.667 -7 -47s-3.33301 -29.333 -4 -42c5.33301 6.66699 11.666 16.834 18.999 30.501
s17.666 31.5 30.999 53.5c7.33301 13.333 14 23.333 20 30s12.667 10 20 10c9.33301 0 15.833 -3.16699 19.5 -9.5s5.16699 -14.5 4.5 -24.5c-0.666992 -4.66699 -1.5 -13.5 -2.5 -26.5l-3 -40.5c-1 -14 -1.5 -26.333 -1.5 -37s0.666992 -16 2 -16
c2 0 5.33301 3.16699 10 9.5s9.5 14 14.5 23l15 28l12.5 24.5v1c-4 7.33301 -6.83301 15 -8.5 23s-2.16699 15.667 -1.5 23c0.666992 11.333 3.16699 22.5 7.5 33.5s9.66602 20.833 15.999 29.5s13.166 15.667 20.499 21s14.333 8 21 8c8 0 15 -2.66699 21 -8
s8.33301 -14.666 7 -27.999c-0.666992 -13.333 -4.16699 -28.5 -10.5 -45.5s-13.166 -32.5 -20.499 -46.5c6 0 12.667 1.5 20 4.5s14.333 6.66699 21 11s12.667 9 18 14s9.66602 9.5 12.999 13.5c3.33301 4.66699 6.33301 7.33398 9 8.00098s5.66699 1 9 1c6 0 11 -2 15 -6
s5.66699 -8.66699 5 -14c0 -0.666992 -0.166992 -1.83398 -0.5 -3.50098s-0.5 -3.16699 -0.5 -4.5c-6 -8 -13.833 -16.5 -23.5 -25.5s-20.167 -17 -31.5 -24s-23.166 -12 -35.499 -15s-24.166 -2.16699 -35.499 2.5c-6.66699 -14 -14 -27.833 -22 -41.5s-16.5 -26 -25.5 -37
s-18 -19.833 -27 -26.5s-17.5 -10 -25.5 -10c-14.667 0 -25.834 8.33301 -33.501 25s-12.834 35.334 -15.501 56.001c-13.333 -18 -25 -30.333 -35 -37s-20.333 -10 -31 -10c-15.333 0 -26.666 5.5 -33.999 16.5s-10.333 29.167 -9 54.5c0.666992 12.667 2 27 4 43
s4.33301 31.833 7 47.5l8 45zM239.004 286.997c3.33301 1.33301 7 5.66699 11 13s7.66699 15 11 23c4 10 6 18.5 6 25.5s-1.5 11.167 -4.5 12.5s-6.5 -0.166992 -10.5 -4.5s-8 -12.5 -12 -24.5c-3.33301 -9.33301 -5.33301 -18.333 -6 -27s1 -14.667 5 -18z" />
    <glyph glyph-name="x" unicode="x" horiz-adv-x="259" 
d="M-11 387c0.666992 8 4.1709 14.166 10.5039 18.499s13.333 6.66602 21 6.99902s15 -1.33398 22 -5.00098s11.167 -9.16699 12.5 -16.5c1.33301 -17.333 4 -36.166 8 -56.499s8.66699 -42.5 14 -66.5c6.66699 6 15.667 14.833 27 26.5l35 35.5l33 32
c10 9.33301 17 15 21 17c6 2.66699 12 3.16699 18 1.5s9 -7.5 9 -17.5c0 -4 -3.66699 -10.333 -11 -19s-17.166 -19.167 -29.499 -31.5l-42.5 -41.5l-51 -47c3.33301 -14 7.16602 -27.667 11.499 -41s9.16602 -20 14.499 -20c6 0 16.667 6.66699 32 20
s31.166 28.333 47.499 45s31.166 32.834 44.499 48.501s21.666 25.834 24.999 30.501c6 4.66699 12 7 18 7s11 -1.5 15 -4.5s6.16699 -7 6.5 -12s-2.16699 -10.167 -7.5 -15.5l-61.5 -66.5c-20.333 -21.667 -39.666 -40.834 -57.999 -57.501s-34.833 -30 -49.5 -40
s-26.334 -15 -35.001 -15c-14 0 -25.833 6.16699 -35.5 18.5s-18.167 28.833 -25.5 49.5l-67 -65.5c-22.667 -21.667 -41 -40.5 -55 -56.5c-4 -3.33301 -8.83301 -4.66602 -14.5 -3.99902s-10.5 2.5 -14.5 5.5s-6.5 6.83301 -7.5 11.5s1.16699 9.66699 6.5 15
c24 25.333 47.5 49 70.5 71l69.5 65l-11.5 60c-3.66699 19.333 -6.66699 37 -9 53s-4 29.333 -5 40s-1.5 17.667 -1.5 21z" />
    <glyph glyph-name="y" unicode="y" horiz-adv-x="272" 
d="M80 327c-5.33301 -8.66699 -10.332 -18.498 -14.999 -29.498s-8.66699 -22.667 -12 -35s-6.16602 -24.833 -8.49902 -37.5s-3.83301 -24.334 -4.5 -35.001c-0.666992 -11.333 -0.833984 -20.666 -0.500977 -27.999s1.16602 -11 2.49902 -11c4.66699 0 10.334 4 17.001 12
s13.667 18 21 30l23 38.5c8 13.667 16 26.5 24 38.5s16 22 24 30s15.333 12 22 12c9.33301 0 15.5 -4.33301 18.5 -13s4.5 -18.834 4.5 -30.501s-0.833008 -23.167 -2.5 -34.5l-3.5 -24c14 13.333 28.333 28.333 43 45s29.334 34.667 44.001 54c2 4.66699 5 7.66699 9 9
s8.33301 1.16602 13 -0.500977s8.5 -4.33398 11.5 -8.00098s4.5 -7.83398 4.5 -12.501c0 -3.33301 -1.33301 -7.33301 -4 -12c-20.667 -28 -42.5 -53.833 -65.5 -77.5s-45.167 -44.5 -66.5 -62.5c-6.66699 -36 -14.834 -72.167 -24.501 -108.5s-22.167 -70.833 -37.5 -103.5
c-5.33301 -10.667 -12.5 -23.834 -21.5 -39.501s-19.333 -30.834 -31 -45.501s-24.667 -27.167 -39 -37.5s-28.833 -15.5 -43.5 -15.5c-17.333 0 -30.166 4.5 -38.499 13.5s-13.333 20.333 -15 34s-0.833984 28.834 2.49902 45.501s7.66602 32.667 12.999 48
c6.66699 20 15.667 39.167 27 57.5s24 35.833 38 52.5s29 32.334 45 47.001s32 28.334 48 41.001l8 7c1.33301 4 2.33301 8.16699 3 12.5s1.33398 8.16602 2.00098 11.499c-17.333 -22.667 -32.5 -37.5 -45.5 -44.5s-25.5 -10.5 -37.5 -10.5
c-19.333 0 -33.833 7.83301 -43.5 23.5s-13.834 37.167 -12.501 64.5c0.666992 13.333 3 29.5 7 48.5s9.5 37.167 16.5 54.5s15.333 32 25 44s20.5 18 32.5 18c4.66699 0 9.16699 -1.16699 13.5 -3.5s7.83301 -5.16602 10.5 -8.49902s4.16699 -7.16602 4.5 -11.499
s-1.5 -8.5 -5.5 -12.5zM131.001 106.002l-37 -30.001c4.66699 14.667 8.66699 29.334 12 44.001zM55.001 -49.999c8 17.333 15.168 37.167 21.501 59.5s12.166 44.5 17.499 66.5c-26 -23.333 -47.667 -45.833 -65 -67.5s-30.666 -46.5 -39.999 -74.5l-10 -31
c-3.33301 -10.667 -6 -20.667 -8 -30s-2.83301 -17 -2.5 -23s2.16602 -9 5.49902 -9c7.33301 0 18.5 9.5 33.5 28.5s30.833 45.833 47.5 80.5z" />
    <glyph glyph-name="z" unicode="z" horiz-adv-x="285" 
d="M141 291c15.333 -2 28.667 -8.17285 40 -18.5059s17.666 -27.5 18.999 -51.5c19.333 16.667 35.833 31.834 49.5 45.501s26.167 27.834 37.5 42.501c6 3.33301 11.833 4.83301 17.5 4.5s10.167 -2 13.5 -5s5.33301 -6.83301 6 -11.5s-1 -9.66699 -5 -15
c-19.333 -23.333 -39.833 -43.833 -61.5 -61.5s-42.167 -37.167 -61.5 -58.5c-6.66699 -34.667 -15.167 -66.667 -25.5 -96s-21.666 -56.166 -33.999 -80.499s-25.333 -46 -39 -65s-27.167 -35.5 -40.5 -49.5c-22.667 -24.667 -43.334 -40.167 -62.001 -46.5
s-33 -5.5 -43 2.5s-15 22 -15 42s7 44.333 21 73c10 19.333 22 39 36 59s28.833 39.167 44.5 57.5l46.5 52l41 42.5c0.666992 5.33301 2 13 4 23s3.16699 20 3.5 30s-0.833984 18.667 -3.50098 26s-7.66699 11 -15 11c-4 0 -8.66699 -0.333008 -14 -1l-16 -2
c-8.66699 -0.666992 -15.5 0.5 -20.5 3.5s-8.16699 7 -9.5 12s-1.33301 10.833 0 17.5s4 13 8 19c6 8.66699 13.5 16.834 22.5 24.501s18.333 14.834 28 21.501l28 19c9 6 16.167 11.667 21.5 17c-13.333 -1.33301 -26.166 -3.33301 -38.499 -6s-25.166 -4 -38.499 -4
l-20.5 -37c-7.66699 -13.333 -16.834 -28 -27.501 -44c-4 -6 -9 -9.5 -15 -10.5s-11.333 -0.333008 -16 2s-8 6 -10 11s-1 10.5 3 16.5c9.33301 13.333 18 26.666 26 39.999s14.333 25 19 35c-6 3.33301 -12.333 7.83301 -19 13.5s-12.5 11.834 -17.5 18.501
s-9 13.5 -12 20.5s-4.5 13.5 -4.5 19.5c0.666992 15.333 5 27.166 13 35.499s17.333 13.666 28 15.999s21.5 1.83301 32.5 -1.5s20.5 -9.5 28.5 -18.5s13.333 -20.333 16 -34s0.333984 -29.5 -6.99902 -47.5c7.33301 0.666992 18.666 1.83398 33.999 3.50098
s30.333 1.83398 45 0.500977s26.834 -5 36.501 -11s12.5 -16 8.5 -30c-1.33301 -6 -5.5 -13.167 -12.5 -21.5s-15 -16.166 -24 -23.499s-18 -13.5 -27 -18.5s-16.5 -7.5 -22.5 -7.5zM99.001 66.9941c-8 -6.66699 -17.168 -15.998 -27.501 -27.998
s-20.666 -25.333 -30.999 -40s-20 -29.334 -29 -44.001s-16 -27.5 -21 -38.5s-7.66699 -19.333 -8 -25s3.16699 -6.5 10.5 -2.5c10 4 20.5 13.667 31.5 29s21.5 32.5 31.5 51.5s18.833 37.667 26.5 56s13.167 32.166 16.5 41.499zM51 396.996
c1.33301 3.33301 2.16602 6.16699 2.49902 8.5s0.833008 4.83301 1.5 7.5c2.66699 -1.33301 5.33398 -2.5 8.00098 -3.5s5 -1.83301 7 -2.5zM31 445.997c-0.666992 -5.33301 1.49707 -11.167 6.49707 -17.5s10.833 -11.5 17.5 -15.5
c0.666992 3.33301 1.33398 6.33301 2.00098 9s1 5.66699 1 9c0.666992 10 -0.166016 17.167 -2.49902 21.5s-5.16602 6.5 -8.49902 6.5s-6.83301 -1.33301 -10.5 -4s-5.5 -5.66699 -5.5 -9z" />
    <glyph glyph-name="braceleft" unicode="{" horiz-adv-x="252" 
d="M261 605c3.33301 -2 6.50391 -4.66797 9.50391 -8.00098s4.16699 -6.66602 3.5 -9.99902c0 -7.33301 -2.66699 -12.5 -8 -15.5s-10.666 -4.5 -15.999 -4.5c-8.66699 0 -14.334 0.333008 -17.001 1s-6 1.66699 -10 3c-4 2 -7 3 -9 3c-12 0 -21.667 -5.5 -29 -16.5
s-13 -25 -17 -42s-7 -36 -9 -57s-3.66699 -41.833 -5 -62.5c-2 -29.333 -4.5 -55.666 -7.5 -78.999s-10.167 -40.666 -21.5 -51.999c1.33301 -6 1.83301 -12.333 1.5 -19s-0.833008 -13 -1.5 -19c-0.666992 -14 -2.5 -27.833 -5.5 -41.5s-6.16699 -27.167 -9.5 -40.5
c-3.33301 -11.333 -6 -23 -8 -35s-3.66699 -25.667 -5 -41c-1.33301 -26 2.83398 -45.167 12.501 -57.5s22.167 -18.5 37.5 -18.5c9.33301 0 19 1.5 29 4.5s19.667 7.16699 29 12.5c8.66699 0 15.667 -1.33301 21 -4s7.66602 -8.33398 6.99902 -17.001
c0 -6 -3.66699 -11.333 -11 -16s-16 -8.66699 -26 -12s-20.333 -5.83301 -31 -7.5s-19.334 -2.5 -26.001 -2.5c-14 0 -27.667 2 -41 6s-25 10.333 -35 19s-17.833 20.167 -23.5 34.5s-7.83398 32.166 -6.50098 53.499c1.33301 16.667 3.16602 32 5.49902 46
s5.16602 28 8.49902 42c3.33301 13.333 6.33301 26.833 9 40.5s4.66699 27.5 6 41.5c0 3.33301 0.666992 7.5 2 12.5s3.66602 7.83301 6.99902 8.5c-10.667 0 -19.5 1.16699 -26.5 3.5s-12.5 5.33301 -16.5 9s-6.66699 7.66699 -8 12s-2 8.16602 -2 11.499
c0.666992 9.33301 4.83398 16.333 12.501 21s14.167 7 19.5 7c3.33301 0 7 -0.833008 11 -2.5s7.66699 -3.5 11 -5.5c4 -2.66699 8 -5 12 -7c0.666992 3.33301 1.5 12.333 2.5 27s2.5 32.667 4.5 54c1.33301 24.667 3.5 50.834 6.5 78.501s8.33301 52.834 16 75.501
s18.667 41.5 33 56.5s33.833 22.5 58.5 22.5c8.66699 0 17.5 -0.833008 26.5 -2.5s18.5 -4.83398 28.5 -9.50098z" />
    <glyph glyph-name="bar" unicode="|" 
d="M283 751c0 4 1.83105 7.33301 5.49805 10s7.83398 4 12.501 4h32c10.667 0 16 -4.66699 16 -14l-40 -768c-0.666992 -4 -2.5 -7.5 -5.5 -10.5s-7.16699 -4.5 -12.5 -4.5h-32c-4.66699 0 -8.66699 1.5 -12 4.5s-4.66602 6.5 -3.99902 10.5z" />
    <glyph glyph-name="braceright" unicode="}" horiz-adv-x="252" 
d="M17 -36c-10.667 3.33301 -15.3291 9.66602 -13.9961 18.999c0 6.66699 2.33301 11.667 7 15s10 5 16 5c4 0 8.16699 -0.5 12.5 -1.5s8.5 -2.16699 12.5 -3.5c4 -2 7.66699 -3 11 -3c12 0 21.667 5.5 29 16.5s13.166 25 17.499 42s7.5 36.167 9.5 57.5
s3.66699 42.333 5 63c2 28 4.5 53.667 7.5 77s9.5 41 19.5 53c-0.666992 6.66699 -0.833984 13.167 -0.500977 19.5s0.5 12.5 0.5 18.5c1.33301 15.333 3.16602 29.5 5.49902 42.5s5.16602 26.167 8.49902 39.5s6.33301 26.666 9 39.999s4.66699 26.666 6 39.999
c0.666992 14 -0.5 25.667 -3.5 35s-7.16699 16.833 -12.5 22.5s-11.333 9.5 -18 11.5s-13.334 3 -20.001 3c-17.333 0 -35 -5.33301 -53 -16c-0.666992 0 -2 -0.166992 -4 -0.5s-3.33301 -0.5 -4 -0.5c-5.33301 0 -10.5 2 -15.5 6s-7.16699 8.66699 -6.5 14
c0 6 3.66699 11.333 11 16s16 8.83398 26 12.501s20.167 6.33398 30.5 8.00098s19.166 2.5 26.499 2.5c14.667 0 28.667 -1.83301 42 -5.5s25 -10 35 -19s17.667 -20.667 23 -35s7.66602 -32.166 6.99902 -53.499c-1.33301 -16 -3.33301 -30.833 -6 -44.5
s-5.66699 -27.167 -9 -40.5s-6.16602 -26.5 -8.49902 -39.5s-4.16602 -26.167 -5.49902 -39.5c0 -2.66699 -0.5 -7.5 -1.5 -14.5s-4.16699 -11.167 -9.5 -12.5c4.66699 0 10.167 -0.666992 16.5 -2s12.5 -3.33301 18.5 -6s11 -6.16699 15 -10.5s6 -9.5 6 -15.5
c-0.666992 -10 -5 -17.5 -13 -22.5s-14.667 -7.5 -20 -7.5c-6 0 -11.833 1.33301 -17.5 4s-10.834 6 -15.501 10l-4 4c-0.666992 -2.66699 -1.33398 -11.334 -2.00098 -26.001s-1.66699 -32.667 -3 -54c-1.33301 -25.333 -3.16602 -51.833 -5.49902 -79.5
s-7.33301 -53.167 -15 -76.5s-18.667 -42.666 -33 -57.999s-34.166 -23 -59.499 -23c-17.333 0 -35.666 4.33301 -54.999 13h1z" />
    <glyph glyph-name="asciitilde" unicode="~" horiz-adv-x="323" 
d="M56 221c-2 -2 -4.16797 -3.83105 -6.50098 -5.49805s-6.16602 -2.5 -11.499 -2.5c-8 0 -13.833 2.66699 -17.5 8s-5.16699 11.666 -4.5 18.999c14 33.333 28.167 56.5 42.5 69.5s31.5 19.5 51.5 19.5c10.667 0 22 -1.83301 34 -5.5s25.667 -8.5 41 -14.5l16 -6l23 -6
c8 -2 15.667 -3 23 -3s14.5 2.16699 21.5 6.5s12.167 12.166 15.5 23.499c2 4 4.66699 7.5 8 10.5s8.33301 4.5 15 4.5s12.167 -2.33301 16.5 -7s6.16602 -9.66699 5.49902 -15c-3.33301 -12 -7 -23.167 -11 -33.5s-9 -19.333 -15 -27s-13.167 -13.667 -21.5 -18
s-18.833 -6.5 -31.5 -6.5c-9.33301 0 -19.666 1.5 -30.999 4.5s-22.666 7.16699 -33.999 12.5h1l-38.5 13c-12.333 4 -24.5 6 -36.5 6c-10 0 -19.333 -3 -28 -9s-16.334 -16.667 -23.001 -32z" />
    <glyph glyph-name="exclamdown" unicode="&#xa1;" horiz-adv-x="121" 
d="M139 453c0 -12 -5.66895 -22 -17.002 -30l3 2c-3.33301 -2.66699 -7.16602 -4.5 -11.499 -5.5l-14.5 -3.5c-8 1.33301 -15.333 4 -22 8s-9.66699 11.667 -9 23c0.666992 8.66699 4.83398 17 12.501 25s17.167 12 28.5 12s19.333 -3 24 -9s6.66699 -13.333 6 -22z
M11.998 -119c-6 -0.666992 -10.498 0.668945 -13.498 4.00195s-3.83301 7.33301 -2.5 12c6.66699 37.333 14.5 78.5 23.5 123.5s17.5 90.667 25.5 137s15.167 92.166 21.5 137.499s10.833 87 13.5 125c3.33301 4 7.66602 7 12.999 9s10 3 14 3c3.33301 0 6 -0.333008 8 -1
s4.33301 -1.33398 7 -2.00098c3.33301 -1.33301 6.16602 -3 8.49902 -5s3.16602 -4.66699 2.49902 -8c-2.66699 -42 -6 -85.167 -10 -129.5s-8.66699 -88.833 -14 -133.5s-11.666 -88.667 -18.999 -132s-15.333 -84.666 -24 -123.999
c-0.666992 -3.33301 -2.5 -5.83301 -5.5 -7.5s-6.16699 -2.83398 -9.5 -3.50098z" />
    <glyph glyph-name="cent" unicode="&#xa2;" horiz-adv-x="237" 
d="M214 362l-2.50098 -12.002c-1.66699 -8 -4 -16.5 -7 -25.5s-7.16699 -17.333 -12.5 -25s-11.333 -11.5 -18 -11.5c-7.33301 0 -12.833 2.5 -16.5 7.5s-5.16699 9.5 -4.5 13.5c0 1.33301 0.166992 3 0.5 5s1.83301 4.66699 4.5 8l-3 -3
c5.33301 9.33301 8.83301 17.333 10.5 24s2.5 12.667 2.5 18c0.666992 4.66699 -0.666016 7 -3.99902 7c-18 0 -35.167 -7 -51.5 -21s-30.833 -31.167 -43.5 -51.5s-23 -42 -31 -65s-12.333 -43.833 -13 -62.5c-0.666992 -13.333 0.333008 -24.166 3 -32.499
s8 -12.5 16 -12.5c10 0 22.667 6.16699 38 18.5s31.333 27.666 48 45.999s33.167 37.666 49.5 57.999l42.5 54.5c2 2 4.16699 4.66699 6.5 8l5.5 8c4 5.33301 10.333 8 19 8c5.33301 0 10.333 -2 15 -6s6.66699 -9.33301 6 -16c0 -3.33301 -1.33301 -7.33301 -4 -12l-19 -24
l-52 -65c-18 -22 -36.333 -42 -55 -60s-37.667 -32.667 -57 -44s-39 -17 -59 -17c-14 0 -25.667 2.66699 -35 8s-16.666 12.333 -21.999 21s-9 18.834 -11 30.501s-2.66699 23.834 -2 36.501c1.33301 24 7.16602 49.667 17.499 77s24.166 52.833 41.499 76.5
s37.833 43.334 61.5 59.001s49.167 23.5 76.5 23.5c16.667 0 30.834 -3.33301 42.501 -10s17.5 -19.667 17.5 -39zM91.999 529.998c1.33301 9.33301 7.66602 14 18.999 14h26c5.33301 0 9.66602 -1.33301 12.999 -4s4.66602 -6 3.99902 -10l-27 -528
c-1.33301 -9.33301 -7.66602 -14 -18.999 -14h-26c-5.33301 0 -9.66602 1.33301 -12.999 4s-4.66602 6 -3.99902 10z" />
    <glyph glyph-name="sterling" unicode="&#xa3;" horiz-adv-x="362" 
d="M29 319c1.33301 9.33301 7.33105 13.9961 17.998 13.9961h52l23 59l34 85.5l32 76.5l5 12c-8 -5.33301 -15.5 -11.166 -22.5 -17.499s-13.167 -14 -18.5 -23s-9.83301 -19.667 -13.5 -32s-5.83398 -27.166 -6.50098 -44.499c0 -5.33301 -2.33301 -10 -7 -14
s-10.667 -6 -18 -6c-5.33301 0 -10 2 -14 6s-6 8.66699 -6 14c1.33301 25.333 4.5 46.333 9.5 63s11.667 30.667 20 42s18 21 29 29s22.833 16 35.5 24c13.333 8 27 17.333 41 28s29.667 26.334 47 47.001l-3 -3c3.33301 5.33301 6.83301 8.33301 10.5 9
s6.83398 1 9.50098 1c6.66699 0 12.167 -1.66699 16.5 -5s6.5 -8.66602 6.5 -15.999c-0.666992 -2 -1.66699 -4.33301 -3 -7l-15 -34l-22 -50l-47 -110c-16.667 -39.333 -34.334 -84 -53.001 -134h94c5.33301 0 9.5 -1.33301 12.5 -4s4.16699 -6 3.5 -10l-2 -38
c0 -3.33301 -1.66699 -6.5 -5 -9.5s-7.66602 -4.5 -12.999 -4.5h-115c-8 -23.333 -15.5 -46.5 -22.5 -69.5s-13.333 -45.167 -19 -66.5s-10.167 -41 -13.5 -59s-5.33301 -33.667 -6 -47c-1.33301 -19.333 0 -33.166 4 -41.499s9.66699 -12.5 17 -12.5
c12 0 27.333 5.33301 46 16s38.667 24.167 60 40.5s43 34 65 53l62 54.5c2 1.33301 4.66699 2.5 8 3.5s6 1.5 8 1.5c14 0 21 -7 21 -21c-0.666992 -2.66699 -1.33398 -5 -2.00098 -7s-2.66699 -4.66699 -6 -8l-7 -6l-59 -52
c-23.333 -20.667 -47.666 -40.334 -72.999 -59.001s-50.166 -34.667 -74.499 -48s-45.166 -20 -62.499 -20c-24.667 0 -44 8.83301 -58 26.5s-20 43.5 -18 77.5c1.33301 27.333 7.83301 63 19.5 107s25.5 89.667 41.5 137h-32c-4.66699 0 -8.5 1.5 -11.5 4.5
s-4.5 6.16699 -4.5 9.5z" />
    <glyph glyph-name="currency" unicode="&#xa4;" horiz-adv-x="391" 
d="M219 533c28.667 0 56.667 -9.00293 84 -27.0029l3.5 3.5c1 1 2.16699 2.83301 3.5 5.5l48 49c8.66699 5.33301 17 5.33301 25 0c0.666992 -1.33301 1.66699 -2.66602 3 -3.99902s2.33301 -2.5 3 -3.5s1.66699 -2.16699 3 -3.5l9 -9c4 -3.33301 5.83301 -7 5.5 -11
s-2.5 -7.66699 -6.5 -11l-48 -47l-9 -11c16 -30.667 23 -61.334 21 -92.001c-2 -33.333 -12.333 -63.333 -31 -90l28 -32l21 -23c5.33301 -1.33301 8.16602 -3.66602 8.49902 -6.99902s-1 -7.16602 -4 -11.499s-6.66699 -8.66602 -11 -12.999l-11.5 -11.5l2 1
c-2 -3.33301 -5.16699 -5.5 -9.5 -6.5s-8.83301 -0.5 -13.5 1.5c-1.33301 0 -4.16602 2.33301 -8.49902 7l-14.5 16l-17 19l-15 17c-26.667 -18 -55 -27 -85 -27c-15.333 0 -30.5 2.16699 -45.5 6.5s-28.167 10.833 -39.5 19.5l-17 -17.5l-18 -18.5l-21 -21
c-8 -6 -16 -6 -24 0l-18 22l4 -2c-4 3.33301 -3 10.333 3 21s15.333 22 28 34c6 6 11.833 11 17.5 15s10.167 4.33301 13.5 1c-11.333 15.333 -19 31.5 -23 48.5s-5.33301 34.167 -4 51.5c1.33301 16 4.5 32 9.5 48s12.167 30.667 21.5 44l-53 58
c-5.33301 4 -7.16602 8.33301 -5.49902 13s5.16699 8 10.5 10c-1.33301 -0.666992 -1 0 1 2s4 4.33301 6 7c2.66699 2.66699 5.66699 6 9 10c8 6 16 6 24 0l11.5 -14l16 -19l14.5 -17.5c4 -5 6.33301 -7.5 7 -7.5c27.333 18 56.666 27 87.999 27zM232 477.997
c-3.33301 0.666992 -6.16602 1 -8.49902 1h-5.5c-28.667 0 -52.5 -10.167 -71.5 -30.5s-29.167 -45.833 -30.5 -76.5c-1.33301 -29.333 6 -54.333 22 -75s38.667 -31 68 -31c10.667 0 21.5 2.16699 32.5 6.5s21.167 10.833 30.5 19.5s17.333 19.5 24 32.5s11 28.167 13 45.5
c0.666992 12.667 -0.5 25 -3.5 37s-7.5 22.833 -13.5 32.5s-13.833 18 -23.5 25s-20.834 11.5 -33.501 13.5z" />
    <glyph glyph-name="yen" unicode="&#xa5;" horiz-adv-x="471" 
d="M235 631c-15.333 -10.667 -29.5 -26.6621 -42.5 -47.9951s-24.167 -45.333 -33.5 -72s-16.833 -54.5 -22.5 -83.5s-9.16699 -56.167 -10.5 -81.5c-2.66699 -45.333 0.333008 -77.833 9 -97.5s17.334 -29.5 26.001 -29.5s18.667 5 30 15s22.833 23 34.5 39
s23.5 34 35.5 54s23.5 40.333 34.5 61l30.5 58.5c9.33301 18.333 17 34.166 23 47.499l29 57c2.66699 2 6.16699 4.33301 10.5 7s8.83301 4 13.5 4s8.33398 -1.66699 11.001 -5s4.5 -7.33301 5.5 -12s1.5 -9.5 1.5 -14.5v-12.5l-8 -63
c-3.33301 -28 -7.83301 -59.833 -13.5 -95.5s-12.5 -72.834 -20.5 -111.501c18 12 34.333 23.833 49 35.5s26.667 23.167 36 34.5c3.33301 3.33301 6.66602 5.16602 9.99902 5.49902s5.66602 0.5 6.99902 0.5c5.33301 0 10.333 -2.5 15 -7.5s6.66699 -9.83301 6 -14.5
c0 -1.33301 -0.166992 -3 -0.5 -5s-1.83301 -4.66699 -4.5 -8c-12.667 -14 -30.334 -29.5 -53.001 -46.5s-48.667 -35.167 -78 -54.5c-11.333 -47.333 -25.166 -95.5 -41.499 -144.5s-34.5 -91.833 -54.5 -128.5c-10.667 -18 -23 -33.667 -37 -47s-28.833 -24.5 -44.5 -33.5
s-31.334 -15.833 -47.001 -20.5s-30.5 -7 -44.5 -7c-12.667 0 -24.5 1.66699 -35.5 5s-20.5 8.16602 -28.5 14.499s-14.333 14.333 -19 24s-6.66699 21.167 -6 34.5s4.33398 27.333 11.001 42s14.5 28.667 23.5 42s18.333 25.666 28 36.999s18.167 20.666 25.5 27.999
c30 31.333 62.333 60 97 86s70 50.667 106 74l13 55.5c3.33301 13.667 6 25.834 8 36.501s3.66699 21.334 5 32.001l5 41c-12 -21.333 -25.167 -43 -39.5 -65s-29.5 -42 -45.5 -60s-32.333 -32.667 -49 -44s-33.334 -17 -50.001 -17c-20 0.666992 -36 7.16699 -48 19.5
s-21.167 27.166 -27.5 44.499s-10.333 36 -12 56s-1.83398 38.333 -0.500977 55c0.666992 20 3.16699 41.833 7.5 65.5s10 47.334 17 71.001s15.333 46.5 25 68.5s20.334 41.5 32.001 58.5s24.334 30.5 38.001 40.5s27.834 15 42.501 15c8.66699 0 15.5 -1.83301 20.5 -5.5
s7.5 -7.83398 7.5 -12.501c-0.666992 -3.33301 -1.83398 -6.33301 -3.50098 -9s-5.16699 -5.66699 -10.5 -9h2zM318 157.005c-6.66699 -4 -12.832 -8 -18.499 -12s-11.834 -8 -18.501 -12l11 39zM88.002 -145.995c26.667 0 50.1699 8.49902 70.5029 25.499
s38.166 39 53.499 66s28.666 57 39.999 90s21 65.5 29 97.5l-79.5 -59.5c-27 -21 -52.5 -44.167 -76.5 -69.5c-5.33301 -5.33301 -11.833 -12.5 -19.5 -21.5s-15.334 -18.667 -23.001 -29s-14.167 -21.166 -19.5 -32.499s-8.33301 -22.333 -9 -33
c-1.33301 -12 1.5 -20.667 8.5 -26s15.5 -8 25.5 -8zM410.005 127.004c7.33301 -2 12.332 -5.16895 14.999 -9.50195s4 -7.83301 4 -10.5c0 -6 -6.66699 -10.833 -20 -14.5s-29.5 -6.16699 -48.5 -7.5s-39 -2.16602 -60 -2.49902s-39.167 -0.5 -54.5 -0.5
c-20 0 -43.333 0.333008 -70 1s-52 2 -76 4s-44.167 4.83301 -60.5 8.5s-24.5 8.83398 -24.5 15.501c0 4.66699 3.16699 8.5 9.5 11.5s14.333 5.33301 24 7s20.834 2.66699 33.501 3s25.667 0.5 39 0.5h76c26.667 0 53 -0.166992 79 -0.5s50.5 -1 73.5 -2
s42.5 -2.16699 58.5 -3.5h2zM404.004 18.002c13.333 -3.33301 19.666 -10.001 18.999 -20.001c0 -6 -6.66699 -10.833 -20 -14.5s-29.5 -6.16699 -48.5 -7.5s-39 -2.16602 -60 -2.49902s-39.167 -0.5 -54.5 -0.5c-20 0 -43.167 0.333008 -69.5 1s-51.5 2 -75.5 4
s-44.333 5 -61 9s-24.667 9.33301 -24 16c0 4.66699 3.16699 8.5 9.5 11.5s14.333 5.16699 24 6.5s20.834 2.33301 33.501 3s25.667 1 39 1c24 0 49.333 -0.166992 76 -0.5l79 -1c26 -0.333008 50.333 -1 73 -2s42 -2.16699 58 -3.5h2z" />
    <glyph glyph-name="brokenbar" unicode="&#xa6;" horiz-adv-x="67" 
d="M62 249c4.66699 0 8.50098 -1.5 11.501 -4.5s4.5 -6.5 4.5 -10.5l-14 -258c0 -4 -1.66699 -7.33301 -5 -10s-7.33301 -4 -12 -4h-31c-10.667 0 -16 4.66699 -16 14l13 258c0 4 1.66699 7.5 5 10.5s7.66602 4.5 12.999 4.5h31zM81.001 617
c4.66699 0 8.50098 -1.5 11.501 -4.5s4.5 -6.5 4.5 -10.5l-13 -257c-0.666992 -4 -2.66699 -7.5 -6 -10.5s-7.33301 -4.5 -12 -4.5h-31c-5.33301 0 -9.5 1.5 -12.5 4.5s-4.16699 6.5 -3.5 10.5l13 257c0 4 1.66699 7.5 5 10.5s7.66602 4.5 12.999 4.5h31z" />
    <glyph glyph-name="section" unicode="&#xa7;" horiz-adv-x="254" 
d="M147 161c-5.33301 -9.33301 -11.333 -18.333 -18 -27l-17 23l9 3c14 5.33301 26.333 13.333 37 24c-2 -5.33301 -5.66699 -13 -11 -23zM162 204c0 -7.33301 -1.33496 -13.999 -4.00195 -19.999c7.33301 7.33301 13.333 14.833 18 22.5s7.33398 15.5 8.00098 23.5
c0 7.33301 -3.16699 13.166 -9.5 17.499s-13.833 8.16602 -22.5 11.499c-7.33301 3.33301 -14.833 7 -22.5 11s-14.5 8.83301 -20.5 14.5s-10.833 12.334 -14.5 20.001s-5.16699 17.167 -4.5 28.5c0 3.33301 0.333008 6.16602 1 8.49902s1.33398 5.16602 2.00098 8.49902
c-7.33301 -7.33301 -13.833 -14.666 -19.5 -21.999s-8.5 -14.666 -8.5 -21.999c-0.666992 -5.33301 2.5 -10.166 9.5 -14.499s14.833 -8.83301 23.5 -13.5c8 -4 15.833 -8.33301 23.5 -13s14.667 -9.83398 21 -15.501s11.333 -12.167 15 -19.5s5.16699 -16 4.5 -26z
M29.998 131.001c10.667 3.33301 20.833 9.33105 30.5 17.998s17.5 17.667 23.5 27c-15.333 -7.33301 -29 -15.166 -41 -23.499s-18.667 -16.166 -20 -23.499c2 0 4.33301 0.666992 7 2zM108.997 114.999h-2l-2 -1zM172.997 314.999
c22 -8.66699 40.9902 -19.332 56.9902 -31.999s23.667 -29.334 23 -50.001c-1.33301 -17.333 -6.83301 -33.166 -16.5 -47.499s-21.5 -26.666 -35.5 -36.999s-28.5 -18.5 -43.5 -24.5s-27.833 -9 -38.5 -9h-10c-12.667 -10.667 -25 -18.334 -37 -23.001s-25.667 -7 -41 -7
c-14 0 -26.667 3.16699 -38 9.5s-16.666 17.166 -15.999 32.499c0.666992 9.33301 4.16699 18.333 10.5 27s14.333 17 24 25s20.667 15.333 33 22s24.5 12.667 36.5 18c-3.33301 2 -6.16602 3.5 -8.49902 4.5s-5.5 2.5 -9.5 4.5h1l-23 11c-8 4 -15 8.66699 -21 14
s-11 12 -15 20s-5.66699 17.667 -5 29c0.666992 16.667 5.83398 32.5 15.501 47.5s21.334 28 35.001 39s28.167 19.667 43.5 26s29.666 9.5 42.999 9.5c3.33301 0 5.33301 0.166992 6 0.5s2 0.166016 4 -0.500977c12 10 25.167 17.667 39.5 23s28.166 8 41.499 8
c16.667 0 30.334 -4.33301 41.001 -13s15.334 -22.667 14.001 -42c0 -1.33301 -1.16699 -6.66602 -3.5 -15.999s-5.66602 -19.333 -9.99902 -30s-10 -20.334 -17 -29.001s-15.167 -13 -24.5 -13c-5.33301 0 -10.166 2.5 -14.499 7.5s-6.5 9.5 -6.5 13.5
c0 7.33301 4.33301 13.333 13 18l-2 -1c2.66699 2.66699 5.16699 6.33398 7.5 11.001s4.33301 9.5 6 14.5s2.83398 9.66699 3.50098 14s1 7.5 1 9.5c0.666992 6 0.333984 9 -0.999023 9c-5.33301 0 -12.166 -2 -20.499 -6s-16.666 -9.33301 -24.999 -16
s-15.5 -14.5 -21.5 -23.5s-9.33301 -18.5 -10 -28.5c0 -9.33301 5 -15.333 15 -18v-1z" />
    <glyph glyph-name="dieresis" unicode="&#xa8;" horiz-adv-x="194" 
d="M119 524c0.666992 13.333 5.66699 24.666 15 33.999s20.666 14 33.999 14s24.833 -4.66699 34.5 -14s14.167 -20.666 13.5 -33.999s-6.33398 -24.5 -17.001 -33.5s-22.667 -13.5 -36 -13.5s-24.166 4.5 -32.499 13.5s-12.166 20.167 -11.499 33.5zM29 526
c0.666992 13.333 5.83398 24.666 15.501 33.999s21.167 14 34.5 14s24.666 -4.66699 33.999 -14s13.666 -20.666 12.999 -33.999s-6.16699 -24.5 -16.5 -33.5s-22.166 -13.5 -35.499 -13.5s-24.333 4.5 -33 13.5s-12.667 20.167 -12 33.5z" />
    <glyph glyph-name="copyright" unicode="&#xa9;" horiz-adv-x="451" 
d="M230 635c3.33301 0.666992 6.83496 0.996094 10.502 0.996094h11.5c27.333 0 53.666 -5.83301 78.999 -17.5s47.666 -27.667 66.999 -48s34.5 -44.666 45.5 -72.999s15.5 -59.166 13.5 -92.499c-2 -32 -8.66699 -62.833 -20 -92.5s-26.5 -55.667 -45.5 -78
s-41.667 -40.166 -68 -53.499s-55.166 -20 -86.499 -20c-38 0 -70.833 6.83301 -98.5 20.5s-50.167 31.5 -67.5 53.5s-29.833 47 -37.5 75s-10.834 56 -9.50098 84c1.33301 28.667 7.16602 56.834 17.499 84.501s24.5 52.5 42.5 74.5s39.333 40.333 64 55
s52.334 23.667 83.001 27h-1zM194.002 215.996c6.66699 -2 13.166 -3.66602 19.499 -4.99902s12.833 -2 19.5 -2c22.667 0 43.834 5.66699 63.501 17s37 26 52 44s26.833 38.333 35.5 61s13.667 45 15 67s-1 43.667 -7 65s-15.5 40.666 -28.5 57.999s-29.5 31.333 -49.5 42
s-43 16 -69 16c-21.333 0 -41.333 -5.66699 -60 -17s-35.167 -26.333 -49.5 -45s-25.833 -39.667 -34.5 -63s-13.667 -47.333 -15 -72c-2 -35.333 5.33301 -68.333 22 -99s45.667 -53 87 -67h-1zM274.001 341.997l30.998 0.998047c-12 -23.333 -25 -43.333 -39 -60
s-29 -25 -45 -25c-20 0 -34.5 11.167 -43.5 33.5s-12.833 48.833 -11.5 79.5c0.666992 18.667 4 38.167 10 58.5s13.667 38.833 23 55.5s20.333 30.334 33 41.001s26.334 16 41.001 16c11.333 0 19.333 -5.33301 24 -16s6.33398 -22.667 5.00098 -36v-9
c0 -1.33301 -0.333008 -3 -1 -5s-1 -3.66699 -1 -5c0 2 -0.666992 4.16699 -2 6.5s-4.66602 3.5 -9.99902 3.5l-5 -1c-3.33301 -2 -5 -1.66699 -5 1c0.666992 17.333 -0.166016 28.833 -2.49902 34.5s-5.83301 8.5 -10.5 8.5c-14 0 -26.667 -5.33301 -38 -16
s-21 -24 -29 -40s-14.333 -33 -19 -51s-7.33398 -34 -8.00098 -48c-0.666992 -11.333 -0.5 -22.833 0.5 -34.5s3 -22.167 6 -31.5s6.83301 -17.166 11.5 -23.499s10.667 -9.5 18 -9.5c14.667 0 28.167 7.5 40.5 22.5s22.166 30.5 29.499 46.5z" />
    <glyph glyph-name="ordfeminine" unicode="&#xaa;" horiz-adv-x="229" 
d="M159.065 683.378l5.05566 -3.54492c2.36035 -1.6875 4.72168 -3.71289 7.08301 -6.0752c2.36035 -2.3623 4.46875 -5.0625 6.32422 -8.10059c1.85449 -3.03711 2.78223 -6.07422 2.78223 -9.1123c-0.336914 -2.7002 -1.60156 -5.0625 -3.79395 -7.08691
s-4.97461 -3.03711 -8.34766 -3.03711c-2.36035 0 -4.38379 0.84375 -6.07031 2.53125s-3.37305 3.54395 -5.05957 5.56836l-9.10645 10.6309c-3.37305 1.6875 -6.24023 2.53125 -8.60059 2.53125c-6.4082 0 -12.7324 -2.3623 -18.9727 -7.08789
c-6.23926 -4.72461 -11.9727 -10.4619 -17.2002 -17.2109c-5.22754 -6.75 -9.52734 -14.1748 -12.8994 -22.2744c-3.37305 -8.09961 -5.22852 -15.3555 -5.56543 -21.7676c-0.336914 -4.72461 -0.167969 -8.18359 0.506836 -10.3779
c0.674805 -2.19336 1.34961 -3.29004 2.02441 -3.29004c3.03613 0 6.74609 1.60254 11.1309 4.80859s8.9375 6.91895 13.6592 11.1377c4.72168 4.21777 9.27539 8.68945 13.6602 13.415l11.1299 11.6426h-0.505859c9.10645 10.124 16.1895 15.1865 21.249 15.1865
c2.02344 0 4.21582 -0.927734 6.57715 -2.78418c2.36035 -1.85645 3.37207 -4.30273 3.03516 -7.33984c0 -1.0127 -0.674805 -3.375 -2.02344 -7.08691s-2.86621 -7.42383 -4.55273 -11.1357l-10.3711 -26.8301c-3.87891 -10.125 -5.9873 -19.2373 -6.32422 -27.3369
l-1.01172 -7.08691c3.70996 0 8.9375 3.12207 15.6826 9.36523s13.9121 13.8369 21.501 22.7803l22.5137 27.8428l19.2246 25.0576l6.57715 8.09961c1.68652 1.6875 3.2041 2.7002 4.55273 3.03711c1.34961 0.337891 2.86719 0.506836 4.55371 0.506836
c3.37305 0 6.07129 -1.0127 8.09473 -3.03711c2.02344 -2.02539 3.03516 -4.21875 3.03516 -6.58105c0 -1.6875 -0.589844 -3.29102 -1.77051 -4.80957l-5.3125 -6.83398l-19.9834 -25.5645c-7.92578 -9.95605 -16.1895 -19.7432 -24.79 -29.3613
s-17.2012 -18.1396 -25.8018 -25.5645s-16.2734 -12.1494 -23.0186 -14.1738c-2.02344 -0.674805 -4.04688 -1.18066 -6.07129 -1.51758c-2.02344 -0.337891 -4.55273 -0.506836 -7.58887 -0.506836c-4.72168 0 -9.19043 1.18164 -13.4062 3.54395
s-7.50488 6.75 -9.86621 13.1621l-0.505859 3.03711v-1.51855c-0.336914 2.3623 -0.336914 5.56836 0 9.61816c0 2.7002 0.168945 5.48438 0.505859 8.35254s0.842773 5.99023 1.51758 9.36523c-4.72168 -3.71191 -9.86523 -6.91797 -15.4307 -9.61816
s-11.2148 -4.0498 -16.9482 -4.0498c-7.75781 0 -14.6719 2.78418 -20.7432 8.35254s-8.76953 14.9336 -8.09473 28.0957c0.336914 9.1123 2.78223 18.8154 7.33594 29.1094c4.55371 10.293 10.625 19.9111 18.2139 28.8545s16.4424 16.3682 26.5605 22.2734
c10.1182 5.90625 21.0801 8.85938 32.8848 8.85938c4.38477 0 8.43262 -0.337891 12.1426 -1.0127s7.25098 -2.02441 10.623 -4.0498z" />
    <glyph glyph-name="guillemotleft" unicode="&#xab;" horiz-adv-x="333" 
d="M305 430c4 3.33301 8.5 4.33203 13.5 2.99902s9.16699 -3.66602 12.5 -6.99902l10 -17c3.33301 -3.33301 4.16602 -6.66602 2.49902 -9.99902s-4.16699 -6.33301 -7.5 -9l-159 -133l143 -117c8 -5.33301 9.33301 -11.666 4 -18.999l-13 -17
c-2.66699 -3.33301 -6.66699 -5.5 -12 -6.5s-9.66602 -0.166992 -12.999 2.5l-174 145c-4 3.33301 -6 7.16602 -6 11.499s2.66699 8.16602 8 11.499zM215 430.999c4.66699 3.33301 9.33398 4.33203 14.001 2.99902s8.66699 -3.66602 12 -6.99902l10 -17
c3.33301 -3.33301 4.16602 -6.66602 2.49902 -9.99902s-4.16699 -6.33301 -7.5 -9l-159 -133l144 -117c7.33301 -5.33301 8.33301 -11.666 3 -18.999l-13 -17c-2.66699 -3.33301 -6.5 -5.5 -11.5 -6.5s-9.5 -0.166992 -13.5 2.5l-174 145c-4 3.33301 -6 7.16602 -6 11.499
s2.66699 8.16602 8 11.499z" />
    <glyph glyph-name="logicalnot" unicode="&#xac;" horiz-adv-x="519" 
d="M430 414h-360.001c-5.33301 0 -9.5 1.5 -12.5 4.5s-4.5 6.16699 -4.5 9.5l2 38c0 3.33301 1.83301 6.5 5.5 9.5s8.16699 4.5 13.5 4.5h412c4.66699 0 8.5 -1.5 11.5 -4.5s4.5 -6.16699 4.5 -9.5l-12 -237c-0.666992 -4 -2.66699 -7.5 -6 -10.5s-7.33301 -4.5 -12 -4.5
h-35c-4.66699 0 -8.66699 1.5 -12 4.5s-4.66602 6.5 -3.99902 10.5z" />
    <glyph glyph-name="registered" unicode="&#xae;" horiz-adv-x="451" 
d="M230 635c3.33301 0.666992 6.83496 0.996094 10.502 0.996094h11.5c27.333 0 53.666 -5.83301 78.999 -17.5s47.666 -27.667 66.999 -48s34.5 -44.666 45.5 -72.999s15.5 -59.166 13.5 -92.499c-2 -32 -8.66699 -62.833 -20 -92.5s-26.5 -55.667 -45.5 -78
s-41.667 -40.166 -68 -53.499s-55.166 -20 -86.499 -20c-38 0 -70.833 6.83301 -98.5 20.5s-50.167 31.5 -67.5 53.5s-29.833 47 -37.5 75s-10.834 56 -9.50098 84c1.33301 28.667 7.16602 56.834 17.499 84.501s24.5 52.5 42.5 74.5s39.333 40.333 64 55
s52.334 23.667 83.001 27h-1zM194.002 215.996c6.66699 -2 13.166 -3.66602 19.499 -4.99902s12.833 -2 19.5 -2c22.667 0 43.834 5.66699 63.501 17s37 26 52 44s26.833 38.333 35.5 61s13.667 45 15 67s-1 43.667 -7 65s-15.5 40.666 -28.5 57.999s-29.5 31.333 -49.5 42
s-43 16 -69 16c-21.333 0 -41.333 -5.66699 -60 -17s-35.167 -26.333 -49.5 -45s-25.833 -39.667 -34.5 -63s-13.667 -47.333 -15 -72c-2 -35.333 5.33301 -68.333 22 -99s45.667 -53 87 -67h-1zM167.001 261.997c0.666992 4 -0.161133 6.99609 -2.49414 8.99609
s-4.5 3 -6.5 3c-4.66699 0 -5.33398 6.33301 -2.00098 19c-2.66699 2.66699 -3.33398 5.66699 -2.00098 9c2.66699 12.667 6 26.834 10 42.501l12.5 48l12.5 48l11 41.5c-7.33301 -6 -13.833 -12 -19.5 -18s-8.83398 -12.667 -9.50098 -20
c0 -0.666992 -0.833008 -3.16699 -2.5 -7.5s-3.5 -6.5 -5.5 -6.5c-3.33301 0 -6.66602 -1.33301 -9.99902 -4s-5.33301 -4.66699 -6 -6c0 0.666992 -0.666992 2.33398 -2 5.00098c-1.33301 3.33301 -2.33301 6.5 -3 9.5s-0.666992 6.16699 0 9.5
c0.666992 13.333 5.66699 24.5 15 33.5s19.666 17.833 30.999 26.5l11 10c2.66699 2 6.33398 3 11.001 3l1 5v-2v-3c6 0 10.667 -3 14 -9l12 5c-1.33301 -2 -3 -3.83301 -5 -5.5s-3.66699 -3.5 -5 -5.5l-3 -14l-7 -20l-6 -25c12.667 26.667 27.167 49.834 43.5 69.501
s34.5 29.5 54.5 29.5c7.33301 0 14 -1.66699 20 -5s8.66699 -9.66602 8 -18.999c-1.33301 -11.333 -8.16602 -24.166 -20.499 -38.499s-25.5 -28.5 -39.5 -42.5c-10 -10 -19.833 -20.333 -29.5 -31s-14.5 -18.667 -14.5 -24c-0.666992 -6 -0.166992 -14.333 1.5 -25
s3.5 -21.5 5.5 -32.5s4.16699 -21.333 6.5 -31s4.16602 -16.5 5.49902 -20.5c1.33301 -3.33301 2.66602 -6.5 3.99902 -9.5s2.66602 -4.5 3.99902 -4.5c3.33301 0 8.16602 5.83301 14.499 17.5s13.166 25.167 20.499 40.5l16.5 29c5.66699 10 11.834 19.667 18.501 29l-3 -9
c-0.666992 -6 -0.333984 -10.167 0.999023 -12.5s6.66602 -2.5 15.999 -0.5l9 5c-3.33301 -4.66699 -7.5 -11.834 -12.5 -21.501s-10.5 -19.167 -16.5 -28.5h1c-9.33301 -17.333 -19 -33.5 -29 -48.5s-20.667 -22.5 -32 -22.5c-3.33301 0 -7.83301 4.33301 -13.5 13
s-11.167 19.667 -16.5 33s-10.166 27.833 -14.499 43.5s-6.83301 30.5 -7.5 44.5l-14.5 -41.5c-4.33301 -13 -7.83301 -24.167 -10.5 -33.5c-2.66699 -6 -7.66699 -9 -15 -9c-3.33301 -11.333 -5 -20.333 -5 -27v2zM311.006 518.993c-7.33301 0 -14.667 -2.83301 -22 -8.5
s-14.5 -13.334 -21.5 -23.001s-13.667 -20.667 -20 -33s-12.5 -25.166 -18.5 -38.499l17.5 19l19.5 20l32.5 33.5c10.333 11 16.5 20.167 18.5 27.5c-2 2 -4 3 -6 3z" />
    <glyph glyph-name="degree" unicode="&#xb0;" horiz-adv-x="149" 
d="M106 762c9.33301 0 18.5039 -1.50098 27.5039 -4.50098s17 -7.66699 24 -14s12.667 -14 17 -23s6.16602 -19.5 5.49902 -31.5c-1.33301 -21.333 -8.83301 -39.333 -22.5 -54s-30.834 -22 -51.501 -22c-12 0 -22.333 2.16699 -31 6.5s-15.834 10 -21.501 17
s-9.83398 14.833 -12.501 23.5s-4 17.334 -4 26.001c1.33301 18 8 34.667 20 50s28 24 48 26h1zM101.004 654.999l6.00098 -2.00293c7.33301 0 13.666 3.33301 18.999 10s8 14.334 8 23.001c0.666992 8 -1.16602 15.333 -5.49902 22s-11.166 10 -20.499 10
c-6.66699 0 -12.334 -3.33301 -17.001 -10s-7.33398 -14 -8.00098 -22c0 -7.33301 1.5 -13.666 4.5 -18.999s8.16699 -9.66602 15.5 -12.999z" />
    <glyph glyph-name="plusminus" unicode="&#xb1;" horiz-adv-x="355" 
d="M24 331c0 4 1.66895 7.5 5.00195 10.5s7.66602 4.5 12.999 4.5h107l6 126c0.666992 3.33301 2.66699 6.5 6 9.5s7.33301 4.5 12 4.5h36c4.66699 0 8.66699 -1.5 12 -4.5s4.66602 -6.16699 3.99902 -9.5l-6 -126h109c4.66699 0 8.5 -1.5 11.5 -4.5s4.5 -6.5 4.5 -10.5
l-2 -33c0 -4 -1.83301 -7.5 -5.5 -10.5s-7.83398 -4.5 -12.501 -4.5h-109l-6 -127c-0.666992 -4 -2.66699 -7.5 -6 -10.5s-7.33301 -4.5 -12 -4.5h-36c-4.66699 0 -8.66699 1.5 -12 4.5s-4.66602 6.5 -3.99902 10.5l6 127h-107c-5.33301 0 -9.33301 1.5 -12 4.5
s-4 6.5 -4 10.5zM350.002 101c-0.666992 -4 -2.66504 -7.5 -5.99805 -10.5s-7.33301 -4.5 -12 -4.5h-304c-4.66699 0 -8.5 1.5 -11.5 4.5s-4.5 6.16699 -4.5 9.5l-2 30c0 4 1.66699 7.5 5 10.5s7.66602 4.5 12.999 4.5h307c4.66699 0 8.66699 -1.5 12 -4.5
s4.66602 -6.16699 3.99902 -9.5z" />
    <glyph glyph-name="twosuperior" unicode="&#xb2;" horiz-adv-x="157" 
d="M127.958 683.574c-6.17969 0 -12.8008 -1.09961 -19.8633 -3.30273c-7.0625 -2.2041 -13.5732 -4.73828 -19.5322 -7.60254c-0.882812 -0.881836 -2.42773 -1.32227 -4.63477 -1.32227c-1.76562 0 -3.4209 0.550781 -4.96582 1.65234s-2.31738 2.75391 -2.31738 4.95801
c0 1.7627 1.70996 3.69043 5.13086 5.7832s7.44922 4.02051 12.084 5.7832s9.3252 3.36035 14.0703 4.79199c4.74512 1.43262 8.44141 2.36914 11.0898 2.80957c0.441406 0 0.938477 0.0546875 1.49023 0.165039s1.04785 0.165039 1.48926 0.165039
c1.32422 0.220703 2.86914 0.331055 4.63477 0.331055h5.95898c6.62109 0 12.1934 -0.771484 16.7178 -2.31348s8.22168 -3.63477 11.0908 -6.27832c2.86914 -2.64453 4.96582 -5.72949 6.29004 -9.25488s1.87598 -7.38086 1.65527 -11.5674
c-0.441406 -7.71191 -3.31055 -16.3604 -8.60742 -25.9453s-11.8633 -19.4453 -19.6982 -29.5811s-16.3867 -20.2715 -25.6562 -30.4072l-26.1533 -28.4229l-18.7041 -20.4912c-5.40723 -5.94922 -9.3252 -10.7969 -11.7529 -14.543
c1.54492 0.44043 3.14453 0.936523 4.7998 1.4873l4.46973 1.4873l3.6416 0.661133h-0.662109c7.0625 1.7627 14.8428 3.4707 23.3398 5.12305s17.0488 2.47852 25.6562 2.47852c2.20703 0 5.35254 -0.275391 9.43555 -0.826172s8.05566 -1.43164 11.918 -2.64355
s7.17285 -2.80957 9.93164 -4.79297s4.02734 -4.40723 3.80664 -7.27148c0 -2.2041 -0.772461 -3.85645 -2.31738 -4.95801s-3.31055 -1.65234 -5.29688 -1.65234c-1.10352 0 -2.04102 0.0546875 -2.81348 0.165039s-1.37988 0.606445 -1.82129 1.48828v-0.330078
c-2.86914 2.64355 -6.3457 4.5166 -10.4287 5.61816s-8.55176 1.65234 -13.4072 1.65234c-7.0625 0 -14.5117 -0.771484 -22.3467 -2.31348s-15.2832 -3.19434 -22.3457 -4.95703c-5.51758 -1.32227 -10.5381 -2.42383 -15.0625 -3.30566
s-8.66309 -1.32227 -12.415 -1.32227c-4.19336 0 -7.61426 0.606445 -10.2627 1.81836s-3.8623 3.80078 -3.6416 7.7666c0.441406 5.06738 4.68945 12.3389 12.7451 21.8135s17.7119 20.1611 28.9678 32.0586l23.8359 25.7803
c8.16602 9.03418 15.6699 17.958 22.5117 26.7715s12.5254 17.2412 17.0498 25.2842c4.52441 8.04199 7.00684 15.3682 7.44824 21.9785c0.220703 4.40625 -1.04883 8.09668 -3.80762 11.0713s-7.00684 4.46191 -12.7451 4.46191z" />
    <glyph glyph-name="threesuperior" unicode="&#xb3;" horiz-adv-x="173" 
d="M96.5479 673.878c-0.832031 -0.833008 -1.56055 -1.29395 -2.18457 -1.39844s-1.56055 -0.15625 -2.80957 -0.15625c-1.66504 0 -3.27734 0.520508 -4.83789 1.56152c-1.56055 1.04004 -2.23633 2.60059 -2.02832 4.68164c0 2.08105 1.76855 4.00586 5.30566 5.77441
c3.53809 1.76953 7.85645 3.27832 12.9551 4.52734c5.09766 1.24902 10.4561 2.18555 16.0742 2.80957s10.5088 0.936523 14.6709 0.936523c11.0283 0 19.8721 -1.35254 26.5312 -4.05859s9.78027 -7.49316 9.36426 -14.3613
c-0.208008 -2.91406 -1.50879 -6.03613 -3.90234 -9.36621s-5.46289 -6.71191 -9.20801 -10.1465s-7.95898 -6.97266 -12.6416 -10.6143l-13.8896 -10.459c-4.78613 -3.53809 -8.53125 -6.08789 -11.2363 -7.64941s-4.99414 -3.69531 -6.86719 -6.40137h1.56055
c7.49121 0 15.2422 -0.728516 23.2529 -2.18457c8.01172 -1.45703 15.3467 -4.00684 22.0059 -7.64941c6.65918 -3.6416 12.0176 -8.42871 16.0752 -14.3604c4.05762 -5.93262 5.87891 -13.2695 5.46289 -22.0107c-0.624023 -10.1982 -3.48535 -19.252 -8.58398 -27.1611
s-11.2891 -14.5176 -18.5723 -19.8252s-15.1904 -9.36621 -23.7217 -12.1758c-8.53223 -2.80957 -16.5439 -4.21484 -24.0352 -4.21484c-12.2773 0 -24.1904 2.3418 -35.7393 7.02441c-11.5498 4.68262 -21.4863 11.083 -29.8096 19.2002l0.624023 -0.3125
c-1.24902 0.833008 -2.08105 1.71777 -2.49707 2.6543c-0.416992 0.936523 -0.625 1.9248 -0.625 2.96484c0 1.45703 0.833008 2.8623 2.49805 4.21484c1.66406 1.35254 3.3291 2.0293 4.99414 2.0293c0.832031 0 1.71582 -0.0517578 2.65234 -0.15625
c0.936523 -0.103516 1.61328 -0.467773 2.0293 -1.09277c8.73926 -8.5332 17.2705 -14.5684 25.5938 -18.1064s16.335 -5.30762 24.0342 -5.30762c7.90723 0 15.2949 1.56055 22.1621 4.68262c6.86621 3.12207 12.9004 7.07617 18.1025 11.8633
s9.31152 10.1982 12.3291 16.2344s4.73438 11.9678 5.15039 17.7949c0.208008 4.16309 -0.416016 8.22168 -1.87207 12.1758s-3.90137 7.49219 -7.33496 10.6143s-7.95996 5.62012 -13.5781 7.49316s-12.4854 2.80957 -20.6006 2.80957
c-3.74512 0 -7.17871 -0.208008 -10.3008 -0.624023c-3.12109 -0.416992 -5.82617 -0.833008 -8.11523 -1.24902c-1.04004 -0.208008 -2.44434 -0.416016 -4.21289 -0.624023s-2.54883 -0.3125 -2.34082 -0.3125c-4.57812 0 -6.7627 2.28906 -6.55469 6.86816
c0 2.29004 1.04004 4.83984 3.12109 7.64941s4.73438 5.67188 7.95996 8.58594c3.22559 2.91309 6.91895 5.9834 11.0801 9.20996l12.7979 9.83398l10.9248 8.11719c3.53711 2.70605 6.70996 5.30762 9.51953 7.80469s5.09863 4.78613 6.86719 6.86719
s2.65332 3.85059 2.65332 5.30762c0.208008 1.87305 -1.45703 3.22559 -4.99414 4.05859c-3.53809 0.832031 -8.01172 1.24805 -13.4219 1.24805c-6.03418 0 -12.2246 -0.467773 -18.5713 -1.4043s-11.1846 -2.5498 -14.5137 -4.83887z" />
    <glyph glyph-name="acute" unicode="&#xb4;" horiz-adv-x="161" 
d="M181 626c4.66699 -3.33301 7 -7.00098 7 -11.001s-2 -7.66699 -6 -11l-111 -110c-4 -3.33301 -8.5 -4.66602 -13.5 -3.99902s-9.16699 2.66699 -12.5 6l-9 11c-2 2.66699 -2.83301 5.66699 -2.5 9s1.5 6 3.5 8l93 122c3.33301 3.33301 7.5 5.33301 12.5 6
s9.16699 -0.333008 12.5 -3z" />
    <glyph glyph-name="mu" unicode="&#xb5;" horiz-adv-x="409" 
d="M298 471c0.666992 3.33301 2.66602 6.49609 5.99902 9.49609s7.33301 4.5 12 4.5h27c5.33301 0 9.5 -1.5 12.5 -4.5s4.16699 -6.16699 3.5 -9.5l-18 -348c-4 -13.333 -14.333 -20 -31 -20c-6 0 -12 1.16699 -18 3.5s-10 5.83301 -12 10.5
c-10 -11.333 -21.5 -20.833 -34.5 -28.5s-27.167 -11.5 -42.5 -11.5s-29.666 3.33301 -42.999 10s-24.666 15.334 -33.999 26.001l-10 -204c0 -1.33301 -0.833008 -3.16602 -2.5 -5.49902s-3.16699 -4.16602 -4.5 -5.49902c-8 -8.66699 -18 -13 -30 -13
c-12.667 0 -23.667 6.66699 -33 20l29 566c0.666992 3.33301 2.66699 6.5 6 9.5s7.33301 4.5 12 4.5h35c4.66699 0 8.83398 -1.5 12.501 -4.5s5.16699 -6.16699 4.5 -9.5l-10 -197c-1.33301 -26.667 0 -48.667 4 -66s9.5 -31.166 16.5 -41.499s14.667 -17.666 23 -21.999
s16.166 -6.5 23.499 -6.5s15.666 2.16699 24.999 6.5s18.333 12.166 27 23.499s16.167 26.5 22.5 45.5s10.5 43.5 12.5 73.5z" />
    <glyph glyph-name="paragraph" unicode="&#xb6;" 
d="M168 262c-22.667 0.666992 -43.8369 5.16699 -63.5039 13.5s-36.5 20 -50.5 35s-24.667 33.167 -32 54.5s-10.333 45 -9 71c0.666992 14 3.16699 31 7.5 51s13.5 39.333 27.5 58s34.5 34.5 61.5 47.5s63.167 19.5 108.5 19.5h183c5.33301 0 9.5 -1.5 12.5 -4.5
s4.5 -6.5 4.5 -10.5l-2 -32c0 -4 -1.83301 -7.5 -5.5 -10.5s-8.16699 -4.5 -13.5 -4.5h-16l-33 -640c-0.666992 -4 -2.5 -7.5 -5.5 -10.5s-7.16699 -4.5 -12.5 -4.5h-35c-5.33301 0 -9.66602 1.5 -12.999 4.5s-4.66602 6.5 -3.99902 10.5l33 640h-59l-33 -640
c-0.666992 -4 -2.66699 -7.5 -6 -10.5s-7.33301 -4.5 -12 -4.5h-34c-5.33301 0 -9.66602 1.5 -12.999 4.5s-4.66602 6.5 -3.99902 10.5z" />
    <glyph glyph-name="periodcentered" unicode="&#xb7;" 
 />
    <glyph glyph-name="cedilla" unicode="&#xb8;" horiz-adv-x="120" 
d="M37 64c6.66699 -3.33301 14.6641 -4.99805 23.9971 -4.99805c3.33301 0 6.16602 0.833008 8.49902 2.5s3.5 5.16699 3.5 10.5c0.666992 3.33301 -0.5 6.5 -3.5 9.5l-9.5 9.5c-4 4.66699 -7.5 8.5 -10.5 11.5s-4.5 6.5 -4.5 10.5c0.666992 4.66699 2.83398 9 6.50098 13
s10.167 6 19.5 6c6 0 12 -2 18 -6s11.167 -9 15.5 -15s7.66602 -12.5 9.99902 -19.5s3.5 -13.167 3.5 -18.5c-1.33301 -20 -7.83301 -34 -19.5 -42s-24.5 -12 -38.5 -12c-3.33301 0 -8.16602 0.666992 -14.499 2s-12.666 3.16602 -18.999 5.49902
s-11.666 5.16602 -15.999 8.49902s-6.5 7 -6.5 11c0.666992 6 3.33398 10.667 8.00098 14s10.667 5 18 5z" />
    <glyph glyph-name="onesuperior" unicode="&#xb9;" horiz-adv-x="127" 
d="M93.2793 632.333c-0.44043 -0.661133 -1.10254 -1.2666 -1.98438 -1.81836c-0.881836 -0.550781 -2.2041 -0.826172 -3.96777 -0.826172c-2.86523 0 -4.84863 0.826172 -5.95117 2.47949c-1.10254 1.65234 -1.65332 3.25 -1.65332 4.79297
c0.220703 0.661133 0.771484 1.81836 1.65332 3.4707l5.29004 10.082c0.44043 0.881836 0.991211 1.87402 1.65234 2.97656s1.21191 2.09473 1.65234 2.97656l7.27344 12.5605c2.64551 4.40723 5.3457 8.53906 8.10059 12.3955s5.67578 6.99707 8.76172 9.42188
c3.08594 2.42383 6.28223 3.63574 9.58789 3.63574c3.52637 0 6.11621 -1.15723 7.76953 -3.4707c1.65332 -2.31445 2.25977 -6.22656 1.81836 -11.7354c-3.08496 -23.3604 -6.94238 -46.7754 -11.5713 -70.2451l-14.2168 -69.585l-4.62891 -21.8164
c0.881836 0.219727 2.31445 0.330078 4.29785 0.330078c4.84863 0 7.27344 -2.2041 7.27344 -6.61133c-0.219727 -1.32227 -0.826172 -2.80957 -1.81836 -4.46289c-0.991211 -1.65234 -2.91992 -2.47852 -5.78516 -2.47852
c-3.74707 -0.220703 -7.27344 -0.551758 -10.5791 -0.992188l-10.25 -1.32227l-12.7295 -1.32227c-4.29785 -0.44043 -8.65137 -0.771484 -13.0596 -0.992188c-2.4248 0 -4.29785 0.496094 -5.62012 1.48828c-1.32324 0.991211 -1.87402 2.80957 -1.65332 5.4541
c0 1.54199 0.771484 2.80957 2.31445 3.80176c1.54297 0.991211 3.47168 1.7627 5.78613 2.31348c2.31445 0.551758 4.84961 0.992188 7.60449 1.32227c2.75488 0.331055 5.45508 0.606445 8.09961 0.827148h2.31445l3.1416 15.2051l4.95898 23.3057l5.95117 27.9326
l6.11719 29.4199l5.62012 27.7676l4.62891 23.1406l-5.95117 -11.5703l-1.98438 -3.4707c-0.661133 -1.21191 -1.21191 -2.14844 -1.65234 -2.80957l-2.31445 -4.13184c-0.661133 -1.21191 -1.21191 -2.25879 -1.65234 -3.14062
c-0.661133 -0.881836 -1.21191 -1.76367 -1.65234 -2.64551z" />
    <glyph glyph-name="ordmasculine" unicode="&#xba;" horiz-adv-x="257" 
d="M51.9258 568.297c0.454102 11.3477 2.72656 23.2607 6.81348 35.7422c4.08691 12.4824 9.76367 24.0566 17.0303 34.7236s15.668 19.5176 25.2051 26.5527c9.53711 7.03613 19.9824 11.0078 31.3359 11.915c9.53613 7.71582 20.6621 11.5742 33.3779 11.5742
c15.8955 0 27.5898 -6.46777 35.083 -19.4043c7.49316 -12.9355 10.7852 -29.3896 9.87695 -49.3613c-0.454102 -3.17676 -0.680664 -5.78613 -0.680664 -7.82812c0 -2.04297 -0.227539 -4.65332 -0.681641 -7.83008c5.9043 3.63184 11.3545 7.49023 16.3496 11.5752
s9.99023 9.07812 14.9854 14.9785c1.81641 2.26953 3.74609 3.51758 5.79004 3.74512s3.51953 0.34082 4.42773 0.34082c3.63379 0 7.26758 -1.24805 10.9014 -3.74512c3.63281 -2.49609 5.22168 -6.01367 4.76758 -10.5527c0 -2.26953 -1.81641 -5.21973 -5.44922 -8.85156
c-7.7207 -9.53223 -17.0303 -17.8154 -27.9297 -24.8506c-10.8994 -7.03613 -22.2529 -12.3691 -34.0605 -16c-4.08691 -9.07812 -9.30957 -17.9287 -15.668 -26.5527s-13.5107 -16.3408 -21.458 -23.1494c-7.94824 -6.80859 -16.5771 -12.2549 -25.8867 -16.3398
s-18.96 -6.12793 -28.9512 -6.12793c-19.0742 0 -33.2666 6.92188 -42.5762 20.7656c-9.30957 13.8447 -13.5107 30.0713 -12.6025 48.6807zM165.01 566.934l6.81152 14.2979l11.5811 -13.6172c-2.27051 -0.454102 -4.31445 -0.680664 -6.13086 -0.680664h-5.4502h-6.81152z
M133.674 643.869c-10.4453 -8.16992 -18.3896 -18.1562 -23.8398 -29.958c-0.454102 2.26953 -0.794922 4.65234 -1.02246 7.14844c-0.227539 2.49707 -0.114258 5.10742 0.339844 7.83105c0 4.53906 0.680664 8.96484 2.04297 13.2764s3.17871 8.96387 5.44922 13.957z
M165.013 566.933c-14.0791 1.81543 -26 7.03613 -35.7637 15.6602c-9.76465 8.62402 -16.2363 19.0635 -19.415 31.3184c-3.63281 -7.2627 -6.35742 -14.8652 -8.1748 -22.8086c-1.81641 -7.94336 -2.95215 -15.5459 -3.40625 -22.8086
c-0.908203 -11.8018 0.227539 -21.5605 3.40625 -29.2764s7.94727 -11.5742 14.3057 -11.5742s14.1924 3.4043 23.502 10.2129s17.8252 16.5674 25.5459 29.2764zM174.55 589.401c0.908203 1.81543 1.36133 3.4043 1.36133 4.76562
c1.3623 0 2.61133 0.113281 3.74707 0.34082c1.13574 0.226562 2.38477 0.567383 3.74707 1.02148zM140.487 629.571c-0.908203 -9.07812 1.24902 -17.248 6.47168 -24.5107s13.5107 -10.8936 24.8643 -10.8936h4.08789c1.3623 3.63184 2.38379 7.60352 3.06543 11.915
c0.680664 4.31152 1.24805 8.7373 1.70215 13.2764c0.908203 10.8936 0.113281 20.6523 -2.38477 29.2764c-2.49707 8.62402 -6.24414 12.9365 -11.2402 12.9365c-7.2666 0 -13.3975 -3.29102 -18.3926 -9.87207c-4.99512 -6.58203 -7.71973 -13.958 -8.17383 -22.1279z" />
    <glyph glyph-name="guillemotright" unicode="&#xbb;" horiz-adv-x="333" 
d="M48 101c-4.66699 -3.33301 -9.16797 -4.33301 -13.501 -3s-8.16602 3.66602 -11.499 6.99902l-11 17c-2.66699 3.33301 -3.33398 6.66602 -2.00098 9.99902s3.66602 6.33301 6.99902 9l159 133l-143 117c-7.33301 4.66699 -8.66602 11 -3.99902 19l14 17
c2.66699 3.33301 6.5 5.5 11.5 6.5s9.5 0.166992 13.5 -2.5l172 -145c5.33301 -3.33301 7.83301 -7.16602 7.5 -11.499s-3.16602 -8.16602 -8.49902 -11.499zM137.999 100c-4.66699 -3.33301 -9.16797 -4.33203 -13.501 -2.99902s-8.16602 3.66602 -11.499 6.99902l-12 17
c-2 3.33301 -2.33301 6.66602 -1 9.99902s3.66602 6.33301 6.99902 9l159 133l-143 117c-4.66699 2.66699 -7 5.66699 -7 9s1 6.66602 3 9.99902l14 17c2.66699 3.33301 6.5 5.5 11.5 6.5s9.5 0.166992 13.5 -2.5l172 -145c5.33301 -3.33301 7.83301 -7.16602 7.5 -11.499
s-3.16602 -8.16602 -8.49902 -11.499z" />
    <glyph glyph-name="onequarter" unicode="&#xbc;" horiz-adv-x="354" 
d="M102.851 609.875c-0.585938 -0.878906 -1.4668 -1.68555 -2.63867 -2.41797c-1.17285 -0.733398 -2.93066 -1.09961 -5.27441 -1.09961c-3.80957 0 -6.44629 1.09863 -7.91113 3.29688c-1.46582 2.19824 -2.19824 4.32324 -2.19824 6.375
c0.292969 0.878906 1.02539 2.41699 2.19824 4.61523l7.03223 13.4072c0.585938 1.17285 1.31836 2.49121 2.19727 3.95605c0.878906 1.46582 1.61133 2.78418 2.19727 3.95605l9.66992 16.7041c3.51562 5.86133 7.10449 11.3564 10.7676 16.4844
s7.5459 9.30371 11.6484 12.5273s8.35156 4.83594 12.7471 4.83594c4.68848 0 8.13086 -1.53906 10.3281 -4.61621c2.19824 -3.07715 3.00391 -8.27832 2.41699 -15.6045c-4.10156 -31.0635 -9.22949 -62.2002 -15.3828 -93.4102l-18.8984 -92.5303l-6.15332 -29.0117
c1.17188 0.292969 3.07617 0.439453 5.71387 0.439453c6.44629 0 9.66895 -2.93066 9.66895 -8.79199c-0.292969 -1.75781 -1.09863 -3.73535 -2.41699 -5.93359c-1.31934 -2.19824 -3.88281 -3.29688 -7.69141 -3.29688
c-4.98145 -0.292969 -9.66992 -0.732422 -14.0645 -1.31836l-13.625 -1.75879l-16.9219 -1.75879c-5.71387 -0.585938 -11.501 -1.02539 -17.3613 -1.31836c-3.22363 0 -5.71387 0.65918 -7.47168 1.97852c-1.75879 1.31836 -2.49121 3.73633 -2.19824 7.25293
c0 2.05176 1.02539 3.73633 3.07715 5.05469c2.05078 1.31934 4.61426 2.34473 7.69141 3.07715s6.44629 1.31836 10.1084 1.75879c3.66309 0.439453 7.25293 0.805664 10.7695 1.09863h3.07617l4.17578 20.2207l6.59277 30.9893l7.91113 37.1445l8.13086 39.1221
l7.47168 36.9248l6.15332 30.7695l-7.91113 -15.3848l-2.6377 -4.61523c-0.878906 -1.6123 -1.61133 -2.85742 -2.19727 -3.73633l-3.07617 -5.49512c-0.878906 -1.6123 -1.61133 -3.00391 -2.19824 -4.17578c-0.878906 -1.17285 -1.61133 -2.34473 -2.19727 -3.5166z
M235.998 673.999c1.33301 4 3.99805 7.33301 7.99805 10s8.33301 3.33398 13 2.00098l23 -8c4.66699 -1.33301 8.33398 -3.66602 11.001 -6.99902s3.33398 -6.66602 2.00098 -9.99902l-176 -683c-1.33301 -4 -4 -7.33301 -8 -10s-8.33301 -3.33398 -13 -2.00098l-23 8
c-4.66699 1.33301 -8 3.66602 -10 6.99902s-2.66699 6.66602 -2 9.99902zM271.877 -19.2109c-2.04785 0 -3.64062 0.564453 -4.77832 1.69824s-1.36523 2.6084 -0.682617 4.42285c2.95801 11.5645 6.14355 23.4131 9.55664 35.5449l9.90039 34.8652l4.0957 12.9258
c-6.59961 -0.454102 -14.3945 -0.907227 -23.3838 -1.36035c-8.98926 -0.454102 -17.6943 -0.680664 -26.1152 -0.680664c-12.9717 0 -23.2129 0.737305 -30.7236 2.21094c-7.50977 1.47363 -11.0371 5.27246 -10.582 11.3955
c0.227539 5.21582 1.99121 10.998 5.29102 17.3477c3.2998 6.34863 7.56738 12.9248 12.8018 19.7285c5.23438 6.80273 11.0947 13.6621 17.5801 20.5791c6.48633 6.91602 13.0859 13.5488 19.7998 19.8984l19.1162 17.3477l15.874 13.2656
c1.1377 0.907227 2.73047 1.53125 4.77832 1.87207c2.04785 0.339844 4.0957 0.509766 6.14355 0.509766c3.6416 0 6.88477 -0.566406 9.72949 -1.7002s4.15332 -3.1748 3.92578 -6.12305c0 -1.58691 -1.36523 -3.40137 -4.0957 -5.44238h0.34082
c-3.6416 -2.72168 -8.25 -6.40625 -13.8252 -11.0547s-11.5488 -9.9209 -17.9209 -15.8174l-19.1172 -18.5381c-6.37207 -6.46289 -12.1182 -12.8125 -17.2393 -19.0479c-5.12012 -6.23633 -9.33008 -12.2461 -12.6299 -18.0283s-5.06348 -10.7139 -5.29102 -14.7949
c0 0.226562 0.796875 0.396484 2.38965 0.509766s3.69824 0.169922 6.31543 0.169922h8.36426h8.53418h2.73047c7.05566 0 14.168 0.169922 21.3369 0.510742c7.16895 0.339844 13.9395 1.07715 20.3115 2.21094l7.16895 27.8916
c2.04785 7.93652 3.52734 14.2861 4.4375 19.0488c0.910156 2.94824 3.01562 5.44238 6.31543 7.4834s6.42871 3.06152 9.3877 3.06152c2.95801 0 5.4043 -0.680664 7.33887 -2.04102s2.78809 -3.28809 2.56055 -5.7832
c-0.227539 -2.26758 -0.910156 -5.89551 -2.04785 -10.8848c-1.1377 -4.98828 -2.61719 -10.9404 -4.43848 -17.8574l-6.14453 -22.79l-7.50977 -26.0215l-10.7529 -37.5859c-3.52832 -12.5859 -6.65723 -24.208 -9.3877 -34.8652
c-0.455078 -1.13379 -1.19434 -2.09766 -2.21875 -2.8916s-2.21973 -1.19043 -3.58594 -1.19043h-13.6543z" />
    <glyph glyph-name="onehalf" unicode="&#xbd;" horiz-adv-x="312" 
d="M96.8965 622.689c-0.483398 -0.724609 -1.20703 -1.38672 -2.1748 -1.99121s-2.41992 -0.90625 -4.35547 -0.90625c-3.14551 0 -5.32324 0.90625 -6.5332 2.71875c-1.20996 1.81152 -1.81445 3.56348 -1.81445 5.25488
c0.241211 0.724609 0.845703 1.99316 1.81348 3.80566l5.80664 11.0537c0.483398 0.966797 1.08789 2.05371 1.81348 3.26172s1.33008 2.29492 1.81348 3.26074l7.98438 13.7725c2.90332 4.83301 5.86719 9.36328 8.8916 13.5908
c3.02441 4.22852 6.23047 7.67188 9.61816 10.3291c3.3877 2.6582 6.89551 3.9873 10.5244 3.9873c3.87109 0 6.71387 -1.26855 8.52832 -3.80566s2.47949 -6.82617 1.99609 -12.8662c-3.3877 -25.6113 -7.62207 -51.2832 -12.7031 -77.0156l-15.6055 -76.291
l-5.08008 -23.9199c0.967773 0.241211 2.54004 0.362305 4.71777 0.362305c5.32227 0 7.9834 -2.41602 7.9834 -7.24902c-0.241211 -1.44922 -0.90625 -3.08008 -1.99512 -4.89258c-1.08887 -1.81152 -3.20605 -2.71777 -6.35156 -2.71777
c-4.11328 -0.241211 -7.98438 -0.603516 -11.6133 -1.08691l-11.25 -1.4502l-13.9727 -1.4502c-4.71777 -0.483398 -9.49609 -0.845703 -14.335 -1.08691c-2.66113 0 -4.71777 0.543945 -6.16992 1.63086s-2.05664 3.08008 -1.81445 5.97949
c0 1.69141 0.84668 3.08105 2.54102 4.16797c1.69336 1.08691 3.81055 1.93262 6.35059 2.53711c2.54004 0.603516 5.32227 1.08691 8.34668 1.44922s5.98828 0.664062 8.8916 0.905273h2.54004l3.44824 16.6719l5.44336 25.5508l6.5332 30.625l6.71387 32.2559
l6.16895 30.4443l5.08105 25.3691l-6.53223 -12.6846l-2.17773 -3.80566c-0.725586 -1.3291 -1.33008 -2.35547 -1.81348 -3.08008l-2.54004 -4.53027c-0.725586 -1.3291 -1.33105 -2.47656 -1.81543 -3.44238c-0.725586 -0.966797 -1.33008 -1.93359 -1.81348 -2.89941z
M219.002 674.002c1.33301 4 3.99805 7.33301 7.99805 10s8.33301 3.33398 13 2.00098l23 -8c4.66699 -1.33301 8.33398 -3.66602 11.001 -6.99902s3.33398 -6.66602 2.00098 -9.99902l-176 -683c-1.33301 -4 -4 -7.33301 -8 -10s-8.33301 -3.33398 -13 -2.00098l-23 8
c-4.66699 1.33301 -8 3.66602 -10 6.99902s-2.66699 6.66602 -2 9.99902zM246.408 171.236c-5.9668 0 -12.3594 -1.05957 -19.1787 -3.19531s-13.1055 -4.5918 -18.8584 -7.36816c-0.852539 -0.854492 -2.34375 -1.28125 -4.47461 -1.28125
c-1.70508 0 -3.30371 0.53418 -4.79492 1.60156s-2.2373 2.66895 -2.2373 4.80469c0 1.70801 1.65137 3.57617 4.9541 5.60449s7.19141 3.89648 11.667 5.60449s9.00391 3.25586 13.585 4.64355s8.15039 2.29492 10.708 2.72168
c0.425781 0 0.905273 0.0537109 1.43848 0.160156c0.532227 0.106445 1.01172 0.160156 1.43848 0.160156c1.27832 0.213867 2.76953 0.320312 4.47461 0.320312h5.75391c6.39258 0 11.7734 -0.74707 16.1416 -2.24219s7.9375 -3.52344 10.708 -6.08594
s4.79492 -5.55176 6.07324 -8.96875s1.81055 -7.1543 1.59668 -11.2119c-0.425781 -7.47363 -3.19629 -15.8555 -8.31055 -25.1445s-11.4541 -18.8447 -19.0195 -28.668c-7.56445 -9.82324 -15.8223 -19.6465 -24.7725 -29.4697l-25.251 -27.5469l-18.0596 -19.8594
c-5.22168 -5.76562 -9.00391 -10.4639 -11.3477 -14.0938c1.49121 0.426758 3.03613 0.907227 4.63477 1.44141l4.31543 1.44141l3.51562 0.640625h-0.639648c6.81934 1.70801 14.3311 3.36328 22.5352 4.96484s16.4619 2.40234 24.7725 2.40234
c2.13086 0 5.16699 -0.266602 9.10938 -0.800781s7.77832 -1.38867 11.5078 -2.56348s6.92578 -2.72266 9.58984 -4.64453c2.66309 -1.92188 3.88867 -4.27051 3.67578 -7.04688c0 -2.13574 -0.746094 -3.7373 -2.2373 -4.80469s-3.19629 -1.60156 -5.11426 -1.60156
c-1.06543 0 -1.9707 0.0537109 -2.71582 0.160156c-0.746094 0.106445 -1.33203 0.586914 -1.75879 1.44141v-0.320312c-2.77051 2.5625 -6.12695 4.37793 -10.0693 5.44531s-8.25781 1.60156 -12.9463 1.60156c-6.81934 0 -14.0117 -0.74707 -21.5771 -2.24219
c-7.56445 -1.49512 -14.7559 -3.09668 -21.5752 -4.80469c-5.32715 -1.28125 -10.1748 -2.34863 -14.543 -3.20312s-8.36328 -1.28125 -11.9854 -1.28125c-4.04883 0 -7.35156 0.586914 -9.90918 1.76172s-3.72949 3.68359 -3.51562 7.52734
c0.425781 4.91113 4.52734 11.958 12.3057 21.1406s17.1016 19.5391 27.9697 31.0703l23.0137 24.9844c7.88477 8.75488 15.1299 17.4033 21.7363 25.9453c6.60547 8.54199 12.0928 16.71 16.4609 24.5039s6.76562 14.8945 7.19238 21.3008
c0.212891 4.27051 -1.0127 7.84766 -3.67578 10.7305c-2.66406 2.88281 -6.7666 4.32422 -12.3066 4.32422z" />
    <glyph glyph-name="threequarters" unicode="&#xbe;" horiz-adv-x="417" 
d="M117 649c-5.33301 0 -8.83594 0.671875 -10.5029 2.00488s-3.16699 2.66602 -4.5 3.99902c-0.666992 1.33301 -1.66699 3.16602 -3 5.49902s-2 3.83301 -2 4.5c0 4.66699 2.66699 8.66699 8 12s11.5 6.16602 18.5 8.49902s14.5 4 22.5 5s15 1.5 21 1.5
c17.333 0 31 -2 41 -6s14.667 -12.333 14 -25c-0.666992 -10 -7 -20 -19 -30l-36 -29l-1 -1c18 -2.66699 34.333 -8.66699 49 -18s21.667 -24.333 21 -45c-0.666992 -14 -4.5 -26.5 -11.5 -37.5s-15.5 -20.333 -25.5 -28s-20.833 -13.334 -32.5 -17.001
s-22.834 -5.5 -33.501 -5.5c-17.333 0 -33.5 3 -48.5 9s-27.833 14.333 -38.5 25c-5.33301 4.66699 -7.66602 9.33398 -6.99902 14.001c0 4 3.33301 8 10 12s14.667 4 24 0c18 -17.333 36 -26 54 -26c16 0 29.5 5.66699 40.5 17s17.167 23.666 18.5 36.999
c0 7.33301 -3.33301 14.333 -10 21s-18 10 -34 10c-2.66699 0 -5.5 -0.166992 -8.5 -0.5s-6.16699 -0.833008 -9.5 -1.5c-1.33301 -0.666992 -3.16602 -1 -5.49902 -1h-5.5c-6.66699 0 -11.667 1.16699 -15 3.5s-4.66602 7.16602 -3.99902 14.499s5.83398 15.333 15.501 24
s20.834 17.334 33.501 26.001c7.33301 5.33301 14.166 10.666 20.499 15.999s9.5 9 9.5 11c0 -1.33301 -4.33301 -2 -13 -2c-6.66699 0 -13.167 -0.5 -19.5 -1.5s-10.833 -2.5 -13.5 -4.5zM321.997 -33.9951c-6 0 -10.6689 1.66211 -14.002 4.99512s-4 7.66602 -2 12.999
c2 8.66699 5.33301 20.334 10 35.001s9.66699 28.334 15 41.001c0 0.666992 0 0.833984 0 0.500977s0.333008 1.16699 1 4.5h-27c-15.333 0 -27.833 1.33301 -37.5 4s-14.167 8.66699 -13.5 18c0.666992 8.66699 6 19.5 16 32.5s21.5 25.5 34.5 37.5s25.333 22.167 37 30.5
s19.5 12.5 23.5 12.5c7.33301 0 13.333 -1.66699 18 -5s5.33398 -10.333 2.00098 -21c-4.66699 -3.33301 -11 -8.33301 -19 -15l-24.5 -21c-8.33301 -7.33301 -16 -14.833 -23 -22.5s-12.167 -14.5 -15.5 -20.5c1.33301 1.33301 3.33301 2.16602 6 2.49902
s4.66699 0.5 6 0.5h13.5c5.66699 0 10.167 0.333008 13.5 1l3 7.5c0.666992 1.66699 1.33398 3.83398 2.00098 6.50098c3.33301 13.333 7.16602 23.5 11.499 30.5s12.166 10.5 23.499 10.5c5.33301 0 10 -1.5 14 -4.5s6 -7.5 6 -13.5
c-0.666992 -5.33301 -3.5 -15.166 -8.5 -29.499s-10.167 -30.166 -15.5 -47.499l-16 -44.5c-5.33301 -14.333 -9 -26.5 -11 -36.5c-1.33301 -3.33301 -3.66602 -6.16602 -6.99902 -8.49902s-6.66602 -3.5 -9.99902 -3.5h-12zM295.995 688
c1.33301 4 3.99805 7.33301 7.99805 10s8.33301 3.33398 13 2.00098l23 -8c4.66699 -1.33301 8.33398 -3.66602 11.001 -6.99902s3.33398 -6.66602 2.00098 -9.99902l-176 -683c-1.33301 -4 -4 -7.33301 -8 -10s-8.33301 -3.33398 -13 -2.00098l-23 8
c-4.66699 1.33301 -8 3.66602 -10 6.99902s-2.66699 6.66602 -2 9.99902z" />
    <glyph glyph-name="questiondown" unicode="&#xbf;" horiz-adv-x="384" 
d="M325.005 -30.9629c3.33301 5.33301 7.00098 8.83008 11 10.4971c4 1.66699 7.66699 2.5 11 2.5c7.33301 0 12.833 -2 16.5 -6c3.66602 -4 5.49902 -8.66602 5.49902 -13.999c0 -2 -0.166992 -3.83301 -0.5 -5.5s-1.83301 -3.83301 -4.49902 -6.49902
c-19.333 -29.999 -44.665 -53.3311 -75.9961 -69.9961s-63.3291 -24.998 -95.9941 -24.998c-25.998 0 -49.8301 4.83301 -71.4951 14.499s-39.9971 22.665 -54.9961 38.9971c-14.999 16.333 -26.332 35.332 -33.999 56.9971
c-7.66602 21.665 -10.832 44.4971 -9.49902 68.4951c1.33301 29.999 9.99902 61.8301 25.998 95.4941c15.999 33.665 41.6641 69.1631 76.9951 106.494c15.332 15.999 27.8311 30.498 37.4971 43.4971s17.166 25.332 22.499 36.998s8.99902 23.332 10.999 34.998
c2 11.665 3.33301 23.8311 4 36.4971c0.666992 6.66699 1 13.167 1 19.5v20.499c0 9.33301 0.333008 19.999 1 31.998s1.33398 23.332 2.00098 33.998c0.666016 11.333 4.49902 19.166 11.499 23.499c6.99902 4.33301 14.832 6.5 23.498 6.5
c9.99902 0 17.832 -1.16699 23.499 -3.5c5.66602 -2.33301 9.66602 -5.16602 11.999 -8.49902s3.5 -7.16602 3.5 -11.499v-12.499c-0.666992 -11.999 -1 -23.165 -1 -33.498v-29.498v-48.9971c-0.666992 -13.999 -2.33398 -27.665 -5.00098 -40.9971
c-2.66602 -13.333 -6.83203 -26.666 -12.499 -39.999c-5.66602 -13.333 -13.499 -27.332 -23.498 -41.9971c-9.99902 -14.666 -22.665 -29.998 -37.998 -45.9971c-11.999 -11.999 -23.665 -25.332 -34.998 -39.998s-21.499 -29.998 -30.498 -45.9971
s-16.499 -32.498 -22.499 -49.4971c-5.99902 -16.999 -9.66504 -33.8311 -10.998 -50.4971c-0.666992 -13.999 1.66602 -28.3311 6.99902 -42.9961c5.33301 -14.666 12.999 -27.999 22.998 -39.998s21.998 -21.665 35.9971 -28.998s29.3311 -10.999 45.9961 -10.999
c21.332 0 41.9971 6.33301 61.9961 18.999c19.999 12.665 37.665 30.6641 52.998 53.9961zM239.012 511.002c-12.665 0 -23.3311 4.16602 -31.998 12.499c-8.66602 8.33301 -12.666 18.166 -11.999 29.499s5.66699 21.332 15 29.998s20.332 12.999 32.998 12.999
s23.332 -4.33301 31.998 -12.999s12.666 -18.665 11.999 -29.998s-5.66699 -21.166 -15 -29.499s-20.332 -12.499 -32.998 -12.499z" />
    <glyph glyph-name="Agrave" unicode="&#xc0;" horiz-adv-x="715" 
d="M430 138c-2 12 -2.99609 25.1699 -2.99609 39.5029s0.333008 30.166 1 47.499c0.666992 9.33301 1.33398 19.333 2.00098 30s1.66699 21.667 3 33c-54.667 -21.333 -104 -47.333 -148 -78c-64.667 -100 -117.834 -173 -159.501 -219s-71.167 -69 -88.5 -69
c-20.667 0 -30.334 10.667 -29.001 32c0.666992 10.667 4.66699 23.167 12 37.5s16.666 29.5 27.999 45.5s24.166 32.333 38.499 49s28.833 32.5 43.5 47.5s28.667 28.667 42 41l34 30.5c49.333 78.667 97.666 160.834 144.999 246.501l137 258.5
c5.33301 11.333 11.833 19.166 19.5 23.499s17.5 6.5 29.5 6.5c7.33301 0 14 -1.83301 20 -5.5s8.33301 -14.167 7 -31.5c-0.666992 -13.333 -2.5 -31.833 -5.5 -55.5s-6.66699 -49.334 -11 -77.001s-9 -55.834 -14 -84.501l-13.5 -78l-9 -52
c17.333 4.66699 36.833 8.83398 58.5 12.501s42.5 6.16699 62.5 7.5c9.33301 0 15.833 -2.33301 19.5 -7s5.16699 -9.66699 4.5 -15c-0.666992 -6.66699 -9.33398 -12.167 -26.001 -16.5s-35.667 -8.5 -57 -12.5h1c-17.333 -3.33301 -31.666 -6 -42.999 -8s-20 -4 -26 -6
c-2.66699 -16.667 -4.5 -31.5 -5.5 -44.5s-2.16699 -25.833 -3.5 -38.5c-2 -46.667 -0.833008 -79.167 3.5 -97.5s10.833 -27.5 19.5 -27.5s18.334 4.66699 29.001 14s22.5 21.666 35.5 36.999s26.667 33.333 41 54l45.5 65l25 38v-1c2 4 4.66699 7.83301 8 11.5
s8.66602 5.5 15.999 5.5c4.66699 0 9.66699 -1.66699 15 -5s8 -8.66602 8 -15.999c-0.666992 -2.66699 -1.33398 -4.83398 -2.00098 -6.50098s-1.66699 -3.5 -3 -5.5l-71 -104c-20.667 -30 -40 -55.333 -58 -76s-35.167 -36.167 -51.5 -46.5s-33.166 -15.5 -50.499 -15.5
c-21.333 0 -38.5 7.5 -51.5 22.5s-21.167 36.167 -24.5 63.5zM472.004 525.003c0.666992 6.66699 1.16602 10.667 1.49902 12s0.333008 1.33301 0 0s-0.666016 -3.5 -0.999023 -6.5s-0.5 -5.16699 -0.5 -6.5v1zM438.003 326.003c0 3.33301 0.333008 6 1 8l12 4z
M331.003 287.003c17.333 9.33301 34.5 17.668 51.5 25.001s35.833 14.666 56.5 21.999c4 32 9 63.667 15 95l18 95c0 -0.666992 -0.166992 -0.166992 -0.5 1.5s0.166992 5.5 1.5 11.5l-40.5 -76.5l-34 -60.5l-32.5 -55zM210.003 154.005
c-23.333 -19.333 -45.668 -41.168 -67.001 -65.501s-40.666 -50.166 -57.999 -77.499c-1.33301 -1.33301 -3.33301 -4 -6 -8s-5.33398 -8.5 -8.00098 -13.5s-5 -9.66699 -7 -14s-3 -7.5 -3 -9.5l-17 14c2 0 7.33301 5 16 15s19.334 23.667 32.001 41l43 61l51 76z
M590.001 770.003c-1.33301 -13.333 -9.33105 -20.0029 -23.998 -20.0029c-5.33301 0 -12.833 4.16699 -22.5 12.5s-19.334 17.833 -29.001 28.5s-18.167 21.334 -25.5 32.001s-11 18.334 -11 23.001c0.666992 7.33301 5.5 15.166 14.5 23.499s17.5 12.5 25.5 12.5
c4.66699 0 8.5 -1.16699 11.5 -3.5s5.16699 -5.16602 6.5 -8.49902c6.66699 -19.333 13.167 -34.833 19.5 -46.5s15.166 -24.5 26.499 -38.5c2 -2 3.83301 -4.16699 5.5 -6.5s2.5 -5.16602 2.5 -8.49902z" />
    <glyph glyph-name="Aacute" unicode="&#xc1;" horiz-adv-x="715" 
d="M430 138c-2 12 -2.99609 25.1699 -2.99609 39.5029s0.333008 30.166 1 47.499c0.666992 9.33301 1.33398 19.333 2.00098 30s1.66699 21.667 3 33c-54.667 -21.333 -104 -47.333 -148 -78c-64.667 -100 -117.834 -173 -159.501 -219s-71.167 -69 -88.5 -69
c-20.667 0 -30.334 10.667 -29.001 32c0.666992 10.667 4.66699 23.167 12 37.5s16.666 29.5 27.999 45.5s24.166 32.333 38.499 49s28.833 32.5 43.5 47.5s28.667 28.667 42 41l34 30.5c49.333 78.667 97.666 160.834 144.999 246.501l137 258.5
c5.33301 11.333 11.833 19.166 19.5 23.499s17.5 6.5 29.5 6.5c7.33301 0 14 -1.83301 20 -5.5s8.33301 -14.167 7 -31.5c-0.666992 -13.333 -2.5 -31.833 -5.5 -55.5s-6.66699 -49.334 -11 -77.001s-9 -55.834 -14 -84.501l-13.5 -78l-9 -52
c17.333 4.66699 36.833 8.83398 58.5 12.501s42.5 6.16699 62.5 7.5c9.33301 0 15.833 -2.33301 19.5 -7s5.16699 -9.66699 4.5 -15c-0.666992 -6.66699 -9.33398 -12.167 -26.001 -16.5s-35.667 -8.5 -57 -12.5h1c-17.333 -3.33301 -31.666 -6 -42.999 -8s-20 -4 -26 -6
c-2.66699 -16.667 -4.5 -31.5 -5.5 -44.5s-2.16699 -25.833 -3.5 -38.5c-2 -46.667 -0.833008 -79.167 3.5 -97.5s10.833 -27.5 19.5 -27.5s18.334 4.66699 29.001 14s22.5 21.666 35.5 36.999s26.667 33.333 41 54l45.5 65l25 38v-1c2 4 4.66699 7.83301 8 11.5
s8.66602 5.5 15.999 5.5c4.66699 0 9.66699 -1.66699 15 -5s8 -8.66602 8 -15.999c-0.666992 -2.66699 -1.33398 -4.83398 -2.00098 -6.50098s-1.66699 -3.5 -3 -5.5l-71 -104c-20.667 -30 -40 -55.333 -58 -76s-35.167 -36.167 -51.5 -46.5s-33.166 -15.5 -50.499 -15.5
c-21.333 0 -38.5 7.5 -51.5 22.5s-21.167 36.167 -24.5 63.5zM472.004 525.003c0.666992 6.66699 1.16602 10.667 1.49902 12s0.333008 1.33301 0 0s-0.666016 -3.5 -0.999023 -6.5s-0.5 -5.16699 -0.5 -6.5v1zM438.003 326.003c0 3.33301 0.333008 6 1 8l12 4z
M331.003 287.003c17.333 9.33301 34.5 17.668 51.5 25.001s35.833 14.666 56.5 21.999c4 32 9 63.667 15 95l18 95c0 -0.666992 -0.166992 -0.166992 -0.5 1.5s0.166992 5.5 1.5 11.5l-40.5 -76.5l-34 -60.5l-32.5 -55zM210.003 154.005
c-23.333 -19.333 -45.668 -41.168 -67.001 -65.501s-40.666 -50.166 -57.999 -77.499c-1.33301 -1.33301 -3.33301 -4 -6 -8s-5.33398 -8.5 -8.00098 -13.5s-5 -9.66699 -7 -14s-3 -7.5 -3 -9.5l-17 14c2 0 7.33301 5 16 15s19.334 23.667 32.001 41l43 61l51 76z
M696.001 887.003c4.66699 -3.33301 7 -7.00098 7 -11.001s-2 -7.66699 -6 -11l-111 -110c-4 -3.33301 -8.5 -4.66602 -13.5 -3.99902s-9.16699 2.66699 -12.5 6l-9 11c-2 2.66699 -2.83301 5.66699 -2.5 9s1.5 6 3.5 8l93 122c3.33301 3.33301 7.5 5.33301 12.5 6
s9.16699 -0.333008 12.5 -3z" />
    <glyph glyph-name="Acircumflex" unicode="&#xc2;" horiz-adv-x="715" 
d="M430 138c-2 12 -2.99609 25.1699 -2.99609 39.5029s0.333008 30.166 1 47.499c0.666992 9.33301 1.33398 19.333 2.00098 30s1.66699 21.667 3 33c-54.667 -21.333 -104 -47.333 -148 -78c-64.667 -100 -117.834 -173 -159.501 -219s-71.167 -69 -88.5 -69
c-20.667 0 -30.334 10.667 -29.001 32c0.666992 10.667 4.66699 23.167 12 37.5s16.666 29.5 27.999 45.5s24.166 32.333 38.499 49s28.833 32.5 43.5 47.5s28.667 28.667 42 41l34 30.5c49.333 78.667 97.666 160.834 144.999 246.501l137 258.5
c5.33301 11.333 11.833 19.166 19.5 23.499s17.5 6.5 29.5 6.5c7.33301 0 14 -1.83301 20 -5.5s8.33301 -14.167 7 -31.5c-0.666992 -13.333 -2.5 -31.833 -5.5 -55.5s-6.66699 -49.334 -11 -77.001s-9 -55.834 -14 -84.501l-13.5 -78l-9 -52
c17.333 4.66699 36.833 8.83398 58.5 12.501s42.5 6.16699 62.5 7.5c9.33301 0 15.833 -2.33301 19.5 -7s5.16699 -9.66699 4.5 -15c-0.666992 -6.66699 -9.33398 -12.167 -26.001 -16.5s-35.667 -8.5 -57 -12.5h1c-17.333 -3.33301 -31.666 -6 -42.999 -8s-20 -4 -26 -6
c-2.66699 -16.667 -4.5 -31.5 -5.5 -44.5s-2.16699 -25.833 -3.5 -38.5c-2 -46.667 -0.833008 -79.167 3.5 -97.5s10.833 -27.5 19.5 -27.5s18.334 4.66699 29.001 14s22.5 21.666 35.5 36.999s26.667 33.333 41 54l45.5 65l25 38v-1c2 4 4.66699 7.83301 8 11.5
s8.66602 5.5 15.999 5.5c4.66699 0 9.66699 -1.66699 15 -5s8 -8.66602 8 -15.999c-0.666992 -2.66699 -1.33398 -4.83398 -2.00098 -6.50098s-1.66699 -3.5 -3 -5.5l-71 -104c-20.667 -30 -40 -55.333 -58 -76s-35.167 -36.167 -51.5 -46.5s-33.166 -15.5 -50.499 -15.5
c-21.333 0 -38.5 7.5 -51.5 22.5s-21.167 36.167 -24.5 63.5zM472.004 525.003c0.666992 6.66699 1.16602 10.667 1.49902 12s0.333008 1.33301 0 0s-0.666016 -3.5 -0.999023 -6.5s-0.5 -5.16699 -0.5 -6.5v1zM438.003 326.003c0 3.33301 0.333008 6 1 8l12 4z
M331.003 287.003c17.333 9.33301 34.5 17.668 51.5 25.001s35.833 14.666 56.5 21.999c4 32 9 63.667 15 95l18 95c0 -0.666992 -0.166992 -0.166992 -0.5 1.5s0.166992 5.5 1.5 11.5l-40.5 -76.5l-34 -60.5l-32.5 -55zM210.003 154.005
c-23.333 -19.333 -45.668 -41.168 -67.001 -65.501s-40.666 -50.166 -57.999 -77.499c-1.33301 -1.33301 -3.33301 -4 -6 -8s-5.33398 -8.5 -8.00098 -13.5s-5 -9.66699 -7 -14s-3 -7.5 -3 -9.5l-17 14c2 0 7.33301 5 16 15s19.334 23.667 32.001 41l43 61l51 76z
M478.001 741.003c-2 -2.66699 -6.33398 -3.99902 -13.001 -3.99902c-6 0 -11.333 2.66699 -16 8s-7 10.666 -7 15.999c0 1.33301 0.333008 3 1 5s2.33398 4.66699 5.00098 8l88 59c5.33301 1.33301 11.333 1.33301 18 0l77 -57h-2c5.33301 -3.33301 8.33301 -6.5 9 -9.5
s1 -5.5 1 -7.5c0 -4.66699 -2.33301 -9.5 -7 -14.5s-11 -7.5 -19 -7.5c-2 0 -4.16699 0.166992 -6.5 0.5s-4.83301 1.5 -7.5 3.5l-56 43z" />
    <glyph glyph-name="Atilde" unicode="&#xc3;" horiz-adv-x="715" 
d="M430 138c-2 12 -2.99609 25.1699 -2.99609 39.5029s0.333008 30.166 1 47.499c0.666992 9.33301 1.33398 19.333 2.00098 30s1.66699 21.667 3 33c-54.667 -21.333 -104 -47.333 -148 -78c-64.667 -100 -117.834 -173 -159.501 -219s-71.167 -69 -88.5 -69
c-20.667 0 -30.334 10.667 -29.001 32c0.666992 10.667 4.66699 23.167 12 37.5s16.666 29.5 27.999 45.5s24.166 32.333 38.499 49s28.833 32.5 43.5 47.5s28.667 28.667 42 41l34 30.5c49.333 78.667 97.666 160.834 144.999 246.501l137 258.5
c5.33301 11.333 11.833 19.166 19.5 23.499s17.5 6.5 29.5 6.5c7.33301 0 14 -1.83301 20 -5.5s8.33301 -14.167 7 -31.5c-0.666992 -13.333 -2.5 -31.833 -5.5 -55.5s-6.66699 -49.334 -11 -77.001s-9 -55.834 -14 -84.501l-13.5 -78l-9 -52
c17.333 4.66699 36.833 8.83398 58.5 12.501s42.5 6.16699 62.5 7.5c9.33301 0 15.833 -2.33301 19.5 -7s5.16699 -9.66699 4.5 -15c-0.666992 -6.66699 -9.33398 -12.167 -26.001 -16.5s-35.667 -8.5 -57 -12.5h1c-17.333 -3.33301 -31.666 -6 -42.999 -8s-20 -4 -26 -6
c-2.66699 -16.667 -4.5 -31.5 -5.5 -44.5s-2.16699 -25.833 -3.5 -38.5c-2 -46.667 -0.833008 -79.167 3.5 -97.5s10.833 -27.5 19.5 -27.5s18.334 4.66699 29.001 14s22.5 21.666 35.5 36.999s26.667 33.333 41 54l45.5 65l25 38v-1c2 4 4.66699 7.83301 8 11.5
s8.66602 5.5 15.999 5.5c4.66699 0 9.66699 -1.66699 15 -5s8 -8.66602 8 -15.999c-0.666992 -2.66699 -1.33398 -4.83398 -2.00098 -6.50098s-1.66699 -3.5 -3 -5.5l-71 -104c-20.667 -30 -40 -55.333 -58 -76s-35.167 -36.167 -51.5 -46.5s-33.166 -15.5 -50.499 -15.5
c-21.333 0 -38.5 7.5 -51.5 22.5s-21.167 36.167 -24.5 63.5zM472.004 525.003c0.666992 6.66699 1.16602 10.667 1.49902 12s0.333008 1.33301 0 0s-0.666016 -3.5 -0.999023 -6.5s-0.5 -5.16699 -0.5 -6.5v1zM438.003 326.003c0 3.33301 0.333008 6 1 8l12 4z
M331.003 287.003c17.333 9.33301 34.5 17.668 51.5 25.001s35.833 14.666 56.5 21.999c4 32 9 63.667 15 95l18 95c0 -0.666992 -0.166992 -0.166992 -0.5 1.5s0.166992 5.5 1.5 11.5l-40.5 -76.5l-34 -60.5l-32.5 -55zM210.003 154.005
c-23.333 -19.333 -45.668 -41.168 -67.001 -65.501s-40.666 -50.166 -57.999 -77.499c-1.33301 -1.33301 -3.33301 -4 -6 -8s-5.33398 -8.5 -8.00098 -13.5s-5 -9.66699 -7 -14s-3 -7.5 -3 -9.5l-17 14c2 0 7.33301 5 16 15s19.334 23.667 32.001 41l43 61l51 76z
M644.001 819.003c-7.33301 -12 -16.501 -22.668 -27.501 -32.001s-25.167 -14 -42.5 -14c-6 0 -14 1.66699 -24 5s-19.667 7 -29 11c-5.33301 2.66699 -11.833 5.5 -19.5 8.5s-13.167 4.5 -16.5 4.5c-6 0 -12.167 -3.83301 -18.5 -11.5s-12.166 -15.167 -17.499 -22.5
c-3.33301 -3.33301 -6.66602 -5.33301 -9.99902 -6s-6 -1 -8 -1c-5.33301 0 -10.333 1.33301 -15 4s-6.66699 8 -6 16c0.666992 6.66699 3.66699 13.5 9 20.5s11.833 13.5 19.5 19.5s15.667 10.833 24 14.5s15.5 5.5 21.5 5.5c9.33301 0 19 -1.83301 29 -5.5l29 -10.5
c7.33301 -3.33301 13.833 -6.16602 19.5 -8.49902s10.167 -3.5 13.5 -3.5s7.66602 2.5 12.999 7.5l14 13.5c6.66699 9.33301 14.667 14 24 14c7.33301 0 13 -1.33301 17 -4s5.66699 -8.66699 5 -18z" />
    <glyph glyph-name="Adieresis" unicode="&#xc4;" horiz-adv-x="715" 
d="M430 138c-2 12 -2.99609 25.1699 -2.99609 39.5029s0.333008 30.166 1 47.499c0.666992 9.33301 1.33398 19.333 2.00098 30s1.66699 21.667 3 33c-54.667 -21.333 -104 -47.333 -148 -78c-64.667 -100 -117.834 -173 -159.501 -219s-71.167 -69 -88.5 -69
c-20.667 0 -30.334 10.667 -29.001 32c0.666992 10.667 4.66699 23.167 12 37.5s16.666 29.5 27.999 45.5s24.166 32.333 38.499 49s28.833 32.5 43.5 47.5s28.667 28.667 42 41l34 30.5c49.333 78.667 97.666 160.834 144.999 246.501l137 258.5
c5.33301 11.333 11.833 19.166 19.5 23.499s17.5 6.5 29.5 6.5c7.33301 0 14 -1.83301 20 -5.5s8.33301 -14.167 7 -31.5c-0.666992 -13.333 -2.5 -31.833 -5.5 -55.5s-6.66699 -49.334 -11 -77.001s-9 -55.834 -14 -84.501l-13.5 -78l-9 -52
c17.333 4.66699 36.833 8.83398 58.5 12.501s42.5 6.16699 62.5 7.5c9.33301 0 15.833 -2.33301 19.5 -7s5.16699 -9.66699 4.5 -15c-0.666992 -6.66699 -9.33398 -12.167 -26.001 -16.5s-35.667 -8.5 -57 -12.5h1c-17.333 -3.33301 -31.666 -6 -42.999 -8s-20 -4 -26 -6
c-2.66699 -16.667 -4.5 -31.5 -5.5 -44.5s-2.16699 -25.833 -3.5 -38.5c-2 -46.667 -0.833008 -79.167 3.5 -97.5s10.833 -27.5 19.5 -27.5s18.334 4.66699 29.001 14s22.5 21.666 35.5 36.999s26.667 33.333 41 54l45.5 65l25 38v-1c2 4 4.66699 7.83301 8 11.5
s8.66602 5.5 15.999 5.5c4.66699 0 9.66699 -1.66699 15 -5s8 -8.66602 8 -15.999c-0.666992 -2.66699 -1.33398 -4.83398 -2.00098 -6.50098s-1.66699 -3.5 -3 -5.5l-71 -104c-20.667 -30 -40 -55.333 -58 -76s-35.167 -36.167 -51.5 -46.5s-33.166 -15.5 -50.499 -15.5
c-21.333 0 -38.5 7.5 -51.5 22.5s-21.167 36.167 -24.5 63.5zM472.004 525.003c0.666992 6.66699 1.16602 10.667 1.49902 12s0.333008 1.33301 0 0s-0.666016 -3.5 -0.999023 -6.5s-0.5 -5.16699 -0.5 -6.5v1zM438.003 326.003c0 3.33301 0.333008 6 1 8l12 4z
M331.003 287.003c17.333 9.33301 34.5 17.668 51.5 25.001s35.833 14.666 56.5 21.999c4 32 9 63.667 15 95l18 95c0 -0.666992 -0.166992 -0.166992 -0.5 1.5s0.166992 5.5 1.5 11.5l-40.5 -76.5l-34 -60.5l-32.5 -55zM210.003 154.005
c-23.333 -19.333 -45.668 -41.168 -67.001 -65.501s-40.666 -50.166 -57.999 -77.499c-1.33301 -1.33301 -3.33301 -4 -6 -8s-5.33398 -8.5 -8.00098 -13.5s-5 -9.66699 -7 -14s-3 -7.5 -3 -9.5l-17 14c2 0 7.33301 5 16 15s19.334 23.667 32.001 41l43 61l51 76z
M560.001 806.003c0.666992 13.333 5.66699 24.666 15 33.999s20.666 14 33.999 14s24.833 -4.66699 34.5 -14s14.167 -20.666 13.5 -33.999s-6.33398 -24.5 -17.001 -33.5s-22.667 -13.5 -36 -13.5s-24.166 4.5 -32.499 13.5s-12.166 20.167 -11.499 33.5zM470.001 808.003
c0.666992 13.333 5.83398 24.666 15.501 33.999s21.167 14 34.5 14s24.666 -4.66699 33.999 -14s13.666 -20.666 12.999 -33.999s-6.16699 -24.5 -16.5 -33.5s-22.166 -13.5 -35.499 -13.5s-24.333 4.5 -33 13.5s-12.667 20.167 -12 33.5z" />
    </font>
</defs>
</svg>
