<?xml version="1.0" standalone="no"?>
<!DOCTYPE svg PUBLIC "-//W3C//DTD SVG 1.1//EN" "http://www.w3.org/Graphics/SVG/1.1/DTD/svg11.dtd" >
<svg xmlns="http://www.w3.org/2000/svg" xmlns:xlink="http://www.w3.org/1999/xlink" version="1.1">
<metadata>
Created by FontForge 20170731 at Mon Mar 22 16:57:16 2021
 By Aleksey,,,
Copyright (c) 2019 by Up Up Creative. All rights reserved.
</metadata>
<defs>
<font id="Meritocracy-Regular" horiz-adv-x="0" >
  <font-face 
    font-family="Meritocracy-Regular"
    font-weight="400"
    font-stretch="normal"
    units-per-em="2048"
    panose-1="1 0 0 0 0 0 0 0 0 0"
    ascent="1638"
    descent="-410"
    x-height="408"
    cap-height="1354"
    bbox="-1581 -1434 3246 1946"
    underline-thickness="102"
    underline-position="-358"
    unicode-range="U+0020-FB02"
  />
<missing-glyph horiz-adv-x="1689" 
d="M1386 1946v-3380h-1073v3380h1073zM1124 1718h-557v-110h219v-125h-221v-111h559v111h-221v125h221v110zM903 1284h-338v-352h559v115h-221v237zM786 1169v-122h-110v122h110zM1124 840h-559v-111h221v-125h-221v-110h338v235h221v111zM1124 637h-110v-221h-449v-117h559
v338zM1124 225h-338v-188h117v78h111v-160h-338v270h-111v-381h559v381zM1124 -358h-559v-383h559v383zM1014 -471v-158h-338v158h338zM1124 -819h-559v-111h236l-236 -160v-110h559v110h-344l238 160h106v111z" />
    <glyph glyph-name="fi" unicode="fi" horiz-adv-x="729" 
d="M-117 -272q-9 0 -30 12q-1 3 -5 11.5t-4 12.5q16 76 17 80q11 47 35 148t38 159.5t36.5 143t43.5 154.5q7 15 11 40q-11 2 -26 2t-37 -1t-36 -1q-73 0 -112 27q-4 16 -4 23q0 12 20 32q17 -2 47.5 -6t52 -6t43.5 -2q45 0 76 6q19 43 35 84q82 204 219 361
q126 144 320 204q58 19 133 19q37 0 55 -2q50 -2 109 -47q49 -35 53 -70q-6 -28 -29 -37h-4q-18 0 -47 25q-57 57 -141 57q-20 0 -56 -4q-216 -47 -350 -213q-131 -156 -199 -326q-1 -5 -8.5 -21.5t-9.5 -21.5q103 0 186.5 15.5t127.5 27.5t67 7q39 -19 39 -58q0 -16 -2 -24
q-20 -86 -41 -152q-69 -211 -107 -379q-4 -17 -7 -26t-13 -19t-25 -14q-25 0 -41 35q16 102 74 289.5t74 256.5q-6 1 -49.5 -5.5t-128.5 -16t-170 -14.5q-24 -71 -105 -379q-45 -167 -92 -377q-27 -10 -33 -10zM612 723q-4 0 -28 8q-19 19 -19 39q0 13 6 25q16 36 58 32
q34 -11 37 -43v-6q0 -32 -27 -49q-24 -6 -27 -6z" />
    <glyph glyph-name="fl" unicode="fl" horiz-adv-x="712" 
d="M268 -387q-14 0 -19.5 7t-12.5 28q16 110 43 227q9 43 63.5 251.5t60.5 235.5q68 229 70 238q-97 -20 -348 -61q-20 -39 -21 -50q-77 -258 -129 -507q-7 -49 -43 -211q-7 -43 -38 -50q-27 0 -44 35q14 88 76 377q16 73 55.5 209.5t49.5 175.5q-9 6 -23 6q-9 0 -28 -4
t-27 -4q-20 -2 -66 -10q-44 -11 -49 -12h-12q-28 0 -45 22q-2 6 -2 16q0 21 26 31q34 7 66 10q169 22 186 25q8 32 15.5 56.5t9.5 31.5q45 134 108 272q86 183 234 302q52 41 131 73q40 8 61 8q46 0 91 -20q139 -70 176 -213q0 -41 -29 -51q-4 -2 -16 -2q-18 0 -29 16
q-42 154 -162 193q-84 10 -174 -60q-93 -75 -156 -178q-22 -34 -41.5 -72t-39.5 -90.5t-30 -79.5t-32 -95.5t-27 -82.5q233 40 351 68q5 9 32 80q23 74 84 231q19 56 50 72q3 0 7.5 1t6.5 1q28 0 41 -29v-22q-7 -21 -31 -63t-51 -111q-23 -50 -82 -222q-174 -600 -225 -852
q-2 -23 -21 -104q-13 -35 -33 -43h-8z" />
    <glyph glyph-name="A_g.liga" unicode="Ag" horiz-adv-x="1642" 
d="M823 -514q-102 0 -139 94q-12 38 -12 70q0 58 26 121q37 75 99 137q104 101 202 155q9 5 55 32t64 37t53.5 28t65.5 30q9 4 26 15.5t25 15.5q44 136 68 271q-16 -15 -29.5 -30.5t-29.5 -35t-23 -27.5l-90 -104q-67 -64 -117 -72q-34 0 -57 29q-11 33 -11 51t4 36t14.5 39
t17.5 34t23.5 40t22.5 37q-12 2 -52 7.5t-54.5 7.5t-50 6.5t-54 6.5t-49.5 5.5t-52.5 5t-48.5 3t-52 1.5q-6 -6 -11 -13.5t-7 -12t-5 -12.5t-4 -11q-80 -330 -149 -673q-2 -9 -5 -27.5t-5 -29.5t-8 -25t-15 -23q-12 -2 -25 -2q-16 0 -39 18q3 36 11 78.5t20.5 94.5t17.5 79
q8 37 32 143.5t34 155.5q8 40 29.5 123.5t29.5 126.5l-20 13q-41 4 -123 4q-17 -1 -51.5 -2t-60.5 -3.5t-48 -7.5q-14 -18 -37 -75q-66 -188 -131 -437q-17 -65 -32 -80q-16 -8 -31 -8q-17 0 -31 17q0 5 -1 11l-1 5q6 25 19 79.5t20 82.5q2 7 38 124t54 171q26 78 27 82
q-3 6 -8 10t-8.5 5t-10.5 2t-8 1q-6 0 -33 -2.5t-33 0.5q-50 4 -59 35q0 19 20 39q27 8 87.5 9.5t89.5 8.5q9 8 15.5 19t15 31t10.5 24q112 261 274 420q83 69 111 86q33 20 65 20q26 0 43 -10q35 -40 35 -96q0 -25 -2 -37q-9 -71 -66 -352q-1 -9 -7 -36.5t-3 -43.5
q11 -25 57 -25q62 -1 131 -8.5t154 -20.5t133 -18q58 21 109 21q22 0 35 -5q13 10 29 30.5t31 32.5t36 15q29 -12 40 -23t11 -30q0 -13 -2 -25q-2 -11 -19 -98.5t-24 -132.5q-1 -5 -6 -22t-7 -28.5t-1 -23.5q16 -3 31 1.5t34.5 15.5t26.5 14q12 4 42 16.5t48 18.5
q3 1 11.5 5t11.5 5.5t11 4.5t11.5 4t10 3t11 2t9.5 -0.5t10 -1.5q22 -7 29 -24q0 -30 -37 -49q-133 -56 -164 -72q-8 -3 -27.5 -10t-29.5 -11t-25.5 -11t-29 -14.5t-25.5 -16.5q-54 -152 -56 -158q-62 -169 -135 -271q-80 -120 -186 -186q-92 -49 -154 -49zM305 606
q36 2 133.5 6t151.5 9q13 40 25.5 92.5t20 88.5t19.5 99.5t17 87.5l12 94v9q0 22 -12 24q-114 -67 -228 -221t-139 -289zM1083 319q61 49 87.5 79.5t41.5 68.5q-4 2 -14 2q-11 0 -22 -8q-54 -38 -93 -142zM819 -436q100 10 199 106q85 85 129 176l92 209q11 22 6 45
q-1 0 -4.5 1t-6 1t-3.5 -2q-162 -77 -268 -155q-104 -68 -172 -172q-37 -65 -37 -111q0 -4 1 -12t1 -12q3 -68 63 -74z" />
    <glyph glyph-name="A_s.liga" unicode="As" horiz-adv-x="1378" 
d="M862 -223q-43 0 -76.5 27.5t-46.5 78.5v19q8 45 27.5 84.5t42 67.5t60 58.5t64 48.5t71.5 46q8 82 8 121q0 33 -2 49q-7 1 -21 -0.5t-37 -5.5t-46.5 -8.5t-63 -11.5t-72.5 -13q-109 -11 -156 -19q-39 -107 -112 -327l-49 -156q-30 -10 -39 -10q-12 0 -35 29
q41 145 80 249q7 23 33 99.5t36 115.5l-84 -2q-18 0 -30 2l-50 -1q-49 0 -49 1q-25 0 -65 7q-16 2 -49 2q-41 -89 -84 -238l-25 -90q-20 -23 -41 -23q-23 0 -33 33q9 57 52 189q33 97 41 137q-25 14 -68 14q-31 5 -43 29v8q0 22 20 37q8 2 29 2q17 0 27 -2q34 -6 71 -6
q2 5 13 30.5t16 40.5q6 3 6 13q118 256 221 409q60 88 148 176q10 8 27 25q9 6 28 25q54 41 107 41q7 0 20.5 -3.5t16.5 -3.5q53 -22 53 -84q0 -110 -12 -163q-20 -87 -91 -324q-22 -68 -34 -117q-7 -11 -11 -32q-11 -25 -16 -52q251 38 387 82q13 35 19.5 50t21.5 42.5
t29.5 40.5t39 25.5t54.5 15.5q51 -9 63 -47q2 -8 2 -26q0 -24 -14 -52q-26 -41 -61 -63q-68 -43 -78 -49q-8 -66 -8 -92q0 -46 4 -66q45 3 92 27q46 17 49 18q20 5 58 18t46 15q11 4 29 8q35 -3 41 -27v-8q-2 -6 -2 -10q-7 -17 -21 -25t-38 -16q-28 -8 -62 -22
q-7 -2 -92 -35q-58 -23 -98 -41q-19 -24 -19 -64v-22q-9 -100 -63 -191q-20 -39 -57 -71q-46 -37 -99 -37zM369 393q117 0 184 19q6 6 6 8l6 12l49 158q48 153 82 280q18 63 33 168q0 4 1 12.5t1 12.5q0 24 -22 33q-47 -20 -77.5 -42t-64.5 -63q-63 -76 -106 -145
q-123 -180 -211 -395q-12 -29 -17 -48q49 -10 136 -10zM862 -141q15 0 31 8q98 82 98 188q0 27 -4 43q-100 -53 -149 -145q-19 -38 -19 -51q0 -14 8 -25q13 -18 35 -18z" />
    <glyph glyph-name="A_t.liga" unicode="At" horiz-adv-x="1277" 
d="M819 -141q-4 0 -15 1t-16 1l-10 18q-4 8 -4 23q0 9 3.5 27.5t4.5 23.5q15 55 50.5 185.5t55.5 203t52 179t61 194.5q4 11 11.5 39t11.5 39q-123 3 -307 -7q-21 -54 -27 -73q-25 -76 -68.5 -218t-81 -257t-73.5 -215q-6 -12 -31 -70q-15 -30 -47 -27q-14 3 -24 19
q-3 9 -3 20q0 5 2 12t5 16t4 15q42 107 82 227t87 272.5t72 229.5q3 15 9 39q-29 2 -66 2t-55 -2h-117q-8 -5 -15 -11.5t-12.5 -17t-8.5 -17t-7.5 -19t-5.5 -15.5q-141 -285 -205 -491q-30 -83 -37 -99q-7 -33 -45 -38q-24 7 -33 36q1 23 9.5 49t22.5 58.5t20 52.5
q7 24 17 51t22.5 59.5t19.5 51.5q7 16 32 74.5t38 91.5q11 29 38 86t39 86q-44 -1 -124.5 -9.5t-114.5 -9.5q-32 11 -35 33q0 13 12 31q26 10 80 12t72 6q22 2 74.5 3.5t80.5 7.5q28 51 62 104q93 144 176 227q28 28 86 74q36 25 70 25q5 0 35 -6q51 -22 47 -101
q-8 -93 -39 -211q-3 -11 -25 -84q8 -4 39 -4q32 0 134 7.5t149 7.5q9 13 32 75q41 109 99 226q9 20 13 27.5t15 21t25 20.5q4 4 16 4q14 0 24 -10.5t13 -28.5q-7 -14 -30.5 -62t-34 -71t-28.5 -62t-30.5 -72.5t-23.5 -65.5q25 -2 53 -2q135 0 270 6q38 0 58 -4q41 -8 43 -43
q-10 -32 -49 -35h-140h-262q-14 -26 -31 -86q-79 -232 -180 -611q-10 -47 -45 -172q0 -2 -2 -10.5t-2.5 -11t-2.5 -9.5t-3.5 -10t-4.5 -8.5t-6.5 -9t-8.5 -7.5t-11 -7zM430 850q59 0 209 10q30 54 52 158t16 156q-32 -9 -42 -15.5t-38 -34.5q-67 -62 -122.5 -140t-74.5 -134
z" />
    <glyph glyph-name="B_e.liga" unicode="Be" horiz-adv-x="1359" 
d="M1368 362q20 0 30 -9t11 -31q-3 -4 -6.5 -15.5t-7.5 -17.5q-45 -77 -71 -106q-33 -37 -87 -79q-93 -83 -186 -94q-7 1 -34 2t-36 6q-80 17 -96 99q-11 40 -11 82v12q0 25 -14 35q-27 -7 -113.5 -17t-134.5 -26q-59 -80 -137 -146q-118 -101 -264 -161q-104 -43 -184 -35
q-68 3 -115 39q-41 27 -49 73q0 44 33 82q18 22 32 74q124 500 316 963q2 7 12 36.5t16 45.5q10 37 39 45h8q21 0 35 -29q-2 -43 -31.5 -117.5t-35.5 -97.5q15 10 26 20.5t23.5 24t17.5 18.5q8 6 20.5 17.5t23.5 20t22 14.5q33 33 74 51q33 20 73 33q13 6 82 22
q58 -12 84.5 -35.5t26.5 -62.5q0 -20 -12 -60q-25 -85 -70 -147q-36 -55 -103 -129q-1 -1 -8.5 -7.5t-9.5 -8.5l-8 -8t-8.5 -9.5t-5.5 -9.5t-5 -12q4 -11 10 -15t22 -4h18q107 -22 139 -121q8 -36 8 -57q0 -25 -4 -37q-2 -17 -24.5 -85.5t-24.5 -76.5q19 -16 31 -10
q25 7 90 14.5t98 22.5q88 154 112 183q27 33 75 52q9 3 24 9q42 0 65 -41q13 -26 13 -52q0 -16 -2 -28q-15 -76 -76 -131q-44 -35 -98 -60q-21 -12 -45 -24q0 -13 -2.5 -37t-2.5 -35q0 -47 27 -74q19 -12 49 -12t80 25l34.5 23t46 33t30.5 30q20 18 36 37.5t33.5 44.5
t28.5 38q6 5 14.5 17.5t14.5 17.5q2 3 18 8zM434 999q-147 -132 -256 -368q83 27 101 31q80 14 172 92q74 68 133 141q44 55 78 131q12 30 12 49q0 14 -8 25q-15 12 -29 12q-1 0 -31 -6q-102 -37 -172 -107zM563 281q27 49 55 125.5t27 115.5q-5 36 -19 54.5t-46 27.5
q-50 12 -99 12q-61 0 -119 -24q-5 -2 -36.5 -16t-40.5 -17.5t-35 -14t-41 -15.5t-37.5 -11t-42.5 -10q-83 -222 -111 -361q197 72 545 134zM1100 498q-65 -50 -94 -129q83 26 94 129zM465 158q9 7 11 10.5t-3 19.5q-37 -10 -146.5 -33.5t-184 -47t-140.5 -60.5
q-4 -11 -16 -39.5t-17 -42.5q6 -10 31 -20q7 0 22 -1t21 -1q91 0 156 32q154 74 266 183z" />
    <glyph glyph-name="B_l.liga" unicode="Bl" horiz-adv-x="1220" 
d="M829 -203q-15 0 -32 25q-2 8 -2 31q0 32 8 59q6 25 41.5 166.5t49.5 195.5t43 164t53.5 194.5t49.5 164.5l15 47q-30 -24 -72 -66q-89 -80 -123 -106q-104 -93 -186 -154q4 -25 4 -76t-6 -80q-53 -236 -252 -339q-120 -66 -258 -78q-7 0 -21 -1t-20 -1q-31 0 -58 6
q-92 27 -112 102q8 158 57 332q31 111 97 323.5t94 309.5q26 82 63 155q3 13 12.5 35.5t12.5 30.5q14 47 47 76q13 8 28 8q23 0 37 -18q0 -28 -12 -43q-53 -95 -106 -254l-19 -56q32 36 33 39q59 58 123 117q36 32 121 84q78 42 182 39q39 -16 53 -43.5t12 -71.5
q-10 -56 -30 -92q-56 -118 -181 -211l-27 -18t-30 -23q-7 -8 -26.5 -20t-22.5 -15q105 -26 180 -127q25 13 51 31t41 30t44.5 37t39.5 33q153 147 158 152q59 61 133 168q33 59 39 74q8 17 18 35t21.5 38t17.5 31q25 11 50 8q0 -5 6 -8q1 -1 3.5 -4.5t4.5 -5.5q2 -6 2 -17
q0 -4 -10 -39q-199 -446 -361 -1177q-8 -20 -20 -66q-1 -7 -11 -45.5t-14 -60.5q-6 -25 -33 -25zM207 719q81 8 149 42t142 91q115 77 159 158q43 80 50 104q4 2 4 8q0 8 -13 25q-5 8 -20 8q-7 0 -19 -4t-14 -4q-50 -16 -72 -33q-231 -146 -366 -395zM88 246
q322 192 487 311q-26 74 -100 92q-50 13 -84 13q-52 0 -104 -25q-12 -4 -45.5 -17t-53.5 -20l-26 -12l-6 -6q-1 -5 -9 -23q-12 -46 -35 -144.5t-36 -150.5q-4 -23 -2 -23q2 -1 14 5zM123 23q197 3 350 135q119 107 119 274l-4 33q-94 -60 -259.5 -165t-211.5 -134
q-32 -14 -76 -62q-15 -26 -6 -47q26 -30 88 -34z" />
    <glyph glyph-name="C_l.liga" unicode="Cl" horiz-adv-x="1341" 
d="M973 -227q-15 0 -25 4q-20 23 -20 61q0 8 2 23.5t2 23.5q3 22 8 62t9 73t7 62q32 191 60 289q0 1 3.5 19t6 34t0.5 16q-9 -6 -21.5 -20t-20.5 -24l-9 -11q-146 -171 -338 -297q-142 -98 -285 -123q-31 -8 -65 -8q-80 0 -158 35q-129 56 -156 215q-14 79 -14 127
q0 53 14 125q69 335 295 567q76 76 142 111q35 21 90 34q27 7 59 7q122 0 205 -113q32 -46 53 -104q2 -5 8 -24.5t9 -27.5t10.5 -20.5t17.5 -20.5v-18q0 -42 -35 -53q-36 8 -49 41q-21 46 -39 90q-12 40 -49 104q-20 30 -59 49t-80 19q-31 0 -51 -10q-63 -28 -88 -43
q-101 -78 -144 -140q-171 -220 -219 -473q-8 -44 -8 -96q0 -61 18 -156q27 -90 127 -131q44 -12 90 -12q45 0 119 18q69 17 178 82q237 150 441 426q103 136 151 295q8 30 62 154q31 68 53 90q18 10 39 10q16 0 24 -6q1 -2 7 -8t8 -10q4 -16 4 -27q0 -17 -8 -45
q-32 -118 -76 -180q-36 -51 -66.5 -117.5t-46.5 -113.5t-41 -130q-77 -270 -116 -635q0 -5 2 -17t2 -21.5t-4 -16.5q-25 -14 -35 -14z" />
    <glyph glyph-name="C_o.liga" unicode="Co" horiz-adv-x="1181" 
d="M207 -205q-43 0 -82 10q-142 48 -176 226q-8 47 -8 106q0 108 28 217q40 172 127 339.5t193 291.5q68 83 162 148q97 70 237 79q17 -6 33 -8q86 -13 137 -104q41 -81 41 -174q0 -33 -8 -99q-17 -74 -39 -106q-1 -2 -9.5 -13.5t-12.5 -15.5t-12 -10t-17 -8q-15 0 -17 4
q-19 6 -22 24q0 24 10 37q45 75 45 170q0 1 -6 76q-13 100 -90 139q-16 6 -51 6q-79 0 -164 -55q-91 -55 -178 -166q-106 -136 -192 -334.5t-111 -367.5l-4 -32t-3 -38q0 -67 21 -131q24 -111 156 -137q51 -5 109 21t119.5 79.5t112 104.5t119.5 124.5t109 112.5
q0 3 0.5 5.5t1 3.5t0 3t-1.5 3v16q0 42 33 59q30 15 47 15q28 0 55 -17q8 -6 22.5 -18.5t22.5 -18.5q39 -2 103 -2h86q48 0 71 -2q15 -24 15 -32q0 -7 -13 -33q-179 -18 -233 -21q-5 -5 -8 -9.5t-4.5 -10.5t-2 -9t-1.5 -10.5t-1 -9.5q-8 -100 -65 -207q-18 -33 -53 -63
q-25 -25 -54 -25q-20 0 -30 6q-33 21 -33 99q0 70 24 157q-35 -35 -91.5 -94t-85 -87.5t-73 -70.5t-73.5 -62t-67 -42t-73.5 -30.5t-74.5 -8.5zM803 33q70 105 76 221q0 3 -1 5.5t-2.5 4t-2.5 3t-4 3l-4 2t-5.5 2t-5.5 2.5q-53 -92 -53 -208z" />
    <glyph glyph-name="C_r.liga" unicode="Cr" horiz-adv-x="1460" 
d="M256 -100q-62 0 -117.5 29.5t-85.5 80.5q-25 47 -39 123t-14 146q0 9 1 26t1 23q58 489 354 817q82 94 211 143q27 13 68 17q88 6 135 -76q24 -37 27 -84q0 -121 -66 -201q-10 -13 -24 -20l-17 -6q-22 0 -31 22q-2 4 -2 16q0 7 3.5 15.5t10.5 19t9 15.5q35 45 35 114
q0 99 -80 109q-134 -28 -258 -174q-229 -282 -287 -684q-6 -37 -6 -92q0 -63 10 -150q12 -50 29 -74q42 -80 133 -71q84 4 174.5 54.5t164 120.5t148.5 166t124 172t96 158q2 4 4.5 9.5t5 9.5t6.5 8q23 54 45 98q16 13 29 13q16 0 28 -21q2 -4 2 -12q0 -17 -6 -29
q-14 -35 -27.5 -76t-19.5 -62.5t-20.5 -79t-18.5 -71.5q-14 -48 -12 -80q125 125 238 189q15 9 32 16.5t39 15t34.5 11t40.5 11t34 9.5q12 2 30 2q20 0 33 -8q34 -21 17 -45q-4 -9 -12.5 -13t-21.5 -5.5t-18 -3.5q-110 -20 -227.5 -96.5t-189.5 -168.5q-22 -27 -41.5 -64.5
t-29 -63t-26.5 -74.5q-13 -53 -26 -66q-11 -8 -25 -8q-15 0 -29 14q-8 20 -8 35t8 47q12 50 35.5 152.5t36.5 152.5q-286 -443 -596 -497q-16 -4 -51 -4z" />
    <glyph glyph-name="D_a.liga" unicode="Da" horiz-adv-x="1312" 
d="M98 -57q-136 -3 -213 82q-49 49 -49 100q0 48 33 90q12 24 41 49l51 49l24 66t29 86q94 277 213 504l49 86q19 33 50 41q25 0 34 -37q-4 -24 -30 -67.5t-29 -49.5q-61 -124 -61 -125h6q18 0 35 25q63 56 180 127q38 23 106 45q16 4 47 4q75 0 125 -53q31 -31 47 -74
q33 -90 33 -154q0 -30 -6 -57q-16 -92 -33 -141q-8 -27 -10 -47q8 0 42.5 0.5t45.5 1t39 2.5t44 5t38.5 8.5t42.5 12.5q32 13 68 13q12 0 30 -3l49 43h11q18 0 26.5 -4.5t14.5 -19.5q0 -2 1 -7.5t1 -8.5l-27 -76q-19 -53 -51 -156q-1 -1 -12 -47q-1 -5 -1 -12t0.5 -15.5
t0.5 -13.5q8 1 13.5 2t12 3t9.5 3t8.5 4.5t7.5 4.5t8.5 6.5t9 8t11.5 11t14 12.5q10 10 24.5 27t26 29t22.5 18h17q19 0 24 -8l11 -19q0 -14 -2 -20q-43 -78 -144 -143q-45 -25 -73 -25q-22 0 -41 8q-26 27 -34.5 44.5t-8.5 47.5q0 25 6 74q-39 -39 -74 -67q-23 -23 -53 -23
q-19 0 -29 6q-27 16 -31 57q6 50 47 134q-8 8 -12 8q-49 -2 -176 -15q-27 -36 -31 -43q-98 -163 -252 -286q-149 -122 -346 -131zM80 375q2 2 2 4h10q21 0 53 12l95 25q180 40 340 51q36 0 92 18q75 143 63 285q-11 119 -80 162q-27 2 -59 2q-14 0 -26.5 -3.5t-19.5 -6.5
t-32 -15q-282 -150 -409 -436q-2 -6 -9 -22.5t-10 -24.5t-6 -21.5t-2 -25.5q-12 -4 -2 -4zM983 344q42 21 73 53.5t25 59.5q-28 0 -60.5 -30.5t-37.5 -82.5zM82 23q182 0 321 118q106 84 189 203q2 3 7 10t6.5 10t3.5 11.5t-1 15.5q-14 -2 -65.5 -6.5t-77.5 -9.5
q-190 -24 -320 -66q-3 -1 -21 -6.5t-23.5 -8t-18.5 -7.5t-22 -11t-17 -14q-13 -23 -26 -72.5t-27 -72.5q-7 -8 -16 -11t-22 -4t-18 -2q0 6 -2 6q0 1 -2 1.5t-2 1.5q0 -1 2.5 -4t3.5 -5q0 -20 25 -41q50 -36 123 -36z" />
    <glyph glyph-name="D_o.liga" unicode="Do" horiz-adv-x="1601" 
d="M1565 354q24 0 31.5 -3t31.5 -23v-11q0 -23 -33 -38q-19 -7 -55 -7h-164h-22q-29 0 -43 -8q-6 -7 -9.5 -16.5t-4.5 -15.5t-2.5 -19t-2.5 -18q-21 -139 -104 -254q-41 -59 -82 -80q-31 -17 -51 -17q-45 0 -70 66l-4 16q14 132 111 318l-6 4l-4.5 3t-2.5 1l-301 -66
q-21 -21 -54 -53t-46 -45q-207 -198 -447 -266q-114 -30 -233 -27h-8q-80 6 -124.5 44.5t-64.5 119.5q3 81 90 125q48 27 168 61q12 2 37 9t37 10q7 16 19.5 48.5t19.5 49.5q30 82 111 292t110 292q1 4 6 14.5t6.5 15.5t3.5 14t1 17q-76 -29 -156 -127q-47 -49 -92 -127
q-24 -12 -31 -12q-11 0 -25 14q-15 24 -2 47q18 40 29 58q118 162 279 248q25 10 53 24q19 20 40 67t38 64q22 11 30 11q20 0 31 -17q4 -8 4 -24q0 -20 -20 -52q13 -8 28 -8q8 0 25 3.5t21 4.5q44 9 86 9q12 0 36 -1.5t37 -1.5q28 0 82 -16q87 -32 111 -113q18 -59 18 -116
q0 -38 -2 -54q-14 -89 -62 -221t-94 -217q-22 -33 -24 -57q35 -1 72 6.5t81 19.5t68 17q9 2 43 10q4 6 15.5 23.5t18 25.5t21 16t33.5 7q45 -2 82 -56q10 -4 21 -6t17 -2.5t20 0t18 0.5h205zM721 260q75 97 141.5 250.5t81.5 269.5q6 20 6 58q0 39 -2 57q-9 55 -41 84
t-80 27h-131q-88 -6 -161 -37q-70 -139 -299 -770q-2 -2 -1.5 -3.5t2 -5t1.5 -4.5q138 13 239 29q12 2 104.5 15t139.5 30zM1071 -59q63 46 101.5 130.5t41.5 188.5q-51 -40 -96 -141t-47 -178zM145 -113q64 0 164.5 45t189.5 109t124 117q-12 -2 -92.5 -13t-120.5 -16
q-17 -3 -53.5 -8t-57 -8.5t-50 -11t-54.5 -17.5q-59 -157 -72 -193q4 0 11 -2t11 -2zM39 -125q2 34 26 94.5t25 93.5q-79 -10 -123.5 -30t-79.5 -60q3 -39 14.5 -57t41 -27t96.5 -14z" />
    <glyph glyph-name="D_u.liga" unicode="Du" horiz-adv-x="1949" 
d="M1987 322q0 -2 2 -6.5t2 -6.5q0 -21 -21 -39q-129 -140 -229 -211q-67 -49 -127 -49q-94 6 -103 96q0 7 -1 19.5t-1 19.5l2 35q2 9 7 36t8 46q-12 -14 -24 -26t-26 -25t-22 -21q-55 -61 -131 -106q-35 -21 -61 -21q-20 0 -33 5q-40 21 -37 77q11 65 25 103
q8 19 23.5 55.5t23.5 54.5q-6 17 -31 17q-41 -4 -126.5 -12.5t-135.5 -12.5q-17 -28 -37 -55q-157 -217 -393 -326q-135 -58 -271 -61q-66 0 -137 24q-69 27 -100 78q-33 44 -33 88q0 51 43 97q39 39 109 73q19 10 88 41q43 70 172 357q30 65 100.5 221t110.5 241
q35 68 51 103q18 29 43 37q35 -15 41 -25t4 -53q-80 -89 -123 -234q97 97 164 142q111 76 221 104q32 4 45 4q112 0 143 -123q5 -45 5 -57q0 -42 -11 -102q-13 -69 -42.5 -148.5t-104.5 -257.5q-31 -44 -27 -76q132 0 209 15q28 4 45 4q15 0 35 -4q37 -12 43 -49
q-5 -41 -43.5 -125t-42.5 -136q96 69 143 123q166 184 219 254q1 1 8 10.5t10 12.5l9.5 9.5t13.5 9.5t15 5q5 -2 12 -4.5t8 -3.5q7 -6 17 -20q3 -16 -1 -30.5t-14.5 -34t-13.5 -27.5q-12 -27 -80 -170q-35 -77 -35 -140q0 -43 21 -51q16 1 21.5 -0.5t18.5 5.5t17 9.5
t15.5 12t15.5 12.5q14 9 27 18.5t28 22.5t24 20.5t26.5 24.5t23 22.5l26 26l23.5 23.5q43 50 74 59q31 0 37 -24zM918 428q48 81 110.5 226.5t85.5 230.5q19 65 21 112q4 10 4 33q0 54 -39 90q-28 4 -41 4q-38 0 -68 -12q-66 -24 -123 -65q-136 -95 -237 -226
q-50 -64 -124.5 -196t-121.5 -230q-1 -1 -4.5 -7t-4.5 -9.5t-2.5 -9.5t0 -12t5.5 -13q22 4 79.5 16.5t100 19.5t82.5 11q135 12 277 37zM565 72q94 51 169 118t110 132q-14 4 -49 4q-83 0 -212.5 -22.5t-254.5 -57.5q-22 -32 -58.5 -119.5t-72.5 -128.5q41 -6 75 -6
q151 0 293 80zM152 104q12 22 36 95q-66 -36 -84 -55q-13 -13 -20 -29q4 -44 11.5 -55.5t45.5 -34.5v14q0 10 11 65z" />
    <glyph glyph-name="E_s.liga" unicode="Es" horiz-adv-x="1292" 
d="M229 -197q-36 0 -57 7q-138 29 -205 159q-43 79 -43 176q0 49 13 103q40 167 181 304t298 175q50 8 76 8q42 0 88 -12q4 24 4 25q0 13 -9 40q-26 107 -28 154q-9 157 117 246q59 39 120 39q91 0 166 -82q58 -67 82 -152q14 -43 31 -151v-17q0 -36 -25 -55q-3 -1 -10 -3.5
t-10 -2.5q-13 0 -29 16q-8 12 -8 29q-9 107 -20 143q-12 55 -58 127q-45 66 -117 66q-75 0 -124 -70q-39 -55 -39 -117q0 -25 6 -43l49 -192q1 -9 9 -35.5t7 -40.5q-8 -33 -45 -39q-2 1 -14.5 5.5t-20.5 9.5q-52 32 -122 32q-62 0 -121 -24q-237 -102 -336 -342
q-29 -73 -29 -142q0 -51 10 -90q28 -116 131 -157q38 -17 84 -17q39 0 86 13q86 26 181 90q125 88 221 184q29 30 87.5 87.5t86.5 86.5q77 73 100 137q10 30 37 37q4 4 17 4q15 0 28 -16q8 -11 8 -29q0 -20 -12 -41q-24 -42 -24 -106q0 -20 4 -82q174 83 227 110
q22 -5 33 -13t14 -26q-5 -31 -47 -49l-148 -73q-17 -8 -46 -24t-44 -23q-11 -33 -21.5 -56t-27 -47.5t-40.5 -40.5t-56 -22q-45 3 -59 41q-1 3 -4 10t-3 12q0 11 17 45q22 39 53 64q35 27 57 41q9 36 9 49l-7 35q-12 -1 -20.5 -6t-19.5 -18l-11 -13q-25 -24 -107 -105
t-130 -121q-153 -129 -283 -180q-99 -35 -158 -35z" />
    <glyph glyph-name="E_v.liga" unicode="Ev" horiz-adv-x="1558" 
d="M158 -393q-136 11 -215 67q-145 104 -148 271q-3 113 43 205q59 116 162 208q117 101 246 93h41q2 0 14 6l-47 92q-47 84 -47 182q0 88 38 171t105 147q76 73 189 73q29 0 45 -2q60 -10 127 -73q82 -94 127 -244q4 -8 4 -23q0 -12 -13 -32q-11 -11 -26 -11t-31 11
q-4 15 -17 50t-18 54q-18 57 -80 133q-50 64 -125 64q-52 0 -108 -41q-115 -84 -131 -238q0 -7 -2 -20t-2 -19q0 -92 55 -188q13 -19 35.5 -54.5t30.5 -48.5q22 -35 18 -61q0 -24 -29 -33h-16q-14 3 -38 10.5t-34 10.5q-31 10 -75 10q-58 0 -107 -27q-215 -128 -254 -348
q-4 -16 -4 -45q0 -98 65.5 -173.5t180.5 -88.5q34 -6 63 -6q119 0 269 75q134 71 270 197q167 157 274 315q9 15 29.5 40.5t28.5 37.5q9 12 12.5 16.5t12.5 11t20 9.5q23 0 43 -20q18 -22 14 -76q-4 -74 -4 -221q0 -4 6 -58q1 -3 16 -26q43 66 103 188.5t78 155.5
q23 23 49 26q52 2 170 -16q16 -16 16 -31q0 -4 -8 -20q-23 -14 -61 -14q-9 0 -28.5 1t-29.5 1q-6 0 -41 -5q-6 -4 -10.5 -9t-8.5 -12.5t-6 -12t-6.5 -14.5t-5.5 -13q-94 -188 -131 -246q-28 -44 -53 -69q-22 -29 -51 -29q-43 6 -55 53q-17 59 -17 111v196q-21 0 -33 -24
q-160 -222 -352 -373q-186 -150 -362 -203q-103 -26 -170 -24z" />
    <glyph glyph-name="F_a.liga" unicode="Fa" horiz-adv-x="1513" 
d="M1524 358q17 -3 25.5 -11.5t11.5 -27.5q-3 -5 -9 -22q-114 -132 -168 -180q-66 -51 -114 -51q-27 0 -41 6q-49 33 -49 94q0 17 3.5 46.5t4.5 39.5h-8q-4 0 -6.5 -1.5t-4.5 -3.5t-5 -5.5t-5 -5.5q-15 -14 -49.5 -51.5t-54.5 -55.5q-24 -23 -36 -26t-54 1q-33 16 -33 54
q0 4 1 12t1 12q5 33 39 107q3 6 17.5 27.5t15.5 37.5q-14 4 -48 4q-91 0 -247 -39q-6 -5 -10 -12t-6 -11.5t-5 -13.5l-4 -12q-199 -515 -289 -759q-41 -106 -47 -119q-7 -22 -13 -29t-34 -27h-4q-19 0 -33 27v14q0 10 2.5 20t8.5 24t8 20q78 214 153 403l148 383
q2 10 13.5 39.5t14.5 38.5q-18 0 -52.5 -1t-55.5 -1h-41q-31 0 -43 19q0 2 -2 7t-2 11t4 12q6 14 35 19q25 4 90 4q78 7 92 10q11 20 23 51q5 15 28.5 83.5t32.5 96t25.5 81.5t27.5 98t19 88q15 65 12 155q0 51 -37 70q-13 8 -35 8t-49 -10q-126 -51 -224.5 -107.5
t-178.5 -136.5q-35 -35 -64 -41q-17 11 -18 13q-12 8 -17 18q1 4 2 12.5t2 12.5q21 35 78 84q159 130 393 217q16 6 48.5 11.5t35.5 6.5q15 0 27 -6q56 -14 85.5 -46.5t33.5 -88.5q2 -20 2 -56q0 -62 -10 -106q-29 -133 -111 -387q-2 -7 -12 -33.5t-13 -40.5l-4 -16
q0 -6 4 -6q3 0 18 3.5t28 4.5q51 10 175 22.5t189 28.5q3 0 8.5 2t7.5 2q11 0 32 -4t34 -4q15 10 39 40t43 34h6q19 0 33 -23q2 -8 2 -22q0 -16 -17 -50q-51 -91 -69 -190q-8 -31 -8 -64q0 -15 4 -43q11 0 19.5 2t18 9t13 9.5t15 14.5t12.5 13q18 16 37.5 36.5t42.5 46
t36 39.5q4 3 13 12t14 13.5t14.5 9.5t18.5 6zM1047 244q52 39 78 70t38 69q-45 -22 -68.5 -49.5t-47.5 -89.5z" />
    <glyph glyph-name="F_u.liga" unicode="Fu" horiz-adv-x="1280" 
d="M-76 -639q-17 0 -30 23q-3 6 -3 16q0 12 21 59q20 43 59 122t45 91q101 209 277 557q3 7 15 39t20 51q-30 0 -80 -4t-68 -4q-32 13 -35 35v6q0 17 21 31q141 9 211 18q16 34 63 133t70.5 151t55 135.5t50.5 154.5q15 58 15 88q0 35 -8 59q-35 15 -66 15q-22 0 -76 -13
q-145 -30 -282 -106q-21 -11 -191 -111q-29 -12 -39 -20h-10q-19 0 -33 14q-2 6 -2 17q0 16 4 24q9 14 15 16q257 169 436 222q26 8 151 34q25 5 66 5q53 -6 84.5 -38.5t34.5 -84.5q5 -43 -10 -107q-34 -131 -97 -276q-19 -44 -55.5 -123t-52.5 -115q-2 -4 -7 -13.5
t-7.5 -15.5t-4 -14.5t-0.5 -15.5q17 -3 85.5 1t90.5 7q11 1 39 4.5t43 3.5q62 0 74 -61q2 -24 -13.5 -78t-11.5 -88q77 62 152 157q23 31 61.5 86.5t53.5 75.5l7.5 2.5t8.5 2.5t8 1q20 0 33 -22q4 -16 4 -19q0 -20 -18 -49q-42 -68 -74 -172q-8 -27 -8 -55q0 -19 2 -31
q23 -20 47 -20q22 0 49 20q33 21 72 78q58 67 76 90h30q2 0 4.5 -2t6.5 -5.5t6 -4.5q4 -8 4 -25q0 -15 -10 -28q-62 -83 -97 -127q-58 -65 -125 -70q-106 0 -136 59q-8 17 -19 64q-19 -8 -44 -33.5t-32 -30.5q-40 -37 -80 -43q-44 0 -65 35q-7 16 -7 43q0 30 13.5 81.5
t15.5 66.5q-2 6 -5 9.5t-8 5t-7 2t-9 0t-8 -0.5q-14 -1 -73.5 -5t-112 -7.5t-76.5 -7.5q-44 -87 -123.5 -250t-114.5 -234q-45 -93 -129 -262t-104 -209q-4 -1 -15.5 -5.5t-17.5 -4.5z" />
    <glyph glyph-name="N_o.liga" unicode="No" horiz-adv-x="1433" 
d="M1417 358q19 0 26 -3.5t30 -24.5v-4q0 -24 -31 -39q-15 -6 -88 -15q-62 0 -168 -4q-8 -4 -14 -10.5t-8 -11t-5.5 -14t-5.5 -13.5q-39 -83 -82 -139q-48 -63 -98 -70q-58 35 -58 111q-85 -85 -134 -131.5t-111.5 -93.5t-104.5 -60q-5 -1 -17 -3.5t-18 -2.5
q-49 0 -81.5 36.5t-32.5 86.5q0 16 2 24q16 117 49 209l166 478q28 72 33 112q1 6 2.5 17.5t-5.5 22.5t-22 11q-17 0 -57 -22q-60 -40 -86 -66q-148 -121 -287 -336q-79 -120 -172 -313q-31 -80 -70 -106q-2 0 -10.5 -3.5t-13.5 -3.5q-9 0 -27 9q-1 2 -5 9t-5 11
q-6 12 -6 37q0 30 6 57q45 217 145 490t207 477q9 19 43 72q19 27 49 24q33 -11 27 -49q-35 -60 -53 -92q-71 -136 -153 -337.5t-124 -346.5q-6 -13 -10 -62q10 15 86 144q144 226 295 360q25 24 104 80q86 55 140 55q18 0 26 -4q58 -23 58 -106q0 -58 -25 -125
q-44 -130 -102 -293q-96 -277 -115 -373q-6 -21 -6 -45q0 -41 30 -51q21 -8 68 21.5t98.5 75.5t108.5 103.5t95 99t61 69.5v63q15 45 59 77.5t84 29.5q46 -6 65 -45q5 -11 11.5 -33.5t7.5 -26.5q6 -6 18 -6q6 0 16 2t15 2q124 4 180 8zM1059 350q12 -4 16 -5.5t10 1.5t7 14
l-5 7h-6q-15 0 -22 -17zM1001 121q56 74 74 131q-10 19 -35 10q-2 -10 -19 -56.5t-20 -84.5z" />
    <glyph glyph-name="N_u.liga" unicode="Nu" horiz-adv-x="1531" 
d="M1556 338q11 -11 11 -37q-1 -2 -1.5 -5.5t-1 -5.5t-1.5 -3q-39 -57 -82 -104t-121 -109q-51 -30 -82 -35q-8 -4 -27 -4q-39 0 -69.5 31.5t-44.5 95.5q-5 20 -9 76q-13 -1 -22 -7t-19.5 -19.5t-13.5 -16.5q-39 -40 -53 -49.5t-59 -24.5q-37 9 -47 17t-35 48
q-64 -71 -107 -112q-44 -44 -94 -64q-25 -10 -53 -10q-40 0 -69.5 25.5t-39.5 70.5q-3 13 -8 74q-7 155 43 397q2 9 7.5 36.5t7 36.5t6 37t3.5 38t0 39q0 33 -10 47q-12 4 -18 4q-18 0 -47 -25q-85 -63 -181 -166q-159 -189 -278 -450q-1 -3 -7 -17t-8 -18t-7.5 -15.5
t-9.5 -17t-9.5 -14t-11.5 -14.5t-13 -11q-2 -1 -10.5 -3.5t-11.5 -2.5q-11 0 -27 8q-18 15 -18 45q0 7 4 35q9 38 30 136t35 151q39 154 95 306.5t139 348.5q7 29 29 49q8 1 15.5 4t8.5 3q9 0 33 -15q4 -6 4 -18q0 -17 -16 -49q-10 -26 -60.5 -154.5t-74.5 -198.5
q-21 -56 -84 -266q-7 -19 -11 -53l-4 -6l1 -1q1 4 3 7q9 7 17.5 17.5t13.5 18.5t12 21.5t11 20.5q118 193 303 352q46 43 96 66q32 14 51 14q66 0 88 -76q10 -31 10 -78q0 -25 -2 -37q-4 -22 -22.5 -124t-26.5 -158q-1 -7 -7.5 -54.5t-8.5 -65t-4.5 -52.5t-1.5 -62
q0 -74 32 -106q43 0 95 45q68 62 131 145q58 80 110 154q32 13 56 4q14 -14 14 -33q0 -6 -3 -16t-3 -12q-19 -52 -35 -119q-9 -8 4 -21q16 12 30.5 26t31.5 33t26 29.5t29.5 36t25.5 31.5q17 22 52 78.5t59 81.5q8 4 23 4q27 0 34 -31q4 -2 4 -10q0 -11 -12 -31
q-57 -117 -76 -221q-6 -30 -6 -49q0 -53 31 -82q11 -8 25 -8q9 0 49 16q63 35 131 121q12 13 24 28t25.5 33.5t21.5 28.5q30 7 43 -4z" />
    <glyph glyph-name="O_l.liga" unicode="Ol" horiz-adv-x="1361" 
d="M952 -240q-9 0 -32 19q-9 36 -9 49q0 11 3.5 30t3.5 21q9 49 22.5 107.5t24 96.5t30.5 110t27 100q9 39 22.5 99.5t14.5 64.5q-6 -10 -41 -49q-79 -105 -148 -164q-30 -32 -94 -78q-86 -51 -168 -51q-66 0 -123 32q-8 -12 -29.5 -32t-29.5 -31q-58 -55 -131 -94
q-40 -21 -80 -29q-10 -2 -29 -2q-101 0 -163 96q-35 49 -48 119q-14 93 -14 154q0 51 12 141q44 290 177 498q64 108 145 178q95 82 203 82q41 0 61 -6q66 46 111 57q8 2 20 2q51 0 82 -43q49 -68 49 -231q0 -172 -45 -295q-76 -243 -205 -439q-3 -6 -18.5 -26t-20.5 -27
q47 -20 89 -20q35 0 69 15t88 50q83 64 189 209q180 265 272 518q34 77 37 82q20 32 51 25q35 -9 25 -47q-3 -31 -17 -62q-83 -170 -125 -311q-120 -377 -200 -762q-10 -39 -17 -96q-4 -44 -24 -56q-8 -4 -17 -4zM475 276l17 21q189 291 237 580q14 96 14 161q0 51 -4 76
q-7 57 -43 76q-19 4 -36.5 -2.5t-26 -14t-27.5 -26.5q-55 -61 -84 -146q-82 -182 -94 -397q0 -16 -1 -44t-1 -42q0 -159 49 -242zM197 39q51 6 117 55t106 109q-84 121 -84 321q0 133 36 280t101 283q4 13 14.5 31t14.5 29q-4 2 -19 2q-22 0 -30 -2q-86 -33 -152 -109
q-75 -83 -143 -219q-121 -270 -115 -555q0 -136 82 -207q28 -18 72 -18z" />
    <glyph glyph-name="O_s.liga" unicode="Os" horiz-adv-x="1861" 
d="M1268 -293q-17 0 -45 8q-28 12 -41.5 35.5t-7.5 50.5q7 36 36 93q15 35 42 70t48 56.5t58 55.5q28 31 53 53q5 13 6.5 25t0.5 30.5t-1 22.5q0 11 -1 37t-1 43q-16 -13 -34.5 -36t-26.5 -30q-126 -155 -267 -248q-128 -88 -251 -88q-31 0 -58 6q-4 0 -10 -2t-12 -2
q-7 -4 -26 -18.5t-32 -22.5q-97 -76 -229 -116q-49 -15 -94 -15q-21 0 -86 9q-264 49 -322 294q-18 63 -18 144q0 74 24 172q25 155 111 303q75 121 184 184q26 20 58 39q50 149 98 221q112 199 305 232l3 1q2 1 5 3q188 3 293 -180q62 -117 78 -222q12 -106 12 -159
q0 -203 -64.5 -395t-187.5 -355q-18 -14 -16 -33q72 0 131 29q80 42 172 123q106 95 182 201q43 60 64 114q-6 87 -6 90q-5 42 16 103q25 45 64 45q14 0 22 -4q17 -8 33 -43q0 -100 -29 -172q-10 -35 -10 -39q1 -16 3 -96.5t11 -120.5q1 0 5.5 -2t5.5 -2q10 0 21.5 7.5
t12.5 8.5q117 69 246 127q4 2 13.5 6t13.5 5.5t12 4t13.5 3t12.5 0.5t15 -1q15 -12 22 -26q-6 -9 -6 -21q-5 -9 -13 -15.5t-14 -9.5t-18 -8t-18 -8q-150 -73 -250 -133q-54 -26 -72 -49q-11 -14 -16 -57q-16 -100 -39 -150q-62 -138 -184 -176zM729 -18q61 44 133 155
q67 102 109.5 232.5t58.5 263.5q10 133 10 151q0 113 -30 199q-46 125 -107 191q-60 63 -141 63q-45 0 -100 -25q-70 -36 -113 -90q-74 -89 -117 -196q-11 -27 -4 -41q14 -6 39.5 -7.5t47 -8t36.5 -25.5q4 -8 4 -19q0 -18 -14 -32q-19 -5 -54 1.5t-47 6.5q-26 0 -49 -17
q-5 -10 -8 -30q-14 -82 -14 -146q0 -75 16 -184q27 -187 162 -326q78 -88 182 -116zM369 -205q149 0 286 121l-65 43q-92 62 -133 121q-86 110 -130 248.5t-38 283.5q1 8 6 131q-52 -28 -100 -90q-122 -166 -162 -415q-6 -75 -6 -76q0 -32 8 -94q24 -118 88 -183.5
t190 -83.5q30 -6 56 -6zM1272 -203q13 0 39 21q84 87 84 176q-111 -96 -135 -193q4 -4 12 -4z" />
    <glyph glyph-name="P_l.liga" unicode="Pl" horiz-adv-x="1040" 
d="M-74 -229q-4 0 -24 10q0 1 -3.5 6t-4.5 8q-3 12 -3 23q0 9 5 49l86 373q-33 59 -33 94q0 24 16 47t58 63q30 116 51 195q66 247 166 465q2 3 15 26.5t21 34.5q14 28 35 31q33 -3 39 -41q-92 -174 -155 -371q9 1 15.5 5.5t9 8t6 10.5t5.5 9q75 121 170 209q44 44 113 84.5
t111 44.5q58 4 87 -17t40 -71q4 -36 4 -57q0 -35 -8 -62q-19 -72 -21 -88q-4 -12 -31 -80q55 27 131 103q17 23 50 69.5t51 69.5q9 14 24.5 43.5t30 50.5t33.5 33q6 4 16 4q20 0 27 -20q4 -4 4 -17q0 -11 -4 -23t-11.5 -26.5t-9.5 -19.5q-48 -123 -139 -410
q-21 -61 -39.5 -123t-37 -135t-28.5 -117.5l-30 -133.5t-27 -120q-2 -8 -5.5 -25t-8 -29.5t-12.5 -21.5q-8 -6 -23 -6q-21 0 -35 33q11 62 25.5 127.5t38.5 165t31 131.5q19 83 71.5 246t59.5 188q-66 -62 -142 -115q-104 -68 -116 -77q-13 -19 -80 -125q-54 -80 -107 -133
q-152 -162 -330 -154q-4 0 -13 -3t-15 -3q-15 -21 -51.5 -167.5t-38.5 -152.5q-4 -11 -8 -36.5t-11 -43t-22 -28.5q-11 -8 -19 -8zM178 530q89 22 205 69t182 89q25 40 31 60q28 51 49 104q26 67 35 133q2 12 2 33q0 35 -18 53q-20 8 -33 8q-26 0 -66 -22q-55 -27 -141 -109
q-146 -157 -246 -405q-2 -1 -2 -3t1 -5.5t1 -4.5zM137 285q15 0 35 4q90 22 172.5 94t130.5 168q-6 -2 -57.5 -19.5t-64 -22t-54 -19t-61.5 -23t-50.5 -21.5t-56.5 -26q-20 -50 -39 -123q19 -12 45 -12z" />
    <glyph glyph-name="Z_I.liga" unicode="ZI" horiz-adv-x="1394" 
d="M-256 -1235q-52 0 -111 16q-87 26 -133.5 96.5t-46.5 153.5q0 6 6 54q20 91 76 172q72 105 197 208q160 125 479 312q58 33 170.5 98t169.5 98q15 8 43.5 27t42.5 27q0 127 -70 184q-25 10 -67 10q-62 0 -129 -41q-7 -4 -22 -14.5t-26.5 -15.5t-25.5 -5q-25 3 -35 29
q0 14 2 16q15 32 49 86q10 16 43 67.5t48 75.5t40.5 66t45 77.5t36.5 70.5q83 153 115 282q12 55 8 86q-4 30 -24 48q-1 0 -12 3t-17 3q-21 0 -64 -15q-98 -40 -165 -88q-183 -124 -291 -315q-2 -3 -12.5 -21t-16.5 -26q-2 -3 -7.5 -5.5t-6.5 -4.5q-3 0 -6 -2.5t-4 -2.5
q-27 0 -37 31q0 18 4 23q56 126 172 245q116 128 280 207q65 35 140 47q60 6 97 -24.5t42 -89.5q2 -12 2 -37q0 -53 -16 -100q-28 -116 -95 -244q-15 -26 -42 -73.5t-49.5 -86.5t-43.5 -74q-10 -22 -33 -58.5t-28 -45.5q4 -6 18 -6q5 0 16 2.5t15 3.5q48 6 49 6
q123 0 174 -135q3 -9 11.5 -32t11.5 -36l12 -6q6 0 25 14q145 105 307 281q22 28 49 55q15 9 29 9q13 0 24 -11q8 -12 8 -22q0 -9 -3 -20t-6 -18t-9 -19t-8 -17q-41 -83 -52 -139q-8 -70 -8 -80q0 -13 2 -21q3 -17 23 -24q38 8 102 61q26 24 47 48.5t48.5 62.5t35.5 49
q1 1 9.5 11t11.5 13t11 9.5t15.5 10t16.5 5.5q13 0 22 -8.5t11 -22.5q0 -10 -2 -16q-3 -5 -25.5 -36t-30 -41t-28.5 -37t-34 -41t-32.5 -34.5t-38.5 -36t-39 -28.5q-50 -41 -106 -41q-18 0 -39 6q-58 32 -58 117q0 13 3.5 42t3.5 42q-2 4 -7 4q-4 0 -8 -4
q-108 -101 -270 -221q-4 -49 -16 -139q-16 -149 -91 -322q-123 -291 -286 -457q-125 -128 -258 -209q-132 -80 -285 -98q-14 -4 -43 -4zM1235 625q-27 0 -41 32q-6 63 53 82q28 -5 41 -37v-8q0 -42 -41 -65q-2 0 -6 -2t-6 -2zM-272 -1157q126 -8 274 70q109 58 205 147
q314 289 424 768q9 50 6 96q-6 2 -14 2q-5 0 -12.5 -3.5t-10.5 -4.5q-62 -36 -253 -148.5t-296 -172.5q-120 -70 -280 -197q-106 -85 -170 -178q-59 -86 -70 -172q-6 -66 25.5 -119t91.5 -76q32 -12 80 -12z" />
    <glyph glyph-name="Z_o.liga" unicode="Zo" horiz-adv-x="1212" 
d="M-352 -973q-43 0 -92 17t-76 53t-27 84q0 25 4 39q13 65 43 114q77 135 197 238q123 98 385 262q56 36 264 168q-11 44 -57 55q-54 6 -58 6q-62 0 -108 -30q-30 -27 -57 -33q-22 7 -23 8l-12 17v18q7 21 43 57q89 100 196.5 243.5t165.5 244.5q66 109 88 192q16 54 19 97
q0 3 2 8.5t2 9.5q0 38 -25 66q-24 12 -53 12q-21 0 -68 -15q-214 -86 -329 -280q-2 -3 -12 -22t-21 -25q-12 -9 -33 -2q-18 6 -22 28q50 140 192 253t307 141q77 -15 107.5 -53t30.5 -115q0 -49 -29 -138q-21 -70 -84 -186q-74 -126 -256 -362q-1 -1 -9 -10t-10.5 -12.5
t-6 -12t-3.5 -17.5q90 -15 123 -31q43 -22 66 -63q122 54 317 230q2 7 2 24t4 31t17 24q42 27 73 27q17 0 25 -2q15 -4 34.5 -21t30.5 -22q58 0 125 5t105 5q42 0 69 -2q31 -19 31 -39q0 -9 -14 -26q-68 -7 -149 -10.5t-150 -10.5q-11 -73 -29 -126.5t-56 -101t-95 -71.5
h-13q-41 0 -59 25q-19 28 -16 69q3 30 14 64q-3 1 -6.5 3.5t-5.5 2.5l-4 -4q-175 -125 -226 -160v-39q8 -128 -59 -268q-120 -265 -320 -442q-158 -135 -336 -181q-50 -8 -73 -8zM743 39q77 69 99 156q4 16 4 26q0 19 -19 41q-28 -48 -39.5 -70t-26 -65.5t-18.5 -87.5z
M-322 -899q114 21 218 88q312 207 446 590q28 72 20 133h-4q-24 0 -49 -21q-45 -29 -198 -126.5t-234 -151.5q-64 -44 -162 -127q-92 -77 -159 -205q-25 -52 -25 -90q0 -27 8 -51q54 -46 139 -39z" />
    <glyph glyph-name="c_j.liga" unicode="cj" horiz-adv-x="958" 
d="M764 539q-22 2 -34 11t-19 32q0 41 37 65q8 6 22 6q17 0 25 -6q13 -8 22 -35q-8 -42 -19 -54q-12 -13 -34 -19zM-33 -907q-63 0 -106 30q-87 55 -97 146q0 6 -1 20t-1 21q0 41 11 78q49 180 156 302t276 195q148 65 309 68q13 0 21 4q7 3 12.5 10.5t7.5 13.5t5.5 16
t4.5 13q14 52 42.5 154.5t41.5 154.5q-12 -8 -74 -55t-119.5 -89t-130.5 -81.5t-120 -46.5q-24 -6 -47 -6q-57 0 -102 24t-70 68q-19 40 -19 88q0 26 10 76q49 165 152 242q56 34 100 34q18 0 39 -6q57 -28 66 -98v-25q0 -46 -25 -69q-18 -6 -28 -6q-20 0 -35 24q0 9 4 29
t4 29q0 28 -27 47q-11 -2 -21 -6t-21.5 -12.5t-17 -13t-19 -18t-17.5 -16.5q-39 -42 -64.5 -102.5t-25.5 -116.5q0 -35 28 -67.5t78 -32.5t133.5 43t154.5 94.5t150.5 111t104.5 74.5q13 13 23 15h10q19 0 29.5 -8t7.5 -27q-70 -238 -127 -465q57 -19 81 -28t62 -31t62 -50
q8 -10 23.5 -25t25.5 -27.5t14 -27.5q0 -30 -18 -43q-6 -4 -21 -4q-12 0 -20 6q-106 138 -234 148q-2 -6 -15 -37t-18 -47q-81 -220 -188 -385q-68 -118 -174 -205q-132 -102 -246 -102zM-39 -834q65 0 152 54q85 52 149 135q59 73 125 201q89 168 139 315q-16 4 -45 4
q-76 0 -153 -25q-337 -107 -453 -393q-31 -70 -31 -137q0 -48 15 -82q26 -72 102 -72z" />
    <glyph glyph-name="e_j.liga" unicode="ej" horiz-adv-x="1136" 
d="M860 705q-14 0 -22 2q-29 20 -29 49q3 31 29 57q27 27 57 21q30 0 41 -31q0 -3 2 -7.5t2 -7.5q0 -20 -33 -61q-19 -22 -47 -22zM141 -662q-43 -1 -73.5 26t-36.5 71v18q0 21 4 53q16 67 48 125.5t83 128.5q191 253 475 428q23 16 64 39q35 99 32 213q-10 7 -28 -5
t-83 -67q-121 -104 -233 -194q-22 -16 -58 -45.5t-50 -40.5q-52 -38 -123 -65q-37 -13 -64 -13q-65 0 -107.5 44t-47.5 104q-2 16 -2 53q0 51 12 86q38 105 106 192q54 46 88 62q28 14 50 14q30 0 57 -18q35 -26 35 -74q0 -23 -2 -33q-9 -56 -49 -102q-39 -49 -74.5 -78.5
t-87.5 -48.5l-53 -25q0 -23 1 -36t7.5 -27.5t19.5 -22.5q15 -10 39 -10q36 0 84 25q56 26 137 96q100 86 181 149q47 43 145 117q14 13 45 33q45 25 70 25q59 0 65 -86q2 -16 2 -50q0 -39 -6 -57q-10 -40 -12 -72q22 10 48 19.5t70.5 23.5t47.5 15q47 14 145 34
q30 -3 44 -13t13 -36q-4 -8 -9 -14t-12 -9t-11.5 -4.5t-14.5 -3.5t-14 -3q-133 -21 -289 -84l-35 -21q-15 -17 -24 -61q-88 -280 -291 -549q-92 -124 -225 -197q-56 -29 -103 -29zM49 285q76 35 131 108q23 37 23 58q0 16 -4 24q-45 6 -97.5 -63.5t-52.5 -126.5zM147 -584
q102 27 197 125q17 15 35 36t27.5 33.5t31.5 43t27 37.5q131 201 209 426q-271 -173 -436 -393q-79 -105 -109 -191q-21 -43 -16 -76q0 -38 34 -41z" />
    <glyph glyph-name="f_f.liga" unicode="ff" horiz-adv-x="727" 
d="M199 -358q-13 0 -29 16q-8 11 -8 25q0 10 8 38q75 295 131 508q54 216 123 416q0 1 3.5 11.5t3 14t-4.5 15.5q-16 2 -47 2t-93 -8.5t-89 -9.5q-8 -5 -14 -13t-8.5 -13t-7 -17t-5.5 -15q-59 -164 -129 -422q-21 -71 -58 -208t-55 -201q-1 -3 -3 -10.5t-3 -11.5t-3 -10.5
t-4 -10t-5.5 -8.5t-7 -8t-8.5 -6t-11 -5q-17 0 -26.5 8t-18.5 27q12 56 43 162.5t39 138.5q15 49 41.5 148.5t40.5 148.5q30 103 94 309q-73 -3 -252 -39q-27 2 -35 31q0 25 14.5 37.5t39.5 19.5q88 17 129 21q21 4 131 20q11 5 17 14t9.5 21.5t5.5 16.5q104 212 132 264
q52 103 145 164q40 30 86 41q12 4 37 4q33 0 76 -17l73 -45q14 8 45.5 34t59 39t59.5 13q44 -3 78 -19.5t57.5 -46t38.5 -60.5t29 -74q-15 -31 -22 -35.5t-35 -1.5q-11 8 -18.5 20.5t-15 31t-11.5 26.5q-32 71 -107 77q-45 -9 -98 -69q16 -82 24 -117q-3 -46 -35 -51
q-12 1 -20 4.5t-13 11.5t-7.5 14t-5.5 18t-5 17q-14 0 -28 -24q-14 -28 -42.5 -87.5t-41.5 -88.5l-9 -27q10 -20 31 -16l209 24h16q32 0 50 -18q11 -11 4 -33q-17 -28 -58 -31q-7 -1 -78 -7t-108 -11q-65 -7 -107 -17q-21 -44 -59 -161q-72 -228 -211 -772q-13 -64 -18 -80
q-11 -34 -37 -47h-8zM272 760q32 0 74 10q6 1 53 3t74 13q79 204 172 351q-45 51 -102 45q-54 0 -94 -37q-7 -7 -21.5 -20.5t-24.5 -24t-18 -21.5q-92 -132 -154 -307q5 -4 5 -8q12 -4 36 -4z" />
    <glyph glyph-name="f_f_i.liga" unicode="ffi" horiz-adv-x="1153" 
d="M1163 350q23 0 29.5 -21.5t-2.5 -33.5q-44 -72 -108.5 -137.5t-131.5 -106.5q-72 -37 -139 -37q-56 1 -84.5 47t-28.5 113q0 25 4 39q14 91 48 164l36 96q2 4 7.5 14t7 14.5t3.5 16t-3 17.5q-129 -4 -291 -17q-6 -4 -10 -11.5t-6 -13.5t-5 -17t-4 -15
q-18 -58 -100 -345.5t-100 -346.5q-2 -6 -5 -18t-5 -19t-7 -15t-12 -14q-12 -12 -25 -12q-12 0 -26 14q-6 10 -6 31q0 17 12 57q12 46 86.5 308.5t87.5 308.5q25 81 27 106q-279 -7 -289 -14q-8 -6 -14 -15t-8 -16t-5 -19l-4 -16q-34 -103 -110 -383.5t-105 -406.5
q-2 -18 -14 -49q-6 -25 -35 -25q-23 3 -39 33q10 75 116 454q9 32 14 50t14 48.5t16 57.5q31 138 69 279q-12 4 -41 4q-19 0 -51 -3t-47 -3q-5 0 -14.5 1t-14.5 1q-28 17 -28 38q0 13 12 31q38 15 112 16t97 5q8 11 14.5 25.5t9.5 24t8 29t7 25.5q64 184 131 289
q85 136 199 203q8 3 21.5 9.5t25 11.5t22.5 9q34 11 70 11q46 0 94 -25q6 -3 57 -39q80 53 109 66q49 28 104 28q70 0 150 -57q51 -44 41 -88q-13 -30 -41 -23q-8 2 -14 7t-12 13t-9 11q-52 55 -115 55q-31 0 -71 -16q-57 -26 -76 -55q-7 -13 -3 -36t-3 -30
q-9 -15 -34.5 -16t-33.5 -6q-53 -75 -101 -201.5t-54 -200.5q38 0 73.5 1.5t69.5 3.5t49 3l82 13q50 0 78 -33q8 -24 8 -37q0 -21 -16 -61q-51 -121 -64 -162q-1 -4 -4 -12.5t-4 -12.5h-2q-33 -93 -33 -139q0 -17 2 -25q6 -31 18.5 -44t37.5 -13q60 0 141 68q88 88 115 127
q9 11 32 43q16 22 41 22zM436 606q16 42 45 124t43 120q28 75 117 237q-24 49 -98 60q-94 -22 -160 -88q-68 -62 -113 -139q-71 -122 -129 -308q0 -4 2 -11.5t2 -10.5q134 0 291 16zM950 776h11q15 0 23.5 -9t14.5 -30q-4 -53 -55 -63q-46 19 -37 61q7 35 43 41z" />
    <glyph glyph-name="f_t.liga" unicode="ft" horiz-adv-x="843" 
d="M-145 -420q-20 12 -24.5 17.5t-12.5 27.5q1 28 5 62t7.5 52t13 64t11.5 56q111 482 217 813q1 3 20 59q-44 -1 -111 -9.5t-71 -8.5h-23q-45 0 -45 26q-3 24 22 35.5t54 13.5q65 8 131 15q72 5 76 18q50 133 82 197q79 171 233 325q100 103 215 125q20 5 47 5
q68 0 121.5 -37.5t83.5 -102.5q8 -24 8 -30q0 -27 -28 -41h-8q-19 0 -33 18q-7 10 -10 23q-50 90 -138 90q-28 0 -77 -17q-25 -8 -82 -49q-98 -76 -179 -203q-69 -111 -129 -247q-4 -9 -9.5 -30.5t-8.5 -25.5q245 15 377 41q11 19 21.5 43.5t17.5 34.5t20 16h13q15 0 26 -14
l3.5 -7t2.5 -7q0 -9 -2 -16.5t-6.5 -20t-7.5 -25.5q14 0 66.5 5.5t58.5 5.5q85 7 178.5 17.5t157.5 16.5h22q39 0 53 -18q12 -21 -2 -35q-6 -8 -17 -13t-18.5 -6t-24 -2.5t-22.5 -2.5q-351 -38 -485 -46q-16 -27 -33 -61q-19 -47 -55.5 -135t-64.5 -160t-50 -139t-33 -105
t-22 -96.5t-12 -109.5q-4 -42 4.5 -80t32.5 -49q36 -12 98 49t121 149q24 36 80.5 118.5t85.5 125.5q10 16 16.5 24.5t18 17.5t26.5 13q27 0 35 -28q-27 -53 -39 -66q-150 -228 -209 -305q-139 -178 -229 -178q-49 0 -88 53q-35 57 -35 151q0 87 36 217.5t73.5 226.5
t111.5 275q5 12 15.5 38t17.5 42q-41 -5 -365 -33q-3 -10 -14 -41.5t-18 -48.5q-121 -382 -193 -704q-8 -38 -26.5 -124t-26.5 -130l-13 -96q-14 -25 -36 -19z" />
    <glyph glyph-name="g_j.liga" unicode="gj" horiz-adv-x="1761" 
d="M1384 756q-47 17 -55 57q5 20 11 32.5t21 22.5t38 9q53 -27 43 -82q-17 -32 -58 -39zM1800 334q4 -12 4 -17q0 -19 -18 -32q-29 -7 -89.5 -9t-90.5 -8q-152 -37 -174 -45q-84 -30 -164 -67q-6 -6 -11 -12t-8 -10t-7 -11.5t-5 -9.5t-4.5 -11t-3.5 -10q-92 -267 -264 -516
q-100 -142 -195 -207q-39 -27 -72 -43q-18 -11 -36 -14q-12 -2 -33 -2q-59 0 -93.5 40t-27.5 101q9 59 35 117q75 172 217 317q142 151 360 281q1 1 26.5 17t39.5 32q2 8 28.5 99t30.5 145q-16 -2 -39 -10q-69 -38 -203.5 -110t-240.5 -131t-199 -116q-14 -8 -41 -26
q-2 -7 -18 -54t-23 -71q-89 -256 -250 -449q-47 -61 -94 -100q-59 -58 -112.5 -83.5t-145.5 -43.5q-9 3 -28.5 7t-28.5 7q-84 36 -84 113q0 18 2 28q19 83 61 144q44 68 115 139q105 105 305 256q30 22 87.5 60.5t82.5 56.5q35 26 58 41q4 22 17.5 74t20 91t5.5 78h-19
q-27 0 -47 15q-11 -12 -38.5 -41.5t-41.5 -46.5q-5 -5 -24.5 -25t-27 -27t-24.5 -23.5t-27.5 -26t-26 -23t-29.5 -24.5t-29 -21q-53 -40 -109 -54q-15 -6 -35 -6q-14 0 -22 2q-57 13 -60 66q-4 16 -4 47t6 43q41 220 232 342q56 35 113 35q63 0 124 -49q7 -5 18.5 -14.5
t12.5 -10.5q22 11 57 50t64 48q47 -3 51 -51q0 -31 -6 -65l-49 -305q10 -7 12 -7q6 0 16 7.5t11 7.5q320 173 639 348q30 15 51 22q3 1 11.5 4t11.5 3q22 0 34 -21q6 -24 6 -43q0 -30 -41 -191q-3 -12 -5 -19.5t-5 -19.5t-6 -22q12 -4 14 -4q6 0 15.5 4.5t13.5 5.5
q181 71 324 84q29 6 90 6q37 0 57 -26zM369 436q3 2 4.5 5t2 7t1.5 5q-19 44 -84 55h-14q-41 0 -74 -23q-174 -113 -199 -327q0 -3 8 -19q50 7 115 56q99 77 240 241zM502 424q6 8 6 35q-26 -15 -6 -35zM1116 25q3 4 5.5 10.5t6.5 19.5t9 25q-38 -19 -76.5 -44.5
t-58.5 -41.5t-60 -49q-169 -136 -268 -295q-45 -76 -74 -156q-10 -40 -10 -51q0 -21 10 -39q15 -10 33 -10q11 0 41 10q52 29 74 49q74 70 96 98q161 197 272 474zM395 -55q11 23 0 32q-1 0 -7.5 -3t-10.5 -5q-181 -119 -369 -286q-113 -102 -158 -197q-28 -54 -28 -86
q0 -21 4 -29q27 -24 61 -24q15 0 47 12q107 35 189 127q175 192 272 459z" />
    <glyph glyph-name="h_p.liga" unicode="hp" horiz-adv-x="1280" 
d="M1296 342q23 -7 23 -33q0 -17 -8 -24.5t-27 -12.5q-34 -9 -172 -28q-71 -8 -121 -21q-8 -10 -31 -43t-28 -39q-43 -52 -79.5 -87.5t-82.5 -61.5q-42 -25 -92 -25q-25 0 -72 15q-12 -30 -24 -66q-95 -327 -113 -457q-4 -44 -43 -57h-14q-18 0 -23.5 9t-5.5 30q6 53 18 102
q127 502 183 695q-117 -117 -148 -134q-36 -20 -76 -20q-45 0 -79.5 29t-49.5 82q-4 32 -4 65q0 34 4.5 100t4.5 76q-75 -43 -140 -133q-23 -28 -53 -87t-41 -75q-15 -12 -33 -12q-9 0 -20 8q-3 3 -12 21v14q0 21 8 57q78 315 178 564q14 36 44.5 117t47.5 124
q46 115 80 160q10 2 24 2q12 0 27 -10q6 -9 6 -21q0 -13 -16 -41q-103 -237 -240 -635q-1 -3 -6.5 -17t-6 -17t-3 -17.5t1.5 -19.5q14 10 50.5 39t64 45t59.5 22h12q35 0 45 -35q4 -8 4 -28q0 -23 -7 -91.5t-7 -105.5q0 -43 6 -61q20 -48 58 -45q31 8 75.5 46.5t101 97
t81.5 79.5q27 89 49 154q13 41 23 55.5t32 17.5q15 0 21.5 -1t12 -8.5t5.5 -23.5q-3 -16 -34 -116.5t-32 -112.5q60 69 93.5 103t77 60t85.5 26q18 0 33 -3q66 -20 66 -98q0 -41 -25 -121q88 9 150 17q94 12 114 12zM924 285q44 61 57 139q0 13 -8.5 24.5t-22.5 16.5
q-28 0 -112.5 -83.5t-130.5 -168.5q28 14 217 72zM727 51q63 31 156 148q-72 -5 -172 -60q-15 -10 -34.5 -38.5t-14.5 -51.5q10 -10 24 -10q5 0 41 12z" />
    <glyph glyph-name="i_p.liga" unicode="ip" horiz-adv-x="1144" 
d="M162 629q-27 3 -41 35q-4 6 -4 18q0 13 8 29t31 26q8 2 18 2q28 0 45 -20q0 -53 -7 -64t-50 -26zM1161 342q21 -7 21 -33q0 -17 -8 -24.5t-27 -12.5q-228 -27 -301 -41q-41 -62 -58 -81q-79 -109 -159 -150q-48 -23 -90 -23q-27 0 -74 15q-19 -40 -25 -66
q-38 -155 -56 -236t-25 -123t-15 -77q0 -2 -2 -10t-3 -10.5t-3 -9t-4 -9.5t-5.5 -8t-7.5 -8t-10 -6q-6 -2 -16 -2q-30 0 -33 38q0 59 8 103q40 237 135 586q-79 -85 -127 -127q-76 -67 -167 -90q-37 -2 -72.5 5.5t-64.5 29.5t-38 55q-14 51 -14 86q0 30 12 92
q28 138 119 276l15 17q3 0 8 1t8 1q33 0 41 -35q0 -14 -4.5 -25t-15 -27.5t-13.5 -21.5q-84 -148 -84 -299q3 -47 16 -63q8 -9 19 -15q4 0 11.5 -2t10.5 -2q10 0 21 2t18 4t18 7t15.5 7t16.5 9t14 8q61 40 287 275q37 123 79 251q13 40 23.5 54.5t32.5 17.5q13 0 19 -1
t12 -9t6 -23q-3 -17 -35 -131t-33 -127q66 75 133 131q47 41 107 41q23 0 37 -2q67 -21 67 -112q0 -35 -14 -93zM778 293q34 48 47 123q0 31 -30 41q-28 0 -107 -75.5t-125 -160.5q16 8 41 17.5t47 16t62 18.5t65 20zM573 59q69 34 129 113q-73 -8 -137 -43l-9 -7
q-9 -6 -14.5 -11t-13 -13.5t-10 -18.5t-0.5 -20q10 -10 25 -10q5 0 30 10z" />
    <glyph glyph-name="j_j.liga" unicode="jj" horiz-adv-x="884" 
d="M129 784q-28 3 -44 19t-13 39q-3 29 12.5 50.5t46.5 25.5q22 -6 27 -15q4 -2 12.5 -11.5t11.5 -12.5q0 -49 -6.5 -61t-46.5 -34zM612 778q-47 0 -65 49q5 42 33 66q32 0 45.5 -7t19.5 -26q0 -4 1 -11t1 -11q0 -25 -35 -60zM-612 -985q-41 0 -74 16q-79 47 -90 142
q0 7 -1 20.5t-1 20.5q0 68 22 129q57 163 191 297q138 135 342 301q93 76 127 106q9 15 15.5 33t9.5 29.5t7.5 32.5t6.5 30q52 245 67 330q4 16 6.5 25t8 20.5t13.5 18t19 9.5q24 -3 39 -28q13 -33 13 -39q0 -14 -37 -154q-19 -59 -49 -207q153 105 270 213q60 55 229 215
q14 7 25 7q24 0 37 -23q12 -30 12 -70q0 -12 -3 -35t-3 -28q-1 -5 -12.5 -71.5t-18.5 -100.5q-3 -27 -16 -100q73 57 106 77q9 5 52.5 32.5t61 37.5t51 26t60.5 25q30 -2 44 -30v-11q0 -32 -35 -55q-29 -17 -101.5 -56.5t-111.5 -62.5q-86 -52 -148 -104q-57 -244 -65 -287
q-48 -212 -152 -418q-47 -102 -117 -172q-79 -73 -174 -67q-74 3 -114 82q-29 59 -29 131q0 28 12 86q24 134 133 286q178 241 377 383q4 3 51 39q13 46 23 99.5t22 128.5t19 116q-23 -21 -58.5 -55.5t-63 -59.5t-52.5 -46q-84 -75 -176 -146q-6 -5 -41 -32.5l-49 -38.5
t-39.5 -33.5t-44.5 -42.5q-5 -21 -17 -61.5t-18 -63.5q-49 -178 -146 -412q-82 -193 -186 -307q-81 -91 -182 -123q-16 -4 -47 -4zM27 -819q116 19 188 155q54 94 82 181q84 208 131 456q-18 -16 -45 -36q-186 -149 -332 -361q-48 -76 -74 -143.5t-26 -147.5q13 -62 24 -78
q23 -26 52 -26zM-608 -887q80 0 147 74q98 104 166 246q71 148 125 319q4 12 13.5 39t17.5 55.5t14 61.5q-39 -31 -55 -47q-15 -13 -124 -107t-165 -145q-82 -70 -145 -172q-28 -37 -64 -111q-18 -59 -18 -98q0 -49 14 -78q20 -37 74 -37z" />
    <glyph glyph-name="k_f.liga" unicode="kf" horiz-adv-x="1040" 
d="M1411 1411q90 -40 119 -127q-9 -24 -22 -32t-35 -5q-32 52 -72 79.5t-105 27.5q-56 -3 -122 -66q-63 -62 -74 -76q-24 -31 -46.5 -71.5t-32 -61t-34.5 -81t-29 -70.5q10 -10 25 -10q4 0 12 1t11 1q33 3 98 10t98 10q5 0 14.5 1t14.5 1q38 0 53 -33v-6q0 -14 -9 -23.5
t-22 -11.5q-33 -8 -73 -8l-119 -10.5t-127 -11.5q-9 -5 -15.5 -11t-10.5 -14t-6 -13t-5 -16t-4 -14q-51 -120 -115.5 -348.5t-91.5 -306.5q-17 -46 -47 -161t-55 -175q-1 -4 -4.5 -16.5t-5.5 -18t-6 -15t-10.5 -15.5t-14.5 -11q-4 -4 -13 -4q-19 0 -30 20q-6 8 -6 27
q0 15 14 57q-1 -1 41 135t85 273t44 139q-18 -19 -80 -98t-68 -86q-73 -73 -118 -100q-59 -33 -133 -39q-125 -3 -195 102q-4 5 -43 76q-9 -1 -15 -5t-8.5 -8t-5.5 -12t-4 -10q-21 -46 -39 -90q-9 -20 -18.5 -30.5t-26.5 -14.5q-12 0 -14 4q-10 5 -23 18v35
q179 587 367 1000q33 80 59 112q20 10 31 10q21 0 35 -26q-16 -49 -55 -136.5t-48 -109.5q-97 -240 -98 -244q-11 -27 -96 -254q6 -2 10 -2q6 0 11 3.5t9 9.5l5 6q11 10 50 44t62 52q37 34 84 47q8 2 25 2q34 0 55 -19.5t25 -56.5q3 -64 -33 -106q-82 -113 -199 -135
q-3 -1 -15 -2.5t-17.5 -2.5t-15 -3.5t-17.5 -6.5t-15 -10q24 -71 60 -112t104 -48q92 5 179 86q56 59 146.5 173t127.5 176q12 18 46 106.5t56 157.5q-6 8 -13.5 12t-10.5 4h-15q-12 -1 -63 -4.5t-76 -3.5q-4 0 -12 -1t-12 -1q-7 0 -31 4q-32 7 -35 31q0 39 49 43
q25 3 80.5 7t81.5 7q74 4 92 10q1 2 24.5 53t52.5 111t69.5 128t72.5 102q66 72 150 112q37 19 84 19q39 0 98 -25zM215 444q-41 -30 -74 -75q146 3 197 153q-9 -2 -19.5 -3.5t-13.5 -2.5q-17 -15 -50 -40.5t-40 -31.5z" />
    <glyph glyph-name="m_j.liga" unicode="mj" horiz-adv-x="1392" 
d="M1188 551q-16 0 -43 12q-15 22 -15 41q0 28 25 53q17 21 39 21q13 0 35 -16q10 -18 10 -46q0 -31 -20 -51q-14 -14 -31 -14zM1090 47q75 -21 126 -57t68 -103q-10 -47 -57 -37q-24 34 -40 53.5t-45.5 37.5t-62.5 18q-4 0 -12 -1t-12 -1q-9 -9 -29 -49q-56 -119 -74 -154
q-94 -186 -270 -336q-76 -69 -147 -84q-16 -6 -46 -6q-53 0 -82 33.5t-28 91.5q5 50 31 103q29 67 96 141q121 144 295 260q41 27 92 49q16 6 47 17t49 18q33 69 57 228l3 18q-32 -20 -93 -76q-96 -96 -211 -170q-58 -37 -116 -57q-24 -9 -49 -9q-34 0 -72 23q-53 29 -59 90
q-2 7 -3.5 35t-9.5 43q-4 4 -10 4t-16 -4t-11 -4q-76 -53 -110 -99l-29 -32q-8 -4 -24 -4q-31 0 -46 36l39 197q-13 10 -32 0q-149 -92 -236 -217q-15 -23 -27 -29q-8 -6 -24 -6q-17 0 -27 10q-8 12 -8 23q0 28 8 47q13 49 70 217q32 100 96 197q30 55 57 69q6 2 17 2
q21 0 33 -10q17 -20 10 -47q-117 -127 -141 -272q21 7 73 49q5 3 24 15t28 17.5t25 13t30 11.5q10 4 33 4q27 0 45.5 -18t21.5 -49q2 -11 2 -24t-1 -30.5t-1 -29.5q17 6 65.5 33.5t78.5 27.5q20 0 36 -8q15 -9 23 -24t9 -26t1 -32q1 -7 2 -25t2.5 -27.5t6.5 -23.5t14 -26
q23 -13 41 -13q19 0 57 17q70 33 184 123q34 28 69.5 61t79 76t66.5 65q3 3 13 13.5t15.5 15.5t15.5 11.5t20 9.5q43 -21 43 -52q0 -16 -2 -24q-1 -5 -31 -178q-8 -49 -22 -105q-3 -27 -2 -45zM934 -100q4 9 10 37q-27 -5 -65 -27q-207 -125 -355 -320q-19 -23 -49 -84
q-14 -28 -14 -49q0 -23 16 -45q8 -2 25 -2q20 0 33 8q46 22 77 47q196 145 322 435z" />
    <glyph glyph-name="s_f.liga" unicode="sf" horiz-adv-x="1187" 
d="M1655 1444q112 -6 147 -107q-14 -58 -55 -53q-17 7 -27 32.5t-10 26.5q-3 1 -9.5 7t-10.5 8q-22 10 -58 10q-23 0 -67 -14q-94 -35 -179 -127q-121 -138 -215 -334q334 27 424 22q12 -6 21 -6q32 -22 20 -51q-2 -1 -6 -4.5t-7 -5.5t-7 -2q-36 -4 -57 -4l-332 -25
q-62 -7 -103 -14q-60 -125 -114 -293q-80 -254 -136 -557q-51 -216 -57 -289q-11 -32 -45 -35q-22 11 -24 13q-14 20 -11 47q2 19 15 71q25 123 116 543q1 4 17 64q-31 -25 -56 -39q-96 -72 -139.5 -101t-146.5 -86q-15 -5 -43 -19t-39 -18q-15 -22 -19 -61
q-11 -118 -82 -233q-75 -118 -163 -195q-118 -99 -236 -104q-67 0 -111.5 42.5t-44.5 104.5q0 11 9 47q21 76 73 137q87 111 203 176q27 15 80.5 41.5t65.5 32.5q66 32 118 55q11 78 -67 109q-42 3 -120 -6.5t-110 -9.5q-31 0 -43 4q-53 22 -53 75q0 23 4 33q21 115 133 219
q54 51 125 74q50 10 56 10q52 0 90 -32q3 -3 14.5 -12t17.5 -15.5t11 -13.5q16 -22 43.5 -62t36.5 -53q-3 -40 -35 -43q-30 0 -47 27q-5 6 -39 55q-31 48 -66 61q-10 4 -29 4q-36 0 -69 -20q-75 -38 -131 -131q-29 -45 -29 -76q0 -17 2 -25q10 -2 35 -2q21 0 55 5t47 6
q42 10 74 10q111 -3 158 -98q11 -16 18 -41q16 -4 23 -4q10 0 26 8q51 22 194 117.5t239 171.5q68 187 112 296q-21 -4 -78.5 -15t-107.5 -21.5t-96 -22.5q-6 -2 -54 -14q-14 -2 -37 -2q-27 9 -32 32q0 15 4 19q12 27 51 37q193 46 385 76q11 11 19.5 24t18 33t13.5 27
q102 193 213 319q73 80 168 129q75 41 158 35zM319 -104q39 70 39 129q0 5 -2 13t-2 11q-187 -53 -313 -162q-82 -64 -131 -155q-19 -38 -19 -66q0 -29 17 -57q32 -21 59 -21q13 0 33 4q76 23 123 64q122 101 196 240z" />
    <glyph glyph-name="s_j.liga" unicode="sj" horiz-adv-x="1146" 
d="M772 524q-20 1 -31 19.5t-6 40.5q3 34 35 45h10q18 0 31 -13q18 -13 18 -41q-1 -24 -18 -38.5t-39 -12.5zM326 -633q-46 0 -78.5 33.5t-34.5 77.5q-3 68 18 127q46 122 162 272q104 130 248 246q14 72 14 162q-66 -18 -176 -65.5t-168 -82.5q-9 -132 -73 -254
q-25 -49 -52 -86q-82 -123 -235 -151q-15 -6 -33 -6q-42 0 -90 32q-64 42 -64 113q0 22 13 59q29 91 114 154q51 41 166 102q49 30 123 66q31 13 33 29q-20 46 -74 53q-70 12 -106 14q-55 10 -72 66q0 74 98 173t181 113q40 2 63.5 -22.5t42.5 -85.5v-4q0 -25 -20 -33t-31 6
q-22 55 -49 55q-43 -3 -109.5 -64t-85.5 -116q1 -3 2.5 -5.5t4 -4t3.5 -2.5t4.5 -1.5t4.5 -0.5h5h5q74 -5 128 -29.5t89 -83.5q46 19 127 55t100 44l115 47q19 8 47 8q19 0 27 -2q17 -9 23.5 -27.5t6.5 -58.5q0 -15 -2.5 -50t-3.5 -51q137 67 269 115.5t163 34.5
q6 -3 11.5 -12.5t5.5 -16.5q0 -28 -33 -39q-132 -33 -245.5 -86t-186.5 -104q-25 -114 -51 -211q-46 -159 -122.5 -295t-162.5 -190q-33 -17 -59 -17zM-109 -276q130 -14 222 106q66 82 106 225v4q0 5 -2.5 13.5t-3.5 11.5q-5 -1 -12 -1.5t-11.5 -1t-7.5 -1.5
q-110 -52 -213 -121q-46 -30 -92 -90q-25 -37 -31 -74v-8q0 -44 45 -63zM330 -549q22 0 39 17q8 10 27 30.5t28 32.5q65 87 130.5 248.5t53.5 206.5q-26 -15 -94.5 -89t-118.5 -151q-97 -145 -106 -248q7 -37 28 -45q4 -2 13 -2z" />
    <glyph glyph-name="t_l.liga" unicode="tl" horiz-adv-x="606" 
d="M657 1272q7 -9 7 -25q0 -3 -11 -41q-52 -138 -90 -245q-1 -5 -52.5 -165t-66.5 -204q-14 -43 -35.5 -123t-29.5 -107q-5 -18 -68 -233q-43 -185 -55 -233q-8 -36 -21 -112t-22 -112q-26 -20 -47 -14q-18 12 -21 39q35 253 117 534q8 27 65.5 223t88.5 298l18 61
q8 25 21.5 68t21.5 67q4 11 13.5 35.5t23.5 61t25 65.5q-3 -1 -10.5 -2t-10.5 -2q-31 -4 -223 -37l-162 -477q-14 -43 -35.5 -123t-29.5 -107q-5 -18 -68 -233q-43 -185 -55 -233q-8 -36 -21 -112t-22 -112q-26 -20 -47 -14q-18 12 -21 39q35 253 117 534q15 51 68.5 236.5
t84.5 284.5q1 6 18 63.5t19 67.5q35 88 62 172q-214 -33 -260 -29q-7 6 -12 20t-3 25q6 14 24.5 19.5t123.5 23.5q45 5 155 25q25 66 58 133q18 16 39 12q6 0 18 -12q6 -8 6 -25q0 -6 -10 -41l-18 -51q38 5 118 16.5t123 16.5h2q32 82 33 84q18 16 39 12q6 0 18 -12z" />
    <glyph glyph-name="v_j.liga" unicode="vj" horiz-adv-x="1056" 
d="M795 705q-27 0 -41 24q-6 24 -6 27q0 27 28 55q10 10 27 10q15 0 51 -16q4 -8 4 -25q0 -52 -49 -73q-3 0 -8 -1t-6 -1zM213 -440q-52 10 -74 45q-25 38 -22 92q8 111 86 227q119 177 327 303q47 23 70 41q24 55 38.5 123t14.5 117l-5.5 5.5t-6.5 4t-6 2.5t-7 1.5
t-6.5 0.5h-8h-7.5q-47 -8 -108 -22q-10 -2 -45.5 -8t-45 -7.5t-45 -4.5t-45.5 1q-5 -7 -90 -127q-63 -82 -112 -151q-60 -72 -101 -72q-22 5 -34 16t-15 35v37q0 29 2 43q5 71 17.5 171t13.5 114q17 39 61 33q15 0 15 -33q0 -29 -31 -293h4q7 0 15.5 7.5t13.5 15t12 19.5
t8 13q12 16 33 47t39 56t35 47q6 8 20 30t27 36t31 26q67 -1 194 25t187 28q46 -6 61.5 -33t13.5 -79q-16 -130 -32 -179q109 31 292 31q11 0 28 -0.5t23.5 -1t16.5 -2t15 -4.5t10 -8q6 -8 6 -27q-2 -8 -8 -14.5t-10.5 -10t-16 -6.5t-14 -3.5t-15.5 -2.5q-7 0 -19.5 -1
t-19.5 -1q-6 0 -19.5 1t-21.5 1q-16 4 -45 4q-115 0 -221 -47q-8 -13 -33 -74q-74 -206 -184 -374q-17 -21 -47.5 -62t-46.5 -61q-36 -42 -68.5 -60t-93.5 -30zM227 -354q8 0 14.5 2t15.5 7.5t11 6.5q59 45 107 115q103 151 155 274q4 10 12.5 28t14 33.5t8.5 32.5
q-4 -2 -12.5 -4t-11.5 -4q-168 -111 -256 -235q-70 -97 -88 -183q-2 -8 -2 -28q0 -27 16 -43q4 -2 16 -2z" />
    <glyph glyph-name="w_f.liga" unicode="wf" horiz-adv-x="1196" 
d="M664 -219q-24 6 -33 22q-6 24 -6 31q0 17 12 53q97 374 164 615q8 40 8 49q-161 -5 -213 -10q-27 -80 -41 -140q-65 -233 -156 -270q-12 -6 -32 -6q-48 0 -72 47q-5 12 -9 36.5t-7 35.5q-9 -5 -23.5 -24.5t-19.5 -24.5q-51 -78 -103 -127q-30 -30 -67 -45q-15 -9 -31 -9
q-37 0 -59.5 40t-22.5 93q5 178 82 388q10 13 31 16q37 -3 40 -41q-22 -72 -33.5 -114t-22.5 -106t-11 -118q0 -40 2 -63h6q6 0 11.5 1.5t8.5 2.5t7.5 5t6 5.5t6 7t5.5 6.5q97 116 148 215l26 52t29.5 57.5t15.5 23.5q10 4 27 4q37 0 45 -28q0 -29 -12.5 -84t-12.5 -84
q0 -48 17 -78q25 8 41 39q33 56 72 190t51 154q8 16 52.5 22t130.5 9h13q82 5 101 8q11 20 34 86q61 164 146 311q59 96 125 162q70 59 131 82q59 18 94 18q64 0 114 -40t74 -115q-7 -35 -38 -35q-25 3 -39 31q0 1 -10.5 17.5t-16.5 23.5q-40 43 -90 43q-16 0 -33 -7
q-75 -26 -117 -65q-81 -69 -131 -164q-81 -133 -139 -313q-5 -7 -8 -27q37 0 98 1t103 1q19 0 54 1t52 1q41 0 55 -28v-9q0 -25 -30 -37q-20 -8 -74 -8q-22 0 -69.5 2t-71.5 2q-43 0 -117 -8q-1 0 -25 -6q-18 -35 -28 -72q-113 -428 -166 -610q-17 -64 -17 -65
q-10 -21 -32 -29z" />
    <glyph glyph-name="w_j.liga" unicode="wj" horiz-adv-x="1368" 
d="M1073 670q-16 0 -24 4l-5 6q-6 5 -6 10q-6 12 -6 23q0 2 1 4.5t3.5 6l5 7t8 9.5t9.5 12q6 2 20 2q26 0 35 -33q0 -28 -24 -49q-6 -2 -17 -2zM588 -481q-63 0 -88 63q-15 43 -15 66q0 18 4 30q23 138 132 287q98 134 239 221q8 4 22 14l21 15q21 54 34 130.5t11 129.5
q-264 -24 -373 -67q-9 -10 -14.5 -22.5t-11.5 -31.5t-8 -26q-36 -111 -115 -236q-23 -34 -45 -53.5t-55 -24.5q-41 1 -60 27.5t-30 73.5q-8 -2 -14.5 -7.5t-9.5 -9t-8.5 -13t-6.5 -11.5q-48 -67 -117 -133q-29 -26 -55 -37q-35 -10 -41 -10q-27 0 -48 17t-28 46
q-12 32 -12 51q0 15 4 23q3 17 8 69.5t12 81.5q32 98 94 307q9 40 29 58q28 4 31 4q16 0 35 -27q-13 -42 -40 -124t-43 -133t-31 -124t-18 -137q0 -3 4.5 -10t4.5 -10q24 -6 32 6q8 8 23.5 22.5t26.5 26t20 22.5q78 95 180 291q25 65 49 82q10 4 25 4q12 0 18.5 -5t18.5 -23
q-4 -23 -32 -117t-28 -148q0 -19 3 -34q4 -4 12 -4q10 0 20 20q81 121 113 225q2 5 7 24.5t8.5 28.5t11 25t16.5 29q59 34 217 57.5t246 52.5q30 -5 51 -32q6 -23 6 -64q0 -38 -10 -109t-12 -96q23 8 50.5 17.5t38 13t31 9.5t43.5 10t60 10q20 2 45.5 6t42.5 6t31 2
q4 0 12 -1t12 -1q33 -13 33 -37q0 -22 -29 -33l-50 -5t-72 -9.5t-78.5 -16t-96.5 -30t-98 -47.5q-26 -94 -55 -187q-22 -76 -78 -204q-44 -87 -119 -168q-51 -58 -102 -78q-28 -8 -41 -8zM598 -393q21 0 47 22q82 74 133 181q50 105 92 253v9q0 11 -12 18
q-119 -85 -201 -207q-61 -96 -82 -178q-8 -32 -8 -51q0 -17 8 -41q12 -6 23 -6z" />
    <glyph glyph-name="x_f.liga" unicode="xf" horiz-adv-x="997" 
d="M-117 -469q-30 0 -39 27q14 37 24.5 67.5t13 38t16.5 40t34 76t66 144.5l25 51v2q-66 77 -66 189q0 63 14.5 133t29.5 113.5t42 113.5q20 17 31 17q9 0 24 -11q8 -13 8 -30q0 -23 -14 -51q-46 -152 -53 -199q-8 -33 -8 -70q0 -45 18 -108h6q12 0 18 6t15 26
q30 62 88.5 177t71.5 141q5 9 80 156q23 44 37.5 61.5t29.5 20.5q15 0 24 -7t11 -15l2 -7l-22 -58l-252 -491q-12 -23 -8 -37q12 -6 20 -6q15 0 43 16q75 39 166 123q93 89 184 207q52 79 115 148q12 20 41 53q30 38 76 127q10 21 41.5 94.5t37.5 83.5q-91 -11 -129 -19
q-69 -16 -104 -14q-25 11 -25 31q0 11 13 24q21 9 126 28.5t163 25.5q108 165 137 205q54 80 143 159q81 63 145 84q41 15 76 15q41 0 99 -21q44 -15 55 -53q0 -38 -35 -41q-13 0 -33 16q-6 2 -18.5 9t-20.5 10q-10 2 -39 2q-40 0 -81 -13q-61 -32 -78 -47q-49 -37 -100 -96
t-82 -104.5t-76 -116.5h55q17 2 118 10t117 10h58q32 -6 35 -32q-2 -22 -31 -29q-38 -10 -53 -8q-6 0 -201 -17q-78 -4 -111 -8q-11 0 -30 -8q-28 -41 -76 -141q-69 -157 -137 -385q-40 -130 -123 -459q-1 -4 -3 -16.5t-4 -18t-5.5 -14.5t-10.5 -14.5t-16 -8.5h-4
q-12 0 -29 17q-8 24 -8 32q0 14 12 54q81 315 99 378l24 102q2 6 2 7l-76 -92q-8 -9 -23.5 -28.5t-23.5 -28.5q-91 -112 -164 -173q-34 -31 -82 -67q-111 -80 -210 -88q-9 -4 -15.5 -10.5t-9 -11t-7 -16t-5.5 -13.5q-90 -192 -148 -320q-7 -21 -15.5 -32.5t-25.5 -16.5z" />
    <glyph glyph-name="z_f.liga" unicode="zf" horiz-adv-x="1230" 
d="M639 -377q-16 0 -31 19q-4 12 -4 30q0 28 8 49q8 38 37.5 182t51 235.5t47.5 180.5q2 3 2 11.5t2 11.5q-12 15 -31 8q-186 -75 -318 -186q-8 -20 -8 -31q0 -4 2 -12t2 -12q9 -40 9 -60q0 -64 -46 -162q-37 -78 -131 -155q-56 -40 -116 -45q-70 7 -99 61q-6 42 -6 45
q0 62 49 131q47 66 162 185q4 4 14.5 12.5t17 16.5t9.5 18q-21 9 -55 -3t-53 -8q-28 11 -31 37q1 14 6.5 25.5t18.5 26.5t16 20q72 85 117 166q47 86 47 131q0 18 -9 39q-64 6 -149 -66.5t-113 -171.5q-2 -5 -6 -17.5t-9.5 -22t-14.5 -15.5q-16 -4 -21 -4q-18 0 -29 16
q-4 16 -4 17v10q0 21 17 63q43 115 139 194t184 79q31 0 45 -6q51 -22 54 -91q4 -37 -21 -110q-40 -92 -82 -152q-2 -2 -11 -13t-12.5 -16t-8.5 -15.5t-7 -20.5q14 -3 72 -33q181 151 444 246q84 230 99 266q84 214 180 338q55 67 123 121q88 61 194 61q6 0 18.5 -1t18.5 -1
q64 -10 105 -43q41 -35 49 -80q-7 -22 -20.5 -27.5t-34.5 1.5q-10 5 -17 12q-46 63 -115 63q-27 0 -51 -8q-82 -16 -137 -71q-73 -67 -127 -158q-114 -200 -180 -426q9 -17 29 -10q130 23 137 24h14q41 0 53 -30v-9q0 -28 -28 -34q-24 -9 -56 -9q-58 -6 -172 -39
q-8 -6 -13.5 -14.5t-7.5 -14.5t-5 -16t-4 -14q-63 -225 -115 -479q-6 -35 -21 -101.5t-16 -72.5q-3 -15 -5 -21.5t-6.5 -18t-12 -17.5t-17.5 -9h-6zM125 -229q23 0 45 16q116 84 149 215q0 4 3.5 18t3.5 23q0 11 -9 47l-30.5 -30.5l-32.5 -32.5t-28.5 -29.5t-30.5 -32.5
t-26.5 -30t-28 -34.5t-23.5 -33.5q-28 -43 -25 -86q15 -10 33 -10z" />
    <glyph glyph-name="z_j.liga" unicode="zj" horiz-adv-x="1312" 
d="M934 625q-50 11 -47 65q3 19 16.5 33t30.5 14h14q38 0 51 -43q-3 -59 -65 -69zM-113 -723q-70 6 -108.5 47.5t-38.5 112.5q0 93 61 184q51 89 127 168q119 127 301 291l35 35h-78q-29 11 -32 41q1 15 6.5 27t19 31t15.5 22q79 114 114 188q5 13 17.5 43t17.5 47
q13 31 6 61q-13 13 -24 13q-53 0 -142.5 -104.5t-117.5 -174.5q-2 -7 -15 -20q-20 -8 -26 -8q-21 0 -33 24q-2 6 -2 21q0 19 16 51q65 113 161 204t177 91q80 0 90 -84v-21q0 -35 -8 -59q-31 -104 -109 -229l-45 -74q43 -10 70 -19q23 19 63 54.5t54 46.5q132 107 188 145
q79 53 148 53q62 -12 90.5 -39t38.5 -88q2 -25 2 -73q2 -12 2 -39t-2 -43q88 51 193 87t159 44q32 4 39 4q16 0 29 -10q6 -9 6 -17q0 -30 -35 -41q-137 -33 -236.5 -75.5t-173.5 -112.5q-19 -57 -47 -137q-53 -161 -153 -297q-53 -75 -117 -84q-59 6 -72 86q68 267 316 481
q12 65 12 139q0 108 -35 133q-14 7 -23 7q-27 0 -75 -31q-55 -32 -148.5 -108t-136.5 -124v-6q0 -5 3.5 -10t11 -11.5t10.5 -10.5q49 -67 49 -166q0 -54 -8 -93q-36 -186 -175 -348q-85 -102 -182 -164q-125 -72 -250 -61zM-82 -653q21 0 57 8q84 21 156 74q204 157 277 397
q12 40 12 102q0 24 -4 74q-10 57 -56 82q-25 -14 -26 -16q-35 -33 -100.5 -91.5t-119 -108.5t-96.5 -97q-75 -75 -139 -170q-38 -57 -57 -136q-2 -8 -2 -24q0 -29 18 -64q33 -30 80 -30zM612 -330q59 59 104 142t48 141q-120 -162 -152 -283z" />
    <glyph glyph-name=".notdef" horiz-adv-x="1689" 
d="M1386 1946v-3380h-1073v3380h1073zM1124 1718h-557v-110h219v-125h-221v-111h559v111h-221v125h221v110zM903 1284h-338v-352h559v115h-221v237zM786 1169v-122h-110v122h110zM1124 840h-559v-111h221v-125h-221v-110h338v235h221v111zM1124 637h-110v-221h-449v-117h559
v338zM1124 225h-338v-188h117v78h111v-160h-338v270h-111v-381h559v381zM1124 -358h-559v-383h559v383zM1014 -471v-158h-338v158h338zM1124 -819h-559v-111h236l-236 -160v-110h559v110h-344l238 160h106v111z" />
    <glyph glyph-name=".null" 
 />
    <glyph glyph-name="nonmarkingreturn" horiz-adv-x="682" 
 />
    <glyph glyph-name="space" unicode=" " horiz-adv-x="573" 
 />
    <glyph glyph-name="exclam" unicode="!" horiz-adv-x="718" 
d="M219 319q-28 11 -33 39q6 28 13 41l47 93q219 408 303 550l65 97q8 10 23 18q1 1 16 6q43 -3 37 -43q0 -8 -4 -20q-96 -143 -260 -451q-49 -92 -147 -272l-25 -41q-10 -13 -35 -17zM90 80q-41 11 -41 49q0 17 2 27q7 9 25 18h8q37 0 49 -35v-14q0 -31 -43 -45z" />
    <glyph glyph-name="quotedbl" unicode="&#x22;" horiz-adv-x="581" 
d="M238 631q-4 0 -12.5 1t-12.5 1q-1 4 -5 11t-5 11q-2 8 -2 23q0 9 4 33q11 33 31 103.5t32 105.5q12 44 41 53q17 -4 25 -13t14 -28q-17 -54 -45 -154t-37 -131zM82 647q-26 12 -29 31q6 58 33.5 146.5t50.5 127.5q12 9 23 9q16 0 28 -25q0 -2 2.5 -7.5t2.5 -8.5
q-50 -165 -66 -226q-12 -41 -45 -47z" />
    <glyph glyph-name="numbersign" unicode="#" horiz-adv-x="817" 
d="M131 297q-10 0 -27 14q-4 6 -4 17q0 9 15 49q75 159 155 305q4 10 25.5 50t26.5 65q-16 7 -33.5 9t-40.5 2t-37 1q-57 -88 -145 -285q-23 -23 -41 -18q-11 2 -16 7.5t-9 27.5q5 46 51 131t58 125q-10 14 -37 14q-35 5 -37 6q-21 17 -21 29q0 17 19 31q22 8 66.5 9.5
t62.5 4.5q26 40 65 127q-14 4 -45 4q-12 0 -38 -2t-38 -2q-39 0 -67 14q-8 11 -8 25q0 15 18 30q33 5 66 7.5t85 3t64 0.5q23 21 58.5 82.5t68.5 83.5q39 0 45 -29q-7 -22 -8 -23q-7 -14 -25.5 -44t-27.5 -48q-4 -4 -4 -16q12 -6 26.5 -9t25 -3.5t27 -1t23.5 -0.5q8 3 14 7
t11 9.5t7.5 9.5t7 11.5t5.5 9.5q64 105 90 151q12 17 17 24t18 17t27 14h4q31 0 37 -43q-88 -114 -127 -202q22 -10 65 -13t47 -4q11 -2 35.5 -3t41.5 -5t32 -14q2 -1 12 -21q0 -13 -20 -30q-1 1 -4 0q-4 -2 -7 -2q-18 0 -53 2t-53 2q-23 4 -64 4q-52 0 -81 -6
q-17 -18 -40 -61t-26 -48q4 -8 10.5 -12t10.5 -4.5t13 0t11 0.5q20 -2 61 -2t62 -2q18 0 57 -17q4 -16 4 -20q0 -13 -10 -23q-18 -16 -57 -16q-11 0 -35 3t-37 3q-45 -4 -131 -4q-11 -7 -18 -15.5t-13.5 -21t-9.5 -16.5q-17 -34 -66 -127t-81.5 -158.5t-59.5 -128.5
q-17 -35 -30 -41h-19zM313 885h33q23 0 31 6q42 58 65 119q-47 12 -63 12q-17 0 -70 -12q-8 -18 -28.5 -55.5t-28.5 -55.5q7 -10 17 -13t24.5 -2t19.5 1z" />
    <glyph glyph-name="dollar" unicode="$" horiz-adv-x="1236" 
d="M401 -467q-20 4 -28 14.5t-11 32.5q5 26 33.5 86.5t32.5 97.5l-53 25q-76 36 -107 121q-22 56 -22 125q0 37 2 55q10 94 39 158q7 19 22 45q19 19 27 24q15 12 39 9q1 -1 3 -1q7 -3 16 -25q0 -2 1 -3q0 -27 -12 -45q-60 -94 -53 -242q0 -51 24 -92q42 -70 107 -59
q13 6 16 16q2 1 12 16q45 111 132 319t108 259q1 1 8 29q-10 10 -35 10q-107 -5 -137 -2q-54 3 -84 57q-22 39 -22 82q0 59 6 86q31 181 117 326q51 96 125 182q84 87 170 143q107 68 221 62q63 0 96 -2q24 33 74.5 116t83.5 121q19 11 34 11q9 0 25 -4q16 -14 16 -37
q0 -17 -2 -25q-89 -93 -155 -238l16 -45q36 -71 49 -163q1 -7 6 -39.5l6 -39t4.5 -38.5t2 -38.5t-1.5 -39.5q-17 -223 -80 -377q-18 -26 -49 -26q-4 1 -12.5 5t-12.5 5q-4 18 -8 31q37 107 37 108q28 105 41 238v30q0 51 -4 76q0 19 -5 56t-6 51q-8 41 -30 90q-6 4 -12.5 2
t-8.5 -8q-3 -6 -18 -30.5t-21 -37.5q-20 -42 -93.5 -189t-111.5 -227q-17 -33 -42 -94t-37 -86q38 -12 82 -35q48 -22 65 -65q31 -64 31 -123q0 -25 -6 -55q-49 -248 -246 -418q-9 -6 -26 -20.5t-25 -20.5q-52 -44 -125 -68q-83 -27 -94 -31q-13 -10 -29 -49
q-13 -33 -38 -91.5t-32 -74.5q-29 -15 -35 -16zM596 588q123 0 172 10q6 4 11 8t9 8.5t6.5 8.5t5.5 10t4.5 9.5t4.5 10t4 9.5q8 17 24.5 54.5t24.5 55.5q41 84 117.5 236.5t107.5 214.5q21 48 58 120q-8 24 -45 27q-103 -16 -150 -43q-116 -63 -188 -149
q-164 -201 -211 -430q-8 -50 -8 -74q0 -27 4 -41q0 -6 4.5 -19t5.5 -16q23 -10 39 -10zM600 -123q17 0 29 6q120 60 217 185q63 75 112 213q9 50 9 98q0 46 -11 80q-46 58 -106 49q-3 -3 -7 -6t-6 -5t-3 -5q-42 -98 -120 -282t-114 -269q-18 -36 -16 -56q3 -1 8.5 -4.5
t7.5 -3.5z" />
    <glyph glyph-name="percent" unicode="%" horiz-adv-x="1566" 
d="M426 -377q-18 0 -33 10q-13 21 -6 50q4 12 15.5 35t15.5 34q20 39 103.5 208t119.5 240.5t101 197.5t120 227q116 211 236 393q3 5 9.5 10t10 11t2.5 16h-6q-10 0 -27 -11.5t-22 -13.5q-12 -4 -36.5 -15.5t-37.5 -15.5q-39 -12 -71 -18q-8 -2 -82 -12q-12 -2 -37 -4
t-37 -4q-4 -13 -12.5 -31t-12.5 -29q-26 -70 -69 -108q-36 -33 -80 -33q-22 0 -43 8q-33 26 -33 78q0 23 2 33q14 53 68 143q4 4 4 16q0 7 -5 21t-3 22q6 59 67 72q40 -3 64 -26t41 -64q27 -8 65 -8q49 0 98 12q122 29 271 131q9 7 29.5 25t37.5 29.5t35 17.5q29 0 41 -27
q4 -6 4 -14q0 -13 -12 -33q-3 -4 -14.5 -21t-18.5 -26q-246 -343 -463 -778q-55 -106 -352 -705q-14 -33 -27 -39q-7 -3 -14 -4h-6zM592 827q80 64 80 138q0 20 -2 34q-40 -43 -59 -81t-19 -91zM907 39q-20 0 -28 2q-41 29 -41 76q0 21 8 57q26 78 80 123q9 4 36.5 13.5
t38.5 17.5q60 -11 50 -68q-7 -101 -58 -168q-32 -53 -86 -53zM918 131q1 -1 2.5 -1t2.5 2t1 5q13 6 21 16.5t10.5 19t5 25t4.5 23.5q-46 -37 -41 -84q-6 0 -6 -4v-2z" />
    <glyph glyph-name="ampersand" unicode="&#x26;" horiz-adv-x="1042" 
d="M848 950q-26 0 -29 27q-7 23 0 39l111 321q9 31 41 37q3 -2 8 -3.5t6 -2.5q5 -3 9 -10t5 -8q0 -4 1 -9t1 -6q0 -10 -2.5 -19.5t-7.5 -21.5t-6 -16q-13 -33 -50 -144.5t-65 -168.5q-1 -3 -3.5 -5t-6.5 -5t-6 -5h-6zM387 287q-56 0 -86.5 33.5t-21.5 87.5q5 36 28 84
q81 164 234 221q4 1 16 6t21 8q-3 4 -12 14t-12.5 14t-10 13t-9.5 15.5t-6 16t-4 19.5q0 53 51 92q59 39 115 39q19 0 64 -18q25 -16 45 -47q1 -2 4 -7.5t4 -7.5t3 -6.5t3 -7.5t2.5 -7t1.5 -7.5t0.5 -7.5t-0.5 -8.5t-2 -8.5q-6 -21 -33 -24q-16 8 -18 10q-11 11 -27 39
q-19 25 -49 35q-64 -12 -86 -50q8 -31 48 -60t50 -46q5 -8 5 -16q0 -16 -7 -25q-3 -1 -8 -5.5t-8 -4.5q-43 -15 -66 -15q-69 -8 -133 -57q-73 -58 -112 -147q-11 -22 -11 -39q0 -21 2 -41q7 -8 21.5 -10.5t22.5 1.5q60 19 118 58q28 17 94 63q22 11 33 11q16 0 29 -13
q4 -8 4 -20q0 -18 -10 -25q-127 -105 -246 -143q-1 0 -41 -6zM471 -147q-23 0 -27 32q-2 6 -2 17q0 10 9 41q35 150 98 317q1 2 4.5 10t5.5 11t6 9.5t7.5 9.5t9.5 6.5t12 4.5q27 -2 39 -26v-6q0 -15 -19 -58q-31 -82 -94 -293q-5 -25 -20 -59q-10 -16 -29 -16z" />
    <glyph glyph-name="quotesingle" unicode="'" horiz-adv-x="403" 
d="M59 647q-25 11 -28 31q6 58 33.5 146.5t50.5 127.5q12 9 22 9q17 0 29 -25q0 -2 2 -7.5t2 -8.5q-50 -165 -66 -226q-12 -41 -45 -47z" />
    <glyph glyph-name="parenleft" unicode="(" horiz-adv-x="632" 
d="M211 -145q-9 0 -25 8q-1 2 -5.5 6.5t-6.5 9.5q-4 7 -7 16.5t-6 21t-5 17.5q-6 25 -11.5 56t-8.5 51t-8 59.5t-7 53.5q0 5 -2 14t-2 14q0 4 2 14.5t2 14.5q21 246 84 426q86 230 166 369q97 172 243 321q20 20 41 35q6 0 16 2t11 2q18 0 24 -8.5t9 -32.5q-5 -15 -17 -31
t-17.5 -21t-25.5 -22q-103 -106 -188 -245q-167 -280 -231 -570q-23 -112 -23 -233q0 -103 6 -152q2 -30 14 -85t15 -72v-11q-5 -19 -27 -28h-10z" />
    <glyph glyph-name="parenright" unicode=")" horiz-adv-x="499" 
d="M82 -109q-33 6 -27 46q4 17 12 32.5t22.5 36.5t19.5 29q111 175 210 381q108 238 154 467q25 127 25 192q0 41 -4 64q-3 45 -21 172q0 18 -4 26q10 23 29 31l10 2q21 0 35 -24q13 -19 16 -46q11 -66 21 -153q2 -18 2 -57q0 -90 -25 -222q-20 -101 -63 -231
q-35 -113 -107 -268q-84 -180 -231 -412q-14 -28 -33 -47q-18 -25 -41 -19z" />
    <glyph glyph-name="asterisk" unicode="*" horiz-adv-x="749" 
d="M481 834q35 -6 35 -48q-4 -12 -9.5 -15.5t-23.5 -6.5h-30h-17q-61 0 -90 4l31 -49q2 -9 10 -17q6 -6 6 -12q3 -2 5.5 -6.5t5.5 -10t4 -7.5q4 -4 4 -11q4 -2 8 -10q0 -8 -2 -14v-10q-8 -11 -21 -16t-22 1q-19 13 -29 27q-5 8 -11 21t-7 16q-1 1 -7.5 13t-11.5 19
q0 1 -6 13q-3 7 -9.5 18.5t-8.5 14.5q-10 -10 -37 -46q-3 -5 -11 -15.5t-10 -14.5q-34 -46 -55 -59q-4 -3 -8 -5q-32 7 -39 25v8v4v8q11 15 16 27q2 1 3.5 3t4.5 5.5t5 5.5q1 1 3.5 6t4.5 7q4 8 8 12q6 15 12 24l4 5q7 8 14 14.5t10 9t3 4.5q-14 -4 -43 -6q-22 1 -60 4
t-51 4q-26 13 -28 33q4 25 26 31q20 4 33 4h88h10q24 -5 41 0l-24 24q-8 12 -19 23q-22 27 -36 63q0 29 32 41q17 0 31 -14q20 -22 43 -59q9 -9 16 -23l7 -2q21 3 24 16q21 21 43 54q8 8 23 28q16 19 39 19q35 0 28 -41q-9 -25 -35 -55q-59 -82 -59 -83t2 -1h82q35 0 55 -2z
" />
    <glyph glyph-name="plus" unicode="+" horiz-adv-x="845" 
d="M297 240q-22 0 -33 28q3 42 30.5 112.5t33.5 96.5q-9 17 -49.5 16.5t-51.5 0.5q-20 5 -30.5 14.5t-10.5 30.5q2 5 7 12t6 8q20 12 80 12q59 0 79 4q16 19 38 84.5t55 88.5q30 -5 41 -33q-1 -22 -20.5 -65.5t-20.5 -69.5q24 -9 51 -9q8 0 23.5 1t23.5 1q27 0 43 -8
q20 -17 20 -30q0 -16 -20 -33h-156q-12 -5 -18.5 -13t-12 -22.5t-6.5 -15.5q-9 -23 -18 -49t-20 -58t-17 -49q-1 -3 -8.5 -21t-9.5 -26q-24 -8 -29 -8z" />
    <glyph glyph-name="comma" unicode="," horiz-adv-x="274" 
d="M31 -80q-11 0 -17 6.5t-14 24.5q0 10 2 16l37 58q14 31 20 57q16 18 39 18q13 0 17 -4q12 -18 24 -33q-3 -12 -8 -33t-8 -30q-31 -54 -64 -74q-5 -1 -11.5 -2.5t-10.5 -2.5t-6 -1z" />
    <glyph glyph-name="hyphen" unicode="-" horiz-adv-x="714" 
d="M229 379q-27 0 -41 20q-2 4 -2 13q0 12 13 28q59 19 89 22.5t156 6.5q16 -3 26.5 -13t10.5 -24q-6 -21 -22 -31q-59 -15 -66 -16q-163 -6 -164 -6z" />
    <glyph glyph-name="period" unicode="." horiz-adv-x="239" 
d="M39 2q-36 11 -39 55q3 45 39 58q2 0 6.5 1t5.5 1q22 0 37 -19q16 -16 16 -43q-8 -31 -20 -41q-14 -16 -45 -12z" />
    <glyph glyph-name="slash" unicode="/" horiz-adv-x="690" 
d="M-31 -229q-20 13 -12 47q5 18 20 49q62 119 156 311l94 182q180 368 412 822q2 6 57 112q15 34 31 58q19 40 43 43h8q22 0 31 -17q4 -16 4 -20q0 -18 -8 -29q-186 -344 -316 -618q-29 -60 -93 -185t-95 -190q-24 -50 -75 -151.5t-76 -151.5q-57 -115 -93 -178
q0 -8 -6 -17q0 -1 -1 -2t-1 -2q-3 -9 -8 -14q-18 -35 -27 -43q-17 -20 -45 -6z" />
    <glyph glyph-name="zero" unicode="0" horiz-adv-x="1128" 
d="M485 -72q-61 0 -117.5 36.5t-78.5 98.5q-15 47 -24 119.5t-5 118.5q25 227 168 459q155 247 377 395q137 87 233 115q59 16 117 16q31 0 47 -2q65 -26 101 -55q29 -29 38 -55v-9q0 -17 -12 -49q0 -2 -1 -8.5t-1 -9.5q10 -31 10 -76q0 -58 -24 -135q-122 -414 -402 -705
q-119 -119 -188 -164q-98 -62 -193 -84q-42 -6 -45 -6zM483 10q19 0 31 4q44 12 90 33q106 53 180 127l48.5 48.5t58.5 62.5q257 282 354 673q8 31 8 64q0 21 -2 33l-14 114q-20 16 -33 21q-20 12 -39 12q-50 0 -75 -6q-21 -5 -109 -35q-86 -40 -172 -106
q-153 -110 -279 -293q-152 -218 -188 -469q-4 -16 -4 -49q0 -85 39 -168q13 -31 42.5 -48.5t63.5 -17.5z" />
    <glyph glyph-name="one" unicode="1" horiz-adv-x="456" 
d="M164 -47q-2 0 -4 0.5t-4 1.5t-3.5 2t-3.5 3.5t-3.5 4t-3.5 5.5t-3.5 6.5l-4.5 7.5t-5 8v8q0 33 18 74q9 23 60 133q147 332 287 602q126 225 237 410q3 4 15.5 22.5t17.5 26.5q21 12 37 12q11 0 33 -18q1 -4 2 -15t2 -16q-9 -15 -78 -129t-103 -176q-93 -163 -168 -314
q-70 -135 -153 -323q-9 -21 -45.5 -98.5t-57 -127t-36.5 -98.5q-24 -12 -33 -12z" />
    <glyph glyph-name="two" unicode="2" horiz-adv-x="1320" 
d="M958 -68q-6 0 -79 5q-107 13 -191 63q-98 64 -100 66h-8q-16 0 -54 -19q-106 -48 -209 -65q-17 -5 -45 -5q-32 0 -90 15q-47 24 -51 26q-70 54 -59 136q16 110 102 165q8 4 25.5 12t23.5 11q32 4 49 4q83 0 160 -49q93 -61 117 -84q6 -8 19 -19t14 -12h8q24 0 57 25
q149 98 238 184q157 150 235 254q69 92 107 150q33 46 53 112q12 44 12 86q-6 61 -53 99q-19 15 -25 16q-83 39 -167 39q-32 0 -48 -2q-118 -18 -235 -111q-34 -27 -59 -59q-5 -8 -15 -22t-12 -17q-24 -4 -29 -4q-23 8 -28 24q-5 5 -5 13q0 5 3 13.5t4 10.5q14 28 18 33
q62 82 180 145.5t238 59.5q126 0 205 -53q112 -73 112 -195q0 -25 -6 -55q-12 -50 -33 -101q-54 -115 -157 -243q-82 -98 -166 -185q-140 -140 -299 -245q-4 -3 -18.5 -13.5t-22.5 -15.5q0 -1 -1 -3.5t-1 -4.5q7 -14 10 -17q143 -93 311 -84q41 2 131 31q77 28 119 94
q20 33 37 56q5 6 15.5 14.5t13.5 11.5q20 0 28 -2q21 -15 21 -35l-6 -24q-45 -84 -90 -127q-57 -51 -142 -78q-86 -25 -162 -25zM276 57q20 0 35 6l58 13q78 15 129 53q-2 2 -9 25q-54 52 -118 84q-55 27 -101 24q-42 -3 -71 -26q-42 -39 -45 -95q0 -49 36 -61
q56 -23 86 -23z" />
    <glyph glyph-name="three" unicode="3" horiz-adv-x="1153" 
d="M563 -51l-86 12q-185 48 -237 203q-1 5 -5 13t-4 11q-1 4 -2 12t-2 11q-4 20 -4 61q0 176 127 332q66 80 127 115q8 2 23 2q23 0 32 -14q7 -14 7 -17q0 -4 -9 -26q-18 -18 -30 -25q-110 -88 -166 -221q-29 -62 -29 -137q0 -24 8 -82q19 -72 86 -115q57 -36 142 -53
q4 0 12 -2t12 -2t12.5 2t12.5 2q269 52 434 248q15 16 28.5 33t33.5 45t26 36q36 59 43 107q8 24 8 57q0 35 -10 57q-25 38 -49 52q-62 34 -127 28q-40 -9 -57 -14h-11q-21 0 -39 10q-1 3 -5.5 10.5t-6.5 10.5v8q0 17 16 33q16 11 54 26q88 38 196 121q64 52 99 117
q14 28 6 47q-1 6 -19 33l-94 24q-18 -6 -41 -6q-97 -13 -168 -59q-19 -16 -49 -13q-12 12 -22 17q0 1 -4 8.5t-5 13.5q7 27 22.5 56t29 47.5t39.5 50.5q35 35 65 37q28 0 35 -27q0 -1 2 -4t2 -4q0 -8 -8 -21.5t-8 -21.5q4 -6 16 -6q14 0 29 6q40 8 57 8q43 0 121 -24
q88 -36 88 -127q0 -18 -8 -50q-32 -79 -88 -124q-72 -68 -113 -93q-8 -8 -12 -16q92 -47 139 -127q5 -31 20 -78q-12 -103 -57 -180q-150 -276 -455 -399q-78 -24 -104 -25q-9 0 -76 -10z" />
    <glyph glyph-name="four" unicode="4" horiz-adv-x="1214" 
d="M729 -23q-12 12 -18 15q-9 15 -9 35q0 24 9 45l73 207q23 76 66 190q2 6 2 20q-6 13 -10 13q-116 19 -242 69q-28 10 -86 35l-80 -41h-55q-24 2 -45 22.5t-21 49.5q0 3 6 27q17 42 82 55q24 -4 76 -8q19 7 23 10q42 42 106 137q94 142 139 232q26 48 72 124q18 29 49 17
q21 -17 21 -35q0 -16 -8 -27q-49 -104 -78 -153q-110 -191 -205 -318q-3 -2 -5 -6t-4.5 -10t-4.5 -10q116 -62 301 -90q7 5 12.5 10.5t9.5 14.5t5.5 12t5.5 16t4 14q89 216 241 496q11 19 49 84q6 12 19 22q1 0 7 3.5t9 7.5q28 -1 34 -8.5t9 -41.5q-24 -48 -75 -144.5
t-81.5 -156t-69 -145t-65.5 -160.5q-1 -3 -6 -26q12 -7 35 -7t53 9q91 25 150 59q53 34 76 39q24 -2 38 -31q0 -4 -1 -12.5t-1 -13.5q-66 -61 -186 -105q-81 -26 -190 -33q-6 -2 -10 -4.5t-7.5 -7t-4.5 -6t-4 -7.5l-3 -7l-74 -199q-67 -190 -82 -227q-4 -19 -10 -27
q-15 -26 -41 -23z" />
    <glyph glyph-name="five" unicode="5" horiz-adv-x="901" 
d="M412 0q-97 0 -164 59q-58 74 -58 168q-6 212 177 355q29 21 73 49q5 3 33 10q46 -3 43 -49q-3 -2 -11 -12t-11 -13q-30 -18 -66 -43q-69 -50 -109 -116q-47 -75 -47 -162q0 -13 3 -35t4 -29q7 -46 39.5 -72t82.5 -28q72 0 158 39q110 52 178 131q97 100 137 217
q17 56 17 80q0 38 -6 65q-11 22 -26 34.5t-42 25.5q-32 10 -72 16q-71 -12 -106 -12q-5 0 -59 4q-22 17 -26.5 24.5t-10.5 36.5q17 59 43 116t68.5 125t64.5 101t78 113q51 23 94 23q30 1 85 1.5t100 1.5t85 3q1 0 19 -6q22 -14 22 -31q0 -1 -8 -25q-16 -18 -53 -18
q-15 -1 -42.5 -1.5t-50 -1.5t-42.5 -3q-21 0 -57 -1t-48 -1q-52 -12 -84 -64q-87 -104 -164 -280q-4 -6 -4 -23q16 -8 25 -8q10 0 33 6.5t36 5.5q10 -2 39.5 -6.5t44.5 -9.5q86 -27 129 -98q19 -43 21 -72q0 -78 -16 -125q-75 -222 -256 -352q-124 -81 -199 -99l-47 -12
q-16 -2 -47 -2z" />
    <glyph glyph-name="six" unicode="6" horiz-adv-x="894" 
d="M473 -33q-111 -3 -178 64q-4 4 -14 16.5t-17 18.5q-33 67 -33 155q0 29 13 113q18 148 124 335t228 296q52 70 177.5 145t223.5 109q57 22 127 32q10 1 21.5 1t25.5 -0.5t23 -0.5q27 -6 51 -24q1 -5 3.5 -15t2.5 -14q0 -12 -28 -29q-93 0 -127 -8q-15 -6 -44 -12t-42 -12
q-67 -29 -110.5 -52t-118.5 -76t-150 -126q-4 -4 -14.5 -22t-12.5 -23q0 -1 1 -6t1 -7h84q124 0 201 -114q39 -60 49 -146q0 -7 1 -22t1 -21q0 -160 -92 -299q-93 -128 -205 -200q-89 -53 -172 -56zM473 47q11 0 27 4q49 13 90 37q192 121 254 315q16 66 16 113
q0 62 -26 129q-34 62 -89 84q-32 13 -71 23q-79 -13 -127 -50q-82 -59 -148 -151q-11 -13 -20 -35q-38 -114 -53 -205q-9 -41 -9 -84q0 -11 5 -61q12 -108 129 -117q3 0 10.5 -1t11.5 -1z" />
    <glyph glyph-name="seven" unicode="7" horiz-adv-x="739" 
d="M336 -35q-26 0 -41 35q2 14 6.5 29t8.5 26t11.5 27.5t11 23.5t13.5 26t12 24q189 363 439 704q21 27 90.5 120t105.5 136q2 3 2 10t2 11q-14 2 -39 2h-145q-94 0 -151 14q-40 8 -58 8q-15 0 -47 -8q-21 -12 -51 -57q-19 -22 -41 -25q-30 2 -37 37q0 14 4 20q28 76 78 109
q23 6 70 6q36 0 110 -12q61 -10 152 -10q21 0 64.5 1t66.5 1q36 4 110 28l72 25q15 -12 27 -21q5 -10 8 -28q-1 -2 -4 -9t-5.5 -12.5t-6.5 -9.5q-70 -72 -151.5 -176.5t-129 -171t-133.5 -191.5q-137 -191 -244 -381q-35 -67 -83 -161.5t-54 -106.5q-15 -33 -37 -43h-6z" />
    <glyph glyph-name="eight" unicode="8" horiz-adv-x="720" 
d="M297 -25q-3 1 -11 3t-16.5 3.5t-15.5 2.5q-51 6 -87 46.5t-42 100.5q0 4 -1 13.5t-1 13.5q0 23 6 41q12 61 42.5 127.5t68.5 113.5q72 87 88 103q115 126 219 202q2 1 4 3.5t5.5 6.5t6.5 7q0 5 1 17t1 18q-1 25 1 53.5t3.5 46t6.5 54t6 48.5q6 45 27.5 107.5t43.5 97.5
q69 116 199 113q5 0 14 -2t13 -2q45 -24 63.5 -39.5t33.5 -42.5t40 -94q15 2 35.5 19.5t29.5 21.5q26 4 39 0q1 -1 2.5 -1.5t2.5 -1l2 -1t2.5 -2t3 -3.5t3 -5t4 -7t5.5 -10q-3 -4 -8 -16t-9 -17q-16 -18 -49 -43q-32 -27 -109 -97t-138 -121.5t-113 -88.5q-38 -23 -53 -49
q-3 -12 -4 -27t-1 -26.5t0.5 -30t0.5 -27.5q0 -123 -41 -328q-10 -51 -46 -118q-76 -152 -245 -176q-4 0 -15 -3t-18 -4zM672 842q19 5 24 10q77 55 211 182l19 25q2 14 2 37q0 84 -60 133q-5 1 -16.5 3.5t-17.5 2.5q-50 0 -89 -45q-23 -20 -47 -82q-16 -56 -27.5 -128.5
t-8.5 -121.5q0 -9 10 -16zM311 63q83 0 148 68q15 15 35 47q53 97 65 205q6 45 6 143v97q1 3 -3 7.5t-5 6.5q-7 0 -12.5 -3t-13.5 -10t-9 -8q-47 -34 -88 -76t-96 -106q-70 -80 -117 -203q-14 -44 -14 -69q0 -21 4 -29q0 -2 1 -8.5t1 -9.5q12 -28 43 -43q30 -9 55 -9z" />
    <glyph glyph-name="nine" unicode="9" horiz-adv-x="804" 
d="M1147 1221q19 -15 10 -50q-9 -21 -40.5 -65t-43.5 -66q-77 -123 -92 -147q-3 -12 -10 -36.5t-10 -37.5q-2 -8 -9 -22.5t-8 -16.5q-37 -32 -53 -51q-18 -26 -45 -74q-25 -49 -97 -187.5t-135.5 -260.5t-99.5 -191q-6 -10 -27 -49t-34 -57q-13 -10 -33 -10q-33 0 -33 43
q2 4 6 14.5t7.5 19t7.5 15.5q32 59 116 222.5t164 315.5q27 52 80.5 150t75.5 139q3 6 5.5 18.5t4.5 16.5q-46 -30 -70 -51q-33 -26 -145 -92q-44 -21 -98 -41q-21 -8 -47 -8q-54 0 -103 49q-10 7 -16 24q-9 23 -21 68q3 108 64.5 216.5t156.5 180t189 78.5q68 -9 127 -59
q8 -7 14.5 -14.5t13 -18t10 -16t9.5 -20t7.5 -18t8 -21.5t7.5 -19q5 2 15 5.5t13 6.5q20 20 66 70l28 36q13 13 37 13q17 0 27 -2zM850 967q15 12 37 39q0 47 -29 114q-35 68 -98 68q-17 0 -29 -2q-36 -8 -53 -21q-160 -92 -219 -256q-15 -47 -15 -75q0 -9 3 -26.5t4 -21.5
q2 -11 14 -30q17 -11 35 -11q17 0 32 9q133 56 207 120q55 44 111 93z" />
    <glyph glyph-name="colon" unicode=":" horiz-adv-x="331" 
d="M145 244q-12 8 -28 16q-4 18 -8 27q9 40 45 43q31 -12 37 -20.5t6 -39.5q-16 -26 -52 -26zM33 2q-29 9 -33 47q3 39 33 49l10 2q17 0 33 -16q14 -14 14 -37q-8 -27 -18 -35q-12 -14 -39 -10z" />
    <glyph glyph-name="semicolon" unicode=";" horiz-adv-x="331" 
d="M145 244q-12 8 -28 16q-4 18 -8 27q9 40 45 43q31 -12 37 -20.5t6 -39.5q-16 -26 -52 -26zM31 -80q-11 0 -17 6.5t-14 24.5q0 10 2 16l37 58q14 31 20 57q16 18 39 18q13 0 17 -4q12 -18 24 -33q-3 -12 -8 -33t-8 -30q-31 -54 -64 -74q-5 -1 -11.5 -2.5t-10.5 -2.5t-6 -1
z" />
    <glyph glyph-name="less" unicode="&#x3c;" horiz-adv-x="878" 
d="M459 360q-10 0 -31 7q-124 64 -201 108q-41 18 -41 55q2 24 33 43q187 109 363 189q28 14 49 2q18 -13 14 -41q-3 -2 -6 -6.5t-6 -5.5q-37 -26 -70 -39q-179 -94 -274 -140q17 -16 33.5 -26.5t43.5 -24l33 -16.5q11 -8 33.5 -18t38 -21t23.5 -27v-6q0 -22 -25 -33h-10z
" />
    <glyph glyph-name="equal" unicode="=" horiz-adv-x="837" 
d="M317 582q-16 0 -25 1t-19.5 8t-16.5 21q0 30 33 41q24 4 33 4q31 -1 94 -2t94 -2q10 1 21 1t22 -0.5t14 -0.5q27 -13 37 -30q0 -17 -16 -33q-2 0 -12 -3t-17 -3q-41 0 -121 -1t-121 -1zM213 420q-25 10 -27 33q2 19 25 30q55 9 190 9q137 0 189 -9q13 -30 14 -32
q-14 -18 -16 -23q-62 -8 -94 -8q-9 0 -27.5 1t-34.5 1t-31 -2h-188z" />
    <glyph glyph-name="greater" unicode="&#x3e;" horiz-adv-x="749" 
d="M205 350q-19 11 -19 29q0 8 4 24q33 26 117 79.5t127 88.5q-23 48 -78 123t-71 103v14q0 24 18 33h31l26 -27l140 -203q16 -20 16 -43q0 -21 -10 -41q-130 -96 -275 -178q-3 -4 -13 -2.5t-13 0.5z" />
    <glyph glyph-name="question" unicode="?" horiz-adv-x="1009" 
d="M229 276q-19 1 -27.5 11t-11.5 32q15 25 25 35q29 27 80.5 78.5t94.5 92.5t83 75q69 62 199 186q64 61 100 140q21 38 21 73q0 17 -5 27q-3 28 -32 45q-24 4 -41 4q-49 0 -84 -18q-140 -58 -248 -205q-8 -9 -20.5 -29t-18.5 -28q-21 -9 -25 -9q-9 -2 -18 2q-13 9 -16 13
q-5 5 -9 16q0 10 3 19q1 1 7 18.5t11 24.5q95 147 262 237q88 47 176 41q17 0 37 -4q41 -10 68 -43t30 -76q4 -10 4 -35q0 -28 -14 -79q-39 -96 -96 -156q-101 -113 -199 -193q-98 -84 -239 -225q-41 -41 -64 -57q-9 -7 -33 -13zM90 57q-41 10 -41 43q3 33 31 47q6 3 16 3
q24 0 35 -17l2.5 -7.5t2.5 -8.5t1 -8q0 -9 -8 -29q-13 -23 -39 -23z" />
    <glyph glyph-name="at" unicode="@" horiz-adv-x="1253" 
d="M475 -256q-135 -9 -235 78q-68 71 -99 168q-32 112 -32 213q0 133 55 274q112 287 338 465q129 104 278 133q33 8 74 8q19 0 55 -4q170 -30 219 -196q17 -77 17 -135q0 -62 -17 -142q-61 -261 -278 -432q-31 -25 -53 -34t-52 -9q-27 0 -43 2q-9 4 -16.5 8.5t-12.5 11
t-9 11t-7 14t-4.5 14t-3 16.5l-2 16t-1.5 18t-1 18q-15 -13 -44 -40t-46 -42t-43.5 -33t-52.5 -28q-8 -2 -23 -2q-18 0 -26 6q-45 18 -35 74q5 37 26 84.5t53.5 93t80 79t98.5 37.5q40 -16 65 -28q10 3 29 24t37 21q12 0 14 -4q16 -6 23 -43q1 -1 -2.5 -6t-9.5 -13.5
t-9 -15.5q-37 -73 -57 -178q0 -3 -1 -7.5t-1 -7.5q0 -14 10 -24l14 -4q9 0 25 8q10 4 20.5 11t16.5 12t19 15.5t18 14.5q203 188 227 457q5 65 -16 147q-24 74 -80 110.5t-141 29.5q-115 -11 -230 -82q-87 -57 -145 -121q-207 -224 -256 -459q-17 -69 -17 -149
q0 -88 25 -183q18 -60 59 -114q65 -77 156 -80q82 -3 145 18q139 48 234 146q45 49 131 147l4 5q5 5 5.5 6t4.5 5t6 5t5.5 4t6.5 4t7 2.5t8 1.5h8q12 -4 19 -14q2 -2 3.5 -11t2.5 -10q-5 -16 -6 -16q-98 -141 -215 -236q-143 -118 -320 -133zM457 199q109 71 188 186
q-9 25 -37 25q-60 -33 -95 -80.5t-56 -130.5z" />
    <glyph glyph-name="A" unicode="A" horiz-adv-x="892" 
d="M461 -182q-20 0 -33 26v25q11 38 40 133.5t44 147.5q18 64 63 214.5t76 257.5t33 121q-43 2 -164 2q-123 0 -180 -2q-159 -301 -272 -708q1 0 -9 -10q-9 -7 -22 -11q-26 3 -37 35q5 33 12 66t19.5 73t20 62.5t25.5 72.5t23 64q18 52 42 108t61.5 137t50.5 111
q-23 1 -66 2t-66 3t-30 6q-16 22 -16 32q0 15 8 23q2 1 7.5 4.5t8.5 3.5q66 0 99 -4h90q10 15 51 90q91 152 209 285q30 31 94 80q35 24 74 24q29 0 52.5 -16t35.5 -47q14 -55 14 -123q0 -136 -45 -289q18 1 66.5 2t62.5 2h15q51 -4 51 -37q0 -14 -16 -22t-27.5 -9t-20.5 -1
q-12 0 -20 -4q-15 0 -37 -1q-7 0 1 1h1h1h1h2q-12 0 -43 -1.5t-49 -1.5q-156 -569 -254 -874q-14 -42 -37 -51q-4 -2 -10 -2zM373 809q24 1 163 1.5t162 2.5q32 115 50 277v96q0 25 -19 37q-38 5 -86 -43q-133 -122 -270 -371z" />
    <glyph glyph-name="B" unicode="B" horiz-adv-x="1044" 
d="M940 961q-82 -123 -205 -240q-16 -14 -46 -42t-46 -42q11 -19 51 -23q75 -10 112 -69.5t30 -134.5q-6 -92 -45 -181q-128 -273 -324 -428q-121 -98 -231 -118q-52 -9 -72 -9q-64 0 -114 41.5t-50 110.5q0 26 14 70q17 60 82 143l33 35q29 29 39 80q27 148 94 321
q29 77 81.5 224.5t78.5 215.5q65 180 166 353q5 7 19 29t22 32q18 28 49 31q40 -3 43 -55q-57 -55 -94.5 -125.5t-77.5 -173.5q10 5 18 13t17 20.5t14 17.5q100 120 197 182q66 47 131 47q23 0 47 -6q56 -21 63 -94q-15 -100 -96 -225zM459 606q287 178 450 453
q28 46 41 106q4 6 4 17q0 17 -16 28h-8q-1 0 -31 -6q-61 -19 -137 -88q-184 -173 -354 -495q-6 -24 0 -31h8q19 0 43 16zM684 539q-62 4 -88 4q-93 0 -150 -37q-19 -12 -96 -45q-47 -117 -74 -258q12 5 28 13l22 11q81 45 196 84q3 1 12.5 3.5t14.5 2.5q27 0 41 -22
q12 -20 0 -35q-12 -17 -49 -24q-88 -27 -215 -99q-53 -28 -82 -71q-14 -60 -25 -115q-12 -55 -49 -55h-2q-11 0 -24.5 15.5t-28.5 14.5q-3 -8 -12.5 -25t-12.5 -26q-7 -13 -12 -45q3 -42 41 -66q40 -8 61 -8q69 0 154 47q182 106 321 342q72 112 97 224q1 5 4.5 26t3.5 31
q0 51 -35 92q-4 2 -11.5 7t-15 8.5t-14.5 5.5z" />
    <glyph glyph-name="C" unicode="C" horiz-adv-x="897" 
d="M293 -178q-31 0 -77.5 10t-70.5 23q-85 56 -122 170q-23 79 -23 165q0 55 4 82q21 155 81.5 341t135.5 313q74 125 180 223q102 94 242 94q98 0 143 -80q37 -50 37 -129q0 -9 -6 -57q-28 -108 -59 -141q-11 -11 -29 -11q-30 0 -43 29q2 19 25 66q22 56 24 81
q1 5 2.5 15.5t2.5 18.5t1 14q0 47 -32 90q-28 32 -86 32q-53 0 -95 -26q-121 -76 -217 -225q-68 -106 -129 -270.5t-88 -305.5q-16 -88 -16 -164q0 -72 12 -121q18 -75 71 -119t140 -44q106 5 197 57q71 36 170 131q76 76 141 168q21 23 41 49.5t29.5 35.5t21.5 9
q13 0 25.5 -8t11.5 -19q0 -12 -12 -32q-116 -163 -226 -273q-74 -74 -180 -131q-111 -61 -227 -61z" />
    <glyph glyph-name="D" unicode="D" horiz-adv-x="987" 
d="M848 1219q162 -18 153 -230q-12 -148 -73 -293q-116 -290 -312 -475q-38 -38 -124 -104q-141 -106 -299 -117q-4 0 -17 2t-18.5 2.5t-17.5 2.5t-19 4t-18 5t-18.5 6.5t-16.5 8t-17 10.5q-24 14 -39 31q-20 17 -8 45q9 14 29 14q12 0 24 -6q9 -2 23 -12t20 -13
q55 -20 97 -20q27 0 69 10q108 31 228 125q341 290 424 737q4 32 4 54q0 6 -1 18t-1 18q0 28 -8.5 43t-39.5 48q-16 8 -43 8t-75 -19q-56 -24 -103 -65q-64 -61 -116 -125q-214 -273 -320 -596q-7 -24 -22 -71.5t-21 -69.5q-21 -24 -39 -29q-31 0 -41 33q0 3 -1 7t-1 7
q0 9 16 57q153 480 332 852q30 58 80 142q10 16 35 41h22q21 0 35 -19q4 -6 4 -14q0 -9 -12 -25q-45 -62 -117 -215q-16 -27 -18 -51l33 33q13 13 38.5 41.5t39.5 42.5q127 113 262 123q4 0 8 -2zM840 1221z" />
    <glyph glyph-name="E" unicode="E" horiz-adv-x="1046" 
d="M256 -395q-144 0 -241 84t-97 227q0 41 2 61q20 143 103 291q71 121 143 193q110 110 221 143q13 4 96 19q10 2 41 2q33 0 47 -2q-30 71 -53 161q-20 85 -20 181q0 181 59 305q68 140 166 211q36 29 82 51q40 18 94 18q58 0 110 -29t81 -69q37 -51 55 -117
q12 -53 12 -112q0 -36 -2 -52q0 -32 -14 -41q-6 -1 -15 -3.5t-12 -2.5q-8 0 -27 13q-12 24 -12 49q0 8 2 24.5t2 24.5q0 95 -45 166q-50 74 -133 74q-33 0 -76 -17q-71 -31 -129 -106q-125 -168 -125 -394q0 -97 27 -196q8 -28 25 -83t24 -81q-7 -25 -16 -37.5t-31 -19.5
q-30 0 -57 8q-36 6 -37 6q-29 0 -82 -16q-74 -23 -121.5 -57t-97.5 -89q-94 -99 -164 -256q-49 -116 -49 -235q1 -69 40.5 -122.5t97 -79.5t118.5 -26q42 0 103.5 12.5t99.5 32.5q161 82 278 215q31 37 120.5 161.5t135.5 191.5l29 35q37 47 61 30q17 -3 17 -18
q0 -22 -45 -86l-105 -148q-142 -204 -276 -323q-103 -95 -267 -156q-41 -16 -143 -16z" />
    <glyph glyph-name="F" unicode="F" horiz-adv-x="757" 
d="M270 -162q-31 12 -39 37q6 32 31.5 89t32.5 79q23 88 59 180q10 34 36 108.5t40 117.5q3 11 43.5 124t46.5 154q-14 -1 -59.5 -16.5t-97 -28.5t-89.5 -10q-27 21 -16 47q2 1 6.5 7.5t7.5 8.5q18 9 40 16t51 15t43 12q13 4 73.5 23.5t79.5 25.5q1 4 17.5 51t19.5 55.5
t17 50t18 55.5t14.5 50.5t15 56.5t11.5 51t11 58t7 54v10q0 17 -10 27q-12 6 -23 6q-21 0 -47 -15q-35 -12 -152.5 -96.5t-170.5 -128.5q-83 -62 -148 -127q-27 3 -34 6t-21 17q-2 6 -2 16q3 36 33 57q23 17 84 67.5t142.5 112.5t176.5 123q74 50 131 50q26 0 56 -9
q54 -18 65 -90q-2 -15 -4 -44t-4 -44q-13 -94 -78 -299l-25 -86q0 -8 7 -8q14 0 26 4q112 26 195 51q4 0 12 1t12 1q24 0 41 -12q11 -22 6 -41q-1 0 -9 -7.5t-13 -8.5q-19 -5 -51.5 -14t-50.5 -14t-23 -9l-184 -49q-15 -22 -37 -94q-27 -77 -217 -623q-32 -94 -58 -145
l-9 -24t-13 -18t-23 -14z" />
    <glyph glyph-name="G" unicode="G" horiz-adv-x="1218" 
d="M-231 -1008q-119 9 -172 107q-48 88 -48 178q0 39 9 76q60 329 311 532q303 242 713 371q115 37 215 53q3 0 53 19q28 48 84 188q88 211 131 361q1 10 5.5 31t4.5 34q0 15 -2 23q-16 4 -18 4q-20 0 -41 -21q-174 -133 -262 -235q-31 -37 -66 -75t-82 -87.5t-69 -73.5
q-53 -56 -117 -86q-39 -22 -72 -22q-71 0 -86 100q0 6 -2 16t-2 15q0 6 1 13t2.5 15t2.5 13q22 119 76 207q111 177 270 292q59 36 86 47q61 21 101 21q85 0 157 -66q7 -3 25 -18q15 5 41.5 16t40.5 15q8 2 24 2q31 0 52.5 -20t25.5 -56q0 -47 -12 -90q-23 -98 -117 -348
q-9 -25 -29.5 -72t-29.5 -72q-9 -18 -23 -53q32 -8 43 -8q20 0 55 7t52 7q6 0 37.5 3t48.5 3q33 0 49 -6q21 -10 18 -39q-11 -7 -22 -24q-40 -5 -324 -41q-25 -45 -71 -139q-168 -351 -359 -631q-127 -191 -280 -307q-170 -136 -338 -172q-50 -10 -90 -7zM367 453
q10 0 26 12q46 24 76 61q40 41 178 189q164 176 254 252q-7 44 -57 51q-24 8 -60 8q-57 0 -104 -33q-197 -131 -301 -338q-45 -91 -37 -163q0 -27 12 -35q2 0 6.5 -2t6.5 -2zM-197 -926q65 0 131 31q105 43 187 102q162 122 295 318q178 257 379 678q5 19 6 20q-6 6 -8 6
q-473 -101 -842 -379q-246 -190 -305 -454q-13 -60 -13 -115q0 -32 5 -57q7 -98 81 -142q44 -8 84 -8z" />
    <glyph glyph-name="H" unicode="H" horiz-adv-x="980" 
d="M502 -350q-24 0 -35 28q0 37 18 86q23 78 217 730q1 4 6.5 17t6 17t3 18t-2.5 19q-41 2 -187.5 -9t-199.5 -21q-74 -195 -166 -537q-16 -24 -53 -14q-7 0 -13 26q0 2 -1 6.5t-1 8.5t2 8q37 168 115 391q3 11 11 34t12 41t4 36q-16 4 -52 4q-9 0 -43.5 -1t-49 0t-39.5 6
t-44 15q-10 17 -10 33q0 25 31 37q113 -17 172 -17q35 0 53 2q9 5 15.5 12t11.5 18t7 15.5t6.5 20t4.5 16.5q21 53 141 383q11 29 60 133q0 1 4.5 10t5 11t4.5 10t6 10.5t6 9t7 10t7 8t9 7.5q12 6 24 6q27 0 37 -30q-37 -69 -74 -155.5t-58.5 -145t-59.5 -165.5t-53 -149
q4 -20 26 -20q50 2 106 5t123.5 7t106.5 6q7 0 16 6q6 5 10 12t8 22.5t5 17.5q124 386 289 788q19 44 53 121t47 106q23 45 45 58q10 10 27 10q14 0 24 -10q1 -4 4 -10.5t3 -8.5q0 -10 -9 -28q-187 -367 -393 -996q-2 -4 -7 -17t-6 -17.5t-3 -18t2 -18.5q8 -11 33 -14.5
t38 -16.5q9 -5 9 -17q0 -4 -9 -26q-14 -10 -49 -10q-7 0 -23 -3.5t-24 -3.5q-10 -9 -17 -21.5t-9.5 -19.5t-8 -26t-6.5 -23q-88 -290 -145 -485l-86 -291q-13 -43 -33 -53q-2 0 -6 -2t-6 -2z" />
    <glyph glyph-name="I" unicode="I" horiz-adv-x="851" 
d="M1286 1276q64 0 78 -41v-8q0 -17 -18 -31q-8 -2 -25 -2q-9 0 -27 1t-28 1q-59 -2 -181 -2q-135 0 -223 -45q-76 -173 -82 -188q-45 -110 -59 -150q-13 -33 -47 -129q-76 -200 -256 -707q-13 -36 -37 -106q37 0 97.5 11.5t74.5 13.5q23 1 66 11.5t65 10.5q3 0 33 -6
q27 -24 12 -51q-7 -6 -14 -10t-17.5 -7t-15 -4.5t-18.5 -4t-17 -3.5q-37 -5 -109.5 -17.5t-109.5 -17.5q-14 -3 -39 -8.5t-35 -7.5q-14 -18 -22.5 -50t-19.5 -60t-33 -44q-32 6 -39 25q-6 21 4 54.5t10 47.5q-15 14 -39 4q-86 -17 -180 -43q-32 11 -35 35q6 20 8 21
q13 20 53 32q22 4 76.5 16.5t85.5 16.5q45 8 72 27q93 246 285 786h-2q37 102 57 154l4 10q48 125 135 334q-8 18 -37 18q-66 -2 -211 -30q-6 -1 -19.5 -3.5t-19 -3t-16.5 1.5q-22 10 -29 27v8q0 14 9 23q31 23 84 26q223 33 280 35q16 12 28.5 36.5t26 44t35.5 26.5h6
q22 0 39 -29v-57q30 -6 60 -6q46 0 82 8q76 10 194 6z" />
    <glyph glyph-name="J" unicode="J" horiz-adv-x="1107" 
d="M-145 -950q-105 0 -199.5 58.5t-138.5 152.5q-29 54 -29 123q0 11 1 22t2.5 24t2.5 21q54 349 346 531q98 59 260 118q241 95 549 162l74 14q68 222 76 256q81 273 180 629q30 93 72 209q9 27 21.5 43t37.5 23q43 -6 37 -62q-37 -42 -64 -135q-20 -70 -69 -240.5
t-76 -261.5q-18 -62 -55 -184t-54 -184l-22 -76q106 26 160 35q27 4 69 13.5t62 12.5h10q25 0 33 -32q-1 -1 -2.5 -8t-3.5 -11q-5 -7 -12.5 -11.5t-25 -9.5t-20.5 -6l-223 -49q-53 -13 -72 -16q-22 -64 -28 -80q-117 -330 -230 -541q-120 -224 -262 -352
q-165 -146 -344 -182q-34 -6 -63 -6zM-164 -870q88 -6 174 32q153 69 260 191q116 128 201 297q114 224 205 497q3 5 7.5 19t8.5 22q-317 -58 -641 -186q-105 -41 -203 -108q-255 -179 -282 -492q-10 -74 26 -125q92 -142 244 -147z" />
    <glyph glyph-name="K" unicode="K" horiz-adv-x="866" 
d="M764 -297q-22 0 -35 16q-15 13 -35 45q-178 242 -276 529q-40 117 -90 237q-2 12 -19 37q-30 -52 -112 -271.5t-131 -379.5l-12 -7q-12 -7 -19 -9q-17 9 -27 16q-1 2 -4.5 11t-3.5 14q2 44 35 133q102 276 180 491q30 74 41 109q-5 31 -34 72.5t-32 48.5q0 25 17 34
q9 7 29 7q6 0 34.5 -4t32.5 2q12 5 18.5 15.5t12 27.5t8.5 24q21 57 64 181t67 188q3 10 21 47q12 24 36 33q36 -6 41 -50q-18 -39 -34.5 -79t-36 -93t-28.5 -79t-32 -95.5t-28 -83.5q16 -8 22 -8q3 0 27 6q160 51 287 154q124 95 245 213q34 34 56 43q37 0 43 -27
q-1 -3 -2.5 -11t-2.5 -11q-25 -29 -40 -51q-151 -144 -269 -230q-148 -111 -319 -160q-14 -2 -39 -10t-35 -10q-16 -14 -25.5 -42.5t-9.5 -29.5v-8q0 -10 2 -18.5t5.5 -17.5t4.5 -13q65 -142 130 -322q99 -303 309 -571q2 -6 2 -10q0 -15 -17 -29q-16 -4 -22 -4z" />
    <glyph glyph-name="L" unicode="L" horiz-adv-x="534" 
d="M580 1366q26 -17 26 -45q0 -22 -8 -41q-46 -22 -86 -109q-12 -27 -54 -117.5t-63 -138.5q-85 -201 -133 -333q-107 -292 -141 -443q-7 -28 -39 -190q-4 -28 -4 -55q0 -31 8 -50q31 -10 82 -10q21 0 60.5 2t56.5 2q144 0 190 15q29 -7 33 -27q0 -33 -27 -45
q-47 -12 -49 -12q-42 -3 -142.5 -7.5t-142.5 -7.5h-32q-55 6 -77.5 25.5t-37.5 75.5q20 288 168 686q52 146 117 311q1 3 20 47q3 10 11 27.5t10 23.5q37 83 90 197q7 14 23.5 46.5t26 50.5t25 43.5t29.5 45.5q23 38 60 33z" />
    <glyph glyph-name="M" unicode="M" horiz-adv-x="1300" 
d="M934 -72q-67 0 -92 70q-19 48 -19 108q0 48 8 84q7 42 27 122.5t23 95.5q2 8 2 20h-9q-8 0 -24 -16q-92 -73 -174 -207q-2 -3 -11.5 -18.5t-14 -22t-14.5 -15t-22 -12.5q-2 0 -6 -2t-6 -2q-17 0 -37 23q0 6 -4 30q-1 23 1 50.5t5 44.5t10 51t9 47q20 144 67 377
q14 94 19 155q0 2 2 5t2 4q0 10 -12 22q-18 -2 -54 -33q-193 -163 -311 -385q-86 -158 -172 -399q-1 -4 -9 -26t-11 -29.5t-9.5 -24t-13 -28.5t-14.5 -23q-15 -10 -31 -10q-15 0 -25 10q-1 3 -4.5 7t-3.5 7q-6 30 -6 33q0 10 3.5 31t4.5 26q96 571 373 1112q57 109 82 150
q13 24 18.5 33.5t17.5 25.5t25 25q8 4 23 4q25 0 33 -25q0 -17 -17 -47q-232 -375 -383 -858q-10 -50 -10 -67q25 45 109 188q132 216 303 344q50 41 102 43q61 -3 61 -74q0 -86 -8 -131q-23 -151 -69 -401q0 -1 -6 -86q11 5 19 12t18.5 22t11.5 17q61 67 129 115
q33 26 61 26q30 0 53 -26q11 -22 11 -49q0 -12 -2 -24.5t-6.5 -29.5t-6.5 -26q-3 -14 -22.5 -95.5t-26.5 -125.5l-2 -35q0 -40 19 -99q16 -8 30 -8q15 0 27 6q27 11 65 49q105 100 234 265q24 24 37 24q11 0 24 -16q6 -24 -6.5 -48.5t-54.5 -76.5q-78 -102 -172 -193
q-8 -8 -24.5 -22.5t-24.5 -22.5q-54 -45 -119 -45z" />
    <glyph glyph-name="N" unicode="N" horiz-adv-x="874" 
d="M453 -350q-24 0 -37 37q23 221 69.5 401t139.5 453q69 178 90 297q12 50 12 73q0 21 -4 29q-16 8 -21 8q-6 0 -12 -3t-12 -7.5t-8 -5.5q-58 -36 -119 -90q-209 -192 -344 -500q-77 -176 -117 -299q-5 -19 -9 -29t-14.5 -21.5t-25.5 -15.5q-22 0 -35 23q-6 15 -6 33
q0 11 4 31.5t4 23.5q63 358 195 717q92 254 159 393q1 2 7.5 16t9 18.5t9 15.5t11 16.5t12 12.5t15.5 11q6 4 14 4q14 0 25 -14q4 -16 4 -23q0 -13 -16 -45q-84 -172 -117 -262q-24 -67 -55 -151.5t-42.5 -116.5t-26 -76.5t-21 -74t-11.5 -68.5q3 7 17.5 33.5t33.5 58.5
t23 39q132 216 295 348q18 15 54 38.5t42 27.5q33 20 76 20q11 0 35 -4q49 -29 49 -90q0 -25 -2 -37q-14 -97 -35 -168q-12 -35 -36 -104.5t-36 -104.5q-58 -149 -115 -360.5t-75 -356.5q-17 -102 -17 -104q-3 -19 -9 -27t-27 -20z" />
    <glyph glyph-name="O" unicode="O" horiz-adv-x="1097" 
d="M291 -174q-97 0 -172 78q-80 80 -103 209q-16 94 -16 182q0 116 31 264q46 244 194 455q102 136 207 192q8 4 21.5 14.5t21.5 14.5q5 9 23 45.5t30 54.5q32 60 99 117q62 55 139 55q89 0 160 -80q41 -48 61 -106q40 -105 53 -238q20 -412 -209 -802q-123 -203 -233 -304
q-67 -67 -127 -100q-59 -36 -145 -49q-10 -2 -35 -2zM299 -98q47 0 76 14q53 18 104 57q91 69 158 152q149 193 246 434q82 204 82 422q0 123 -27 246q-18 98 -86 166q-38 41 -86 41q-32 0 -70 -23q-83 -52 -123 -158q97 -29 132.5 -55t48.5 -78q-3 -30 -35 -33
q-18 4 -38 29t-34 31q-34 24 -69 24q-18 0 -37 -8q-19 -62 -19 -114q0 -20 3 -63t3 -66q-4 -82 37 -246l-18 -19q-3 -1 -11 -1t-12 -1q-17 7 -28 22.5t-14 25.5t-9 34q-24 147 -24 271q0 57 2 86q7 13 -5 22q-4 2 -12 2q-5 0 -10 -3t-10.5 -8.5t-7.5 -6.5q-86 -68 -170 -211
q-143 -237 -162 -551q-4 -117 12 -186q23 -116 68 -175q61 -73 145 -73z" />
    <glyph glyph-name="P" unicode="P" horiz-adv-x="606" 
d="M29 -170q-25 9 -29 39q77 318 172 696q-36 24 -58 67t-22 87q0 28 8 49q11 29 40.5 57.5t58.5 34.5q6 -1 18.5 -4t20.5 -4q20 43 45 131t41 131q-13 -5 -25.5 -10.5t-21.5 -9.5t-21 -11.5t-18 -10.5t-19 -12.5t-16 -11.5t-18 -13t-17 -13q-12 -13 -51 -55t-58 -64
q-29 9 -35 14t-14 27q0 11 6 14q13 33 58 82q189 173 428 244q62 12 121 12q49 0 90 -8q66 -12 103 -57.5t36 -114.5q0 -135 -80 -242q-122 -195 -344 -292q-73 -33 -178 -27q-5 -33 -58 -234t-57 -229q-35 -151 -57 -223q-7 -29 -33 -39h-16zM270 625q75 0 125 20
q226 88 344 322q33 71 35 120q12 122 -108 134q-14 2 -35 2q-53 0 -137 -25q-71 -18 -91 -84q-52 -179 -120 -434q0 -8 -13 -55zM197 672q1 16 8 45.5t10 52.5q-33 -23 -33 -57q0 -15 15 -41z" />
    <glyph glyph-name="Q" unicode="Q" horiz-adv-x="1216" 
d="M791 -557q-38 5 -56 53q-23 52 -33 90q-14 47 -41 140.5t-40 140.5q-13 44 -31 53q-2 0 -6 2q-8 1 -15.5 -2.5t-16.5 -10t-15 -9.5q-43 -22 -125 -41q-60 -11 -99 -6q-94 11 -172 96q-94 102 -121 233q-41 186 -4 373q51 236 160 406q127 186 303 280q89 43 172 35
q22 -4 35 -8q3 0 31 -4q11 6 39.5 23t48 27t39.5 17q61 27 112 21q91 -12 140 -109q50 -100 53 -203q5 -89 -12 -194q-27 -180 -123 -379q-104 -219 -236 -369q-14 -17 -31 -35.5t-38.5 -39.5t-32.5 -33q-5 -27 12 -92q49 -161 103 -330q4 -18 22 -45.5t23 -38.5
q-15 -28 -35 -43q-1 0 -4.5 1t-5.5 1zM651 76q50 41 84 86q82 109 117 164q129 205 188 422q15 48 21 104q26 164 -10 299q-13 47 -33.5 77t-65.5 46q-104 0 -159 -55q-15 -15 -23 -40t-16 -32q-8 -9 -30 -12t-36 -17q-94 -137 -121 -313q-4 -34 -8 -90q-16 -216 55 -549
q9 -47 37 -90zM340 -74q135 -16 229 94q-9 43 -30.5 133.5t-30.5 137.5q-27 155 -27 348q-3 89 11 170q27 179 124 338q21 29 21 47q-3 2 -21 6q-25 3 -49 -6q-69 -26 -135 -72q-145 -102 -227 -264q-95 -173 -121 -342q-13 -91 -10 -207q9 -171 112 -297q64 -76 154 -86z
" />
    <glyph glyph-name="R" unicode="R" horiz-adv-x="995" 
d="M1008 352q30 -3 30 -30q0 -12 -10 -27q-7 -9 -23.5 -28.5t-23.5 -28.5h-2q-11 -12 -37.5 -42t-47 -52.5t-38.5 -39.5q-34 -34 -119 -86q-57 -36 -133 -36q-95 0 -174 61q-79 58 -139 154q-54 84 -86 157q-11 -23 -19 -43q-6 -18 -32.5 -102.5t-42.5 -128.5
q-5 -18 -17 -50.5t-16 -43.5q-9 -24 -33 -33h-8q-19 0 -29 16q-8 24 -8 33q0 21 12 53q48 160 111 324q38 101 41 110q-8 36 -8 52q0 53 53 80q84 232 156 397q79 182 163 328q2 3 6.5 12t6.5 12.5t6.5 10.5t8 10.5t8.5 8t11 7t13 4.5h6q20 0 33 -25v-12q-12 -23 -33 -65
q-50 -92 -59 -111q64 41 127 55q62 27 124 27q83 0 137.5 -47.5t51.5 -134.5q0 -38 -13.5 -112t-31.5 -109q-137 -271 -410 -351q-46 -12 -94 -12q-18 0 -39 2t-46 5.5t-40 4.5q-12 -5 -20.5 -15t-16.5 -25t-10 -19q0 -3 -1 -7t-1 -7q0 -8 14 -45q39 -105 115 -218
q56 -79 125 -118q42 -25 88 -25q43 0 76 16q73 30 137 87q73 77 86 94h2q7 9 23.5 28.5t23.5 28.5q43 54 66 51zM360 811q-11 -29 -23.5 -61t-18.5 -47.5t-13.5 -39t-13.5 -51.5q46 -22 127 -22q32 0 53 6q227 46 365 262q30 46 47 115q18 55 18 106q0 117 -119 117
q-66 0 -145 -31q-86 -38 -158 -98l-20 -20q-63 -137 -99 -236z" />
    <glyph glyph-name="S" unicode="S" horiz-adv-x="1400" 
d="M293 -702q-21 0 -53 8q-67 24 -76 98v16q0 33 14 80q41 127 144 236q129 138 299 239q87 54 315 172q27 14 76.5 39t66.5 33q21 51 21 86q0 33 -21 94q-33 43 -82 43q-60 3 -106 -10q-158 -48 -352 -131q-31 -14 -100.5 -46.5t-108.5 -49.5l-131 -49q-37 -12 -78 -9
q-107 3 -119 101q-2 16 -2 47q0 42 14 100q38 126 119 250q153 215 303 354q148 138 301 207q108 54 228 66q69 6 135 -19q133 -46 168 -215q0 -6 1 -16.5t1 -15.5q0 -26 -8 -39q-23 -29 -50 -11q-2 2 -14 19q-5 35 -16 80q-39 130 -172 139q-65 5 -160 -25
q-158 -55 -301 -178q-237 -204 -383 -444q-72 -123 -84 -221q-2 -12 -2 -31q0 -36 16 -57q24 -9 45 -9q29 0 72 15q112 45 186 82q136 63 396 159q34 12 125 37q16 4 53 4q35 0 51 -4q62 -12 100.5 -52.5t44.5 -102.5q2 -16 4.5 -48.5t4.5 -48.5q37 10 108 48t113 44
q32 0 41 -28q0 -1 -6 -23q-17 -21 -56 -35l-223 -110q-88 -194 -117 -248q-126 -221 -293 -383q-119 -110 -262 -180q-58 -31 -164 -53q-10 -4 -26 -4zM289 -621q22 0 65 13q86 19 213 102q207 147 351 375q83 139 116 229q-8 -3 -14.5 -4.5t-12 -2t-8.5 -1.5
q-205 -100 -344 -186q-166 -100 -301 -250q-89 -100 -114 -227q7 -30 24 -43q10 -5 25 -5z" />
    <glyph glyph-name="T" unicode="T" horiz-adv-x="665" 
d="M276 -96q-32 6 -32 39v10q0 21 4 31q101 447 131 573q29 109 72.5 248.5t78.5 226.5q3 13 12 36t13 36q-33 5 -196.5 -15.5t-182.5 -17.5q-33 -17 -55 -31q-14 2 -47.5 9.5t-50.5 9.5q-32 23 -19 53q19 23 72 27q14 2 438 43q38 3 59 10.5t62 30.5h8q9 0 26.5 -8.5
t22.5 -10.5q116 10 393 39q21 -5 31.5 -12.5t11.5 -24.5q0 -23 -26 -37q-42 -5 -135 -15.5t-172.5 -19.5t-141.5 -14q-22 -44 -49 -114q-46 -112 -95.5 -281t-80.5 -307l-98 -432q-9 -36 -15 -54q-11 -22 -39 -28z" />
    <glyph glyph-name="U" unicode="U" horiz-adv-x="1120" 
d="M106 -248q-12 0 -36 4q-70 33 -70 154q0 21 1.5 44.5t5.5 52t7 48t8.5 55.5t8.5 52q34 193 215 676q39 109 135 336q20 61 45 81q18 9 29 9q14 0 28 -21q0 -2 1 -6t1 -6.5t-2 -3.5q-27 -68 -51 -121q-123 -280 -262 -698q-62 -187 -90 -457q-6 -48 -6 -57q0 -56 28 -68
q4 -3 12 -1t12 2t11.5 5l10.5 7t10.5 8.5t10.5 9.5t9.5 10t9.5 10q78 73 162 186q88 115 240 361q57 94 217 338q23 49 51 59q3 0 7 2t7 2q24 0 33 -24v-25q-83 -214 -90 -235q-92 -236 -139 -428q-21 -106 -23 -121q-5 -33 4 -74t27 -47q56 -10 174 131q70 83 133 170
q14 18 50.5 70t57.5 76t36 28q26 0 26 -20q0 -17 -13 -43.5t-46 -73.5t-52 -72t-69 -90q-53 -65 -71 -86.5t-54.5 -59t-65.5 -56t-65 -31.5q-24 -4 -31 -4q-49 0 -71 28q-37 51 -37 146q0 75 20 153q10 37 33 110.5t33 110.5q12 40 12 70q-5 -8 -74 -115
q-127 -204 -241 -348q-88 -110 -156 -168q-55 -45 -107 -45z" />
    <glyph glyph-name="V" unicode="V" horiz-adv-x="604" 
d="M106 -178q-61 -3 -75 63q-23 90 -25 140q-6 47 -6 137q0 123 14 205q26 187 68 376q8 39 27 108t24 91q2 5 6 14.5t6.5 14.5t7 12t11 12.5t14.5 10.5h8q32 0 45 -33q0 -3 2.5 -7.5t2.5 -7.5q0 -13 -17 -38q-24 -21 -37 -82q-106 -419 -106 -717v-24.5v-26t0.5 -24.5
t1 -26t2 -24t3.5 -25.5t5.5 -23t7.5 -23.5q21 0 35 33q6 14 17.5 39t21 46t16.5 40q201 542 484 1218q5 10 12 29.5t12 31t14 26t21 24.5q11 8 25 8q19 0 26 -20q0 -2 1.5 -7t1.5 -9t-3 -7q-18 -50 -65 -155q-248 -599 -459 -1166q-33 -100 -78 -170q-28 -48 -72 -63z" />
    <glyph glyph-name="W" unicode="W" horiz-adv-x="1017" 
d="M510 -172q-55 0 -80 66q-44 102 -41 198q-4 142 -8 219q0 4 -10 11q-19 -23 -39 -52t-32.5 -50t-34.5 -57.5t-32 -53.5q-13 -20 -38 -66t-46 -77.5t-47 -53.5q-20 -8 -32 -8q-5 0 -14.5 2.5t-12.5 3.5q-43 31 -43 117q0 27 1 79t1 76q44 430 107 676q45 148 51 168
q13 45 39 55q6 2 14 2q22 0 33 -28q-59 -199 -72 -250q-8 -30 -15.5 -66.5t-12 -62.5t-12 -69.5t-11.5 -65.5q-15 -93 -31 -256q-18 -119 -18 -197q0 -40 2 -63q6 -2 10 -2q8 0 16 10l7 10q16 27 165 285q6 8 22 30.5t24.5 33.5t25 26t33.5 24q33 0 57 -24q25 -87 25 -205
q0 -132 31 -268q5 -27 20 -33h6q5 0 8.5 2.5t9.5 9.5t7 8q42 53 51 93q42 95 72 178q166 483 288 925q93 312 113 385q3 8 7 21.5t6.5 22t8 19.5t11.5 19q22 22 47 9q8 -16 8 -17q2 -8 2 -22q0 -20 -6 -35q-18 -62 -93 -321t-107.5 -369.5t-94 -303.5t-117.5 -348
q-4 -12 -15 -43.5t-16 -46t-15.5 -42.5t-18.5 -46t-19.5 -41.5t-23.5 -44.5q-2 -2 -9 -14t-10 -15.5t-9 -11.5t-12 -13t-13 -9q-29 -33 -68 -33z" />
    <glyph glyph-name="X" unicode="X" horiz-adv-x="808" 
d="M33 -369q-23 0 -33 35q10 38 27.5 80t41.5 93.5t35 78.5q19 48 60 136t57 126q14 32 54 118.5t61 135.5q0 30 -5 61.5t-14.5 72.5t-13.5 61q-49 284 -49 518q0 44 12 98q16 23 33 23q12 0 29 -17q8 -44 8 -104q0 -21 -1 -62t-1 -61q0 -56 8 -100q6 -37 19.5 -153
t27.5 -179h2q10 0 16 5t10.5 14.5t6.5 11.5q21 42 63.5 130.5t76 157t65.5 129.5q109 223 221 377q1 1 5 7.5t5 8l5 7.5t6 8t6 6.5t6.5 7t7 5.5t8.5 4.5t9 3t10 2.5q31 -3 36 -27q0 -24 -20 -47q-52 -67 -106 -156t-83 -144.5t-86 -168.5q-46 -92 -125 -255.5t-108 -221.5
q-2 -12 -2 -37q0 -34 13 -89.5t14 -62.5q7 -34 81 -366q7 -31 7 -56q0 -16 -2 -24q-19 -26 -39 -21q-23 10 -31 41q-16 68 -43 193q-31 149 -51 258q-11 -1 -18 -6.5t-9.5 -10.5t-5.5 -13.5t-4 -10.5q-44 -97 -123.5 -278t-116.5 -263q-15 -36 -26 -57q-15 -23 -37 -23z" />
    <glyph glyph-name="Y" unicode="Y" horiz-adv-x="1484" 
d="M-8 -1024q-112 0 -205 55q-66 36 -111 104t-45 150q0 66 39 142q44 85 117 147q157 141 399 270q420 230 807 359q11 2 45 16q46 82 127 369.5t80 363.5q-9 -4 -18 -11t-13.5 -11t-15 -16.5t-12.5 -14.5q-200 -228 -344 -457q-94 -151 -185 -239q-5 -4 -16.5 -16
t-21 -19.5t-19.5 -11.5q-27 -19 -59 -19q-65 0 -88 66q-19 63 -19 102q-7 100 25 244q36 173 157 481q61 149 152 320q23 53 57 65h4q21 0 33 -24q0 -17 -2 -23l-76 -156q-158 -321 -237 -616q-23 -92 -39 -195q-2 -16 -2 -47q0 -49 18 -123q1 -2 7 -7.5t8 -8.5h4q7 0 12 1
t10.5 4.5t8 5.5t8.5 7t8 7q69 66 153 192q143 208 181 262q117 160 272 328q18 21 26.5 30t27 20.5t38.5 14.5q46 -8 53 -63q0 -42 -12 -82q-94 -422 -176 -653q-7 -15 0 -25q25 6 27 6.5t10 3t12.5 4t32.5 10t70 21.5l168 45q51 11 51 -20q0 -15 -12 -32t-29 -26
q-89 -27 -195 -55q-121 -31 -182 -63q-2 -4 -13 -32.5t-18 -41.5q-53 -123 -74.5 -173t-67 -145.5t-87.5 -168.5q-139 -235 -273 -359q-219 -204 -493 -254q-41 -8 -88 -8zM-6 -948q69 0 137 22q269 71 467 297q96 111 195 285q76 138 204 436l3 6q2 7 1.5 10.5t-4.5 8.5h-8
q-19 0 -53 -17q-347 -123 -737 -331q-179 -103 -308 -203q-103 -79 -151 -170q-29 -53 -29 -111q0 -117 103 -180q46 -32 106 -45q50 -8 74 -8z" />
    <glyph glyph-name="Z" unicode="Z" horiz-adv-x="993" 
d="M74 -244q-23 0 -49 13q-25 16 -25 49q3 13 8 24.5t14.5 25t14.5 20.5t19 23.5t18 20.5q17 19 120 129.5t160 169.5q296 317 621 611q44 38 172 166q2 2 11.5 13t13.5 15.5t10.5 14t10.5 19.5t7 22q-30 12 -53 12q-6 0 -17 -2t-16 -2q-165 -5 -350 -76q-104 -47 -158 -57
q-27 7 -37 34q6 9 6 17q12 21 39 29q222 92 365 114q104 17 143 17q41 0 70 -7q38 -3 57 -22q28 -22 33 -59q-4 -41 -53 -105q-19 -21 -42.5 -45.5t-39.5 -40t-45.5 -43.5t-40.5 -39q-58 -57 -205.5 -196t-206.5 -195q-254 -251 -518 -547q-6 -3 -20 -26q10 -12 36 -3
q86 6 256 23t256 23q40 0 58 -2q24 -10 24 -33q-3 -32 -43 -35q-63 -11 -137 -14q-287 -18 -463 -52q-4 0 -12 -2t-12 -2z" />
    <glyph glyph-name="bracketleft" unicode="[" horiz-adv-x="612" 
d="M197 -117q-24 0 -47 13q-36 25 -33 63q0 17 8 49q50 189 154 516q10 32 42.5 143.5t53.5 170.5q92 290 139 401q13 32 19.5 46.5t22 39t34.5 41.5l51 16q1 0 15.5 -4t21.5 -8q16 -6 16 -29q-3 -15 -12 -23t-24 -14.5t-21 -11.5q-14 -14 -16 -22q-40 -82 -54 -125
q-57 -159 -118 -357q-90 -286 -138 -430q-19 -60 -56.5 -197.5t-49.5 -191.5l51 -18q2 -3 6.5 -11.5t9.5 -13.5q-6 -12 -10 -24q-22 -19 -55 -19h-10z" />
    <glyph glyph-name="backslash" unicode="\" horiz-adv-x="925" 
d="M633 -84q-13 5 -21 14.5t-17.5 31t-10.5 24.5q-110 225 -201 422q-167 345 -360 757q-35 83 -41 99q-9 18 -9 36q0 15 11 29q1 2 16 12q5 0 14.5 -2.5t12.5 -3.5q12 -16 16 -26q55 -134 171 -378t140 -298q49 -104 150.5 -313t150.5 -314q3 -6 11 -20t11.5 -25t2.5 -24
q-12 -29 -47 -21z" />
    <glyph glyph-name="bracketright" unicode="]" horiz-adv-x="598" 
d="M121 -113q-24 0 -55 17q-1 7 -5.5 16t-5.5 12q2 5 17 25q9 5 45 18q3 1 12 15q40 69 111 246q126 304 295 827q11 33 55 188q-5 15 -27 32t-22 36q2 13 11.5 23.5t22.5 11.5q8 4 25 4q32 0 62 -21q21 -21 18 -61q-3 -12 -8 -37t-8 -37q-20 -64 -57 -181.5t-50 -160.5
q-110 -335 -186 -518q-11 -28 -39 -102.5t-45 -114.5q-18 -41 -54.5 -116.5t-42.5 -88.5q-41 -33 -69 -33z" />
    <glyph glyph-name="asciicircum" unicode="^" horiz-adv-x="804" 
d="M213 1022q-18 0 -25 12q-2 6 -2 17q0 17 13 36q202 220 274 289q30 27 53 27q7 0 23 -4q26 -23 22 -56q-8 -45 -22 -104q-1 -10 -9 -54.5t-10 -68.5q-8 -30 -16 -37q-11 -8 -22 -8q-12 0 -25 8q-14 28 -14 49q0 19 10.5 65t9.5 75q-53 -47 -134 -137t-95 -105
q-24 -4 -31 -4z" />
    <glyph glyph-name="underscore" unicode="_" horiz-adv-x="727" 
d="M72 -168q-43 0 -70 21q-2 4 -2 12q0 16 20 29q96 18 146 21.5t266 6.5q62 -7 62 -37q-8 -19 -37 -30q-13 -2 -35.5 -6.5t-40.5 -7t-35 -3.5q-272 -6 -274 -6z" />
    <glyph glyph-name="grave" unicode="`" horiz-adv-x="1638" 
d="M186 614q-12 9 -28 17q-25 43 -60 166q12 24 15 28q1 2 3.5 4l5 4t3.5 3q2 0 6 1t6 1q21 0 29 -19q14 -17 20 -33q8 -21 43 -124q-7 -28 -13 -34t-30 -14z" />
    <glyph glyph-name="a" unicode="a" horiz-adv-x="546" 
d="M227 72q-41 0 -63 28q-19 19 -19 58q0 16 9 61q-17 0 -31 -14q-15 -11 -38.5 -35t-29.5 -29q-56 -45 -88 -45q-58 11 -55 74q0 5 6 29q49 156 154 258q31 28 55 36.5t76 8.5q11 -11 50 -28t56 -38q-8 -27 -43.5 -112t-42.5 -136q-4 -30 6 -34q2 -4 15 -4q20 0 67 28
q86 49 158 115l41 37q32 28 41 24q37 -3 37 -37q-4 -16 -25 -32q-54 -51 -95.5 -86t-104 -73t-119.5 -52q-3 0 -9 -1t-8 -1zM6 205q58 43 108.5 99t75.5 106l-16 22q-128 -69 -168 -227z" />
    <glyph glyph-name="b" unicode="b" horiz-adv-x="628" 
d="M-47 -475q-15 0 -33 6q-26 13 -37 42.5t-8 59.5q4 46 15 86t35.5 81t40.5 63.5t52 70.5q108 136 267 256q15 12 34 31q11 36 11 98q0 44 -11 84q-4 17 -22 17q-61 0 -111 -45q-171 -144 -229 -312q-2 -7 -7.5 -24t-9 -26.5t-9 -23t-12.5 -24.5t-15 -20q-20 -8 -27 -8
q-22 0 -35 32q5 37 13 54q40 104 99 301.5t77 250.5q9 27 72.5 229.5t103.5 307.5q34 95 55 131q12 10 31 10q16 0 29 -16q6 -9 4 -16q-2 -5 -7 -26t-10 -30q-21 -52 -44 -116t-36.5 -105.5t-39.5 -122.5t-35 -110q-57 -173 -91 -283q-11 -37 -16 -68q47 39 74 58
q58 51 127 74q12 6 37 6q39 0 72.5 -25.5t43.5 -64.5q12 -60 9 -136l49 23q125 50 149 59q9 6 23 6q32 0 35 -26q0 -19 -4 -23q-9 -18 -62 -39q-140 -57 -205 -92q-4 -13 -8.5 -30.5t-7.5 -26.5q-75 -278 -283 -508q-6 -5 -27 -26t-34 -31q-46 -33 -82 -33zM-35 -393
q11 3 20 8.5t19 14.5t14 12q177 190 252 399q9 24 15 51q-24 -8 -164 -155q-69 -72 -123 -175q-40 -69 -45 -122q0 -1 -0.5 -6.5t0 -8t1.5 -7t3.5 -7t7.5 -4.5z" />
    <glyph glyph-name="c" unicode="c" horiz-adv-x="645" 
d="M125 18q-66 0 -116 37.5t-56 102.5q-3 99 31 180q55 122 153 205q45 40 80.5 59t83.5 19q58 0 95.5 -48.5t47.5 -113.5q0 -37 -41 -47q-12 0 -28 16q-7 12 -10.5 40.5t-14.5 41.5q-13 23 -24 31q-19 8 -37 8q-7 0 -37 -10q-33 -15 -78 -54q-117 -117 -143 -254
q-6 -18 -6 -43q0 -46 22.5 -75.5t67.5 -32.5q60 3 112 26q87 36 174 91q51 31 203 137q32 20 45 20q17 0 24.5 -6.5t8.5 -25.5q0 -15 -18 -29q-47 -37 -104.5 -76t-138 -88t-160 -80t-136.5 -31z" />
    <glyph glyph-name="d" unicode="d" horiz-adv-x="546" 
d="M616 1337q8 -8 13 -18v-10q0 -20 -17 -62q-23 -64 -69 -181.5t-60 -154.5q-18 -46 -53.5 -137t-52.5 -137q-45 -104 -88 -283q-39 -156 -94 -422q-4 -24 -10.5 -69.5t-10.5 -67.5q-1 -13 -5.5 -18t-27.5 -23h-4q-13 0 -28 19q-9 32 -9 41q0 6 1 14t2.5 18t2.5 15
q23 166 68 344q8 31 8 65q-53 -67 -67 -82q-39 -48 -88 -75q-33 -23 -66 -23q-21 0 -37 8q-32 22 -24 60q3 32 16 71q26 75 98 150q69 76 160 65q2 0 8 3t13 4q65 102 116 245q134 382 199 539q29 76 53 100q14 11 29 11q12 0 24 -9zM-14 174q90 63 168 203
q-43 -12 -70.5 -34t-50.5 -56q-27 -36 -35.5 -57.5t-11.5 -55.5z" />
    <glyph glyph-name="e" unicode="e" horiz-adv-x="622" 
d="M35 -55q-69 0 -101 42t-32 109q0 48 16 107q62 173 182 305q65 57 129 57q22 0 40.5 -12.5t27.5 -36.5q6 -14 6 -39q0 -31 -18 -69q-82 -143 -234 -213q-5 -2 -57 -23q-17 -46 -17 -84q0 -48 29 -63q15 -9 35 -9q43 0 147 58q65 38 122 73.5t139.5 89.5t123.5 80
q6 3 23.5 13.5t24.5 13.5h10q16 0 21 -9.5t5 -29.5q-3 -19 -24 -33q-17 -12 -52.5 -35t-56.5 -38q-51 -31 -144.5 -91.5t-156.5 -97.5q-5 -2 -39.5 -20t-52.5 -25q-44 -20 -96 -20zM25 264q59 9 129.5 79.5t76.5 131.5q-3 17 -20 17q-31 -2 -70 -48q-63 -74 -116 -180z" />
    <glyph glyph-name="f" unicode="f" horiz-adv-x="677" 
d="M41 -360q-10 8 -23 14q-8 20 -8 35q0 12 13 55q15 60 50 209t55 229.5t53.5 201.5t66.5 220q1 2 3.5 9t3.5 9.5t2 8.5t0 11.5t-3 12.5q-49 0 -142 -19.5t-137 -19.5q-24 18 -24 33q0 11 6 23q22 16 49 22.5t61.5 10t53.5 8.5q23 6 49 10.5t60 9t49 6.5q11 14 19 29.5
t16.5 39t11.5 30.5q29 68 43.5 100t43.5 84t60 90q56 66 123 107q57 32 115 41q5 0 13.5 1t12.5 1q102 0 189 -97q47 -47 57 -92q0 -32 -27 -41q-14 0 -22 6q-12 6 -35 43q-29 45 -74 76q-39 31 -82 31q-35 0 -57 -10q-77 -27 -145 -105q-40 -42 -80 -121q-61 -129 -82 -192
q315 35 465 53q39 -12 41 -41q-2 -8 -7 -14t-9 -9.5t-12 -7t-11.5 -4.5t-14 -3t-12.5 -3q-29 -2 -90 -8t-90 -8q-135 -12 -260 -35q-11 -3 -29 -10q-11 -34 -39 -122.5t-42.5 -135.5t-35 -119.5t-34.5 -134.5q-59 -268 -123 -504q-31 -12 -35 -14z" />
    <glyph glyph-name="g" unicode="g" horiz-adv-x="788" 
d="M-354 -983q-31 0 -58 6q-57 6 -90 66q-24 44 -24 94q0 19 4 55q21 101 78 189q114 173 290 329q192 177 406 293q21 53 36 155.5t17 112.5q-3 29 -20 43l-97 -131q-21 -32 -59 -79q-42 -49 -90 -60q-45 0 -70 25q-20 23 -20 63q0 173 125 320q21 21 63 41q20 10 49 10
q26 0 43 -10q18 -7 50 -21q30 48 70 146.5t63 138.5q16 8 30 8q18 0 33 -18q4 -32 -14.5 -86.5t-20.5 -77.5q-5 -35 -17 -97.5t-15 -80.5q-4 -26 -14.5 -83t-14.5 -87q-22 -114 -27 -166q17 10 133.5 72t194.5 106l68 41q38 20 49 20q18 -1 24 -8.5t6 -26.5q-2 -17 -22 -30
q-4 -3 -43 -27q-197 -109 -426 -252q-24 -73 -35 -139q-47 -242 -209 -528q-39 -65 -115 -152q-95 -106 -262 -160q-35 -14 -69 -14zM35 178q42 28 100.5 101.5t100.5 152.5l-2 6q-3 6 -3 11q-14 17 -45 24q-21 -4 -40 -17t-28 -23.5t-26 -33.5q-63 -92 -69 -204
q0 -17 12 -17zM-358 -909q18 0 36 6q49 18 72.5 27t59.5 29t61 44q120 110 184 230q85 175 115 254q60 171 68 272q-13 -4 -41.5 -22t-38.5 -23q-270 -185 -463 -416q-79 -97 -115 -178q-31 -65 -24 -152q3 -50 43 -65q21 -6 43 -6z" />
    <glyph glyph-name="h" unicode="h" horiz-adv-x="593" 
d="M-31 129q-9 0 -20 8q-3 3 -12 21v14q0 21 8 57q78 315 178 564q14 36 44.5 117t47.5 124q46 115 80 160q10 2 24 2q12 0 27 -10q6 -9 6 -21q0 -13 -16 -41q-103 -237 -240 -635q-1 -3 -6.5 -17t-6 -17t-3 -17.5t1.5 -19.5q14 10 50.5 39t64 45t59.5 22h12q35 0 45 -35
q4 -14 4 -40q0 -16 -2 -52t-2 -55q0 -53 9 -88q25 -48 57 -43q38 9 75 34.5t75.5 57.5t66.5 47q26 -5 35 -28v-5q0 -22 -23 -45q-84 -74 -157 -116q-34 -19 -76 -19q-47 0 -81.5 28t-47.5 81q-10 55 -10 190q-75 -43 -140 -133q-23 -28 -53 -87t-41 -75q-15 -12 -33 -12z
" />
    <glyph glyph-name="i" unicode="i" horiz-adv-x="575" 
d="M84 555q-33 20 -33 57q10 46 47 60q33 0 49 -23q1 -7 4 -20.5t3 -20.5q0 -23 -15 -33t-55 -20zM18 -66q-28 0 -45 11q-53 34 -53 123q0 40 17 114q52 207 77 226q8 4 17 4t20 -9.5t17 -23.5q-4 -23 -38 -144.5t-32 -191.5q0 -21 16 -33q5 -2 10 -2.5t10.5 1l11 3t13.5 5
t14 7t16.5 9.5t18.5 11t22 13.5t24 14.5q19 13 74 49t82 54t71 48t80 57t71 54q8 5 22.5 13t18.5 11q42 0 48 -36q-6 -18 -23 -35q-10 -8 -28 -23l-33 -27.5t-31 -23.5q-233 -165 -300 -205q-123 -74 -188 -74z" />
    <glyph glyph-name="j" unicode="j" horiz-adv-x="503" 
d="M141 731q-27 7 -39 31q-1 49 6 60.5t46 29.5q45 -3 45 -49q0 -59 -58 -72zM-782 -1155q-70 0 -126 38t-85 107q-25 70 -25 142q0 11 1 23.5t2.5 28t2.5 23.5q60 370 361 623q204 175 518 328q11 5 36.5 17t41.5 20q22 89 53 204q8 35 25 78q9 31 40 37q29 -6 37 -37
q-4 -20 -27 -104t-30 -135q44 10 118 33.5t107 31.5q89 28 213 51q23 -6 32.5 -15.5t12.5 -27.5q-1 -2 -3 -6.5t-4 -7.5t-5 -4q-21 -17 -68 -25q-191 -45 -362 -104q-40 -14 -74 -33q-14 -54 -16 -65q-51 -191 -189 -533q-94 -225 -131 -293q-72 -136 -131 -215
q-109 -137 -262 -172q-31 -8 -63 -8zM-776 -1073q101 0 198 84q53 50 97 112q50 85 69 129q95 186 198.5 448t133.5 398q-37 -21 -63 -32q-225 -115 -402 -248q-218 -167 -327 -414q-69 -144 -60 -307q3 -119 98 -164q18 -6 58 -6z" />
    <glyph glyph-name="k" unicode="k" horiz-adv-x="714" 
d="M-68 23q-22 2 -38 24q-1 4 -4 11.5t-3 9.5q0 15 15 55q127 407 202 612q51 157 193 574q5 17 9 25.5t14 19t24 14.5q29 -3 39 -35q0 -31 -29 -104l-221 -649q-18 -56 -24 -78h8q5 0 8.5 1t6.5 2.5t4.5 3t4.5 5t4 4.5q65 55 117 74q21 14 57 14q25 0 39 -6q27 -24 27 -51
q0 -23 -10 -43q-23 -51 -103 -90q-8 -4 -24 -8.5t-28.5 -11t-22.5 -17.5q47 -80 157 -117q36 -10 78 -10q55 0 123 20q74 25 117 56q36 22 57 24q31 -14 31 -43q-3 -3 -8 -11.5t-9 -12.5q-144 -103 -292 -111q-200 -6 -318 154q-7 17 -24 22q-15 -9 -49.5 -90t-70.5 -157.5
t-57 -79.5zM264 502l12 1l5 3l16 18l-29 -18q-3 -4 -4 -4z" />
    <glyph glyph-name="l" unicode="l" horiz-adv-x="286" 
d="M-154 -342q-17 11 -20 39q35 253 117 534q15 51 68.5 236.5t84.5 284.5l19 61q8 25 21.5 68t21.5 67q10 24 63.5 167t59.5 157q18 16 38 12q7 0 19 -12q6 -8 6 -25q0 -6 -10 -41q-52 -138 -90 -245q-1 -5 -52.5 -165t-66.5 -204q-14 -44 -36.5 -125.5t-29.5 -104.5
q-11 -44 -67 -233q-43 -185 -55 -233q-8 -36 -21 -112t-22 -112q-26 -20 -48 -14z" />
    <glyph glyph-name="m" unicode="m" horiz-adv-x="1032" 
d="M-92 -113q-4 0 -11.5 3.5t-11.5 3.5q-10 13 -10 24v10q0 21 2 29q6 25 20 86t26 106t26 87q10 38 67 280l19 64l14 43q1 4 8 18q11 28 43 39q14 -1 22.5 -10t14.5 -29q-3 -24 -22.5 -70.5t-24.5 -68.5l-8 -33l-64 -262q-1 -2 -1.5 -7.5t-2 -12t-4.5 -13.5q27 24 70 86
q80 110 149 160q48 35 90 61q40 19 76 19q29 0 45 -6q41 -31 41 -93q0 -27 -4 -41q-6 -52 -24 -114q17 1 38 13t23 13q3 1 28 13t40 16h59q44 -16 64 -74q12 -39 18 -71q10 -41 34.5 -85t53.5 -63q30 -6 33 -6q6 0 13 1t15 2.5t13 2.5q15 4 39.5 21t40.5 20q34 -3 34 -41
q-23 -43 -64 -65t-89 -19q-69 8 -118.5 66t-74.5 135q-5 13 -13.5 48t-18.5 50q-9 6 -21 6q-9 0 -29 -10q-83 -42 -143 -121q-29 -44 -49 -55q-2 -2 -12 -2q-15 0 -29 14q-8 20 -8 29q0 8 3.5 24.5t4.5 20.5q2 7 22 72.5t27 99.5q12 37 12 78q0 25 -4 39q-3 1 -9 3.5t-9 2.5
q-5 0 -12.5 -3.5t-10.5 -4.5q-113 -56 -198 -180q-70 -93 -183 -283q-3 -5 -8.5 -15.5t-9.5 -17.5t-11 -15t-16 -14q-2 0 -9 -2t-11 -2z" />
    <glyph glyph-name="n" unicode="n" horiz-adv-x="581" 
d="M-8 123q-22 3 -35 24q-8 13 -8 39q0 13 4 45q31 208 88 365q3 8 25 59q13 29 40 35q23 -3 35 -26q-1 -24 -9 -45.5t-26.5 -72t-37.5 -120.5q-1 -6 -13 -62.5t-20 -93.5q6 7 30.5 32.5t32 33t28 25t33 24t32 14t38.5 9.5q62 -6 88 -72q28 -74 93 -82q28 5 55 19t40 24.5
t41 36.5t36 33q4 4 10 4q17 0 32 -14.5t9 -34.5q-64 -94 -176 -134q-19 -8 -47 -8q-39 0 -76 19.5t-58 52.5l-38 67q-9 7 -23 7q-10 0 -27 -13q-52 -34 -133 -141q-21 -29 -32 -35q-8 -5 -31 -14z" />
    <glyph glyph-name="o" unicode="o" horiz-adv-x="432" 
d="M-41 -41q-22 0 -41 8q-35 35 -35 90q4 182 82 287q20 31 31.5 39t58.5 25q27 0 43 -23q15 -15 31 -35q27 -6 59 -6q44 0 91 6q70 4 104 4h12q35 0 54 -16q12 -15 8 -35q-14 -27 -56 -27q-121 0 -180 -4h-24q-33 0 -47 -8q-14 -14 -19 -59q-22 -120 -90 -199
q-41 -47 -82 -47zM-31 55q84 69 90 193q0 9 -10 22q-30 6 -39 6q-45 -85 -45 -167q0 -18 4 -54z" />
    <glyph glyph-name="p" unicode="p" horiz-adv-x="655" 
d="M-254 -764q-18 0 -24.5 8.5t-6.5 28.5q7 61 17 104q56 248 151 610t160 560q13 40 23 54t32 15q15 0 21 -1t12 -8t6 -23q-3 -15 -32.5 -116t-30.5 -114q66 75 133 131q47 41 106 41q23 0 37 -2q68 -21 68 -112q0 -31 -15 -93q36 2 152 17q75 10 115 10q20 -4 20 -33
q0 -15 -8 -22t-27 -12q-37 -10 -172 -31q-56 -4 -121 -17q-44 -67 -57 -81q-79 -108 -160 -150q-48 -23 -90 -23q-26 0 -73 15q-19 -40 -25 -66q-115 -404 -156 -633q-4 -16 -7 -24.5t-11.5 -18t-22.5 -14.5h-14zM80 221q16 8 41 17.5t47 16t62 18.5t65 20q34 48 47 123
q0 13 -8.5 24.5t-22.5 16.5q-28 0 -106.5 -75.5t-124.5 -160.5zM59 49q6 0 31 10q69 34 129 113q-73 -8 -137 -43l-9 -7q-9 -6 -14.5 -11t-13 -13.5t-10 -18.5t-0.5 -20q10 -10 24 -10z" />
    <glyph glyph-name="q" unicode="q" horiz-adv-x="641" 
d="M150 -762q-80 3 -111 96q-12 41 -12 127q14 142 45 242q2 9 13 53t19 70q-62 -12 -79 -12q-24 5 -35 30q7 23 23.5 37t32.5 18t43 8.5t40 8.5q23 49 62.5 149t46.5 132q-29 -19 -56 -58q-68 -80 -108 -112q-3 -2 -10.5 -8.5t-11 -9t-10.5 -8t-12 -8t-11.5 -6.5t-13 -6
t-13.5 -4q-44 0 -66 31q-14 12 -22 58q-2 14 -2 34q0 34 14 88q53 221 231 359q44 32 73 40.5t91 10.5q15 -3 27 -10.5t27 -20.5t22 -18h4q9 0 27 12t31 12q23 0 34 -22q7 -7 9 -16v-5q0 -8 -1.5 -16t-5.5 -16.5t-6 -13.5t-7.5 -14t-6.5 -11q-13 -27 -58 -117t-73 -149.5
t-53 -118.5q-42 -97 -62 -164q2 -10 6.5 -16t11.5 -10.5t9 -6.5q155 -89 141 -293q-6 -132 -92 -248q-36 -44 -62 -62t-83 -36zM-10 72q28 2 51 28q75 83 100 119q21 27 86 113.5t103 134.5q0 8 4 16q-22 33 -58 43q-138 -53 -233 -223q-19 -36 -29 -58.5t-20 -58t-10 -69.5
q0 -21 6 -45zM145 -678h9q6 0 12 2.5t10 5t10.5 7t8.5 6.5q114 114 114 258q0 37 -14 102q-22 79 -109 115q-61 -190 -77 -336q-3 -21 -3 -41q0 -30 15 -88q0 -24 24 -31z" />
    <glyph glyph-name="r" unicode="r" horiz-adv-x="548" 
d="M477 567q34 -21 17 -45q-4 -9 -12.5 -13t-21.5 -5.5t-18 -3.5q-198 -36 -352 -232q-63 -77 -104 -194q-7 -46 -27 -66q-11 -8 -25 -8q-12 0 -26 14q-8 13 -8 35q0 26 8 47q94 414 141 570q18 73 49 114q16 13 31 13t27 -21q2 -4 2 -12q0 -13 -4 -29q-12 -28 -22 -57
t-20.5 -65t-16 -57t-17 -66t-15.5 -60q-14 -48 -12 -80q122 118 203 164q54 33 162 63q8 2 24 2q21 0 37 -8z" />
    <glyph glyph-name="s" unicode="s" horiz-adv-x="655" 
d="M16 -328q-64 0 -103 33.5t-42 97.5q11 130 121 254q77 84 158 140q3 2 16.5 8.5t21 13.5t11.5 17q-4 6 -9.5 8.5t-10 2.5t-12.5 -0.5t-11 -0.5q-18 1 -53.5 1t-53.5 1q-38 5 -59 32.5t-15 65.5q2 17 15 47q76 178 192 281q84 71 172 82q72 -3 113.5 -42t71.5 -106
q0 -19 -7 -28t-26 -13q-23 3 -38.5 21.5t-31 44t-33.5 37.5q-24 8 -43 8q-39 0 -90 -33q-65 -44 -112 -106q-42 -55 -99 -170q-8 -26 -2 -43q19 -7 41 -9t50.5 -0.5t41.5 0.5q54 0 136 -28q42 11 148 30t140 27q10 4 33 4q31 0 43 -28q0 -31 -33 -41q-13 -3 -70.5 -14.5
t-84.5 -18.5q-12 -4 -56 -10.5t-53 -10.5q-9 -15 -2 -37q8 -50 8 -73q0 -128 -74.5 -244.5t-201.5 -175.5q-39 -17 -55 -19q-27 -6 -52 -6zM16 -256q28 0 52 12q114 41 181.5 139t76.5 228q0 45 -25 67q-104 -39 -203 -131q-62 -53 -108 -131q-39 -72 -39 -118q0 -19 6 -37
q26 -29 59 -29z" />
    <glyph glyph-name="t" unicode="t" horiz-adv-x="286" 
d="M-145 -342q-18 12 -21 39q35 253 117 534q15 51 68.5 236.5t84.5 284.5q4 24 11 45q-235 -45 -297 -45q-39 0 -66 8q-13 13 -8 28q10 30 51 33q39 6 104 18.5t107 18.5l135 25q15 38 64.5 179.5t83.5 209.5q18 16 39 12q6 0 18 -12q6 -8 6 -25q0 -6 -10 -41
q-52 -138 -90 -245q-13 -26 -6 -52q10 -2 35 -2q36 0 100.5 13.5t79.5 15.5q103 17 217 33q24 -3 33 -27q0 -14 -4 -18q-4 -7 -9.5 -12.5t-9.5 -8.5t-12.5 -6t-11.5 -4t-14 -3.5t-13 -2.5q-185 -27 -401 -68q-11 0 -29 -6q-16 -30 -28 -67t-25 -83t-21 -71
q-14 -43 -35.5 -123t-29.5 -107q-5 -18 -68 -233q-43 -185 -55 -233q-8 -36 -21 -112t-22 -112q-26 -20 -47 -14z" />
    <glyph glyph-name="u" unicode="u" horiz-adv-x="630" 
d="M326 -33q-4 1 -8 3.5t-10.5 6t-10.5 5.5q-12 53 -12 108q0 30 3 62t9 78t8 67q-98 -102 -139 -141q-47 -47 -60 -56q-30 -19 -49 -26q-19 -8 -39 -8q-30 0 -49 20.5t-24 54.5q-2 12 -2 37q0 39 8 66l14 51q16 42 29.5 79t22.5 59.5t24 55.5q4 8 14 11q2 1 9 3.5t12 2.5
q14 0 28 -17q5 -10 5 -22q0 -9 -9 -41q-38 -100 -53 -145q-14 -37 -29 -101v-8q0 -13 15 -25q27 3 51 31q82 82 121 123q18 20 65.5 75.5t73.5 84.5q2 2 8 9.5t9.5 11t9.5 8.5t13 8t15 4q31 -6 37 -41q-4 -14 -17.5 -60.5t-19 -65.5t-15.5 -60t-14 -67t-8 -61t-4 -67
q0 -28 4 -78q-5 -32 -36 -35z" />
    <glyph glyph-name="v" unicode="v" horiz-adv-x="464" 
d="M10 31q-17 0 -35 10q-32 23 -32 80q0 6 -1 20t-1 21q0 41 8 74q32 166 59 249q1 2 4 13t4.5 13.5t4.5 11t6 12t7.5 9t10 8.5t12.5 5h9q20 0 32 -25v-22q-49 -162 -65 -246q-1 -8 -4.5 -34t-3.5 -42q0 -24 6 -51q16 15 28 31t26.5 39t20.5 31q10 14 30.5 46.5t33.5 49.5
q5 7 19.5 32t28.5 37t36 17q29 -20 94 -37t117 -25q10 -3 17 -10.5t18 -30.5q-2 -21 -35 -36q-39 3 -105.5 15.5t-103.5 25.5q-19 -31 -56.5 -85.5t-52.5 -78.5q-41 -61 -90 -107q-23 -20 -47 -20z" />
    <glyph glyph-name="w" unicode="w" horiz-adv-x="1095" 
d="M-121 -469q-23 3 -34.5 17.5t-18.5 41.5q-6 27 -6 60q0 51 14 112q14 111 60.5 291t91.5 318q5 14 16.5 39t15.5 34q12 21 39 31q28 0 39 -33q-47 -139 -110 -344q-28 -101 -54 -221q-28 -148 -30 -229q11 3 20 9.5t13.5 11t12 15t9.5 13.5q24 39 79.5 127.5t84.5 136.5
q53 90 250 451q5 8 14 24.5t15 26t14.5 21t17.5 18.5q11 8 25 8t24 -10q1 -1 3.5 -6.5t4.5 -8.5q0 -2 1.5 -7.5t1.5 -8.5q0 -9 -11 -53q-11 -32 -21 -68.5t-16.5 -61.5t-15.5 -72t-11.5 -62t-12.5 -71.5t-11 -64.5q-3 -21 -3.5 -43t0.5 -52.5t1 -43.5q0 -47 27 -82h8
q5 0 10 1.5t10 5.5l7.5 6t7.5 7.5t6 6.5q116 119 213 328q23 53 63 159q23 51 43 53q15 -1 96 -6.5t114 -6t110 0.5q24 -6 24 -31q0 -22 -10 -32q-9 -15 -137 -15q-40 0 -98 2t-64 2q-16 -26 -37 -86q-95 -225 -200 -354q-38 -48 -76 -88q-45 -36 -90 -43q-71 10 -92 98
q-21 62 -21 125q0 3 6 78l25 156q-12 -5 -19 -14t-13.5 -24t-8.5 -18q-167 -299 -262 -434q-22 -31 -74 -96q-30 -42 -80 -45z" />
    <glyph glyph-name="x" unicode="x" horiz-adv-x="565" 
d="M-172 -172q-24 3 -33 41q24 44 82 119.5t80 111.5q-6 29 -6 80q0 87 26 168.5t74 186.5q28 12 39 12q23 0 33 -31q-4 -27 -27.5 -76.5t-29.5 -72.5q-34 -119 -39 -152q10 0 15.5 3.5t10.5 12t6 9.5q87 123 162 227q30 39 60 35q31 -11 22 -53q-178 -252 -235 -334
q12 -9 24 -9q7 0 18.5 4t14.5 5q124 46 211 106q141 92 164 107q5 3 16 10.5t17.5 11.5t17 7.5t20.5 4.5q35 -6 29 -40q-1 -12 -10.5 -23t-18.5 -18q-173 -117 -295 -183q-36 -20 -73 -35q-70 -32 -129 -32q-33 0 -56 2q-5 -2 -9.5 -5t-9.5 -8t-7.5 -8t-7.5 -10.5t-7 -9.5
q-47 -61 -94 -131q-29 -33 -55 -33z" />
    <glyph glyph-name="y" unicode="y" horiz-adv-x="901" 
d="M-362 -1280q-66 -3 -116 37t-57 123q-11 118 54 235q142 239 401 330q140 50 320 63q20 0 41 7q16 16 20 26q207 391 283 695q33 110 28 200q0 33 -12 47q-12 9 -20 9q-6 0 -33 -11q-71 -36 -105 -78q-94 -100 -190 -213q-14 -18 -47 -60t-51.5 -64.5t-47.5 -55.5
t-55 -59q-46 -46 -59 -55q-23 -13 -41 -13q-24 0 -49 25q-19 37 -19 90q0 21 2 33q18 99 31 135q60 175 102 285q14 39 33 51q22 17 41 4q24 -18 14 -45q-3 -7 -11.5 -31t-14.5 -37q-86 -220 -113 -350q-6 -24 -6 -27q0 -12 12 -24q9 1 17 5.5t12 8t11.5 13.5t9.5 12
q16 20 89.5 113t114.5 141q33 38 94 104t78 84q52 52 144 92q25 10 49 10q70 0 94 -83q10 -31 10 -74q0 -30 -6 -64q-23 -173 -108 -385q-92 -246 -189 -428q-3 -4 -5.5 -10t-6 -15t-6.5 -16q54 -14 88 -25t77 -30t75.5 -45.5t56.5 -61.5q0 -40 -39 -43q-27 7 -71 43t-70 46
q-37 13 -156 41q-24 -22 -55 -78q-14 -22 -53 -82t-59 -90.5t-53 -78.5t-63.5 -87.5t-62.5 -75.5q-86 -103 -193 -168q-76 -42 -159 -45zM-358 -1198q64 0 131 41q85 56 164 147q52 61 110 144t86 128t98 158q-10 0 -20.5 2.5t-13.5 2.5q-230 -24 -379 -115
q-258 -157 -279 -408q12 -43 18 -54.5t31 -37.5q24 -8 54 -8z" />
    <glyph glyph-name="z" unicode="z" horiz-adv-x="620" 
d="M623 352q23 0 32 -30v-5q0 -26 -34 -41l-197 -98q-70 -36 -88 -53q-1 -3 -5 -12.5t-5 -14.5q-20 -193 -170 -420q-84 -123 -207 -233q-114 -101 -262 -125q-14 -2 -37 -2q-19 0 -27 2q-71 12 -109 52.5t-38 101.5q0 36 10 67q34 104 139 221q41 43 131 109
q125 95 375 238l76 45q20 7 20 24q-24 14 -35.5 17.5t-54.5 7.5q-4 1 -20 12q-4 8 -4 14v17q4 14 12 26t20.5 25.5t18.5 21.5q78 93 106 164q1 6 5 18.5t4 20.5q0 12 -9 27q-20 14 -39 14q-17 0 -57 -24q-44 -38 -81.5 -103.5t-51.5 -122.5q-12 -25 -33 -34h-6q-20 0 -33 22
q-4 8 -4 16q0 4 1 12.5t1 12.5q36 113 109 207q54 67 106 84q40 12 58 12l36 -6q72 -23 78 -92q7 -65 -18 -113q-12 -19 -64 -104q-5 -8 -21.5 -29t-21.5 -29q26 -8 52 -25.5t38 -35.5q9 2 27 13t21 12q165 82 190 94q37 16 55 20zM219 -18q19 55 17 86q-24 -4 -31 -9
q-278 -159 -391 -239q-78 -59 -158 -142q-83 -92 -105 -196q9 -61 58 -80q16 -2 47 -2q83 0 164 49q31 20 47 33q248 199 352 500z" />
    <glyph glyph-name="braceleft" unicode="{" horiz-adv-x="710" 
d="M197 -123q-23 0 -33 17q-25 39 -27 49q-5 18 -20 84q9 41 20 106q82 180 127 270q46 86 70 148q10 58 10 63q0 32 -10 52q-6 8 -6 22q2 29 24 47q63 48 88 156q18 81 21 115q36 203 196 356q3 3 12 10.5t13 11.5t12.5 10.5t14.5 10t14.5 8.5t17.5 8.5t19 5.5
q10 -8 26 -16q7 -9 7 -25q0 -15 -13 -28t-28 -25q-160 -125 -209 -340q0 -1 -17 -94q-16 -115 -82 -192q-4 -4 -9 -13.5t-9 -13.5v-35q8 -80 -33 -170q-3 -6 -21 -41.5t-26 -54.5q-87 -165 -117 -242q-18 -42 -18 -104q0 -52 12 -84q12 -31 8 -53q-5 -19 -26 -19h-8z" />
    <glyph glyph-name="bar" unicode="|" horiz-adv-x="655" 
d="M141 -27q-24 8 -24 13q-8 28 -8 37q0 2 6 26q185 674 301 998q10 29 28.5 86.5t28.5 85.5q7 35 45 41l21 -13q8 -16 8 -26q0 -5 -3.5 -19t-4.5 -20q-34 -103 -41 -131q-67 -179 -155 -471t-148 -517q-1 -5 -8 -27.5t-9 -35.5q-9 -21 -37 -27z" />
    <glyph glyph-name="braceright" unicode="}" horiz-adv-x="606" 
d="M96 -174q-20 3 -22 8q-10 5 -19 19q2 8 2 22q4 8 9.5 15t16 16t13.5 12q61 61 86 148q34 134 39 161q13 75 43 166q23 71 44 111.5t69 107.5v43q-3 66 31 142q22 55 65 129q21 47 49 82q70 106 82 231q-3 11 -14 44t-15 52v27l5 8q17 27 41 21q23 -11 28 -25
q39 -70 39 -139q0 -38 -6 -56q-21 -90 -92 -213q-6 -11 -14 -23t-17.5 -26.5t-15.5 -23.5q-43 -73 -70 -158q-8 -21 -8 -49q0 -33 10 -53q0 -13 2 -25q-12 -24 -18 -29q-67 -65 -117 -209q-19 -58 -53 -215q-15 -74 -43 -147q-26 -62 -60.5 -105t-89.5 -69z" />
    <glyph glyph-name="asciitilde" unicode="~" horiz-adv-x="972" 
d="M588 530q-35 0 -72 13q-20 7 -62.5 19.5t-62.5 19.5q-44 14 -72 14q-37 0 -79 -23q-2 -2 -27 -8q-36 12 -25 56q52 49 125 49q24 0 74 -8q15 -4 46 -15.5t48 -15.5q9 -4 30.5 -9.5t31.5 -9.5q21 -8 49 -8q43 0 82 29q16 12 22 14h9q21 0 34 -26q0 -15 -2 -23
q-35 -56 -116 -66q-12 -2 -33 -2z" />
    <glyph glyph-name="exclamdown" unicode="&#xa1;" horiz-adv-x="825" 
d="M649 1163q41 -11 41 -49q0 -17 -2 -27q-7 -10 -24 -18h-9q-37 0 -49 35v14q0 31 43 45zM520 924q28 -11 33 -39q-6 -31 -12 -41l-47 -92q-215 -400 -304 -551l-65 -97q-8 -10 -23 -18q-1 -1 -16 -6q-43 3 -37 43q0 8 4 20q96 143 260 451q4 8 148 272l24 41q10 13 35 17z
" />
    <glyph glyph-name="cent" unicode="&#xa2;" horiz-adv-x="866" 
d="M1038 1186l-94 -160q-16 -32 -18 -51q51 -86 51 -154q0 -29 -2 -45q-12 -94 -84 -151q-16 -4 -25 -4q-6 0 -22 4q-1 4 -15 22q2 4 4.5 13.5t4.5 13.5q9 18 47 80q8 33 8 65q0 31 -6 55q-4 -2 -10 -2t-9 -2q-6 -4 -10 -16q-147 -287 -188 -371q-15 -25 -15 -41q8 -8 19 -2
q24 19 63 43q8 6 23 6q16 0 24 -6q22 -14 11 -47q-9 -13 -23 -26t-24.5 -20.5t-31 -20.5t-28.5 -19q-20 -17 -117 -82q-21 -29 -28 -45q-15 -29 -41.5 -86.5t-36.5 -77.5q-11 -17 -25 -41q-20 -20 -47 -18l-4 3l-8 6t-6 7q-12 15 -4 35q5 17 22 55q29 53 60 125
q0 7 -2.5 12.5t-5 8t-7 6.5t-6.5 6q-78 47 -78 131q0 9 2.5 29t3.5 25q37 172 150 319q66 87 123 135q101 84 203 96q33 57 67 123q44 74 72 115q8 14 23.5 21.5t33.5 1.5q14 -6 25 -31q0 -20 -19 -43zM616 565q22 40 60.5 117t44.5 88q3 7 25.5 51.5t29.5 69.5
q-16 0 -24 -6q-61 -36 -107 -82q-111 -119 -178 -285q-7 -17 -11.5 -35t-9 -46.5t-6.5 -37.5v-12q9 -37 27 -49q3 0 7 -1t7 -1q15 0 27 10q1 3 7 13t9 16q30 56 92 190z" />
    <glyph glyph-name="sterling" unicode="&#xa3;" horiz-adv-x="1388" 
d="M301 -63q-94 19 -111 114q10 126 164 189q15 0 49.5 2t53.5 2q69 0 102 -4q21 14 25 22q83 115 211 359q-18 2 -56 2q-14 0 -38 -1t-35 -1q-20 0 -52 4q-26 19 -18 45q5 20 33 28q7 3 28 7q45 0 70 2q51 0 76 4q9 0 41 4q5 8 16.5 23.5t16.5 23.5q88 158 172 268
q57 67 112 119q76 74 213 113q24 8 60 8q68 0 114 -41q25 -25 31 -49q-6 -20 -10 -25t-23 -16q-18 -1 -42.5 18t-37.5 23q-2 0 -10 1t-14 1q-16 0 -24.5 0.5t-24 -3.5t-23 -6.5t-23 -8t-22.5 -7.5q-70 -34 -125 -86t-113 -127q-68 -89 -122 -196q-2 -2 -2 -8.5t-2 -10.5
q12 -6 30 -6q8 0 24 2t23 2q59 0 86 2q44 0 74 6q24 -5 36.5 -14t16.5 -31l-16 -24q-99 -19 -162 -21q-17 -1 -50 -2t-60.5 -3t-51.5 -7q-2 -2 -10 -8t-10 -11q-93 -166 -219 -376q-6 -8 -10 -27q23 -19 32 -23q28 -12 108.5 -45t123.5 -53q101 -43 186 -43q42 0 78 8l96 49
q6 2 14 2q20 0 35 -18q2 -6 2 -16q0 -19 -10 -29q-35 -38 -90 -57q-72 -21 -125 -21q-46 0 -82 8q-85 17 -176 58q-31 15 -91 40.5t-85 37.5l-37 12q-23 8 -37 10q-17 -8 -37.5 -32t-23.5 -27q-33 -38 -62 -64q-85 -66 -180 -71zM317 27q22 0 54 8q74 35 114 98q2 3 2 6.5
t-1 8.5t-1 8q-21 8 -51 8q-42 0 -67 -10q-42 -13 -64 -45q-18 -22 -18 -43q0 -14 8 -27q12 -12 24 -12z" />
    <glyph glyph-name="currency" unicode="&#xa4;" horiz-adv-x="917" 
d="M279 88q-21 0 -33 29q13 43 64.5 105t64.5 83q-21 55 -31 90q-3 14 -3.5 28.5t0.5 34t1 27.5q0 54 10 88q64 228 232 369q2 1 15.5 10.5t21.5 14.5q2 10 4.5 67.5t19.5 85.5q8 8 10 8q15 5 17 5q9 0 26 -17q7 -12 7 -33v-18q0 -27 8 -41q85 10 112 10q37 0 63 -13t85 -56
q18 8 47.5 39.5t52.5 35.5q18 -2 26 -8.5t9 -23.5q0 -11 -4 -19q-49 -55 -98 -104q0 -3 -2.5 -14t-2.5 -17q7 -97 -51 -221q-93 -197 -227 -305q-5 -4 -14 -13t-13 -12q-4 -35 11.5 -94.5t11.5 -87.5q-20 -28 -49 -15q-22 22 -34.5 75.5t-21.5 70.5q-72 -13 -96 -16h-12
q-14 0 -74 12q-32 -26 -74 -83.5t-55 -72.5q-16 -4 -24 -4zM508 309q88 2 186 90q182 161 234 412q-2 20 -17 96q-54 54 -102 54q-23 0 -64 -13q-71 -24 -124 -74q-163 -141 -205 -364q-4 -12 -4 -43q0 -53 20 -100q27 -56 76 -58z" />
    <glyph glyph-name="yen" unicode="&#xa5;" horiz-adv-x="1269" 
d="M1442 1292q7 -5 18 -37q-8 -24 -20.5 -49.5t-31.5 -60.5t-26 -49q-16 -31 -44 -87.5t-38 -76.5q-15 -29 -44 -86.5t-44 -85.5q-10 -21 -36.5 -79t-42.5 -89q-24 -43 -86 -164q8 -1 18.5 -4.5t15.5 -3.5q53 -5 66 -8q28 -3 41 -27v-8q0 -19 -23 -33q-12 -2 -76.5 -6
t-97.5 -19q-24 -14 -22 -40q4 0 12 -3.5t12 -3.5h127q38 0 58 -2q15 -4 24 -16q1 -4 2 -13t2 -12q-10 -23 -37 -30q-45 -9 -57 -9q-49 -2 -145 -2q-64 -6 -66 -6q-9 -6 -18 -14.5t-14.5 -15t-14 -18.5t-12.5 -17q-29 -29 -58 -66q-123 -133 -243 -205q-117 -72 -215 -75
q-30 6 -82 10q-108 44 -135 170q16 123 110 231q95 112 234 168q95 32 159 37q32 3 94 9.5t111 10t94 3.5q8 0 23 6q2 3 10.5 11.5t11.5 14.5q51 85 183 351q13 26 10 51q-12 -6 -24 -16t-18.5 -17t-18.5 -22t-17 -21q-65 -83 -197 -186q-83 -66 -163 -74q-46 6 -58.5 12
t-40.5 35q-12 47 -14 53q7 127 80 283q77 169 188 315q28 37 54 45q3 -2 11 -4t11 -4q29 -23 14 -53l-22 -29q-146 -200 -213 -381q-16 -39 -31 -110q-2 -8 -2 -54q13 -22 35 -18q33 0 63 23q83 57 142 116q104 103 225 252q67 84 233 297q20 10 33 10q15 0 23 -4zM1155 850
h2v2q0 -2 -2 -2zM852 276q2 2 6 7t5.5 6.5t4.5 6.5t2.5 7t-0.5 8q-11 11 -34 11q-111 0 -213 -17q-99 -14 -158 -41q-153 -62 -242 -215q-24 -54 -24 -82q0 -25 12 -49l51 -51q34 -6 66 -6q83 0 141 39q41 23 82 53q104 82 164 147q7 6 14.5 14t11.5 13.5t12 18t11 16.5
q2 1 2 7t2 9q-2 0 -4.5 1t-3.5 1q-16 0 -31 -6q-13 -1 -38 -2t-38 -2q-18 0 -32 18q-4 4 -9 25q4 20 35 35q32 6 101 13t104 15z" />
    <glyph glyph-name="brokenbar" unicode="&#xa6;" horiz-adv-x="665" 
d="M342 655q-11 0 -23 9q-10 10 -10 24q0 15 8 35q44 173 158 489q20 50 55 56q20 -13 25 -31q4 -11 2 -16q-119 -335 -182 -547q-19 -19 -33 -19zM137 -39q-28 8 -28 39q3 11 6 33t6 33q87 310 108 378q13 43 17 54q13 26 35 34q11 -4 15.5 -6t10.5 -8.5t10 -15.5v-25
q-22 -73 -46 -155.5t-52.5 -183t-44.5 -154.5q-20 -23 -37 -23z" />
    <glyph glyph-name="section" unicode="&#xa7;" horiz-adv-x="1638" 
d="M1729 1450q9 -165 -101 -303q-45 -48 -69 -68q-4 -5 -11 -9t-16 -8t-14 -7q-2 -4 -9 -4q-8 0 -34 16l-3 7q-4 8 -4 13q0 1 2.5 9t2.5 12q6 7 51.5 51.5t62.5 75.5q37 76 53 115q5 46 5 114q0 41 -33 78q-8 12 -15 14q-12 4 -18 7q-27 -9 -61 -47q-88 -102 -132 -181
q-27 -51 -92 -190q-43 -97 -147 -377q-25 -64 -71 -191t-70 -190q-127 -323 -287 -567q-103 -142 -187 -207q-9 -8 -29.5 -24.5t-29.5 -24.5q-93 -80 -201 -111q-12 -2 -41 -2q-43 0 -92 19q-125 58 -137 196q-2 14 -2 39q0 63 35 170q64 155 184 258q31 28 66 39h8
q25 0 37 -27q0 -20 -13 -36q-22 -22 -28 -25q-94 -65 -164 -213q-25 -51 -41 -166q-1 -14 2 -30t4.5 -23t9.5 -29t9 -24q48 -66 120 -66q19 0 43 6q138 69 252 230q79 112 150 290q84 214 164 473q109 360 184 541q59 148 76 187q67 144 164 249q111 119 213 154q8 0 29.5 1
t33.5 1q21 0 53 -4q124 -53 138 -211zM1313 1370q88 137 100 152q-31 -10 -35 -13q-78 -65 -147 -176q-62 -109 -107 -219q-88 -225 -180 -518q-7 -23 -115 -358q-12 -58 -12 -62q9 9 17 21.5t12 20.5t10.5 24t9.5 22q45 109 101 260q14 37 91.5 248.5t123.5 319.5
q78 192 131 278zM813 168q-11 -7 -4 -18q1 3 2 9t2 9z" />
    <glyph glyph-name="dieresis" unicode="&#xa8;" horiz-adv-x="1638" 
d="M211 614q-24 1 -31 5t-24 26l-2 10q0 18 18 50l35 14q46 0 49 -47q-3 -41 -45 -58zM330 608q-24 0 -37 25q-4 5 -6 14t-2 10q3 27 24 45q14 11 33 11q17 0 37 -17q1 -2 8 -30q-2 -30 -29 -50q-16 -8 -28 -8z" />
    <glyph glyph-name="copyright" unicode="&#xa9;" horiz-adv-x="1423" 
d="M1546 1071q7 -172 -39 -307q-180 -546 -628 -868q-126 -89 -281 -123q-56 -9 -74 -9q-139 0 -237 127q-67 90 -88 234q-9 92 -9 121q0 145 46 284q122 397 389 656q187 175 417 225q43 14 107 14q39 0 80 -6q133 -20 203 -174q2 -2 2 -10q0 -4 -1 -13.5t-1 -13.5l8 7
q8 7 10.5 8.5t9.5 4.5t13 3q32 -4 53 -57q20 -55 20 -103zM1468 969q5 25 5 57q0 101 -46 180q-4 0 -12.5 -1t-11.5 -1q-13 0 -25 6q-15 12 -51 68q-39 52 -92 63q-40 11 -82 11q-35 0 -72 -6q-226 -43 -393 -205q-343 -328 -416 -789q-8 -78 -8 -112q0 -80 23 -174
q27 -97 71 -146q70 -82 168 -82q25 0 37 4q160 23 295 131q354 260 541 705q57 146 69 291zM950 899q50 0 84.5 -30t46.5 -85q6 -20 6 -65q0 -25 -14 -45q-28 -8 -31 -8q-4 0 -7 1.5t-9 6.5t-12 8v19v21t-1 19t-3.5 21.5t-6.5 18.5t-10 20q-12 18 -37 24h-16
q-75 -19 -129 -86q-99 -117 -129 -270q-2 -12 -2 -41q0 -38 10 -61q11 -30 37 -39q47 8 94 55q13 11 26.5 24t30 28.5t25.5 23.5q4 3 11.5 9.5t12 10t12 8.5t15 7.5t15.5 3.5q20 -10 28 -33q0 -12 -6 -16q-77 -95 -178 -164q-2 -4 -7 -7l-5 -2q-36 -20 -72 -20
q-45 0 -77.5 30t-39.5 83q-6 34 -6 63q0 33 6 60q43 206 181 333q37 37 94 60q40 14 63 14z" />
    <glyph glyph-name="ordfeminine" unicode="&#xaa;" horiz-adv-x="712" 
d="M461 1040q-25 0 -37 2q-16 12 -26.5 25t-15.5 30t-7 27t-2.5 31t-1.5 27h-9q-6 0 -11.5 -2.5t-8 -5t-6.5 -7t-6 -6.5q-65 -61 -109 -88q-32 -18 -63 -10q-25 3 -43 35q-6 14 -6 39q0 29 12 53q43 125 125 201q76 65 131 65q26 0 63 -16q17 6 32.5 30.5t29.5 28.5
q6 2 14 2q28 0 39 -33q-2 -2 -4 -12t-4 -14q-55 -99 -82 -205q-12 -41 -12 -63q0 -8 8 -58q26 -6 62 16.5t52 24.5q34 -5 25 -51q-54 -66 -139 -66zM190 1141q60 43 106.5 94.5t102.5 126.5q-16 16 -28 16q-16 0 -29 -10q-17 -7 -34.5 -22t-26.5 -25.5t-27 -32.5
q-29 -36 -42 -66.5t-22 -80.5z" />
    <glyph glyph-name="guillemotleft" unicode="&#xab;" horiz-adv-x="792" 
d="M387 190q-2 0 -12 3t-15 4q-12 19 -38 49q-40 62 -125 186q-11 14 -11 35q0 17 2 25q76 86 183 139l30 -15q0 -1 11 -28q-20 -30 -21 -31q-6 -4 -31 -25t-38 -30q-3 -3 -15 -16.5t-20 -20.5l14 -37q4 -7 36 -54.5t48 -72.5q6 -11 18.5 -30.5t16.5 -26.5q4 -6 4 -17
q0 -20 -21 -32q-5 -5 -16 -5zM514 268q-18 4 -20 8q-30 27 -68.5 75.5t-50.5 74.5q-6 8 -6 25q3 11 9 20.5t11 14t15.5 13t13.5 11.5q8 6 23.5 19t25 20.5t24.5 15t31 10.5q24 0 37 -26q0 -25 -10 -35q-3 -3 -51 -45l-25 -27q2 -19 21.5 -42.5t23.5 -30.5q3 -5 10.5 -16
t11.5 -17.5t7.5 -17t3.5 -21.5q-11 -22 -12 -25q-4 -1 -13.5 -2t-11.5 -2z" />
    <glyph glyph-name="logicalnot" unicode="&#xac;" horiz-adv-x="976" 
d="M662 500q-46 0 -46 18q0 5 7 20t6 21q-25 4 -72 4q-41 0 -117 -3t-114 -3q-78 0 -115 6q-25 13 -25 37q6 29 35 33q18 4 58 4q68 -4 204 -4q113 0 170 6q8 1 17.5 1t20 -0.5t14.5 -0.5q29 -10 38 -35q0 -12 -4 -16q-14 -30 -19 -39.5t-15 -24.5t-19.5 -19.5t-23.5 -4.5z
" />
    <glyph glyph-name="registered" unicode="&#xae;" horiz-adv-x="1103" 
d="M1335 1378q6 -31 15 -135q0 -175 -88 -356q-168 -323 -494 -494q-169 -89 -332 -84q-137 2 -225.5 85.5t-97.5 221.5q-4 25 -4 72q0 129 41 260q130 387 446 633q125 97 242 129q31 8 90 12q171 11 286 -125q105 -116 121 -219zM1221 977q55 135 55 262q0 67 -16 145
q-18 62 -58 113q-5 2 -11.5 5.5t-16.5 9t-19 10.5q-4 8 -13.5 21.5t-13.5 21.5q-49 78 -155 88q-45 0 -99 -13q-110 -25 -204 -98q-226 -157 -369 -430q-95 -180 -119 -373q-2 -18 -2 -53q0 -57 17 -127q28 -110 133 -156q56 -24 119 -24q26 0 40 4q189 26 320 119
q112 81 131 96q183 147 281 379zM1083 965q20 -13 9 -45l-6 -7q-6 -7 -11 -12q-101 -82 -166 -131q-55 -44 -131 -63q-40 -5 -49 -5q-93 0 -133 91q-12 21 -29 75q0 1 -0.5 4t-1 4t-1 3.5t-1.5 4t-2.5 3.5t-3 3.5t-4.5 2.5l-6 2q-18 -16 -42 -58.5t-28 -48.5
q-5 -8 -16 -34.5t-24 -42t-34 -21.5q-31 7 -34 39q0 14 8 33q23 45 67.5 140t82 168t77.5 136q8 13 86 129q28 32 58 23q20 -9 20 -31q0 -14 -4 -16q-8 -12 -26.5 -35.5t-31 -42.5t-20.5 -37h4q9 0 16 3.5t15.5 11t13.5 10.5q76 58 160 98q57 20 70 22q8 2 24 2
q38 0 60 -21.5t22 -57.5q0 -6 -2.5 -18t-3.5 -17q-8 -32 -43 -80q-93 -106 -229 -133q-14 -2 -41 -2q-33 0 -64 8q-14 4 -39 4q-16 -43 -16 -86q0 -80 39 -131q20 -28 57 -37q68 7 145 64l144 112q1 1 9.5 6t10.5 6t9.5 4.5t11.5 3.5t10.5 -0.5t13.5 -2.5zM991 1272
q-142 -41 -280 -166q19 -27 53 -19q106 15 178 87q49 49 49 98z" />
    <glyph glyph-name="macron" unicode="&#xaf;" horiz-adv-x="1638" 
d="M330 621q-82 0 -123 2q-8 1 -43 16q-6 9 -10 27q3 26 28 32q2 0 6 2t7 2q98 4 165 -6q29 -18 23 -41q-9 -23 -33 -32q-3 0 -9.5 -1t-10.5 -1z" />
    <glyph glyph-name="degree" unicode="&#xb0;" horiz-adv-x="1005" 
d="M721 1096q-41 5 -57 37q-12 25 -9 55q24 102 74 162q35 41 76 41q16 0 53 -15q12 -30 12 -71q0 -49 -18 -84q-22 -50 -52 -82t-79 -43zM745 1198q30 34 36 46t12 50q-32 -31 -39.5 -44.5t-8.5 -51.5z" />
    <glyph glyph-name="plusminus" unicode="&#xb1;" horiz-adv-x="1058" 
d="M424 270q-12 0 -23 11q-8 16 -8 28q0 22 8 35q6 15 13 34.5t11.5 32t9 24t6.5 15.5t3 1q14 23 5 38q-32 9 -46 9h-24q-29 0 -45 8q-15 15 -15 26q0 17 23 33q90 0 139 2q16 28 40.5 103.5t53.5 105.5q8 2 21 2q26 0 35 -30q-6 -24 -30.5 -82t-29.5 -91q4 -10 33 -10
q21 1 48 0t50 0h93q22 -3 26 -26q0 -2 2 -5t2 -4q0 -15 -24 -30q-200 -4 -258 -6q-24 -45 -46 -108t-40 -101q-23 -15 -33 -15zM596 80q-43 4 -94 5.5t-87.5 2t-95.5 1.5t-90 1t-43 31q5 43 52 43q47 2 139 2q135 -8 203 -10q56 0 75 -27v-8q0 -15 -14 -29q-18 -12 -45 -12z
" />
    <glyph glyph-name="uni00B2" unicode="&#xb2;" horiz-adv-x="1177" 
d="M932 999q-69 0 -164 56q-100 -36 -102 -37q-20 -4 -33 -4q-59 0 -78 45q-8 11 -8 31q0 57 59 84q16 9 41 14q24 1 62 -14t51 -17q68 46 124.5 124.5t76.5 154.5q-27 4 -50 -7t-45.5 -30t-36.5 -25h-8q-43 0 -37 41q3 11 9 17q48 56 131 81q30 5 37 5q23 0 40 -11
q15 -7 21 -18t20 -53q-6 -27 -14.5 -52.5t-23.5 -52.5t-25.5 -45.5t-33.5 -47.5t-33.5 -41.5t-39 -45.5t-36.5 -43q37 -37 106 -29q19 2 48 19.5t48 17.5q26 -3 29 -37q-10 -20 -24.5 -34.5t-35 -23.5t-36 -13t-39.5 -9zM647 1098q9 -7 27 2q-12 6 -16 5.5t-11 -7.5z" />
    <glyph glyph-name="uni00B3" unicode="&#xb3;" horiz-adv-x="1144" 
d="M678 944q-61 3 -96 39t-35 96q0 58 18 95q6 15 10.5 22t14 15t24.5 12q3 -1 7 -1.5t6.5 -1t3.5 -1.5q3 -3 8.5 -11.5t7.5 -11.5q0 -19 -6 -31q-20 -54 -20 -82q0 -24 4 -34q22 -43 77 -33q108 23 164 123q17 34 17 51q0 14 -13 37q-16 16 -43 16q-8 0 -24.5 -2t-24.5 -2
q-23 0 -33 6q-9 9 -14 19q-1 3 -1 6t0.5 6t0.5 4q4 13 10.5 20.5t24 16t20.5 10.5q91 48 138 100q26 31 32 50q-19 8 -38 8q-24 0 -72 -21q-19 -9 -49.5 -29t-36.5 -24q-38 0 -45 33q1 5 2.5 9.5t4 9t4.5 7.5t6 7l6 6t7.5 6t7 5.5t8 5.5t7.5 5q73 42 111 49q62 5 73 5
q71 -3 82 -68q-9 -44 -24.5 -67t-98.5 -115q-1 -3 9 -23q38 -35 38 -88q0 -30 -16 -70q-31 -80 -108 -133.5t-156 -50.5z" />
    <glyph glyph-name="acute" unicode="&#xb4;" horiz-adv-x="1638" 
d="M229 616q-29 0 -43 29v8q0 12 11 27q14 17 26 27q67 56 139 118q5 5 17.5 8.5t13.5 4.5q40 -13 35 -43q-2 -27 -29 -47q-19 -13 -75.5 -64t-94.5 -68z" />
    <glyph glyph-name="paragraph" unicode="&#xb6;" horiz-adv-x="1120" 
d="M1343 1509q14 0 31 -24q0 -13 -4 -19q-6 -11 -23 -41t-29.5 -51t-25.5 -39q-36 -55 -75 -117.5t-85.5 -141t-72.5 -120.5q-83 -131 -189 -315q-98 -161 -303 -551q-25 -50 -73.5 -141t-65.5 -123q-15 -31 -45 -33q-3 1 -10.5 5t-10.5 5q-15 23 -8 50q7 25 29 59
q249 482 393 733q27 49 59.5 104t74.5 123.5t63 104.5q128 210 147 237q88 146 166 261q4 6 13.5 17.5t9.5 12.5q16 4 34 4zM846 893q-103 -161 -191 -326q-155 -274 -321 -583q-2 -3 -5 -8t-5 -8t-5.5 -7.5t-6.5 -7.5t-7 -6.5t-8.5 -5.5t-9.5 -4q-30 0 -43 32q0 15 2 17
q50 102 84 164q110 204 325 593q4 5 9 25q-14 -8 -27 -19.5t-28 -26.5t-25 -24q-54 -54 -164 -133q-68 -49 -141 -57q-56 0 -93 43q-22 49 -22 94q0 35 8 66q21 111 98 229q67 110 197 223q72 60 162 84q16 6 45 6q75 0 137 -65q6 -6 12 -14t12.5 -18t10.5 -15l16 -8
q29 24 71.5 78.5t65.5 74.5q8 1 19 3.5t14 2.5q10 0 16 -5t17 -23v-19q-13 -30 -39 -67q-25 -40 -87 -136t-93 -149zM473 707q32 28 67.5 63t59 60t64 68t59.5 63q6 7 18.5 21t20 22.5t16.5 21.5t15 25q-18 44 -35.5 70.5t-46.5 43.5q-34 6 -47 6q-9 0 -22.5 -4.5
t-18.5 -5.5q-64 -25 -113 -71q-121 -114 -184 -222q-60 -100 -72 -178q-6 -54 -6 -57q0 -26 24 -35h31q15 2 35 14q86 53 135 95z" />
    <glyph glyph-name="periodcentered" unicode="&#xb7;" horiz-adv-x="524" 
d="M225 264q-36 11 -39 55q3 45 39 58q2 0 7 1t6 1q21 0 36 -19q17 -17 17 -43q-7 -30 -21 -41q-14 -16 -45 -12z" />
    <glyph glyph-name="cedilla" unicode="&#xb8;" horiz-adv-x="563" 
d="M-41 -141q-32 0 -59 37q-2 1 -9 16v12q0 30 27 37q6 4 16 4q5 0 16.5 -3t16.5 -3q18 0 25 14q-1 5 3 6l-2 1q-2 1 -3 2q-26 15 -39 20q-11 16 -8 41q7 28 51 78q25 19 53 8q12 -9 14.5 -34t4.5 -29q2 -6 9 -20t11 -28.5t4 -33.5q-5 -27 -22 -52q-15 -39 -68 -63
q-27 -10 -41 -10z" />
    <glyph glyph-name="uni00B9" unicode="&#xb9;" horiz-adv-x="800" 
d="M580 918q-27 8 -33 32v8q76 295 166 484q2 4 7.5 14.5t8.5 15.5t8.5 12t12 11t14.5 6q27 0 37 -26v-17q-94 -200 -178 -489q-4 -15 -7.5 -24.5t-12.5 -17.5t-23 -9z" />
    <glyph glyph-name="ordmasculine" unicode="&#xba;" horiz-adv-x="743" 
d="M174 1040q-44 3 -59 47q0 2 -3 19.5t-3 26.5q0 20 4 28q41 199 223 328q26 16 55 16q37 2 61.5 -17.5t28.5 -55.5q1 -9 1 -19t-0.5 -21.5t-0.5 -17.5v-14q0 -19 8 -31q16 -2 46.5 5t44.5 7q2 0 26 -6q27 -15 27 -39q0 -1 -4.5 -7.5t-5.5 -10.5q-29 -15 -90.5 -20
t-83.5 -11q-8 -12 -24.5 -33.5t-23.5 -33.5q-52 -73 -131 -121q-43 -22 -96 -19zM393 1333q15 45 15 53q0 23 -17 46q-2 -23 -27 -46t-28 -28q19 -19 25.5 -22t31.5 -3zM188 1112q64 12 117 68q21 20 26.5 30t14.5 45q-18 3 -45 25.5t-41 28.5q-38 -53 -57 -97.5t-15 -99.5z
" />
    <glyph glyph-name="guillemotright" unicode="&#xbb;" horiz-adv-x="815" 
d="M440 195q-7 1 -18.5 5t-18.5 5q-1 4 -5.5 13l-6.5 13q4 25 12 33q8 12 25 35t25 35q7 5 30 41q-8 7 -15 16.5t-9 11.5q-76 80 -113 115q-38 38 -45 49q-12 12 -12 25q0 18 14 29q6 4 16 4q17 0 25 -2q8 -8 25.5 -22t23.5 -19l166 -158q25 -29 23 -62q-54 -100 -142 -167z
M272 221q-21 0 -34 23q-11 22 2 35q18 27 36 51q4 6 11.5 16.5t9.5 15.5q-9 18 -36 39.5t-30 24.5q-2 2 -11 10.5t-12 12t-9 11.5t-9 15.5t-4 16.5q0 2 1 11t1 15q8 3 27 8q15 0 21 -4q124 -86 151 -127q3 -4 5 -8t4 -8.5t3 -7.5q0 -10 -4 -20t-8.5 -16t-12.5 -16t-12 -16
q-7 -8 -21.5 -28t-28.5 -33.5t-31 -20.5h-9z" />
    <glyph glyph-name="onequarter" unicode="&#xbc;" horiz-adv-x="1288" 
d="M385 84q-1 0 -25 6q-27 24 -14 51q14 33 47 97q11 19 106 180.5t146 243.5q51 83 254 376q26 43 70 101q4 7 32 35q19 19 46 12q18 -9 26 -31q-1 -2 -2.5 -11t-3.5 -14q-86 -118 -111 -155q-208 -289 -307 -469q-38 -69 -94 -156q-86 -147 -119 -211q-3 -7 -4.5 -11.5
t-4.5 -9t-4.5 -6.5t-6.5 -6t-7.5 -5.5t-10.5 -7t-13 -9.5zM449 672q-45 3 -48 47q2 7 15 29q47 112 155 286q12 19 19.5 29.5t23.5 24t35 20.5q20 -7 23 -12q6 -6 10 -23q0 -2 1 -4.5t1 -3.5t-2 -2q-24 -43 -78.5 -138t-81.5 -145q-9 -13 -17 -27.5t-18 -35t-14 -29.5z
M664 -113q-10 0 -27 17q-6 12 -6 22q0 15 6 27q5 12 37 65q47 82 145 242q19 28 19 43q-50 43 -142 57q-4 5 -10 15t-8 12q0 40 29 53q30 17 45 21q13 12 27.5 28.5t23 27t25.5 33.5t22 30q7 10 10 14t9.5 11.5t13.5 11.5t16 6q32 0 41 -33q0 -11 -4 -17q-15 -39 -66 -106
q-16 -22 -34 -43v-6q0 -14 22 -25l35 -8q43 46 76 100q33 51 96 136q28 36 43 49q12 8 37 12q22 0 29 -20q6 -9 6 -21q0 -1 -1 -7t-1 -11q-48 -52 -70 -80q-40 -55 -94 -142q1 -6 4 -8.5t8.5 -3.5t7.5 -2q34 0 45 -33l-12 -24q-13 -21 -45 -29q-13 -3 -41 -7t-41 -7
q-24 -29 -45.5 -62.5t-45 -74t-38.5 -62.5q-18 -27 -56.5 -93t-60.5 -95q-20 -13 -30 -13z" />
    <glyph glyph-name="onehalf" unicode="&#xbd;" horiz-adv-x="1230" 
d="M252 8q-10 0 -16.5 7t-16.5 26q0 14 2 18q44 85 74 136q149 271 295 475q119 173 264 344q105 122 178 190q31 31 60 31q16 -8 24 -14q1 -3 6 -31q-2 -3 -7.5 -13.5t-10.5 -15.5q-10 -15 -29 -31q-223 -216 -471 -583q-100 -149 -196 -320q-39 -72 -121 -204
q-30 -15 -35 -15zM465 762q-26 0 -33 24q0 3 -1 8t-1 8.5t2 6.5q39 86 49 102q47 87 135 236q20 39 54 55h4q16 0 24 -8.5t17 -28.5q-4 -24 -8 -28q-61 -95 -189 -328q-19 -38 -35 -45q-6 -2 -18 -2zM942 49q-70 2 -162 64q-11 0 -21.5 -4t-23 -10t-20.5 -9q-57 -23 -70 -24
q-18 -3 -33 -3q-66 0 -102 70q-1 3 -2 11t-2 12q9 51 41.5 80.5t85.5 35.5q19 0 41.5 -5t33.5 -9t39.5 -16t32.5 -13q118 86 187 207q18 30 18 72q0 16 -2 24q-2 10 -14 25q-27 4 -52.5 -6t-56.5 -29.5t-49 -27.5q-3 2 -12.5 6t-12.5 8q-26 23 -8 49q11 11 19 23
q60 45 121 59q2 0 17 3t23 3q49 0 82 -39q15 -15 17 -24q10 -41 10 -66q0 -20 -8 -67q-25 -78 -86 -148q-34 -40 -115 -129q5 -9 11.5 -16t16 -10.5t15 -5.5t17.5 -4t16 -3q40 6 65 37q28 36 43 51q14 17 29 17q9 0 20 -10t15 -25v-15q-41 -115 -164 -139zM631 147
q25 0 51 23q-12 19 -22.5 22.5t-30.5 -2.5q-26 -6 -23 -36q9 -7 25 -7z" />
    <glyph glyph-name="questiondown" unicode="&#xbf;" horiz-adv-x="1101" 
d="M926 1157q41 -10 41 -43q-3 -33 -31 -47q-4 -2 -16 -2q-24 0 -35 16q-6 24 -6 25q0 9 8 29q13 22 39 22zM786 938q19 -1 27.5 -11t11.5 -32q-17 -27 -24 -35q-29 -27 -80.5 -78.5t-94.5 -92.5t-83 -75q-69 -62 -199 -186q-65 -62 -100 -139q-21 -38 -21 -74q0 -19 4 -27
q3 -27 33 -45q24 -4 41 -4q47 0 84 19q141 58 248 204q8 9 20.5 29.5t18.5 28.5q19 8 24 8q10 2 19 -2q14 -10 16 -12q3 -4 8 -17q0 -12 -2 -18q-1 -1 -7 -18.5t-11 -24.5q-96 -149 -262 -238q-88 -47 -176 -41q-17 0 -37 4q-41 11 -68.5 43.5t-30.5 75.5q-4 10 -4 35
q0 26 15 80q39 96 96 156q98 109 199 192q98 84 239 225q44 44 64 58q7 6 32 12z" />
    <glyph glyph-name="Agrave" unicode="&#xc0;" horiz-adv-x="892" 
d="M727 1401q-6 4 -29 16q-24 40 -59 166q2 4 4.5 10.5t4.5 10.5t5 8q1 2 7 6l6 4q2 0 6 1t6 1q22 0 29 -18q14 -17 20 -33q4 -10 43 -125q-2 -6 -3 -10.5t-2 -8.5t-3 -6.5t-3 -5t-3.5 -4t-3.5 -2.5t-5 -2.5t-5.5 -2.5t-7 -2.5t-7.5 -2.5zM461 -182q-20 0 -33 26v25
q11 38 40 133.5t44 147.5q18 64 63 214.5t76 257.5t33 121q-43 2 -164 2q-123 0 -180 -2q-159 -301 -272 -708q1 0 -9 -10q-9 -7 -22 -11q-26 3 -37 35q5 33 12 66t19.5 73t20 62.5t25.5 72.5t23 64q18 52 42 108t61.5 137t50.5 111q-23 1 -66 2t-66 3t-30 6q-16 22 -16 32
q0 15 8 23q2 1 7.5 4.5t8.5 3.5q66 0 99 -4h90q10 15 51 90q91 152 209 285q30 31 94 80q35 24 74 24q29 0 52.5 -16t35.5 -47q14 -55 14 -123q0 -136 -45 -289q18 1 66.5 2t62.5 2h15q51 -4 51 -37q0 -14 -16 -22t-27.5 -9t-20.5 -1q-12 0 -20 -4q-15 0 -37 -1q-7 0 1 1h1
h1h1h2q-12 0 -43 -1.5t-49 -1.5q-156 -569 -254 -874q-14 -42 -37 -51q-4 -2 -10 -2zM373 809q24 1 163 1.5t162 2.5q32 115 50 277v96q0 25 -19 37q-38 5 -86 -43q-133 -122 -270 -371z" />
    <glyph glyph-name="Aacute" unicode="&#xc1;" horiz-adv-x="892" 
d="M809 1403q-29 0 -43 29v8q0 13 10 26q12 15 27 27q40 33 139 119q5 5 17 8t14 4q40 -13 35 -43q-2 -27 -29 -47q-18 -13 -75 -63.5t-95 -67.5zM461 -182q-20 0 -33 26v25q11 38 40 133.5t44 147.5q18 64 63 214.5t76 257.5t33 121q-43 2 -164 2q-123 0 -180 -2
q-159 -301 -272 -708q1 0 -9 -10q-9 -7 -22 -11q-26 3 -37 35q5 33 12 66t19.5 73t20 62.5t25.5 72.5t23 64q18 52 42 108t61.5 137t50.5 111q-23 1 -66 2t-66 3t-30 6q-16 22 -16 32q0 15 8 23q2 1 7.5 4.5t8.5 3.5q66 0 99 -4h90q10 15 51 90q91 152 209 285q30 31 94 80
q35 24 74 24q29 0 52.5 -16t35.5 -47q14 -55 14 -123q0 -136 -45 -289q18 1 66.5 2t62.5 2h15q51 -4 51 -37q0 -14 -16 -22t-27.5 -9t-20.5 -1q-12 0 -20 -4q-15 0 -37 -1q-7 0 1 1h1h1h1h2q-12 0 -43 -1.5t-49 -1.5q-156 -569 -254 -874q-14 -42 -37 -51q-4 -2 -10 -2z
M373 809q24 1 163 1.5t162 2.5q32 115 50 277v96q0 25 -19 37q-38 5 -86 -43q-133 -122 -270 -371z" />
    <glyph glyph-name="Acircumflex" unicode="&#xc2;" horiz-adv-x="892" 
d="M696 1395q-31 0 -39 30q0 16 7 25q14 22 24 33q39 43 121 137q27 27 45 43h33q28 -14 33 -41q0 -37 -19.5 -105.5t-21.5 -80.5q-24 -40 -58 -29q-9 4 -13.5 12.5t-7 20t-5.5 16.5h-7q-11 0 -24.5 -14.5t-15.5 -16.5q-1 -1 -14.5 -11t-18.5 -15q-8 -4 -19 -4zM461 -182
q-20 0 -33 26v25q11 38 40 133.5t44 147.5q18 64 63 214.5t76 257.5t33 121q-43 2 -164 2q-123 0 -180 -2q-159 -301 -272 -708q1 0 -9 -10q-9 -7 -22 -11q-26 3 -37 35q5 33 12 66t19.5 73t20 62.5t25.5 72.5t23 64q18 52 42 108t61.5 137t50.5 111q-23 1 -66 2t-66 3
t-30 6q-16 22 -16 32q0 15 8 23q2 1 7.5 4.5t8.5 3.5q66 0 99 -4h90q10 15 51 90q91 152 209 285q30 31 94 80q35 24 74 24q29 0 52.5 -16t35.5 -47q14 -55 14 -123q0 -136 -45 -289q18 1 66.5 2t62.5 2h15q51 -4 51 -37q0 -14 -16 -22t-27.5 -9t-20.5 -1q-12 0 -20 -4
q-15 0 -37 -1q-7 0 1 1h1h1h1h2q-12 0 -43 -1.5t-49 -1.5q-156 -569 -254 -874q-14 -42 -37 -51q-4 -2 -10 -2zM373 809q24 1 163 1.5t162 2.5q32 115 50 277v96q0 25 -19 37q-38 5 -86 -43q-133 -122 -270 -371z" />
    <glyph glyph-name="Atilde" unicode="&#xc3;" horiz-adv-x="892" 
d="M659 1401q-22 0 -34 31q0 10 2 18q19 42 69 59q28 7 49 7q14 0 29 -3q9 -2 34.5 -10t39.5 -10q10 -1 21.5 -1t26.5 0.5t24 0.5q24 -27 24 -35q0 -6 -18 -35q-27 -14 -64 -14q-18 0 -39 4.5t-46.5 11t-39.5 9.5l-69 -33h-9zM461 -182q-20 0 -33 26v25q11 38 40 133.5
t44 147.5q18 64 63 214.5t76 257.5t33 121q-43 2 -164 2q-123 0 -180 -2q-159 -301 -272 -708q1 0 -9 -10q-9 -7 -22 -11q-26 3 -37 35q5 33 12 66t19.5 73t20 62.5t25.5 72.5t23 64q18 52 42 108t61.5 137t50.5 111q-23 1 -66 2t-66 3t-30 6q-16 22 -16 32q0 15 8 23
q2 1 7.5 4.5t8.5 3.5q66 0 99 -4h90q10 15 51 90q91 152 209 285q30 31 94 80q35 24 74 24q29 0 52.5 -16t35.5 -47q14 -55 14 -123q0 -136 -45 -289q18 1 66.5 2t62.5 2h15q51 -4 51 -37q0 -14 -16 -22t-27.5 -9t-20.5 -1q-12 0 -20 -4q-15 0 -37 -1q-7 0 1 1h1h1h1h2
q-12 0 -43 -1.5t-49 -1.5q-156 -569 -254 -874q-14 -42 -37 -51q-4 -2 -10 -2zM373 809q24 1 163 1.5t162 2.5q32 115 50 277v96q0 25 -19 37q-38 5 -86 -43q-133 -122 -270 -371z" />
    <glyph glyph-name="Adieresis" unicode="&#xc4;" horiz-adv-x="892" 
d="M733 1401q-24 1 -31 5t-24 26l-2 10q0 17 18 49l35 14q46 0 49 -47q-3 -40 -45 -57zM852 1395q-25 0 -37 24q-4 5 -6 14.5t-2 10.5q3 27 24 45q13 10 33 10q18 0 37 -16q1 -1 8 -31q-2 -30 -28 -49q-16 -8 -29 -8zM461 -182q-20 0 -33 26v25q11 38 40 133.5t44 147.5
q18 64 63 214.5t76 257.5t33 121q-43 2 -164 2q-123 0 -180 -2q-159 -301 -272 -708q1 0 -9 -10q-9 -7 -22 -11q-26 3 -37 35q5 33 12 66t19.5 73t20 62.5t25.5 72.5t23 64q18 52 42 108t61.5 137t50.5 111q-23 1 -66 2t-66 3t-30 6q-16 22 -16 32q0 15 8 23q2 1 7.5 4.5
t8.5 3.5q66 0 99 -4h90q10 15 51 90q91 152 209 285q30 31 94 80q35 24 74 24q29 0 52.5 -16t35.5 -47q14 -55 14 -123q0 -136 -45 -289q18 1 66.5 2t62.5 2h15q51 -4 51 -37q0 -14 -16 -22t-27.5 -9t-20.5 -1q-12 0 -20 -4q-15 0 -37 -1q-7 0 1 1h1h1h1h2q-12 0 -43 -1.5
t-49 -1.5q-156 -569 -254 -874q-14 -42 -37 -51q-4 -2 -10 -2zM373 809q24 1 163 1.5t162 2.5q32 115 50 277v96q0 25 -19 37q-38 5 -86 -43q-133 -122 -270 -371z" />
    <glyph glyph-name="Aring" unicode="&#xc5;" horiz-adv-x="892" 
d="M805 1403q-29 -2 -51 15.5t-23 45.5q-9 57 25 109t90 67q14 7 24 7q18 0 41 -15t33 -28q8 -40 8 -54q0 -4 -6 -34q-4 -14 -8 -17q-29 -41 -55 -65q-27 -31 -78 -31zM815 1489q51 21 51 45q0 6 -4 22q-20 -11 -26.5 -15t-15 -18.5t-5.5 -33.5zM461 -182q-20 0 -33 26v25
q11 38 40 133.5t44 147.5q18 64 63 214.5t76 257.5t33 121q-43 2 -164 2q-123 0 -180 -2q-159 -301 -272 -708q1 0 -9 -10q-9 -7 -22 -11q-26 3 -37 35q5 33 12 66t19.5 73t20 62.5t25.5 72.5t23 64q18 52 42 108t61.5 137t50.5 111q-23 1 -66 2t-66 3t-30 6q-16 22 -16 32
q0 15 8 23q2 1 7.5 4.5t8.5 3.5q66 0 99 -4h90q10 15 51 90q91 152 209 285q30 31 94 80q35 24 74 24q29 0 52.5 -16t35.5 -47q14 -55 14 -123q0 -136 -45 -289q18 1 66.5 2t62.5 2h15q51 -4 51 -37q0 -14 -16 -22t-27.5 -9t-20.5 -1q-12 0 -20 -4q-15 0 -37 -1q-7 0 1 1h1
h1h1h2q-12 0 -43 -1.5t-49 -1.5q-156 -569 -254 -874q-14 -42 -37 -51q-4 -2 -10 -2zM373 809q24 1 163 1.5t162 2.5q32 115 50 277v96q0 25 -19 37q-38 5 -86 -43q-133 -122 -270 -371z" />
    <glyph glyph-name="AE" unicode="&#xc6;" horiz-adv-x="1187" 
d="M424 -90q-6 0 -10 2.5t-6 7t-7 14.5q0 3 -1 6.5t-1 4.5q-4 6 0 8l2 6q23 127 60 213q43 163 98 344q8 13 8 33l8 24v11q-17 20 -32 20q-109 0 -160 -4q-122 -4 -176 -4l-8 -4q-35 -39 -82 -127q-5 -13 -29 -62q-40 -74 -94 -200q-50 -101 -61 -145q-7 -29 -7 -58
q-3 -3 -7 -11.5t-7 -11.5q-20 -41 -41 -51q-20 -5 -30.5 1.5t-22.5 31.5q84 258 278 606v10q-26 26 -37 48q4 18 15.5 28.5t21 13t27.5 5.5q8 0 24 4l7 4q21 29 51 76l32 48t35 52q130 187 244 285q14 16 40 37t34 28q14 14 24 19q5 3 15 7t12 5q14 5 33 16q56 3 94 -41
q6 -23 10 -30q1 -4 6 -12l4 -7l13 -6q19 6 41 33q4 10 16 22q42 54 111 54q13 0 36.5 1t36.5 1t30.5 -2.5t31.5 -8.5q20 -7 43 -10q79 -23 133 -31q1 0 8.5 -3t10 -3.5t9 -3.5t9.5 -5t8.5 -5.5t8.5 -6.5t6.5 -8t5.5 -10q0 -24 -5 -32.5t-24 -14.5q-8 2 -29.5 7t-34.5 10
q-163 62 -303 49q-11 -4 -19 -9t-18 -14.5t-12 -11.5q-1 -1 -4 -5t-4 -7q-106 -182 -188 -434l6 -11q53 -12 135 -8q87 4 119 -6q12 -27 4 -53q-4 0 -8 -4q-4 -2 -11 -2q-18 0 -35 -7q-32 -4 -49 -4h-178l-8 -4q-21 -31 -47 -125q-1 -6 -6 -21t-6 -26q-20 -59 -25 -106
q-2 -9 -6.5 -33.5t-9.5 -40.5q-22 -80 -9 -176l9 -12q11 0 22 3.5t24.5 9.5t20.5 9q2 1 8.5 4t10.5 4q34 12 131 66q52 26 159 76q60 36 84 28q47 -19 10 -52q-16 -15 -53 -36q-65 -31 -182 -89.5t-162 -80.5q-55 -23 -89.5 -21t-78.5 27q-1 -13 -12 -55q-1 -3 -5.5 -17
t-6.5 -20q-4 -14 -37 -14zM268 672q217 0 336 16l4 6q86 262 105 436q0 31 -23 41h-8q-88 -43 -226.5 -202.5t-195.5 -282.5z" />
    <glyph glyph-name="Ccedilla" unicode="&#xc7;" horiz-adv-x="897" 
d="M901 346q13 0 25.5 -8t11.5 -19q0 -12 -12 -32q-116 -163 -226 -273q-74 -74 -180 -131q-111 -61 -225 -61q8 -9 9.5 -31.5t4.5 -28.5q2 -7 9.5 -20.5t11.5 -27.5t4 -33q-5 -25 -23 -52q-15 -40 -67 -63q-27 -10 -41 -10q-34 0 -60 36q-3 2 -4.5 5t-2 7t-1.5 5v12
q0 30 27 37q6 4 16 4q5 0 16.5 -3t16.5 -3q18 0 25 14q-1 6 3 5l-6 3q-34 19 -38 21q-12 17 -9 41q2 7 5.5 15t6.5 13.5t9.5 14t9.5 11.5t11 12.5t10 11.5q4 4 12 8q-62 7 -105 29q-85 56 -122 170q-23 79 -23 165q0 55 4 82q21 155 81.5 341t135.5 313q74 125 180 223
q102 94 242 94q98 0 143 -80q37 -50 37 -129q0 -9 -6 -57q-28 -108 -59 -141q-11 -11 -29 -11q-30 0 -43 29q2 19 25 66q22 56 24 81q1 5 2.5 15.5t2.5 18.5t1 14q0 47 -32 90q-28 32 -86 32q-53 0 -95 -26q-121 -76 -217 -225q-68 -106 -129 -270.5t-88 -305.5
q-16 -88 -16 -164q0 -72 12 -121q18 -75 71 -119t140 -44q106 5 197 57q71 36 170 131q76 76 141 168q21 23 41 49.5t29.5 35.5t21.5 9z" />
    <glyph glyph-name="Egrave" unicode="&#xc8;" horiz-adv-x="1046" 
d="M934 1661q-6 5 -29 16q-24 40 -59 166q2 4 4.5 10.5t4.5 10.5t5 8q1 2 6 6l6 4q2 0 6.5 1t6.5 1q21 0 28 -18q16 -19 21 -33q4 -10 43 -125q-2 -6 -3 -10.5t-2 -8.5t-3 -6.5t-3 -5t-3.5 -4t-3.5 -2.5t-5 -2.5t-5.5 -2.5t-7 -2.5t-7.5 -2.5zM256 -395q-144 0 -241 84
t-97 227q0 41 2 61q20 143 103 291q71 121 143 193q110 110 221 143q13 4 96 19q10 2 41 2q33 0 47 -2q-30 71 -53 161q-20 85 -20 181q0 181 59 305q68 140 166 211q36 29 82 51q40 18 94 18q58 0 110 -29t81 -69q37 -51 55 -117q12 -53 12 -112q0 -36 -2 -52
q0 -32 -14 -41q-6 -1 -15 -3.5t-12 -2.5q-8 0 -27 13q-12 24 -12 49q0 8 2 24.5t2 24.5q0 95 -45 166q-50 74 -133 74q-33 0 -76 -17q-71 -31 -129 -106q-125 -168 -125 -394q0 -97 27 -196q8 -28 25 -83t24 -81q-7 -25 -16 -37.5t-31 -19.5q-30 0 -57 8q-36 6 -37 6
q-29 0 -82 -16q-74 -23 -121.5 -57t-97.5 -89q-94 -99 -164 -256q-49 -116 -49 -235q1 -69 40.5 -122.5t97 -79.5t118.5 -26q42 0 103.5 12.5t99.5 32.5q161 82 278 215q31 37 120.5 161.5t135.5 191.5l29 35q37 47 61 30q17 -3 17 -18q0 -22 -45 -86l-105 -148
q-142 -204 -276 -323q-103 -95 -267 -156q-41 -16 -143 -16z" />
    <glyph glyph-name="Eacute" unicode="&#xc9;" horiz-adv-x="1046" 
d="M1016 1663q-28 0 -43 29v8q0 13 10 26q12 15 27 27q40 33 139 119q5 5 17 8t14 4q39 -13 34 -43q-2 -28 -28 -47q-18 -13 -75 -63.5t-95 -67.5zM256 -395q-144 0 -241 84t-97 227q0 41 2 61q20 143 103 291q71 121 143 193q110 110 221 143q13 4 96 19q10 2 41 2
q33 0 47 -2q-30 71 -53 161q-20 85 -20 181q0 181 59 305q68 140 166 211q36 29 82 51q40 18 94 18q58 0 110 -29t81 -69q37 -51 55 -117q12 -53 12 -112q0 -36 -2 -52q0 -32 -14 -41q-6 -1 -15 -3.5t-12 -2.5q-8 0 -27 13q-12 24 -12 49q0 8 2 24.5t2 24.5q0 95 -45 166
q-50 74 -133 74q-33 0 -76 -17q-71 -31 -129 -106q-125 -168 -125 -394q0 -97 27 -196q8 -28 25 -83t24 -81q-7 -25 -16 -37.5t-31 -19.5q-30 0 -57 8q-36 6 -37 6q-29 0 -82 -16q-74 -23 -121.5 -57t-97.5 -89q-94 -99 -164 -256q-49 -116 -49 -235q1 -69 40.5 -122.5
t97 -79.5t118.5 -26q42 0 103.5 12.5t99.5 32.5q161 82 278 215q31 37 120.5 161.5t135.5 191.5l29 35q37 47 61 30q17 -3 17 -18q0 -22 -45 -86l-105 -148q-142 -204 -276 -323q-103 -95 -267 -156q-41 -16 -143 -16z" />
    <glyph glyph-name="Ecircumflex" unicode="&#xca;" horiz-adv-x="1046" 
d="M903 1655q-31 0 -39 31q0 16 6 24q12 20 25 33q39 43 121 137q27 27 45 43h33q27 -14 32 -41q0 -37 -19.5 -105.5t-21.5 -80.5q-24 -40 -57 -29q-9 4 -13.5 12.5t-8 20t-5.5 16.5h-6q-8 0 -15 -5t-14 -13.5t-12 -11.5q-25 -20 -32 -27q-8 -4 -19 -4zM256 -395
q-144 0 -241 84t-97 227q0 41 2 61q20 143 103 291q71 121 143 193q110 110 221 143q13 4 96 19q10 2 41 2q33 0 47 -2q-30 71 -53 161q-20 85 -20 181q0 181 59 305q68 140 166 211q36 29 82 51q40 18 94 18q58 0 110 -29t81 -69q37 -51 55 -117q12 -53 12 -112
q0 -36 -2 -52q0 -32 -14 -41q-6 -1 -15 -3.5t-12 -2.5q-8 0 -27 13q-12 24 -12 49q0 8 2 24.5t2 24.5q0 95 -45 166q-50 74 -133 74q-33 0 -76 -17q-71 -31 -129 -106q-125 -168 -125 -394q0 -97 27 -196q8 -28 25 -83t24 -81q-7 -25 -16 -37.5t-31 -19.5q-30 0 -57 8
q-36 6 -37 6q-29 0 -82 -16q-74 -23 -121.5 -57t-97.5 -89q-94 -99 -164 -256q-49 -116 -49 -235q1 -69 40.5 -122.5t97 -79.5t118.5 -26q42 0 103.5 12.5t99.5 32.5q161 82 278 215q31 37 120.5 161.5t135.5 191.5l29 35q37 47 61 30q17 -3 17 -18q0 -22 -45 -86l-105 -148
q-142 -204 -276 -323q-103 -95 -267 -156q-41 -16 -143 -16z" />
    <glyph glyph-name="Edieresis" unicode="&#xcb;" horiz-adv-x="1046" 
d="M940 1661q-24 1 -31 5t-24 26l-2 10q0 17 18 49l35 14q46 0 49 -47q-3 -40 -45 -57zM1059 1655q-25 0 -37 24q-4 5 -6 14.5t-2 10.5q3 27 24 45q12 10 33 10q18 0 37 -16q0 -1 8 -31q-2 -29 -29 -49q-16 -8 -28 -8zM256 -395q-144 0 -241 84t-97 227q0 41 2 61
q20 143 103 291q71 121 143 193q110 110 221 143q13 4 96 19q10 2 41 2q33 0 47 -2q-30 71 -53 161q-20 85 -20 181q0 181 59 305q68 140 166 211q36 29 82 51q40 18 94 18q58 0 110 -29t81 -69q37 -51 55 -117q12 -53 12 -112q0 -36 -2 -52q0 -32 -14 -41q-6 -1 -15 -3.5
t-12 -2.5q-8 0 -27 13q-12 24 -12 49q0 8 2 24.5t2 24.5q0 95 -45 166q-50 74 -133 74q-33 0 -76 -17q-71 -31 -129 -106q-125 -168 -125 -394q0 -97 27 -196q8 -28 25 -83t24 -81q-7 -25 -16 -37.5t-31 -19.5q-30 0 -57 8q-36 6 -37 6q-29 0 -82 -16q-74 -23 -121.5 -57
t-97.5 -89q-94 -99 -164 -256q-49 -116 -49 -235q1 -69 40.5 -122.5t97 -79.5t118.5 -26q42 0 103.5 12.5t99.5 32.5q161 82 278 215q31 37 120.5 161.5t135.5 191.5l29 35q37 47 61 30q17 -3 17 -18q0 -22 -45 -86l-105 -148q-142 -204 -276 -323q-103 -95 -267 -156
q-41 -16 -143 -16z" />
    <glyph glyph-name="Igrave" unicode="&#xcc;" horiz-adv-x="851" 
d="M913 1470q-12 9 -28 17q-25 43 -60 166q12 24 15 28q1 2 3.5 4l5 4t3.5 3q2 0 6 1t6 1q21 0 29 -19q14 -17 20 -33q8 -21 43 -124q-7 -28 -13 -34t-30 -14zM1286 1276q64 0 78 -41v-8q0 -17 -18 -31q-8 -2 -25 -2q-9 0 -27 1t-28 1q-59 -2 -181 -2q-135 0 -223 -45
q-76 -173 -82 -188q-45 -110 -59 -150q-13 -33 -47 -129q-76 -200 -256 -707q-13 -36 -37 -106q37 0 97.5 11.5t74.5 13.5q23 1 66 11.5t65 10.5q3 0 33 -6q27 -24 12 -51q-7 -6 -14 -10t-17.5 -7t-15 -4.5t-18.5 -4t-17 -3.5q-37 -5 -109.5 -17.5t-109.5 -17.5
q-14 -3 -39 -8.5t-35 -7.5q-14 -18 -22.5 -50t-19.5 -60t-33 -44q-32 6 -39 25q-6 21 4 54.5t10 47.5q-15 14 -39 4q-86 -17 -180 -43q-32 11 -35 35q6 20 8 21q13 20 53 32q22 4 76.5 16.5t85.5 16.5q45 8 72 27q93 246 285 786h-2q37 102 57 154l4 10q48 125 135 334
q-8 18 -37 18q-66 -2 -211 -30q-6 -1 -19.5 -3.5t-19 -3t-16.5 1.5q-22 10 -29 27v8q0 14 9 23q31 23 84 26q223 33 280 35q16 12 28.5 36.5t26 44t35.5 26.5h6q22 0 39 -29v-57q30 -6 60 -6q46 0 82 8q76 10 194 6z" />
    <glyph glyph-name="Iacute" unicode="&#xcd;" horiz-adv-x="851" 
d="M995 1473q-29 0 -43 28v8q0 12 11 27q14 17 26 27q67 55 139 118q5 5 17.5 8.5t13.5 4.5q40 -13 35 -43q-2 -27 -29 -47q-18 -13 -75 -63.5t-95 -67.5zM1286 1276q64 0 78 -41v-8q0 -17 -18 -31q-8 -2 -25 -2q-9 0 -27 1t-28 1q-59 -2 -181 -2q-135 0 -223 -45
q-76 -173 -82 -188q-45 -110 -59 -150q-13 -33 -47 -129q-76 -200 -256 -707q-13 -36 -37 -106q37 0 97.5 11.5t74.5 13.5q23 1 66 11.5t65 10.5q3 0 33 -6q27 -24 12 -51q-7 -6 -14 -10t-17.5 -7t-15 -4.5t-18.5 -4t-17 -3.5q-37 -5 -109.5 -17.5t-109.5 -17.5
q-14 -3 -39 -8.5t-35 -7.5q-14 -18 -22.5 -50t-19.5 -60t-33 -44q-32 6 -39 25q-6 21 4 54.5t10 47.5q-15 14 -39 4q-86 -17 -180 -43q-32 11 -35 35q6 20 8 21q13 20 53 32q22 4 76.5 16.5t85.5 16.5q45 8 72 27q93 246 285 786h-2q37 102 57 154l4 10q48 125 135 334
q-8 18 -37 18q-66 -2 -211 -30q-6 -1 -19.5 -3.5t-19 -3t-16.5 1.5q-22 10 -29 27v8q0 14 9 23q31 23 84 26q223 33 280 35q16 12 28.5 36.5t26 44t35.5 26.5h6q22 0 39 -29v-57q30 -6 60 -6q46 0 82 8q76 10 194 6z" />
    <glyph glyph-name="Icircumflex" unicode="&#xce;" horiz-adv-x="851" 
d="M883 1464q-31 0 -39 31q0 17 6 25q12 20 24 32q16 18 121 138q27 27 45 43h33q28 -14 33 -41q0 -37 -19.5 -106t-21.5 -81q-23 -39 -57 -28q-9 4 -13.5 12.5t-8 20t-5.5 16.5h-6q-8 0 -15 -5.5t-14 -14t-12 -11.5q-30 -24 -33 -27q-8 -4 -18 -4zM1286 1276q64 0 78 -41
v-8q0 -17 -18 -31q-8 -2 -25 -2q-9 0 -27 1t-28 1q-59 -2 -181 -2q-135 0 -223 -45q-76 -173 -82 -188q-45 -110 -59 -150q-13 -33 -47 -129q-76 -200 -256 -707q-13 -36 -37 -106q37 0 97.5 11.5t74.5 13.5q23 1 66 11.5t65 10.5q3 0 33 -6q27 -24 12 -51q-7 -6 -14 -10
t-17.5 -7t-15 -4.5t-18.5 -4t-17 -3.5q-37 -5 -109.5 -17.5t-109.5 -17.5q-14 -3 -39 -8.5t-35 -7.5q-14 -18 -22.5 -50t-19.5 -60t-33 -44q-32 6 -39 25q-6 21 4 54.5t10 47.5q-15 14 -39 4q-86 -17 -180 -43q-32 11 -35 35q6 20 8 21q13 20 53 32q22 4 76.5 16.5
t85.5 16.5q45 8 72 27q93 246 285 786h-2q37 102 57 154l4 10q48 125 135 334q-8 18 -37 18q-66 -2 -211 -30q-6 -1 -19.5 -3.5t-19 -3t-16.5 1.5q-22 10 -29 27v8q0 14 9 23q31 23 84 26q223 33 280 35q16 12 28.5 36.5t26 44t35.5 26.5h6q22 0 39 -29v-57q30 -6 60 -6
q46 0 82 8q76 10 194 6z" />
    <glyph glyph-name="Idieresis" unicode="&#xcf;" horiz-adv-x="851" 
d="M920 1470q-25 2 -32 5.5t-24 25.5l-2 10q0 16 19 50l34 14q47 0 50 -47q-3 -41 -45 -58zM1038 1464q-24 0 -37 25q-4 5 -6 14t-2 10q3 27 25 46q12 10 33 10q16 0 36 -17q3 -6 9 -30q-2 -29 -29 -49q-18 -9 -29 -9zM1286 1276q64 0 78 -41v-8q0 -17 -18 -31q-8 -2 -25 -2
q-9 0 -27 1t-28 1q-59 -2 -181 -2q-135 0 -223 -45q-76 -173 -82 -188q-45 -110 -59 -150q-13 -33 -47 -129q-76 -200 -256 -707q-13 -36 -37 -106q37 0 97.5 11.5t74.5 13.5q23 1 66 11.5t65 10.5q3 0 33 -6q27 -24 12 -51q-7 -6 -14 -10t-17.5 -7t-15 -4.5t-18.5 -4
t-17 -3.5q-37 -5 -109.5 -17.5t-109.5 -17.5q-14 -3 -39 -8.5t-35 -7.5q-14 -18 -22.5 -50t-19.5 -60t-33 -44q-32 6 -39 25q-6 21 4 54.5t10 47.5q-15 14 -39 4q-86 -17 -180 -43q-32 11 -35 35q6 20 8 21q13 20 53 32q22 4 76.5 16.5t85.5 16.5q45 8 72 27q93 246 285 786
h-2q37 102 57 154l4 10q48 125 135 334q-8 18 -37 18q-66 -2 -211 -30q-6 -1 -19.5 -3.5t-19 -3t-16.5 1.5q-22 10 -29 27v8q0 14 9 23q31 23 84 26q223 33 280 35q16 12 28.5 36.5t26 44t35.5 26.5h6q22 0 39 -29v-57q30 -6 60 -6q46 0 82 8q76 10 194 6z" />
    <glyph glyph-name="Eth" unicode="&#xd0;" horiz-adv-x="987" 
d="M848 1219q162 -18 153 -230q-12 -148 -73 -293q-116 -290 -312 -475q-38 -38 -124 -104q-141 -106 -299 -117q-4 0 -17 2t-18.5 2.5t-17.5 2.5t-19 4t-18 5t-18.5 6.5t-16.5 8t-17 10.5q-24 14 -39 31q-20 17 -8 45q9 14 29 14q12 0 24 -6q9 -2 23 -12t20 -13
q55 -20 97 -20q27 0 69 10q108 31 228 125q341 290 424 737q4 32 4 54q0 6 -1 18t-1 18q0 28 -8.5 43t-39.5 48q-16 8 -43 8t-75 -19q-56 -24 -103 -65q-64 -61 -116 -125q-109 -137 -183 -279q12 2 41 2q16 -3 26.5 -13t10.5 -24q-6 -20 -22 -30q-8 -2 -21 -6.5t-24 -7
t-21 -3.5q-23 0 -33 -2q-51 -101 -94 -233q-7 -24 -22 -71.5t-21 -69.5q-21 -24 -39 -29q-31 0 -41 33q0 3 -1 7t-1 7q0 9 16 57q39 124 101 297q-5 0 -14.5 -1t-14.5 -1q-26 0 -41 21q-2 4 -2 12q0 15 12 29q57 18 91 22q85 231 200 473q30 58 80 142q10 16 35 41h22
q21 0 35 -19q4 -6 4 -14q0 -9 -12 -25q-45 -62 -117 -215q-16 -27 -18 -51l33 33q13 13 38.5 41.5t39.5 42.5q127 113 262 123q4 0 8 -2zM840 1221z" />
    <glyph glyph-name="Ntilde" unicode="&#xd1;" horiz-adv-x="874" 
d="M453 -350q-24 0 -37 37q23 221 69.5 401t139.5 453q69 178 90 297q12 50 12 73q0 21 -4 29q-16 8 -21 8q-6 0 -12 -3t-12 -7.5t-8 -5.5q-58 -36 -119 -90q-209 -192 -344 -500q-77 -176 -117 -299q-5 -19 -9 -29t-14.5 -21.5t-25.5 -15.5q-22 0 -35 23q-6 15 -6 33
q0 11 4 31.5t4 23.5q63 358 195 717q92 254 159 393q1 2 7.5 16t9 18.5t9 15.5t11 16.5t12 12.5t15.5 11q6 4 14 4q14 0 25 -14q4 -16 4 -23q0 -13 -16 -45q-84 -172 -117 -262q-24 -67 -55 -151.5t-42.5 -116.5t-26 -76.5t-21 -74t-11.5 -68.5q3 7 17.5 33.5t33.5 58.5
t23 39q132 216 295 348q18 15 54 38.5t42 27.5q33 20 76 20q11 0 35 -4q49 -29 49 -90q0 -25 -2 -37q-14 -97 -35 -168q-12 -35 -36 -104.5t-36 -104.5q-58 -149 -115 -360.5t-75 -356.5q-17 -102 -17 -104q-3 -19 -9 -27t-27 -20zM670 1137q-23 0 -35 30q0 11 2 19
q19 41 70 59q24 6 49 6q18 0 28 -2q9 -2 34.5 -10t39.5 -10h72q24 -27 24 -35q0 -6 -18 -35q-27 -14 -64 -14q-18 0 -39 4t-46 10.5t-39 9.5l-70 -32h-8z" />
    <glyph glyph-name="Ograve" unicode="&#xd2;" horiz-adv-x="1097" 
d="M788 1608q-8 6 -28 16q-25 43 -60 166q14 27 15 29t7 6l5 4q2 0 6 1t6 1q21 0 29 -19q14 -18 20 -32q4 -10 43 -125q-2 -6 -3 -10.5t-2 -8.5t-3 -6.5t-3 -5t-3.5 -4t-3.5 -2.5t-5 -2.5t-5.5 -2.5t-7 -2.5t-7.5 -2.5zM291 -174q-97 0 -172 78q-80 80 -103 209
q-16 94 -16 182q0 116 31 264q46 244 194 455q102 136 207 192q8 4 21.5 14.5t21.5 14.5q5 9 23 45.5t30 54.5q32 60 99 117q62 55 139 55q89 0 160 -80q41 -48 61 -106q40 -105 53 -238q20 -412 -209 -802q-123 -203 -233 -304q-67 -67 -127 -100q-59 -36 -145 -49
q-10 -2 -35 -2zM299 -98q47 0 76 14q53 18 104 57q91 69 158 152q149 193 246 434q82 204 82 422q0 123 -27 246q-18 98 -86 166q-38 41 -86 41q-32 0 -70 -23q-83 -52 -123 -158q97 -29 132.5 -55t48.5 -78q-3 -30 -35 -33q-18 4 -38 29t-34 31q-34 24 -69 24q-18 0 -37 -8
q-19 -62 -19 -114q0 -20 3 -63t3 -66q-4 -82 37 -246l-18 -19q-3 -1 -11 -1t-12 -1q-17 7 -28 22.5t-14 25.5t-9 34q-24 147 -24 271q0 57 2 86q7 13 -5 22q-4 2 -12 2q-5 0 -10 -3t-10.5 -8.5t-7.5 -6.5q-86 -68 -170 -211q-143 -237 -162 -551q-4 -117 12 -186
q23 -116 68 -175q61 -73 145 -73z" />
    <glyph glyph-name="Oacute" unicode="&#xd3;" horiz-adv-x="1097" 
d="M870 1610q-29 0 -43 28v9q0 11 11 26q14 17 26 27q63 52 140 119q5 5 16.5 8t13.5 4q40 -13 35 -43q-2 -27 -29 -47q-18 -13 -75 -63.5t-95 -67.5zM291 -174q-97 0 -172 78q-80 80 -103 209q-16 94 -16 182q0 116 31 264q46 244 194 455q102 136 207 192q8 4 21.5 14.5
t21.5 14.5q5 9 23 45.5t30 54.5q32 60 99 117q62 55 139 55q89 0 160 -80q41 -48 61 -106q40 -105 53 -238q20 -412 -209 -802q-123 -203 -233 -304q-67 -67 -127 -100q-59 -36 -145 -49q-10 -2 -35 -2zM299 -98q47 0 76 14q53 18 104 57q91 69 158 152q149 193 246 434
q82 204 82 422q0 123 -27 246q-18 98 -86 166q-38 41 -86 41q-32 0 -70 -23q-83 -52 -123 -158q97 -29 132.5 -55t48.5 -78q-3 -30 -35 -33q-18 4 -38 29t-34 31q-34 24 -69 24q-18 0 -37 -8q-19 -62 -19 -114q0 -20 3 -63t3 -66q-4 -82 37 -246l-18 -19q-3 -1 -11 -1
t-12 -1q-17 7 -28 22.5t-14 25.5t-9 34q-24 147 -24 271q0 57 2 86q7 13 -5 22q-4 2 -12 2q-5 0 -10 -3t-10.5 -8.5t-7.5 -6.5q-86 -68 -170 -211q-143 -237 -162 -551q-4 -117 12 -186q23 -116 68 -175q61 -73 145 -73z" />
    <glyph glyph-name="Ocircumflex" unicode="&#xd4;" horiz-adv-x="1097" 
d="M758 1602q-31 0 -39 30q0 17 6 25q12 20 25 33q13 14 120 137q27 27 45 43h33q28 -14 33 -41q0 -37 -19.5 -106t-21.5 -81q-23 -39 -57 -28q-9 4 -13.5 12.5t-8 20t-5.5 16.5h-6q-8 0 -15 -5.5t-14 -14t-12 -11.5q-1 -1 -14.5 -11t-18.5 -15q-8 -4 -18 -4zM291 -174
q-97 0 -172 78q-80 80 -103 209q-16 94 -16 182q0 116 31 264q46 244 194 455q102 136 207 192q8 4 21.5 14.5t21.5 14.5q5 9 23 45.5t30 54.5q32 60 99 117q62 55 139 55q89 0 160 -80q41 -48 61 -106q40 -105 53 -238q20 -412 -209 -802q-123 -203 -233 -304
q-67 -67 -127 -100q-59 -36 -145 -49q-10 -2 -35 -2zM299 -98q47 0 76 14q53 18 104 57q91 69 158 152q149 193 246 434q82 204 82 422q0 123 -27 246q-18 98 -86 166q-38 41 -86 41q-32 0 -70 -23q-83 -52 -123 -158q97 -29 132.5 -55t48.5 -78q-3 -30 -35 -33
q-18 4 -38 29t-34 31q-34 24 -69 24q-18 0 -37 -8q-19 -62 -19 -114q0 -20 3 -63t3 -66q-4 -82 37 -246l-18 -19q-3 -1 -11 -1t-12 -1q-17 7 -28 22.5t-14 25.5t-9 34q-24 147 -24 271q0 57 2 86q7 13 -5 22q-4 2 -12 2q-5 0 -10 -3t-10.5 -8.5t-7.5 -6.5q-86 -68 -170 -211
q-143 -237 -162 -551q-4 -117 12 -186q23 -116 68 -175q61 -73 145 -73z" />
    <glyph glyph-name="Otilde" unicode="&#xd5;" horiz-adv-x="1097" 
d="M721 1608q-23 0 -35 30q0 11 2 19q19 41 70 59q24 6 49 6q19 0 29 -2q9 -2 34 -10t39 -10q10 -1 21.5 -1t26.5 0.5t24 0.5q25 -28 25 -35q0 -5 -19 -35q-27 -14 -63 -14q-18 0 -39 4t-47 10.5t-39 9.5l-70 -32h-8zM291 -174q-97 0 -172 78q-80 80 -103 209
q-16 94 -16 182q0 116 31 264q46 244 194 455q102 136 207 192q8 4 21.5 14.5t21.5 14.5q5 9 23 45.5t30 54.5q32 60 99 117q62 55 139 55q89 0 160 -80q41 -48 61 -106q40 -105 53 -238q20 -412 -209 -802q-123 -203 -233 -304q-67 -67 -127 -100q-59 -36 -145 -49
q-10 -2 -35 -2zM299 -98q47 0 76 14q53 18 104 57q91 69 158 152q149 193 246 434q82 204 82 422q0 123 -27 246q-18 98 -86 166q-38 41 -86 41q-32 0 -70 -23q-83 -52 -123 -158q97 -29 132.5 -55t48.5 -78q-3 -30 -35 -33q-18 4 -38 29t-34 31q-34 24 -69 24q-18 0 -37 -8
q-19 -62 -19 -114q0 -20 3 -63t3 -66q-4 -82 37 -246l-18 -19q-3 -1 -11 -1t-12 -1q-17 7 -28 22.5t-14 25.5t-9 34q-24 147 -24 271q0 57 2 86q7 13 -5 22q-4 2 -12 2q-5 0 -10 -3t-10.5 -8.5t-7.5 -6.5q-86 -68 -170 -211q-143 -237 -162 -551q-4 -117 12 -186
q23 -116 68 -175q61 -73 145 -73z" />
    <glyph glyph-name="Odieresis" unicode="&#xd6;" horiz-adv-x="1097" 
d="M795 1608q-19 1 -25 2.5t-12.5 6.5t-18.5 21l-2 11q0 15 19 49l35 14q46 0 49 -47q-3 -40 -45 -57zM913 1602q-24 0 -36 24q-4 5 -7 15l-2 10q3 26 25 45q13 10 33 10q18 0 37 -16q1 -1 8 -31q-2 -29 -29 -49q-16 -8 -29 -8zM291 -174q-97 0 -172 78q-80 80 -103 209
q-16 94 -16 182q0 116 31 264q46 244 194 455q102 136 207 192q8 4 21.5 14.5t21.5 14.5q5 9 23 45.5t30 54.5q32 60 99 117q62 55 139 55q89 0 160 -80q41 -48 61 -106q40 -105 53 -238q20 -412 -209 -802q-123 -203 -233 -304q-67 -67 -127 -100q-59 -36 -145 -49
q-10 -2 -35 -2zM299 -98q47 0 76 14q53 18 104 57q91 69 158 152q149 193 246 434q82 204 82 422q0 123 -27 246q-18 98 -86 166q-38 41 -86 41q-32 0 -70 -23q-83 -52 -123 -158q97 -29 132.5 -55t48.5 -78q-3 -30 -35 -33q-18 4 -38 29t-34 31q-34 24 -69 24q-18 0 -37 -8
q-19 -62 -19 -114q0 -20 3 -63t3 -66q-4 -82 37 -246l-18 -19q-3 -1 -11 -1t-12 -1q-17 7 -28 22.5t-14 25.5t-9 34q-24 147 -24 271q0 57 2 86q7 13 -5 22q-4 2 -12 2q-5 0 -10 -3t-10.5 -8.5t-7.5 -6.5q-86 -68 -170 -211q-143 -237 -162 -551q-4 -117 12 -186
q23 -116 68 -175q61 -73 145 -73z" />
    <glyph glyph-name="multiply" unicode="&#xd7;" horiz-adv-x="847" 
d="M221 207q-23 0 -31 16q-4 12 -4 17q0 18 19 41q5 6 121 168q37 46 43 69q-3 21 -18.5 74t-16.5 82v39q5 11 10.5 17t9.5 8.5t13 4.5q20 0 34 -22q15 -90 27 -115h6q10 0 25 19q7 7 28.5 30.5t34.5 34.5q22 30 53 33q19 -3 28.5 -12t10.5 -31q-13 -15 -48 -50.5t-60 -65.5
t-45 -62q4 -39 28.5 -111t28.5 -106q-17 -42 -53 -25q-22 19 -37 75t-33 81q-26 -30 -76.5 -104.5t-82.5 -104.5h-15z" />
    <glyph glyph-name="Oslash" unicode="&#xd8;" horiz-adv-x="1075" 
d="M1098 1507q0 -4 -11 -26q-74 -115 -102 -156q2 -2 2 -4q40 -105 53 -238q20 -412 -209 -802q-123 -203 -233 -304q-67 -67 -127 -100q-59 -36 -145 -49q-10 -2 -35 -2q-97 0 -172 78l-8 8q-7 -13 -21 -34.5t-18 -27.5t-9 -16q0 -2 -2 -3.5t-2 -2.5q-3 -9 -10 -14
q-13 -25 -31 -41q-14 -17 -43 -2q-19 13 -10 49q4 8 13.5 23.5t13.5 23.5q30 61 67 119q-31 61 -43 127q-16 94 -16 182q0 116 31 264q46 244 194 455q102 136 207 192q8 4 21.5 14.5t21.5 14.5q5 9 23 45.5t30 54.5q32 60 99 117q62 55 139 55q89 0 160 -80q3 -3 8 -10
t8 -10l33 49q2 3 35 53q27 39 47 39h8q20 0 31 -18q0 -4 1 -12t1 -11zM541 1163q-19 -62 -19 -114q0 -20 3 -63t3 -66q-3 -71 17 -158q179 291 354 571q-19 33 -47 60q-38 41 -86 41q-32 0 -70 -23q-83 -52 -123 -158q97 -29 132.5 -55t48.5 -78q-3 -30 -35 -33
q-18 4 -38 29t-34 31q-34 24 -69 24q-18 0 -37 -8zM938 1227q-1 3 -2 9t-2 9q-179 -285 -361 -581q-199 -326 -219 -359l-176 -289q-12 -21 -24 -39v-2q61 -73 145 -73q47 0 76 14q53 18 104 57q91 69 158 152q149 193 246 434q82 204 82 422q0 123 -27 246zM86 150
q12 -56 23 -89q47 72 65 103q26 40 107 172q18 29 58.5 95.5t79.5 129t75 119.5q-14 18 -21 55q-24 147 -24 271q0 57 2 86q7 13 -5 22q-4 2 -12 2q-5 0 -10 -3t-10.5 -8.5t-7.5 -6.5q-86 -68 -170 -211q-143 -237 -162 -551q-4 -117 12 -186z" />
    <glyph glyph-name="Ugrave" unicode="&#xd9;" horiz-adv-x="1120" 
d="M762 1343q-10 7 -29 17q-24 40 -59 166l14 28q1 2 3.5 4l5 4t3.5 3q2 0 6.5 1t6.5 1q20 0 28 -19q16 -20 21 -32q4 -10 43 -125q-7 -28 -13 -34t-30 -14zM106 -248q-12 0 -36 4q-70 33 -70 154q0 21 1.5 44.5t5.5 52t7 48t8.5 55.5t8.5 52q34 193 215 676q39 109 135 336
q20 61 45 81q18 9 29 9q14 0 28 -21q0 -2 1 -6t1 -6.5t-2 -3.5q-27 -68 -51 -121q-123 -280 -262 -698q-62 -187 -90 -457q-6 -48 -6 -57q0 -56 28 -68q4 -3 12 -1t12 2t11.5 5l10.5 7t10.5 8.5t10.5 9.5t9.5 10t9.5 10q78 73 162 186q88 115 240 361q57 94 217 338
q23 49 51 59q3 0 7 2t7 2q24 0 33 -24v-25q-83 -214 -90 -235q-92 -236 -139 -428q-21 -106 -23 -121q-5 -33 4 -74t27 -47q56 -10 174 131q70 83 133 170q14 18 50.5 70t57.5 76t36 28q26 0 26 -20q0 -17 -13 -43.5t-46 -73.5t-52 -72t-69 -90q-53 -65 -71 -86.5t-54.5 -59
t-65.5 -56t-65 -31.5q-24 -4 -31 -4q-49 0 -71 28q-37 51 -37 146q0 75 20 153q10 37 33 110.5t33 110.5q12 40 12 70q-5 -8 -74 -115q-127 -204 -241 -348q-88 -110 -156 -168q-55 -45 -107 -45z" />
    <glyph glyph-name="Uacute" unicode="&#xda;" horiz-adv-x="1120" 
d="M844 1346q-29 0 -43 28v8q0 14 10 27q12 15 27 27q67 56 139 118q5 5 17.5 8.5t13.5 4.5q39 -13 34 -43q-2 -28 -28 -47q-18 -13 -75 -63.5t-95 -67.5zM106 -248q-12 0 -36 4q-70 33 -70 154q0 21 1.5 44.5t5.5 52t7 48t8.5 55.5t8.5 52q34 193 215 676q39 109 135 336
q20 61 45 81q18 9 29 9q14 0 28 -21q0 -2 1 -6t1 -6.5t-2 -3.5q-27 -68 -51 -121q-123 -280 -262 -698q-62 -187 -90 -457q-6 -48 -6 -57q0 -56 28 -68q4 -3 12 -1t12 2t11.5 5l10.5 7t10.5 8.5t10.5 9.5t9.5 10t9.5 10q78 73 162 186q88 115 240 361q57 94 217 338
q23 49 51 59q3 0 7 2t7 2q24 0 33 -24v-25q-83 -214 -90 -235q-92 -236 -139 -428q-21 -106 -23 -121q-5 -33 4 -74t27 -47q56 -10 174 131q70 83 133 170q14 18 50.5 70t57.5 76t36 28q26 0 26 -20q0 -17 -13 -43.5t-46 -73.5t-52 -72t-69 -90q-53 -65 -71 -86.5t-54.5 -59
t-65.5 -56t-65 -31.5q-24 -4 -31 -4q-49 0 -71 28q-37 51 -37 146q0 75 20 153q10 37 33 110.5t33 110.5q12 40 12 70q-5 -8 -74 -115q-127 -204 -241 -348q-88 -110 -156 -168q-55 -45 -107 -45z" />
    <glyph glyph-name="Ucircumflex" unicode="&#xdb;" horiz-adv-x="1120" 
d="M731 1337q-31 0 -39 31q0 17 6 25q11 17 25 32q16 18 121 138q27 27 45 43h33q27 -14 32 -41q0 -37 -19.5 -106t-21.5 -81q-23 -39 -57 -28q-9 4 -13.5 12.5t-8 20t-5.5 16.5h-6q-8 0 -15 -5.5t-14 -14t-12 -11.5q-25 -20 -32 -27q-8 -4 -19 -4zM106 -248q-12 0 -36 4
q-70 33 -70 154q0 21 1.5 44.5t5.5 52t7 48t8.5 55.5t8.5 52q34 193 215 676q39 109 135 336q20 61 45 81q18 9 29 9q14 0 28 -21q0 -2 1 -6t1 -6.5t-2 -3.5q-27 -68 -51 -121q-123 -280 -262 -698q-62 -187 -90 -457q-6 -48 -6 -57q0 -56 28 -68q4 -3 12 -1t12 2t11.5 5
l10.5 7t10.5 8.5t10.5 9.5t9.5 10t9.5 10q78 73 162 186q88 115 240 361q57 94 217 338q23 49 51 59q3 0 7 2t7 2q24 0 33 -24v-25q-83 -214 -90 -235q-92 -236 -139 -428q-21 -106 -23 -121q-5 -33 4 -74t27 -47q56 -10 174 131q70 83 133 170q14 18 50.5 70t57.5 76t36 28
q26 0 26 -20q0 -17 -13 -43.5t-46 -73.5t-52 -72t-69 -90q-53 -65 -71 -86.5t-54.5 -59t-65.5 -56t-65 -31.5q-24 -4 -31 -4q-49 0 -71 28q-37 51 -37 146q0 75 20 153q10 37 33 110.5t33 110.5q12 40 12 70q-5 -8 -74 -115q-127 -204 -241 -348q-88 -110 -156 -168
q-55 -45 -107 -45z" />
    <glyph glyph-name="Udieresis" unicode="&#xdc;" horiz-adv-x="1120" 
d="M768 1343q-24 1 -31 5t-24 26l-2 10q0 18 18 50l35 14q46 0 49 -47q-3 -41 -45 -58zM887 1337q-25 0 -37 25q-4 5 -6 14t-2 10q3 28 24 46q12 10 33 10q17 0 37 -17q1 -2 8 -30q-2 -29 -29 -49q-18 -9 -28 -9zM106 -248q-12 0 -36 4q-70 33 -70 154q0 21 1.5 44.5t5.5 52
t7 48t8.5 55.5t8.5 52q34 193 215 676q39 109 135 336q20 61 45 81q18 9 29 9q14 0 28 -21q0 -2 1 -6t1 -6.5t-2 -3.5q-27 -68 -51 -121q-123 -280 -262 -698q-62 -187 -90 -457q-6 -48 -6 -57q0 -56 28 -68q4 -3 12 -1t12 2t11.5 5l10.5 7t10.5 8.5t10.5 9.5t9.5 10t9.5 10
q78 73 162 186q88 115 240 361q57 94 217 338q23 49 51 59q3 0 7 2t7 2q24 0 33 -24v-25q-83 -214 -90 -235q-92 -236 -139 -428q-21 -106 -23 -121q-5 -33 4 -74t27 -47q56 -10 174 131q70 83 133 170q14 18 50.5 70t57.5 76t36 28q26 0 26 -20q0 -17 -13 -43.5t-46 -73.5
t-52 -72t-69 -90q-53 -65 -71 -86.5t-54.5 -59t-65.5 -56t-65 -31.5q-24 -4 -31 -4q-49 0 -71 28q-37 51 -37 146q0 75 20 153q10 37 33 110.5t33 110.5q12 40 12 70q-5 -8 -74 -115q-127 -204 -241 -348q-88 -110 -156 -168q-55 -45 -107 -45z" />
    <glyph glyph-name="Yacute" unicode="&#xdd;" horiz-adv-x="1484" 
d="M1169 1346q-29 0 -43 28v8q0 12 11 27q14 17 26 27q90 75 140 118q5 5 17 8.5t13 4.5q40 -13 35 -43q-2 -27 -29 -47q-18 -13 -75 -63.5t-95 -67.5zM-8 -1024q-112 0 -205 55q-66 36 -111 104t-45 150q0 66 39 142q44 85 117 147q157 141 399 270q420 230 807 359
q11 2 45 16q46 82 127 369.5t80 363.5q-9 -4 -18 -11t-13.5 -11t-15 -16.5t-12.5 -14.5q-200 -228 -344 -457q-94 -151 -185 -239q-5 -4 -16.5 -16t-21 -19.5t-19.5 -11.5q-27 -19 -59 -19q-65 0 -88 66q-19 63 -19 102q-7 100 25 244q36 173 157 481q61 149 152 320
q23 53 57 65h4q21 0 33 -24q0 -17 -2 -23l-76 -156q-158 -321 -237 -616q-23 -92 -39 -195q-2 -16 -2 -47q0 -49 18 -123q1 -2 7 -7.5t8 -8.5h4q7 0 12 1t10.5 4.5t8 5.5t8.5 7t8 7q69 66 153 192q143 208 181 262q117 160 272 328q18 21 26.5 30t27 20.5t38.5 14.5
q46 -8 53 -63q0 -42 -12 -82q-94 -422 -176 -653q-7 -15 0 -25q25 6 27 6.5t10 3t12.5 4t32.5 10t70 21.5l168 45q51 11 51 -20q0 -15 -12 -32t-29 -26q-89 -27 -195 -55q-121 -31 -182 -63q-2 -4 -13 -32.5t-18 -41.5q-53 -123 -74.5 -173t-67 -145.5t-87.5 -168.5
q-139 -235 -273 -359q-219 -204 -493 -254q-41 -8 -88 -8zM-6 -948q69 0 137 22q269 71 467 297q96 111 195 285q76 138 204 436l3 6q2 7 1.5 10.5t-4.5 8.5h-8q-19 0 -53 -17q-347 -123 -737 -331q-179 -103 -308 -203q-103 -79 -151 -170q-29 -53 -29 -111
q0 -117 103 -180q46 -32 106 -45q50 -8 74 -8z" />
    <glyph glyph-name="Thorn" unicode="&#xde;" horiz-adv-x="829" 
d="M-18 -162q-15 -2 -39 12q-13 25 -9 76q28 256 52 375q39 207 127 508q23 80 16 115q12 14 22 32.5t15 29.5t15 35.5t14 33.5q33 94 94 245q10 31 33 46q25 8 47 -17q11 -17 -2 -51q-14 -38 -82 -223q-5 -5 -9 -13q-14 -37 -12 -57l6 -4q220 13 394 -20q86 -13 147 -46
q103 -53 137 -137q17 -49 4 -98q-26 -88 -116 -166q-39 -35 -108 -69t-168 -61.5t-210.5 -30t-236.5 25.5l-4 -2q-9 -5 -15.5 -13t-9 -14t-5 -17t-3.5 -14q-49 -262 -62 -452q-11 -22 -32 -29zM252 436q158 -3 306 35t235 119q73 61 84 137q-11 65 -89 107q-185 92 -501 57
q-36 0 -64 -17l-2 -4q-40 -110 -71.5 -230t-28.5 -165l2 -6q42 -18 65 -24t64 -9z" />
    <glyph glyph-name="germandbls" unicode="&#xdf;" horiz-adv-x="907" 
d="M-33 -10q-27 3 -35 37q0 2 -1 5.5t-1 5.5t2 3q49 299 148.5 587.5t224.5 452.5q70 83 153 142t165 77q74 15 136 -3.5t97 -62.5t47.5 -102.5t-9.5 -128.5t-77 -135q-69 -75 -147 -129t-135 -110q15 -7 40 -20.5t37 -18.5q111 -52 111 -178q0 -133 -76 -242
q-48 -67 -131 -121q-136 -65 -270 -16q-49 17 -58 54q-6 28 16 36q18 6 42 -8q8 -2 39 -15q81 -27 156 2t132 103q62 80 72 194q6 88 -80 119q-19 10 -84 29q-57 17 -57 69q2 10 7.5 20t10 17.5t14.5 18t14.5 14.5t17 15.5t14.5 13.5q11 8 78 57q15 13 31 25t36 26t31 23
q132 111 143 227q7 83 -50 125q-51 37 -124 16q-103 -29 -182 -96t-156 -176q-82 -114 -171 -391t-115 -475q-6 -38 -15 -62q-10 -16 -18.5 -20t-22.5 -4z" />
    <glyph glyph-name="agrave" unicode="&#xe0;" horiz-adv-x="546" 
d="M225 612q-12 9 -28 17q-25 43 -60 166q12 24 15 28q1 2 3.5 4l5 4t3.5 3q2 0 6 1t6 1q21 0 29 -19q14 -17 20 -33q4 -10 43 -125q-2 -6 -3 -10.5t-2 -8.5t-3 -6.5t-3 -5t-3.5 -4t-3.5 -2.5t-5 -2.5t-5.5 -2.5t-7 -2.5t-7.5 -2.5zM227 72q-41 0 -63 28q-19 19 -19 58
q0 16 9 61q-17 0 -31 -14q-15 -11 -38.5 -35t-29.5 -29q-56 -45 -88 -45q-58 11 -55 74q0 5 6 29q49 156 154 258q31 28 55 36.5t76 8.5q11 -11 50 -28t56 -38q-8 -27 -43.5 -112t-42.5 -136q-4 -30 6 -34q2 -4 15 -4q20 0 67 28q86 49 158 115l41 37q32 28 41 24
q37 -3 37 -37q-4 -16 -25 -32q-54 -51 -95.5 -86t-104 -73t-119.5 -52q-3 0 -9 -1t-8 -1zM6 205q58 43 108.5 99t75.5 106l-16 22q-128 -69 -168 -227z" />
    <glyph glyph-name="aacute" unicode="&#xe1;" horiz-adv-x="546" 
d="M307 614q-29 0 -43 29v8q0 14 10 27q12 15 27 27q67 55 139 118q5 5 17.5 8.5t13.5 4.5q40 -13 35 -43q-2 -28 -29 -48q-18 -13 -75 -63.5t-95 -67.5zM227 72q-41 0 -63 28q-19 19 -19 58q0 16 9 61q-17 0 -31 -14q-15 -11 -38.5 -35t-29.5 -29q-56 -45 -88 -45
q-58 11 -55 74q0 5 6 29q49 156 154 258q31 28 55 36.5t76 8.5q11 -11 50 -28t56 -38q-8 -27 -43.5 -112t-42.5 -136q-4 -30 6 -34q2 -4 15 -4q20 0 67 28q86 49 158 115l41 37q32 28 41 24q37 -3 37 -37q-4 -16 -25 -32q-54 -51 -95.5 -86t-104 -73t-119.5 -52q-3 0 -9 -1
t-8 -1zM6 205q58 43 108.5 99t75.5 106l-16 22q-128 -69 -168 -227z" />
    <glyph glyph-name="acircumflex" unicode="&#xe2;" horiz-adv-x="546" 
d="M195 606q-31 0 -39 31q0 17 6 25q12 20 24 32q39 43 121 137q27 27 45 43h33q29 -14 33 -40q0 -37 -19.5 -106t-21.5 -81q-24 -40 -58 -29q-9 4 -13.5 12.5t-7 20.5t-5.5 17h-6q-8 0 -15 -5.5t-14 -14t-12 -11.5q-30 -24 -33 -27q-8 -4 -18 -4zM227 72q-41 0 -63 28
q-19 19 -19 58q0 16 9 61q-17 0 -31 -14q-15 -11 -38.5 -35t-29.5 -29q-56 -45 -88 -45q-58 11 -55 74q0 5 6 29q49 156 154 258q31 28 55 36.5t76 8.5q11 -11 50 -28t56 -38q-8 -27 -43.5 -112t-42.5 -136q-4 -30 6 -34q2 -4 15 -4q20 0 67 28q86 49 158 115l41 37
q32 28 41 24q37 -3 37 -37q-4 -16 -25 -32q-54 -51 -95.5 -86t-104 -73t-119.5 -52q-3 0 -9 -1t-8 -1zM6 205q58 43 108.5 99t75.5 106l-16 22q-128 -69 -168 -227z" />
    <glyph glyph-name="atilde" unicode="&#xe3;" horiz-adv-x="546" 
d="M158 612q-23 0 -35 31q0 11 2 19q19 41 70 59q24 6 49 6q18 0 28 -2q9 -2 34.5 -10t39.5 -10q10 -1 21.5 -1t26.5 0.5t24 0.5q24 -27 24 -35q0 -6 -18 -35q-27 -14 -64 -14q-18 0 -39 4t-46 10.5t-39 9.5l-70 -33h-8zM227 72q-41 0 -63 28q-19 19 -19 58q0 16 9 61
q-17 0 -31 -14q-15 -11 -38.5 -35t-29.5 -29q-56 -45 -88 -45q-58 11 -55 74q0 5 6 29q49 156 154 258q31 28 55 36.5t76 8.5q11 -11 50 -28t56 -38q-8 -27 -43.5 -112t-42.5 -136q-4 -30 6 -34q2 -4 15 -4q20 0 67 28q86 49 158 115l41 37q32 28 41 24q37 -3 37 -37
q-4 -16 -25 -32q-54 -51 -95.5 -86t-104 -73t-119.5 -52q-3 0 -9 -1t-8 -1zM6 205q58 43 108.5 99t75.5 106l-16 22q-128 -69 -168 -227z" />
    <glyph glyph-name="adieresis" unicode="&#xe4;" horiz-adv-x="546" 
d="M231 612q-24 1 -31 5t-24 26l-2 10q0 15 19 49l34 15q46 0 49 -47q-3 -41 -45 -58zM350 606q-24 0 -37 25q-4 5 -6 14t-2 10q3 26 25 45q14 11 32 11q17 0 37 -17q3 -6 9 -30q-2 -30 -29 -50q-16 -8 -29 -8zM227 72q-41 0 -63 28q-19 19 -19 58q0 16 9 61q-17 0 -31 -14
q-15 -11 -38.5 -35t-29.5 -29q-56 -45 -88 -45q-58 11 -55 74q0 5 6 29q49 156 154 258q31 28 55 36.5t76 8.5q11 -11 50 -28t56 -38q-8 -27 -43.5 -112t-42.5 -136q-4 -30 6 -34q2 -4 15 -4q20 0 67 28q86 49 158 115l41 37q32 28 41 24q37 -3 37 -37q-4 -16 -25 -32
q-54 -51 -95.5 -86t-104 -73t-119.5 -52q-3 0 -9 -1t-8 -1zM6 205q58 43 108.5 99t75.5 106l-16 22q-128 -69 -168 -227z" />
    <glyph glyph-name="aring" unicode="&#xe5;" horiz-adv-x="546" 
d="M303 614q-29 -2 -51 16t-23 46q-9 57 25 109t90 67q12 6 25 6q20 0 41 -14q19 -13 32 -29q9 -45 9 -53l-7 -35q-4 -12 -8 -16q-31 -44 -55 -66q-27 -31 -78 -31zM313 700q52 21 52 45q0 3 -5 23q-19 -11 -26 -15.5t-15.5 -19t-5.5 -33.5zM227 72q-41 0 -63 28
q-19 19 -19 58q0 16 9 61q-17 0 -31 -14q-15 -11 -38.5 -35t-29.5 -29q-56 -45 -88 -45q-58 11 -55 74q0 5 6 29q49 156 154 258q31 28 55 36.5t76 8.5q11 -11 50 -28t56 -38q-8 -27 -43.5 -112t-42.5 -136q-4 -30 6 -34q2 -4 15 -4q20 0 67 28q86 49 158 115l41 37
q32 28 41 24q37 -3 37 -37q-4 -16 -25 -32q-54 -51 -95.5 -86t-104 -73t-119.5 -52q-3 0 -9 -1t-8 -1zM6 205q58 43 108.5 99t75.5 106l-16 22q-128 -69 -168 -227z" />
    <glyph glyph-name="ae" unicode="&#xe6;" horiz-adv-x="980" 
d="M989 344q27 0 27 -39q-3 -18 -25 -33q-17 -12 -52 -35t-56 -38q-51 -31 -144.5 -91.5t-156.5 -97.5q-92 -45 -93 -45q-44 -20 -96 -20q-69 0 -101 42t-32 109q0 48 16 107q1 5 4.5 12.5t4.5 9.5q-11 -11 -13 -14q-11 -19 -34 -49.5t-27 -36.5q-84 -94 -156 -143
q-61 -38 -114 -31q-17 8 -29.5 24.5t-17.5 30t-11 37.5q0 55 8 80q49 210 222 360q19 17 51 31q73 34 131 0q9 -5 22.5 -13.5t18.5 -11.5q12 10 25 33t28 42t37 26q22 0 33 -19q9 -24 -8 -63q-1 -3 -4.5 -9.5t-4.5 -9.5l17 19q65 57 129 57q49 0 67 -49q7 -16 7 -39
q0 -29 -19 -69q-82 -144 -233 -213q-11 -5 -32.5 -13t-25.5 -10q-16 -43 -16 -84q0 -48 29 -63q15 -9 34 -9q44 0 148 58q65 38 122 73.5t139.5 89.5t123.5 80q8 4 24 14t23 13h10zM500 444q-66 -77 -117 -180q59 9 130 79.5t77 131.5q-3 17 -21 17q-30 -2 -69 -48zM-27 35
q75 23 170.5 129.5t149.5 226.5q-3 5 -6 15t-6 14q-14 27 -34.5 31t-49.5 -9q-37 -16 -60 -39q-108 -108 -153 -239q-25 -59 -25 -98q0 -25 14 -31z" />
    <glyph glyph-name="ccedilla" unicode="&#xe7;" horiz-adv-x="645" 
d="M649 354q17 0 24.5 -6.5t8.5 -25.5q0 -15 -18 -29q-47 -37 -104.5 -76t-138 -88t-160 -80t-136.5 -31q-32 0 -59 9q5 -37 6 -39q2 -6 9 -20t11 -28.5t4 -33.5q-5 -26 -22 -51q-16 -40 -68 -64q-27 -10 -41 -10q-32 0 -59 37q-3 2 -4.5 5t-2 6.5t-1.5 4.5v12q0 30 26 37
q6 4 17 4q5 0 16 -3t16 -3q17 0 25 15q-1 6 3 6q-2 1 -5 2q-26 15 -39 20q-11 16 -8 41q7 28 51 78q2 2 14 8q-55 42 -61 107q-3 99 31 180q55 122 153 205q45 40 80.5 59t83.5 19q58 0 95.5 -48.5t47.5 -113.5q0 -37 -41 -47q-12 0 -28 16q-7 12 -10.5 40.5t-14.5 41.5
q-13 23 -24 31q-19 8 -37 8q-7 0 -37 -10q-33 -15 -78 -54q-117 -117 -143 -254q-6 -18 -6 -43q0 -46 22.5 -75.5t67.5 -32.5q60 3 112 26q87 36 174 91q51 31 203 137q32 20 45 20z" />
    <glyph glyph-name="egrave" unicode="&#xe8;" horiz-adv-x="622" 
d="M233 686q-8 6 -28 16q-25 43 -60 166q13 27 15 29q1 2 6 6l6 4q2 0 6 1t6 1q22 0 29 -18q14 -17 20 -33q4 -10 43 -125q-2 -6 -3 -10.5t-2 -8.5t-3 -6.5t-3 -5t-3.5 -4t-3.5 -2.5t-5 -2.5t-5.5 -2.5t-7 -2.5t-7.5 -2.5zM35 -55q-69 0 -101 42t-32 109q0 48 16 107
q62 173 182 305q65 57 129 57q22 0 40.5 -12.5t27.5 -36.5q6 -14 6 -39q0 -31 -18 -69q-82 -143 -234 -213q-5 -2 -57 -23q-17 -46 -17 -84q0 -48 29 -63q15 -9 35 -9q43 0 147 58q65 38 122 73.5t139.5 89.5t123.5 80q6 3 23.5 13.5t24.5 13.5h10q16 0 21 -9.5t5 -29.5
q-3 -19 -24 -33q-17 -12 -52.5 -35t-56.5 -38q-51 -31 -144.5 -91.5t-156.5 -97.5q-5 -2 -39.5 -20t-52.5 -25q-44 -20 -96 -20zM25 264q59 9 129.5 79.5t76.5 131.5q-3 17 -20 17q-31 -2 -70 -48q-63 -74 -116 -180z" />
    <glyph glyph-name="eacute" unicode="&#xe9;" horiz-adv-x="622" 
d="M315 688q-29 0 -43 29v8q0 12 11 27q12 14 26 26q63 53 140 119q5 5 16.5 8t13.5 4q40 -13 35 -43q-2 -27 -29 -47q-18 -13 -75 -63.5t-95 -67.5zM35 -55q-69 0 -101 42t-32 109q0 48 16 107q62 173 182 305q65 57 129 57q22 0 40.5 -12.5t27.5 -36.5q6 -14 6 -39
q0 -31 -18 -69q-82 -143 -234 -213q-5 -2 -57 -23q-17 -46 -17 -84q0 -48 29 -63q15 -9 35 -9q43 0 147 58q65 38 122 73.5t139.5 89.5t123.5 80q6 3 23.5 13.5t24.5 13.5h10q16 0 21 -9.5t5 -29.5q-3 -19 -24 -33q-17 -12 -52.5 -35t-56.5 -38q-51 -31 -144.5 -91.5
t-156.5 -97.5q-5 -2 -39.5 -20t-52.5 -25q-44 -20 -96 -20zM25 264q59 9 129.5 79.5t76.5 131.5q-3 17 -20 17q-31 -2 -70 -48q-63 -74 -116 -180z" />
    <glyph glyph-name="ecircumflex" unicode="&#xea;" horiz-adv-x="622" 
d="M203 680q-31 0 -39 31q0 16 6 24q12 20 25 33q13 14 120 137q27 27 45 43h33q28 -14 33 -41q0 -37 -19.5 -105.5t-21.5 -80.5q-24 -40 -57 -29q-9 4 -13.5 12.5t-8 20t-5.5 16.5h-6q-8 0 -15 -5t-14 -13.5t-12 -11.5q-30 -24 -33 -27q-8 -4 -18 -4zM35 -55q-69 0 -101 42
t-32 109q0 48 16 107q62 173 182 305q65 57 129 57q22 0 40.5 -12.5t27.5 -36.5q6 -14 6 -39q0 -31 -18 -69q-82 -143 -234 -213q-5 -2 -57 -23q-17 -46 -17 -84q0 -48 29 -63q15 -9 35 -9q43 0 147 58q65 38 122 73.5t139.5 89.5t123.5 80q6 3 23.5 13.5t24.5 13.5h10
q16 0 21 -9.5t5 -29.5q-3 -19 -24 -33q-17 -12 -52.5 -35t-56.5 -38q-51 -31 -144.5 -91.5t-156.5 -97.5q-5 -2 -39.5 -20t-52.5 -25q-44 -20 -96 -20zM25 264q59 9 129.5 79.5t76.5 131.5q-3 17 -20 17q-31 -2 -70 -48q-63 -74 -116 -180z" />
    <glyph glyph-name="edieresis" unicode="&#xeb;" horiz-adv-x="622" 
d="M240 686q-25 2 -32 5.5t-24 25.5l-2 10q0 15 19 49l35 15q45 0 49 -48q-3 -40 -45 -57zM358 680q-24 0 -36 25q-4 5 -6 15l-3 9q3 26 25 45q12 10 33 10q18 0 37 -16q0 -1 8 -31q-2 -29 -29 -49q-16 -8 -29 -8zM35 -55q-69 0 -101 42t-32 109q0 48 16 107q62 173 182 305
q65 57 129 57q22 0 40.5 -12.5t27.5 -36.5q6 -14 6 -39q0 -31 -18 -69q-82 -143 -234 -213q-5 -2 -57 -23q-17 -46 -17 -84q0 -48 29 -63q15 -9 35 -9q43 0 147 58q65 38 122 73.5t139.5 89.5t123.5 80q6 3 23.5 13.5t24.5 13.5h10q16 0 21 -9.5t5 -29.5q-3 -19 -24 -33
q-17 -12 -52.5 -35t-56.5 -38q-51 -31 -144.5 -91.5t-156.5 -97.5q-5 -2 -39.5 -20t-52.5 -25q-44 -20 -96 -20zM25 264q59 9 129.5 79.5t76.5 131.5q-3 17 -20 17q-31 -2 -70 -48q-63 -74 -116 -180z" />
    <glyph glyph-name="igrave" unicode="&#xec;" horiz-adv-x="575" 
d="M14 532q-12 9 -28 17q-25 43 -60 166q12 24 15 28q1 2 3.5 4l5 4t3.5 3q2 0 6 1t6 1q21 0 29 -19q14 -18 20 -32q4 -10 43 -125q-7 -28 -13 -34t-30 -14zM18 -66q-28 0 -45 11q-53 34 -53 123q0 40 17 114q52 207 77 226q8 4 17 4t20 -9.5t17 -23.5q-4 -23 -38 -144.5
t-32 -191.5q0 -21 16 -33q5 -2 10 -2.5t10.5 1l11 3t13.5 5t14 7t16.5 9.5t18.5 11t22 13.5t24 14.5q19 13 74 49t82 54t71 48t80 57t71 54q8 5 22.5 13t18.5 11q42 0 48 -36q-6 -18 -23 -35q-10 -8 -28 -23l-33 -27.5t-31 -23.5q-233 -165 -300 -205q-123 -74 -188 -74z
" />
    <glyph glyph-name="iacute" unicode="&#xed;" horiz-adv-x="575" 
d="M96 535q-29 0 -43 28v8q0 14 10 27q12 15 27 27q67 55 139 118q5 5 17.5 8.5t13.5 4.5q40 -13 35 -43q-2 -27 -29 -47q-18 -13 -75 -63.5t-95 -67.5zM18 -66q-28 0 -45 11q-53 34 -53 123q0 40 17 114q52 207 77 226q8 4 17 4t20 -9.5t17 -23.5q-4 -23 -38 -144.5
t-32 -191.5q0 -21 16 -33q5 -2 10 -2.5t10.5 1l11 3t13.5 5t14 7t16.5 9.5t18.5 11t22 13.5t24 14.5q19 13 74 49t82 54t71 48t80 57t71 54q8 5 22.5 13t18.5 11q42 0 48 -36q-6 -18 -23 -35q-10 -8 -28 -23l-33 -27.5t-31 -23.5q-233 -165 -300 -205q-123 -74 -188 -74z
" />
    <glyph glyph-name="icircumflex" unicode="&#xee;" horiz-adv-x="575" 
d="M-16 526q-31 0 -39 31q0 17 6 25q12 20 24 32q16 18 121 138q27 27 45 43h33q28 -14 33 -41q0 -37 -19.5 -106t-21.5 -81q-23 -39 -57 -28q-9 4 -13.5 12.5t-8 20t-5.5 16.5h-6q-8 0 -15 -5.5t-14 -14t-12 -11.5q-30 -24 -33 -27q-8 -4 -18 -4zM18 -66q-28 0 -45 11
q-53 34 -53 123q0 40 17 114q52 207 77 226q8 4 17 4t20 -9.5t17 -23.5q-4 -23 -38 -144.5t-32 -191.5q0 -21 16 -33q5 -2 10 -2.5t10.5 1l11 3t13.5 5t14 7t16.5 9.5t18.5 11t22 13.5t24 14.5q19 13 74 49t82 54t71 48t80 57t71 54q8 5 22.5 13t18.5 11q42 0 48 -36
q-6 -18 -23 -35q-10 -8 -28 -23l-33 -27.5t-31 -23.5q-233 -165 -300 -205q-123 -74 -188 -74z" />
    <glyph glyph-name="idieresis" unicode="&#xef;" horiz-adv-x="575" 
d="M20 532q-24 1 -31 5t-24 26l-2 10q0 16 19 50l34 14q47 0 50 -47q-3 -41 -46 -58zM139 526q-25 0 -37 25q-4 5 -6 14t-2 10q3 27 25 46q13 10 33 10q16 0 36 -17q3 -6 9 -30q-2 -29 -29 -49q-18 -9 -29 -9zM18 -66q-28 0 -45 11q-53 34 -53 123q0 40 17 114
q52 207 77 226q8 4 17 4t20 -9.5t17 -23.5q-4 -23 -38 -144.5t-32 -191.5q0 -21 16 -33q5 -2 10 -2.5t10.5 1l11 3t13.5 5t14 7t16.5 9.5t18.5 11t22 13.5t24 14.5q19 13 74 49t82 54t71 48t80 57t71 54q8 5 22.5 13t18.5 11q42 0 48 -36q-6 -18 -23 -35q-10 -8 -28 -23
l-33 -27.5t-31 -23.5q-233 -165 -300 -205q-123 -74 -188 -74z" />
    <glyph glyph-name="eth" unicode="&#xf0;" horiz-adv-x="546" 
d="M629 1309q0 -20 -17 -62q-42 -114 -112 -291q16 -15 51 -48.5t53 -51.5q36 -49 14 -68q-21 -9 -45 5q-66 43 -86 61l-18 18q-15 -40 -45.5 -117.5t-46.5 -117.5q-45 -104 -88 -283q-39 -156 -94 -422q-4 -24 -10.5 -69.5t-10.5 -67.5q-1 -13 -5.5 -18t-27.5 -23h-4
q-13 0 -28 19q-9 32 -9 41q0 6 1 14t2.5 18t2.5 15q23 166 68 344q8 31 8 65q-53 -67 -67 -82q-39 -48 -88 -75q-33 -23 -66 -23q-21 0 -37 8q-32 22 -24 60q3 32 16 71q26 75 98 150q69 76 160 65q2 0 8 3t13 4q65 102 116 245l86 244q-30 30 -96 92q-30 30 -33 60
q1 3 2.5 5.5t2.5 4t1 2.5q9 9 35 6q79 -52 119 -86q73 189 82 211q29 76 53 100q14 11 29 11q12 0 24 -9q8 -8 13 -18v-10zM-14 174q90 63 168 203q-43 -12 -70.5 -34t-50.5 -56q-27 -36 -35.5 -57.5t-11.5 -55.5z" />
    <glyph glyph-name="ntilde" unicode="&#xf1;" horiz-adv-x="581" 
d="M242 582q-23 0 -35 30q0 11 2 19q19 41 70 59q24 6 49 6q18 0 28 -2q9 -2 34.5 -10t39.5 -10h72q24 -27 24 -35q0 -6 -18 -35q-27 -14 -64 -14q-18 0 -39 4t-47 10.5t-39 9.5l-69 -32h-8zM-8 123q-22 3 -35 24q-8 13 -8 39q0 13 4 45q31 208 88 365q3 8 25 59
q13 29 40 35q23 -3 35 -26q-1 -24 -9 -45.5t-26.5 -72t-37.5 -120.5q-1 -6 -13 -62.5t-20 -93.5q6 7 30.5 32.5t32 33t28 25t33 24t32 14t38.5 9.5q62 -6 88 -72q28 -74 93 -82q28 5 55 19t40 24.5t41 36.5t36 33q4 4 10 4q17 0 32 -14.5t9 -34.5q-64 -94 -176 -134
q-19 -8 -47 -8q-39 0 -76 19.5t-58 52.5l-38 67q-9 7 -23 7q-10 0 -27 -13q-52 -34 -133 -141q-21 -29 -32 -35q-8 -5 -31 -14z" />
    <glyph glyph-name="ograve" unicode="&#xf2;" horiz-adv-x="432" 
d="M70 514q-6 4 -29 16q-24 40 -59 166q2 4 4.5 10.5t4.5 10.5t5 8q1 2 6 6l6 4q2 0 6 1t6 1q22 0 29 -18q16 -19 21 -33q4 -10 43 -125q-2 -6 -3 -10.5t-2 -8.5t-3 -6.5t-3 -5t-3.5 -4t-3.5 -2.5t-5 -2.5t-5.5 -2.5t-7 -2.5t-7.5 -2.5zM-41 -41q-22 0 -41 8q-35 35 -35 90
q4 182 82 287q20 31 31.5 39t58.5 25q27 0 43 -23q15 -15 31 -35q27 -6 59 -6q44 0 91 6q70 4 104 4h12q35 0 54 -16q12 -15 8 -35q-14 -27 -56 -27q-121 0 -180 -4h-24q-33 0 -47 -8q-14 -14 -19 -59q-22 -120 -90 -199q-41 -47 -82 -47zM-31 55q84 69 90 193q0 9 -10 22
q-30 6 -39 6q-45 -85 -45 -167q0 -18 4 -54z" />
    <glyph glyph-name="oacute" unicode="&#xf3;" horiz-adv-x="432" 
d="M152 516q-28 0 -43 29v8q0 14 10 27q12 14 26 26q63 53 140 119q5 5 16.5 8t13.5 4q40 -13 35 -43q-2 -28 -28 -47q-18 -13 -75 -63.5t-95 -67.5zM-41 -41q-22 0 -41 8q-35 35 -35 90q4 182 82 287q20 31 31.5 39t58.5 25q27 0 43 -23q15 -15 31 -35q27 -6 59 -6
q44 0 91 6q70 4 104 4h12q35 0 54 -16q12 -15 8 -35q-14 -27 -56 -27q-121 0 -180 -4h-24q-33 0 -47 -8q-14 -14 -19 -59q-22 -120 -90 -199q-41 -47 -82 -47zM-31 55q84 69 90 193q0 9 -10 22q-30 6 -39 6q-45 -85 -45 -167q0 -18 4 -54z" />
    <glyph glyph-name="ocircumflex" unicode="&#xf4;" horiz-adv-x="432" 
d="M39 508q-31 0 -39 31q0 16 6 24q12 20 25 33q39 43 121 137q27 27 45 43h32q28 -14 33 -41q0 -37 -19.5 -105.5t-21.5 -80.5q-24 -40 -57 -29q-9 4 -13.5 12.5t-8 20t-5.5 16.5h-6q-8 0 -15 -5t-14 -13.5t-12 -11.5q-30 -24 -33 -27q-8 -4 -18 -4zM-41 -41q-22 0 -41 8
q-35 35 -35 90q4 182 82 287q20 31 31.5 39t58.5 25q27 0 43 -23q15 -15 31 -35q27 -6 59 -6q44 0 91 6q70 4 104 4h12q35 0 54 -16q12 -15 8 -35q-14 -27 -56 -27q-121 0 -180 -4h-24q-33 0 -47 -8q-14 -14 -19 -59q-22 -120 -90 -199q-41 -47 -82 -47zM-31 55
q84 69 90 193q0 9 -10 22q-30 6 -39 6q-45 -85 -45 -167q0 -18 4 -54z" />
    <glyph glyph-name="otilde" unicode="&#xf5;" horiz-adv-x="432" 
d="M2 514q-23 0 -35 31q0 10 2 18q19 42 70 60q24 6 49 6q19 0 29 -2t34.5 -10.5t38.5 -10.5q10 -1 21.5 -1t26.5 0.5t24 0.5q25 -28 25 -35q0 -5 -2 -9t-8 -12t-9 -13q-29 -15 -63 -15q-18 0 -39 4.5t-46.5 11t-39.5 9.5l-70 -33h-8zM-41 -41q-22 0 -41 8q-35 35 -35 90
q4 182 82 287q20 31 31.5 39t58.5 25q27 0 43 -23q15 -15 31 -35q27 -6 59 -6q44 0 91 6q70 4 104 4h12q35 0 54 -16q12 -15 8 -35q-14 -27 -56 -27q-121 0 -180 -4h-24q-33 0 -47 -8q-14 -14 -19 -59q-22 -120 -90 -199q-41 -47 -82 -47zM-31 55q84 69 90 193q0 9 -10 22
q-30 6 -39 6q-45 -85 -45 -167q0 -18 4 -54z" />
    <glyph glyph-name="odieresis" unicode="&#xf6;" horiz-adv-x="432" 
d="M76 514q-25 2 -32 5.5t-24 25.5l-2 10q0 15 19 49l35 14q46 0 49 -47q-3 -40 -45 -57zM195 508q-25 0 -37 24q-4 5 -6 14.5t-2 10.5q3 27 24 45q13 10 33 10q18 0 37 -16q0 -1 8 -31q-2 -29 -29 -49q-16 -8 -28 -8zM-41 -41q-22 0 -41 8q-35 35 -35 90q4 182 82 287
q20 31 31.5 39t58.5 25q27 0 43 -23q15 -15 31 -35q27 -6 59 -6q44 0 91 6q70 4 104 4h12q35 0 54 -16q12 -15 8 -35q-14 -27 -56 -27q-121 0 -180 -4h-24q-33 0 -47 -8q-14 -14 -19 -59q-22 -120 -90 -199q-41 -47 -82 -47zM-31 55q84 69 90 193q0 9 -10 22q-30 6 -39 6
q-45 -85 -45 -167q0 -18 4 -54z" />
    <glyph glyph-name="divide" unicode="&#xf7;" horiz-adv-x="854" 
d="M469 696q-18 12 -18 35q3 47 49 41q22 -2 32 -37q-3 -25 -18 -37q-22 -15 -45 -2zM526 494q-43 2 -132.5 4t-133.5 4q-21 0 -32 1t-24 10t-18 26q0 18 27 36q109 5 383 -12q18 -14 25 -31v-6q0 -12 -21 -26q-19 -6 -74 -6zM342 287q-23 14 -23 35q0 18 11 32q22 9 28 10
t25 -2q14 -6 18 -34q-10 -52 -59 -41z" />
    <glyph glyph-name="oslash" unicode="&#xf8;" horiz-adv-x="432" 
d="M449 338q12 -15 8 -35q-14 -27 -56 -27q-121 0 -180 -4h-24q-33 0 -47 -8q-14 -14 -19 -59q-22 -120 -90 -199q-41 -47 -82 -47q-22 0 -41 8q-4 4 -7.5 8.5t-7 10t-5.5 8.5q-9 -9 -23.5 -26.5t-30.5 -33.5q-12 -17 -35 1q-24 19 -16 44q1 2 2 5q17 19 45.5 53.5
t44.5 52.5q7 156 80 254q20 31 31.5 39t58.5 25q27 0 43 -23q11 -11 13 -14q15 18 30 39q52 60 82 30q12 -27 -8 -57l-33 -39h6q44 0 91 6q70 4 104 4h12q35 0 54 -16zM10 276q-20 -38 -28 -69q7 10 25 32t28 35q-3 0 -11.5 1t-13.5 1zM-31 55q60 48 78 121l-80 -100
q0 -3 1 -10t1 -11z" />
    <glyph glyph-name="ugrave" unicode="&#xf9;" horiz-adv-x="630" 
d="M252 649q-10 7 -29 17q-7 12 -13.5 26.5t-11 24.5t-10.5 29t-8 26.5t-8.5 30.5t-7.5 28q2 4 4.5 10.5t4.5 10.5t5 8q1 2 6 6l6 4q2 0 6.5 1t6.5 1q21 0 28 -18q16 -20 21 -33q4 -10 43 -125q-2 -6 -3 -10.5t-2 -8.5t-3 -6.5t-3 -5t-3.5 -4t-3.5 -2.5t-5 -2.5t-5.5 -2.5
t-7 -2.5t-7.5 -2.5zM326 -33q-4 1 -8 3.5t-10.5 6t-10.5 5.5q-12 53 -12 108q0 30 3 62t9 78t8 67q-98 -102 -139 -141q-47 -47 -60 -56q-30 -19 -49 -26q-19 -8 -39 -8q-30 0 -49 20.5t-24 54.5q-2 12 -2 37q0 39 8 66l14 51q16 42 29.5 79t22.5 59.5t24 55.5q4 8 14 11
q2 1 9 3.5t12 2.5q14 0 28 -17q5 -10 5 -22q0 -9 -9 -41q-38 -100 -53 -145q-14 -37 -29 -101v-8q0 -13 15 -25q27 3 51 31q82 82 121 123q18 20 65.5 75.5t73.5 84.5q2 2 8 9.5t9.5 11t9.5 8.5t13 8t15 4q31 -6 37 -41q-4 -14 -17.5 -60.5t-19 -65.5t-15.5 -60t-14 -67
t-8 -61t-4 -67q0 -28 4 -78q-5 -32 -36 -35z" />
    <glyph glyph-name="uacute" unicode="&#xfa;" horiz-adv-x="630" 
d="M334 651q-28 0 -43 29v8q0 14 10 27q10 12 27 26q40 33 139 119q5 5 17 8t14 4q39 -13 34 -43q-2 -28 -28 -47q-18 -13 -75 -63.5t-95 -67.5zM326 -33q-4 1 -8 3.5t-10.5 6t-10.5 5.5q-12 53 -12 108q0 30 3 62t9 78t8 67q-98 -102 -139 -141q-47 -47 -60 -56
q-30 -19 -49 -26q-19 -8 -39 -8q-30 0 -49 20.5t-24 54.5q-2 12 -2 37q0 39 8 66l14 51q16 42 29.5 79t22.5 59.5t24 55.5q4 8 14 11q2 1 9 3.5t12 2.5q14 0 28 -17q5 -10 5 -22q0 -9 -9 -41q-38 -100 -53 -145q-14 -37 -29 -101v-8q0 -13 15 -25q27 3 51 31q82 82 121 123
q18 20 65.5 75.5t73.5 84.5q2 2 8 9.5t9.5 11t9.5 8.5t13 8t15 4q31 -6 37 -41q-4 -14 -17.5 -60.5t-19 -65.5t-15.5 -60t-14 -67t-8 -61t-4 -67q0 -28 4 -78q-5 -32 -36 -35z" />
    <glyph glyph-name="ucircumflex" unicode="&#xfb;" horiz-adv-x="630" 
d="M221 643q-31 0 -39 31q0 16 6 24q12 20 25 33q39 43 121 137q27 27 45 43h33q27 -14 32 -41q0 -37 -19.5 -105.5t-21.5 -80.5q-24 -40 -57 -29q-9 4 -13.5 12.5t-8 20.5t-5.5 17h-6q-8 0 -15 -5.5t-14 -14t-12 -11.5q-25 -20 -32 -27q-8 -4 -19 -4zM326 -33q-4 1 -8 3.5
t-10.5 6t-10.5 5.5q-12 53 -12 108q0 30 3 62t9 78t8 67q-98 -102 -139 -141q-47 -47 -60 -56q-30 -19 -49 -26q-19 -8 -39 -8q-30 0 -49 20.5t-24 54.5q-2 12 -2 37q0 39 8 66l14 51q16 42 29.5 79t22.5 59.5t24 55.5q4 8 14 11q2 1 9 3.5t12 2.5q14 0 28 -17q5 -10 5 -22
q0 -9 -9 -41q-38 -100 -53 -145q-14 -37 -29 -101v-8q0 -13 15 -25q27 3 51 31q82 82 121 123q18 20 65.5 75.5t73.5 84.5q2 2 8 9.5t9.5 11t9.5 8.5t13 8t15 4q31 -6 37 -41q-4 -14 -17.5 -60.5t-19 -65.5t-15.5 -60t-14 -67t-8 -61t-4 -67q0 -28 4 -78q-5 -32 -36 -35z
" />
    <glyph glyph-name="udieresis" unicode="&#xfc;" horiz-adv-x="630" 
d="M258 649q-24 1 -31 5t-24 26l-2 10q0 17 18 49l35 15q46 0 49 -47q-3 -41 -45 -58zM377 643q-25 0 -37 25q-4 5 -6 14t-2 10q3 27 24 45q14 11 33 11q17 0 37 -17q0 -1 8 -31q-2 -30 -28 -49q-16 -8 -29 -8zM326 -33q-4 1 -8 3.5t-10.5 6t-10.5 5.5q-12 53 -12 108
q0 30 3 62t9 78t8 67q-98 -102 -139 -141q-47 -47 -60 -56q-30 -19 -49 -26q-19 -8 -39 -8q-30 0 -49 20.5t-24 54.5q-2 12 -2 37q0 39 8 66l14 51q16 42 29.5 79t22.5 59.5t24 55.5q4 8 14 11q2 1 9 3.5t12 2.5q14 0 28 -17q5 -10 5 -22q0 -9 -9 -41q-38 -100 -53 -145
q-14 -37 -29 -101v-8q0 -13 15 -25q27 3 51 31q82 82 121 123q18 20 65.5 75.5t73.5 84.5q2 2 8 9.5t9.5 11t9.5 8.5t13 8t15 4q31 -6 37 -41q-4 -14 -17.5 -60.5t-19 -65.5t-15.5 -60t-14 -67t-8 -61t-4 -67q0 -28 4 -78q-5 -32 -36 -35z" />
    <glyph glyph-name="yacute" unicode="&#xfd;" horiz-adv-x="901" 
d="M350 657q-28 0 -43 29v8q0 14 10 27q12 15 27 27q67 56 139 118q5 5 17.5 8.5t13.5 4.5q40 -13 35 -43q-2 -28 -29 -48q-18 -13 -75 -63.5t-95 -67.5zM-362 -1280q-66 -3 -116 37t-57 123q-11 118 54 235q142 239 401 330q140 50 320 63q20 0 41 7q16 16 20 26
q207 391 283 695q33 110 28 200q0 33 -12 47q-12 9 -20 9q-6 0 -33 -11q-71 -36 -105 -78q-94 -100 -190 -213q-14 -18 -47 -60t-51.5 -64.5t-47.5 -55.5t-55 -59q-46 -46 -59 -55q-23 -13 -41 -13q-24 0 -49 25q-19 37 -19 90q0 21 2 33q18 99 31 135q60 175 102 285
q14 39 33 51q22 17 41 4q24 -18 14 -45q-3 -7 -11.5 -31t-14.5 -37q-86 -220 -113 -350q-6 -24 -6 -27q0 -12 12 -24q9 1 17 5.5t12 8t11.5 13.5t9.5 12q16 20 89.5 113t114.5 141q33 38 94 104t78 84q52 52 144 92q25 10 49 10q70 0 94 -83q10 -31 10 -74q0 -30 -6 -64
q-23 -173 -108 -385q-92 -246 -189 -428q-3 -4 -5.5 -10t-6 -15t-6.5 -16q54 -14 88 -25t77 -30t75.5 -45.5t56.5 -61.5q0 -40 -39 -43q-27 7 -71 43t-70 46q-37 13 -156 41q-24 -22 -55 -78q-14 -22 -53 -82t-59 -90.5t-53 -78.5t-63.5 -87.5t-62.5 -75.5
q-86 -103 -193 -168q-76 -42 -159 -45zM-358 -1198q64 0 131 41q85 56 164 147q52 61 110 144t86 128t98 158q-10 0 -20.5 2.5t-13.5 2.5q-230 -24 -379 -115q-258 -157 -279 -408q12 -43 18 -54.5t31 -37.5q24 -8 54 -8z" />
    <glyph glyph-name="thorn" unicode="&#xfe;" horiz-adv-x="636" 
d="M-295 -952q-22 -9 -41 10q-8 9 -11 20t-2.5 18t3.5 21.5t4 20.5q15 71 31 110q168 651 188 734q18 67 67 218t70 234q2 13 -8.5 32t-7.5 28q1 21 11 35t28 28.5t26 24.5l107 311q6 17 68 199q7 18 10.5 25t13 17.5t23.5 14.5q32 8 45 -33q0 -10 -2 -18l-74 -221
q-23 -63 -92 -263q60 10 117 0q68 -8 123 -70t55 -132q3 -156 -103 -291q-82 -119 -207 -160q-77 -25 -145 0q-5 3 -27 8q-8 -4 -13 -11t-7 -12t-3.5 -16.5t-2.5 -13.5q-21 -76 -58 -220t-55 -210q-20 -74 -56 -215.5t-44 -173.5q-14 -38 -31 -49zM133 43q26 13 47 25
q158 99 195 303q0 37 -4 55q-6 38 -31 68t-59 36q-99 15 -152 -24q-63 -173 -137 -443q64 -50 141 -20z" />
    <glyph glyph-name="ydieresis" unicode="&#xff;" horiz-adv-x="901" 
d="M274 655q-24 1 -31 5t-24 26l-2 10q0 15 19 49l34 15q46 0 49 -47q-3 -41 -45 -58zM393 649q-25 0 -37 25q-4 5 -6 14t-2 10q3 26 25 45q14 11 33 11q16 0 36 -17q3 -6 9 -30q-2 -30 -29 -50q-16 -8 -29 -8zM-362 -1280q-66 -3 -116 37t-57 123q-11 118 54 235
q142 239 401 330q140 50 320 63q20 0 41 7q16 16 20 26q207 391 283 695q33 110 28 200q0 33 -12 47q-12 9 -20 9q-6 0 -33 -11q-71 -36 -105 -78q-94 -100 -190 -213q-14 -18 -47 -60t-51.5 -64.5t-47.5 -55.5t-55 -59q-46 -46 -59 -55q-23 -13 -41 -13q-24 0 -49 25
q-19 37 -19 90q0 21 2 33q18 99 31 135q60 175 102 285q14 39 33 51q22 17 41 4q24 -18 14 -45q-3 -7 -11.5 -31t-14.5 -37q-86 -220 -113 -350q-6 -24 -6 -27q0 -12 12 -24q9 1 17 5.5t12 8t11.5 13.5t9.5 12q16 20 89.5 113t114.5 141q33 38 94 104t78 84q52 52 144 92
q25 10 49 10q70 0 94 -83q10 -31 10 -74q0 -30 -6 -64q-23 -173 -108 -385q-92 -246 -189 -428q-3 -4 -5.5 -10t-6 -15t-6.5 -16q54 -14 88 -25t77 -30t75.5 -45.5t56.5 -61.5q0 -40 -39 -43q-27 7 -71 43t-70 46q-37 13 -156 41q-24 -22 -55 -78q-14 -22 -53 -82t-59 -90.5
t-53 -78.5t-63.5 -87.5t-62.5 -75.5q-86 -103 -193 -168q-76 -42 -159 -45zM-358 -1198q64 0 131 41q85 56 164 147q52 61 110 144t86 128t98 158q-10 0 -20.5 2.5t-13.5 2.5q-230 -24 -379 -115q-258 -157 -279 -408q12 -43 18 -54.5t31 -37.5q24 -8 54 -8z" />
    </font>
</defs>
</svg>
