<?xml version="1.0" standalone="no"?>
<!DOCTYPE svg PUBLIC "-//W3C//DTD SVG 1.1//EN" "http://www.w3.org/Graphics/SVG/1.1/DTD/svg11.dtd" >
<svg xmlns="http://www.w3.org/2000/svg" xmlns:xlink="http://www.w3.org/1999/xlink" version="1.1">
<metadata>
Created by FontForge 20170731 at Wed May  9 01:16:41 2018
 By Aleksey,,,
Copyright (c) 2018 by Khurasan. All rights reserved.
</metadata>
<defs>
<font id="SebastrianScript" horiz-adv-x="515" >
  <font-face 
    font-family="Sebastrian Script"
    font-weight="400"
    font-stretch="normal"
    units-per-em="1000"
    panose-1="0 0 0 0 0 0 0 0 0 0"
    ascent="800"
    descent="-200"
    x-height="394"
    cap-height="784.5"
    bbox="-265.8 -332.902 988.19 954.556"
    underline-thickness="50"
    underline-position="-150"
    unicode-range="U+000D-F6C0"
  />
<missing-glyph horiz-adv-x="284" 
 />
    <glyph glyph-name="ll" unicode="ll" horiz-adv-x="430" 
d="M434 314q5 7 7.5 -1.5t-1.5 -15.5q-31 -59 -65.5 -110.5t-82.5 -96.5q-34 -33 -57 -18t-29 59q-6 45 -1.5 92t12.5 93q-28 -43 -62 -84t-75 -76q-35 -28 -57.5 -14.5t-28.5 51.5q-4 27 -3 53.5t5 53.5t9.5 53.5t10.5 52.5q7 36 17 78.5t21 86.5t21.5 86.5t18.5 77.5
q2 8 10 5.5t7 -9.5q-9 -39 -20 -84t-23 -91.5t-23 -92t-18 -84.5q-4 -23 -9 -49.5t-8 -54.5t-2 -55.5t9 -50.5q9 -18 21.5 -16.5t27.5 12.5q49 39 88 89.5t70 101.5q0 2 1 3q0 5 3 11q7 40 14 75.5t14.5 70t15 69.5t15.5 75q2 9 10 7t6 -10q-9 -43 -17 -81.5t-16.5 -76.5
t-16 -77t-14.5 -82q-7 -39 -12 -77.5t-7 -78.5q0 -20 0.5 -40.5t8.5 -39.5q8 -23 20.5 -21t28.5 16q48 45 87 101.5t69 113.5z" />
    <glyph glyph-name="tt" unicode="tt" horiz-adv-x="675" 
d="M676 311q4 7 8 0t-1 -14q-9 -15 -29 -45.5t-47.5 -67.5t-59.5 -75.5t-64.5 -69.5t-63 -50t-53.5 -16q-24 2 -38 19t-21.5 40t-10 48t-3.5 43q-6 79 7.5 156.5t32.5 154.5q2 12 4.5 23t6.5 23q-17 -37 -36 -72.5t-39 -70.5q-32 -54 -67 -107.5t-76 -101.5
q-12 -15 -31.5 -34t-40 -29t-39.5 -5.5t-30 37.5q-9 31 -7.5 65t6.5 65q5 41 13.5 81t17.5 79q16 75 39 147q-25 -2 -48 -2.5t-46 -1.5q-8 0 -8 8t8 8q26 2 50 3t50 2q11 40 25.5 79.5t29.5 78.5q3 8 11.5 5.5t4.5 -10.5q-14 -38 -27.5 -75.5t-25.5 -77.5q70 3 140 5t141 2
q15 35 28 71.5t33 74.5q4 8 11 4t3 -11q-4 -8 -12.5 -29t-17.5 -44t-16 -42.5t-8 -23.5q66 0 128.5 -0.5t128.5 -2.5q8 0 8 -8t-8 -8q-66 1 -131 2t-131 -1q-8 -32 -15.5 -63.5t-15.5 -62.5q-17 -70 -28 -140t-7 -141q0 -17 3 -44.5t11 -51.5t24 -38.5t43 -6.5
q17 3 42.5 23.5t54.5 51t59 67.5t56.5 71.5t46 63t27.5 42.5zM253 341q28 48 53 98t46 101q-70 0 -140 -2t-139 -4q-14 -43 -25.5 -86.5t-22.5 -89.5q-9 -42 -17.5 -87t-11.5 -90q-1 -20 -0.5 -40t7.5 -39q6 -21 17.5 -24.5t24.5 2t25 16t20 18.5q49 48 88.5 108t74.5 119z
" />
    <glyph glyph-name="ss" unicode="ss" horiz-adv-x="467" 
d="M467 313q7 4 9.5 -3.5t-5.5 -10.5q-17 -9 -43 -26t-53.5 -36.5t-52.5 -38t-40 -29.5q5 -9 8 -19t4 -21q3 -21 -2.5 -45.5t-18 -45.5t-31.5 -35.5t-44 -15.5q-20 0 -36 12t-18 33q-2 23 11.5 40t27.5 31q20 18 38.5 35.5t37.5 34.5q-7 11 -15 19.5t-17 16.5t-18.5 17
t-19.5 22q-61 -25 -112 -57q0 -4 0.5 -7.5t0.5 -7.5q3 -32 -4.5 -63.5t-27.5 -57.5q-7 -9 -17.5 -19t-23 -17.5t-26 -12t-26.5 -2.5q-20 2 -26.5 11.5t-5 23t9.5 29t18 29.5t19.5 25.5t14.5 16.5q17 17 36 31.5t38 26.5q-8 34 -27.5 63.5t-40.5 60.5q-9 16 -11.5 28t10.5 26
q14 17 35 20.5t40 -5.5q7 -4 3 -11t-12 -4q-7 4 -17.5 4.5t-20 -3t-15.5 -10.5t-4 -19q0 -8 6.5 -17t11.5 -16q6 -9 12.5 -18t11.5 -18q24 -35 35 -70q26 15 53.5 29t55.5 25q-13 24 -5 47t26 41.5t39.5 31.5t34.5 16q9 1 10.5 -7.5t-6.5 -10.5q-14 -2 -30 -11.5
t-29.5 -24.5t-20 -34t-0.5 -40q4 -14 12 -23.5t17.5 -18t20.5 -18.5t22 -26q14 12 39.5 30.5t54 38t55.5 36t44 24.5zM54 109q7 19 8.5 37t-0.5 35q-18 -13 -35 -25.5t-33 -28.5q-6 -6 -17.5 -18t-21.5 -26.5t-15.5 -29t2.5 -25.5q6 -8 16 -7.5t21 5.5t20 11.5t14 10.5
q16 11 26 27t15 34zM277 92q3 17 0.5 34t-9.5 31q-12 -10 -23.5 -20.5t-22.5 -21.5q-9 -8 -24.5 -23t-26.5 -30.5t-11 -30t23 -22.5q18 -6 34 0.5t28 19.5t20.5 30t11.5 33z" />
    <glyph glyph-name="kk" unicode="kk" horiz-adv-x="762" 
d="M759 309q7 7 10 -1.5t-2 -14.5q-35 -38 -82.5 -75t-98.5 -57t-101.5 -15.5t-91.5 49.5q-26 -41 -41.5 -87.5t-27.5 -95.5q-2 -7 -9.5 -5.5t-7.5 9.5q4 72 19.5 144.5t36.5 143.5l-1 -2q-24 -16 -49.5 -31t-55.5 -30q-26 -11 -55 -20.5t-57 -5.5q-27 3 -37.5 17.5
t-10 34.5t10 43t22.5 45q-31 -26 -61 -53t-64 -56q-11 -48 -21 -96.5t-22 -98.5q-1 -8 -9 -8t-7 8q35 180 77 357.5t88 357.5q2 8 10 5.5t6 -10.5q-32 -122 -61 -242t-55 -244q39 37 81.5 71t86.5 64q7 5 10 -2t-2 -12q-15 -10 -28.5 -26t-24 -35t-15.5 -38.5t-2 -37.5
q4 -20 21 -26t42 -2t54.5 16t56.5 27t49 31.5t32 30.5q25 87 55 173t67 175q1 3 9 19t17.5 31.5t18.5 22.5t14 -9q4 -14 -2 -44t-16 -64t-21 -65t-16 -46q-20 -51 -46 -103t-64 -96q-2 -8 -4.5 -15.5t-5.5 -15.5q-11 -45 -22 -89.5t-18 -89.5q15 47 44 91q-8 9 5 13
q1 0 2 0.5t3 0.5q20 26 42.5 48t53.5 43q13 8 30.5 17.5t33.5 7.5q14 -2 15 -9t-4.5 -15.5t-14 -16.5t-12.5 -12q-29 -23 -62.5 -43t-69.5 -33v-1q38 -44 86 -47.5t97.5 17t94.5 57t77 71.5zM542 323q-12 0 -29 -10t-34 -23.5t-31.5 -27.5t-23.5 -23q21 9 40 20.5t39 25.5
q1 1 10.5 7t18.5 13.5t13.5 13t-3.5 4.5zM474 588q-20 -54 -38.5 -107.5t-35.5 -109.5q33 47 55 98t39 100q13 38 24 77.5t18 81.5q-1 0 -2 -1q-17 -32 -31.5 -66t-28.5 -73z" />
    <glyph glyph-name=".notdef" horiz-adv-x="284" 
 />
    <glyph glyph-name=".null" horiz-adv-x="0" 
 />
    <glyph glyph-name="nonmarkingreturn" unicode="&#xd;" horiz-adv-x="284" 
 />
    <glyph glyph-name="NULL" horiz-adv-x="0" 
 />
    <glyph glyph-name="NULL" horiz-adv-x="0" 
 />
    <glyph glyph-name="space" unicode=" " horiz-adv-x="284" 
 />
    <glyph glyph-name="exclam" unicode="!" horiz-adv-x="157" 
d="M116 602q1 8 9 5.5t7 -9.5q-16 -102 -35.5 -201.5t-44.5 -199.5q-2 -7 -10 -5t-6 9q24 100 44.5 200t35.5 201zM33 163q6 0 8 -6t-1 -10q-4 -7 -13 -5q-8 4 -5 12.5t11 8.5z" />
    <glyph glyph-name="quotedbl" unicode="&#x22;" horiz-adv-x="175" 
d="M67 685q2 7 10 5t6 -9q-4 -13 -7.5 -26t-6.5 -26q-3 -8 -11 -6t-5 11q6 23 14 51zM105 684q2 7 10 5t6 -9q-4 -13 -7.5 -26t-6.5 -26q-3 -8 -11 -6t-5 11q6 23 14 51z" />
    <glyph glyph-name="numbersign" unicode="#" horiz-adv-x="278" 
d="M258 344q4 0 5.5 -3t1.5 -6t-1.5 -5.5t-5.5 -2.5h-15t-15 2q-5 -17 -11 -34t-11 -34h34q8 0 8 -8.5t-8 -8.5h-39q-5 -17 -11 -33.5t-13 -33.5q-2 -8 -10 -5.5t-6 9.5q6 16 11 32t11 31q-27 1 -53 1h-53q-6 -19 -12 -38.5t-13 -38.5q-3 -8 -11 -6t-6 10q8 18 13.5 36.5
t11.5 36.5h-21.5t-21.5 1q-8 0 -8 8.5t8 8.5h48q5 17 9.5 33.5t10.5 33.5h-41q-9 0 -8.5 8.5t8.5 8.5h45q4 18 8.5 36.5t8.5 38.5q2 7 9.5 4.5t5.5 -10.5q-3 -17 -6.5 -34t-8.5 -34q27 0 54 -0.5t55 -1.5q5 15 9 30t10 30q1 4 3.5 5t5.5 0.5t5.5 -3t1.5 -6.5q-5 -15 -9 -29
t-9 -27q8 -2 14 -2h12zM188 262q6 17 11.5 33.5t10.5 33.5q-28 1 -54.5 1h-54.5q-5 -16 -9 -33.5t-10 -34.5h106z" />
    <glyph glyph-name="dollar" unicode="$" horiz-adv-x="293" 
d="M234 308q19 -16 32 -36t17.5 -41.5t-1.5 -43.5t-24 -42q-22 -23 -49.5 -35.5t-57.5 -13.5q-2 -15 -4.5 -29t-5.5 -28q0 -4 -3 -5.5t-6 -0.5t-5 3.5t-1 6.5q2 14 4 27l4 26q-32 2 -60 17q-21 11 -36.5 28.5t-23 38.5t-6.5 44t11 46q4 7 11 3t3 -12q-14 -30 -9.5 -55.5
t20.5 -45t41 -31.5t52 -14q8 55 15.5 110t13.5 110q-14 9 -30.5 20.5t-28 26t-15.5 30t6 31.5q13 20 35 26.5t46 2.5q1 15 2 30.5t3 32.5q1 8 9 8t7 -8q-1 -17 -2 -33t-3 -33q14 -4 25.5 -9.5t22.5 -12.5q7 -5 2.5 -12.5t-11.5 -2.5q-21 16 -40 20q-2 -27 -5 -54.5t-5 -54.5
q13 -8 25.5 -16.5t24.5 -18.5zM138 376q7 -6 14.5 -11.5t15.5 -10.5q3 24 5 50t5 52q-15 2 -26 -1q-17 -3 -25.5 -11.5t-10 -20t4 -24.5t17.5 -23zM201 125q16 7 30 18.5t23.5 25.5t13 30.5t-0.5 34.5q-4 16 -13 29t-21 24t-25.5 20t-26.5 17q-6 -52 -12.5 -104.5
t-14.5 -104.5q26 0 47 10z" />
    <glyph glyph-name="percent" unicode="%" horiz-adv-x="314" 
d="M296 477q6 1 9 -5.5t-2 -9.5q-95 -71 -166 -164t-114 -204q-2 -8 -9.5 -5.5t-5.5 10.5q38 104 103 192.5t151 159.5q-37 -9 -79.5 -12.5t-78.5 7.5q4 -12 4 -24.5t-5.5 -23.5t-15.5 -19t-25 -9q-21 -2 -32 11t-12.5 29.5t7 31.5t28.5 18q7 0 10 -4q0 -1 0.5 -2t0.5 -2
q4 -6 -3.5 -9.5t-11.5 2.5q-21 -16 -15 -37q4 -14 17 -20t29 7q14 11 13 30t-12 32q-5 2 -9 5.5t-8 6.5q-6 5 -1 10.5t10 3.5q5 -3 9.5 -5.5t7.5 -6.5q23 -14 50 -14t52 2q27 2 52.5 6t51.5 12zM213 209q17 -9 25 -27t0 -37q-7 -20 -27 -30.5t-39 -10.5q-22 -1 -36.5 13
t-9.5 37q6 23 27.5 33.5t42.5 16.5q4 0 5 -1q1 4 4.5 6.5t7.5 -0.5zM221 148q7 12 3 25.5t-17 20.5l-3.5 -3.5t-4.5 -2.5q-14 -5 -29.5 -10t-23.5 -18q-5 -9 -4.5 -16.5t5.5 -12.5t12.5 -7.5t16.5 -1.5q14 1 26.5 8t18.5 18z" />
    <glyph glyph-name="ampersand" unicode="&#x26;" horiz-adv-x="357" 
d="M339 155q7 -5 3 -12t-12 -2q-28 18 -56.5 40t-55.5 48q-9 -11 -18.5 -21.5t-20.5 -19.5q-12 -11 -25.5 -21.5t-28.5 -17.5t-31 -9t-34 3q-31 9 -42.5 29t-10 44.5t12.5 49.5t26 43q16 19 35 36.5t39 33.5q-2 4 -2 6q-8 25 -5.5 53t14 53t31 45t44.5 29q10 3 23 5.5
t25.5 2t23.5 -5.5t17 -15q12 -20 5 -42.5t-21 -36.5q-15 -15 -32 -27.5t-34.5 -24t-35 -23.5t-33.5 -25q25 -65 78 -120q17 20 32.5 40.5t31.5 40.5q5 7 12 2.5t2 -10.5q-16 -22 -32 -43t-34 -41q25 -26 53 -48t56 -39zM159 511q-20 -27 -27.5 -58t1.5 -62l14 10l14 10
q14 10 33.5 21t37.5 23.5t31.5 28t16.5 33.5q3 15 -3 23.5t-16.5 12t-23 2.5t-23.5 -4q-17 -5 -30.5 -15.5t-24.5 -24.5zM159 192l24 24t23 24q-25 28 -46 58.5t-34 64.5q-31 -27 -61.5 -59t-39.5 -72q-5 -26 6 -47.5t40 -26.5q26 -5 47.5 6t40.5 28z" />
    <glyph glyph-name="quotesingle" unicode="'" horiz-adv-x="131" 
d="M67 685q2 7 10 5t6 -9q-4 -13 -7.5 -26t-6.5 -26q-3 -8 -11 -6t-5 11q6 23 14 51z" />
    <glyph glyph-name="parenleft" unicode="(" horiz-adv-x="185" 
d="M236 784q8 5 12 -2t-2 -12q-45 -26 -76 -68.5t-56 -85.5q-26 -45 -45.5 -91t-31.5 -97q-11 -44 -15 -102t7.5 -112t42 -95t87.5 -52q8 -2 6 -10.5t-10 -6.5q-56 11 -88.5 50t-47 90t-14.5 107t8 102q11 60 34 116t52 109q13 23 27.5 46t31 44t36 39t42.5 31z" />
    <glyph glyph-name="parenright" unicode=")" horiz-adv-x="235" 
d="M94 775q-5 6 1 12t11 0q38 -39 61 -86.5t33.5 -98.5t8.5 -104t-14 -104q-11 -49 -29 -99t-46 -95t-65 -81t-85 -58q-8 -3 -12 4.5t3 10.5q45 20 80 53.5t61.5 75t44.5 88t29 92.5q13 51 16 103.5t-6.5 103t-32 97.5t-59.5 86z" />
    <glyph glyph-name="asterisk" unicode="*" horiz-adv-x="193" 
d="M149 736q8 1 8 -8t-8 -9q-9 -1 -18.5 -1.5t-20.5 -2.5q8 -9 14 -18t12 -19q4 -8 -3 -12t-12 3q-5 10 -11 19t-14 18l-10 -14l-10 -14t-13 -2.5t-3 10.5q6 7 11 13t9 14q-14 -3 -32 -3q-8 -1 -8 7.5t8 9.5t15 1t14 2q-4 5 -8 9.5t-10 9.5q-5 5 1 10.5t12 -0.5l12 -12
t11 -12l8 12l8 12q5 8 12 3t2 -11q-2 -5 -4.5 -9t-5.5 -8q9 0 17.5 0.5t16.5 1.5z" />
    <glyph glyph-name="plus" unicode="+" horiz-adv-x="197" 
d="M157 293q8 -1 8 -9t-8 -8q-13 2 -27.5 2h-28.5q-4 -15 -7.5 -30.5t-8.5 -30.5q-1 -3 -4 -4t-6 -0.5t-5.5 3t-1.5 6.5q5 14 8.5 28t7.5 28q-13 0 -24 -0.5t-22 -1.5q-5 -1 -7 1t-2 5t2 6t7 4l24 2t26 1q6 31 9 59q2 8 10 6t7 -10q-2 -14 -4.5 -27.5t-5.5 -27.5h27t26 -2z
" />
    <glyph glyph-name="comma" unicode="," horiz-adv-x="116" 
d="M58 200q0 8 8.5 8t8.5 -8q1 -15 -5 -29t-16 -26q-5 -5 -11 0.5t0 12.5q15 16 15 42z" />
    <glyph glyph-name="hyphen" unicode="-" horiz-adv-x="276" 
d="M75 274q-9 0 -9 8t9 8q28 2 56 2.5t57 -0.5q7 0 7 -8.5t-7 -8.5q-29 2 -57 1z" />
    <glyph glyph-name="period" unicode="." horiz-adv-x="177" 
d="M94 195q2 -5 -0.5 -10.5t-6.5 -8.5q-2 -2 -6 -0.5t-7 5t-2.5 9t8.5 12.5q5 3 9 0t5 -7z" />
    <glyph glyph-name="slash" unicode="/" horiz-adv-x="299" 
d="M330 739q3 8 10.5 3.5t3.5 -11.5q-81 -174 -170 -342.5t-188 -333.5q-4 -7 -10.5 -3t-2.5 12q98 166 187 333.5t170 341.5z" />
    <glyph glyph-name="zero" unicode="0" horiz-adv-x="256" 
d="M213 494q26 -18 32.5 -47t2.5 -58q-9 -63 -34.5 -126.5t-65.5 -114.5q-8 -10 -18 -20.5t-21.5 -19.5t-24.5 -13.5t-27 -2.5q-20 4 -31 17.5t-17 31.5q-7 22 -8 54t4.5 68t16.5 73t26 70t34.5 59t41.5 39q7 5 11.5 -0.5t0.5 -10.5q19 9 38 11.5t39 -10.5zM204 287
q10 30 20 63.5t10 65.5q-1 22 -12 44t-34 28q-10 2 -19.5 0t-18.5 -6t-17 -10t-15 -11q-5 -4 -8.5 -1t-3.5 6q-24 -26 -44 -68t-32 -89.5t-13.5 -94t12.5 -80.5q13 -26 30.5 -27t35.5 12.5t36 37.5t32.5 49.5t25.5 48t15 32.5z" />
    <glyph glyph-name="one" unicode="1" horiz-adv-x="281" 
d="M260 122q8 0 8 -8t-8 -10q-30 -1 -61 -3l-62 -4q-2 -4 -6 -4.5t-6 1.5q-30 -2 -59 -4l-58 -4q-8 -2 -8 6.5t8 10.5q29 2 58 4.5t59 4.5q21 91 46 182t54 180q-38 -29 -77.5 -53t-81.5 -46q-4 -2 -7 -1t-4.5 4t-1 6t4.5 5q47 25 90.5 54t86.5 61q5 4 10.5 1t2.5 -11
q-29 -94 -55.5 -189t-50.5 -192q30 3 59 5.5t59 3.5z" />
    <glyph glyph-name="two" unicode="2" horiz-adv-x="298" 
d="M271 103q10 -2 10 -10.5t-10 -6.5q-66 6 -130 6.5t-131 -4.5q-5 0 -7.5 3.5t-2.5 7.5q7 44 30.5 76.5t53.5 60.5t63 54t61 57q8 9 19 21.5t21 27t16 30t5 29.5q-3 16 -17 24t-34 9.5t-44 -1.5t-46 -8t-40 -10.5t-27 -9.5q-8 -3 -12.5 4t4.5 11q16 7 42 14t54.5 11
t56.5 3.5t47.5 -8.5t27.5 -26t-2 -48q-13 -32 -34.5 -58.5t-47.5 -50t-54 -45.5t-52.5 -46t-43.5 -51.5t-27 -61.5q65 5 126.5 4t124.5 -8z" />
    <glyph glyph-name="three" unicode="3" horiz-adv-x="315" 
d="M295 282q13 -24 6.5 -51t-21.5 -50q-23 -36 -55.5 -57.5t-69.5 -29t-76 -1t-75 27.5q-7 4 -3.5 11t11.5 2q30 -16 62 -22.5t63.5 -3t60.5 18.5t52 41q16 18 28 42t7 47q-5 24 -22 36.5t-39.5 16.5t-46 1.5t-41.5 -6.5q-8 -2 -11 5t5 11q35 18 70 48t49 70q7 22 0 33.5
t-21 15.5t-31 2.5t-30 -5.5q-21 -7 -40 -17.5t-36 -27.5q-6 -5 -11.5 1t0.5 11q13 12 39 28t54.5 25t54 5t37.5 -31q9 -20 3 -41t-20 -40.5t-33.5 -37.5t-38.5 -31q34 4 67.5 -6t51.5 -41z" />
    <glyph glyph-name="four" unicode="4" horiz-adv-x="258" 
d="M238 520q2 7 10.5 5t7.5 -10q-14 -65 -25.5 -129.5t-22.5 -128.5h1q9 2 11.5 -6.5t-6.5 -10.5q-6 0 -10 -2q-5 -38 -11.5 -76.5t-11.5 -78.5q-1 -4 -4 -5t-6 -0.5t-5 3.5t-1 7q5 38 10.5 74.5t11.5 72.5q-35 -5 -71 -9.5t-72 -4.5q-12 0 -24.5 3t-16.5 16q-4 8 -1.5 16
t6.5 14q11 23 26.5 43.5t28.5 41.5q29 38 58 76.5t58 76.5q5 6 13.5 2.5t3.5 -11.5q-42 -54 -83 -107.5t-79 -110.5q-3 -5 -7 -12t-5 -13.5t1.5 -12t13.5 -6.5q7 -2 14.5 -1t15.5 2q31 2 61.5 6t62.5 11q10 66 22 132.5t25 132.5z" />
    <glyph glyph-name="five" unicode="5" horiz-adv-x="297" 
d="M283 289q3 -27 -5.5 -51t-23.5 -45t-35 -38.5t-41 -31.5q-20 -14 -43 -23t-46.5 -10.5t-45 6t-39.5 27.5q-5 6 1 12t11 0q23 -26 51.5 -28.5t57.5 8t55 30t45 38.5q21 23 34.5 54.5t4.5 64.5q-9 32 -35 46.5t-57 17.5q-27 3 -56 2.5t-55 -6.5q-13 -3 -30 -10.5t-28 0.5
q-11 10 -6.5 25t7.5 26q9 21 19 42t21 41q-2 4 0 8t7 4q49 5 96 8.5t96 6.5q8 0 8 -8t-8 -8q-46 -4 -91 -7.5t-90 -6.5q-20 -34 -35 -70q-2 -5 -7 -16t-5 -16q1 -8 4 -10.5t7 -2t9 2.5t9 4q26 8 54.5 9.5t55.5 -0.5q23 -1 45 -6.5t40 -16.5t30 -29t14 -43z" />
    <glyph glyph-name="six" unicode="6" horiz-adv-x="199" 
d="M178 237q10 -20 9 -43t-11 -44t-27.5 -38t-38.5 -25q-20 -7 -38 -3.5t-33 14t-25 26.5t-13 36q-4 22 -2 45t7.5 45.5t13.5 44.5t17 42q20 48 46 93t58 85q5 6 11 0t1 -12q-29 -36 -52 -75.5t-43 -83.5q-11 -24 -21 -50.5t-16 -55.5q18 13 39.5 24t43.5 14t41.5 -5.5
t32.5 -33.5zM167 173q6 22 0.5 45t-27.5 36q-14 8 -29.5 7.5t-30 -6.5t-28 -15.5t-24.5 -18.5q-4 -1 -6.5 -2t-4.5 1q-2 -12 -2 -23t1 -22q2 -20 10.5 -37.5t26.5 -28.5t36 -9t34 12.5t27.5 27t16.5 33.5z" />
    <glyph glyph-name="seven" unicode="7" horiz-adv-x="256" 
d="M253 507q4 0 6.5 -4t0.5 -8q-35 -48 -66 -95.5t-61 -97.5q13 1 26 1.5t26 1.5q8 0 8 -8t-8 -8q-15 -1 -31 -2.5t-32 -2.5q-29 -50 -55.5 -99t-51.5 -101q-3 -8 -10.5 -3.5t-3.5 12.5q23 48 48.5 95t52.5 94q-18 -2 -35.5 -4.5t-34.5 -5.5q-8 -1 -10 7.5t6 9.5
q20 4 41.5 6t43.5 4q28 49 59 97t64 95q-55 2 -108.5 -3t-108.5 -16q-4 -1 -6.5 1t-3 5t0.5 5.5t5 3.5q60 13 118.5 18t119.5 2z" />
    <glyph glyph-name="eight" unicode="8" horiz-adv-x="275" 
d="M211 501q27 0 40.5 -21t12.5 -46q-2 -26 -15 -49t-31.5 -42t-41 -35t-42.5 -28q-6 -5 -11 2t3 11q34 21 67.5 49.5t47.5 67.5q5 17 4.5 38t-17.5 31q-11 7 -25.5 5t-28.5 -8t-26.5 -15t-20.5 -16q-32 -28 -47 -62q-16 -33 -2 -60q4 5 7 8.5t8 7.5q6 6 11.5 -0.5
t0.5 -11.5q-5 -4 -9 -8.5t-9 -9.5q5 -5 9 -9.5t9 -9.5q25 -18 52.5 -34t41.5 -44q12 -25 7 -49.5t-21 -43.5q-15 -19 -39.5 -32t-51 -15.5t-49.5 8t-35 37.5q-9 24 -8 49.5t9.5 51t22.5 48.5t31 43q-18 24 -11 57q6 23 21.5 47t37.5 43.5t47 32t51 12.5zM180 141
q17 29 9.5 49.5t-26.5 38t-44 33.5t-43 35q-25 -30 -40.5 -65.5t-15.5 -73.5q0 -36 20 -52t46.5 -16.5t53 13.5t40.5 38z" />
    <glyph glyph-name="nine" unicode="9" horiz-adv-x="277" 
d="M245 508q2 6 9 5.5t7 -8.5q-2 -155 -70 -297q-13 -27 -31 -53t-41.5 -44t-51.5 -24t-61 8q-7 3 -3 11t11 5q37 -17 66.5 -4t52.5 40.5t39 61.5t27 60q19 46 29 94t15 97q-18 -34 -42.5 -62.5t-57.5 -47.5q-12 -8 -27.5 -14t-30.5 -6.5t-28 5.5t-20 23q-6 15 -2.5 31.5
t12 31.5t20 28t21.5 22t26 18.5t33.5 15t34 5t28.5 -10.5q6 -6 0 -12t-12 0q-9 8 -23.5 6t-30 -8.5t-29 -15t-20.5 -14.5q-8 -8 -17.5 -19t-17 -24t-10 -26.5t3.5 -25.5q9 -16 25.5 -16t34.5 8t34 20.5t24 21.5q26 23 44 52.5t29 61.5z" />
    <glyph glyph-name="colon" unicode=":" horiz-adv-x="105" 
d="M47 331q0 9 5.5 11t10 -0.5t6 -8t-6.5 -10.5q-4 -2 -9 0t-6 8zM32 254q0 8 8.5 8t8.5 -8v-3q0 -8 -8.5 -8t-8.5 8v3z" />
    <glyph glyph-name="semicolon" unicode=";" horiz-adv-x="157" 
d="M110 338q1 -4 -1.5 -7.5t-7.5 -3.5q-10 -2 -10 8q0 9 8 9q3 2 6.5 0.5t4.5 -6.5zM76 258q2 8 9.5 5.5t5.5 -9.5q-1 -19 -12 -34q-4 -8 -12 -3t-4 11q5 7 8 14t5 16z" />
    <glyph glyph-name="less" unicode="&#x3c;" horiz-adv-x="201" 
d="M159 400q8 5 12 -2.5t-3 -12.5q-33 -23 -65 -47t-64 -50q34 -17 66.5 -38t62.5 -45q3 -2 2.5 -5t-3 -5t-6 -3t-6.5 1q-32 26 -66 47t-71 38q-3 2 -3.5 7t2.5 7q35 29 70 55.5t72 52.5z" />
    <glyph glyph-name="equal" unicode="=" horiz-adv-x="276" 
d="M89 308q-9 0 -9 8t9 8q28 2 56 2.5t57 -0.5q7 0 7 -8.5t-7 -8.5q-29 2 -57 1zM72 259q-9 0 -9 8t9 8q28 2 56 2.5t57 -0.5q7 0 7 -8.5t-7 -8.5q-29 2 -57 1z" />
    <glyph glyph-name="greater" unicode="&#x3e;" horiz-adv-x="157" 
d="M129 305q3 -3 2.5 -8t-5.5 -7q-25 -23 -48.5 -46t-46.5 -48q-6 -5 -12 1t0 12q23 23 46 45.5t46 44.5q-23 26 -48 51t-53 48q-6 5 0 10t12 0q29 -23 55.5 -48.5t51.5 -54.5z" />
    <glyph glyph-name="question" unicode="?" horiz-adv-x="292" 
d="M200 600q19 -2 35 -8.5t27 -17t16 -25t1 -32.5q-4 -21 -16 -39.5t-28.5 -35.5t-35.5 -32t-35 -28q-20 -17 -39.5 -34t-35.5 -36.5t-27.5 -41.5t-15.5 -47q-1 -4 -4 -5t-6 0t-5 3.5t-1 5.5q6 34 23.5 61.5t41 51.5t50.5 45.5t52 44.5q16 13 34.5 35.5t27.5 45.5t1 43
t-45 29q-42 11 -84 -3.5t-73 -42.5q-5 -5 -10.5 0.5t-0.5 10.5q31 29 70.5 43t82.5 9zM26 158q0 7 8 7t8 -7v-3q0 -8 -8 -8t-8 8v3z" />
    <glyph glyph-name="at" unicode="@" horiz-adv-x="313" 
d="M200 268q-11 15 -8 36q-14 -14 -30.5 -27.5t-32.5 -20t-29.5 -3.5t-21.5 23q-7 17 5 35.5t32 31.5t42 17.5t36 -6.5q5 -5 1 -13q-4 -7 -11.5 -5.5t-5.5 9.5q-15 -1 -36 -10.5t-33 -20.5q-5 -5 -9 -12.5t-5 -14.5t3 -12t16 -4t29.5 13.5t26.5 20.5q12 9 21 20t17 24
q5 7 11.5 3t2.5 -11q-5 -13 -11.5 -31t3.5 -31q7 -8 20 -8t22 5q8 4 12 10.5t8 12.5q14 28 5 58.5t-37 45.5q-21 11 -47.5 12t-53.5 -5.5t-51 -19.5t-40 -29q-19 -18 -28.5 -42.5t-9 -49t13 -46.5t38.5 -35q22 -11 47.5 -12.5t50.5 3.5t48.5 15.5t43.5 23.5q8 5 12 -2
t-4 -12q-25 -16 -58 -29t-67.5 -16t-66 6.5t-52.5 37.5q-25 33 -25.5 66.5t16 63t46.5 53t64.5 36t70 12t64.5 -18.5q21 -12 32.5 -33t12.5 -44t-8.5 -44.5t-30.5 -34.5q-16 -11 -33 -9.5t-28 18.5z" />
    <glyph glyph-name="A" unicode="A" 
d="M523 764q5 5 11 2.5t6 -8.5q-14 -82 -30 -162.5t-31.5 -160.5t-29 -159.5t-23.5 -160.5q-2 -8 -8 -10.5t-8 4.5q-14 30 -32.5 60t-41 57.5t-49.5 50.5t-58 38q-42 -66 -79 -133t-69 -136q-5 -7 -12 -3t-4 12q33 69 70.5 134.5t79.5 131.5q-31 14 -64 17q-21 1 -46.5 -4.5
t-46.5 -17.5t-33 -31.5t-5 -47.5q5 -17 15.5 -32.5t23.5 -27.5q7 -6 1 -12.5t-13 0.5q-14 13 -26.5 29.5t-17.5 35.5q-7 25 0 46t23.5 37t39 26t45.5 14q30 5 58.5 0.5t55.5 -15.5q72 110 147.5 214.5t150.5 211.5zM412 141q20 149 50 292.5t55 289.5q-70 -96 -140.5 -194
t-136.5 -201q28 -15 52.5 -35.5t46.5 -45.5t40 -52t33 -54z" />
    <glyph glyph-name="B" unicode="B" horiz-adv-x="506" 
d="M465 418q23 -28 21 -60.5t-17.5 -64.5t-39.5 -60t-45 -47q-52 -47 -117.5 -75t-135.5 -33q-14 -2 -30.5 -2.5t-33 2t-30.5 9t-23 19.5q-15 20 -13 45.5t18 44.5q14 17 33.5 25.5t40.5 8.5q5 19 11 38.5t12 38.5q12 42 24.5 83t25.5 81q14 49 28.5 96t26.5 96q2 10 4.5 18
t4.5 17q1 4 3.5 12t5 16.5t3 16t-1.5 11.5q-7 9 -19.5 4t-25.5 -15.5t-24 -22.5t-16 -19q-5 -5 -12 -1.5t-2 10.5t19 22t31 28t33.5 18.5t27.5 -6.5q9 -10 5 -29t-6 -33q-6 -29 -14 -57.5t-17 -55.5q-11 -41 -23 -80.5t-25 -79.5q27 57 58.5 111t70.5 104q12 14 27.5 31.5
t33.5 31.5t38.5 21t42.5 1q28 -8 36.5 -27t4.5 -41.5t-16 -45t-24 -37.5q-31 -40 -70 -76.5t-83 -66.5q24 6 49 9t48 1t43 -10.5t34 -24.5zM317 156q24 16 55.5 43t56.5 59.5t36 67.5t-6 68q-15 29 -47 37t-69 4.5t-72 -15.5t-57 -23q-7 -3 -11.5 3.5t3.5 10.5
q65 34 124.5 83.5t104.5 107.5q7 9 15 21t13.5 25t6.5 26.5t-5 25.5q-10 17 -26.5 21.5t-34.5 -2.5q-23 -8 -43 -25t-37 -38t-31.5 -43.5t-26.5 -41.5q-36 -56 -66 -115.5t-54 -121.5q-7 -18 -14.5 -37.5t-13.5 -39.5q-5 -16 -8 -28q35 -5 69.5 -23t57.5 -39q6 -5 0 -11
t-13 0q-23 20 -54.5 36.5t-63.5 18.5q-5 -23 -7.5 -45t-2.5 -45q1 -9 -7.5 -9t-8.5 9q-3 5 0 12q-2 1 -2 4q0 38 10 74q-19 -1 -36 -9t-26 -25q-15 -26 -3.5 -49.5t40.5 -31.5q30 -8 64 -5.5t68 11.5t65 23t57 31z" />
    <glyph glyph-name="C" unicode="C" horiz-adv-x="385" 
d="M338 517q-6 -5 -12 0.5t-1 11.5q27 31 47.5 67.5t27.5 78.5q1 12 1 26t-4 27.5t-11.5 23.5t-21.5 14t-28.5 2.5t-28.5 -6.5t-27.5 -13t-23.5 -15q-51 -39 -88 -93t-65 -111q-30 -64 -52 -131.5t-30 -137.5q-2 -21 -3 -47.5t2.5 -52t13.5 -47.5t30 -36t43.5 -15.5
t46.5 3.5q33 8 60 25.5t50 40.5t42.5 50t36.5 54q4 7 11 3.5t3 -11.5q-18 -30 -39 -59t-46.5 -54t-55.5 -42.5t-67 -24.5q-28 -5 -55 -0.5t-49 23.5q-22 20 -32 47.5t-12 58t1 61.5t7 57q14 80 43.5 158t69.5 148q17 27 37 55t44 53t52 44t60 27q34 10 61 -1t38 -44
q9 -29 4.5 -59t-16.5 -58.5t-29 -54t-35 -46.5z" />
    <glyph glyph-name="D" unicode="D" horiz-adv-x="620" 
d="M536 718q45 -29 67.5 -76.5t22.5 -99.5q1 -60 -19 -119t-53.5 -113t-77 -100.5t-89.5 -80.5q-48 -34 -103.5 -60.5t-115.5 -34.5q-23 -3 -49 -1.5t-50 9.5t-42.5 24.5t-25.5 42.5q-5 20 0 40t17.5 36t30 27.5t37.5 15.5q7 1 13 1.5t11 0.5q14 80 33 157.5t41 155.5
q12 46 25 92.5t21 94.5q2 10 1.5 21.5t-4.5 20.5t-12.5 14t-23.5 2q-39 -11 -70 -43.5t-53 -66.5q-5 -8 -12.5 -3.5t-2.5 11.5q9 14 27 36.5t40.5 43t46.5 33.5t45 8q24 -5 31 -23.5t5.5 -41t-7.5 -45t-9 -37.5l-28 -108l-28 -108q15 35 31 71t36 70t45.5 64.5t58.5 56.5
q42 29 92 35.5t97 -23.5zM145 49q49 2 97.5 19.5t92.5 45t83 62t69 71.5q31 39 60.5 88.5t47 102.5t16.5 107t-29 101q-14 23 -33.5 40.5t-42.5 27.5t-48.5 11.5t-51.5 -7.5q-45 -15 -80.5 -50.5t-60.5 -76.5q-39 -64 -68.5 -137.5t-51.5 -146.5q-1 -1 -1 -1.5t-2 -2.5
q-4 -18 -7.5 -36.5t-7.5 -37.5q40 -4 74.5 -25.5t60.5 -50.5q3 -3 3 -6.5t-2.5 -5.5t-5.5 -2.5t-5 2.5q-24 24 -57.5 46t-70.5 27q-4 -19 -6.5 -39t-4.5 -40q-2 -8 -11 -8t-7 8l6 40t7 39q-20 0 -41 -9q-16 -8 -28.5 -21.5t-18 -30t-3.5 -34t15 -32.5q20 -24 51.5 -31.5
t61.5 -6.5z" />
    <glyph glyph-name="E" unicode="E" horiz-adv-x="573" 
d="M517 787q17 0 44 -1.5t56.5 -6t57 -13t46 -23t23.5 -35.5t-11 -51q-4 -8 -11.5 -4t-3.5 11q16 29 6 48.5t-35.5 31.5t-61 17t-70.5 6.5t-65 0t-44 -2.5q-23 -2 -45.5 -5t-43.5 -7q-24 -80 -47.5 -158.5t-51.5 -156.5q117 12 237 6q8 -1 8 -9.5t-8 -8.5q-61 4 -121.5 2
t-123.5 -7q-8 -27 -18.5 -53.5t-22.5 -52.5q-17 -40 -35 -80t-41 -76q26 -5 51 -17t52 -27q32 -17 65.5 -23t67.5 -4t68.5 9.5t68.5 17.5q7 3 9.5 -5t-5.5 -10q-29 -9 -60.5 -17t-63 -11t-63 -0.5t-61.5 13.5t-56 29t-57 27l-12 2t-11 1q-5 -6 -8 -11t-8 -10
q-14 -20 -33.5 -38.5t-45.5 -18.5q-11 -1 -21.5 3t-12.5 15q-3 11 3 21.5t16 19t22 15t20 9.5q15 7 29.5 9t28.5 2q15 25 27 51t24 50q18 39 34 77.5t31 79.5q-25 -3 -49.5 -6.5t-50.5 -8.5q-4 -1 -6.5 1t-3.5 5t0 6t5 4q28 5 55.5 9t56.5 7q28 78 51.5 156t47.5 157
q-53 -12 -103 -30.5t-98 -41.5q-8 -5 -12.5 2.5t3.5 11.5q91 45 189 70t198 27zM78 106q8 8 15 17.5t15 20.5q-8 -2 -15 -3t-15 -5q-7 -2 -16.5 -5.5t-18.5 -8.5t-16 -11.5t-10 -13.5q-5 -13 3 -14.5t20 2.5t23.5 11t14.5 10z" />
    <glyph glyph-name="F" unicode="F" horiz-adv-x="425" 
d="M646 800q8 0 6.5 -9t-9.5 -9q-98 -1 -195 -10t-196 -29q-27 -66 -53 -132t-51 -133q76 9 150 15t149 8q8 0 6.5 -7.5t-9.5 -7.5q-75 -3 -150.5 -9t-151.5 -17q-6 -18 -13.5 -37.5t-12.5 -39.5q7 -67 2 -133t-19 -117q-14 -48 -31 -69t-31 -19t-20.5 25t1.5 64q6 30 16 62
t21 64t23 63t21 59q-3 20 -10 37t-21 28q-1 0 -1 1l-1 1q-13 -2 -25.5 -4t-24.5 -5q-5 -1 -7 1.5t-2.5 5.5t1 6t5.5 3q31 6 60 10.5t58 8.5q24 67 49 133t53 132q-36 -8 -71 -16t-70 -17q-8 -2 -9 6t7 10q38 10 75.5 19t75.5 15q3 11 7 20q4 8 11.5 5.5t4.5 -10.5
q-4 -5 -5 -11q97 18 193.5 28t193.5 11zM35 135q-7 -33 -4.5 -50.5t10 -18.5t18 15.5t21.5 51.5q12 43 17.5 76.5t6.5 59t0 44t-1 32.5q-7 -21 -16.5 -46.5t-19 -53t-18 -55.5t-14.5 -55zM110 415q3 11 7 21.5t9 21.5q-11 -2 -20 -3t-18 -3q14 -14 22 -37z" />
    <glyph glyph-name="G" unicode="G" horiz-adv-x="493" 
d="M465 349q8 2 10.5 -6t-5.5 -11q-14 -5 -28.5 -9.5t-28.5 -9.5v-4q-34 -120 -51 -242q-2 -9 -10 -7t-7 10q8 55 19 108.5t25 107.5q-19 -31 -46 -69.5t-58.5 -74t-66 -61.5t-68.5 -32q-28 -5 -55 -0.5t-48 24.5q-22 20 -32 47.5t-12.5 58t0.5 61t8 56.5q14 80 42.5 158
t71.5 148q16 27 35.5 55t43 53t51.5 44.5t61 27.5q32 8 58.5 -2t37.5 -45q8 -29 4 -58.5t-16 -58t-29 -54t-35 -46.5q-5 -6 -10.5 0t-0.5 13q27 31 47 67t26 78q2 12 2 26t-3.5 27.5t-11.5 24t-22 15.5q-40 9 -77.5 -13t-71 -59.5t-61.5 -82.5t-49 -83q-29 -64 -50.5 -131.5
t-29.5 -136.5q-4 -34 -2.5 -73.5t15 -70.5t41.5 -47.5t77 -4.5q31 7 63 33.5t61.5 61t54.5 71.5t43 66q-29 -11 -57.5 -21t-57.5 -21q-8 -2 -10 5.5t6 10.5q51 20 102.5 38t104.5 38z" />
    <glyph glyph-name="H" unicode="H" horiz-adv-x="554" 
d="M585 788q2 8 10.5 6t6.5 -11q-47 -179 -88 -355t-88 -355q-1 -5 -3.5 -6t-5.5 0t-5 4t-1 7q19 76 37.5 152t37.5 152q-60 2 -120 -4.5t-120 -25.5q-7 -2 -14 -4.5t-13 -4.5q-4 -15 -8.5 -29.5t-9.5 -30.5q-8 -22 -19.5 -58.5t-29 -70t-42.5 -57t-59 -19.5
q-26 3 -35.5 19.5t-8.5 38t9 44t18 38.5q28 51 73 84.5t99 55.5q5 14 9 27.5t7 27.5q21 78 40.5 156.5t44.5 156.5q2 8 9.5 5.5t6.5 -11.5q-28 -88 -50 -177t-48 -178q66 23 135 29.5t130 4.5q23 98 46.5 195t48.5 194zM175 260q14 39 24 76q-44 -19 -83.5 -48t-66.5 -71
q-6 -11 -12.5 -24t-10.5 -26.5t-4.5 -27t5.5 -25.5q11 -21 33.5 -18.5t39.5 17.5q32 28 47 68.5t28 78.5z" />
    <glyph glyph-name="I" unicode="I" horiz-adv-x="457" 
d="M531 748q5 -5 1.5 -9t-8.5 -5q-27 0 -38.5 -0.5t-19.5 -0.5t-19 0.5t-38 0.5q-32 -46 -58 -103t-47.5 -119t-38.5 -124t-29.5 -116.5t-21 -98.5t-13.5 -69q29 1 46.5 2t32.5 2t33 2t48 1q8 -1 8 -9.5t-8 -8.5q-30 0 -48.5 -0.5t-34 -0.5t-33 -1t-47.5 -3q-5 -6 -10 -1
q-54 -3 -105 -6.5t-104 -8.5q-4 -1 -7 1.5t-3.5 5.5t0.5 6t6 3q53 5 104.5 9t103.5 7q11 54 26.5 128.5t39 159t56.5 173t80 169.5q-66 2 -132 -1t-132 1q-8 1 -8 10t8 8q70 -5 141 -2.5t141 0.5q15 12 29 22t29 12.5t32 -5t38 -31.5zM504 750q-12 14 -23 17t-20 0.5t-17 -8
t-14 -8.5q22 0 28 -0.5t8.5 -0.5h8.5h29z" />
    <glyph glyph-name="J" unicode="J" horiz-adv-x="333" 
d="M10 697q-7 -5 -11 3t3 14q83 59 186 76q46 6 81.5 0t57.5 -26.5t30 -56.5t0 -89q-8 -48 -22 -95t-31 -92q-17 -47 -37.5 -90.5t-43.5 -85.5q-23 -41 -48.5 -82.5t-60.5 -72.5q-10 -8 -21.5 -15.5t-23.5 -11t-24 -0.5t-21 17q-9 13 -11.5 29t-1 33.5t5.5 34t9 30.5
q15 43 38 80.5t51.5 71t60.5 63.5t65 58q6 4 11.5 -2t0.5 -10q-35 -29 -69 -60.5t-63 -67.5t-51.5 -76.5t-34.5 -86.5q-3 -10 -5.5 -23.5t-2.5 -27t4 -25.5t14 -19t23.5 -2t26 15.5t23 22t15.5 18.5q31 38 56 82.5t48 89.5q18 37 37 81.5t34.5 91.5t25.5 95t11 93
q-3 44 -23.5 66.5t-51.5 29.5t-68 1t-73 -18.5t-68 -29.5t-51 -31z" />
    <glyph glyph-name="K" unicode="K" horiz-adv-x="398" 
d="M550 793q7 5 11 -2t-4 -12q-125 -66 -222.5 -163t-169.5 -216q23 -51 50.5 -97t62.5 -90q19 -24 42 -49.5t50 -43.5t58.5 -26t66.5 3q8 3 10 -4.5t-5 -10.5q-35 -11 -66 -5.5t-58.5 21t-51.5 39t-44 47.5q-39 46 -70 95t-55 103q-28 -46 -51 -94t-42 -98l-45 -141
q-3 -8 -11 -6t-5 11q9 35 20 71t25 71q23 72 46 142.5t46 142.5q17 52 35.5 104t32.5 106q5 19 4 34t-8.5 24.5t-21.5 12.5t-36 -3q-27 -8 -52 -24.5t-45 -34.5q-5 -6 -11.5 0t0.5 11q13 13 34 28t44.5 25.5t47.5 13.5t43 -8q20 -12 23.5 -33.5t-1 -45.5t-13.5 -46.5
t-14 -37.5q-14 -44 -29.5 -87.5t-29.5 -86.5q7 4 13 -4q1 -3 1.5 -5t1.5 -5q73 117 171 213t222 161zM109 335q8 17 17.5 33t19.5 33q-2 6 -4.5 11t-4.5 11l-14 -44z" />
    <glyph glyph-name="L" unicode="L" horiz-adv-x="455" 
d="M467 79q4 -1 6 -4t2 -6t-2 -5.5t-6 -1.5q-85 11 -168 10.5t-167 -11.5q-2 -8 -3.5 -16t-3.5 -17q-1 -4 -4 -5.5t-6 -0.5t-5 4t-1 7q2 7 2.5 13t2.5 12q-54 -8 -104 -18q-8 -2 -10 6t6 10q28 6 55.5 11t56.5 9q35 166 87 326q13 37 25.5 73t26.5 71q-19 -14 -38 -27
t-38 -27q-7 -5 -11 2t2 12q25 18 50 35.5t48 34.5q15 34 30 66q6 14 16.5 37t23.5 45.5t29 40t33 21.5q15 3 26 -6t13 -26q2 -22 -15 -49t-42 -53t-53 -49t-47 -38q-51 -118 -86.5 -239.5t-62.5 -246.5q167 21 332 0zM311 626q-4 -7 -6.5 -13.5t-6.5 -14.5q15 12 33 27.5
t35 33t31 36t22 37.5q3 7 3 14.5t-3 13.5t-9.5 7.5t-15.5 -3.5q-11 -6 -23 -23.5t-23 -38.5t-21 -42t-16 -34z" />
    <glyph glyph-name="M" unicode="M" horiz-adv-x="838" 
d="M834 783q9 -3 14 -11t6.5 -17.5t1.5 -19.5t-1 -18q-2 -46 -10.5 -91t-20 -90t-24 -89.5t-22.5 -88.5q-12 -50 -23 -97.5t-21 -98.5q-5 -32 -9.5 -67.5t5.5 -67.5q3 -8 -5.5 -10t-11.5 6q-4 12 -4.5 24t-0.5 26q0 44 7 89t17 89t22 88t22 86q13 48 24.5 95.5t23.5 95.5
q6 30 12.5 65t1.5 67q-2 13 -8 16.5t-13.5 1t-15.5 -9t-14 -12.5q-35 -38 -61 -86t-52 -92q-35 -57 -69.5 -114t-72.5 -114q-4 -5 -9 -13t-11 -15t-13 -12t-14 -4q-12 0 -17.5 7t-8.5 17q-4 17 -1.5 35t5.5 35q3 28 9 54t13 53q6 24 14 49.5t14.5 52.5t10.5 54t2 53
q-2 19 -9.5 23t-17.5 -1t-22.5 -17t-23.5 -25.5t-20 -26t-13 -18.5q-29 -44 -53.5 -90.5t-47.5 -94.5q-47 -91 -92.5 -181.5t-85.5 -184.5q-2 -5 -7 -12t-10.5 -11.5t-10.5 -3t-6 13.5q-2 11 1.5 24t7.5 22q5 23 11 44.5t12 43.5q33 112 60 228q11 44 18.5 87.5t5.5 86.5
q-2 15 -6 26t-23 8t-36 -17t-29 -25q-31 -28 -58.5 -58.5t-54.5 -60.5q-5 -6 -11 0t1 13q25 31 52 60.5t58 55.5q8 7 19.5 17.5t25 19t28 12.5t28.5 -2q14 -7 17.5 -20.5t5.5 -28.5q2 -42 -5.5 -83t-15.5 -82q-13 -60 -29.5 -118.5t-34.5 -116.5q-5 -22 -11 -44.5t-11 -47.5
q-2 -5 -3 -9.5t-3 -11.5q3 5 4.5 9.5t3.5 9.5q9 17 17 36.5t19 39.5q51 105 102 210.5t108 205.5q20 34 41.5 66.5t51.5 55.5q10 8 24 14.5t28 -1.5q8 -6 12 -16t5 -21.5t-0.5 -23.5t-2.5 -21q-6 -51 -20 -100.5t-25 -100.5q-6 -26 -11.5 -52.5t-7.5 -52.5q-1 -8 -1 -18.5
t2.5 -17.5t8 -7t15.5 13q38 48 70 100.5t63 106.5t62.5 107t69.5 102q4 6 12 14.5t17 15t19 10.5t20 1z" />
    <glyph glyph-name="N" unicode="N" horiz-adv-x="634" 
d="M656 719q6 -42 -2.5 -80t-19.5 -75q-11 -39 -21.5 -78.5t-21.5 -78.5q-11 -42 -22 -84.5t-19.5 -85t-14 -85.5t-3.5 -86q1 -4 -1.5 -6t-6 -2t-6.5 2t-4 6q-2 45 3.5 90.5t15 89.5t21.5 88t23 86q11 41 22.5 80t22.5 81q6 18 12 40.5t8.5 46t0 46t-14.5 40.5
q-13 19 -30.5 19t-36 -11t-37 -30t-34 -39.5t-28 -38.5t-17.5 -27q-42 -61 -79 -125t-74 -129q-31 -58 -61.5 -115t-62.5 -116q-3 -5 -10 -19.5t-16 -29.5t-19 -26.5t-20 -9.5q-12 2 -14 18.5t0.5 36.5t6.5 38.5t5 25.5q15 67 33 132t38 131q8 31 16.5 59.5t16.5 57.5
q8 22 15 44.5t5 44.5q-1 15 -7.5 19t-15 1t-17.5 -10.5t-15 -13.5q-15 -13 -27.5 -26.5t-23.5 -27.5q-29 -35 -53.5 -73.5t-45.5 -78.5q-5 -6 -12.5 -2t-4.5 10q25 45 52 85t58 77q7 9 19.5 25t28 30t32.5 22.5t32 1.5q10 -5 14 -15t4.5 -21.5t-1.5 -23t-5 -19.5
q-6 -28 -14.5 -56t-17.5 -54q-20 -71 -40.5 -141.5t-37.5 -142.5q-6 -25 -11.5 -53.5t-7.5 -55.5q0 -6 -1 -12t1 -13q2 2 2.5 3.5t2.5 3.5q66 109 124.5 222.5t126.5 223.5q33 57 69.5 113.5t82.5 104.5q19 16 43 31.5t50 9.5q12 -3 20.5 -10.5t14 -17.5t8.5 -21t4 -21z" />
    <glyph glyph-name="O" unicode="O" horiz-adv-x="470" 
d="M468 618q6 -61 -3 -123t-29.5 -122t-51 -114.5t-69.5 -100.5q-18 -21 -40 -41t-47 -34t-52 -21.5t-57 -2.5q-53 9 -82.5 49.5t-34.5 92.5q-6 69 15.5 137.5t63.5 126.5q-5 36 0 74t18.5 74t35 68.5t49.5 56.5q18 16 40.5 29.5t47 20.5t50.5 6.5t51 -11.5q24 -11 41 -29
t28 -40.5t17.5 -47t8.5 -48.5zM341 220q28 41 50.5 88.5t37.5 98t21 102.5t2 102q-3 26 -9.5 52.5t-18.5 49t-31.5 39t-47.5 22.5q-26 6 -51.5 1t-49 -16.5t-44 -28t-36.5 -34.5q-35 -43 -52.5 -99.5t-14.5 -110.5q26 32 55.5 58t64.5 45q7 5 11 -2t-2 -11
q-37 -21 -68.5 -50.5t-58.5 -64.5q8 -42 29.5 -77.5t59.5 -61.5q8 -5 3.5 -11.5t-12.5 -3.5q-38 26 -60.5 60t-31.5 74q-38 -55 -56 -116t-12 -124q3 -31 16 -57t34 -43t48 -23.5t58 1.5q27 7 50.5 22t44 34t38.5 41t33 44z" />
    <glyph glyph-name="P" unicode="P" horiz-adv-x="564" 
d="M494 731q39 -23 61 -56.5t28 -72t-2.5 -79t-30.5 -77.5q-23 -41 -56.5 -75.5t-73 -63t-82.5 -51t-86 -38.5q-32 -13 -66 -23.5t-71 -12.5q-5 -30 -9.5 -60t-8.5 -59q-1 -4 -4 -5t-6 0t-5 3.5t-1 7.5q5 29 8 56t8 57h-15.5t-15.5 2q-15 3 -28.5 9t-22.5 16t-12.5 23
t2.5 29q6 18 20 32.5t31 25.5t35.5 19.5t35.5 15.5q20 105 41 206.5t46 204.5q-39 -4 -76 -12t-74 -22q-10 -3 -12.5 5.5t4.5 11.5q40 13 79.5 22.5t80.5 14.5q2 5 8 5t9 -5q69 5 136.5 -7.5t124.5 -46.5zM49 205q14 -5 26.5 -6.5t26.5 -1.5q5 35 11 68.5t12 68.5
q-15 -6 -30.5 -13.5t-28.5 -17.5q-11 -7 -21 -14.5t-16 -16.5q-13 -20 -7.5 -39.5t27.5 -27.5zM361 292q32 20 64.5 44.5t60.5 53.5t49 63t30 73q9 43 0.5 84.5t-38.5 73.5q-25 28 -61 43.5t-72 24.5q-41 10 -81.5 13.5t-81.5 1.5q-23 -103 -44 -203.5t-40 -203.5
q43 14 87 18t88 -1q4 -1 6 -4t2 -6t-2 -5.5t-6 -1.5q-44 5 -87 1t-86 -18q-2 0 -3.5 -1t-3.5 -1q-7 -35 -12.5 -71.5t-10.5 -72.5q24 3 49 9t48 16q39 13 75 30t70 40z" />
    <glyph glyph-name="Q" unicode="Q" horiz-adv-x="458" 
d="M227 94q17 -16 35.5 -32t35.5 -32q7 -5 1 -10.5t-12 -0.5q-20 17 -39 32.5t-36 34.5q-23 -13 -47 -18.5t-51 -1.5q-54 10 -82 50.5t-33 94.5q-5 66 16.5 133t63.5 125q-6 36 -2 73t17 72.5t34 67.5t48 56q18 16 40.5 29.5t47 20.5t50 6.5t50.5 -11.5q23 -11 39 -29
t26.5 -40t16.5 -46.5t8 -47.5q6 -60 -2.5 -123t-29.5 -123.5t-52.5 -116t-71.5 -101.5q-14 -18 -33 -33.5t-38 -28.5zM159 84q20 3 40 12q-17 16 -35 30.5t-35 31.5q-3 2 -2.5 5.5t2.5 5.5t5.5 2.5t6.5 -2.5q19 -17 37.5 -33t35.5 -32q34 21 61 52.5t50 61.5q28 41 50.5 88
t37.5 96.5t22 101t5 101.5q-2 24 -7.5 50t-17 49t-29.5 41.5t-45 26.5q-25 8 -50.5 4t-49.5 -15t-45 -28t-37 -35q-35 -43 -53 -98.5t-13 -111.5q49 64 117 103q6 4 10.5 -2.5t-2.5 -10.5q-71 -42 -123 -113q6 -42 27.5 -77.5t59.5 -61.5q7 -5 2.5 -11.5t-10.5 -2.5
q-38 25 -60 59t-31 75q-35 -54 -52.5 -114.5t-14.5 -120.5q2 -29 13.5 -54.5t30 -43.5t44 -26.5t55.5 -2.5z" />
    <glyph glyph-name="R" unicode="R" horiz-adv-x="642" 
d="M509 744q46 -19 84 -49t60.5 -69t24.5 -85t-24 -95q-23 -46 -59 -84.5t-79.5 -69.5t-92 -54.5t-96.5 -38.5q45 -26 86.5 -55t83.5 -58q6 -5 2 -13t-10 -2q-43 30 -88.5 62t-95.5 60q-3 -2 -6.5 -2t-6.5 -2q-40 -11 -84 -17t-88 2q-7 -38 -12 -73.5t-11 -70.5
q0 -4 -2.5 -5.5t-5.5 -1t-5.5 3.5t-1.5 7q5 36 10.5 71t10.5 71q-20 3 -39 13q-13 5 -25.5 13.5t-8.5 26.5q3 14 16.5 21.5t26.5 10.5q12 3 23 4.5t24 -0.5q20 122 45.5 241.5t54.5 239.5q3 8 10.5 6t5.5 -10q-29 -118 -53.5 -237t-45.5 -240q37 -6 75 -18.5t70 -26.5
q6 -4 11 -6t12 -5q29 8 56 19t53 23q40 20 84 49.5t81 66.5t60.5 81t22.5 94t-27 87t-65 63.5t-84.5 43t-85.5 24.5q-104 22 -206 8.5t-196 -58.5q-6 -3 -10.5 4.5t2.5 10.5q60 28 125.5 45t132 20t133 -8t128.5 -38zM82 199q5 -2 12 -3t13 -3q2 12 4 26l4 28h-24
q-7 -2 -20.5 -4t-18.5 -10t-2.5 -14t8 -10t12.5 -6.5t12 -3.5zM234 193q13 3 24.5 5t25.5 5q-38 18 -75.5 29.5t-75.5 14.5q-2 -14 -4.5 -29t-5.5 -29h12q26 -4 51 -1.5t48 5.5z" />
    <glyph glyph-name="S" unicode="S" horiz-adv-x="548" 
d="M456 708q-4 -1 -7 1t-4 5t0 5.5t5 3.5q10 2 17 11.5t4 17.5q-4 11 -17.5 13t-29 -0.5t-30 -7t-20.5 -5.5q-33 -9 -75 -31t-76.5 -49.5t-53.5 -56.5t-5 -53q25 -38 65 -57t85 -34t90 -33t80 -54q21 -23 26 -48t-2.5 -51t-24 -51.5t-37 -48t-42.5 -40.5t-40 -30
q-45 -29 -96 -48.5t-106 -25.5q-20 -3 -43.5 -3.5t-46 4.5t-41 17t-27.5 35t-3.5 43.5t19.5 37.5t32 31t35 25q49 29 102 45.5t110 21.5q4 1 5.5 -1.5t1.5 -5.5t-1.5 -5.5t-5.5 -3.5q-80 -6 -149 -39q-10 -4 -26.5 -12.5t-34.5 -19.5t-34.5 -25t-26.5 -29.5t-11.5 -32
t10.5 -32.5q7 -10 18.5 -17t24.5 -12t27 -7.5t26 -2.5q34 2 69 8.5t67 20.5q60 20 114 58t90 93q13 20 20.5 41t7.5 42t-9 40t-30 34q-18 14 -44.5 26t-57 23.5t-62.5 23.5t-59.5 26t-49 30.5t-31.5 38.5q-12 27 -1.5 53t35 50.5t58 46t68 37t65.5 25.5t49 11q9 1 20.5 0.5
t22 -3.5t17.5 -10t7 -20q2 -13 -9 -25.5t-24 -14.5z" />
    <glyph glyph-name="T" unicode="T" horiz-adv-x="406" 
d="M828 779q8 4 12 -3.5t-3 -11.5q-49 -26 -101.5 -41.5t-106.5 -22.5t-109.5 -7.5t-109.5 4.5l-24 2t-24 3q-40 -162 -72.5 -324t-52.5 -328q-1 -8 -9.5 -8t-7.5 8q21 167 53 329.5t71 324.5q-26 3 -67 9.5t-84.5 11t-84 3.5t-64.5 -13q-23 -12 -28 -28.5t1.5 -34.5
t20 -34.5t26.5 -26.5q3 -3 3 -6t-2.5 -5.5t-6 -3t-6.5 2.5q-15 12 -29.5 30.5t-21 38.5t-2.5 39.5t25 35.5q21 15 51 19.5t63.5 3t67.5 -6.5t62 -9q20 -2 40 -4.5t41 -4.5q0 2 0.5 3.5t0.5 3.5q2 7 10.5 5t6.5 -10q0 -1 -0.5 -2t-0.5 -2q59 -6 118 -8t117.5 3.5t115.5 20.5
t111 44z" />
    <glyph glyph-name="U" unicode="U" horiz-adv-x="518" 
d="M547 823q7 -4 5 -10q-31 -93 -56.5 -185.5t-42.5 -189.5q-17 -93 -25.5 -188t5.5 -189q1 -8 -7 -10.5t-9 5.5q-14 91 -7 182t22 182q14 80 33.5 158t43.5 156q-39 -72 -78 -141.5t-81 -138.5q-22 -36 -45 -72.5t-48.5 -71t-54.5 -66.5t-63 -58q-11 -9 -23.5 -16
t-26.5 -10t-28.5 -1.5t-27.5 10.5q-14 9 -20.5 24t-9 31.5t-2.5 33.5v31q1 98 24.5 191.5t51.5 186.5q3 8 11 5.5t6 -10.5q-24 -79 -46 -158.5t-28 -163.5q-2 -18 -4 -46t2 -55t16.5 -46t39.5 -18q19 0 37.5 10t34.5 25t30 31.5t25 30.5q52 59 93.5 125.5t80.5 133.5
q42 72 82 144l80 144q3 6 10 4z" />
    <glyph glyph-name="V" unicode="V" horiz-adv-x="556" 
d="M648 791q2 3 5.5 3.5t6.5 -1t4 -4.5t-1 -6q-59 -94 -106.5 -191.5t-95.5 -196.5q-13 -26 -31 -63t-38.5 -76t-43.5 -77t-46.5 -66.5t-46.5 -44t-44 -9.5q-17 6 -27.5 22t-17 39.5t-9.5 52t-4 60.5q-2 79 6 157.5t17 158.5q7 57 7 100t-16.5 56.5t-53.5 -11.5t-105 -103
q-5 -6 -11 0t-1 12q31 32 62.5 65.5t70.5 53.5q30 16 46 4t22 -40t4 -66t-6 -75q-10 -77 -18.5 -155t-4.5 -160q0 -12 2.5 -42t10 -58.5t21.5 -45t38 -1.5q30 19 60.5 61t58 91t50 97t37.5 78q47 97 93.5 193.5t104.5 187.5z" />
    <glyph glyph-name="W" unicode="W" horiz-adv-x="691" 
d="M744 790q2 7 10.5 5t5.5 -9q-28 -92 -56.5 -182.5t-63.5 -180.5q-33 -83 -71 -166q-17 -35 -36 -70t-46 -64q-10 -11 -22.5 -21.5t-26.5 -17t-28.5 -8t-28.5 7.5q-22 14 -33.5 42.5t-16 64.5t-3 77t5.5 79.5t8.5 71t6.5 52.5q-20 -36 -43 -70t-48 -65q-9 -11 -23.5 -28
t-31.5 -30.5t-36 -20t-38 2.5q-10 5 -15.5 14t-8.5 19.5t-3.5 21.5t-0.5 21q-1 60 13.5 119.5t29.5 116.5q8 28 16 54.5t16 53.5q2 7 5.5 18t3.5 20.5t-6 15t-21 2.5q-22 -4 -42.5 -20t-39 -38t-33.5 -46t-27 -45q-4 -8 -11 -3.5t-3 12.5q23 42 51.5 79.5t70.5 62.5
q10 6 22 10.5t23 5t20 -5t12 -21.5q2 -10 -3 -31.5t-12 -45.5t-14 -45.5t-10 -31.5q-6 -23 -17 -62.5t-19.5 -82.5t-10 -83t11.5 -62q15 -19 37 -9.5t47.5 36.5t51.5 64.5t48 74.5t37 67t18 42q2 8 10 6t6 -10t-6.5 -35.5t-9.5 -66t-10 -84t-6.5 -90t1.5 -83.5t12.5 -65
t27.5 -34.5t47 8.5q32 19 53.5 50t38.5 63q36 67 65.5 138t55 143t48 145.5t45.5 146.5z" />
    <glyph glyph-name="X" unicode="X" horiz-adv-x="578" 
d="M635 804q7 5 13 -0.5t-1 -10.5q-183 -149 -339 -324q43 -105 103.5 -200t138.5 -178q6 -6 0 -12.5t-12 0.5q-78 83 -138.5 177.5t-104.5 198.5q-78 -90 -149 -185.5t-134 -198.5q-2 -3 -5.5 -3.5t-6.5 1t-4 4.5t1 7q129 210 291 393q-29 74 -48.5 151t-28.5 156
q-1 4 1.5 6t5.5 2t6 -2t3 -6q20 -151 74 -293q77 87 160 166t174 151z" />
    <glyph glyph-name="Y" unicode="Y" horiz-adv-x="465" 
d="M526 795q5 6 12 2t2 -11q-4 -6 -8.5 -12t-9.5 -12q-33 -175 -113 -337q-33 -67 -72.5 -133t-87.5 -123q-23 -26 -49.5 -48.5t-56.5 -40.5q-24 -15 -52.5 -25.5t-57.5 0.5q-30 12 -32.5 34.5t9 48t30 49.5t30.5 37q47 52 104 91t117 75q7 4 11 -3t-2 -12
q-65 -38 -127.5 -81.5t-109.5 -103.5q-11 -14 -20 -28t-17 -30q-4 -9 -6 -19.5t-0.5 -19.5t8 -16t20.5 -9q17 -2 32.5 2t29.5 11q35 17 66 42t57 54q54 62 95.5 133.5t76.5 144.5q31 67 55 136t39 141q-30 -38 -60.5 -76.5t-63.5 -75.5q-40 -45 -85.5 -93t-98.5 -79
q-17 -10 -38 -13.5t-40 5.5q-17 9 -24.5 27.5t-9 40.5t0.5 44.5t4 38.5q6 51 19.5 100.5t27.5 97.5q2 8 9.5 6t5.5 -10q-10 -34 -19.5 -69.5t-17 -72t-10.5 -73.5t1 -74q2 -23 19.5 -36t40.5 -7q26 7 48.5 27t41.5 38q73 66 134.5 140t121.5 151q2 5 4 6l8 10z" />
    <glyph glyph-name="Z" unicode="Z" horiz-adv-x="463" 
d="M285 530q61 8 95 -6t47 -41t8 -63.5t-20 -75t-37.5 -74.5t-45.5 -61q-21 -23 -47.5 -46t-56 -42.5t-61 -33.5t-63.5 -18q-26 -4 -52 2.5t-42 29.5q-15 23 -10.5 48t17.5 48q18 31 42 58.5t51.5 52t58 46t60.5 39.5q8 4 12 -3t-3 -12q-29 -17 -59.5 -38t-58 -45.5
t-51.5 -52.5t-40 -59q-7 -14 -10 -28t0 -27t12 -23.5t26 -16.5q19 -6 38 -3.5t37 8.5q46 15 96 47.5t85 71.5q28 30 51.5 68.5t38 76.5t16.5 72t-13.5 56.5t-52 30t-98.5 -8.5q-1 -1 -3 -1h-2q-8 -3 -10.5 5t5.5 10q1 0 1.5 0.5t1.5 0.5q19 15 50.5 39t63 53t56.5 59.5
t33 57.5q6 22 -5 29t-32 5t-48 -11t-51.5 -19t-43 -18.5t-22.5 -10.5q-8 -4 -12.5 3.5t3.5 10.5q7 3 27 13.5t46.5 21t54.5 19.5t51.5 10.5t38 -8t12.5 -34.5q-2 -28 -23 -58.5t-50 -59t-59.5 -53.5t-52.5 -41z" />
    <glyph glyph-name="bracketleft" unicode="[" horiz-adv-x="166" 
d="M198 770q8 0 8 -8.5t-8 -8.5h-70q-11 -177 -38 -348.5t-70 -341.5q35 2 66 -4q8 -3 6 -11t-11 -6q-18 4 -36.5 4t-36.5 -2q-4 -1 -7 1.5t-3.5 5.5t0.5 6t4 3h2q-4 2 0 4q43 170 70 341.5t38 347.5v1q-7 2 -6 9t8 7h84v0z" />
    <glyph glyph-name="backslash" unicode="\" horiz-adv-x="309" 
d="M268 56q-81 174 -170 341.5t-187 333.5q-4 8 2.5 12t10.5 -3q99 -165 188 -333.5t170 -342.5q4 -7 -3.5 -11.5t-10.5 3.5z" />
    <glyph glyph-name="bracketright" unicode="]" horiz-adv-x="205" 
d="M183 772q7 0 8 -5t-1 -9q-23 -180 -54.5 -358t-70.5 -357q-1 -6 -6.5 -6t-7.5 5q-14 -2 -28 -2.5t-28 -1.5q-4 -1 -6 1t-2 5t2 6t6 4q28 1 57 6q38 173 68 345.5t53 349.5h-60q-8 0 -8 8.5t8 8.5h70v0z" />
    <glyph glyph-name="asciicircum" unicode="^" horiz-adv-x="241" 
d="M190 703q2 -4 1 -7t-4 -4.5t-6.5 -1.5t-5.5 3q-14 20 -25 41.5t-22 41.5q-30 -38 -57 -78q-6 -6 -13 -2.5t-2 11.5q16 23 33.5 45.5t36.5 45.5q2 4 6.5 3.5t5.5 -4.5q13 -25 25 -48t27 -46z" />
    <glyph glyph-name="underscore" unicode="_" horiz-adv-x="392" 
d="M81 205q-9 0 -9 8t9 8q14 1 44 1.5t64 1t64.5 0t45.5 -0.5q7 0 7 -8.5t-7 -8.5q-15 1 -45.5 1t-64.5 -0.5t-64 -1t-44 -0.5z" />
    <glyph glyph-name="grave" unicode="`" horiz-adv-x="212" 
d="M132 695q-17 18 -34.5 34.5t-36.5 30.5q-6 5 -2 13t11 1q41 -31 74 -66q7 -7 0 -12.5t-12 -0.5z" />
    <glyph glyph-name="a" unicode="a" horiz-adv-x="198" 
d="M200 313q5 7 8 -1t-2 -14q-7 -9 -17 -24t-22.5 -29t-25.5 -24.5t-26 -10.5q-15 0 -18 12.5t-3 23.5q1 22 6 45q-9 -14 -19 -26.5t-21 -23.5q-8 -9 -19.5 -16.5t-22.5 -9.5t-20 4t-12 23q-4 17 0.5 34.5t13.5 33.5q7 12 16 23t19 20q6 6 15.5 13t20 13t21.5 9t21 0
q5 0 5 -3h1q4 4 9 2q3 0 7 -6.5t0 -18.5l-6 -21t-8 -30.5t-7.5 -33.5t-4.5 -30q0 -17 8 -16.5t20 9.5q19 14 34.5 34.5t28.5 38.5zM72 280q2 3 8 13t13 22.5t13.5 25t9.5 21.5l1.5 4.5t3.5 2.5q-2 2 -2.5 2t-2.5 1q-1 -1 -7 -1q-11 5 -27 -4.5t-24 -16.5q-17 -12 -30.5 -29
t-20.5 -38q-2 -6 -3.5 -17t1 -20t9.5 -12t21 7q10 6 20 17.5t17 21.5z" />
    <glyph glyph-name="b" unicode="b" horiz-adv-x="195" 
d="M195 319q6 4 6.5 -3.5t-6.5 -12.5q-28 -20 -52 -31.5t-51 -28.5q-11 -13 -23.5 -24.5t-26.5 -16.5q-3 -2 -8.5 -4t-11 -2.5t-10 1.5t-5.5 8q0 9 12.5 17t20.5 10q8 7 17 12.5t19 10.5q2 5 5.5 9t6.5 9q10 20 18 41t10 44q1 15 -3 19.5t-10.5 2.5t-14 -8t-14.5 -13
q-19 -22 -34.5 -49t-27 -57t-18.5 -60t-9 -58q-1 -1 -2 -1v-1q-2 -11 -3 -20t-1 -19q2 0 2 -4q3 -14 1.5 -23.5t-6.5 -20.5q-3 -4 -9.5 -3t-6.5 8q0 72 14 143.5t28 141.5q17 97 38.5 193t43.5 193q3 8 11 5.5t6 -10.5q-21 -94 -42 -187.5t-40 -187.5q-3 -17 -6.5 -33.5
t-5.5 -32.5q11 28 26 55.5t38 46.5q26 26 45.5 17t14.5 -44q-2 -18 -8 -38t-15 -40q21 11 43 21.5t44 24.5z" />
    <glyph glyph-name="c" unicode="c" horiz-adv-x="219" 
d="M93 348q-5 -6 -11 0t0 12q13 16 9.5 18t-12.5 -2q-17 -7 -31.5 -21t-24.5 -31q-10 -16 -13.5 -36.5t1 -38t18.5 -28.5t39 -9q19 2 39.5 13.5t40.5 26.5t39 32.5t35 31.5q5 6 7 -2t-4 -14q-29 -30 -62.5 -57.5t-74.5 -41.5q-19 -7 -36 -5t-30.5 11t-22.5 24t-10 35t6 39.5
t19 37t28 31t34 21.5q8 3 20 5t18 -9t-4 -23.5t-17 -19.5z" />
    <glyph glyph-name="d" unicode="d" horiz-adv-x="172" 
d="M223 735q3 7 10.5 5.5t5.5 -9.5q-22 -79 -44 -157t-49 -155q-3 -10 -7 -19t-6 -18q-21 -94 -35 -186.5t-20 -186.5q0 -5 -3 -7t-6.5 -2t-6 2t-1.5 7q5 70 14 139.5t21 137.5q-1 -2 -2 -4.5t-2 -4.5q-4 -9 -10 -21t-13.5 -23t-17 -19.5t-20.5 -9.5q-17 -3 -26 4.5t-12 21
t-1.5 31t4.5 34.5q3 16 9.5 34t16 33t24 25.5t34.5 12.5q11 2 20.5 -2t16.5 -11v1q42 178 106 347zM89 313q5 12 9.5 25t9.5 24q-15 19 -29.5 19.5t-26.5 -9t-21.5 -26.5t-14.5 -32q-1 -3 -3 -12t-3 -20.5t-1 -23.5t3 -20q7 -21 19.5 -13.5t24.5 26t21.5 38.5t11.5 24z" />
    <glyph glyph-name="e" unicode="e" horiz-adv-x="173" 
d="M176 313q6 5 7 -4t-4 -14q-14 -13 -29.5 -28t-33.5 -28.5t-37 -23.5t-40 -13q-30 -2 -41 20t-9 48q5 33 23.5 67.5t48.5 52.5q7 3 16.5 6t18.5 2.5t16 -5t8 -15.5q2 -18 -11 -33.5t-31 -27.5t-37 -20.5t-30 -13.5q-1 -1 -2 -1h-1q-2 -12 -2.5 -24t3.5 -22t12.5 -14.5
t23.5 -1.5q19 4 37 14t34.5 23.5t31.5 28.5t28 27zM51 359q-13 -11 -22 -26t-15 -29q12 6 30 15.5t33.5 20.5t24 22t0.5 19q-5 4 -12.5 2.5t-15 -6t-14 -10t-9.5 -8.5z" />
    <glyph glyph-name="f" unicode="f" horiz-adv-x="265" 
d="M267 320q8 5 9 -4t-6 -14q-63 -37 -132 -58.5t-141 -26.5q25 -57 39.5 -119t9.5 -125q-1 -9 -2.5 -24t-6 -30.5t-12 -27.5t-19.5 -14q-9 -3 -17.5 3.5t-15.5 16.5t-12 21t-8 18q-13 33 -14.5 68.5t2.5 69.5q7 82 32 162.5t60 154.5q5 10 18 35t29.5 49.5t36 40.5t38.5 8
q13 -7 10.5 -26.5t-15 -46.5t-32.5 -58.5t-41.5 -61.5t-41.5 -55.5t-32 -41.5q70 6 137 28.5t127 57.5zM81 443q-16 -26 -29.5 -53.5t-25.5 -56.5q-8 -20 -15 -40t-15 -42q35 45 67.5 91.5t59.5 95.5q2 6 6.5 14.5t9 17.5t7 18t1.5 16q-1 5 -4.5 4t-10.5 -5
q-17 -10 -29.5 -27.5t-21.5 -32.5zM7 -102q9 6 13.5 19.5t6.5 29.5t2.5 31.5t0.5 23.5q0 54 -13 105.5t-35 99.5q-8 -32 -14.5 -65.5t-10.5 -67.5q-2 -30 -1.5 -60t8.5 -59q1 -5 5.5 -16.5t10.5 -22t13 -17t14 -1.5z" />
    <glyph glyph-name="g" unicode="g" horiz-adv-x="309" 
d="M314 320q3 2 5 0.5t2.5 -5t-1 -7.5t-5.5 -6q-50 -34 -96 -66t-94 -69q-9 -51 -20 -99.5t-28 -96.5q-11 -34 -26 -71t-35 -71.5t-47 -62.5t-61 -43q-26 -11 -48.5 -3.5t-27.5 37.5q-6 48 18.5 104.5t66 113t92.5 108t99 90.5q4 28 8 56.5t6 57.5q-8 -22 -18 -42t-26 -34
q-14 -13 -34.5 -15t-35.5 10q-12 9 -17 23.5t-4.5 30t4.5 31t10 27.5q7 13 21 27.5t31 26t35 17.5t33 2q8 -2 6 -10.5t-10 -6.5q-9 3 -19.5 0t-21 -9t-20 -13t-15.5 -12q-11 -10 -18.5 -19.5t-12.5 -22.5q-4 -10 -5.5 -24.5t1 -28t10.5 -23t23 -10.5q19 -1 34 19.5
t26.5 48.5t19.5 56.5t11 44.5v4q1 8 9.5 8t8.5 -8q0 -2 -0.5 -3.5t-0.5 -3.5q-3 -47 -7.5 -94.5t-12.5 -94.5q46 35 93 67zM64 -14q14 40 23 81.5t17 83.5q-14 -11 -26 -21.5t-25 -21.5q-30 -28 -66 -67.5t-67 -84.5t-52 -93t-21 -93q1 -29 21.5 -34t41.5 8q22 13 40.5 31.5
t32.5 38.5q29 38 48 82.5t33 89.5z" />
    <glyph glyph-name="h" unicode="h" horiz-adv-x="329" 
d="M332 316q6 5 8 -3t-4 -13q-18 -18 -35.5 -36t-35.5 -35.5t-38.5 -34t-45.5 -30.5q-18 -10 -29 -7.5t-16 13.5t-4 27t7 33q10 29 21.5 55.5t16.5 55.5q4 23 -3 32.5t-19 9.5t-26.5 -7t-24.5 -17q-44 -43 -71.5 -104t-41.5 -120q-6 -34 -8.5 -69t-5.5 -72q-1 -8 -9.5 -8
t-7.5 8q7 100 21.5 199t32 197.5t37 196.5t37.5 196q1 8 9 5.5t7 -10.5q-26 -136 -52.5 -271t-46.5 -273q15 34 33.5 64.5t42.5 59.5q9 10 24.5 22.5t32 18.5t32 2.5t23.5 -25.5q4 -12 3.5 -24t-4 -24t-8.5 -23.5t-9 -21.5q-2 -7 -9 -23.5t-12 -34.5t-5.5 -33.5t10.5 -18.5
q10 -2 31 13t45.5 37.5t50 48t46.5 44.5z" />
    <glyph glyph-name="i" unicode="i" horiz-adv-x="167" 
d="M169 315q4 7 8 -1.5t0 -14.5q-6 -8 -24.5 -31t-42.5 -46t-49.5 -39t-46.5 -11q-18 5 -23.5 22t-5.5 33q1 21 3 34.5t5 25t6.5 24t8.5 32.5q2 8 10.5 6t6.5 -10q-3 -11 -10.5 -35t-11.5 -49t-2 -45.5t19 -23.5q13 -3 36.5 13t46.5 39t42 45.5t24 31.5zM24 421q-3 1 -3 6.5
t3 8.5q6 3 11 5t9.5 3t6.5 -1q5 -5 3.5 -9.5t-3.5 -5.5q-2 -2 -12 -4.5t-15 -2.5z" />
    <glyph glyph-name="j" unicode="j" horiz-adv-x="175" 
d="M178 315q7 3 8.5 -5t-5.5 -11q-48 -26 -91.5 -53.5t-86.5 -59.5q-9 -68 -26 -134q-15 -63 -37 -127.5t-62 -118.5q-10 -14 -26 -27.5t-33.5 -21t-35.5 -4.5t-33 23q-11 15 -14 33.5t-1 37t7.5 37t12.5 34.5q18 44 46 83t59 74q29 34 62 64t68 58q3 25 5 43.5t2.5 35.5
t0.5 35.5t-1 42.5q0 9 9 9t9 -9q1 -23 1 -40t-1 -32.5t-3 -32.5t-5 -41q40 30 83 56.5t88 50.5zM-225 -79q-18 -36 -20.5 -74.5t9 -61t35 -21t57.5 43.5q25 29 44.5 73.5t35 95t27.5 101.5t23 94q-59 -48 -110 -105q-29 -32 -55 -69t-46 -77zM1 434q-8 0 -8 8t8 8h10
q8 0 8 -8t-8 -8h-10z" />
    <glyph glyph-name="k" unicode="k" horiz-adv-x="341" 
d="M344 322q6 5 5.5 -4.5t-6.5 -14.5q-24 -19 -44.5 -30t-47.5 -24q-26 -11 -55.5 -21t-58.5 -6q-26 3 -36.5 17.5t-9 34.5t11.5 43t24 44q-32 -24 -61.5 -50t-57.5 -55q-10 -50 -18.5 -98t-16.5 -98q-2 -7 -10.5 -7.5t-7.5 7.5q31 180 65.5 356.5t76.5 354.5q2 8 9.5 5.5
t6.5 -10.5q-28 -121 -53 -241t-48 -241q38 37 78 70.5t84 63.5q7 4 10.5 -3t-2.5 -12q-14 -10 -28 -26t-24.5 -34t-16.5 -37.5t-3 -36.5q2 -13 9 -20t17 -9t21.5 -1t21.5 3q44 11 86 32.5t79 47.5z" />
    <glyph glyph-name="l" unicode="l" horiz-adv-x="216" 
d="M77 690q1 8 8.5 5.5t6.5 -11.5q-17 -86 -36 -171t-33 -173q-7 -39 -12.5 -77.5t-6.5 -78.5q-2 -20 -1 -40.5t8 -39.5q10 -23 22 -21t27 16q49 45 88 101.5t70 113.5q2 3 4 2t3 -4.5t1 -8.5t-2 -8q-32 -59 -66.5 -109.5t-82.5 -95.5q-35 -33 -58 -18t-29 59q-4 29 -3 59.5
t5 60.5t9.5 60t10.5 59q14 81 32 160t35 160z" />
    <glyph glyph-name="m" unicode="m" horiz-adv-x="582" 
d="M587 316q7 4 8.5 -4t-5.5 -12q-20 -13 -48.5 -33.5t-60.5 -41t-63 -38.5t-55 -25q-14 -5 -22.5 -4t-12 5t-4.5 10.5t0 14.5q2 25 13.5 47.5t24.5 44t23.5 41.5t10.5 40q0 14 -7.5 23t-27.5 6q-15 -3 -28 -11t-25 -19t-22.5 -23t-19.5 -22q-20 -26 -39 -52t-40 -49
q-4 -6 -9.5 -1t-1.5 11q4 9 11 30.5t10.5 42.5t-1 36t-23.5 11q-22 -4 -50.5 -23t-57 -45.5t-53.5 -57t-38 -58.5q-3 -7 -10.5 -3t-6.5 10q18 59 35 118t35 119q2 8 10 5.5t6 -10.5q-12 -43 -27 -91.5t-28 -91.5q13 20 37 44t51.5 46t55.5 37.5t49 17.5q18 2 25 -8t8 -25
t-2.5 -32.5t-6.5 -30.5q27 38 57 74t69 57q12 7 26 9.5t26.5 -1t21 -13t10.5 -27.5q-1 -20 -10.5 -41.5t-22 -44t-24 -45t-16.5 -44.5q-2 -8 2.5 -11t23.5 3q20 6 49 23.5t60 38t60 41t50 32.5z" />
    <glyph glyph-name="n" unicode="n" horiz-adv-x="295" 
d="M295 319q7 5 7.5 -3t-5.5 -13q-6 -6 -22 -21t-34 -27.5t-35 -17.5t-25 9q-5 8 -1.5 18.5t6.5 18.5q6 16 11.5 33.5t7.5 34.5q1 16 -5 20.5t-17 2t-24.5 -10.5t-26.5 -17t-23 -17.5t-14 -12.5q-38 -30 -71 -66t-53 -78q-2 -9 -6 -16q-3 -8 -10.5 -4.5t-5.5 9.5q1 5 3 8.5
t4 7.5q23 57 38.5 117.5t31.5 120.5q2 8 10 5.5t6 -10.5q-12 -40 -21.5 -82.5t-22.5 -86.5q15 21 33.5 39.5t36.5 35.5q12 10 26.5 23t30 24t32 19t32.5 10q18 2 25.5 -5t8.5 -19.5t-3 -28t-9 -30.5t-9.5 -28t-5.5 -20q1 -7 8 -6t17 6.5t22 14.5t22.5 17.5t18.5 15.5t11 10z
" />
    <glyph glyph-name="o" unicode="o" horiz-adv-x="187" 
d="M189 318q5 7 7.5 -0.5t-3.5 -15.5q-17 -20 -44.5 -32.5t-59.5 -12.5q-4 -11 -13.5 -26t-21.5 -25.5t-25 -12t-25 15.5q-14 22 -13.5 51t11.5 58q-5 21 1 41.5t22 34.5q11 11 30.5 16t33.5 -9q10 -9 14 -24t3.5 -32.5t-4.5 -35.5t-8 -33q29 2 55.5 13.5t39.5 28.5zM88 357
q-2 17 -9 26.5t-16.5 11t-20 -6.5t-17.5 -25q2 4 8 10q2 3 5 3t5 -2t2.5 -5t-1.5 -6q-16 -20 -24 -48q5 -20 20.5 -28.5t36.5 -10.5q4 14 8.5 37.5t2.5 43.5zM23 213q8 -4 15 -1.5t13 9.5t11 17t9 21q-18 3 -32.5 9.5t-24.5 20.5l-2 -2q-1 -6 -2 -17t-0.5 -22t3.5 -21
t10 -14z" />
    <glyph glyph-name="p" unicode="p" horiz-adv-x="243" 
d="M246 320q8 0 8 -8t-8 -8q-26 0 -52.5 -2t-50.5 -10q-4 -15 -10.5 -30.5t-15 -29.5t-20 -25t-25.5 -17q-15 -6 -24.5 -2.5t-14 12t-3 20.5t9.5 23q17 25 40 39.5t49 22.5q2 5 4.5 18.5t2 26t-5.5 20.5t-18 1q-20 -10 -36.5 -26.5t-30 -36.5t-24.5 -41t-21 -40
q-2 -17 -5.5 -34.5t-6.5 -34.5q-12 -69 -22.5 -138.5t-8.5 -139.5q1 -8 -7 -8t-10 8q-1 69 9 137t21 136q12 70 26 139.5t32 138.5q2 7 10 5t6 -9q-9 -35 -16.5 -71t-14.5 -73q7 15 18 32.5t25 33t30.5 27.5t35.5 17q15 1 21.5 -7.5t8 -21.5t-0.5 -27.5t-4 -25.5
q25 6 50.5 7.5t48.5 1.5zM88 222q13 13 21 29t13 34q-21 -8 -44.5 -24.5t-30.5 -38.5q-3 -12 1 -15t11.5 -1.5t16 6.5t12.5 10z" />
    <glyph glyph-name="q" unicode="q" horiz-adv-x="299" 
d="M305 319q6 3 7.5 -4.5t-5.5 -12.5q-46 -27 -89 -55.5t-85 -63.5q-16 -12 -36 -29t-28 -37q-3 -8 -0.5 -19.5t7 -24t10 -24.5t7.5 -21q13 -38 21.5 -77t9.5 -80q0 -18 -3.5 -43t-13 -47.5t-25.5 -38t-41 -13.5q-29 3 -41.5 25.5t-15 52.5t1 60t6.5 47q14 89 39.5 173.5
t57.5 168.5q-11 -16 -22.5 -28t-23.5 -16.5t-23 0.5t-21 24q-16 31 -8 58t28.5 48t49 35t52.5 20q9 2 11 -6t-6 -10q-21 -5 -44.5 -15.5t-42.5 -27t-28 -38.5t0 -49q5 -14 14.5 -20t22.5 2q15 9 27.5 24.5t22 33.5t16.5 37t12 35q2 5 7.5 5t8.5 -3q3 0 5.5 -2.5t0.5 -7.5
q-21 -52 -42 -104.5t-39 -104.5q5 5 11 9q47 51 106.5 90t120.5 74zM70 49q-4 9 -9.5 21.5t-9.5 25.5q-16 -51 -27.5 -103t-18.5 -106q-2 -14 -4.5 -32t-1.5 -36.5t6 -35t17 -27.5q11 -10 24 -9t24 10q28 26 35 63.5t2.5 78.5t-16 80.5t-21.5 69.5z" />
    <glyph glyph-name="r" unicode="r" horiz-adv-x="174" 
d="M106 405q22 4 34.5 -4t17 -22.5t2.5 -33t-9 -34.5q-4 -8 -12 -5.5t-4 10.5q5 10 8 22t1 23q-1 16 -9.5 22t-20.5 4.5t-25 -8t-22 -14.5q-20 -18 -33 -38.5t-21.5 -43.5t-15 -48t-13.5 -51q-2 -6 -10 -5t-6 8q4 25 11 50.5t14.5 50.5t13.5 50.5t8 51.5q3 8 11 8t6 -8
q-1 -12 -4 -25t-5 -25q15 22 36 41.5t47 23.5z" />
    <glyph glyph-name="s" unicode="s" horiz-adv-x="195" 
d="M197 318q4 2 6 0t2 -5.5t-2 -7.5t-6 -5q-14 -6 -32 -14t-36 -18t-35.5 -19.5t-30.5 -18.5q6 -12 9.5 -33.5t1.5 -46.5t-10 -50t-25 -44q-8 -9 -18.5 -18t-22.5 -16.5t-24.5 -12t-24.5 -2.5q-21 2 -28 16.5t-3.5 35.5t15.5 46.5t29.5 50t38.5 45.5t42 34q-8 19 -23.5 37.5
t-35.5 48.5q-9 15 -11.5 27t10.5 27q14 17 34.5 20t39.5 -7q8 -3 3.5 -9.5t-11.5 -3.5q-14 5 -26 3.5t-20 -7.5t-10 -16.5t5 -23.5q15 -21 32.5 -42t28.5 -44q13 8 31 18.5t37 21t37 19.5t33 14zM8 49q19 16 30.5 38.5t16 46.5t2.5 46t-10 39q-24 -16 -47 -42t-40 -53.5
t-23.5 -53t2.5 -39.5q5 -8 14.5 -8t20 4.5t20 11t14.5 10.5z" />
    <glyph glyph-name="t" unicode="t" horiz-adv-x="74" 
d="M258 530q5 -7 -0.5 -13t-10.5 0q-2 1 -9 1h-15.5t-16 -0.5t-10.5 -0.5q-35 -2 -71 -3t-75 -5q-9 -49 -18 -97.5t-18 -98.5q-5 -34 -11.5 -75.5t-12 -84t-6.5 -84t5 -76.5q1 -8 -7.5 -10.5t-10.5 5.5q-9 74 2 151.5t23 161.5q8 51 17 103.5t20 104.5q-33 -1 -67 -2.5
t-66 -1.5q-8 0 -8 8t8 8q70 0 136 6q6 26 11.5 53t11.5 53q3 9 11 6.5t6 -10.5q-5 -26 -11 -51t-12 -51q40 2 81 4.5t90 2.5q7 0 18 0.5t16 -4.5z" />
    <glyph glyph-name="u" unicode="u" horiz-adv-x="218" 
d="M216 313q6 5 7.5 -2t-3.5 -14q-6 -8 -16 -20t-23 -23.5t-26.5 -18.5t-25.5 -5q-16 4 -19 17.5t-2 25.5v4q-12 -23 -30.5 -46t-45.5 -32q-19 -6 -29 0t-14 19q-5 18 -0.5 45.5t13.5 55.5t18 50.5t13 30.5t11.5 4t3.5 -11q-29 -61 -43 -132q-1 -5 -2 -13.5t0 -16.5
q2 -15 9 -17.5t17 1.5q15 6 28 17.5t24 26t19.5 30.5t14.5 31l4.5 13.5l5.5 16.5q2 7 9 6t7 -8q0 -2 -1 -4.5t-2 -4.5q-2 -9 -7 -25t-8 -31t-1 -26t14 -11q8 0 19 7.5t22 18t21.5 22t17.5 19.5z" />
    <glyph glyph-name="v" unicode="v" horiz-adv-x="237" 
d="M242 318q5 6 7.5 -1.5t-3.5 -14.5q-11 -12 -31 -29t-42.5 -28.5t-45.5 -13t-40 17.5q-7 -10 -16.5 -22t-20.5 -21t-22 -12t-21 5q-7 4 -10 11.5t-4.5 16t-1.5 16.5v14q2 35 9.5 68.5t21.5 64.5q3 8 10 6t4 -10q-1 -5 -5.5 -20t-9.5 -34.5t-8.5 -41t-4 -39.5t3 -29.5
t14.5 -10.5q5 1 11 6t12 12t11 13.5t8 10.5l4 6t4 8q-6 17 -3 39t9 39q3 5 9 17t14.5 23.5t18 18.5t19.5 1q12 -7 8 -27t-14.5 -43t-23.5 -43t-18 -27q12 -18 33.5 -15.5t44 14.5t42 28t27.5 26zM102 347q-7 -14 -11 -29.5t-2 -31.5q5 8 8.5 15t8.5 15q3 5 8 13t9.5 16.5
t7.5 17.5t2 16q-1 6 -5.5 3t-9.5 -10t-10 -14.5t-6 -10.5z" />
    <glyph glyph-name="w" unicode="w" horiz-adv-x="422" 
d="M424 315q5 7 8 -0.5t-2 -14.5q-20 -24 -53 -35t-65 0q-22 9 -31 30q-5 -8 -9 -15.5t-9 -15.5q-11 -17 -24 -33.5t-30 -28.5q-14 -9 -28.5 -12t-27.5 11q-16 18 -18.5 45.5t2.5 53.5q-6 -9 -21.5 -30.5t-34.5 -42t-38.5 -33.5t-34.5 -5q-18 10 -19 39t6.5 62.5t19 64
t19.5 44.5q4 8 11.5 4t3.5 -11q-12 -23 -21 -46.5t-14 -49.5q-2 -8 -5 -25t-2 -33t7.5 -25t24.5 -1q16 7 31.5 23.5t29.5 36.5t27 41.5t25 38.5q4 6 11 3.5t5 -10.5q-8 -21 -12 -42.5t-2 -44.5q1 -11 4 -29t17 -22q11 -3 23.5 7.5t20.5 18.5q16 17 32 40t27 49q0 26 15 49
q4 5 8 4h1q6 -3 6 -11q-2 -11 -5.5 -21t-7.5 -21q-2 -11 1 -19q4 -14 14.5 -19.5t23.5 -5.5q24 -2 49 8t41 29z" />
    <glyph glyph-name="x" unicode="x" horiz-adv-x="242" 
d="M247 312q5 7 7.5 -2t-4.5 -15q-11 -14 -32.5 -41t-48 -52t-54.5 -41t-51 -8q-14 5 -23.5 17t-16 27t-10.5 31t-5 29q-16 -17 -30 -33.5t-27 -35.5q-5 -5 -12 -1.5t-2 11.5q15 22 31.5 41t34.5 38q-5 29 -9 56t-7 53q-1 8 7.5 8t8.5 -8l6 -46t8 -46q23 24 46.5 46t49.5 42
q7 5 12.5 -1t0.5 -11q-55 -43 -104 -97q0 -12 3.5 -30t11.5 -35t20.5 -28.5t30.5 -10.5q19 1 41.5 18t44 40t41 47t31.5 38z" />
    <glyph glyph-name="y" unicode="y" horiz-adv-x="329" 
d="M335 315q4 2 4.5 0t-0.5 -6t-3.5 -8.5t-5.5 -6.5q-46 -29 -82.5 -55.5t-78.5 -60.5q-11 -60 -29 -119t-40 -116q-30 -80 -74 -154q-10 -14 -21 -31t-24 -33.5t-28 -30t-32 -21.5q-23 -11 -42 -1.5t-27 33.5q-5 16 -3.5 33t5.5 34.5t10 34.5t12 32q45 105 116 190.5
t159 157.5q8 38 9 77t-1 77q-20 -32 -41.5 -64t-50.5 -55q-8 -8 -19.5 -12.5t-22.5 -2.5q-16 4 -23 18t-7.5 33t3.5 41t9.5 42.5t11 36.5t8.5 24t11 6t6 -9l-12 -36t-15.5 -57t-5 -54.5t19.5 -28.5q14 -1 32.5 17t36.5 42.5t33 49t23 37.5q4 11 14 10t5 -12q0 -2 -0.5 -2
t-0.5 -1q9 -79 -2 -161q40 30 80.5 58t82.5 54zM91 -36q17 48 32 97t26 101q-21 -18 -40 -35t-39 -36q-32 -34 -64 -73.5t-60 -82t-48.5 -88.5t-28.5 -93q-5 -22 -1 -38t14 -23.5t25 -4t34 21.5q20 18 35 38t29 41q26 41 47 85.5t39 89.5z" />
    <glyph glyph-name="z" unicode="z" horiz-adv-x="369" 
d="M371 318q4 2 6 0t2 -5t-1.5 -6.5t-5.5 -4.5q-36 -16 -66 -35.5t-61 -44.5q8 -24 10 -50t0 -51q-2 -23 -8 -52t-18 -56t-30 -48.5t-43 -29.5q-15 -5 -28.5 -2.5t-23.5 10.5t-16.5 20.5t-7.5 27.5q-3 30 7.5 60t27.5 57.5t38.5 51.5t41.5 42q8 7 16 13.5t17 13.5
q-12 35 -36 57.5t-66 22.5q-8 0 -8.5 6.5t4.5 9.5q23 16 46 35.5t31 48.5q4 14 -1.5 29.5t-21.5 18.5q-14 3 -28 -6q-13 -9 -31.5 -28.5t-38 -42t-38 -45t-32.5 -37.5q-7 -6 -12 0t2 11q14 16 31.5 38t36 43.5t37 41t35.5 31.5q15 8 30 11t29 -8q21 -17 22 -36t-9.5 -38.5
t-27.5 -37t-33 -29.5q35 -7 56.5 -30t35.5 -55q29 25 62 44.5t68 33.5zM225 53q11 33 14 76t-7 82q-5 -3 -9 -6.5t-9 -7.5q-16 -14 -39.5 -41t-43.5 -58.5t-31 -64t-1 -57.5q7 -18 23 -24t32 0q14 5 25 17t20 26.5t15.5 30t10.5 27.5z" />
    <glyph glyph-name="braceleft" unicode="{" horiz-adv-x="234" 
d="M15 333q-8 2 -5.5 10t9.5 6q0 1 2 1q45 10 69 43t36 76t15 89.5t6 82.5q1 24 7.5 51t20 48t34.5 33t53 7q4 0 5 -3t0.5 -6t-3 -5.5t-6.5 -1.5q-29 4 -46.5 -8t-28 -32t-15 -44.5t-5.5 -44.5q-2 -33 -5.5 -67t-9.5 -67q-5 -25 -12 -49.5t-19 -46t-29.5 -38.5t-41.5 -27
q29 -11 51 -29t27 -51q2 -28 0 -55.5t-7 -54.5q-2 -14 -5.5 -28.5t-3.5 -29.5q-1 -14 4.5 -22t14.5 -12.5t20 -6t21 -1.5q9 0 9 -8t-9 -10q-41 0 -62 19t-13 63q6 33 11.5 66.5t3.5 66.5q-2 21 -10 35t-21 23.5t-29 16t-33 11.5z" />
    <glyph glyph-name="bar" unicode="|" horiz-adv-x="179" 
d="M-5 29q57 183 103.5 367t84.5 373q2 8 9.5 7t5.5 -9q-37 -189 -83.5 -373.5t-103.5 -368.5q-2 -8 -10.5 -6t-5.5 10z" />
    <glyph glyph-name="braceright" unicode="}" horiz-adv-x="240" 
d="M73 767q-8 1 -8 9t8 8q34 -2 49.5 -21.5t20 -46.5t1 -56.5t-7.5 -53.5q-5 -27 -10 -67.5t-1 -79t22 -66t60 -28.5q8 0 8 -8.5t-8 -8.5h-4h-1q-29 -3 -47 -20.5t-28.5 -42.5t-16 -52.5t-8.5 -49.5q-3 -20 -7.5 -47t-14.5 -51t-27.5 -40t-46.5 -13q-8 2 -8 10.5t8 7.5
q23 -2 37.5 10.5t23.5 34.5t14 50t9 56t7.5 52t10.5 38q11 19 27 36t36 28q-23 9 -36.5 28.5t-20 43.5t-7.5 50.5t1 50.5q1 15 6 37.5t9 48.5t6 52.5t-2.5 48.5t-17 36t-36.5 16z" />
    <glyph glyph-name="asciitilde" unicode="~" horiz-adv-x="311" 
d="M67 281q-2 -4 -5 -4t-5.5 2t-3 5.5t1.5 6.5q15 20 33.5 30.5t41.5 -4.5q15 -10 28.5 -19.5t27 -12t26.5 5t27 32.5q4 8 11 4t3 -11q-13 -23 -32 -37.5t-46 -9.5q-10 1 -17.5 6.5t-15 12t-15 12t-17.5 7.5q-14 4 -25 -6.5t-18 -19.5z" />
    <glyph glyph-name="exclamdown" unicode="&#xa1;" horiz-adv-x="157" 
d="M34.0068 88.0371q-1 -8 -8.99902 -5.5q-8 2.5 -7 9.49902q15.999 101.994 35.498 201.488t44.4971 199.487q2 7 10 5q7.99902 -2 5.99902 -8.99902q-23.998 -99.9941 -44.4971 -199.988t-35.498 -200.987zM117.002 527.01q-6 0 -7.99902 6q-2 5.99902 0.999023 9.99902
q4 7 13 5q7.99902 -4 4.99902 -12.499q-2.99902 -8.5 -10.999 -8.5z" />
    <glyph glyph-name="cent" unicode="&#xa2;" horiz-adv-x="136" 
d="M124 328q5 -6 -2.5 -10t-12.5 2q-5 8 -13.5 7t-18.5 -4q-5 -26 -10.5 -52.5t-11.5 -52.5q11 1 21.5 7t19.5 11q7 4 11 -3.5t-3 -10.5q-11 -8 -25 -14t-28 -6q-2 -11 -4.5 -21t-4.5 -21q-2 -8 -9.5 -5.5t-5.5 10.5q2 10 4 19.5t4 19.5q-3 2 -5.5 3t-5.5 3
q-14 11 -16.5 27.5t1.5 33.5q5 14 20 33t34 30q3 12 5.5 23.5t5.5 22.5q1 4 3.5 5.5t5.5 0.5t5.5 -4t1.5 -7q-2 -8 -3.5 -16t-3.5 -16q11 3 22 0t19 -15zM38 222l10 44t10 45q-2 -1 -2.5 -2t-1.5 -2q-20 -15 -26 -36q-5 -14 -4 -28.5t14 -20.5z" />
    <glyph glyph-name="sterling" unicode="&#xa3;" horiz-adv-x="276" 
d="M254 130q4 0 5 -3t0 -6t-3.5 -5.5t-6.5 -1.5q-24 4 -49 10t-50.5 10t-50.5 4.5t-49 -6.5q-4 -9 -10 -3q-7 -4 -19 -7q-7 -4 -11.5 3t3.5 11q6 2 12 4.5t12 4.5q9 30 18.5 60.5t18.5 61.5h-22t-22 1q-10 0 -10 8.5t10 8.5q13 0 25 -0.5t25 -0.5q1 2 1.5 5.5t1.5 5.5
q9 30 17.5 60.5t25.5 58.5q11 20 29.5 37t42.5 20q20 2 33.5 -8t15.5 -30q1 -8 -8 -8t-9 8q-2 17 -11.5 21t-21 0.5t-22.5 -11t-15 -11.5q-8 -8 -14 -16t-11 -19q-9 -18 -15 -37t-12 -39q-3 -10 -5.5 -19.5t-6.5 -17.5q28 -1 54.5 -2t53.5 -1q8 0 8 -8.5t-8 -7.5
q-29 0 -56.5 0.5t-56.5 1.5q-8 -30 -17 -59l-18 -58q24 5 49 4t49.5 -5t49.5 -9.5t50 -9.5z" />
    <glyph glyph-name="currency" unicode="&#xa4;" horiz-adv-x="153" 
d="M125 333q5 5 11 -1t1 -11q-11 -12 -24 -21q13 -19 10 -43q-4 -16 -14 -27q3 -5 6.5 -11.5t6.5 -12.5q3 -7 -4 -11t-10 3q-8 11 -12 22q-8 -4 -20 -4q-12 1 -18 4q-5 -7 -8.5 -14t-8.5 -15q-5 -7 -12 -2.5t-4 10.5q5 8 9 15.5t9 15.5q2 0 2 2q-10 13 -10 31t9 32l-3 3
q-7 5 -13.5 11t-12.5 11t-0.5 11t12.5 1q6 -5 12.5 -11t12.5 -11l3 -3q9 10 21 18q1 1 3 1q6 2 9 0q4 -4 7.5 -6.5t7.5 -6.5q13 10 22 20zM72 233q15 -3 25.5 9t8.5 26q-1 13 -7.5 23t-15.5 17q-11 -6 -18.5 -14t-10.5 -19q-4 -11 0 -25t18 -17z" />
    <glyph glyph-name="yen" unicode="&#xa5;" horiz-adv-x="220" 
d="M214 452q5 7 12.5 2t2.5 -12q-26 -41 -50 -83.5t-44 -87.5q10 1 20 1h21q5 0 7.5 -2.5t2.5 -6t-2.5 -6.5t-7.5 -3q-12 -1 -24.5 -1t-24.5 -1q-4 -8 -7 -16l-6 -16q14 0 27.5 1t27.5 1q10 1 10 -8t-10 -10q-15 0 -30.5 -0.5t-30.5 -0.5q-8 -22 -14.5 -43t-12.5 -42
q-2 -9 -10.5 -6t-6.5 11q5 20 11.5 39.5t13.5 39.5q-14 -2 -26.5 -2t-26.5 -1q-10 0 -10 9t10 9q15 1 29.5 1.5t29.5 0.5q2 8 5.5 16t7.5 17q-19 -1 -36.5 -1.5t-35.5 -1.5q-10 0 -10 9t10 9q20 1 39.5 2t39.5 2q4 8 7 16t7 16q-34 31 -63 66t-56 73q-5 7 3 11.5t13 -2.5
q48 -71 111 -132q17 35 36 68t41 65z" />
    <glyph glyph-name="dieresis" unicode="&#xa8;" horiz-adv-x="192" 
d="M60 711q-8 0 -8 8t8 8h4q8 0 8 -8t-8 -8h-4zM123 707q-9 0 -9 8t9 8q8 0 8 -8t-8 -8z" />
    <glyph glyph-name="acute" unicode="&#xb4;" horiz-adv-x="212" 
d="M74 695q-5 -5 -12 0.5t0 12.5q33 35 74 66q7 7 11 -1t-2 -13q-19 -14 -36.5 -30.5t-34.5 -34.5z" />
    <glyph glyph-name="questiondown" unicode="&#xbf;" horiz-adv-x="292" 
d="M92.0117 83.0371q-18.998 1.99902 -34.9971 8.49902t-26.999 16.999q-10.999 10.499 -15.999 24.998q-4.99902 14.499 -1 32.498q4 20.999 15.999 39.498q12 18.499 28.499 35.498t35.4971 31.998q18.999 14.999 34.998 27.998q19.999 16.999 39.498 33.998
t35.498 36.4971q15.999 19.499 27.498 41.498t15.499 46.9971q1 4 4 5q2.99902 1 5.99902 0t5 -3.5t1 -5.5q-6 -33.998 -23.499 -61.4961t-40.9971 -51.4971q-23.499 -23.998 -50.4971 -45.4971t-51.9971 -44.4971q-15.999 -12.999 -34.498 -35.498
q-18.498 -22.499 -27.498 -45.4971q-8.99902 -22.999 -1 -42.9971q8 -19.999 44.9971 -28.999q41.998 -10.999 83.9951 3.5q41.998 14.499 72.9961 42.498q4.99902 4.99902 10.499 -0.5q5.5 -5.5 0.5 -10.5q-30.998 -28.998 -70.4961 -42.9971
q-39.4971 -13.999 -82.4951 -8.99902zM266.002 525.01q0 -7 -8 -7q-7.99902 0 -7.99902 7v3q0 7.99902 7.99902 7.99902q8 0 8 -7.99902v-3z" />
    <glyph glyph-name="Agrave" unicode="&#xc0;" 
d="M523 764q5 5 11 2.5t6 -8.5q-14 -82 -30 -162.5t-31.5 -160.5t-29 -159.5t-23.5 -160.5q-2 -8 -8 -10.5t-8 4.5q-14 30 -32.5 60t-41 57.5t-49.5 50.5t-58 38q-42 -66 -79 -133t-69 -136q-5 -7 -12 -3t-4 12q33 69 70.5 134.5t79.5 131.5q-31 14 -64 17q-21 1 -46.5 -4.5
t-46.5 -17.5t-33 -31.5t-5 -47.5q5 -17 15.5 -32.5t23.5 -27.5q7 -6 1 -12.5t-13 0.5q-14 13 -26.5 29.5t-17.5 35.5q-7 25 0 46t23.5 37t39 26t45.5 14q30 5 58.5 0.5t55.5 -15.5q72 110 147.5 214.5t150.5 211.5zM412 141q20 149 50 292.5t55 289.5q-70 -96 -140.5 -194
t-136.5 -201q28 -15 52.5 -35.5t46.5 -45.5t40 -52t33 -54zM542 839q-17 18 -34.5 34.5t-36.5 30.5q-6 5 -2 13t11 1q41 -31 74 -66q7 -7 0 -12.5t-12 -0.5z" />
    <glyph glyph-name="Aacute" unicode="&#xc1;" 
d="M523 764q5 5 11 2.5t6 -8.5q-14 -82 -30 -162.5t-31.5 -160.5t-29 -159.5t-23.5 -160.5q-2 -8 -8 -10.5t-8 4.5q-14 30 -32.5 60t-41 57.5t-49.5 50.5t-58 38q-42 -66 -79 -133t-69 -136q-5 -7 -12 -3t-4 12q33 69 70.5 134.5t79.5 131.5q-31 14 -64 17q-21 1 -46.5 -4.5
t-46.5 -17.5t-33 -31.5t-5 -47.5q5 -17 15.5 -32.5t23.5 -27.5q7 -6 1 -12.5t-13 0.5q-14 13 -26.5 29.5t-17.5 35.5q-7 25 0 46t23.5 37t39 26t45.5 14q30 5 58.5 0.5t55.5 -15.5q72 110 147.5 214.5t150.5 211.5zM412 141q20 149 50 292.5t55 289.5q-70 -96 -140.5 -194
t-136.5 -201q28 -15 52.5 -35.5t46.5 -45.5t40 -52t33 -54zM509 838q-5 -5 -12 0.5t0 12.5q33 35 74 66q7 7 11 -1t-2 -13q-19 -14 -36.5 -30.5t-34.5 -34.5z" />
    <glyph glyph-name="Acircumflex" unicode="&#xc2;" 
d="M523 764q5 5 11 2.5t6 -8.5q-14 -82 -30 -162.5t-31.5 -160.5t-29 -159.5t-23.5 -160.5q-2 -8 -8 -10.5t-8 4.5q-14 30 -32.5 60t-41 57.5t-49.5 50.5t-58 38q-42 -66 -79 -133t-69 -136q-5 -7 -12 -3t-4 12q33 69 70.5 134.5t79.5 131.5q-31 14 -64 17q-21 1 -46.5 -4.5
t-46.5 -17.5t-33 -31.5t-5 -47.5q5 -17 15.5 -32.5t23.5 -27.5q7 -6 1 -12.5t-13 0.5q-14 13 -26.5 29.5t-17.5 35.5q-7 25 0 46t23.5 37t39 26t45.5 14q30 5 58.5 0.5t55.5 -15.5q72 110 147.5 214.5t150.5 211.5zM412 141q20 149 50 292.5t55 289.5q-70 -96 -140.5 -194
t-136.5 -201q28 -15 52.5 -35.5t46.5 -45.5t40 -52t33 -54zM603 839q2 -4 1 -7t-4 -4.5t-6.5 -1.5t-5.5 3q-14 20 -25 41.5t-22 41.5q-30 -38 -57 -78q-6 -6 -13 -2.5t-2 11.5q16 23 33.5 45.5t36.5 45.5q2 4 6.5 3.5t5.5 -4.5q13 -25 25 -48t27 -46z" />
    <glyph glyph-name="Atilde" unicode="&#xc3;" 
d="M523 764q5 5 11 2.5t6 -8.5q-14 -82 -30 -162.5t-31.5 -160.5t-29 -159.5t-23.5 -160.5q-2 -8 -8 -10.5t-8 4.5q-14 30 -32.5 60t-41 57.5t-49.5 50.5t-58 38q-42 -66 -79 -133t-69 -136q-5 -7 -12 -3t-4 12q33 69 70.5 134.5t79.5 131.5q-31 14 -64 17q-21 1 -46.5 -4.5
t-46.5 -17.5t-33 -31.5t-5 -47.5q5 -17 15.5 -32.5t23.5 -27.5q7 -6 1 -12.5t-13 0.5q-14 13 -26.5 29.5t-17.5 35.5q-7 25 0 46t23.5 37t39 26t45.5 14q30 5 58.5 0.5t55.5 -15.5q72 110 147.5 214.5t150.5 211.5zM412 141q20 149 50 292.5t55 289.5q-70 -96 -140.5 -194
t-136.5 -201q28 -15 52.5 -35.5t46.5 -45.5t40 -52t33 -54zM440 847q-2 -4 -5 -4t-5.5 2t-3 5.5t1.5 6.5q15 20 33.5 30.5t41.5 -4.5q15 -10 28.5 -19.5t27 -12t26.5 5t27 32.5q4 8 11 4t3 -11q-13 -23 -32 -37.5t-46 -9.5q-10 1 -17.5 6.5t-15 12t-15 12t-17.5 7.5
q-14 4 -25 -6.5t-18 -19.5z" />
    <glyph glyph-name="Adieresis" unicode="&#xc4;" 
d="M523 764q5 5 11 2.5t6 -8.5q-14 -82 -30 -162.5t-31.5 -160.5t-29 -159.5t-23.5 -160.5q-2 -8 -8 -10.5t-8 4.5q-14 30 -32.5 60t-41 57.5t-49.5 50.5t-58 38q-42 -66 -79 -133t-69 -136q-5 -7 -12 -3t-4 12q33 69 70.5 134.5t79.5 131.5q-31 14 -64 17q-21 1 -46.5 -4.5
t-46.5 -17.5t-33 -31.5t-5 -47.5q5 -17 15.5 -32.5t23.5 -27.5q7 -6 1 -12.5t-13 0.5q-14 13 -26.5 29.5t-17.5 35.5q-7 25 0 46t23.5 37t39 26t45.5 14q30 5 58.5 0.5t55.5 -15.5q72 110 147.5 214.5t150.5 211.5zM412 141q20 149 50 292.5t55 289.5q-70 -96 -140.5 -194
t-136.5 -201q28 -15 52.5 -35.5t46.5 -45.5t40 -52t33 -54zM500 837q-8 0 -8 8t8 8h4q8 0 8 -8t-8 -8h-4zM563 833q-9 0 -9 8t9 8q8 0 8 -8t-8 -8z" />
    <glyph glyph-name="Aring" unicode="&#xc5;" 
d="M523 764q5 5 11 2.5t6 -8.5q-14 -82 -30 -162.5t-31.5 -160.5t-29 -159.5t-23.5 -160.5q-2 -8 -8 -10.5t-8 4.5q-14 30 -32.5 60t-41 57.5t-49.5 50.5t-58 38q-42 -66 -79 -133t-69 -136q-5 -7 -12 -3t-4 12q33 69 70.5 134.5t79.5 131.5q-31 14 -64 17q-21 1 -46.5 -4.5
t-46.5 -17.5t-33 -31.5t-5 -47.5q5 -17 15.5 -32.5t23.5 -27.5q7 -6 1 -12.5t-13 0.5q-14 13 -26.5 29.5t-17.5 35.5q-7 25 0 46t23.5 37t39 26t45.5 14q30 5 58.5 0.5t55.5 -15.5q72 110 147.5 214.5t150.5 211.5zM412 141q20 149 50 292.5t55 289.5q-70 -96 -140.5 -194
t-136.5 -201q28 -15 52.5 -35.5t46.5 -45.5t40 -52t33 -54zM533 906q8 4 12 -4t-4 -11q-7 -4 -16 -8.5t-12 -13.5q-2 -3 -2 -7t2 -6q3 -6 9.5 -5t11.5 1q8 3 16.5 6t13.5 11q3 5 2.5 13.5t-8.5 9.5q-8 0 -8 8t8 7q14 -1 21 -12t5 -24q-4 -15 -17.5 -22.5t-27.5 -11.5
q-15 -3 -28.5 0.5t-15.5 22.5q-2 17 11 28t27 18z" />
    <glyph glyph-name="AE" unicode="&#xc6;" horiz-adv-x="816" 
d="M760 787q17 0 44 -1.5t56.5 -6t57 -13t46 -23t23.5 -35.5t-11 -51q-4 -8 -11.5 -4t-3.5 11q16 29 6 48.5t-35.5 31.5t-61 17t-70.5 6.5t-65 0t-44 -2.5q-23 -2 -45.5 -5t-43.5 -7q-24 -80 -47.5 -158.5t-51.5 -156.5q117 12 237 6q8 -1 8 -9.5t-8 -8.5q-61 4 -121.5 2
t-123.5 -7q-8 -27 -18.5 -53.5t-22.5 -52.5q-17 -40 -35 -80t-41 -76q26 -5 51 -17t52 -27q32 -17 65.5 -23t67.5 -4t68.5 9.5t68.5 17.5q7 3 9.5 -5t-5.5 -10q-29 -9 -60.5 -17t-63 -11t-63 -0.5t-61.5 13.5t-56 29t-57 27l-12 2t-11 1q-5 -6 -8 -11t-8 -10
q-14 -20 -33.5 -38.5t-45.5 -18.5q-11 -1 -21.5 3t-12.5 15q-3 11 3 21.5t16 19t22 15t20 9.5q15 7 29.5 9t28.5 2q6 11 12 21t11 21q-26 35 -56.5 58t-69.5 43q-16 -24 -40.5 -58t-50 -70t-48.5 -70.5t-36 -58.5q-5 -7 -12 -3t-4 12q14 25 38 60.5t50 72t50.5 69.5t38.5 52
q-8 3 -20 8t-26.5 9.5t-30.5 7.5t-30 3q-21 1 -44 -4t-41 -17t-27.5 -31.5t-2.5 -47.5q5 -17 15.5 -32.5t23.5 -27.5q7 -6 1 -12.5t-13 0.5q-14 13 -26.5 29.5t-17.5 35.5q-7 25 -0.5 47t22 38.5t38.5 26.5t48 11q43 2 78.5 -7t62.5 -20q29 45 69 99t83 110t85 110t75 99
q-48 -12 -93.5 -29.5t-90.5 -38.5q-8 -5 -12.5 2.5t3.5 11.5q91 45 189 70t198 27zM484 435q26 73 48 145.5t44 146.5q-33 -44 -74.5 -97.5t-84 -108.5t-81.5 -108t-67 -97q36 -20 66 -42t56 -56l21 43q18 39 34 77.5t31 79.5q-25 -3 -49.5 -6.5t-50.5 -8.5q-4 -1 -6.5 1
t-3.5 5t0 6t5 4q28 5 55.5 9t56.5 7zM321 106q8 8 15 17.5t15 20.5q-8 -2 -15 -3t-15 -5q-7 -2 -16.5 -5.5t-18.5 -8.5t-16 -11.5t-10 -13.5q-5 -13 3 -14.5t20 2.5t23.5 11t14.5 10z" />
    <glyph glyph-name="Ccedilla" unicode="&#xc7;" horiz-adv-x="385" 
d="M338 517q-6 -5 -12 0.5t-1 11.5q27 31 47.5 67.5t27.5 78.5q1 12 1 26t-4 27.5t-11.5 23.5t-21.5 14t-28.5 2.5t-28.5 -6.5t-27.5 -13t-23.5 -15q-51 -39 -88 -93t-65 -111q-30 -64 -52 -131.5t-30 -137.5q-2 -21 -3 -47.5t2.5 -52t13.5 -47.5t30 -36t43.5 -15.5
t46.5 3.5q33 8 60 25.5t50 40.5t42.5 50t36.5 54q4 7 11 3.5t3 -11.5q-18 -30 -39 -59t-46.5 -54t-55.5 -42.5t-67 -24.5q-12 -3 -25 -3q-7 -13 -11 -26q0 -3 3.5 -5t8 -5t8 -8t4.5 -15q2 -19 -13 -29.5t-32 -11.5q-8 0 -8 8.5t8 9.5q6 0 13.5 3.5t11.5 8t3.5 10t-9.5 9.5
q-5 2 -8 3t-7 6q-5 8 0 20t10 22q-35 3 -61 26q-22 20 -32 47.5t-12 58t1 61.5t7 57q14 80 43.5 158t69.5 148q17 27 37 55t44 53t52 44t60 27q34 10 61 -1t38 -44q9 -29 4.5 -59t-16.5 -58.5t-29 -54t-35 -46.5z" />
    <glyph glyph-name="Egrave" unicode="&#xc8;" horiz-adv-x="573" 
d="M517 787q17 0 44 -1.5t56.5 -6t57 -13t46 -23t23.5 -35.5t-11 -51q-4 -8 -11.5 -4t-3.5 11q16 29 6 48.5t-35.5 31.5t-61 17t-70.5 6.5t-65 0t-44 -2.5q-23 -2 -45.5 -5t-43.5 -7q-24 -80 -47.5 -158.5t-51.5 -156.5q117 12 237 6q8 -1 8 -9.5t-8 -8.5q-61 4 -121.5 2
t-123.5 -7q-8 -27 -18.5 -53.5t-22.5 -52.5q-17 -40 -35 -80t-41 -76q26 -5 51 -17t52 -27q32 -17 65.5 -23t67.5 -4t68.5 9.5t68.5 17.5q7 3 9.5 -5t-5.5 -10q-29 -9 -60.5 -17t-63 -11t-63 -0.5t-61.5 13.5t-56 29t-57 27l-12 2t-11 1q-5 -6 -8 -11t-8 -10
q-14 -20 -33.5 -38.5t-45.5 -18.5q-11 -1 -21.5 3t-12.5 15q-3 11 3 21.5t16 19t22 15t20 9.5q15 7 29.5 9t28.5 2q15 25 27 51t24 50q18 39 34 77.5t31 79.5q-25 -3 -49.5 -6.5t-50.5 -8.5q-4 -1 -6.5 1t-3.5 5t0 6t5 4q28 5 55.5 9t56.5 7q28 78 51.5 156t47.5 157
q-53 -12 -103 -30.5t-98 -41.5q-8 -5 -12.5 2.5t3.5 11.5q91 45 189 70t198 27zM78 106q8 8 15 17.5t15 20.5q-8 -2 -15 -3t-15 -5q-7 -2 -16.5 -5.5t-18.5 -8.5t-16 -11.5t-10 -13.5q-5 -13 3 -14.5t20 2.5t23.5 11t14.5 10zM384 839q-17 18 -34.5 34.5t-36.5 30.5
q-6 5 -2 13t11 1q41 -31 74 -66q7 -7 0 -12.5t-12 -0.5z" />
    <glyph glyph-name="Eacute" unicode="&#xc9;" horiz-adv-x="573" 
d="M517 787q17 0 44 -1.5t56.5 -6t57 -13t46 -23t23.5 -35.5t-11 -51q-4 -8 -11.5 -4t-3.5 11q16 29 6 48.5t-35.5 31.5t-61 17t-70.5 6.5t-65 0t-44 -2.5q-23 -2 -45.5 -5t-43.5 -7q-24 -80 -47.5 -158.5t-51.5 -156.5q117 12 237 6q8 -1 8 -9.5t-8 -8.5q-61 4 -121.5 2
t-123.5 -7q-8 -27 -18.5 -53.5t-22.5 -52.5q-17 -40 -35 -80t-41 -76q26 -5 51 -17t52 -27q32 -17 65.5 -23t67.5 -4t68.5 9.5t68.5 17.5q7 3 9.5 -5t-5.5 -10q-29 -9 -60.5 -17t-63 -11t-63 -0.5t-61.5 13.5t-56 29t-57 27l-12 2t-11 1q-5 -6 -8 -11t-8 -10
q-14 -20 -33.5 -38.5t-45.5 -18.5q-11 -1 -21.5 3t-12.5 15q-3 11 3 21.5t16 19t22 15t20 9.5q15 7 29.5 9t28.5 2q15 25 27 51t24 50q18 39 34 77.5t31 79.5q-25 -3 -49.5 -6.5t-50.5 -8.5q-4 -1 -6.5 1t-3.5 5t0 6t5 4q28 5 55.5 9t56.5 7q28 78 51.5 156t47.5 157
q-53 -12 -103 -30.5t-98 -41.5q-8 -5 -12.5 2.5t3.5 11.5q91 45 189 70t198 27zM78 106q8 8 15 17.5t15 20.5q-8 -2 -15 -3t-15 -5q-7 -2 -16.5 -5.5t-18.5 -8.5t-16 -11.5t-10 -13.5q-5 -13 3 -14.5t20 2.5t23.5 11t14.5 10zM348 823q-5 -5 -12 0.5t0 12.5q33 35 74 66
q7 7 11 -1t-2 -13q-19 -14 -36.5 -30.5t-34.5 -34.5z" />
    <glyph glyph-name="Ecircumflex" unicode="&#xca;" horiz-adv-x="573" 
d="M517 787q17 0 44 -1.5t56.5 -6t57 -13t46 -23t23.5 -35.5t-11 -51q-4 -8 -11.5 -4t-3.5 11q16 29 6 48.5t-35.5 31.5t-61 17t-70.5 6.5t-65 0t-44 -2.5q-23 -2 -45.5 -5t-43.5 -7q-24 -80 -47.5 -158.5t-51.5 -156.5q117 12 237 6q8 -1 8 -9.5t-8 -8.5q-61 4 -121.5 2
t-123.5 -7q-8 -27 -18.5 -53.5t-22.5 -52.5q-17 -40 -35 -80t-41 -76q26 -5 51 -17t52 -27q32 -17 65.5 -23t67.5 -4t68.5 9.5t68.5 17.5q7 3 9.5 -5t-5.5 -10q-29 -9 -60.5 -17t-63 -11t-63 -0.5t-61.5 13.5t-56 29t-57 27l-12 2t-11 1q-5 -6 -8 -11t-8 -10
q-14 -20 -33.5 -38.5t-45.5 -18.5q-11 -1 -21.5 3t-12.5 15q-3 11 3 21.5t16 19t22 15t20 9.5q15 7 29.5 9t28.5 2q15 25 27 51t24 50q18 39 34 77.5t31 79.5q-25 -3 -49.5 -6.5t-50.5 -8.5q-4 -1 -6.5 1t-3.5 5t0 6t5 4q28 5 55.5 9t56.5 7q28 78 51.5 156t47.5 157
q-53 -12 -103 -30.5t-98 -41.5q-8 -5 -12.5 2.5t3.5 11.5q91 45 189 70t198 27zM78 106q8 8 15 17.5t15 20.5q-8 -2 -15 -3t-15 -5q-7 -2 -16.5 -5.5t-18.5 -8.5t-16 -11.5t-10 -13.5q-5 -13 3 -14.5t20 2.5t23.5 11t14.5 10zM435 848q2 -4 1 -7t-4 -4.5t-6.5 -1.5t-5.5 3
q-14 20 -25 41.5t-22 41.5q-30 -38 -57 -78q-6 -6 -13 -2.5t-2 11.5q16 23 33.5 45.5t36.5 45.5q2 4 6.5 3.5t5.5 -4.5q13 -25 25 -48t27 -46z" />
    <glyph glyph-name="Edieresis" unicode="&#xcb;" horiz-adv-x="573" 
d="M517 787q17 0 44 -1.5t56.5 -6t57 -13t46 -23t23.5 -35.5t-11 -51q-4 -8 -11.5 -4t-3.5 11q16 29 6 48.5t-35.5 31.5t-61 17t-70.5 6.5t-65 0t-44 -2.5q-23 -2 -45.5 -5t-43.5 -7q-24 -80 -47.5 -158.5t-51.5 -156.5q117 12 237 6q8 -1 8 -9.5t-8 -8.5q-61 4 -121.5 2
t-123.5 -7q-8 -27 -18.5 -53.5t-22.5 -52.5q-17 -40 -35 -80t-41 -76q26 -5 51 -17t52 -27q32 -17 65.5 -23t67.5 -4t68.5 9.5t68.5 17.5q7 3 9.5 -5t-5.5 -10q-29 -9 -60.5 -17t-63 -11t-63 -0.5t-61.5 13.5t-56 29t-57 27l-12 2t-11 1q-5 -6 -8 -11t-8 -10
q-14 -20 -33.5 -38.5t-45.5 -18.5q-11 -1 -21.5 3t-12.5 15q-3 11 3 21.5t16 19t22 15t20 9.5q15 7 29.5 9t28.5 2q15 25 27 51t24 50q18 39 34 77.5t31 79.5q-25 -3 -49.5 -6.5t-50.5 -8.5q-4 -1 -6.5 1t-3.5 5t0 6t5 4q28 5 55.5 9t56.5 7q28 78 51.5 156t47.5 157
q-53 -12 -103 -30.5t-98 -41.5q-8 -5 -12.5 2.5t3.5 11.5q91 45 189 70t198 27zM78 106q8 8 15 17.5t15 20.5q-8 -2 -15 -3t-15 -5q-7 -2 -16.5 -5.5t-18.5 -8.5t-16 -11.5t-10 -13.5q-5 -13 3 -14.5t20 2.5t23.5 11t14.5 10zM333 866q-8 0 -8 8t8 8h4q8 0 8 -8t-8 -8h-4z
M396 862q-9 0 -9 8t9 8q8 0 8 -8t-8 -8z" />
    <glyph glyph-name="Igrave" unicode="&#xcc;" horiz-adv-x="457" 
d="M531 748q5 -5 1.5 -9t-8.5 -5q-27 0 -38.5 -0.5t-19.5 -0.5t-19 0.5t-38 0.5q-32 -46 -58 -103t-47.5 -119t-38.5 -124t-29.5 -116.5t-21 -98.5t-13.5 -69q29 1 46.5 2t32.5 2t33 2t48 1q8 -1 8 -9.5t-8 -8.5q-30 0 -48.5 -0.5t-34 -0.5t-33 -1t-47.5 -3q-5 -6 -10 -1
q-54 -3 -105 -6.5t-104 -8.5q-4 -1 -7 1.5t-3.5 5.5t0.5 6t6 3q53 5 104.5 9t103.5 7q11 54 26.5 128.5t39 159t56.5 173t80 169.5q-66 2 -132 -1t-132 1q-8 1 -8 10t8 8q70 -5 141 -2.5t141 0.5q15 12 29 22t29 12.5t32 -5t38 -31.5zM504 750q-12 14 -23 17t-20 0.5t-17 -8
t-14 -8.5q22 0 28 -0.5t8.5 -0.5h8.5h29zM424 833q-17 18 -34.5 34.5t-36.5 30.5q-6 5 -2 13t11 1q41 -31 74 -66q7 -7 0 -12.5t-12 -0.5z" />
    <glyph glyph-name="Iacute" unicode="&#xcd;" horiz-adv-x="457" 
d="M531 748q5 -5 1.5 -9t-8.5 -5q-27 0 -38.5 -0.5t-19.5 -0.5t-19 0.5t-38 0.5q-32 -46 -58 -103t-47.5 -119t-38.5 -124t-29.5 -116.5t-21 -98.5t-13.5 -69q29 1 46.5 2t32.5 2t33 2t48 1q8 -1 8 -9.5t-8 -8.5q-30 0 -48.5 -0.5t-34 -0.5t-33 -1t-47.5 -3q-5 -6 -10 -1
q-54 -3 -105 -6.5t-104 -8.5q-4 -1 -7 1.5t-3.5 5.5t0.5 6t6 3q53 5 104.5 9t103.5 7q11 54 26.5 128.5t39 159t56.5 173t80 169.5q-66 2 -132 -1t-132 1q-8 1 -8 10t8 8q70 -5 141 -2.5t141 0.5q15 12 29 22t29 12.5t32 -5t38 -31.5zM504 750q-12 14 -23 17t-20 0.5t-17 -8
t-14 -8.5q22 0 28 -0.5t8.5 -0.5h8.5h29zM381 840q-5 -5 -12 0.5t0 12.5q33 35 74 66q7 7 11 -1t-2 -13q-19 -14 -36.5 -30.5t-34.5 -34.5z" />
    <glyph glyph-name="Icircumflex" unicode="&#xce;" horiz-adv-x="457" 
d="M531 748q5 -5 1.5 -9t-8.5 -5q-27 0 -38.5 -0.5t-19.5 -0.5t-19 0.5t-38 0.5q-32 -46 -58 -103t-47.5 -119t-38.5 -124t-29.5 -116.5t-21 -98.5t-13.5 -69q29 1 46.5 2t32.5 2t33 2t48 1q8 -1 8 -9.5t-8 -8.5q-30 0 -48.5 -0.5t-34 -0.5t-33 -1t-47.5 -3q-5 -6 -10 -1
q-54 -3 -105 -6.5t-104 -8.5q-4 -1 -7 1.5t-3.5 5.5t0.5 6t6 3q53 5 104.5 9t103.5 7q11 54 26.5 128.5t39 159t56.5 173t80 169.5q-66 2 -132 -1t-132 1q-8 1 -8 10t8 8q70 -5 141 -2.5t141 0.5q15 12 29 22t29 12.5t32 -5t38 -31.5zM504 750q-12 14 -23 17t-20 0.5t-17 -8
t-14 -8.5q22 0 28 -0.5t8.5 -0.5h8.5h29zM472 856q2 -4 1 -7t-4 -4.5t-6.5 -1.5t-5.5 3q-14 20 -25 41.5t-22 41.5q-30 -38 -57 -78q-6 -6 -13 -2.5t-2 11.5q16 23 33.5 45.5t36.5 45.5q2 4 6.5 3.5t5.5 -4.5q13 -25 25 -48t27 -46z" />
    <glyph glyph-name="Idieresis" unicode="&#xcf;" horiz-adv-x="457" 
d="M531 748q5 -5 1.5 -9t-8.5 -5q-27 0 -38.5 -0.5t-19.5 -0.5t-19 0.5t-38 0.5q-32 -46 -58 -103t-47.5 -119t-38.5 -124t-29.5 -116.5t-21 -98.5t-13.5 -69q29 1 46.5 2t32.5 2t33 2t48 1q8 -1 8 -9.5t-8 -8.5q-30 0 -48.5 -0.5t-34 -0.5t-33 -1t-47.5 -3q-5 -6 -10 -1
q-54 -3 -105 -6.5t-104 -8.5q-4 -1 -7 1.5t-3.5 5.5t0.5 6t6 3q53 5 104.5 9t103.5 7q11 54 26.5 128.5t39 159t56.5 173t80 169.5q-66 2 -132 -1t-132 1q-8 1 -8 10t8 8q70 -5 141 -2.5t141 0.5q15 12 29 22t29 12.5t32 -5t38 -31.5zM504 750q-12 14 -23 17t-20 0.5t-17 -8
t-14 -8.5q22 0 28 -0.5t8.5 -0.5h8.5h29zM381 860q-8 0 -8 8t8 8h4q8 0 8 -8t-8 -8h-4zM444 856q-9 0 -9 8t9 8q8 0 8 -8t-8 -8z" />
    <glyph glyph-name="Ntilde" unicode="&#xd1;" horiz-adv-x="634" 
d="M656 719q6 -42 -2.5 -80t-19.5 -75q-11 -39 -21.5 -78.5t-21.5 -78.5q-11 -42 -22 -84.5t-19.5 -85t-14 -85.5t-3.5 -86q1 -4 -1.5 -6t-6 -2t-6.5 2t-4 6q-2 45 3.5 90.5t15 89.5t21.5 88t23 86q11 41 22.5 80t22.5 81q6 18 12 40.5t8.5 46t0 46t-14.5 40.5
q-13 19 -30.5 19t-36 -11t-37 -30t-34 -39.5t-28 -38.5t-17.5 -27q-42 -61 -79 -125t-74 -129q-31 -58 -61.5 -115t-62.5 -116q-3 -5 -10 -19.5t-16 -29.5t-19 -26.5t-20 -9.5q-12 2 -14 18.5t0.5 36.5t6.5 38.5t5 25.5q15 67 33 132t38 131q8 31 16.5 59.5t16.5 57.5
q8 22 15 44.5t5 44.5q-1 15 -7.5 19t-15 1t-17.5 -10.5t-15 -13.5q-15 -13 -27.5 -26.5t-23.5 -27.5q-29 -35 -53.5 -73.5t-45.5 -78.5q-5 -6 -12.5 -2t-4.5 10q25 45 52 85t58 77q7 9 19.5 25t28 30t32.5 22.5t32 1.5q10 -5 14 -15t4.5 -21.5t-1.5 -23t-5 -19.5
q-6 -28 -14.5 -56t-17.5 -54q-20 -71 -40.5 -141.5t-37.5 -142.5q-6 -25 -11.5 -53.5t-7.5 -55.5q0 -6 -1 -12t1 -13q2 2 2.5 3.5t2.5 3.5q66 109 124.5 222.5t126.5 223.5q33 57 69.5 113.5t82.5 104.5q19 16 43 31.5t50 9.5q12 -3 20.5 -10.5t14 -17.5t8.5 -21t4 -21z
M319 860q-2 -4 -5 -4t-5.5 2t-3 5.5t1.5 6.5q15 20 33.5 30.5t41.5 -4.5q15 -10 28.5 -19.5t27 -12t26.5 5t27 32.5q4 8 11 4t3 -11q-13 -23 -32 -37.5t-46 -9.5q-10 1 -17.5 6.5t-15 12t-15 12t-17.5 7.5q-14 4 -25 -6.5t-18 -19.5z" />
    <glyph glyph-name="Ograve" unicode="&#xd2;" horiz-adv-x="470" 
d="M468 618q6 -61 -3 -123t-29.5 -122t-51 -114.5t-69.5 -100.5q-18 -21 -40 -41t-47 -34t-52 -21.5t-57 -2.5q-53 9 -82.5 49.5t-34.5 92.5q-6 69 15.5 137.5t63.5 126.5q-5 36 0 74t18.5 74t35 68.5t49.5 56.5q18 16 40.5 29.5t47 20.5t50.5 6.5t51 -11.5q24 -11 41 -29
t28 -40.5t17.5 -47t8.5 -48.5zM341 220q28 41 50.5 88.5t37.5 98t21 102.5t2 102q-3 26 -9.5 52.5t-18.5 49t-31.5 39t-47.5 22.5q-26 6 -51.5 1t-49 -16.5t-44 -28t-36.5 -34.5q-35 -43 -52.5 -99.5t-14.5 -110.5q26 32 55.5 58t64.5 45q7 5 11 -2t-2 -11
q-37 -21 -68.5 -50.5t-58.5 -64.5q8 -42 29.5 -77.5t59.5 -61.5q8 -5 3.5 -11.5t-12.5 -3.5q-38 26 -60.5 60t-31.5 74q-38 -55 -56 -116t-12 -124q3 -31 16 -57t34 -43t48 -23.5t58 1.5q27 7 50.5 22t44 34t38.5 41t33 44zM335 844q-17 18 -34.5 34.5t-36.5 30.5
q-6 5 -2 13t11 1q41 -31 74 -66q7 -7 0 -12.5t-12 -0.5z" />
    <glyph glyph-name="Oacute" unicode="&#xd3;" horiz-adv-x="470" 
d="M468 618q6 -61 -3 -123t-29.5 -122t-51 -114.5t-69.5 -100.5q-18 -21 -40 -41t-47 -34t-52 -21.5t-57 -2.5q-53 9 -82.5 49.5t-34.5 92.5q-6 69 15.5 137.5t63.5 126.5q-5 36 0 74t18.5 74t35 68.5t49.5 56.5q18 16 40.5 29.5t47 20.5t50.5 6.5t51 -11.5q24 -11 41 -29
t28 -40.5t17.5 -47t8.5 -48.5zM341 220q28 41 50.5 88.5t37.5 98t21 102.5t2 102q-3 26 -9.5 52.5t-18.5 49t-31.5 39t-47.5 22.5q-26 6 -51.5 1t-49 -16.5t-44 -28t-36.5 -34.5q-35 -43 -52.5 -99.5t-14.5 -110.5q26 32 55.5 58t64.5 45q7 5 11 -2t-2 -11
q-37 -21 -68.5 -50.5t-58.5 -64.5q8 -42 29.5 -77.5t59.5 -61.5q8 -5 3.5 -11.5t-12.5 -3.5q-38 26 -60.5 60t-31.5 74q-38 -55 -56 -116t-12 -124q3 -31 16 -57t34 -43t48 -23.5t58 1.5q27 7 50.5 22t44 34t38.5 41t33 44zM297 851q-5 -5 -12 0.5t0 12.5q33 35 74 66
q7 7 11 -1t-2 -13q-19 -14 -36.5 -30.5t-34.5 -34.5z" />
    <glyph glyph-name="Ocircumflex" unicode="&#xd4;" horiz-adv-x="470" 
d="M468 618q6 -61 -3 -123t-29.5 -122t-51 -114.5t-69.5 -100.5q-18 -21 -40 -41t-47 -34t-52 -21.5t-57 -2.5q-53 9 -82.5 49.5t-34.5 92.5q-6 69 15.5 137.5t63.5 126.5q-5 36 0 74t18.5 74t35 68.5t49.5 56.5q18 16 40.5 29.5t47 20.5t50.5 6.5t51 -11.5q24 -11 41 -29
t28 -40.5t17.5 -47t8.5 -48.5zM341 220q28 41 50.5 88.5t37.5 98t21 102.5t2 102q-3 26 -9.5 52.5t-18.5 49t-31.5 39t-47.5 22.5q-26 6 -51.5 1t-49 -16.5t-44 -28t-36.5 -34.5q-35 -43 -52.5 -99.5t-14.5 -110.5q26 32 55.5 58t64.5 45q7 5 11 -2t-2 -11
q-37 -21 -68.5 -50.5t-58.5 -64.5q8 -42 29.5 -77.5t59.5 -61.5q8 -5 3.5 -11.5t-12.5 -3.5q-38 26 -60.5 60t-31.5 74q-38 -55 -56 -116t-12 -124q3 -31 16 -57t34 -43t48 -23.5t58 1.5q27 7 50.5 22t44 34t38.5 41t33 44zM381 856q2 -4 1 -7t-4 -4.5t-6.5 -1.5t-5.5 3
q-14 20 -25 41.5t-22 41.5q-30 -38 -57 -78q-6 -6 -13 -2.5t-2 11.5q16 23 33.5 45.5t36.5 45.5q2 4 6.5 3.5t5.5 -4.5q13 -25 25 -48t27 -46z" />
    <glyph glyph-name="Otilde" unicode="&#xd5;" horiz-adv-x="470" 
d="M468 618q6 -61 -3 -123t-29.5 -122t-51 -114.5t-69.5 -100.5q-18 -21 -40 -41t-47 -34t-52 -21.5t-57 -2.5q-53 9 -82.5 49.5t-34.5 92.5q-6 69 15.5 137.5t63.5 126.5q-5 36 0 74t18.5 74t35 68.5t49.5 56.5q18 16 40.5 29.5t47 20.5t50.5 6.5t51 -11.5q24 -11 41 -29
t28 -40.5t17.5 -47t8.5 -48.5zM341 220q28 41 50.5 88.5t37.5 98t21 102.5t2 102q-3 26 -9.5 52.5t-18.5 49t-31.5 39t-47.5 22.5q-26 6 -51.5 1t-49 -16.5t-44 -28t-36.5 -34.5q-35 -43 -52.5 -99.5t-14.5 -110.5q26 32 55.5 58t64.5 45q7 5 11 -2t-2 -11
q-37 -21 -68.5 -50.5t-58.5 -64.5q8 -42 29.5 -77.5t59.5 -61.5q8 -5 3.5 -11.5t-12.5 -3.5q-38 26 -60.5 60t-31.5 74q-38 -55 -56 -116t-12 -124q3 -31 16 -57t34 -43t48 -23.5t58 1.5q27 7 50.5 22t44 34t38.5 41t33 44zM245 863q-2 -4 -5 -4t-5.5 2t-3 5.5t1.5 6.5
q15 20 33.5 30.5t41.5 -4.5q15 -10 28.5 -19.5t27 -12t26.5 5t27 32.5q4 8 11 4t3 -11q-13 -23 -32 -37.5t-46 -9.5q-10 1 -17.5 6.5t-15 12t-15 12t-17.5 7.5q-14 4 -25 -6.5t-18 -19.5z" />
    <glyph glyph-name="Odieresis" unicode="&#xd6;" horiz-adv-x="470" 
d="M468 618q6 -61 -3 -123t-29.5 -122t-51 -114.5t-69.5 -100.5q-18 -21 -40 -41t-47 -34t-52 -21.5t-57 -2.5q-53 9 -82.5 49.5t-34.5 92.5q-6 69 15.5 137.5t63.5 126.5q-5 36 0 74t18.5 74t35 68.5t49.5 56.5q18 16 40.5 29.5t47 20.5t50.5 6.5t51 -11.5q24 -11 41 -29
t28 -40.5t17.5 -47t8.5 -48.5zM341 220q28 41 50.5 88.5t37.5 98t21 102.5t2 102q-3 26 -9.5 52.5t-18.5 49t-31.5 39t-47.5 22.5q-26 6 -51.5 1t-49 -16.5t-44 -28t-36.5 -34.5q-35 -43 -52.5 -99.5t-14.5 -110.5q26 32 55.5 58t64.5 45q7 5 11 -2t-2 -11
q-37 -21 -68.5 -50.5t-58.5 -64.5q8 -42 29.5 -77.5t59.5 -61.5q8 -5 3.5 -11.5t-12.5 -3.5q-38 26 -60.5 60t-31.5 74q-38 -55 -56 -116t-12 -124q3 -31 16 -57t34 -43t48 -23.5t58 1.5q27 7 50.5 22t44 34t38.5 41t33 44zM305 858q-8 0 -8 8t8 8h4q8 0 8 -8t-8 -8h-4z
M368 854q-9 0 -9 8t9 8q8 0 8 -8t-8 -8z" />
    <glyph glyph-name="multiply" unicode="&#xd7;" horiz-adv-x="197" 
d="M146 251q6 -6 0.5 -12t-11.5 0q-8 9 -18.5 19t-21.5 19q-13 -8 -26 -17t-27 -17q-3 -2 -5.5 -1t-4.5 3.5t-2 6t3 6.5q12 7 24.5 15t24.5 16q-10 8 -19 15t-17 14q-8 5 -2.5 11t13.5 1q10 -8 19.5 -15t19.5 -16q13 9 24 18t22 20q6 5 11 -2.5t-1 -12.5q-11 -9 -21.5 -17
t-22.5 -17q11 -9 20.5 -18t17.5 -19z" />
    <glyph glyph-name="Oslash" unicode="&#xd8;" horiz-adv-x="470" 
d="M424 803q3 8 10.5 3.5t3.5 -11.5l-21 -45q24 -26 35.5 -61.5t15.5 -70.5q6 -61 -3 -123t-29.5 -122t-51 -114.5t-69.5 -100.5q-18 -21 -40 -41t-47 -34t-52 -21.5t-57 -2.5q-27 5 -45 16l-16 -26q-4 -7 -10.5 -3t-2.5 12l16 26q-26 20 -40.5 51t-18.5 66
q-6 69 15.5 137.5t63.5 126.5q-5 36 0 74t18.5 74t35 68.5t49.5 56.5q18 16 40.5 29.5t47 20.5t50.5 6.5t51 -11.5q9 -5 16.5 -10t15.5 -11zM341 220q28 41 50.5 88.5t37.5 98t21 102.5t2 102q-4 32 -13.5 65t-29.5 58q-36 -77 -75.5 -160t-81.5 -166t-84.5 -163.5
t-84.5 -153.5q20 -12 43 -16t49 4q27 7 50.5 22t44 34t38.5 41t33 44zM188 322l1 -1q55 108 107.5 216.5t100.5 209.5q-21 20 -52 27q-26 6 -51.5 1t-49 -16.5t-44 -28t-36.5 -34.5q-35 -43 -52.5 -99.5t-14.5 -110.5q26 32 55.5 58t64.5 45q7 5 11 -2t-2 -11
q-37 -21 -68.5 -50.5t-58.5 -64.5q8 -42 29.5 -77.5t59.5 -61.5zM19 201q3 -32 16.5 -58t34.5 -43q28 49 55.5 100.5t55.5 105.5q-1 0 -2 1q-38 26 -60.5 60t-31.5 74q-38 -55 -56 -116t-12 -124z" />
    <glyph glyph-name="Ugrave" unicode="&#xd9;" horiz-adv-x="518" 
d="M547 823q7 -4 5 -10q-31 -93 -56.5 -185.5t-42.5 -189.5q-17 -93 -25.5 -188t5.5 -189q1 -8 -7 -10.5t-9 5.5q-14 91 -7 182t22 182q14 80 33.5 158t43.5 156q-39 -72 -78 -141.5t-81 -138.5q-22 -36 -45 -72.5t-48.5 -71t-54.5 -66.5t-63 -58q-11 -9 -23.5 -16
t-26.5 -10t-28.5 -1.5t-27.5 10.5q-14 9 -20.5 24t-9 31.5t-2.5 33.5v31q1 98 24.5 191.5t51.5 186.5q3 8 11 5.5t6 -10.5q-24 -79 -46 -158.5t-28 -163.5q-2 -18 -4 -46t2 -55t16.5 -46t39.5 -18q19 0 37.5 10t34.5 25t30 31.5t25 30.5q52 59 93.5 125.5t80.5 133.5
q42 72 82 144l80 144q3 6 10 4zM321 836q-17 18 -34.5 34.5t-36.5 30.5q-6 5 -2 13t11 1q41 -31 74 -66q7 -7 0 -12.5t-12 -0.5z" />
    <glyph glyph-name="Uacute" unicode="&#xda;" horiz-adv-x="518" 
d="M547 823q7 -4 5 -10q-31 -93 -56.5 -185.5t-42.5 -189.5q-17 -93 -25.5 -188t5.5 -189q1 -8 -7 -10.5t-9 5.5q-14 91 -7 182t22 182q14 80 33.5 158t43.5 156q-39 -72 -78 -141.5t-81 -138.5q-22 -36 -45 -72.5t-48.5 -71t-54.5 -66.5t-63 -58q-11 -9 -23.5 -16
t-26.5 -10t-28.5 -1.5t-27.5 10.5q-14 9 -20.5 24t-9 31.5t-2.5 33.5v31q1 98 24.5 191.5t51.5 186.5q3 8 11 5.5t6 -10.5q-24 -79 -46 -158.5t-28 -163.5q-2 -18 -4 -46t2 -55t16.5 -46t39.5 -18q19 0 37.5 10t34.5 25t30 31.5t25 30.5q52 59 93.5 125.5t80.5 133.5
q42 72 82 144l80 144q3 6 10 4zM273 826q-5 -5 -12 0.5t0 12.5q33 35 74 66q7 7 11 -1t-2 -13q-19 -14 -36.5 -30.5t-34.5 -34.5z" />
    <glyph glyph-name="Ucircumflex" unicode="&#xdb;" horiz-adv-x="518" 
d="M547 823q7 -4 5 -10q-31 -93 -56.5 -185.5t-42.5 -189.5q-17 -93 -25.5 -188t5.5 -189q1 -8 -7 -10.5t-9 5.5q-14 91 -7 182t22 182q14 80 33.5 158t43.5 156q-39 -72 -78 -141.5t-81 -138.5q-22 -36 -45 -72.5t-48.5 -71t-54.5 -66.5t-63 -58q-11 -9 -23.5 -16
t-26.5 -10t-28.5 -1.5t-27.5 10.5q-14 9 -20.5 24t-9 31.5t-2.5 33.5v31q1 98 24.5 191.5t51.5 186.5q3 8 11 5.5t6 -10.5q-24 -79 -46 -158.5t-28 -163.5q-2 -18 -4 -46t2 -55t16.5 -46t39.5 -18q19 0 37.5 10t34.5 25t30 31.5t25 30.5q52 59 93.5 125.5t80.5 133.5
q42 72 82 144l80 144q3 6 10 4zM371 850q2 -4 1 -7t-4 -4.5t-6.5 -1.5t-5.5 3q-14 20 -25 41.5t-22 41.5q-30 -38 -57 -78q-6 -6 -13 -2.5t-2 11.5q16 23 33.5 45.5t36.5 45.5q2 4 6.5 3.5t5.5 -4.5q13 -25 25 -48t27 -46z" />
    <glyph glyph-name="Udieresis" unicode="&#xdc;" horiz-adv-x="518" 
d="M547 823q7 -4 5 -10q-31 -93 -56.5 -185.5t-42.5 -189.5q-17 -93 -25.5 -188t5.5 -189q1 -8 -7 -10.5t-9 5.5q-14 91 -7 182t22 182q14 80 33.5 158t43.5 156q-39 -72 -78 -141.5t-81 -138.5q-22 -36 -45 -72.5t-48.5 -71t-54.5 -66.5t-63 -58q-11 -9 -23.5 -16
t-26.5 -10t-28.5 -1.5t-27.5 10.5q-14 9 -20.5 24t-9 31.5t-2.5 33.5v31q1 98 24.5 191.5t51.5 186.5q3 8 11 5.5t6 -10.5q-24 -79 -46 -158.5t-28 -163.5q-2 -18 -4 -46t2 -55t16.5 -46t39.5 -18q19 0 37.5 10t34.5 25t30 31.5t25 30.5q52 59 93.5 125.5t80.5 133.5
q42 72 82 144l80 144q3 6 10 4zM273 852q-8 0 -8 8t8 8h4q8 0 8 -8t-8 -8h-4zM336 848q-9 0 -9 8t9 8q8 0 8 -8t-8 -8z" />
    <glyph glyph-name="Yacute" unicode="&#xdd;" horiz-adv-x="465" 
d="M526 795q5 6 12 2t2 -11q-4 -6 -8.5 -12t-9.5 -12q-33 -175 -113 -337q-33 -67 -72.5 -133t-87.5 -123q-23 -26 -49.5 -48.5t-56.5 -40.5q-24 -15 -52.5 -25.5t-57.5 0.5q-30 12 -32.5 34.5t9 48t30 49.5t30.5 37q47 52 104 91t117 75q7 4 11 -3t-2 -12
q-65 -38 -127.5 -81.5t-109.5 -103.5q-11 -14 -20 -28t-17 -30q-4 -9 -6 -19.5t-0.5 -19.5t8 -16t20.5 -9q17 -2 32.5 2t29.5 11q35 17 66 42t57 54q54 62 95.5 133.5t76.5 144.5q31 67 55 136t39 141q-30 -38 -60.5 -76.5t-63.5 -75.5q-40 -45 -85.5 -93t-98.5 -79
q-17 -10 -38 -13.5t-40 5.5q-17 9 -24.5 27.5t-9 40.5t0.5 44.5t4 38.5q6 51 19.5 100.5t27.5 97.5q2 8 9.5 6t5.5 -10q-10 -34 -19.5 -69.5t-17 -72t-10.5 -73.5t1 -74q2 -23 19.5 -36t40.5 -7q26 7 48.5 27t41.5 38q73 66 134.5 140t121.5 151q2 5 4 6l8 10zM313 832
q-5 -5 -12 0.5t0 12.5q33 35 74 66q7 7 11 -1t-2 -13q-19 -14 -36.5 -30.5t-34.5 -34.5z" />
    <glyph glyph-name="germandbls" unicode="&#xdf;" horiz-adv-x="316" 
d="M144 485q39 -8 69.5 -30.5t48.5 -54t21.5 -70t-11.5 -77.5q-17 -44 -52 -63.5t-72 -17.5t-68.5 25.5t-43.5 66.5q-3 8 5.5 10.5t10.5 -5.5q10 -38 41 -62t73 -20q43 4 68 34t31 72q6 34 -3 65.5t-29 55.5t-49.5 39.5t-63.5 17.5q-7 0 -8 6t4 9q0 2 2 2q23 12 43.5 26
t37.5 32q9 10 18.5 23.5t16 28.5t7 30t-9.5 27q-10 13 -24.5 12.5t-29 -8t-27.5 -19t-21 -19.5q-16 -20 -29.5 -40t-24.5 -43q-23 -48 -37.5 -100t-22.5 -106t-10.5 -108.5t-0.5 -105.5q0 -8 -8.5 -8t-8.5 8q-2 77 5 154t27 153q14 60 40 119t74 103q15 15 35 26.5t42 7.5
q19 -2 32.5 -13t15.5 -30q3 -24 -7 -46.5t-27 -42t-38.5 -36t-41.5 -28.5z" />
    <glyph glyph-name="agrave" unicode="&#xe0;" horiz-adv-x="198" 
d="M200 313q5 7 8 -1t-2 -14q-7 -9 -17 -24t-22.5 -29t-25.5 -24.5t-26 -10.5q-15 0 -18 12.5t-3 23.5q1 22 6 45q-9 -14 -19 -26.5t-21 -23.5q-8 -9 -19.5 -16.5t-22.5 -9.5t-20 4t-12 23q-4 17 0.5 34.5t13.5 33.5q7 12 16 23t19 20q6 6 15.5 13t20 13t21.5 9t21 0
q5 0 5 -3h1q4 4 9 2q3 0 7 -6.5t0 -18.5l-6 -21t-8 -30.5t-7.5 -33.5t-4.5 -30q0 -17 8 -16.5t20 9.5q19 14 34.5 34.5t28.5 38.5zM72 280q2 3 8 13t13 22.5t13.5 25t9.5 21.5l1.5 4.5t3.5 2.5q-2 2 -2.5 2t-2.5 1q-1 -1 -7 -1q-11 5 -27 -4.5t-24 -16.5q-17 -12 -30.5 -29
t-20.5 -38q-2 -6 -3.5 -17t1 -20t9.5 -12t21 7q10 6 20 17.5t17 21.5zM115 499q-17 18 -34.5 34.5t-36.5 30.5q-6 5 -2 13t11 1q41 -31 74 -66q7 -7 0 -12.5t-12 -0.5z" />
    <glyph glyph-name="aacute" unicode="&#xe1;" horiz-adv-x="198" 
d="M200 313q5 7 8 -1t-2 -14q-7 -9 -17 -24t-22.5 -29t-25.5 -24.5t-26 -10.5q-15 0 -18 12.5t-3 23.5q1 22 6 45q-9 -14 -19 -26.5t-21 -23.5q-8 -9 -19.5 -16.5t-22.5 -9.5t-20 4t-12 23q-4 17 0.5 34.5t13.5 33.5q7 12 16 23t19 20q6 6 15.5 13t20 13t21.5 9t21 0
q5 0 5 -3h1q4 4 9 2q3 0 7 -6.5t0 -18.5l-6 -21t-8 -30.5t-7.5 -33.5t-4.5 -30q0 -17 8 -16.5t20 9.5q19 14 34.5 34.5t28.5 38.5zM72 280q2 3 8 13t13 22.5t13.5 25t9.5 21.5l1.5 4.5t3.5 2.5q-2 2 -2.5 2t-2.5 1q-1 -1 -7 -1q-11 5 -27 -4.5t-24 -16.5q-17 -12 -30.5 -29
t-20.5 -38q-2 -6 -3.5 -17t1 -20t9.5 -12t21 7q10 6 20 17.5t17 21.5zM70 500q-5 -5 -12 0.5t0 12.5q33 35 74 66q7 7 11 -1t-2 -13q-19 -14 -36.5 -30.5t-34.5 -34.5z" />
    <glyph glyph-name="acircumflex" unicode="&#xe2;" horiz-adv-x="198" 
d="M200 313q5 7 8 -1t-2 -14q-7 -9 -17 -24t-22.5 -29t-25.5 -24.5t-26 -10.5q-15 0 -18 12.5t-3 23.5q1 22 6 45q-9 -14 -19 -26.5t-21 -23.5q-8 -9 -19.5 -16.5t-22.5 -9.5t-20 4t-12 23q-4 17 0.5 34.5t13.5 33.5q7 12 16 23t19 20q6 6 15.5 13t20 13t21.5 9t21 0
q5 0 5 -3h1q4 4 9 2q3 0 7 -6.5t0 -18.5l-6 -21t-8 -30.5t-7.5 -33.5t-4.5 -30q0 -17 8 -16.5t20 9.5q19 14 34.5 34.5t28.5 38.5zM72 280q2 3 8 13t13 22.5t13.5 25t9.5 21.5l1.5 4.5t3.5 2.5q-2 2 -2.5 2t-2.5 1q-1 -1 -7 -1q-11 5 -27 -4.5t-24 -16.5q-17 -12 -30.5 -29
t-20.5 -38q-2 -6 -3.5 -17t1 -20t9.5 -12t21 7q10 6 20 17.5t17 21.5zM166 510q2 -4 1 -7t-4 -4.5t-6.5 -1.5t-5.5 3q-14 20 -25 41.5t-22 41.5q-30 -38 -57 -78q-6 -6 -13 -2.5t-2 11.5q16 23 33.5 45.5t36.5 45.5q2 4 6.5 3.5t5.5 -4.5q13 -25 25 -48t27 -46z" />
    <glyph glyph-name="atilde" unicode="&#xe3;" horiz-adv-x="198" 
d="M200 313q5 7 8 -1t-2 -14q-7 -9 -17 -24t-22.5 -29t-25.5 -24.5t-26 -10.5q-15 0 -18 12.5t-3 23.5q1 22 6 45q-9 -14 -19 -26.5t-21 -23.5q-8 -9 -19.5 -16.5t-22.5 -9.5t-20 4t-12 23q-4 17 0.5 34.5t13.5 33.5q7 12 16 23t19 20q6 6 15.5 13t20 13t21.5 9t21 0
q5 0 5 -3h1q4 4 9 2q3 0 7 -6.5t0 -18.5l-6 -21t-8 -30.5t-7.5 -33.5t-4.5 -30q0 -17 8 -16.5t20 9.5q19 14 34.5 34.5t28.5 38.5zM72 280q2 3 8 13t13 22.5t13.5 25t9.5 21.5l1.5 4.5t3.5 2.5q-2 2 -2.5 2t-2.5 1q-1 -1 -7 -1q-11 5 -27 -4.5t-24 -16.5q-17 -12 -30.5 -29
t-20.5 -38q-2 -6 -3.5 -17t1 -20t9.5 -12t21 7q10 6 20 17.5t17 21.5zM12 516q-2 -4 -5 -4t-5.5 2t-3 5.5t1.5 6.5q15 20 33.5 30.5t41.5 -4.5q15 -10 28.5 -19.5t27 -12t26.5 5t27 32.5q4 8 11 4t3 -11q-13 -23 -32 -37.5t-46 -9.5q-10 1 -17.5 6.5t-15 12t-15 12
t-17.5 7.5q-14 4 -25 -6.5t-18 -19.5z" />
    <glyph glyph-name="adieresis" unicode="&#xe4;" horiz-adv-x="198" 
d="M200 313q5 7 8 -1t-2 -14q-7 -9 -17 -24t-22.5 -29t-25.5 -24.5t-26 -10.5q-15 0 -18 12.5t-3 23.5q1 22 6 45q-9 -14 -19 -26.5t-21 -23.5q-8 -9 -19.5 -16.5t-22.5 -9.5t-20 4t-12 23q-4 17 0.5 34.5t13.5 33.5q7 12 16 23t19 20q6 6 15.5 13t20 13t21.5 9t21 0
q5 0 5 -3h1q4 4 9 2q3 0 7 -6.5t0 -18.5l-6 -21t-8 -30.5t-7.5 -33.5t-4.5 -30q0 -17 8 -16.5t20 9.5q19 14 34.5 34.5t28.5 38.5zM72 280q2 3 8 13t13 22.5t13.5 25t9.5 21.5l1.5 4.5t3.5 2.5q-2 2 -2.5 2t-2.5 1q-1 -1 -7 -1q-11 5 -27 -4.5t-24 -16.5q-17 -12 -30.5 -29
t-20.5 -38q-2 -6 -3.5 -17t1 -20t9.5 -12t21 7q10 6 20 17.5t17 21.5zM68 502q-8 0 -8 8t8 8h4q8 0 8 -8t-8 -8h-4zM131 498q-9 0 -9 8t9 8q8 0 8 -8t-8 -8z" />
    <glyph glyph-name="aring" unicode="&#xe5;" horiz-adv-x="198" 
d="M200 313q5 7 8 -1t-2 -14q-7 -9 -17 -24t-22.5 -29t-25.5 -24.5t-26 -10.5q-15 0 -18 12.5t-3 23.5q1 22 6 45q-9 -14 -19 -26.5t-21 -23.5q-8 -9 -19.5 -16.5t-22.5 -9.5t-20 4t-12 23q-4 17 0.5 34.5t13.5 33.5q7 12 16 23t19 20q6 6 15.5 13t20 13t21.5 9t21 0
q5 0 5 -3h1q4 4 9 2q3 0 7 -6.5t0 -18.5l-6 -21t-8 -30.5t-7.5 -33.5t-4.5 -30q0 -17 8 -16.5t20 9.5q19 14 34.5 34.5t28.5 38.5zM72 280q2 3 8 13t13 22.5t13.5 25t9.5 21.5l1.5 4.5t3.5 2.5q-2 2 -2.5 2t-2.5 1q-1 -1 -7 -1q-11 5 -27 -4.5t-24 -16.5q-17 -12 -30.5 -29
t-20.5 -38q-2 -6 -3.5 -17t1 -20t9.5 -12t21 7q10 6 20 17.5t17 21.5zM92 568q8 4 12 -4t-4 -11q-7 -4 -16 -8.5t-12 -13.5q-2 -3 -2 -7t2 -6q3 -6 9.5 -5t11.5 1q8 3 16.5 6t13.5 11q3 5 2.5 13.5t-8.5 9.5q-8 0 -8 8t8 7q14 -1 21 -12t5 -24q-4 -15 -17.5 -22.5
t-27.5 -11.5q-15 -3 -28.5 0.5t-15.5 22.5q-2 17 11 28t27 18z" />
    <glyph glyph-name="ae" unicode="&#xe6;" horiz-adv-x="280" 
d="M283 313q6 5 7 -4t-4 -14q-14 -13 -29.5 -28t-33.5 -28.5t-37 -23.5t-40 -13q-30 -2 -41 20t-9 48l3 18q0 1 0.5 1.5t0.5 1.5q-9 -14 -19 -26.5t-21 -23.5q-8 -9 -19.5 -16.5t-22.5 -9.5t-20 4t-12 23q-4 17 0.5 34.5t13.5 33.5q7 12 16 23t19 20q6 6 15.5 13t20 13
t21.5 9t21 0q5 0 5 -3h1q4 4 9 2q3 0 7 -6.5t0 -18.5q0 -1 -1 -2q16 19 34 30q7 3 16.5 6t18.5 2.5t16 -5t8 -15.5q2 -18 -11 -33.5t-31 -27.5t-37 -20.5t-30 -13.5q-1 -1 -2 -1h-1q-2 -12 -2.5 -24t3.5 -22t12.5 -14.5t23.5 -1.5q19 4 37 14t34.5 23.5t31.5 28.5t28 27z
M72 280q2 3 8 13t13 22.5t13.5 25t9.5 21.5l1.5 4.5t3.5 2.5q-2 2 -2.5 2t-2.5 1q-1 -1 -7 -1q-11 5 -27 -4.5t-24 -16.5q-17 -12 -30.5 -29t-20.5 -38q-2 -6 -3.5 -17t1 -20t9.5 -12t21 7q10 6 20 17.5t17 21.5zM158 359q-13 -11 -22 -26t-15 -29q12 6 30 15.5t33.5 20.5
t24 22t0.5 19q-5 4 -12.5 2.5t-15 -6t-14 -10t-9.5 -8.5z" />
    <glyph glyph-name="ccedilla" unicode="&#xe7;" horiz-adv-x="219" 
d="M93 348q-5 -6 -11 0t0 12q13 16 9.5 18t-12.5 -2q-17 -7 -31.5 -21t-24.5 -31q-10 -16 -13.5 -36.5t1 -38t18.5 -28.5t39 -9q19 2 39.5 13.5t40.5 26.5t39 32.5t35 31.5q5 6 7 -2t-4 -14q-29 -30 -62.5 -57.5t-74.5 -41.5l-17 -5q-3 -5 -6 -12.5l-5 -12.5q0 -3 3.5 -5
t8 -5t8 -8t4.5 -15q2 -19 -13 -29.5t-32 -11.5q-8 0 -8 8.5t8 9.5q6 0 13.5 3.5t11.5 8t3.5 10t-9.5 9.5q-5 2 -8 3t-7 6q-5 8 0 19.5t10 21.5q-26 2 -44 21t-20 49q-1 20 6 39.5t19 37t28 31t34 21.5q8 3 20 5t18 -9t-4 -23.5t-17 -19.5z" />
    <glyph glyph-name="egrave" unicode="&#xe8;" horiz-adv-x="173" 
d="M176 313q6 5 7 -4t-4 -14q-14 -13 -29.5 -28t-33.5 -28.5t-37 -23.5t-40 -13q-30 -2 -41 20t-9 48q5 33 23.5 67.5t48.5 52.5q7 3 16.5 6t18.5 2.5t16 -5t8 -15.5q2 -18 -11 -33.5t-31 -27.5t-37 -20.5t-30 -13.5q-1 -1 -2 -1h-1q-2 -12 -2.5 -24t3.5 -22t12.5 -14.5
t23.5 -1.5q19 4 37 14t34.5 23.5t31.5 28.5t28 27zM51 359q-13 -11 -22 -26t-15 -29q12 6 30 15.5t33.5 20.5t24 22t0.5 19q-5 4 -12.5 2.5t-15 -6t-14 -10t-9.5 -8.5zM116 500q-17 18 -34.5 34.5t-36.5 30.5q-6 5 -2 13t11 1q41 -31 74 -66q7 -7 0 -12.5t-12 -0.5z" />
    <glyph glyph-name="eacute" unicode="&#xe9;" horiz-adv-x="173" 
d="M176 313q6 5 7 -4t-4 -14q-14 -13 -29.5 -28t-33.5 -28.5t-37 -23.5t-40 -13q-30 -2 -41 20t-9 48q5 33 23.5 67.5t48.5 52.5q7 3 16.5 6t18.5 2.5t16 -5t8 -15.5q2 -18 -11 -33.5t-31 -27.5t-37 -20.5t-30 -13.5q-1 -1 -2 -1h-1q-2 -12 -2.5 -24t3.5 -22t12.5 -14.5
t23.5 -1.5q19 4 37 14t34.5 23.5t31.5 28.5t28 27zM51 359q-13 -11 -22 -26t-15 -29q12 6 30 15.5t33.5 20.5t24 22t0.5 19q-5 4 -12.5 2.5t-15 -6t-14 -10t-9.5 -8.5zM58 498q-5 -5 -12 0.5t0 12.5q33 35 74 66q7 7 11 -1t-2 -13q-19 -14 -36.5 -30.5t-34.5 -34.5z" />
    <glyph glyph-name="ecircumflex" unicode="&#xea;" horiz-adv-x="173" 
d="M176 313q6 5 7 -4t-4 -14q-14 -13 -29.5 -28t-33.5 -28.5t-37 -23.5t-40 -13q-30 -2 -41 20t-9 48q5 33 23.5 67.5t48.5 52.5q7 3 16.5 6t18.5 2.5t16 -5t8 -15.5q2 -18 -11 -33.5t-31 -27.5t-37 -20.5t-30 -13.5q-1 -1 -2 -1h-1q-2 -12 -2.5 -24t3.5 -22t12.5 -14.5
t23.5 -1.5q19 4 37 14t34.5 23.5t31.5 28.5t28 27zM51 359q-13 -11 -22 -26t-15 -29q12 6 30 15.5t33.5 20.5t24 22t0.5 19q-5 4 -12.5 2.5t-15 -6t-14 -10t-9.5 -8.5zM154 511q2 -4 1 -7t-4 -4.5t-6.5 -1.5t-5.5 3q-14 20 -25 41.5t-22 41.5q-30 -38 -57 -78
q-6 -6 -13 -2.5t-2 11.5q16 23 33.5 45.5t36.5 45.5q2 4 6.5 3.5t5.5 -4.5q13 -25 25 -48t27 -46z" />
    <glyph glyph-name="edieresis" unicode="&#xeb;" horiz-adv-x="173" 
d="M176 313q6 5 7 -4t-4 -14q-14 -13 -29.5 -28t-33.5 -28.5t-37 -23.5t-40 -13q-30 -2 -41 20t-9 48q5 33 23.5 67.5t48.5 52.5q7 3 16.5 6t18.5 2.5t16 -5t8 -15.5q2 -18 -11 -33.5t-31 -27.5t-37 -20.5t-30 -13.5q-1 -1 -2 -1h-1q-2 -12 -2.5 -24t3.5 -22t12.5 -14.5
t23.5 -1.5q19 4 37 14t34.5 23.5t31.5 28.5t28 27zM51 359q-13 -11 -22 -26t-15 -29q12 6 30 15.5t33.5 20.5t24 22t0.5 19q-5 4 -12.5 2.5t-15 -6t-14 -10t-9.5 -8.5zM56 505q-8 0 -8 8t8 8h4q8 0 8 -8t-8 -8h-4zM119 501q-9 0 -9 8t9 8q8 0 8 -8t-8 -8z" />
    <glyph glyph-name="igrave" unicode="&#xec;" horiz-adv-x="167" 
d="M169 315q4 7 8 -1.5t0 -14.5q-6 -8 -24.5 -31t-42.5 -46t-49.5 -39t-46.5 -11q-18 5 -23.5 22t-5.5 33q1 21 3 34.5t5 25t6.5 24t8.5 32.5q2 8 10.5 6t6.5 -10q-3 -11 -10.5 -35t-11.5 -49t-2 -45.5t19 -23.5q13 -3 36.5 13t46.5 39t42 45.5t24 31.5zM113 504
q-17 18 -34.5 34.5t-36.5 30.5q-6 5 -2 13t11 1q41 -31 74 -66q7 -7 0 -12.5t-12 -0.5z" />
    <glyph glyph-name="iacute" unicode="&#xed;" horiz-adv-x="167" 
d="M169 315q4 7 8 -1.5t0 -14.5q-6 -8 -24.5 -31t-42.5 -46t-49.5 -39t-46.5 -11q-18 5 -23.5 22t-5.5 33q1 21 3 34.5t5 25t6.5 24t8.5 32.5q2 8 10.5 6t6.5 -10q-3 -11 -10.5 -35t-11.5 -49t-2 -45.5t19 -23.5q13 -3 36.5 13t46.5 39t42 45.5t24 31.5zM55 501
q-5 -5 -12 0.5t0 12.5q33 35 74 66q7 7 11 -1t-2 -13q-19 -14 -36.5 -30.5t-34.5 -34.5z" />
    <glyph glyph-name="icircumflex" unicode="&#xee;" horiz-adv-x="167" 
d="M169 315q4 7 8 -1.5t0 -14.5q-6 -8 -24.5 -31t-42.5 -46t-49.5 -39t-46.5 -11q-18 5 -23.5 22t-5.5 33q1 21 3 34.5t5 25t6.5 24t8.5 32.5q2 8 10.5 6t6.5 -10q-3 -11 -10.5 -35t-11.5 -49t-2 -45.5t19 -23.5q13 -3 36.5 13t46.5 39t42 45.5t24 31.5zM151 509q2 -4 1 -7
t-4 -4.5t-6.5 -1.5t-5.5 3q-14 20 -25 41.5t-22 41.5q-30 -38 -57 -78q-6 -6 -13 -2.5t-2 11.5q16 23 33.5 45.5t36.5 45.5q2 4 6.5 3.5t5.5 -4.5q13 -25 25 -48t27 -46z" />
    <glyph glyph-name="idieresis" unicode="&#xef;" horiz-adv-x="167" 
d="M169 315q4 7 8 -1.5t0 -14.5q-6 -8 -24.5 -31t-42.5 -46t-49.5 -39t-46.5 -11q-18 5 -23.5 22t-5.5 33q1 21 3 34.5t5 25t6.5 24t8.5 32.5q2 8 10.5 6t6.5 -10q-3 -11 -10.5 -35t-11.5 -49t-2 -45.5t19 -23.5q13 -3 36.5 13t46.5 39t42 45.5t24 31.5zM53 500q-8 0 -8 8
t8 8h4q8 0 8 -8t-8 -8h-4zM116 496q-9 0 -9 8t9 8q8 0 8 -8t-8 -8z" />
    <glyph glyph-name="ntilde" unicode="&#xf1;" horiz-adv-x="295" 
d="M295 319q7 5 7.5 -3t-5.5 -13q-6 -6 -22 -21t-34 -27.5t-35 -17.5t-25 9q-5 8 -1.5 18.5t6.5 18.5q6 16 11.5 33.5t7.5 34.5q1 16 -5 20.5t-17 2t-24.5 -10.5t-26.5 -17t-23 -17.5t-14 -12.5q-38 -30 -71 -66t-53 -78q-2 -9 -6 -16q-3 -8 -10.5 -4.5t-5.5 9.5q1 5 3 8.5
t4 7.5q23 57 38.5 117.5t31.5 120.5q2 8 10 5.5t6 -10.5q-12 -40 -21.5 -82.5t-22.5 -86.5q15 21 33.5 39.5t36.5 35.5q12 10 26.5 23t30 24t32 19t32.5 10q18 2 25.5 -5t8.5 -19.5t-3 -28t-9 -30.5t-9.5 -28t-5.5 -20q1 -7 8 -6t17 6.5t22 14.5t22.5 17.5t18.5 15.5t11 10z
M60 509q-2 -4 -5 -4t-5.5 2t-3 5.5t1.5 6.5q15 20 33.5 30.5t41.5 -4.5q15 -10 28.5 -19.5t27 -12t26.5 5t27 32.5q4 8 11 4t3 -11q-13 -23 -32 -37.5t-46 -9.5q-10 1 -17.5 6.5t-15 12t-15 12t-17.5 7.5q-14 4 -25 -6.5t-18 -19.5z" />
    <glyph glyph-name="ograve" unicode="&#xf2;" horiz-adv-x="187" 
d="M189 318q5 7 7.5 -0.5t-3.5 -15.5q-17 -20 -44.5 -32.5t-59.5 -12.5q-4 -11 -13.5 -26t-21.5 -25.5t-25 -12t-25 15.5q-14 22 -13.5 51t11.5 58q-5 21 1 41.5t22 34.5q11 11 30.5 16t33.5 -9q10 -9 14 -24t3.5 -32.5t-4.5 -35.5t-8 -33q29 2 55.5 13.5t39.5 28.5zM88 357
q-2 17 -9 26.5t-16.5 11t-20 -6.5t-17.5 -25q2 4 8 10q2 3 5 3t5 -2t2.5 -5t-1.5 -6q-16 -20 -24 -48q5 -20 20.5 -28.5t36.5 -10.5q4 14 8.5 37.5t2.5 43.5zM23 213q8 -4 15 -1.5t13 9.5t11 17t9 21q-18 3 -32.5 9.5t-24.5 20.5l-2 -2q-1 -6 -2 -17t-0.5 -22t3.5 -21
t10 -14zM123 504q-17 18 -34.5 34.5t-36.5 30.5q-6 5 -2 13t11 1q41 -31 74 -66q7 -7 0 -12.5t-12 -0.5z" />
    <glyph glyph-name="oacute" unicode="&#xf3;" horiz-adv-x="187" 
d="M189 318q5 7 7.5 -0.5t-3.5 -15.5q-17 -20 -44.5 -32.5t-59.5 -12.5q-4 -11 -13.5 -26t-21.5 -25.5t-25 -12t-25 15.5q-14 22 -13.5 51t11.5 58q-5 21 1 41.5t22 34.5q11 11 30.5 16t33.5 -9q10 -9 14 -24t3.5 -32.5t-4.5 -35.5t-8 -33q29 2 55.5 13.5t39.5 28.5zM88 357
q-2 17 -9 26.5t-16.5 11t-20 -6.5t-17.5 -25q2 4 8 10q2 3 5 3t5 -2t2.5 -5t-1.5 -6q-16 -20 -24 -48q5 -20 20.5 -28.5t36.5 -10.5q4 14 8.5 37.5t2.5 43.5zM23 213q8 -4 15 -1.5t13 9.5t11 17t9 21q-18 3 -32.5 9.5t-24.5 20.5l-2 -2q-1 -6 -2 -17t-0.5 -22t3.5 -21
t10 -14zM65 504q-5 -5 -12 0.5t0 12.5q33 35 74 66q7 7 11 -1t-2 -13q-19 -14 -36.5 -30.5t-34.5 -34.5z" />
    <glyph glyph-name="ocircumflex" unicode="&#xf4;" horiz-adv-x="187" 
d="M189 318q5 7 7.5 -0.5t-3.5 -15.5q-17 -20 -44.5 -32.5t-59.5 -12.5q-4 -11 -13.5 -26t-21.5 -25.5t-25 -12t-25 15.5q-14 22 -13.5 51t11.5 58q-5 21 1 41.5t22 34.5q11 11 30.5 16t33.5 -9q10 -9 14 -24t3.5 -32.5t-4.5 -35.5t-8 -33q29 2 55.5 13.5t39.5 28.5zM88 357
q-2 17 -9 26.5t-16.5 11t-20 -6.5t-17.5 -25q2 4 8 10q2 3 5 3t5 -2t2.5 -5t-1.5 -6q-16 -20 -24 -48q5 -20 20.5 -28.5t36.5 -10.5q4 14 8.5 37.5t2.5 43.5zM23 213q8 -4 15 -1.5t13 9.5t11 17t9 21q-18 3 -32.5 9.5t-24.5 20.5l-2 -2q-1 -6 -2 -17t-0.5 -22t3.5 -21
t10 -14zM161 505q2 -4 1 -7t-4 -4.5t-6.5 -1.5t-5.5 3q-14 20 -25 41.5t-22 41.5q-30 -38 -57 -78q-6 -6 -13 -2.5t-2 11.5q16 23 33.5 45.5t36.5 45.5q2 4 6.5 3.5t5.5 -4.5q13 -25 25 -48t27 -46z" />
    <glyph glyph-name="otilde" unicode="&#xf5;" horiz-adv-x="187" 
d="M189 318q5 7 7.5 -0.5t-3.5 -15.5q-17 -20 -44.5 -32.5t-59.5 -12.5q-4 -11 -13.5 -26t-21.5 -25.5t-25 -12t-25 15.5q-14 22 -13.5 51t11.5 58q-5 21 1 41.5t22 34.5q11 11 30.5 16t33.5 -9q10 -9 14 -24t3.5 -32.5t-4.5 -35.5t-8 -33q29 2 55.5 13.5t39.5 28.5zM88 357
q-2 17 -9 26.5t-16.5 11t-20 -6.5t-17.5 -25q2 4 8 10q2 3 5 3t5 -2t2.5 -5t-1.5 -6q-16 -20 -24 -48q5 -20 20.5 -28.5t36.5 -10.5q4 14 8.5 37.5t2.5 43.5zM23 213q8 -4 15 -1.5t13 9.5t11 17t9 21q-18 3 -32.5 9.5t-24.5 20.5l-2 -2q-1 -6 -2 -17t-0.5 -22t3.5 -21
t10 -14zM7 513q-2 -4 -5 -4t-5.5 2t-3 5.5t1.5 6.5q15 20 33.5 30.5t41.5 -4.5q15 -10 28.5 -19.5t27 -12t26.5 5t27 32.5q4 8 11 4t3 -11q-13 -23 -32 -37.5t-46 -9.5q-10 1 -17.5 6.5t-15 12t-15 12t-17.5 7.5q-14 4 -25 -6.5t-18 -19.5z" />
    <glyph glyph-name="odieresis" unicode="&#xf6;" horiz-adv-x="187" 
d="M189 318q5 7 7.5 -0.5t-3.5 -15.5q-17 -20 -44.5 -32.5t-59.5 -12.5q-4 -11 -13.5 -26t-21.5 -25.5t-25 -12t-25 15.5q-14 22 -13.5 51t11.5 58q-5 21 1 41.5t22 34.5q11 11 30.5 16t33.5 -9q10 -9 14 -24t3.5 -32.5t-4.5 -35.5t-8 -33q29 2 55.5 13.5t39.5 28.5zM88 357
q-2 17 -9 26.5t-16.5 11t-20 -6.5t-17.5 -25q2 4 8 10q2 3 5 3t5 -2t2.5 -5t-1.5 -6q-16 -20 -24 -48q5 -20 20.5 -28.5t36.5 -10.5q4 14 8.5 37.5t2.5 43.5zM23 213q8 -4 15 -1.5t13 9.5t11 17t9 21q-18 3 -32.5 9.5t-24.5 20.5l-2 -2q-1 -6 -2 -17t-0.5 -22t3.5 -21
t10 -14zM62 506q-8 0 -8 8t8 8h4q8 0 8 -8t-8 -8h-4zM125 502q-9 0 -9 8t9 8q8 0 8 -8t-8 -8z" />
    <glyph glyph-name="divide" unicode="&#xf7;" horiz-adv-x="199" 
d="M43 285q-9 0 -9 8t9 8q28 2 56 2.5t57 -0.5q7 0 7 -8.5t-7 -8.5q-29 2 -57 1zM96 331q0 9 5.5 11t10 -0.5t6 -8t-6.5 -10.5q-4 -2 -9 0t-6 8zM81 254q0 8 8.5 8t8.5 -8v-3q0 -8 -8.5 -8t-8.5 8v3z" />
    <glyph glyph-name="oslash" unicode="&#xf8;" horiz-adv-x="187" 
d="M103 420q3 6 8 2.5t2 -8.5l-13 -28q10 -22 6 -53.5t-12 -56.5q29 2 55.5 13.5t39.5 28.5q5 7 7.5 -0.5t-3.5 -15.5q-17 -20 -44.5 -32.5t-59.5 -12.5q-4 -11 -13.5 -26t-21.5 -25.5t-25 -12t-25 15.5q-1 0 -1 0.5t-1 0.5l-14 -26q-3 -5 -7.5 -2t-1.5 9q5 9 9.5 16.5
t8.5 15.5q-8 21 -6 46t11 49q-5 21 1 41.5t22 34.5q11 11 30.5 16t33.5 -9l3 -4q3 5 5.5 10.5t5.5 12.5zM20 315q3 -14 14 -24q19 35 29.5 52.5t18.5 34.5q-10 19 -27.5 16t-29.5 -31q2 4 8 10q2 3 5 3t5 -2t2.5 -5t-1.5 -6q-16 -20 -24 -48zM23 213q8 -4 15 -1.5t13 9.5
t11 17t9 21q-22 3 -36 11l-23 -42q3 -10 11 -15zM88 357q0 2 -0.5 2.5t-0.5 2.5l-44 -78q13 -6 34 -8q4 14 8.5 37.5t2.5 43.5zM12 287q-1 -6 -2.5 -17.5t-0.5 -22.5l17 29q-8 6 -12 13z" />
    <glyph glyph-name="ugrave" unicode="&#xf9;" horiz-adv-x="218" 
d="M216 313q6 5 7.5 -2t-3.5 -14q-6 -8 -16 -20t-23 -23.5t-26.5 -18.5t-25.5 -5q-16 4 -19 17.5t-2 25.5v4q-12 -23 -30.5 -46t-45.5 -32q-19 -6 -29 0t-14 19q-5 18 -0.5 45.5t13.5 55.5t18 50.5t13 30.5t11.5 4t3.5 -11q-29 -61 -43 -132q-1 -5 -2 -13.5t0 -16.5
q2 -15 9 -17.5t17 1.5q15 6 28 17.5t24 26t19.5 30.5t14.5 31l4.5 13.5l5.5 16.5q2 7 9 6t7 -8q0 -2 -1 -4.5t-2 -4.5q-2 -9 -7 -25t-8 -31t-1 -26t14 -11q8 0 19 7.5t22 18t21.5 22t17.5 19.5zM138 493q-17 18 -34.5 34.5t-36.5 30.5q-6 5 -2 13t11 1q41 -31 74 -66
q7 -7 0 -12.5t-12 -0.5z" />
    <glyph glyph-name="uacute" unicode="&#xfa;" horiz-adv-x="218" 
d="M216 313q6 5 7.5 -2t-3.5 -14q-6 -8 -16 -20t-23 -23.5t-26.5 -18.5t-25.5 -5q-16 4 -19 17.5t-2 25.5v4q-12 -23 -30.5 -46t-45.5 -32q-19 -6 -29 0t-14 19q-5 18 -0.5 45.5t13.5 55.5t18 50.5t13 30.5t11.5 4t3.5 -11q-29 -61 -43 -132q-1 -5 -2 -13.5t0 -16.5
q2 -15 9 -17.5t17 1.5q15 6 28 17.5t24 26t19.5 30.5t14.5 31l4.5 13.5l5.5 16.5q2 7 9 6t7 -8q0 -2 -1 -4.5t-2 -4.5q-2 -9 -7 -25t-8 -31t-1 -26t14 -11q8 0 19 7.5t22 18t21.5 22t17.5 19.5zM80 502q-5 -5 -12 0.5t0 12.5q33 35 74 66q7 7 11 -1t-2 -13
q-19 -14 -36.5 -30.5t-34.5 -34.5z" />
    <glyph glyph-name="ucircumflex" unicode="&#xfb;" horiz-adv-x="218" 
d="M216 313q6 5 7.5 -2t-3.5 -14q-6 -8 -16 -20t-23 -23.5t-26.5 -18.5t-25.5 -5q-16 4 -19 17.5t-2 25.5v4q-12 -23 -30.5 -46t-45.5 -32q-19 -6 -29 0t-14 19q-5 18 -0.5 45.5t13.5 55.5t18 50.5t13 30.5t11.5 4t3.5 -11q-29 -61 -43 -132q-1 -5 -2 -13.5t0 -16.5
q2 -15 9 -17.5t17 1.5q15 6 28 17.5t24 26t19.5 30.5t14.5 31l4.5 13.5l5.5 16.5q2 7 9 6t7 -8q0 -2 -1 -4.5t-2 -4.5q-2 -9 -7 -25t-8 -31t-1 -26t14 -11q8 0 19 7.5t22 18t21.5 22t17.5 19.5zM176 512q2 -4 1 -7t-4 -4.5t-6.5 -1.5t-5.5 3q-14 20 -25 41.5t-22 41.5
q-30 -38 -57 -78q-6 -6 -13 -2.5t-2 11.5q16 23 33.5 45.5t36.5 45.5q2 4 6.5 3.5t5.5 -4.5q13 -25 25 -48t27 -46z" />
    <glyph glyph-name="udieresis" unicode="&#xfc;" horiz-adv-x="218" 
d="M216 313q6 5 7.5 -2t-3.5 -14q-6 -8 -16 -20t-23 -23.5t-26.5 -18.5t-25.5 -5q-16 4 -19 17.5t-2 25.5v4q-12 -23 -30.5 -46t-45.5 -32q-19 -6 -29 0t-14 19q-5 18 -0.5 45.5t13.5 55.5t18 50.5t13 30.5t11.5 4t3.5 -11q-29 -61 -43 -132q-1 -5 -2 -13.5t0 -16.5
q2 -15 9 -17.5t17 1.5q15 6 28 17.5t24 26t19.5 30.5t14.5 31l4.5 13.5l5.5 16.5q2 7 9 6t7 -8q0 -2 -1 -4.5t-2 -4.5q-2 -9 -7 -25t-8 -31t-1 -26t14 -11q8 0 19 7.5t22 18t21.5 22t17.5 19.5zM78 505q-8 0 -8 8t8 8h4q8 0 8 -8t-8 -8h-4zM141 501q-9 0 -9 8t9 8q8 0 8 -8
t-8 -8z" />
    <glyph glyph-name="yacute" unicode="&#xfd;" horiz-adv-x="329" 
d="M335 315q4 2 4.5 0t-0.5 -6t-3.5 -8.5t-5.5 -6.5q-46 -29 -82.5 -55.5t-78.5 -60.5q-11 -60 -29 -119t-40 -116q-30 -80 -74 -154q-10 -14 -21 -31t-24 -33.5t-28 -30t-32 -21.5q-23 -11 -42 -1.5t-27 33.5q-5 16 -3.5 33t5.5 34.5t10 34.5t12 32q45 105 116 190.5
t159 157.5q8 38 9 77t-1 77q-20 -32 -41.5 -64t-50.5 -55q-8 -8 -19.5 -12.5t-22.5 -2.5q-16 4 -23 18t-7.5 33t3.5 41t9.5 42.5t11 36.5t8.5 24t11 6t6 -9l-12 -36t-15.5 -57t-5 -54.5t19.5 -28.5q14 -1 32.5 17t36.5 42.5t33 49t23 37.5q4 11 14 10t5 -12q0 -2 -0.5 -2
t-0.5 -1q9 -79 -2 -161q40 30 80.5 58t82.5 54zM91 -36q17 48 32 97t26 101q-21 -18 -40 -35t-39 -36q-32 -34 -64 -73.5t-60 -82t-48.5 -88.5t-28.5 -93q-5 -22 -1 -38t14 -23.5t25 -4t34 21.5q20 18 35 38t29 41q26 41 47 85.5t39 89.5zM113 502q-5 -5 -12 0.5t0 12.5
q33 35 74 66q7 7 11 -1t-2 -13q-19 -14 -36.5 -30.5t-34.5 -34.5z" />
    <glyph glyph-name="ydieresis" unicode="&#xff;" horiz-adv-x="329" 
d="M335 315q4 2 4.5 0t-0.5 -6t-3.5 -8.5t-5.5 -6.5q-46 -29 -82.5 -55.5t-78.5 -60.5q-11 -60 -29 -119t-40 -116q-30 -80 -74 -154q-10 -14 -21 -31t-24 -33.5t-28 -30t-32 -21.5q-23 -11 -42 -1.5t-27 33.5q-5 16 -3.5 33t5.5 34.5t10 34.5t12 32q45 105 116 190.5
t159 157.5q8 38 9 77t-1 77q-20 -32 -41.5 -64t-50.5 -55q-8 -8 -19.5 -12.5t-22.5 -2.5q-16 4 -23 18t-7.5 33t3.5 41t9.5 42.5t11 36.5t8.5 24t11 6t6 -9l-12 -36t-15.5 -57t-5 -54.5t19.5 -28.5q14 -1 32.5 17t36.5 42.5t33 49t23 37.5q4 11 14 10t5 -12q0 -2 -0.5 -2
t-0.5 -1q9 -79 -2 -161q40 30 80.5 58t82.5 54zM91 -36q17 48 32 97t26 101q-21 -18 -40 -35t-39 -36q-32 -34 -64 -73.5t-60 -82t-48.5 -88.5t-28.5 -93q-5 -22 -1 -38t14 -23.5t25 -4t34 21.5q20 18 35 38t29 41q26 41 47 85.5t39 89.5zM80 504q-8 0 -8 8t8 8h4q8 0 8 -8
t-8 -8h-4zM143 500q-9 0 -9 8t9 8q8 0 8 -8t-8 -8z" />
    <glyph glyph-name="OE" unicode="&#x152;" horiz-adv-x="774" 
d="M718 787q17 0 44 -1.5t56.5 -6t57 -13t46 -23t23.5 -35.5t-11 -51q-4 -8 -11.5 -4t-3.5 11q16 29 6 48.5t-35.5 31.5t-61 17t-70.5 6.5t-65 0t-44 -2.5q-23 -2 -45.5 -5t-43.5 -7q-24 -80 -47.5 -158.5t-51.5 -156.5q117 12 237 6q8 -1 8 -9.5t-8 -8.5q-61 4 -121.5 2
t-123.5 -7q-2 -5 -3.5 -10t-3.5 -10q-10 -34 -23 -66t-29 -63q-13 -29 -27 -58t-31 -55q26 -5 51 -17t52 -27q32 -17 65.5 -23t67.5 -4t68.5 9.5t68.5 17.5q7 3 9.5 -5t-5.5 -10q-29 -9 -60.5 -17t-63 -11t-63 -0.5t-61.5 13.5t-56 29t-57 27l-12 2t-11 1q-5 -6 -8 -11
t-8 -10q-14 -20 -33.5 -38.5t-45.5 -18.5q-15 -2 -26 6q-20 -9 -42 -13t-45 0q-53 9 -82.5 49.5t-34.5 92.5q-6 69 15.5 137.5t63.5 126.5q-5 36 0 74t18.5 74t35 68.5t49.5 56.5q18 16 40.5 29.5t47 20.5t50.5 6.5t51 -11.5q18 -8 32 -21t25 -29q69 25 141 38.5t145 15.5z
M343 220q9 13 17 27l16 28q15 33 28.5 66t26.5 67l3 10q-25 -3 -49 -6.5t-50 -8.5q-4 -1 -6.5 1t-3.5 5t0 6t5 4q27 5 54 8.5t55 6.5q11 45 15 89t0 88q-3 26 -9.5 52.5t-19.5 49.5q-22 -8 -43 -17.5t-42 -19.5q-8 -5 -12.5 2.5t3.5 11.5q21 11 42 20t43 17q-12 17 -29 29.5
t-40 17.5q-26 6 -51.5 1t-49 -16.5t-44 -28t-36.5 -34.5q-35 -43 -52.5 -99.5t-14.5 -110.5q26 32 55.5 58t64.5 45q7 5 11 -2t-2 -11q-37 -21 -68.5 -50.5t-58.5 -64.5q8 -42 29.5 -77.5t59.5 -61.5q8 -5 3.5 -11.5t-12.5 -3.5q-38 26 -60.5 60t-31.5 74q-38 -55 -56 -116
t-12 -124q3 -31 16 -57t34 -43t48 -23.5t58 1.5q5 2 11 3.5t11 3.5q-2 11 4.5 21t16.5 18.5t21.5 14.5t19.5 9q16 7 33 9q14 15 26 30.5t23 31.5zM470 618q5 -53 -1 -103q19 58 36.5 116t35.5 117q-26 -6 -50.5 -13.5t-49.5 -15.5q13 -23 20 -49t9 -52zM279 106q8 8 15 17.5
t15 20.5q-2 -1 -6 -1q-17 -17 -35.5 -33t-38.5 -28q13 2 29.5 10.5t20.5 13.5zM218 97q-1 -1 -1 -2q26 14 52 38q-14 -5 -30 -14t-21 -22zM319 160q0 1 0.5 1t0.5 1l-2 -2h1z" />
    <glyph glyph-name="oe" unicode="&#x153;" horiz-adv-x="261" 
d="M264 313q6 5 7 -4t-4 -14q-14 -13 -29.5 -28t-33.5 -28.5t-37 -23.5t-40 -13q-20 -2 -31.5 8t-16.5 26q-6 -11 -15 -22t-19.5 -16.5t-21 -4t-19.5 15.5q-14 22 -13.5 51t11.5 58q-5 21 1 41.5t22 34.5q11 11 30.5 16t33.5 -9q10 -9 13 -24t2 -33q19 30 45 46q7 3 16.5 6
t18.5 2.5t16 -5t8 -15.5q2 -18 -11 -33.5t-31 -27.5t-37 -20.5t-30 -13.5q-1 -1 -2 -1h-1q-2 -12 -2.5 -24t3.5 -22t12.5 -14.5t23.5 -1.5q19 4 37 14t34.5 23.5t31.5 28.5t28 27zM88 357q-2 17 -9 26.5t-16.5 11t-20 -6.5t-17.5 -25q2 4 8 10q2 3 5 3t5 -2t2.5 -5t-1.5 -6
q-16 -20 -24 -48q5 -20 20.5 -28.5t36.5 -10.5q4 14 8.5 37.5t2.5 43.5zM23 213q8 -4 15 -1.5t13 9.5t11 17t9 21q-18 3 -32.5 9.5t-24.5 20.5l-2 -2q-1 -6 -2 -17t-0.5 -22t3.5 -21t10 -14zM139 359q-13 -11 -22 -26t-15 -29q12 6 30 15.5t33.5 20.5t24 22t0.5 19
q-5 4 -12.5 2.5t-15 -6t-14 -10t-9.5 -8.5z" />
    <glyph glyph-name="Ydieresis" unicode="&#x178;" horiz-adv-x="465" 
d="M526 795q5 6 12 2t2 -11q-4 -6 -8.5 -12t-9.5 -12q-33 -175 -113 -337q-33 -67 -72.5 -133t-87.5 -123q-23 -26 -49.5 -48.5t-56.5 -40.5q-24 -15 -52.5 -25.5t-57.5 0.5q-30 12 -32.5 34.5t9 48t30 49.5t30.5 37q47 52 104 91t117 75q7 4 11 -3t-2 -12
q-65 -38 -127.5 -81.5t-109.5 -103.5q-11 -14 -20 -28t-17 -30q-4 -9 -6 -19.5t-0.5 -19.5t8 -16t20.5 -9q17 -2 32.5 2t29.5 11q35 17 66 42t57 54q54 62 95.5 133.5t76.5 144.5q31 67 55 136t39 141q-30 -38 -60.5 -76.5t-63.5 -75.5q-40 -45 -85.5 -93t-98.5 -79
q-17 -10 -38 -13.5t-40 5.5q-17 9 -24.5 27.5t-9 40.5t0.5 44.5t4 38.5q6 51 19.5 100.5t27.5 97.5q2 8 9.5 6t5.5 -10q-10 -34 -19.5 -69.5t-17 -72t-10.5 -73.5t1 -74q2 -23 19.5 -36t40.5 -7q26 7 48.5 27t41.5 38q73 66 134.5 140t121.5 151q2 5 4 6l8 10zM296 837
q-8 0 -8 8t8 8h4q8 0 8 -8t-8 -8h-4zM359 833q-9 0 -9 8t9 8q8 0 8 -8t-8 -8z" />
    <glyph glyph-name="circumflex" unicode="&#x2c6;" horiz-adv-x="241" 
d="M190 703q2 -4 1 -7t-4 -4.5t-6.5 -1.5t-5.5 3q-14 20 -25 41.5t-22 41.5q-30 -38 -57 -78q-6 -6 -13 -2.5t-2 11.5q16 23 33.5 45.5t36.5 45.5q2 4 6.5 3.5t5.5 -4.5q13 -25 25 -48t27 -46z" />
    <glyph glyph-name="ring" unicode="&#x2da;" horiz-adv-x="162" 
d="M73 757q8 4 12 -4t-4 -11q-7 -4 -16 -8.5t-12 -13.5q-2 -3 -2 -7t2 -6q3 -6 9.5 -5t11.5 1q8 3 16.5 6t13.5 11q3 5 2.5 13.5t-8.5 9.5q-8 0 -8 8t8 7q14 -1 21 -12t5 -24q-4 -15 -17.5 -22.5t-27.5 -11.5q-15 -3 -28.5 0.5t-15.5 22.5q-2 17 11 28t27 18z" />
    <glyph glyph-name="tilde" unicode="&#x2dc;" horiz-adv-x="263" 
d="M45 707q-2 -4 -5 -4t-5.5 2t-3 5.5t1.5 6.5q15 20 33.5 30.5t41.5 -4.5q15 -10 28.5 -19.5t27 -12t26.5 5t27 32.5q4 8 11 4t3 -11q-13 -23 -32 -37.5t-46 -9.5q-10 1 -17.5 6.5t-15 12t-15 12t-17.5 7.5q-14 4 -25 -6.5t-18 -19.5z" />
    <glyph glyph-name="quoteleft" unicode="&#x2018;" horiz-adv-x="131" 
d="M67 628q-8 28 -14 51q-3 9 5 11t11 -6q3 -13 6.5 -26t7.5 -26q1 -4 -1 -6.5t-5 -3t-6 0.5t-4 5z" />
    <glyph glyph-name="quoteright" unicode="&#x2019;" horiz-adv-x="131" 
d="M67 685q2 7 10 5t6 -9q-4 -13 -7.5 -26t-6.5 -26q-3 -8 -11 -6t-5 11q6 23 14 51z" />
    <glyph glyph-name="quotedblleft" unicode="&#x201c;" horiz-adv-x="175" 
d="M67 627q-8 28 -14 51q-3 9 5 11t11 -6q3 -13 6.5 -26t7.5 -26q1 -4 -1 -6.5t-5 -3t-6 0.5t-4 5zM105 628q-8 28 -14 51q-3 9 5 11t11 -6q3 -13 6.5 -26t7.5 -26q1 -4 -1 -6.5t-5 -3t-6 0.5t-4 5z" />
    <glyph glyph-name="quotedblright" unicode="&#x201d;" horiz-adv-x="175" 
d="M67 685q2 7 10 5t6 -9q-4 -13 -7.5 -26t-6.5 -26q-3 -8 -11 -6t-5 11q6 23 14 51zM105 684q2 7 10 5t6 -9q-4 -13 -7.5 -26t-6.5 -26q-3 -8 -11 -6t-5 11q6 23 14 51z" />
    <glyph glyph-name="Euro" unicode="&#x20ac;" horiz-adv-x="306" 
d="M305 454q3 -2 3.5 -5.5t-1 -6.5t-4.5 -4t-7 1q-17 11 -37 12t-40 -4.5t-38.5 -16.5t-31.5 -23q-20 -17 -33.5 -39.5t-22.5 -47.5q39 1 79 0t79 -3q9 0 9 -9t-9 -8q-41 2 -81.5 3t-81.5 1q-2 -1 -2 -2.5t-1 -2.5q-2 -11 -4.5 -21.5t-4.5 -23.5q64 5 128 0q8 0 8 -8t-8 -8
q-66 1 -131 0q-1 -20 4 -39t18 -35q13 -17 28.5 -24t32 -8t34.5 2.5t35 9.5q8 2 10 -5.5t-5 -9.5q-20 -7 -39.5 -11t-38 -3t-35.5 9t-32 25q-17 19 -23 42t-5 47q-10 -1 -19 -1h-19q-8 -1 -8 7t8 9q10 0 19.5 0.5t20.5 0.5q2 11 3.5 20.5t3.5 18.5q2 5 4 11h-21t-21 -1
q-9 0 -9 8t9 9h47q12 34 31.5 63.5t49.5 50.5q15 10 34 18.5t39 12.5t39.5 1.5t36.5 -12.5z" />
    <glyph glyph-name="a.001" unicode="&#xe000;" horiz-adv-x="550" 
d="M535 257q8 0 8 -7.5t-8 -7.5q-74 1 -145.5 -4.5t-143.5 -18.5q-22 -4 -44 -9l-44 -10q-9 -2 -21 -6t-22.5 -5t-17.5 3t-8 19q0 19 2.5 39t8.5 41q-13 -17 -27 -35.5t-34 -31.5q-17 -10 -32.5 -8.5t-20.5 27.5q-4 15 -0.5 31.5t11 31.5t18.5 28.5t22 24.5q17 16 36.5 25
t39.5 5q6 0 6 -3q5 5 10 1.5t6 -10.5q1 -2 1 -7q-1 -2 -3 -11.5t-5 -21.5t-5.5 -23t-3.5 -17q0 -5 -2.5 -17.5t-5 -26.5t-4 -26t0.5 -16q2 -5 18 -2t38.5 8t48 11.5t45.5 9.5q68 10 137 15.5t140 3.5zM34 242q13 8 25.5 23.5t23.5 33t19.5 35t13.5 29.5q4 7 0 11q0 -2 -5 -2
q-14 5 -29 -4.5t-24 -15.5q-18 -14 -31 -31t-19 -37q-2 -6 -3.5 -17.5t0.5 -20.5t8.5 -12t20.5 8z" />
    <glyph glyph-name="b.001" unicode="&#xe001;" horiz-adv-x="535" 
d="M523 257q8 -1 5.5 -8.5t-10.5 -6.5q-121 19 -241 8.5t-235 -49.5q-8 -5 -19.5 -6t-13.5 10q0 9 12.5 18t20.5 11q9 2 23 10.5t25 29.5q10 20 18 41t9 44q1 20 -5.5 22.5t-15.5 -3.5q-25 -14 -43.5 -43t-32 -63.5t-22.5 -71t-13 -64.5q-2 -7 -2.5 -19t-0.5 -21q1 0 1 -2
v-3q7 -23 -5 -43q-3 -5 -9.5 -3.5t-6.5 7.5q0 72 14 143t28 143q17 96 38.5 192t43.5 193q3 8 11 5t6 -11l-42 -186t-41 -187q-3 -19 -6 -35t-5 -32q5 15 12.5 32.5t18 34t24 30t30.5 20.5q19 9 31 -2t7 -40q-3 -28 -13.5 -58t-27.5 -53q-2 -3 -8 -9q109 30 219 37.5
t221 -12.5z" />
    <glyph glyph-name="c.001" unicode="&#xe002;" horiz-adv-x="506" 
d="M492 293q10 -2 10 -10t-10 -8q-71 1 -140.5 -16t-138.5 -35q-19 -5 -43.5 -13t-50.5 -13q-23 -3 -44.5 -3.5t-39.5 5.5t-30 21t-16 45q-1 20 6 40t19 37t28.5 31t34.5 22q8 4 20.5 5.5t17.5 -9.5q6 -11 -3.5 -23t-17.5 -20q-5 -5 -11 0.5t-1 12.5q14 15 10 17t-12 -1
q-17 -8 -31.5 -21.5t-25.5 -30.5q-8 -14 -11.5 -29.5t-2.5 -30.5q1 -24 13 -35.5t30 -15t38 -1t38 5.5q31 7 58.5 14t56.5 15q61 17 124.5 31t124.5 13z" />
    <glyph glyph-name="d.001" unicode="&#xe003;" horiz-adv-x="557" 
d="M543 284q8 0 8 -9t-8 -9q-44 -1 -87.5 -7.5t-86 -16t-85.5 -19.5t-86 -19q-21 -3 -43 -6.5t-41 6.5q-22 13 -23 36t6 44q2 7 -1 3q-3 -5 -8 -17.5t-12.5 -26.5t-18.5 -25.5t-26 -13.5q-20 -3 -29 8.5t-11 30.5q-1 21 3 47t14.5 49t28 40.5t43.5 21.5q11 2 20 -2t17 -11v1
q20 88 46.5 175t59.5 172q3 6 10 4.5t5 -8.5q-21 -79 -43 -157.5t-48 -156.5q-4 -8 -8 -17t-6 -17q-3 -10 -9 -34t-10 -50t-2.5 -48.5t15.5 -29.5q13 -7 33.5 -6t42.5 5t42 9.5t33 8.5q66 15 131.5 29t133.5 16zM88 314q5 12 10 25t9 24q-14 19 -28 19.5t-26 -9.5
t-21.5 -26.5t-14.5 -31.5q-2 -3 -4 -12.5t-3 -21t-0.5 -23t3.5 -19.5q4 -14 11.5 -15t15.5 6.5t16 20.5t15 26.5t11.5 23.5t5.5 13z" />
    <glyph glyph-name="e.001" unicode="&#xe004;" horiz-adv-x="513" 
d="M499 271q8 0 8 -9t-8 -9q-81 5 -159 -3t-156 -25q-25 -6 -51.5 -11.5t-54.5 -9.5q-21 -3 -39 -1t-31 10.5t-18 25.5t1 45q7 31 25 60.5t44 46.5q7 4 16.5 7t19 2.5t16 -5t7.5 -16.5q2 -18 -10.5 -33.5t-30.5 -27.5t-37 -20.5t-30 -13.5l-3 -1q-7 -32 0.5 -46.5t24.5 -18
t39.5 1t45.5 9.5q26 5 51.5 10.5t51.5 10.5q69 13 138 18.5t140 2.5zM51 360q-13 -11 -22.5 -26t-14.5 -29q12 5 30 15t33.5 21t24 22t1.5 19q-5 4 -13 2t-15.5 -6.5t-14 -9.5t-9.5 -8z" />
    <glyph glyph-name="f.001" unicode="&#xe005;" horiz-adv-x="441" 
d="M430 253q4 0 5.5 -3t0.5 -6t-3.5 -5t-6.5 -1q-219 32 -428 -19q22 -58 37.5 -119.5t10.5 -124.5q-1 -9 -3 -24.5t-6 -31t-11.5 -27.5t-18.5 -14q-10 -3 -19 3.5t-15.5 16.5t-11.5 21t-8 18q-13 34 -14.5 69t2.5 69q3 38 10 75.5t18 77.5q26 85 63 164q6 10 19 35t30 49.5
t36 40.5t38 8q13 -7 11 -26t-14.5 -45t-32 -57t-40.5 -60.5t-41 -55.5t-33 -43q106 25 211.5 28.5t213.5 -13.5zM81 443q-27 -41 -46 -87.5t-38 -103.5q35 45 67 92t60 95q2 6 6.5 14t8.5 17t6.5 18t1.5 16q0 5 -4 4t-11 -4q-16 -10 -29 -27.5t-22 -33.5zM29 3
q0 54 -12.5 105.5t-35.5 98.5q-17 -65 -24 -132q-3 -30 -2.5 -60.5t8.5 -59.5q1 -5 6 -16t11 -21.5t13 -17.5t14 -2q8 6 12.5 20t6.5 30.5t2.5 31.5t0.5 23z" />
    <glyph glyph-name="g.001" unicode="&#xe006;" horiz-adv-x="574" 
d="M560 272q8 -1 8 -9t-8 -8q-115 4 -228.5 -17t-208.5 -78q0 -4 -0.5 -7t-0.5 -4q-10 -51 -25 -113.5t-40 -123.5t-61 -111.5t-88 -77.5q-26 -11 -49 -3.5t-27 38.5q-5 37 8.5 78.5t39 84t60 85t72.5 81.5q15 15 31 28.5t34 27.5q10 7 17.5 13.5t11.5 8.5q5 29 9.5 59
t6.5 65q-8 -23 -18 -43t-26 -35q-14 -13 -34.5 -15t-34.5 11q-12 9 -17 23.5t-5 30.5t4.5 31t10.5 26q7 13 20.5 28t30.5 26.5t35 17.5t34 2q7 -2 5 -10t-10 -7q-14 4 -30.5 -2.5t-31.5 -18.5t-27.5 -27.5t-16.5 -28.5q-3 -10 -4.5 -24.5t0.5 -28t9.5 -23t22.5 -10.5
q18 -1 33.5 19.5t27.5 49t19.5 57.5t10.5 44v4q1 8 9.5 8t8.5 -8v-7q-5 -57 -11 -110.5t-11 -89.5q98 59 208.5 78.5t225.5 14.5zM64 -13q13 40 22 80.5t17 79.5q-5 -3 -10.5 -6.5t-10.5 -7.5q-13 -10 -26.5 -21.5t-33.5 -31.5q-30 -30 -61 -67t-56.5 -78t-42 -83t-16.5 -82
q2 -28 22.5 -32.5t41.5 7.5q22 13 41 31.5t33 37.5q28 38 47 83t33 90z" />
    <glyph glyph-name="h.001" unicode="&#xe007;" horiz-adv-x="687" 
d="M671 224q4 0 6 -3.5t2 -7t-2 -6t-6 -2.5q-60 6 -120.5 1.5t-120.5 -13.5q-29 -4 -59 -11t-61 -13t-61.5 -10t-59.5 -2q-30 1 -45.5 17t-4.5 57q8 29 20.5 55.5t17.5 55.5q4 23 -3 32.5t-19.5 9.5t-26.5 -7t-23 -17q-44 -43 -72 -105t-42 -120q-5 -33 -7.5 -68t-7.5 -73
q0 -7 -8 -7t-7 7q7 100 21 199t31.5 198t37 197t37.5 196q1 8 9.5 5.5t7.5 -9.5q-26 -136 -52.5 -272t-46.5 -273q15 34 33 65t43 59q9 10 24 22.5t31.5 18.5t31.5 2.5t23 -24.5q5 -12 4.5 -24.5t-4 -25t-8.5 -24t-8 -20.5q-9 -24 -15.5 -43.5t-6 -34t9 -23t28.5 -9.5
q25 -2 53.5 1.5t60 9.5t65 13t68.5 13q58 9 115.5 13.5t116.5 -0.5z" />
    <glyph glyph-name="i.001" unicode="&#xe008;" horiz-adv-x="482" 
d="M24 422q-4 2 -4 6.5t4 7.5q6 3 11 5t9 3t6 -1q5 -5 3.5 -9.5t-3.5 -4.5q-1 -2 -11 -4.5t-15 -2.5zM467 271q9 0 9 -8t-9 -10q-78 -5 -156 -20t-153 -42q-16 -6 -43.5 -15t-55 -12t-49 5.5t-24.5 37.5q-5 34 3.5 67t18.5 71q1 8 9.5 6t6.5 -10q-3 -14 -12 -41.5t-12 -55.5
q-1 -11 -0.5 -29.5t13.5 -27.5t35 -8t48.5 8t54.5 17t52 18q71 24 133.5 34t130.5 15z" />
    <glyph glyph-name="j.001" unicode="&#xe009;" horiz-adv-x="447" 
d="M432 257q3 0 5 -3t2 -6t-2 -5.5t-5 -1.5q-56 3 -112 3.5t-110.5 -5.5t-106 -21t-99.5 -42q-8 -45 -17.5 -92.5t-23.5 -94.5t-34.5 -93t-49.5 -89q-10 -14 -25.5 -28t-33.5 -21t-35.5 -4t-31.5 23q-11 15 -14.5 33t-1.5 37t7.5 37.5t12.5 34.5q16 38 40.5 76.5t55 74
t65.5 66t72 51.5q5 40 8 80t0 88q0 9 9.5 9t9.5 -9q2 -37 -0.5 -76.5t-10.5 -81.5q48 25 99.5 39t106 20t110 5.5t110.5 -4.5zM-143 -191q24 28 43 71.5t34.5 92.5t28 99.5t22.5 92.5q-31 -19 -61.5 -46t-57.5 -58.5t-50 -67t-39 -70.5q-18 -37 -20.5 -75t8.5 -61
t34.5 -21.5t57.5 43.5zM4 435q-10 0 -10 7.5t10 7.5h9q8 0 8 -7.5t-8 -7.5h-9z" />
    <glyph glyph-name="k.001" unicode="&#xe00a;" horiz-adv-x="710" 
d="M696 293q3 0 5 -3t2 -6t-2 -5.5t-5 -1.5q-112 3 -220 -15q-51 -9 -101 -23t-101 -28q-16 -4 -34.5 -8.5t-37.5 -7.5t-37.5 -2.5t-34.5 7.5q-31 12 -37 40t3 57q5 16 13 33t19 32q-33 -24 -62.5 -50t-57.5 -56q-11 -50 -18.5 -97.5t-15.5 -98.5q-1 -3 -4 -4.5t-6 -1.5
t-5.5 1.5t-1.5 4.5q29 180 63.5 357t76.5 356q2 7 9.5 4t6.5 -11q-27 -121 -52 -240t-49 -240q38 36 78 69.5t85 62.5q6 5 10 -2t-3 -12q-23 -15 -43.5 -44t-27.5 -60q-5 -16 -4 -31.5t7 -28t17.5 -21t29.5 -10.5q17 -1 35.5 2.5t35.5 7.5q38 9 75 19.5t75 20.5
q151 40 314 34z" />
    <glyph glyph-name="l.001" unicode="&#xe00b;" horiz-adv-x="604" 
d="M592 293q7 1 7 -7.5t-7 -8.5q-45 -7 -87 -14t-87 -18q-35 -8 -69 -22.5t-69 -22.5q-20 -5 -28.5 -1.5t-19.5 17.5q-8 9 -18 9.5t-20.5 -4.5t-20 -12.5t-16.5 -14.5q-10 -10 -28.5 -34t-40.5 -45t-44 -29.5t-39 13.5q-14 18 -17 44t-1 52q3 61 12.5 121.5t22 122.5
t27.5 125t28 128q1 6 8.5 4t6.5 -11q-13 -62 -27.5 -124.5t-27 -125.5t-22 -127.5t-11.5 -131.5q-1 -17 1.5 -33t8.5 -27t15.5 -14.5t24.5 4.5q20 11 35 29t30 37.5t31.5 38.5t39.5 32q12 8 25.5 5.5t24.5 -13.5q9 -11 14 -17t22 -2q153 61 316 77z" />
    <glyph glyph-name="m.001" unicode="&#xe00c;" horiz-adv-x="900" 
d="M887 294q7 1 7 -7t-7 -8q-139 -6 -270 -37q-60 -14 -115 -33.5t-114 -40.5q-8 -3 -18.5 -6t-19.5 -2.5t-14.5 5.5t-5.5 17q1 32 14 57.5t26 49.5l5.5 11t9 20t8 22.5t3.5 19.5q0 14 -7.5 23t-27.5 6q-15 -3 -28.5 -11t-25.5 -19t-22 -23t-19 -23q-21 -24 -40 -50.5
t-40 -50.5q-3 -5 -8.5 0t-1.5 11q3 9 10.5 30.5t10.5 42.5t-1.5 36t-23.5 11q-21 -4 -50 -23t-57.5 -45.5t-53 -57t-37.5 -58.5q-4 -8 -11.5 -3.5t-6.5 10.5q19 59 35.5 118t36.5 119q1 7 9 5.5t6 -9.5q-11 -43 -27.5 -92t-27.5 -92q14 19 38 43.5t51.5 46t55 37.5t49.5 18
q18 2 24.5 -8t7 -25t-3 -32.5t-6.5 -30.5q27 37 57.5 73.5t69.5 57.5q11 6 25 8.5t26.5 -1t21 -13t10.5 -27.5q-1 -22 -12 -45.5t-25 -49.5q-3 -5 -9.5 -18t-12.5 -27t-9 -27t1 -17q3 -3 11 -2t17 3t17.5 5t12.5 5q49 19 107 38t120.5 34t127 24t127.5 7z" />
    <glyph glyph-name="n.001" unicode="&#xe00d;" horiz-adv-x="689" 
d="M670 331q8 0 8 -8.5t-8 -8.5q-60 2 -117.5 -1t-115.5 -14q-49 -9 -87.5 -22t-85.5 -28q-16 -5 -31 -6.5t-29 3.5q-9 4 -13.5 11t-5 15t2 17t5.5 17q4 12 7 23t4 23q2 23 -12 22.5t-33.5 -11.5t-38 -26t-24.5 -20q-38 -31 -71 -66.5t-53 -77.5q-2 -9 -6 -16t-11 -4t-5 9
q0 5 2.5 8.5t3.5 7.5q24 57 39 117t30 119q2 8 11 6t7 -10q-14 -39 -23.5 -81.5t-20.5 -86.5q14 20 33 39t38 36q12 10 26 22.5t29 23.5t31.5 19t32.5 10q19 2 26.5 -6t7.5 -21.5t-5 -30t-11 -32.5v-2q-8 -18 -3.5 -26t15 -10.5t23 -0.5t21.5 5q42 16 84.5 27.5t87.5 20.5
q58 9 117 13.5t118 1.5z" />
    <glyph glyph-name="o.001" unicode="&#xe00e;" horiz-adv-x="595" 
d="M577 311q8 -1 8 -10t-8 -9q-85 2 -168.5 -3t-165.5 -14q-39 -4 -77 -11t-79 -7q-3 -11 -12.5 -25.5t-21.5 -25t-25 -12t-24 14.5q-15 23 -14 51.5t13 58.5q-8 21 -1 41t23 34q11 11 29.5 15.5t32.5 -9.5q12 -10 16 -26.5t3 -34.5t-5 -35.5t-9 -30.5q19 0 38.5 3.5
t36.5 5.5q32 5 63.5 9.5t63.5 7.5q72 7 142 9.5t141 2.5zM32 374q5 5 10.5 0t0.5 -11q-15 -19 -23 -47q2 -5 4 -8.5t4 -7.5q16 -23 48 -24q4 16 8.5 39t2.5 43q-2 16 -9 25.5t-16 10.5t-19.5 -6.5t-17.5 -24.5q1 5 7 11zM23 214q7 -4 14.5 -1.5t13.5 9t11 16.5t8 21
q-15 0 -30 8t-26 22q-1 -7 -2.5 -18t-1.5 -22.5t3 -21t10 -13.5z" />
    <glyph glyph-name="p.001" unicode="&#xe00f;" horiz-adv-x="585" 
d="M569 342q8 -1 8 -9t-8 -8q-68 2 -138 0t-139 -9q-38 -3 -75.5 -9.5t-73.5 -17.5q-8 -29 -25.5 -58t-46.5 -41q-15 -6 -24.5 -2.5t-13.5 12.5t-2.5 20.5t8.5 22.5q14 23 38 38.5t52 24.5q2 5 4.5 18.5t2 26t-5.5 20t-17 0.5q-21 -10 -37.5 -26.5t-30 -36.5t-25 -41
t-20.5 -39q-6 -33 -14 -74t-14.5 -86.5t-10.5 -93t-3 -93.5q1 -7 -7 -7t-10 7q0 137 26.5 274.5t60.5 274.5q2 7 10 5.5t6 -8.5q-10 -35 -17 -71t-14 -74q7 16 18 33.5t25 33t30.5 27.5t36.5 16q15 1 21 -7.5t7.5 -21.5t-0.5 -28t-3 -25q24 5 56 11t61 9q76 9 152.5 11.5
t151.5 0.5zM88 223q13 12 21.5 29t14.5 34q-10 -4 -22 -10t-23.5 -14t-20 -17.5t-11.5 -21.5t1.5 -15.5t12 -1.5t16 7t11.5 10z" />
    <glyph glyph-name="q.001" unicode="&#xe010;" horiz-adv-x="638" 
d="M617 276q8 0 8 -7.5t-8 -7.5q-71 -1 -143.5 -10t-143.5 -27t-138 -46.5t-127 -67.5q9 -28 19.5 -57t19.5 -59t14.5 -60t5.5 -61q1 -18 -2.5 -43t-13.5 -47.5t-26 -38.5t-41 -14q-29 3 -41 26t-14.5 52.5t1 59.5t6.5 47q13 89 38.5 173.5t56.5 167.5q-11 -16 -22.5 -28
t-23 -16.5t-22.5 1t-21 23.5q-16 31 -8 58t28.5 48t48.5 35t53 20q10 2 11.5 -6t-6.5 -10q-21 -5 -44.5 -15.5t-42 -27t-28 -38.5t-0.5 -49q5 -13 15 -19t21 2q15 9 27.5 24t22.5 33t17 37t12 35q2 6 8 5.5t8 -2.5q8 0 6 -11q-11 -27 -23 -56.5t-23.5 -58.5t-21.5 -57
t-17 -52q61 38 128.5 65.5t138.5 45t143.5 26t143.5 8.5zM109 -126q-2 57 -20 111t-39 111q-15 -50 -26.5 -101.5t-18.5 -105.5l-4.5 -31.5t-1.5 -35.5t6 -35t17 -28q11 -11 23.5 -9.5t23.5 10.5q23 22 32 51.5t8 62.5z" />
    <glyph glyph-name="r.001" unicode="&#xe011;" horiz-adv-x="574" 
d="M559 347q4 -1 6 -4t2 -6t-2 -5.5t-6 -1.5q-210 12 -417 -30q-7 -2 -10 4.5t2 9.5v3q5 10 8 21.5t2 22.5q-1 16 -9.5 22t-20.5 4.5t-25 -8t-22 -13.5q-21 -18 -33.5 -38.5t-21 -43.5t-15 -48t-13.5 -51q-2 -5 -9.5 -4.5t-6.5 8.5q4 24 11 49t14.5 49.5t13.5 50t8 51.5
q2 8 10 8t6 -8q0 -11 -3 -24t-5 -24q14 21 36 40.5t47 23.5q21 3 33 -4t17 -20t4 -29.5t-7 -32.5q102 20 202.5 27t203.5 1z" />
    <glyph glyph-name="s.001" unicode="&#xe012;" horiz-adv-x="537" 
d="M522 316q8 -2 8 -9.5t-8 -7.5q-55 2 -114 1t-118.5 -9t-116.5 -24t-108 -44q4 -8 6.5 -23.5t2.5 -28.5q0 -29 -7.5 -60t-27.5 -54q-14 -17 -39 -34t-51 -15q-20 2 -28 14t-6.5 30t10.5 40t24 45q18 27 41.5 50.5t54.5 41.5q-2 9 -9.5 21t-16.5 25t-18 25.5t-15 21.5
q-11 14 -10.5 28t8.5 25q13 17 34 19.5t40 -6.5q7 -2 2.5 -9t-10.5 -4q-14 5 -26.5 3.5t-20 -7.5t-9.5 -16.5t4 -23.5q7 -10 16.5 -22.5t18.5 -25t16.5 -24.5t10.5 -21q52 28 109.5 44.5t117 24.5t119.5 9.5t116 -0.5zM58 163q0 12 -1 25.5t-6 25.5q-9 -3 -21.5 -12
t-25 -20.5t-24.5 -24.5t-20 -26q-19 -29 -25.5 -56t3.5 -43q5 -8 15 -7.5t21 4.5t20.5 10.5t14.5 10.5q25 21 36.5 52t12.5 61z" />
    <glyph glyph-name="t.001" unicode="&#xe013;" horiz-adv-x="731" 
d="M716 383q8 -2 8 -9.5t-8 -7.5q-79 5 -159 -2t-158 -25q-35 -9 -70 -22.5t-70 -21.5q-13 -5 -26 -5t-24 10q-26 -69 -68 -126q-10 -14 -24 -31t-30.5 -30t-36 -17.5t-39.5 8.5q-15 13 -22 31.5t-8 40t1.5 44.5t5.5 44q3 24 8 53t10.5 61t11.5 65.5t12 65.5q-32 0 -65 -1.5
t-65 -1.5q-8 0 -8 7.5t8 7.5q33 0 66.5 1.5t66.5 3.5q8 26 11.5 51.5t9.5 51.5q2 9 9.5 7t5.5 -10q-5 -26 -8 -50t-9 -50q39 2 79.5 5t90.5 3q7 0 18 0.5t16 -5.5t-0.5 -12t-10.5 0q-2 1 -9 1h-16t-17 -0.5t-10 -0.5q-35 -3 -70 -4t-74 -4q-13 -61 -24 -122.5t-20 -124.5
q-5 -31 -7 -62t8 -58q11 -28 28 -29t35 11t34.5 30t25.5 30q23 31 39.5 63.5t29.5 69.5q2 5 7.5 6.5t7.5 -3.5q7 -12 25 -11.5t39 7.5q24 7 46.5 15t45 14.5t47 12.5t52.5 11q124 21 248 14z" />
    <glyph glyph-name="u.001" unicode="&#xe014;" horiz-adv-x="685" 
d="M666 305q4 -1 5.5 -4.5t0.5 -7t-3.5 -6t-5.5 -1.5q-56 10 -112 8.5t-111 -10.5t-109 -23t-108 -29q-9 -2 -22 -5t-27 -4.5t-27.5 -0.5t-22.5 7q-8 5 -12.5 16.5t-2.5 30.5q-12 -23 -30 -45t-47 -31q-19 -6 -29 -0.5t-14 18.5q-5 18 0 45.5t13.5 55t18 50.5t12.5 31
q2 4 5.5 4.5t6.5 -1t4 -4.5t-2 -7q-14 -29 -24 -62.5t-18 -68.5q-1 -8 -2 -18t1 -17.5t7.5 -11.5t17.5 1q15 6 28.5 17.5t24.5 26t19.5 30.5t13.5 31q4 11 9 29l1 1l1 2q2 7 9.5 4.5t6.5 -9.5q-4 -15 -7 -29.5t-6 -30.5q-7 -36 9.5 -44t48.5 -3q41 8 79.5 19.5t77.5 21.5
q81 20 160.5 28.5t161.5 -4.5z" />
    <glyph glyph-name="v.001" unicode="&#xe015;" horiz-adv-x="670" 
d="M654 276q8 0 8 -7.5t-8 -9.5q-89 -6 -176.5 -15.5t-174.5 -18.5q-22 -2 -53 -5.5t-62 -3.5t-58.5 7t-43.5 27q-7 -10 -16.5 -22t-20 -21t-21.5 -12t-21 5q-7 5 -10 13q-6 12 -5 35t5.5 49t11.5 51t13 41q3 8 9.5 6.5t4.5 -9.5q-2 -5 -6.5 -20t-9 -34.5t-8.5 -41t-4.5 -39
t3 -29t14.5 -10.5q7 1 15 7.5t14.5 14.5t12 17t8.5 16q-6 18 -3.5 39.5t9.5 38.5q2 5 8 17t15 23t19 18t19 2q12 -7 9 -26.5t-13 -41t-23 -41.5t-20 -29q9 -14 24 -21t32 -10t35.5 -3t35.5 1q38 4 75.5 7t75.5 7q71 8 140.5 15.5t140.5 12.5zM133 378q-1 6 -5.5 3t-9.5 -9.5
t-10 -14t-6 -10.5q-8 -12 -13 -30t-1 -34q2 4 10 16.5t16 27.5t14 29t5 22z" />
    <glyph glyph-name="w.001" unicode="&#xe016;" horiz-adv-x="875" 
d="M861 290q8 -2 5.5 -10t-10.5 -7q-50 9 -99 9t-98 -4.5t-97.5 -12.5t-97.5 -14q-17 -2 -36 -5t-38 -4t-37.5 1.5t-34.5 10.5q-12 8 -23 18t-16 25q-14 -26 -29.5 -51.5t-41.5 -42.5q-13 -10 -28 -12.5t-27 10.5q-16 18 -18 45.5t3 55.5q-7 -10 -22.5 -31.5t-34.5 -42
t-39 -33.5t-35 -5q-17 9 -17.5 38t7 62.5t18.5 64t19 44.5q4 7 11 3t3 -10q-12 -23 -20 -46t-14 -49q-2 -8 -5 -25.5t-2 -33.5t7.5 -25t24.5 -1q16 7 31 23.5t29 36.5t27.5 41.5t25.5 38.5q4 6 11 3.5t5 -10.5q-8 -21 -12.5 -43t-2.5 -45q1 -5 2 -13t3 -15.5t6 -13.5t11 -8
q11 -2 23 8.5t20 18.5q15 15 30.5 38.5t26.5 49.5v3q2 12 5.5 24t10.5 22q3 4 8 4q8 -1 8 -11q-1 -11 -6 -20t-8 -20q-4 -24 10.5 -37t36.5 -18.5t46 -6t39 1.5q38 5 78 10.5t80 11.5q70 10 138.5 13t139.5 -9z" />
    <glyph glyph-name="x.001" unicode="&#xe017;" horiz-adv-x="658" 
d="M643 257q8 -1 8 -9t-8 -8q-127 15 -253 -6q-59 -10 -113.5 -27t-110.5 -36q-29 -9 -55 -12t-53 14q-23 13 -34 35.5t-16 47.5q-16 -17 -30 -32.5t-27 -34.5q-6 -5 -12.5 -1t-1.5 12q15 21 31.5 39t34.5 37q-5 30 -8.5 57t-7.5 53q0 8 8 8t8 -8q4 -23 7 -45.5t7 -45.5
q23 24 46 45.5t49 40.5q6 6 12 0.5t1 -10.5q-29 -23 -54 -46.5t-49 -51.5v-5q2 -17 7.5 -33t15.5 -29t24 -21t34 -9q33 -2 68 13t80 29q96 31 195 40.5t197 -1.5z" />
    <glyph glyph-name="y.001" unicode="&#xe018;" horiz-adv-x="734" 
d="M711 328q10 -1 10 -9t-10 -8q-72 1 -144 -5.5t-141 -22.5t-134.5 -43t-125.5 -67q-11 -60 -28.5 -116.5t-38.5 -110.5q-10 -30 -27.5 -70t-41 -79t-51 -72t-57.5 -49q-23 -11 -42.5 -1.5t-26.5 32.5q-4 16 -3 33.5t5 35t10 34.5t11 32q20 46 48.5 93.5t63.5 92t76 84
t87 70.5q2 21 4 39.5t3 37.5t0.5 39t-1.5 43q-20 -31 -41 -64t-50 -54q-8 -8 -19 -13t-22 -3q-16 4 -23 18t-7.5 33t3.5 41t9.5 42.5t11 36.5t8.5 24q4 7 11.5 5.5t5.5 -8.5q-2 -9 -11.5 -36t-16 -57t-5 -54.5t20.5 -28.5q14 -1 32 17t35 42.5t32 49.5t23 37q5 11 15.5 10
t5.5 -12v-3q3 -40 2.5 -81t-6.5 -88q59 39 124 65t133.5 41.5t140 21.5t142.5 5zM148 160q-45 -33 -89.5 -78t-82.5 -97.5t-66 -111t-40 -116.5q-5 -22 -1 -38t13.5 -23.5t25 -4t33.5 21.5q51 49 85 113.5t64 139.5q17 46 31.5 94t24.5 100h2z" />
    <glyph glyph-name="z.001" unicode="&#xe019;" horiz-adv-x="748" 
d="M729 338q8 -2 8 -10t-8 -8q-63 3 -127 1t-126 -12t-120 -31.5t-110 -57.5q7 -23 9 -48.5t0 -48.5t-8 -52t-17.5 -56t-29.5 -48.5t-43 -28.5q-15 -6 -28.5 -4t-24 10.5t-16.5 21t-7 27.5q-2 24 5 49t20 49t29.5 45.5t33.5 39.5q0 2 1 2.5t1 2.5q11 11 21.5 20t21.5 17
q4 4 7.5 6.5t7.5 4.5q-12 35 -36 58t-65 23q-8 0 -8.5 6.5t4.5 8.5q22 17 44.5 36t30.5 47q5 14 -1 29.5t-21 17.5q-8 2 -14.5 0.5t-13.5 -5.5q-13 -9 -31 -28t-37.5 -41.5t-38.5 -44.5t-33 -37q-3 -4 -6.5 -4t-5.5 2.5t-2 6t5 6.5q14 16 31 37.5t35 43t37 40.5t36 30
q16 8 30 12t28 -9q21 -16 22 -35t-9.5 -38t-27.5 -36.5t-32 -29.5q35 -6 56.5 -30t34.5 -55v-1q53 35 112 56t121.5 31t127 12t127.5 0zM225 54q11 32 13.5 75t-6.5 81q-15 -10 -32 -25q-17 -17 -38 -43t-38 -55t-25 -58t1 -51q8 -17 24 -23t31 0q13 5 24.5 16.5t20 26
t15 29.5t10.5 27z" />
    </font>
</defs>
</svg>
